<?xml version="1.0" encoding="utf-8"?>
<!-- Generator: Adobe Illustrator 27.9.0, SVG Export Plug-In . SVG Version: 6.00 Build 0)  -->
<svg version="1.1" id="Layer_1" xmlns="http://www.w3.org/2000/svg" xmlns:xlink="http://www.w3.org/1999/xlink" x="0px" y="0px"
	 viewBox="0 0 234 85.4" style="enable-background:new 0 0 234 85.4;" xml:space="preserve">
<style type="text/css">
	.st0{fill:#5869BB;}
</style>
<g>
	<path class="st0" d="M200.3,65.3c-2-1.6-4.1-3.2-5.9-5c-2.4-2.4-2.4-3.9,0-6.4c1.7-1.7,3.4-3.4,5.2-5.1c1.6-1.5,3.3-1.6,4.9,0
		c7.9,7.9,15.8,15.8,23.7,23.7c1.6,1.6,1.6,3.5,0,5.1c-1.8,2-3.7,3.8-5.7,5.6c-1.7,1.5-3.5,1.4-5.2-0.1c-1.3-1.2-2.6-2.4-3.7-3.7
		c-1.2-1.4-2.3-1.5-3.9-0.7c-11.2,5.2-22.9,5.7-34.2,1.2c-14.8-5.9-23.1-17.4-24.9-33.4c-1.1-9.5,0.3-18.5,5.3-26.7
		c7-11.6,17.3-18.1,30.9-19.3c12.4-1.2,23.4,1.7,32.7,10.2c9.2,8.5,13.3,19.2,12.8,31.5c-0.2,4.4-1.1,8.7-2,13
		c-0.9,3.8-3.8,4.4-6.7,1.6c-1.4-1.3-2.6-2.9-4.1-4c-2.7-2.1-3-4.7-2.6-8c1.3-10.1-2.4-21.2-12.2-26.4c-13.4-7.1-33.8-3-38.2,15.5
		c-2.8,11.8,0.9,23.4,9.8,29.4c6.7,4.5,14.1,5.1,21.8,3.7c0.5-0.1,1-0.4,1.5-0.7C199.8,66.1,200.1,65.7,200.3,65.3z"/>
	<path class="st0" d="M123,65.7c-6.2-14.7-12.1-29-18.4-43.8c-0.8,1.6-1.4,2.5-1.9,3.5c-4.2,10-8.4,19.9-12.6,29.9
		c-1.7,4-2.3,4.4-6.7,4.4c-1.9,0-3.8,0.1-5.7-0.1c-3.7-0.4-5-2.7-3.6-6.1c3.3-7.8,6.7-15.6,10-23.4c3.8-8.8,7.6-17.6,11.3-26.4
		c1.1-2.6,2.7-3.8,5.5-3.6c2.6,0.2,5.2,0.1,7.7,0c2.3-0.1,3.7,1,4.6,3.1c7.1,16.9,14.3,33.7,21.5,50.5c3,7.1,5.9,14.3,9.1,21.3
		c1.5,3.1-0.6,5.8-3.9,5.8c-23.7-0.1-47.5-0.1-71.2,0c-3.4,0-5.5-2.7-3.8-5.7c1-1.6,1.6-3.5,2.3-5.3c1-3,3-4.2,6.2-4.2
		c15.3,0.1,30.7,0,46,0C120.4,65.7,121.4,65.7,123,65.7z"/>
	<path class="st0" d="M27.8,33.7c7.1,0,14.2,0,21.2,0c5.2,0,6.2,0.9,6.2,6c0,1.7,0,3.3,0,5c-0.1,3-1,4.1-4.1,4.1
		c-10.2,0-20.5,0-30.7,0c-6.1,0-5.2-0.3-5.2,5.2c0,7.3,0,14.7,0,22c0,3.7-1.1,4.8-4.7,4.8c-2.2,0-4.5,0-6.7,0
		c-2.3,0-3.6-1.1-3.6-3.5c0-13.2-0.1-26.5,0-39.7c0-2.7,1.6-3.9,5-3.9C12.7,33.7,20.2,33.7,27.8,33.7z"/>
	<path class="st0" d="M30.1,0.2c8.3,0,16.6,0,25,0c3.9,0,5.1,1.1,5.1,5c0,1.7,0,3.5,0,5.2c0,3.5-1.2,4.7-4.8,4.8c-6.3,0-12.6,0-19,0
		c-10.5,0-21,0-31.5,0c-3.8,0-4.8-1.1-4.9-4.9c0-1.9,0-3.8,0-5.7c0.1-3.1,1.3-4.4,4.4-4.4C13,0.2,21.6,0.2,30.1,0.2z"/>
</g>
</svg>
