<?xml version="1.0" encoding="utf-8"?>
<!-- Generator: Adobe Illustrator 28.0.0, SVG Export Plug-In . SVG Version: 6.00 Build 0)  -->
<svg version="1.1" id="Layer_1" xmlns="http://www.w3.org/2000/svg" xmlns:xlink="http://www.w3.org/1999/xlink" x="0px" y="0px"
	 viewBox="0 0 1536.4 1291.6" style="enable-background:new 0 0 1536.4 1291.6;" xml:space="preserve">
<style type="text/css">
	.st0{fill:#5869BB;}
</style>
<path class="st0" d="M1460.2,968.5c6.1,4.9,11.8,10.2,16.1,16.9c13.6,21.1,12.1,55-4.5,72.9c-8,8.7-17.8,14.4-28.7,18.4
	c-10.4,3.9-21.2,5.9-32.3,5.9c-33,0.1-66,0-99,0.2c-6,0-12.3-4.9-11.9-11.9c0.4-6.3,0-12.7,0.1-19c0.1-8.2,4-12.3,12.3-12.3
	c32.5,0,65,0,97.5,0c6.2,0,12.3-0.9,18.1-2.9c13.1-4.4,18.6-21.9,9.9-32.5c-3.9-4.8-8.7-8.4-15.4-10.1c-6.7-1.6-13.3-2.3-20.1-2.3
	c-30,0-60,0-90,0c-3.5,0-6.6-0.5-9.1-3.1c-1.9-2-3.2-4.2-3.2-7.1c0-7.2-0.1-14.3,0-21.5c0.1-5.5,4.2-9.7,9.7-10.2
	c1.7-0.2,3.3-0.1,5-0.1c28,0,56,0,84-0.1c4.6,0,9.3-0.4,13.9-1.2c5.9-1.1,11.2-3.8,14.4-9c5-8.1,6-17,1.1-25.4
	c-3.2-5.4-8.2-9.5-14.9-10.4c-3.9-0.5-7.9-0.9-11.9-1c-29.2-0.1-58.3,0-87.5-0.1c-2,0-4,0-5.9-0.4c-4.5-1.1-7.7-5.1-7.8-9.8
	c-0.2-7.5-0.2-15,0-22.5c0.1-5.6,4.2-9.6,9.8-10.2c0.7-0.1,1.3-0.1,2-0.1c31.3,0,62.6-0.2,94,0.2c16.2,0.2,31.7,4.2,44.9,14.3
	c11.5,8.8,19.8,19.8,22.7,34.2c3.1,15.2,2.6,30.2-4.4,44.3c-2.4,4.9-6,9.2-9.1,13.7C1458.8,967.2,1458.7,967.9,1460.2,968.5z"/>
<path class="st0" d="M1149.9,923.7c-4.2,9.8-8.5,19.5-12.6,29.3c-8.8,21-17.7,42.1-26.4,63.2c-2.3,5.5-5.9,8.1-11.9,7.9
	c-7.3-0.2-14.7-0.1-22-0.1c-0.2,0-0.3,0-0.5,0c-9.9-0.1-14.3-6.7-10.5-16c2.9-7.3,6.1-14.4,9.1-21.6c17-39.8,34-79.6,50.9-119.5
	c2.1-5.1,5.7-7,10.7-7c8.7-0.1,17.3,0.1,26-0.1c6.2-0.2,10,2.5,12.3,8.1c11,26.2,22.2,52.4,33.3,78.7
	c16.9,39.7,33.7,79.4,50.6,119.1c1.6,3.8,2.6,7.5,0.3,11.4c-2,3.4-4.8,5.5-8.8,5.7c-1.5,0.1-3,0.1-4.5,0.1c-64,0-128-0.2-192,0.2
	c-10.9,0.1-17.7-8-12.1-18.3c2.9-5.2,5-10.9,7.1-16.5c2.3-6.1,6.3-8.7,12.9-8.7c43.7,0.1,87.3,0.1,131,0.1c1.9,0,3.9,0,6.5,0
	c-2-4.9-3.6-9-5.3-13.1c-13.9-33.2-27.7-66.4-41.6-99.5c-0.4-1.1-1-2.1-1.5-3.1c-0.1-0.2-0.2-0.5-0.3-0.7
	C1150.4,923.3,1150.2,923.5,1149.9,923.7z"/>
<path class="st0" d="M465.3,1005.3c0-1.8,0-3.5,0-5.3c0-41.8,0-83.7,0-125.5c0-1.7,0-3.3,0.1-5c0.5-5.4,4.3-9.4,9.7-9.6
	c8-0.3,16-0.3,24,0c5.8,0.2,9.7,4.6,10,10.4c0.1,1.3,0,2.7,0,4c0,64.5,0,129,0,193.5c0,1.7,0.1,3.3-0.1,5c-0.5,4.9-4.7,9-9.7,9.1
	c-9.3,0.2-18.7,0.1-28,0c-4.1,0-6.7-2.5-9-5.6c-6.9-9.4-13.7-18.9-20.6-28.3c-41.1-56.4-82.3-112.8-123.4-169.2
	c-0.9-1.2-1.8-2.4-2.5-3.8c-3.4-6.9,0.6-14.8,8.2-15.2c9.5-0.5,19-0.2,28.5-0.1c3.9,0,6.3,2.5,8.4,5.5
	c10.1,13.9,20.3,27.7,30.5,41.5c23.6,32.1,47.2,64.2,70.8,96.2c0.6,0.8,1.3,1.5,1.9,2.3C464.6,1005.4,465,1005.3,465.3,1005.3z"/>
<path class="st0" d="M162.1,1061.7c0-3.7-0.1-7.3,0-11c0.2-5.4,2.6-8.7,7.7-10.4c2.4-0.8,4.9-1.2,7.2-2
	c22.6-7.6,36.1-23.5,42.1-46.2c2.3-8.8,2.6-17.8,2.1-26.8c-1.4-22.2-10.5-40.3-29.1-53.1c-6.7-4.6-14.2-7.3-22-9.1
	c-1.5-0.4-3.3-0.9-4.1-1.9c-1.6-2-3.5-4.5-3.6-6.8c-0.4-8.5-0.5-17-0.1-25.5c0.3-5.9,6.1-9.9,12.2-8.8c14.9,2.6,29,7.6,41.5,16.2
	c26.5,18.1,42.8,43.1,47.7,74.8c4.5,29.1,1.1,57.3-15.2,82.6c-17.2,26.8-41.3,43.9-72.9,49.6c-7.9,1.4-13.3-3.1-13.5-11.2
	C162,1068.7,162.1,1065.2,162.1,1061.7z"/>
<path class="st0" d="M143.3,1062c0,3.5,0.1,7,0,10.5c-0.2,7.9-5.4,12.3-13.2,10.9c-19.7-3.4-37-11.7-52-24.9
	c-18.6-16.4-30.9-36.6-35.5-61c-5.8-31-2.3-60.8,14.7-88c17-27.1,41.6-43.5,73-49.4c5.8-1.1,13.2,2,13,10.5c-0.2,7,0,14,0,21
	c-0.1,7.1-2.5,10.3-9.5,12c-7.4,1.7-14.3,4.4-20.5,8.8c-14.7,10.3-24.1,24.2-27.5,41.9c-3.2,16.7-2.5,33.2,4.4,49
	c8,18.5,21.8,30.7,41.5,36c1.3,0.3,2.6,0.6,3.9,1c5.2,1.6,7.7,4.8,7.8,10.3C143.4,1054.3,143.3,1058.1,143.3,1062L143.3,1062z"/>
<path class="st0" d="M870.2,861.8c3.5-1.7,7.2-2.2,11.1-2.1c5.8,0.2,11.7,0.3,17.5,0c6.2-0.3,11.7,5.2,11.6,11.6
	c-0.3,20.7-0.1,41.3-0.1,62c0,44.7,0,89.3,0,134c0,1.7,0.1,3.3-0.1,5c-0.4,5.3-4.5,9.4-9.8,9.5c-8,0.2-16,0.2-24,0
	c-6.3-0.2-9.1-3-9.8-9.2c-0.2-1.8-0.2-3.7-0.2-5.5c0-64,0-128-0.1-192c0-4.4,0.4-8.6,2.8-12.4C869.5,862.4,869.8,862.1,870.2,861.8z
	"/>
<path class="st0" d="M656.1,903c-24,0-48,0-72,0c-9,0-12.8-3.8-12.9-12.6c0-6.2-0.1-12.3,0-18.5c0.1-7.9,4.2-12,12.1-12
	c27.8,0,55.7,0,83.5,0c20.2,0,40.3,0,60.5,0c2.1,0,4.4,0,6.4,0.7c3.9,1.4,6.5,4.2,6.6,8.5c0.2,8.2,0.3,16.3,0,24.5
	c-0.2,5.7-4.3,9.4-10.2,9.4c-12.7,0.1-25.3,0-38,0C680,903,668.1,903,656.1,903z"/>
<path class="st0" d="M656.2,1039.6c23.2,0,46.3,0,69.5,0c1.8,0,3.7,0,5.5,0.1c5,0.4,8.9,3.9,9.1,9c0.3,8.3,0.3,16.7,0,25
	c-0.2,4.9-4.2,8.5-9.1,9.1c-1.5,0.2-3,0.1-4.5,0.1c-47.1,0-94.3,0-141.4,0c-1.2,0-2.3,0-3.5,0c-5.8-0.4-10.2-4.4-10.4-10.1
	c-0.3-7.7-0.3-15.3,0-23c0.2-5.9,4.7-9.9,10.9-10c10.5-0.1,21,0,31.5,0C627.9,1039.6,642,1039.6,656.2,1039.6z"/>
<path class="st0" d="M649.1,992.9c-21.2,0-42.3,0-63.5,0c-1.5,0-3,0.1-4.5-0.1c-5.4-0.5-9.8-4.7-9.9-10.1c-0.2-7.7-0.2-15.3,0-23
	c0.1-5.7,4-9.5,9.7-10.2c2.3-0.3,4.7-0.3,7-0.4c40.8,0,81.6,0,122.4,0c2.7,0,5.3,0.1,8,0.5c5.2,0.7,8.8,4.4,8.9,9.8
	c0.2,7.7,0.2,15.3,0,23c-0.1,5.8-4.3,9.9-10.1,10.4c-1.5,0.1-3,0.1-4.5,0.1C691.5,992.9,670.3,992.9,649.1,992.9z"/>
<path class="st0" d="M974.2,1082c-11.2,0-22.3,0-33.5,0c-7.8,0-11.5-3.8-11.6-11.7c-0.1-6.2,0.1-12.3,0-18.5
	c-0.2-8.3,3.8-12.9,12.7-12.7c6.8,0.2,13.7,0,20.5,0c14.5,0,29,0,43.5,0c1.5,0,3-0.1,4.5,0.1c5.7,0.7,9.6,4.4,9.8,10.2
	c0.3,7.5,0.2,15,0,22.5c-0.2,5.8-5.4,10.3-10.8,10.2C997.5,1081.8,985.8,1082,974.2,1082z"/>
<path class="st0" d="M314.8,1043.5c0-8.7-0.1-17.3,0-26c0.1-8.2,3.7-11.8,11.9-11.9c6.8-0.1,13.7-0.1,20.5,0
	c7.2,0.1,11.1,3.9,11.1,11.2c0.1,18,0.1,36,0,53.9c0,7.2-4.1,11.1-11.2,11.2c-7,0.1-14,0.1-21,0c-7.4-0.1-11.3-3.9-11.4-11.5
	C314.7,1061.5,314.8,1052.5,314.8,1043.5z"/>
<path class="st0" d="M1479.1,1212c0.9,1.2,1.8,2.4,2.7,3.6c4.9,7.5,2,17-6.3,20.2c-2.3,0.9-4.8,1.6-7.2,1.7
	c-7.2,0.2-14.3,0.2-21.5,0.1c-3.3,0-4.3-0.9-4.3-4.2c0-14.7,0.1-29.3,0.1-44c0-0.3,0.2-0.6,0.5-1.2c0.4-0.1,1-0.5,1.6-0.5
	c7.7,0,15.3-0.3,23,0.1c9.7,0.5,15.6,8.1,13.7,17.4C1480.9,1207.4,1480,1209.4,1479.1,1212z M1452.5,1227.9c5.8,0,11.1,0.1,16.4,0
	c3.2-0.1,5-1.8,5.3-4.3c0.3-2.7-1.2-5-4.4-5.7c-5.7-1.3-11.4-0.6-17.3-0.6C1452.5,1221,1452.5,1224.1,1452.5,1227.9z M1452.5,1208.3
	c5.3-0.5,10-0.6,14.7-1.4c4.1-0.7,4.1-0.9,4-4.6c0-3.3-0.8-4.6-4.3-4.8c-4.7-0.3-9.5-0.1-14.4-0.1
	C1452.5,1200.9,1452.5,1204,1452.5,1208.3z"/>
<path class="st0" d="M289.4,1208.8c-0.1,7.9-0.1,15.8-0.2,23.7c0,4-0.5,4.7-3.1,5.2c-4.2,0.7-5.8-0.1-7.1-3.8c0-14,0-28,0-42
	c0.3-1.8,0.3-4,2.8-4c3,0,6.4-1.1,8.7,2.1c3.4,4.7,7,9.3,10.5,14c0.8,1,1.7,2,2.8,3.4c1.3-1.7,2.4-3.1,3.5-4.5
	c3.1-4.1,6.1-8.3,9.1-12.5c1.1-1.6,2.4-2.5,4.5-2.6c6.6-0.3,7,0,7,6.7c0,12.6,0,25.3,0,37.9c0,4.8-3.4,7-8,5.1c-1.9-0.8-2-2.4-2-4.2
	c0-6.5,0-13,0-19.5c0-2-0.1-4-0.2-6c0-0.6,0-1.1,0-2.4c-0.8,1.1-1.2,1.6-1.5,2c-3,3.7-6,7.5-9,11.1c-1,1.2-2.2,2.3-3.7,3.9
	c-4.4-5.2-8.4-9.9-12.4-14.7c-0.5-0.6-1.1-1.1-2.2-2.3C289.2,1207.3,289.3,1208,289.4,1208.8z"/>
<path class="st0" d="M1049.4,1207.4c4.1-5.6,8.2-10.4,11.5-15.7c2.5-4,5.9-4.2,9.9-3.9c1.9,0.1,2.6,1.2,2.7,2.9c0,2.2,0,4.3,0,6.5
	c0,11.8,0,23.7,0,35.5c0,4.4-0.9,5.2-5.3,5c-3.4-0.1-4.1-0.6-4.3-4.1c-0.2-6.7-0.2-13.3-0.2-20c0-2.1,0-4.3,0-7.7
	c-5.8,5.2-8.8,11.5-14.2,16.4c-5.4-4.6-8.5-10.8-13.8-16c-0.3,1.6-0.6,2.6-0.6,3.6c0,7,0,14,0,21c0,6.4-0.5,6.9-6.8,6.7
	c-0.7,0-1.3-0.1-2.6-0.2c-0.1-1.6-0.4-3.4-0.4-5.1c0-13-0.1-26,0-39c0-1.9-0.8-4.2,1.6-5.3c2.3-1.1,7.8-0.2,9.2,1.6
	c3.8,4.9,7.5,9.8,11.2,14.7C1047.5,1205.2,1048.2,1206,1049.4,1207.4z"/>
<path class="st0" d="M1303.8,1218.5c0-1.8,0-3.6,0-5.3c0-7.2-0.1-14.3,0-21.5c0-3.7,0.5-3.9,4.7-3.9c4.3,0,4.8,0.3,4.9,3.8
	c0.1,14,0.1,28,0,42c0,3.5-0.7,4-4.1,4.2c-0.5,0-1,0-1.5,0c-1.3,0-2.7,0-3.7,0c-7.8-10.7-15.4-21.1-23.7-32.5
	c-0.3,2.1-0.5,3.1-0.5,4.2c0,7.2,0,14.3,0,21.5c0,6.5-0.7,7.1-7.3,6.7c-0.6,0-1.3-0.2-2.2-0.3c-0.1-2-0.3-3.7-0.4-5.5
	c0-12.8,0-25.7,0-38.5c0-1.9-0.8-4.2,1.6-5.3c2.3-1.1,7.8-0.2,9.2,1.6c2.8,3.7,5.6,7.5,8.3,11.2c3.7,5,7.3,9.9,11,14.9
	c0.8,1,1.6,2,2.4,3C1303,1218.8,1303.4,1218.7,1303.8,1218.5z"/>
<path class="st0" d="M629.7,1218.7c0-5.1,0-10.2,0.1-15.3c0-4.9,0.1-9.9,0.1-14.6c1-0.5,1.5-0.9,1.9-0.9c7.4-0.6,7.6-0.5,7.6,7
	c0,12.2,0,24.3,0,36.5c0,6.2-0.2,6.4-6.5,6.4c-1,0-2,0-2.9,0c-7.8-10.6-15.4-21-23.6-32.2c-0.3,1.7-0.7,2.7-0.7,3.7
	c0,7.2,0,14.3,0,21.5c0,6.7-0.6,7.2-7.1,6.9c-0.6,0-1.3-0.2-2.4-0.3c-0.1-1.6-0.4-3.2-0.4-4.8c0-13.2,0-26.3,0-39.5
	c0-1.9-0.8-4.7,1.9-5c2.9-0.4,6.4-1.6,8.8,1.5c1.7,2.2,3.4,4.5,5.1,6.8c4.7,6.4,9.5,12.9,14.2,19.3c0.8,1.1,1.8,2.2,2.7,3.3
	C629,1218.9,629.4,1218.8,629.7,1218.7z"/>
<path class="st0" d="M782.2,1212.6c0-6.8-0.1-13.6,0-20.5c0-3.8,0.5-4.3,4.3-4.3c5.5-0.1,11,0.1,16.5,0
	c13.7-0.4,24.3,11.2,23.8,25.8c-0.2,6.6-2.4,12.6-7.3,17.5c-4.4,4.3-9.7,6.4-15.7,6.6c-5.6,0.2-11.3,0.1-17,0
	c-4-0.1-4.6-0.7-4.6-4.7C782.1,1226.2,782.2,1219.4,782.2,1212.6z M792.3,1227.9c4.6,0,8.5,0.1,12.5,0c4.2-0.2,7.2-2.4,9.4-5.8
	c3.4-5.5,3.7-11.3,0.9-17.2c-1.5-3.1-3.8-5.6-7.1-6.7c-5.1-1.6-10.4-1.1-15.7-0.8C792.3,1207.7,792.3,1217.5,792.3,1227.9z"/>
<path class="st0" d="M559.4,1187.8c14.6,0,24.8,10.5,25.1,25.2c0.3,13.9-10.2,25.9-25.2,25.7c-15-0.2-25.4-10.5-25.3-25.9
	C534.2,1198.3,544.9,1187.8,559.4,1187.8z M544,1213.1c0,9.4,6,15.7,15,15.8c9.2,0.1,15.8-6.4,15.8-15.6c0-9.3-6.4-15.8-15.7-15.7
	C550.1,1197.6,544.1,1203.8,544,1213.1z"/>
<path class="st0" d="M1258.5,1213.1c0.5,14.6-10.8,25.7-24.8,25.7c-15,0-25.4-10.1-25.6-25.2c-0.1-15,10.5-25.7,25.3-25.7
	C1248.1,1187.8,1258.5,1198.3,1258.5,1213.1z M1233.1,1197.6c-9.1,0.1-15.1,6.3-15.1,15.7c0,9.6,6.2,15.8,15.6,15.7
	c8.9-0.1,15.3-6.7,15.2-15.7C1248.9,1203.8,1242.5,1197.5,1233.1,1197.6z"/>
<path class="st0" d="M922.1,1239c-3.8-1-7.9-1.5-11.5-3c-5.1-2.1-7.9-6.4-8.7-11.9c-0.4-3.2,0.2-3.9,3.3-4.1c4.6-0.4,4.9-0.2,7,4.2
	c1.2,2.5,3.3,4,5.8,4.3c3.6,0.4,7.3,0.4,10.9,0.1c2.4-0.2,4.5-1.6,4.7-4.4c0.2-2.7-1.8-3.8-3.9-4.4c-3.3-1-6.7-1.8-10.1-2.9
	c-3.3-1.1-6.7-2.1-9.8-3.6c-10.4-5.2-7.7-17.7-0.9-22.2c7.3-4.9,21.6-4.3,28.3,1.4c3.6,3.1,5.6,6.9,4.7,12.5
	c-2.3,0.1-4.5,0.4-6.8,0.2c-0.9-0.1-2.3-1.1-2.5-1.9c-1.5-5.1-5.8-5.6-10-5.9c-2.2-0.2-4.7,0.3-6.8,1.1c-1.3,0.5-2.4,2.2-2.8,3.6
	c-0.6,2,1.1,3,2.7,3.5c2.7,0.9,5.4,1.6,8.1,2.4c3.7,1.1,7.5,1.9,10.9,3.4c5.4,2.3,9,6.3,8.9,12.6c0,5.9-3.7,10.8-9.9,13
	c-2.8,1-5.8,1.3-8.7,2C924.1,1239,923.1,1239,922.1,1239z"/>
<path class="st0" d="M388.4,1197.6c-2.3-0.1-3.9-0.3-5.5-0.3c-5.2-0.1-10.3-0.1-15.5-0.2c-4.3-0.1-4.7-0.6-4.6-5.1
	c0.1-3.9,0.3-4.2,4.9-4.2c9.8,0,19.6,0,29.5,0c5.6,0,7.7,4,4.8,8.9c-0.9,1.4-2,2.6-3.1,3.9c-6.7,8.1-13.4,16.1-20.1,24.2
	c-0.6,0.7-1.1,1.5-2.1,2.9c1.8,0.1,3,0.3,4.3,0.3c6,0,12-0.1,18,0.1c3.4,0.1,4,0.9,4,4.9c0,3.8-0.6,4.8-4,4.8
	c-10.8,0.1-21.6,0.1-32.5,0c-4,0-5.7-4.3-3.6-8.6c0.5-1,1.4-1.9,2.1-2.8c6.8-8.2,13.6-16.4,20.4-24.6
	C386.4,1200.7,387.1,1199.4,388.4,1197.6z"/>
<path class="st0" d="M1116.8,1224.8c-6.6,0-12.8,0-19.2,0c-1.4,3.2-2.7,6.3-4.1,9.5c-1.4,3.1-6.9,4.8-9.6,2.9
	c-0.7-0.5-1.1-1.7-1.1-2.5c0.1-1.1,0.6-2.2,1.1-3.3c5.6-13.2,11.1-26.3,16.7-39.5c0.6-1.4,1.6-3.6,2.7-3.8c2.5-0.6,5.3-0.3,7.9,0
	c0.8,0.1,1.6,1.6,2,2.6c6,14.1,12,28.1,17.9,42.2c1.4,3.4,0.6,4.5-3.1,4.7c-5.2,0.4-5.7,0.1-7.8-4.9
	C1119.2,1230.2,1118,1227.6,1116.8,1224.8z M1112.4,1214.7c-1.5-4.5-2.8-8.4-5.5-12.7c-1.9,4.8-3.4,8.5-5.1,12.7
	C1105.5,1214.7,1108.6,1214.7,1112.4,1214.7z"/>
<path class="st0" d="M423.5,1224.9c-1.4,3.3-2.8,6.5-4.2,9.7c-1.3,3-7.3,4.6-9.7,2.5c-0.6-0.5-0.9-1.7-0.8-2.6
	c0-0.9,0.6-1.9,0.9-2.8c5.6-13.3,11.2-26.6,17-39.9c0.6-1.4,1.7-3.4,2.9-3.6c2.5-0.5,5.3-0.2,7.9,0.2c0.7,0.1,1.3,1.4,1.7,2.3
	c6,14.2,12.1,28.4,18,42.7c1.3,3.1,0.4,4.2-2.9,4.5c-5.2,0.5-5.9,0-7.9-4.7c-1.2-2.7-2.3-5.4-3.5-8.2
	C436.2,1224.9,429.9,1224.9,423.5,1224.9z M427.6,1214.7c4.1,0,7.2,0,11.1,0c-1.8-4.3-3.4-8.1-5-11.9c-0.4,0-0.7,0-1.1,0
	C431,1206.6,429.5,1210.3,427.6,1214.7z"/>
<path class="st0" d="M1418.5,1224.6c-5.8,0-11.3,0.1-16.8,0c-2,0-3,0.9-3.6,2.7c-1,2.6-2,5.3-3.2,7.8c-1.2,2.6-7.4,3.8-9.7,1.9
	c-1.5-1.3-0.8-2.7-0.2-4.1c2.1-5.1,4.2-10.1,6.4-15.2c3.6-8.6,7.5-17.1,10.8-25.8c1.3-3.5,3.4-4.3,6.8-4.3c3.2,0,5.1,0.7,6.5,4
	c5.4,13.3,11.1,26.4,16.7,39.6c0.5,1.1,1,2.2,1.1,3.3c0.1,0.7-0.1,1.7-0.6,2.3c-1.8,2-8.4,0.9-9.6-1.6
	C1421.5,1231.9,1420.2,1228.5,1418.5,1224.6z M1409.5,1202.9c-0.4-0.1-0.8-0.1-1.2-0.2c-1.1,4-4,7.3-4.1,11.9c3.4,0,6.5,0,10.2,0
	C1412.6,1210.5,1411.1,1206.7,1409.5,1202.9z"/>
<path class="st0" d="M680.9,1224.6c-1.5,3.6-2.8,6.7-4.1,9.7c-1.4,3.2-6.9,4.8-9.7,2.8c-1.8-1.3-1.1-2.9-0.4-4.5
	c2.1-5.1,4.3-10.1,6.4-15.2c3.6-8.6,7.4-17.1,10.8-25.8c1.3-3.3,3.2-4.1,6.4-4.1c3.1,0,5.3,0.5,6.6,3.8c5.6,13.7,11.5,27.3,17.2,41
	c1.7,4.2,0.9,5.1-3.8,5.3c-3.3,0.2-5.3-0.8-6.4-4.1c-1-3-1.9-6.9-4.1-8.3c-2.4-1.5-6.4-0.7-9.7-0.8
	C687.1,1224.6,684.2,1224.6,680.9,1224.6z M696,1214.7c-1.9-4.6-3.5-8.4-5.5-13.3c-2.1,5-3.7,8.9-5.5,13.3
	C688.7,1214.7,691.8,1214.7,696,1214.7z"/>
<path class="st0" d="M168.3,1221.6c0,5.6,0,10.5,0,15c-1,0.5-1.3,0.8-1.6,0.8c-7.6,0.7-8,0.4-8-7.2c0-12.5,0-25,0-37.5
	c0-4.9,0.2-5.1,5.1-5.1c6.2,0,12.3-0.1,18.5,0.1c12.5,0.4,19.7,10.6,16,22.4c-1.9,6-6.1,9.4-12.1,10.5c-2.9,0.6-5.9,0.7-8.9,0.8
	C174.7,1221.7,172,1221.6,168.3,1221.6z M168.8,1211.9c4.6,0,9,0.2,13.5,0c4.6-0.2,6.8-2.4,7-6.8s-1.6-7-6.2-7.5
	c-4.6-0.5-9.2-0.1-14.3-0.1C168.8,1202.2,168.8,1206.8,168.8,1211.9z"/>
<path class="st0" d="M758,1217.9c0.1-8.3,0.1-16.6,0.2-24.9c0-4.6,4.3-7.1,8.4-4.7c0.9,0.5,1.4,2.2,1.5,3.3c0.2,4.3,0.1,8.6,0.1,13
	c0,9.3,0,18.6,0,27.9c0,5.3-0.3,5.4-5.7,5.6c-3,0.1-4.8-1-6.6-3.4c-9.6-13.4-19.3-26.7-29-40c-0.5-0.7-1-1.3-1.5-2
	c-2-3.1-1.4-4.5,2.2-4.9c4.1-0.5,7,0.7,9.6,4.4c6.1,8.9,12.8,17.4,19.3,26c0.3,0.5,0.7,1,1.4,2C757.9,1219,758,1218.4,758,1217.9z"
	/>
<path class="st0" d="M220.1,1197.8c-4.9-0.2-9.5-0.5-14.2-0.7c-0.4-0.9-0.9-1.6-0.9-2.4c-0.7-6.2-0.1-6.9,6.1-6.9
	c10,0,19.9,0,29.9,0c4.7,0,6.7,3.1,4.9,7.5c-0.4,0.9-1.6,1.7-2.6,1.8c-2.1,0.4-4.3,0.3-6.5,0.4c-2,0-3.9,0-6.5,0c0,2.1,0,3.8,0,5.4
	c0,9.8,0,19.6,0,29.4c0,4.9-3.4,7.1-7.8,5.1c-0.9-0.4-1.7-1.6-1.9-2.6c-0.3-1.4-0.2-3-0.2-4.5c0-9.1,0-18.3,0-27.4
	C220.3,1201.3,220.1,1199.6,220.1,1197.8z"/>
<path class="st0" d="M1152.2,1197.3c-4.6,0-8.3,0.2-11.9-0.1c-1.3-0.1-3.5-0.9-3.6-1.7c-0.4-2.2,0-4.5,0.4-6.7
	c0.1-0.5,1.7-0.9,2.6-0.9c11.5-0.1,22.9,0,34.4-0.1c2.3,0,3.3,0.9,3.4,3.2c0.4,5.3-0.3,6.2-5.5,6.3c-3.1,0-6.2,0-9.7,0
	c-0.1,2-0.3,3.4-0.3,4.9c0,9.6,0,19.3,0,28.9c0,6.5-0.6,7-7.2,6.6c-0.6,0-1.3-0.2-2.6-0.4
	C1152.2,1224.2,1152.2,1211.2,1152.2,1197.3z"/>
<path class="st0" d="M488,1197.2c0,3.8,0,7,0,10.1c0,8.1,0,16.3,0,24.4c0,5.6-0.5,6-5.9,5.9c-1,0-2-0.1-3.7-0.3
	c-0.7-13.1,0-26.3-0.4-40.1c-4.1,0-7.7,0.2-11.3,0c-3.9-0.2-6.2-5.2-3.8-8.3c0.7-0.8,2.3-1.2,3.5-1.2c6-0.1,12-0.1,18-0.1
	c5.2,0,10.3-0.1,15.5,0c3.3,0.1,3.6,0.5,3.7,4.4c0.1,4.2-0.4,4.9-3.7,5C496,1197.3,492.2,1197.2,488,1197.2z"/>
<path class="st0" d="M975.9,1197.2c0,5.7,0,10.5,0,15.3c0,6.3,0,12.7,0,19c0,5.7-0.6,6.3-6.3,6.2c-0.8,0-1.7-0.1-3.2-0.3
	c-0.8-13,0-26-0.5-39.4c-1.2-0.2-2.3-0.5-3.4-0.5c-2.3-0.1-4.7,0-7-0.1c-5-0.3-6.6-2.7-5.2-7.5c0.6-1.8,2-2.1,3.5-2.1
	c3.5,0,7,0,10.5,0c7.7,0,15.3,0,23,0c3.7,0,3.9,0.4,4.1,4c0.2,4.9-0.3,5.4-5.3,5.4C982.9,1197.3,979.8,1197.2,975.9,1197.2z"/>
<path class="st0" d="M96.4,1213.3c0.4-11.4,5.9-20.9,17.1-24.6c4.1-1.4,5.7-1.1,6.4,1.1c1.2,3.6,0,7.1-3.1,8.2
	c-6.2,2.2-9.2,6.7-10.2,13c-1.1,7.5,2.8,14.3,9.9,17c3.2,1.3,5.1,6.3,2.9,8.9c-0.8,0.9-3,1.2-4.4,0.9c-6.5-1.4-11.2-5.5-14.8-11
	C97.4,1222.6,96.7,1217.9,96.4,1213.3z"/>
<path class="st0" d="M147.4,1213.1c0,10.9-5,18.7-14.7,23.6c-0.7,0.4-1.5,0.8-2.3,0.9c-1.9,0.4-4.5,1.7-5.5-0.3s-0.6-4.8-0.4-7.2
	c0.1-0.7,1.7-1.5,2.7-1.9c7.1-3,10.1-7.4,10.2-14.9c0.1-7.6-2.9-12.1-9.8-15.2c-1.2-0.6-2.9-1.5-3.2-2.6c-0.4-2-0.3-4.3,0.3-6.3
	c0.2-0.7,2.6-1.2,3.8-0.9c9.7,1.9,17.7,11,18.7,20.9C147.3,1210.4,147.3,1211.8,147.4,1213.1z"/>
<path class="st0" d="M1345,1212.4c0-6.8-0.1-13.6,0-20.5c0-4,0.4-4.2,4.9-4.2c4.3,0,5,0.4,5,4.3c0.1,13.8,0,27.6,0,41.4
	c0,1.7,0.1,3.9-1.9,4.1c-2.4,0.3-4.9,0-7.2-0.6c-0.5-0.1-0.8-2.4-0.8-3.6C1345,1226.4,1345,1219.4,1345,1212.4z"/>
<path class="st0" d="M352.2,1234.9c-1,0.9-2,2.4-3.1,2.7c-1.7,0.4-3.6,0.1-5.4-0.4c-0.7-0.2-1.3-1.4-1.5-2.3c-0.3-1.3-0.1-2.6-0.1-4
	c0-12.5,0-24.9,0-37.4c0-1.9-0.9-4.4,1.5-5.3c1.6-0.6,3.6-0.6,5.4-0.3c1.1,0.2,2.1,1.3,3.1,2
	C352.2,1204.9,352.2,1219.9,352.2,1234.9z"/>
<path class="st0" d="M255.9,1188.4c0-0.2,0.6-0.3,0.7-0.3c8.3-1.1,8.6-0.8,8.6,7.2c0,12.3,0,24.6,0,36.9c0,5-1.7,6.4-6.8,5.5
	c-1.9-0.3-3.1-1.3-3.1-3.3C255.5,1219.1,255.7,1203.9,255.9,1188.4z"/>
<path class="st0" d="M513.1,1212.4c0-6.8-0.1-13.7,0-20.5c0-3.8,0.5-4.1,4.5-4.2c4.4-0.1,5.3,0.4,5.3,3.9c0.1,14,0.1,28,0,42
	c0,3.5-1.1,4.1-5.3,4c-3.8-0.1-4.5-0.6-4.5-4.3C513,1226.4,513.1,1219.4,513.1,1212.4z"/>
<path class="st0" d="M1197.2,1234.9c-1,0.9-2,2.4-3.1,2.7c-1.7,0.4-3.6,0.1-5.3-0.4c-0.7-0.2-1.3-1.4-1.5-2.3c-0.3-0.9-0.1-2-0.1-3
	c0-13.1,0-26.2,0-39.3c0-4.1,0.4-4.7,3.3-4.8c5.2-0.2,6.4-0.3,6.8,4C1197.2,1206.2,1197.2,1220.5,1197.2,1234.9z"/>
<path class="st0" d="M1001.3,1237.4c-0.1-1.9-0.3-3.3-0.3-4.8c0-13.1-0.1-26.3,0-39.4c0-1.7,0.4-4.4,1.4-4.8c2-0.8,4.5-0.4,6.8-0.3
	c0.5,0,1.3,1.1,1.5,1.8c0.3,1.1,0.2,2.3,0.2,3.5c0,12.6,0,25.3,0,37.9c0,6-0.7,6.6-6.6,6.4
	C1003.5,1237.7,1002.7,1237.5,1001.3,1237.4z"/>
<path class="st0" d="M874.3,1238c-5,0-10,0.1-15,0c-3.5-0.1-3.9-0.6-4.1-4.1c-0.2-4.3,0.4-5.3,3.9-5.4c10.1-0.2,20.3-0.3,30.4-0.2
	c3.5,0,4.1,1,4,5.3c-0.1,3.9-0.4,4.3-4.3,4.3C884.2,1238.1,879.3,1238,874.3,1238z"/>
<path class="st0" d="M872.6,1207.9c4.6,0,9.3-0.1,13.9,0c3.4,0.1,4.2,1.2,4.2,5.2c0,3.7-0.7,4.7-4.1,4.7c-9.1,0.1-18.2,0.1-27.3,0
	c-3.6,0-4.2-0.9-4.1-5.1c0-3.9,0.6-4.7,4-4.8C863.7,1207.8,868.2,1207.9,872.6,1207.9z"/>
<path class="st0" d="M874.6,1197.6c-4.7,0-9.3,0-14,0c-4.9,0-7.1-3.4-5-8c0.4-0.9,2-1.8,3.1-1.8c10.5-0.1,21-0.1,31.5-0.1
	c2.3,0,3.2,1,3.4,3.3c0.4,5.5-0.3,6.3-6,6.4c-4.3,0-8.7,0-13,0C874.6,1197.5,874.6,1197.5,874.6,1197.6z"/>
<path class="st0" d="M1378.8,1228.7c0.3,1.1,0.6,1.7,0.7,2.4c0.6,6.3,0.1,6.9-6.1,6.9c-3.6,0-7.3,0-10.9,0c-2.3,0-3.3-1.1-3.3-3.4
	c0-1.2-0.2-2.4,0.1-3.5c0.3-0.9,1.2-2.3,1.9-2.4C1367,1228,1372.9,1227.9,1378.8,1228.7z"/>
<path class="st0" d="M724.4,1237.3c0-5.2,0-10.4,0-15.6c0.4-0.3,0.6-0.6,0.9-0.6c8.5-1,8.8-0.8,8.8,7.6c0,0.5,0,1,0,1.5
	C734.1,1238.6,733.5,1239,724.4,1237.3z"/>
<path class="st0" d="M-52.1,1577.9c0.4,1.4,0.8,2.9,1.2,4.3C-53.3,1581.6-53.5,1580.9-52.1,1577.9z"/>
<path class="st0" d="M289.4,1208.8c-0.1-0.8-0.1-1.6-0.3-3.3c1.1,1.2,1.7,1.8,2.2,2.3C290.6,1208.1,290,1208.5,289.4,1208.8z"/>
<path class="st0" d="M316.4,1207.5c0.4-0.5,0.7-1,1.5-2c0,1.3,0,1.9,0,2.4C317.4,1207.7,316.9,1207.6,316.4,1207.5z"/>
<path class="st0" d="M1460.2,968.5c-1.5-0.6-1.4-1.3-0.1-2C1460.1,967.2,1460.2,967.8,1460.2,968.5z"/>
<path class="st0" d="M1149.9,923.7c0.3-0.2,0.6-0.4,0.9-0.6c0.1,0.2,0.2,0.5,0.3,0.7C1150.6,923.8,1150.3,923.7,1149.9,923.7z"/>
<path class="st0" d="M870.2,861.8c-0.3,0.3-0.7,0.6-1,0.9C869.5,862.4,869.8,862.1,870.2,861.8z"/>
<path class="st0" d="M-958.5,801.1c0.3-0.5,0.5-1,0.8-1.5C-957.9,800.1-958.2,800.6-958.5,801.1z"/>
</svg>
