<?xml version="1.0" encoding="UTF-8"?>
<svg id="Layer_1" data-name="Layer 1" xmlns="http://www.w3.org/2000/svg" viewBox="0 0 1427 108">
  <defs>
    <style>
      .cls-1, .cls-2 {
        fill: #5869bb;
      }

      .cls-2 {
        fill-rule: evenodd;
      }
    </style>
  </defs>
  <path class="cls-2" d="M1402.31,52.81c.87,1.2,1.77,2.4,2.7,3.6,4.9,7.5,2,17-6.3,20.2-2.3.9-4.8,1.6-7.2,1.7-7.2.2-14.3.2-21.5.1-3.3,0-4.3-.9-4.3-4.2,0-14.7.1-29.3.1-44,0-.3.2-.6.5-1.2.4-.1,1-.5,1.6-.5,7.7,0,15.3-.3,23,.1,9.7.5,15.6,8.1,13.7,17.4-.5,2.2-1.4,4.2-2.3,6.8h0ZM1375.71,68.71c5.8,0,11.1.1,16.4,0,3.2-.1,5-1.8,5.3-4.3.3-2.7-1.2-5-4.4-5.7-5.7-1.3-11.4-.6-17.3-.6v10.6ZM1375.71,49.11c5.3-.5,10-.6,14.7-1.4,4.1-.7,4.1-.9,4-4.6,0-3.3-.8-4.6-4.3-4.8-4.7-.3-9.5-.1-14.4-.1v10.9h0Z"/>
  <path class="cls-1" d="M212.61,49.61c-.1,7.9-.1,15.8-.2,23.7,0,4-.5,4.7-3.1,5.2-4.2.7-5.8-.1-7.1-3.8v-42c.3-1.8.3-4,2.8-4,3,0,6.4-1.1,8.7,2.1,3.4,4.7,7,9.3,10.5,14,.8,1,1.7,2,2.8,3.4,1.3-1.7,2.4-3.1,3.5-4.5,3.1-4.1,6.1-8.3,9.1-12.5,1.1-1.6,2.4-2.5,4.5-2.6,6.6-.3,7,0,7,6.7v37.9c0,4.8-3.4,7-8,5.1-1.9-.8-2-2.4-2-4.2v-19.5c0-2-.1-4-.2-6v-2.4c-.8,1.1-1.2,1.6-1.5,2-3,3.7-6,7.5-9,11.1-1,1.2-2.2,2.3-3.7,3.9-4.4-5.2-8.4-9.9-12.4-14.7-.5-.6-1.1-1.1-2.2-2.3.3,1.9.4,2.6.5,3.4h0Z"/>
  <path class="cls-1" d="M972.61,48.21c4.1-5.6,8.2-10.4,11.5-15.7,2.5-4,5.9-4.2,9.9-3.9,1.9.1,2.6,1.2,2.7,2.9v42c0,4.4-.9,5.2-5.3,5-3.4-.1-4.1-.6-4.3-4.1-.2-6.7-.2-13.3-.2-20v-7.7c-5.8,5.2-8.8,11.5-14.2,16.4-5.4-4.6-8.5-10.8-13.8-16-.3,1.6-.6,2.6-.6,3.6v21c0,6.4-.5,6.9-6.8,6.7-.7,0-1.3-.1-2.6-.2-.1-1.6-.4-3.4-.4-5.1,0-13-.1-26,0-39,0-1.9-.8-4.2,1.6-5.3,2.3-1.1,7.8-.2,9.2,1.6,3.8,4.9,7.5,9.8,11.2,14.7.2.9.9,1.7,2.1,3.1h0Z"/>
  <path class="cls-1" d="M1227.01,59.31v-5.3c0-7.2-.1-14.3,0-21.5,0-3.7.5-3.9,4.7-3.9s4.8.3,4.9,3.8c.07,14,.07,28,0,42,0,3.5-.7,4-4.1,4.2h-5.2c-7.8-10.7-15.4-21.1-23.7-32.5-.3,2.1-.5,3.1-.5,4.2v21.5c0,6.5-.7,7.1-7.3,6.7-.6,0-1.3-.2-2.2-.3-.1-2-.3-3.7-.4-5.5v-38.5c0-1.9-.8-4.2,1.6-5.3,2.3-1.1,7.8-.2,9.2,1.6,2.8,3.7,5.6,7.5,8.3,11.2,3.7,5,7.3,9.9,11,14.9.8,1,1.6,2,2.4,3,.5,0,.9-.1,1.3-.3h0Z"/>
  <path class="cls-1" d="M552.91,59.51c0-5.1,0-10.2.1-15.3,0-4.9.1-9.9.1-14.6,1-.5,1.5-.9,1.9-.9,7.4-.6,7.6-.5,7.6,7v36.5c0,6.2-.2,6.4-6.5,6.4h-2.9c-7.8-10.6-15.4-21-23.6-32.2-.3,1.7-.7,2.7-.7,3.7v21.5c0,6.7-.6,7.2-7.1,6.9-.6,0-1.3-.2-2.4-.3-.1-1.6-.4-3.2-.4-4.8v-39.5c0-1.9-.8-4.7,1.9-5,2.9-.4,6.4-1.6,8.8,1.5,1.7,2.2,3.4,4.5,5.1,6.8,4.7,6.4,9.5,12.9,14.2,19.3.8,1.1,1.8,2.2,2.7,3.3.47-.13.87-.23,1.2-.3h0Z"/>
  <path class="cls-2" d="M705.41,53.41c0-6.8-.1-13.6,0-20.5,0-3.8.5-4.3,4.3-4.3,5.5-.1,11,.1,16.5,0,13.7-.4,24.3,11.2,23.8,25.8-.2,6.6-2.4,12.6-7.3,17.5-4.4,4.3-9.7,6.4-15.7,6.6-5.6.2-11.3.1-17,0-4-.1-4.6-.7-4.6-4.7-.1-6.8,0-13.6,0-20.4h0ZM715.51,68.71c4.6,0,8.5.1,12.5,0,4.2-.2,7.2-2.4,9.4-5.8,3.4-5.5,3.7-11.3.9-17.2-1.5-3.1-3.8-5.6-7.1-6.7-5.1-1.6-10.4-1.1-15.7-.8v30.5h0Z"/>
  <path class="cls-2" d="M482.61,28.61c14.6,0,24.8,10.5,25.1,25.2.3,13.9-10.2,25.9-25.2,25.7s-25.4-10.5-25.3-25.9c.2-14.5,10.9-25,25.4-25h0ZM467.21,53.91c0,9.4,6,15.7,15,15.8,9.2.1,15.8-6.4,15.8-15.6s-6.4-15.8-15.7-15.7c-9,0-15,6.2-15.1,15.5h0Z"/>
  <path class="cls-2" d="M1181.71,53.91c.5,14.6-10.8,25.7-24.8,25.7-15,0-25.4-10.1-25.6-25.2-.1-15,10.5-25.7,25.3-25.7,14.7-.1,25.1,10.4,25.1,25.2h0ZM1156.31,38.41c-9.1.1-15.1,6.3-15.1,15.7s6.2,15.8,15.6,15.7c8.9-.1,15.3-6.7,15.2-15.7.1-9.5-6.3-15.8-15.7-15.7Z"/>
  <path class="cls-1" d="M845.31,79.81c-3.8-1-7.9-1.5-11.5-3-5.1-2.1-7.9-6.4-8.7-11.9-.4-3.2.2-3.9,3.3-4.1,4.6-.4,4.9-.2,7,4.2,1.2,2.5,3.3,4,5.8,4.3,3.6.4,7.3.4,10.9.1,2.4-.2,4.5-1.6,4.7-4.4.2-2.7-1.8-3.8-3.9-4.4-3.3-1-6.7-1.8-10.1-2.9-3.3-1.1-6.7-2.1-9.8-3.6-10.4-5.2-7.7-17.7-.9-22.2,7.3-4.9,21.6-4.3,28.3,1.4,3.6,3.1,5.6,6.9,4.7,12.5-2.3.1-4.5.4-6.8.2-.9-.1-2.3-1.1-2.5-1.9-1.5-5.1-5.8-5.6-10-5.9-2.2-.2-4.7.3-6.8,1.1-1.3.5-2.4,2.2-2.8,3.6-.6,2,1.1,3,2.7,3.5,2.7.9,5.4,1.6,8.1,2.4,3.7,1.1,7.5,1.9,10.9,3.4,5.4,2.3,9,6.3,8.9,12.6,0,5.9-3.7,10.8-9.9,13-2.8,1-5.8,1.3-8.7,2h-2.9Z"/>
  <path class="cls-1" d="M311.61,38.41c-2.3-.1-3.9-.3-5.5-.3-5.2-.1-10.3-.1-15.5-.2-4.3-.1-4.7-.6-4.6-5.1.1-3.9.3-4.2,4.9-4.2h29.5c5.6,0,7.7,4,4.8,8.9-.9,1.4-2,2.6-3.1,3.9-6.7,8.1-13.4,16.1-20.1,24.2-.6.7-1.1,1.5-2.1,2.9,1.8.1,3,.3,4.3.3,6,0,12-.1,18,.1,3.4.1,4,.9,4,4.9s-.6,4.8-4,4.8c-10.8.1-21.6.1-32.5,0-4,0-5.7-4.3-3.6-8.6.5-1,1.4-1.9,2.1-2.8,6.8-8.2,13.6-16.4,20.4-24.6,1-1.1,1.7-2.4,3-4.2h0Z"/>
  <path class="cls-2" d="M1040.01,65.61h-19.2c-1.4,3.2-2.7,6.3-4.1,9.5-1.4,3.1-6.9,4.8-9.6,2.9-.7-.5-1.1-1.7-1.1-2.5.1-1.1.6-2.2,1.1-3.3,5.6-13.2,11.1-26.3,16.7-39.5.6-1.4,1.6-3.6,2.7-3.8,2.5-.6,5.3-.3,7.9,0,.8.1,1.6,1.6,2,2.6,6,14.1,12,28.1,17.9,42.2,1.4,3.4.6,4.5-3.1,4.7-5.2.4-5.7.1-7.8-4.9-1-2.5-2.2-5.1-3.4-7.9h0ZM1035.61,55.51c-1.5-4.5-2.8-8.4-5.5-12.7-1.9,4.8-3.4,8.5-5.1,12.7h10.6Z"/>
  <path class="cls-2" d="M346.71,65.71c-1.4,3.3-2.8,6.5-4.2,9.7-1.3,3-7.3,4.6-9.7,2.5-.6-.5-.9-1.7-.8-2.6,0-.9.6-1.9.9-2.8,5.6-13.3,11.2-26.6,17-39.9.6-1.4,1.7-3.4,2.9-3.6,2.5-.5,5.3-.2,7.9.2.7.1,1.3,1.4,1.7,2.3,6,14.2,12.1,28.4,18,42.7,1.3,3.1.4,4.2-2.9,4.5-5.2.5-5.9,0-7.9-4.7-1.2-2.7-2.3-5.4-3.5-8.2-6.7-.1-13-.1-19.4-.1ZM350.81,55.51h11.1c-1.8-4.3-3.4-8.1-5-11.9h-1.1c-1.6,3.8-3.1,7.5-5,11.9Z"/>
  <path class="cls-2" d="M1341.71,65.41c-5.8,0-11.3.1-16.8,0-2,0-3,.9-3.6,2.7-1,2.6-2,5.3-3.2,7.8-1.2,2.6-7.4,3.8-9.7,1.9-1.5-1.3-.8-2.7-.2-4.1,2.1-5.1,4.2-10.1,6.4-15.2,3.6-8.6,7.5-17.1,10.8-25.8,1.3-3.5,3.4-4.3,6.8-4.3,3.2,0,5.1.7,6.5,4,5.4,13.3,11.1,26.4,16.7,39.6.5,1.1,1,2.2,1.1,3.3.1.7-.1,1.7-.6,2.3-1.8,2-8.4.9-9.6-1.6-1.6-3.3-2.9-6.7-4.6-10.6h0ZM1332.71,43.71c-.4-.1-.8-.1-1.2-.2-1.1,4-4,7.3-4.1,11.9h10.2c-1.8-4.1-3.3-7.9-4.9-11.7h0Z"/>
  <path class="cls-2" d="M604.11,65.41c-1.5,3.6-2.8,6.7-4.1,9.7-1.4,3.2-6.9,4.8-9.7,2.8-1.8-1.3-1.1-2.9-.4-4.5,2.1-5.1,4.3-10.1,6.4-15.2,3.6-8.6,7.4-17.1,10.8-25.8,1.3-3.3,3.2-4.1,6.4-4.1s5.3.5,6.6,3.8c5.6,13.7,11.5,27.3,17.2,41,1.7,4.2.9,5.1-3.8,5.3-3.3.2-5.3-.8-6.4-4.1-1-3-1.9-6.9-4.1-8.3-2.4-1.5-6.4-.7-9.7-.8-3,.2-5.9.2-9.2.2h0ZM619.21,55.51c-1.9-4.6-3.5-8.4-5.5-13.3-2.1,5-3.7,8.9-5.5,13.3h11Z"/>
  <path class="cls-2" d="M91.51,62.41v15c-1,.5-1.3.8-1.6.8-7.6.7-8,.4-8-7.2v-37.5c0-4.9.2-5.1,5.1-5.1,6.2,0,12.3-.1,18.5.1,12.5.4,19.7,10.6,16,22.4-1.9,6-6.1,9.4-12.1,10.5-2.9.6-5.9.7-8.9.8-2.6.3-5.3.2-9,.2h0ZM92.01,52.71c4.6,0,9,.2,13.5,0,4.6-.2,6.8-2.4,7-6.8s-1.6-7-6.2-7.5c-4.6-.5-9.2-.1-14.3-.1v14.4Z"/>
  <path class="cls-1" d="M681.21,58.71c.1-8.3.1-16.6.2-24.9,0-4.6,4.3-7.1,8.4-4.7.9.5,1.4,2.2,1.5,3.3.2,4.3.1,8.6.1,13v27.9c0,5.3-.3,5.4-5.7,5.6-3,.1-4.8-1-6.6-3.4-9.6-13.4-19.3-26.7-29-40-.5-.7-1-1.3-1.5-2-2-3.1-1.4-4.5,2.2-4.9,4.1-.5,7,.7,9.6,4.4,6.1,8.9,12.8,17.4,19.3,26,.3.5.7,1,1.4,2,0-1.2.1-1.8.1-2.3h0Z"/>
  <path class="cls-1" d="M143.31,38.61c-4.9-.2-9.5-.5-14.2-.7-.4-.9-.9-1.6-.9-2.4-.7-6.2-.1-6.9,6.1-6.9h29.9c4.7,0,6.7,3.1,4.9,7.5-.4.9-1.6,1.7-2.6,1.8-2.1.4-4.3.3-6.5.4h-6.5v34.8c0,4.9-3.4,7.1-7.8,5.1-.9-.4-1.7-1.6-1.9-2.6-.3-1.4-.2-3-.2-4.5v-27.4c-.1-1.6-.3-3.3-.3-5.1Z"/>
  <path class="cls-1" d="M1075.41,38.11c-4.6,0-8.3.2-11.9-.1-1.3-.1-3.5-.9-3.6-1.7-.4-2.2,0-4.5.4-6.7.1-.5,1.7-.9,2.6-.9,11.5-.1,22.9,0,34.4-.1,2.3,0,3.3.9,3.4,3.2.4,5.3-.3,6.2-5.5,6.3h-9.7c-.1,2-.3,3.4-.3,4.9v28.9c0,6.5-.6,7-7.2,6.6-.6,0-1.3-.2-2.6-.4v-40h0Z"/>
  <path class="cls-1" d="M411.21,38.01v34.5c0,5.6-.5,6-5.9,5.9-1,0-2-.1-3.7-.3-.7-13.1,0-26.3-.4-40.1-4.1,0-7.7.2-11.3,0-3.9-.2-6.2-5.2-3.8-8.3.7-.8,2.3-1.2,3.5-1.2,6-.1,12-.1,18-.1,5.2,0,10.3-.1,15.5,0,3.3.1,3.6.5,3.7,4.4.1,4.2-.4,4.9-3.7,5-3.9.3-7.7.2-11.9.2h0Z"/>
  <path class="cls-1" d="M899.11,38.01v34.3c0,5.7-.6,6.3-6.3,6.2-.8,0-1.7-.1-3.2-.3-.8-13,0-26-.5-39.4-1.2-.2-2.3-.5-3.4-.5-2.3-.1-4.7,0-7-.1-5-.3-6.6-2.7-5.2-7.5.6-1.8,2-2.1,3.5-2.1h33.5c3.7,0,3.9.4,4.1,4,.2,4.9-.3,5.4-5.3,5.4-3.2.1-6.3,0-10.2,0h0Z"/>
  <path class="cls-1" d="M19.61,54.11c.4-11.4,5.9-20.9,17.1-24.6,4.1-1.4,5.7-1.1,6.4,1.1,1.2,3.6,0,7.1-3.1,8.2-6.2,2.2-9.2,6.7-10.2,13-1.1,7.5,2.8,14.3,9.9,17,3.2,1.3,5.1,6.3,2.9,8.9-.8.9-3,1.2-4.4.9-6.5-1.4-11.2-5.5-14.8-11-2.8-4.2-3.5-8.9-3.8-13.5h0Z"/>
  <path class="cls-1" d="M70.61,53.91c0,10.9-5,18.7-14.7,23.6-.7.4-1.5.8-2.3.9-1.9.4-4.5,1.7-5.5-.3s-.6-4.8-.4-7.2c.1-.7,1.7-1.5,2.7-1.9,7.1-3,10.1-7.4,10.2-14.9.1-7.6-2.9-12.1-9.8-15.2-1.2-.6-2.9-1.5-3.2-2.6-.4-2-.3-4.3.3-6.3.2-.7,2.6-1.2,3.8-.9,9.7,1.9,17.7,11,18.7,20.9.1,1.2.1,2.6.2,3.9h0Z"/>
  <path class="cls-1" d="M1268.21,53.21c0-6.8-.1-13.6,0-20.5,0-4,.4-4.2,4.9-4.2s5,.4,5,4.3c.1,13.8,0,27.6,0,41.4,0,1.7.1,3.9-1.9,4.1-2.4.3-4.9,0-7.2-.6-.5-.1-.8-2.4-.8-3.6v-20.9Z"/>
  <path class="cls-1" d="M275.41,75.71c-1,.9-2,2.4-3.1,2.7-1.7.4-3.6.1-5.4-.4-.7-.2-1.3-1.4-1.5-2.3-.3-1.3-.1-2.6-.1-4v-37.4c0-1.9-.9-4.4,1.5-5.3,1.6-.6,3.6-.6,5.4-.3,1.1.2,2.1,1.3,3.1,2,.1,15,.1,30,.1,45Z"/>
  <path class="cls-1" d="M179.11,29.21c0-.2.6-.3.7-.3,8.3-1.1,8.6-.8,8.6,7.2v36.9c0,5-1.7,6.4-6.8,5.5-1.9-.3-3.1-1.3-3.1-3.3.2-15.3.4-30.5.6-46h0Z"/>
  <path class="cls-1" d="M436.31,53.21c0-6.8-.1-13.7,0-20.5,0-3.8.5-4.1,4.5-4.2,4.4-.1,5.3.4,5.3,3.9.07,14,.07,28,0,42,0,3.5-1.1,4.1-5.3,4-3.8-.1-4.5-.6-4.5-4.3-.1-6.9,0-13.9,0-20.9Z"/>
  <path class="cls-1" d="M1120.41,75.71c-1,.9-2,2.4-3.1,2.7-1.7.4-3.6.1-5.3-.4-.7-.2-1.3-1.4-1.5-2.3-.3-.9-.1-2-.1-3v-39.3c0-4.1.4-4.7,3.3-4.8,5.2-.2,6.4-.3,6.8,4-.1,14.4-.1,28.7-.1,43.1h0Z"/>
  <path class="cls-1" d="M924.51,78.21c-.1-1.9-.3-3.3-.3-4.8,0-13.1-.1-26.3,0-39.4,0-1.7.4-4.4,1.4-4.8,2-.8,4.5-.4,6.8-.3.5,0,1.3,1.1,1.5,1.8.3,1.1.2,2.3.2,3.5v37.9c0,6-.7,6.6-6.6,6.4-.8,0-1.6-.2-3-.3h0Z"/>
  <path class="cls-1" d="M797.51,78.81c-5,0-10,.1-15,0-3.5-.1-3.9-.6-4.1-4.1-.2-4.3.4-5.3,3.9-5.4,10.1-.2,20.3-.3,30.4-.2,3.5,0,4.1,1,4,5.3-.1,3.9-.4,4.3-4.3,4.3-5,.2-9.9.1-14.9.1h0Z"/>
  <path class="cls-1" d="M795.81,48.71c4.6,0,9.3-.1,13.9,0,3.4.1,4.2,1.2,4.2,5.2,0,3.7-.7,4.7-4.1,4.7-9.13.13-18.23.13-27.3,0-3.6,0-4.2-.9-4.1-5.1,0-3.9.6-4.7,4-4.8,4.5-.1,9,0,13.4,0h0Z"/>
  <path class="cls-1" d="M797.81,38.41h-14c-4.9,0-7.1-3.4-5-8,.4-.9,2-1.8,3.1-1.8,10.5-.1,21-.1,31.5-.1,2.3,0,3.2,1,3.4,3.3.4,5.5-.3,6.3-6,6.4h-13v.2Z"/>
  <path class="cls-1" d="M1302.01,69.51c.3,1.1.6,1.7.7,2.4.6,6.3.1,6.9-6.1,6.9h-10.9c-2.3,0-3.3-1.1-3.3-3.4,0-1.2-.2-2.4.1-3.5.3-.9,1.2-2.3,1.9-2.4,5.8-.7,11.7-.8,17.6,0h0Z"/>
  <path class="cls-1" d="M647.61,78.11c0-5.2,0-10.4,0-15.6.4-.3.6-.6.9-.6,8.5-1,8.8-.8,8.8,7.6v1.5c0,8.4-.6,8.8-9.7,7.1h0Z"/>
  <path class="cls-1" d="M212.61,49.61c-.1-.8-.1-1.6-.3-3.3,1.1,1.2,1.7,1.8,2.2,2.3-.7.3-1.3.7-1.9,1h0Z"/>
  <path class="cls-1" d="M239.61,48.31c.4-.5.7-1,1.5-2v2.4c-.5-.2-1-.3-1.5-.4Z"/>
</svg>