<?xml version="1.0" encoding="utf-8"?>
<!-- Generator: Adobe Illustrator 27.9.0, SVG Export Plug-In . SVG Version: 6.00 Build 0)  -->
<svg version="1.1" id="Layer_1" xmlns="http://www.w3.org/2000/svg" xmlns:xlink="http://www.w3.org/1999/xlink" x="0px" y="0px"
	 viewBox="0 0 1456.6 244.4" style="enable-background:new 0 0 1456.6 244.4;" xml:space="preserve">
<style type="text/css">
	.st0{fill:#5869BB;}
</style>
<path class="st0" d="M447,977c0.4,1.4,0.8,2.9,1.2,4.3C445.8,980.7,445.6,980,447,977z"/>
<path class="st0" d="M-459.4,200.2c0.3-0.5,0.5-1,0.8-1.5C-458.8,199.2-459.1,199.7-459.4,200.2z"/>
<path class="st0" d="M1424.3,121.9c6.1,4.9,11.8,10.2,16.1,16.9c13.6,21.1,12.1,55-4.5,72.9c-8,8.7-17.8,14.4-28.7,18.4
	c-10.4,3.9-21.2,5.9-32.3,5.9c-33,0.1-66,0-99,0.2c-6,0-12.3-4.9-11.9-11.9c0.4-6.3,0-12.7,0.1-19c0.1-8.2,4-12.3,12.3-12.3
	c32.5,0,65,0,97.5,0c6.2,0,12.3-0.9,18.1-2.9c13.1-4.4,18.6-21.9,9.9-32.5c-3.9-4.8-8.7-8.4-15.4-10.1c-6.7-1.6-13.3-2.3-20.1-2.3
	c-30,0-60,0-90,0c-3.5,0-6.6-0.5-9.1-3.1c-1.9-2-3.2-4.2-3.2-7.1c0-7.2-0.1-14.3,0-21.5c0.1-5.5,4.2-9.7,9.7-10.2
	c1.7-0.2,3.3-0.1,5-0.1c28,0,56,0,84-0.1c4.6,0,9.3-0.4,13.9-1.2c5.9-1.1,11.2-3.8,14.4-9c5-8.1,6-17,1.1-25.4
	c-3.2-5.4-8.2-9.5-14.9-10.4c-3.9-0.5-7.9-0.9-11.9-1c-29.2-0.1-58.3,0-87.5-0.1c-2,0-4,0-5.9-0.4c-4.5-1.1-7.7-5.1-7.8-9.8
	c-0.2-7.5-0.2-15,0-22.5c0.1-5.6,4.2-9.6,9.8-10.2c0.7-0.1,1.3-0.1,2-0.1c31.3,0,62.6-0.2,94,0.2c16.2,0.2,31.7,4.2,44.9,14.3
	c11.5,8.8,19.8,19.8,22.7,34.2c3.1,15.2,2.6,30.2-4.4,44.3c-2.4,4.9-6,9.2-9.1,13.7C1422.9,120.6,1422.8,121.3,1424.3,121.9z"/>
<path class="st0" d="M1114,77.1c-4.2,9.8-8.5,19.5-12.6,29.3c-8.8,21-17.7,42.1-26.4,63.2c-2.3,5.5-5.9,8.1-11.9,7.9
	c-7.3-0.2-14.7-0.1-22-0.1c-0.2,0-0.3,0-0.5,0c-9.9-0.1-14.3-6.7-10.5-16c2.9-7.3,6.1-14.4,9.1-21.6c17-39.8,34-79.6,50.9-119.5
	c2.1-5.1,5.7-7,10.7-7c8.7-0.1,17.3,0.1,26-0.1c6.2-0.2,10,2.5,12.3,8.1c11,26.2,22.2,52.4,33.3,78.7
	c16.9,39.7,33.7,79.4,50.6,119.1c1.6,3.8,2.6,7.5,0.3,11.4c-2,3.4-4.8,5.5-8.8,5.7c-1.5,0.1-3,0.1-4.5,0.1c-64,0-128-0.2-192,0.2
	c-10.9,0.1-17.7-8-12.1-18.3c2.9-5.2,5-10.9,7.1-16.5c2.3-6.1,6.3-8.7,12.9-8.7c43.7,0.1,87.3,0.1,131,0.1c1.9,0,3.9,0,6.5,0
	c-2-4.9-3.6-9-5.3-13.1c-13.9-33.2-27.7-66.4-41.6-99.5c-0.4-1.1-1-2.1-1.5-3.1c-0.1-0.2-0.2-0.5-0.3-0.7
	C1114.5,76.7,1114.3,76.9,1114,77.1z"/>
<path class="st0" d="M429.4,158.7c0-1.8,0-3.5,0-5.3c0-41.8,0-83.7,0-125.5c0-1.7,0-3.3,0.1-5c0.5-5.4,4.3-9.4,9.7-9.6
	c8-0.3,16-0.3,24,0c5.8,0.2,9.7,4.6,10,10.4c0.1,1.3,0,2.7,0,4c0,64.5,0,129,0,193.5c0,1.7,0.1,3.3-0.1,5c-0.5,4.9-4.7,9-9.7,9.1
	c-9.3,0.2-18.7,0.1-28,0c-4.1,0-6.7-2.5-9-5.6c-6.9-9.4-13.7-18.9-20.6-28.3C364.7,145,323.5,88.6,282.4,32.2
	c-0.9-1.2-1.8-2.4-2.5-3.8c-3.4-6.9,0.6-14.8,8.2-15.2c9.5-0.5,19-0.2,28.5-0.1c3.9,0,6.3,2.5,8.4,5.5
	c10.1,13.9,20.3,27.7,30.5,41.5c23.6,32.1,47.2,64.2,70.8,96.2c0.6,0.8,1.3,1.5,1.9,2.3C428.7,158.8,429.1,158.7,429.4,158.7z"/>
<path class="st0" d="M126.2,215.1c0-3.7-0.1-7.3,0-11c0.2-5.4,2.6-8.7,7.7-10.4c2.4-0.8,4.9-1.2,7.2-2c22.6-7.6,36.1-23.5,42.1-46.2
	c2.3-8.8,2.6-17.8,2.1-26.8c-1.4-22.2-10.5-40.3-29.1-53.1c-6.7-4.6-14.2-7.3-22-9.1c-1.5-0.4-3.3-0.9-4.1-1.9
	c-1.6-2-3.5-4.5-3.6-6.8c-0.4-8.5-0.5-17-0.1-25.5c0.3-5.9,6.1-9.9,12.2-8.8c14.9,2.6,29,7.6,41.5,16.2
	c26.5,18.1,42.8,43.1,47.7,74.8c4.5,29.1,1.1,57.3-15.2,82.6c-17.2,26.8-41.3,43.9-72.9,49.6c-7.9,1.4-13.3-3.1-13.5-11.2
	C126.1,222.1,126.2,218.6,126.2,215.1z"/>
<path class="st0" d="M107.4,215.4c0,3.5,0.1,7,0,10.5c-0.2,7.9-5.4,12.3-13.2,10.9c-19.7-3.4-37-11.7-52-24.9
	c-18.6-16.4-30.9-36.6-35.5-61c-5.8-31-2.3-60.8,14.7-88c17-27.1,41.6-43.5,73-49.4c5.8-1.1,13.2,2,13,10.5c-0.2,7,0,14,0,21
	c-0.1,7.1-2.5,10.3-9.5,12c-7.4,1.7-14.3,4.4-20.5,8.8C62.7,76.1,53.3,90,49.9,107.7c-3.2,16.7-2.5,33.2,4.4,49
	c8,18.5,21.8,30.7,41.5,36c1.3,0.3,2.6,0.6,3.9,1c5.2,1.6,7.7,4.8,7.8,10.3C107.5,207.7,107.4,211.5,107.4,215.4L107.4,215.4z"/>
<path class="st0" d="M834.3,15.2c3.5-1.7,7.2-2.2,11.1-2.1c5.8,0.2,11.7,0.3,17.5,0c6.2-0.3,11.7,5.2,11.6,11.6
	c-0.3,20.7-0.1,41.3-0.1,62c0,44.7,0,89.3,0,134c0,1.7,0.1,3.3-0.1,5c-0.4,5.3-4.5,9.4-9.8,9.5c-8,0.2-16,0.2-24,0
	c-6.3-0.2-9.1-3-9.8-9.2c-0.2-1.8-0.2-3.7-0.2-5.5c0-64,0-128-0.1-192c0-4.4,0.4-8.6,2.8-12.4C833.6,15.8,833.9,15.5,834.3,15.2z"/>
<path class="st0" d="M620.2,56.4c-24,0-48,0-72,0c-9,0-12.8-3.8-12.9-12.6c0-6.2-0.1-12.3,0-18.5c0.1-7.9,4.2-12,12.1-12
	c27.8,0,55.7,0,83.5,0c20.2,0,40.3,0,60.5,0c2.1,0,4.4,0,6.4,0.7c3.9,1.4,6.5,4.2,6.6,8.5c0.2,8.2,0.3,16.3,0,24.5
	c-0.2,5.7-4.3,9.4-10.2,9.4c-12.7,0.1-25.3,0-38,0C644.1,56.4,632.2,56.4,620.2,56.4z"/>
<path class="st0" d="M620.3,193c23.2,0,46.3,0,69.5,0c1.8,0,3.7,0,5.5,0.1c5,0.4,8.9,3.9,9.1,9c0.3,8.3,0.3,16.7,0,25
	c-0.2,4.9-4.2,8.5-9.1,9.1c-1.5,0.2-3,0.1-4.5,0.1c-47.1,0-94.3,0-141.4,0c-1.2,0-2.3,0-3.5,0c-5.8-0.4-10.2-4.4-10.4-10.1
	c-0.3-7.7-0.3-15.3,0-23c0.2-5.9,4.7-9.9,10.9-10c10.5-0.1,21,0,31.5,0C592,193,606.1,193,620.3,193z"/>
<path class="st0" d="M613.2,146.3c-21.2,0-42.3,0-63.5,0c-1.5,0-3,0.1-4.5-0.1c-5.4-0.5-9.8-4.7-9.9-10.1c-0.2-7.7-0.2-15.3,0-23
	c0.1-5.7,4-9.5,9.7-10.2c2.3-0.3,4.7-0.3,7-0.4c40.8,0,81.6,0,122.4,0c2.7,0,5.3,0.1,8,0.5c5.2,0.7,8.8,4.4,8.9,9.8
	c0.2,7.7,0.2,15.3,0,23c-0.1,5.8-4.3,9.9-10.1,10.4c-1.5,0.1-3,0.1-4.5,0.1C655.6,146.3,634.4,146.3,613.2,146.3z"/>
<path class="st0" d="M938.3,235.4c-11.2,0-22.3,0-33.5,0c-7.8,0-11.5-3.8-11.6-11.7c-0.1-6.2,0.1-12.3,0-18.5
	c-0.2-8.3,3.8-12.9,12.7-12.7c6.8,0.2,13.7,0,20.5,0c14.5,0,29,0,43.5,0c1.5,0,3-0.1,4.5,0.1c5.7,0.7,9.6,4.4,9.8,10.2
	c0.3,7.5,0.2,15,0,22.5c-0.2,5.8-5.4,10.3-10.8,10.2C961.6,235.2,949.9,235.4,938.3,235.4z"/>
<path class="st0" d="M278.9,196.9c0-8.7-0.1-17.3,0-26c0.1-8.2,3.7-11.8,11.9-11.9c6.8-0.1,13.7-0.1,20.5,0
	c7.2,0.1,11.1,3.9,11.1,11.2c0.1,18,0.1,36,0,53.9c0,7.2-4.1,11.1-11.2,11.2c-7,0.1-14,0.1-21,0c-7.4-0.1-11.3-3.9-11.4-11.5
	C278.8,214.9,278.9,205.9,278.9,196.9z"/>
<path class="st0" d="M1424.3,121.9c-1.5-0.6-1.4-1.3-0.1-2C1424.2,120.6,1424.3,121.2,1424.3,121.9z"/>
<path class="st0" d="M1114,77.1c0.3-0.2,0.6-0.4,0.9-0.6c0.1,0.2,0.2,0.5,0.3,0.7C1114.7,77.2,1114.4,77.1,1114,77.1z"/>
<path class="st0" d="M834.3,15.2c-0.3,0.3-0.7,0.6-1,0.9C833.6,15.8,833.9,15.5,834.3,15.2z"/>
</svg>
