<?xml version="1.0" encoding="utf-8"?>
<!-- Generator: Adobe Illustrator 27.9.0, SVG Export Plug-In . SVG Version: 6.00 Build 0)  -->
<svg version="1.1" id="Layer_1" xmlns="http://www.w3.org/2000/svg" xmlns:xlink="http://www.w3.org/1999/xlink" x="0px" y="0px"
	 viewBox="0 0 2240.5 793.3" style="enable-background:new 0 0 2240.5 793.3;" xml:space="preserve">
<style type="text/css">
	.st0{fill:#5869BB;}
</style>
<path class="st0" d="M2164.3,367.6c6.1,4.9,11.8,10.2,16.1,16.9c13.6,21.1,12.1,55-4.5,72.9c-8,8.7-17.8,14.4-28.7,18.4
	c-10.4,3.9-21.2,5.9-32.3,5.9c-33,0.1-66,0-99,0.2c-6,0-12.3-4.9-11.9-11.9c0.4-6.3,0-12.7,0.1-19c0.1-8.2,4-12.3,12.3-12.3
	c32.5,0,65,0,97.5,0c6.2,0,12.3-0.9,18.1-2.9c13.1-4.4,18.6-21.9,9.9-32.5c-3.9-4.8-8.7-8.4-15.4-10.1c-6.7-1.6-13.3-2.3-20.1-2.3
	c-30,0-60,0-90,0c-3.5,0-6.6-0.5-9.1-3.1c-1.9-2-3.2-4.2-3.2-7.1c0-7.2-0.1-14.3,0-21.5c0.1-5.5,4.2-9.7,9.7-10.2
	c1.7-0.2,3.3-0.1,5-0.1c28,0,56,0,84-0.1c4.6,0,9.3-0.4,13.9-1.2c5.9-1.1,11.2-3.8,14.4-9c5-8.1,6-17,1.1-25.4
	c-3.2-5.4-8.2-9.5-14.9-10.4c-3.9-0.5-7.9-0.9-11.9-1c-29.2-0.1-58.3,0-87.5-0.1c-2,0-4,0-5.9-0.4c-4.5-1.1-7.7-5.1-7.8-9.8
	c-0.2-7.5-0.2-15,0-22.5c0.1-5.6,4.2-9.6,9.8-10.2c0.7-0.1,1.3-0.1,2-0.1c31.3,0,62.6-0.2,94,0.2c16.2,0.2,31.7,4.2,44.9,14.3
	c11.5,8.8,19.8,19.8,22.7,34.2c3.1,15.2,2.6,30.2-4.4,44.3c-2.4,4.9-6,9.2-9.1,13.7C2162.9,366.3,2162.8,367,2164.3,367.6z"/>
<path class="st0" d="M1854,322.8c-4.2,9.8-8.5,19.5-12.6,29.3c-8.8,21-17.7,42.1-26.4,63.2c-2.3,5.5-5.9,8.1-11.9,7.9
	c-7.3-0.2-14.7-0.1-22-0.1c-0.2,0-0.3,0-0.5,0c-9.9-0.1-14.3-6.7-10.5-16c2.9-7.3,6.1-14.4,9.1-21.6c17-39.8,34-79.6,50.9-119.5
	c2.1-5.1,5.7-7,10.7-7c8.7-0.1,17.3,0.1,26-0.1c6.2-0.2,10,2.5,12.3,8.1c11,26.2,22.2,52.4,33.3,78.7
	c16.9,39.7,33.7,79.4,50.6,119.1c1.6,3.8,2.6,7.5,0.3,11.4c-2,3.4-4.8,5.5-8.8,5.7c-1.5,0.1-3,0.1-4.5,0.1c-64,0-128-0.2-192,0.2
	c-10.9,0.1-17.7-8-12.1-18.3c2.9-5.2,5-10.9,7.1-16.5c2.3-6.1,6.3-8.7,12.9-8.7c43.7,0.1,87.3,0.1,131,0.1c1.9,0,3.9,0,6.5,0
	c-2-4.9-3.6-9-5.3-13.1c-13.9-33.2-27.7-66.4-41.6-99.5c-0.4-1.1-1-2.1-1.5-3.1c-0.1-0.2-0.2-0.5-0.3-0.7
	C1854.5,322.4,1854.3,322.6,1854,322.8z"/>
<path class="st0" d="M1169.4,404.4c0-1.8,0-3.5,0-5.3c0-41.8,0-83.7,0-125.5c0-1.7,0-3.3,0.1-5c0.5-5.4,4.3-9.4,9.7-9.6
	c8-0.3,16-0.3,24,0c5.8,0.2,9.7,4.6,10,10.4c0.1,1.3,0,2.7,0,4c0,64.5,0,129,0,193.5c0,1.7,0.1,3.3-0.1,5c-0.5,4.9-4.7,9-9.7,9.1
	c-9.3,0.2-18.7,0.1-28,0c-4.1,0-6.7-2.5-9-5.6c-6.9-9.4-13.7-18.9-20.6-28.3c-41.1-56.4-82.3-112.8-123.4-169.2
	c-0.9-1.2-1.8-2.4-2.5-3.8c-3.4-6.9,0.6-14.8,8.2-15.2c9.5-0.5,19-0.2,28.5-0.1c3.9,0,6.3,2.5,8.4,5.5
	c10.1,13.9,20.3,27.7,30.5,41.5c23.6,32.1,47.2,64.2,70.8,96.2c0.6,0.8,1.3,1.5,1.9,2.3C1168.7,404.5,1169.1,404.4,1169.4,404.4z"/>
<path class="st0" d="M669.5,18.1c0.1,3.7,0.3,7.4,0.3,11.1c0,248.4,0,496.7,0,745.1c0,2.2,0,4.4,0,7c-6,0-11.2,0-16.4,0
	c-0.5-1.1-1-2.3-1.4-3.4c0-1.8,0.1-3.7,0.1-5.5c0-248.3,0-496.6,0-744.9c0-2.1,0-4.2,0-6.3c0.4-1,0.9-1.9,1.3-2.9
	C658.8,18.2,664.2,18.1,669.5,18.1z"/>
<path class="st0" d="M866.2,460.8c0-3.7-0.1-7.3,0-11c0.2-5.4,2.6-8.7,7.7-10.4c2.4-0.8,4.9-1.2,7.2-2c22.6-7.6,36.1-23.5,42.1-46.2
	c2.3-8.8,2.6-17.8,2.1-26.8c-1.4-22.2-10.5-40.3-29.1-53.1c-6.7-4.6-14.2-7.3-22-9.1c-1.5-0.4-3.3-0.9-4.1-1.9
	c-1.6-2-3.5-4.5-3.6-6.8c-0.4-8.5-0.5-17-0.1-25.5c0.3-5.9,6.1-9.9,12.2-8.8c14.9,2.6,29,7.6,41.5,16.2
	c26.5,18.1,42.8,43.1,47.7,74.8c4.5,29.1,1.1,57.3-15.2,82.6c-17.2,26.8-41.3,43.9-72.9,49.6c-7.9,1.4-13.3-3.1-13.5-11.2
	C866.1,467.8,866.2,464.3,866.2,460.8z"/>
<path class="st0" d="M847.4,461.1c0,3.5,0.1,7,0,10.5c-0.2,7.9-5.4,12.3-13.2,10.9c-19.7-3.4-37-11.7-52-24.9
	c-18.6-16.4-30.9-36.6-35.5-61c-5.8-31-2.3-60.8,14.7-88c17-27.1,41.6-43.5,73-49.4c5.8-1.1,13.2,2,13,10.5c-0.2,7,0,14,0,21
	c-0.1,7.1-2.5,10.3-9.5,12c-7.4,1.7-14.3,4.4-20.5,8.8c-14.7,10.3-24.1,24.2-27.5,41.9c-3.2,16.7-2.5,33.2,4.4,49
	c8,18.5,21.8,30.7,41.5,36c1.3,0.3,2.6,0.6,3.9,1c5.2,1.6,7.7,4.8,7.8,10.3C847.5,453.4,847.4,457.2,847.4,461.1L847.4,461.1z"/>
<path class="st0" d="M1574.3,260.9c3.5-1.7,7.2-2.2,11.1-2.1c5.8,0.2,11.7,0.3,17.5,0c6.2-0.3,11.7,5.2,11.6,11.6
	c-0.3,20.7-0.1,41.3-0.1,62c0,44.7,0,89.3,0,134c0,1.7,0.1,3.3-0.1,5c-0.4,5.3-4.5,9.4-9.8,9.5c-8,0.2-16,0.2-24,0
	c-6.3-0.2-9.1-3-9.8-9.2c-0.2-1.8-0.2-3.7-0.2-5.5c0-64,0-128-0.1-192c0-4.4,0.4-8.6,2.8-12.4
	C1573.6,261.5,1573.9,261.2,1574.3,260.9z"/>
<path class="st0" d="M1360.2,302.1c-24,0-48,0-72,0c-9,0-12.8-3.8-12.9-12.6c0-6.2-0.1-12.3,0-18.5c0.1-7.9,4.2-12,12.1-12
	c27.8,0,55.7,0,83.5,0c20.2,0,40.3,0,60.5,0c2.1,0,4.4,0,6.4,0.7c3.9,1.4,6.5,4.2,6.6,8.5c0.2,8.2,0.3,16.3,0,24.5
	c-0.2,5.7-4.3,9.4-10.2,9.4c-12.7,0.1-25.3,0-38,0C1384.1,302.1,1372.2,302.1,1360.2,302.1z"/>
<path class="st0" d="M1360.3,438.7c23.2,0,46.3,0,69.5,0c1.8,0,3.7,0,5.5,0.1c5,0.4,8.9,3.9,9.1,9c0.3,8.3,0.3,16.7,0,25
	c-0.2,4.9-4.2,8.5-9.1,9.1c-1.5,0.2-3,0.1-4.5,0.1c-47.1,0-94.3,0-141.4,0c-1.2,0-2.3,0-3.5,0c-5.8-0.4-10.2-4.4-10.4-10.1
	c-0.3-7.7-0.3-15.3,0-23c0.2-5.9,4.7-9.9,10.9-10c10.5-0.1,21,0,31.5,0C1332,438.7,1346.1,438.7,1360.3,438.7z"/>
<path class="st0" d="M1353.2,392c-21.2,0-42.3,0-63.5,0c-1.5,0-3,0.1-4.5-0.1c-5.4-0.5-9.8-4.7-9.9-10.1c-0.2-7.7-0.2-15.3,0-23
	c0.1-5.7,4-9.5,9.7-10.2c2.3-0.3,4.7-0.3,7-0.4c40.8,0,81.6,0,122.4,0c2.7,0,5.3,0.1,8,0.5c5.2,0.7,8.8,4.4,8.9,9.8
	c0.2,7.7,0.2,15.3,0,23c-0.1,5.8-4.3,9.9-10.1,10.4c-1.5,0.1-3,0.1-4.5,0.1C1395.6,392,1374.4,392,1353.2,392z"/>
<path class="st0" d="M1678.3,481.1c-11.2,0-22.3,0-33.5,0c-7.8,0-11.5-3.8-11.6-11.7c-0.1-6.2,0.1-12.3,0-18.5
	c-0.2-8.3,3.8-12.9,12.7-12.7c6.8,0.2,13.7,0,20.5,0c14.5,0,29,0,43.5,0c1.5,0,3-0.1,4.5,0.1c5.7,0.7,9.6,4.4,9.8,10.2
	c0.3,7.5,0.2,15,0,22.5c-0.2,5.8-5.4,10.3-10.8,10.2C1701.6,480.9,1689.9,481.1,1678.3,481.1z"/>
<path class="st0" d="M1018.9,442.6c0-8.7-0.1-17.3,0-26c0.1-8.2,3.7-11.8,11.9-11.9c6.8-0.1,13.7-0.1,20.5,0
	c7.2,0.1,11.1,3.9,11.1,11.2c0.1,18,0.1,36,0,53.9c0,7.2-4.1,11.1-11.2,11.2c-7,0.1-14,0.1-21,0c-7.4-0.1-11.3-3.9-11.4-11.5
	C1018.8,460.6,1018.9,451.6,1018.9,442.6z"/>
<path class="st0" d="M2183.2,611.1c0.9,1.2,1.8,2.4,2.7,3.6c4.9,7.5,2,17-6.3,20.2c-2.3,0.9-4.8,1.6-7.2,1.7
	c-7.2,0.2-14.3,0.2-21.5,0.1c-3.3,0-4.3-0.9-4.3-4.2c0-14.7,0.1-29.3,0.1-44c0-0.3,0.2-0.6,0.5-1.2c0.4-0.1,1-0.5,1.6-0.5
	c7.7,0,15.3-0.3,23,0.1c9.7,0.5,15.6,8.1,13.7,17.4C2185,606.5,2184.1,608.5,2183.2,611.1z M2156.6,627c5.8,0,11.1,0.1,16.4,0
	c3.2-0.1,5-1.8,5.3-4.3c0.3-2.7-1.2-5-4.4-5.7c-5.7-1.3-11.4-0.6-17.3-0.6C2156.6,620.1,2156.6,623.2,2156.6,627z M2156.6,607.4
	c5.3-0.5,10-0.6,14.7-1.4c4.1-0.7,4.1-0.9,4-4.6c0-3.3-0.8-4.6-4.3-4.8c-4.7-0.3-9.5-0.1-14.4-0.1
	C2156.6,600,2156.6,603.1,2156.6,607.4z"/>
<path class="st0" d="M993.5,607.9c-0.1,7.9-0.1,15.8-0.2,23.7c0,4-0.5,4.7-3.1,5.2c-4.2,0.7-5.8-0.1-7.1-3.8c0-14,0-28,0-42
	c0.3-1.8,0.3-4,2.8-4c3,0,6.4-1.1,8.7,2.1c3.4,4.7,7,9.3,10.5,14c0.8,1,1.7,2,2.8,3.4c1.3-1.7,2.4-3.1,3.5-4.5
	c3.1-4.1,6.1-8.3,9.1-12.5c1.1-1.6,2.4-2.5,4.5-2.6c6.6-0.3,7,0,7,6.7c0,12.6,0,25.3,0,37.9c0,4.8-3.4,7-8,5.1c-1.9-0.8-2-2.4-2-4.2
	c0-6.5,0-13,0-19.5c0-2-0.1-4-0.2-6c0-0.6,0-1.1,0-2.4c-0.8,1.1-1.2,1.6-1.5,2c-3,3.7-6,7.5-9,11.1c-1,1.2-2.2,2.3-3.7,3.9
	c-4.4-5.2-8.4-9.9-12.4-14.7c-0.5-0.6-1.1-1.1-2.2-2.3C993.3,606.4,993.4,607.1,993.5,607.9z"/>
<path class="st0" d="M1753.5,606.5c4.1-5.6,8.2-10.4,11.5-15.7c2.5-4,5.9-4.2,9.9-3.9c1.9,0.1,2.6,1.2,2.7,2.9c0,2.2,0,4.3,0,6.5
	c0,11.8,0,23.7,0,35.5c0,4.4-0.9,5.2-5.3,5c-3.4-0.1-4.1-0.6-4.3-4.1c-0.2-6.7-0.2-13.3-0.2-20c0-2.1,0-4.3,0-7.7
	c-5.8,5.2-8.8,11.5-14.2,16.4c-5.4-4.6-8.5-10.8-13.8-16c-0.3,1.6-0.6,2.6-0.6,3.6c0,7,0,14,0,21c0,6.4-0.5,6.9-6.8,6.7
	c-0.7,0-1.3-0.1-2.6-0.2c-0.1-1.6-0.4-3.4-0.4-5.1c0-13-0.1-26,0-39c0-1.9-0.8-4.2,1.6-5.3c2.3-1.1,7.8-0.2,9.2,1.6
	c3.8,4.9,7.5,9.8,11.2,14.7C1751.6,604.3,1752.3,605.1,1753.5,606.5z"/>
<path class="st0" d="M2007.9,617.6c0-1.8,0-3.6,0-5.3c0-7.2-0.1-14.3,0-21.5c0-3.7,0.5-3.9,4.7-3.9c4.3,0,4.8,0.3,4.9,3.8
	c0.1,14,0.1,28,0,42c0,3.5-0.7,4-4.1,4.2c-0.5,0-1,0-1.5,0c-1.3,0-2.7,0-3.7,0c-7.8-10.7-15.4-21.1-23.7-32.5
	c-0.3,2.1-0.5,3.1-0.5,4.2c0,7.2,0,14.3,0,21.5c0,6.5-0.7,7.1-7.3,6.7c-0.6,0-1.3-0.2-2.2-0.3c-0.1-2-0.3-3.7-0.4-5.5
	c0-12.8,0-25.7,0-38.5c0-1.9-0.8-4.2,1.6-5.3c2.3-1.1,7.8-0.2,9.2,1.6c2.8,3.7,5.6,7.5,8.3,11.2c3.7,5,7.3,9.9,11,14.9
	c0.8,1,1.6,2,2.4,3C2007.1,617.9,2007.5,617.8,2007.9,617.6z"/>
<path class="st0" d="M1333.8,617.8c0-5.1,0-10.2,0.1-15.3c0-4.9,0.1-9.9,0.1-14.6c1-0.5,1.5-0.9,1.9-0.9c7.4-0.6,7.6-0.5,7.6,7
	c0,12.2,0,24.3,0,36.5c0,6.2-0.2,6.4-6.5,6.4c-1,0-2,0-2.9,0c-7.8-10.6-15.4-21-23.6-32.2c-0.3,1.7-0.7,2.7-0.7,3.7
	c0,7.2,0,14.3,0,21.5c0,6.7-0.6,7.2-7.1,6.9c-0.6,0-1.3-0.2-2.4-0.3c-0.1-1.6-0.4-3.2-0.4-4.8c0-13.2,0-26.3,0-39.5
	c0-1.9-0.8-4.7,1.9-5c2.9-0.4,6.4-1.6,8.8,1.5c1.7,2.2,3.4,4.5,5.1,6.8c4.7,6.4,9.5,12.9,14.2,19.3c0.8,1.1,1.8,2.2,2.7,3.3
	C1333.1,618,1333.5,617.9,1333.8,617.8z"/>
<path class="st0" d="M1486.3,611.7c0-6.8-0.1-13.6,0-20.5c0-3.8,0.5-4.3,4.3-4.3c5.5-0.1,11,0.1,16.5,0
	c13.7-0.4,24.3,11.2,23.8,25.8c-0.2,6.6-2.4,12.6-7.3,17.5c-4.4,4.3-9.7,6.4-15.7,6.6c-5.6,0.2-11.3,0.1-17,0
	c-4-0.1-4.6-0.7-4.6-4.7C1486.2,625.3,1486.3,618.5,1486.3,611.7z M1496.4,627c4.6,0,8.5,0.1,12.5,0c4.2-0.2,7.2-2.4,9.4-5.8
	c3.4-5.5,3.7-11.3,0.9-17.2c-1.5-3.1-3.8-5.6-7.1-6.7c-5.1-1.6-10.4-1.1-15.7-0.8C1496.4,606.8,1496.4,616.6,1496.4,627z"/>
<path class="st0" d="M1263.5,586.9c14.6,0,24.8,10.5,25.1,25.2c0.3,13.9-10.2,25.9-25.2,25.7s-25.4-10.5-25.3-25.9
	C1238.3,597.4,1249,586.9,1263.5,586.9z M1248.1,612.2c0,9.4,6,15.7,15,15.8c9.2,0.1,15.8-6.4,15.8-15.6c0-9.3-6.4-15.8-15.7-15.7
	C1254.2,596.7,1248.2,602.9,1248.1,612.2z"/>
<path class="st0" d="M1962.6,612.2c0.5,14.6-10.8,25.7-24.8,25.7c-15,0-25.4-10.1-25.6-25.2c-0.1-15,10.5-25.7,25.3-25.7
	C1952.2,586.9,1962.6,597.4,1962.6,612.2z M1937.2,596.7c-9.1,0.1-15.1,6.3-15.1,15.7c0,9.6,6.2,15.8,15.6,15.7
	c8.9-0.1,15.3-6.7,15.2-15.7C1953,602.9,1946.6,596.6,1937.2,596.7z"/>
<path class="st0" d="M1626.2,638.1c-3.8-1-7.9-1.5-11.5-3c-5.1-2.1-7.9-6.4-8.7-11.9c-0.4-3.2,0.2-3.9,3.3-4.1
	c4.6-0.4,4.9-0.2,7,4.2c1.2,2.5,3.3,4,5.8,4.3c3.6,0.4,7.3,0.4,10.9,0.1c2.4-0.2,4.5-1.6,4.7-4.4c0.2-2.7-1.8-3.8-3.9-4.4
	c-3.3-1-6.7-1.8-10.1-2.9c-3.3-1.1-6.7-2.1-9.8-3.6c-10.4-5.2-7.7-17.7-0.9-22.2c7.3-4.9,21.6-4.3,28.3,1.4
	c3.6,3.1,5.6,6.9,4.7,12.5c-2.3,0.1-4.5,0.4-6.8,0.2c-0.9-0.1-2.3-1.1-2.5-1.9c-1.5-5.1-5.8-5.6-10-5.9c-2.2-0.2-4.7,0.3-6.8,1.1
	c-1.3,0.5-2.4,2.2-2.8,3.6c-0.6,2,1.1,3,2.7,3.5c2.7,0.9,5.4,1.6,8.1,2.4c3.7,1.1,7.5,1.9,10.9,3.4c5.4,2.3,9,6.3,8.9,12.6
	c0,5.9-3.7,10.8-9.9,13c-2.8,1-5.8,1.3-8.7,2C1628.2,638.1,1627.2,638.1,1626.2,638.1z"/>
<path class="st0" d="M1092.5,596.7c-2.3-0.1-3.9-0.3-5.5-0.3c-5.2-0.1-10.3-0.1-15.5-0.2c-4.3-0.1-4.7-0.6-4.6-5.1
	c0.1-3.9,0.3-4.2,4.9-4.2c9.8,0,19.6,0,29.5,0c5.6,0,7.7,4,4.8,8.9c-0.9,1.4-2,2.6-3.1,3.9c-6.7,8.1-13.4,16.1-20.1,24.2
	c-0.6,0.7-1.1,1.5-2.1,2.9c1.8,0.1,3,0.3,4.3,0.3c6,0,12-0.1,18,0.1c3.4,0.1,4,0.9,4,4.9c0,3.8-0.6,4.8-4,4.8
	c-10.8,0.1-21.6,0.1-32.5,0c-4,0-5.7-4.3-3.6-8.6c0.5-1,1.4-1.9,2.1-2.8c6.8-8.2,13.6-16.4,20.4-24.6
	C1090.5,599.8,1091.2,598.5,1092.5,596.7z"/>
<path class="st0" d="M1820.9,623.9c-6.6,0-12.8,0-19.2,0c-1.4,3.2-2.7,6.3-4.1,9.5c-1.4,3.1-6.9,4.8-9.6,2.9
	c-0.7-0.5-1.1-1.7-1.1-2.5c0.1-1.1,0.6-2.2,1.1-3.3c5.6-13.2,11.1-26.3,16.7-39.5c0.6-1.4,1.6-3.6,2.7-3.8c2.5-0.6,5.3-0.3,7.9,0
	c0.8,0.1,1.6,1.6,2,2.6c6,14.1,12,28.1,17.9,42.2c1.4,3.4,0.6,4.5-3.1,4.7c-5.2,0.4-5.7,0.1-7.8-4.9
	C1823.3,629.3,1822.1,626.7,1820.9,623.9z M1816.5,613.8c-1.5-4.5-2.8-8.4-5.5-12.7c-1.9,4.8-3.4,8.5-5.1,12.7
	C1809.6,613.8,1812.7,613.8,1816.5,613.8z"/>
<path class="st0" d="M1127.6,624c-1.4,3.3-2.8,6.5-4.2,9.7c-1.3,3-7.3,4.6-9.7,2.5c-0.6-0.5-0.9-1.7-0.8-2.6c0-0.9,0.6-1.9,0.9-2.8
	c5.6-13.3,11.2-26.6,17-39.9c0.6-1.4,1.7-3.4,2.9-3.6c2.5-0.5,5.3-0.2,7.9,0.2c0.7,0.1,1.3,1.4,1.7,2.3c6,14.2,12.1,28.4,18,42.7
	c1.3,3.1,0.4,4.2-2.9,4.5c-5.2,0.5-5.9,0-7.9-4.7c-1.2-2.7-2.3-5.4-3.5-8.2C1140.3,624,1134,624,1127.6,624z M1131.7,613.8
	c4.1,0,7.2,0,11.1,0c-1.8-4.3-3.4-8.1-5-11.9c-0.4,0-0.7,0-1.1,0C1135.1,605.7,1133.6,609.4,1131.7,613.8z"/>
<path class="st0" d="M2122.6,623.7c-5.8,0-11.3,0.1-16.8,0c-2,0-3,0.9-3.6,2.7c-1,2.6-2,5.3-3.2,7.8c-1.2,2.6-7.4,3.8-9.7,1.9
	c-1.5-1.3-0.8-2.7-0.2-4.1c2.1-5.1,4.2-10.1,6.4-15.2c3.6-8.6,7.5-17.1,10.8-25.8c1.3-3.5,3.4-4.3,6.8-4.3c3.2,0,5.1,0.7,6.5,4
	c5.4,13.3,11.1,26.4,16.7,39.6c0.5,1.1,1,2.2,1.1,3.3c0.1,0.7-0.1,1.7-0.6,2.3c-1.8,2-8.4,0.9-9.6-1.6
	C2125.6,631,2124.3,627.6,2122.6,623.7z M2113.6,602c-0.4-0.1-0.8-0.1-1.2-0.2c-1.1,4-4,7.3-4.1,11.9c3.4,0,6.5,0,10.2,0
	C2116.7,609.6,2115.2,605.8,2113.6,602z"/>
<path class="st0" d="M1385,623.7c-1.5,3.6-2.8,6.7-4.1,9.7c-1.4,3.2-6.9,4.8-9.7,2.8c-1.8-1.3-1.1-2.9-0.4-4.5
	c2.1-5.1,4.3-10.1,6.4-15.2c3.6-8.6,7.4-17.1,10.8-25.8c1.3-3.3,3.2-4.1,6.4-4.1c3.1,0,5.3,0.5,6.6,3.8c5.6,13.7,11.5,27.3,17.2,41
	c1.7,4.2,0.9,5.1-3.8,5.3c-3.3,0.2-5.3-0.8-6.4-4.1c-1-3-1.9-6.9-4.1-8.3c-2.4-1.5-6.4-0.7-9.7-0.8
	C1391.2,623.7,1388.3,623.7,1385,623.7z M1400.1,613.8c-1.9-4.6-3.5-8.4-5.5-13.3c-2.1,5-3.7,8.9-5.5,13.3
	C1392.8,613.8,1395.9,613.8,1400.1,613.8z"/>
<path class="st0" d="M872.4,620.7c0,5.6,0,10.5,0,15c-1,0.5-1.3,0.8-1.6,0.8c-7.6,0.7-8,0.4-8-7.2c0-12.5,0-25,0-37.5
	c0-4.9,0.2-5.1,5.1-5.1c6.2,0,12.3-0.1,18.5,0.1c12.5,0.4,19.7,10.6,16,22.4c-1.9,6-6.1,9.4-12.1,10.5c-2.9,0.6-5.9,0.7-8.9,0.8
	C878.8,620.8,876.1,620.7,872.4,620.7z M872.9,611c4.6,0,9,0.2,13.5,0c4.6-0.2,6.8-2.4,7-6.8c0.2-4.4-1.6-7-6.2-7.5
	c-4.6-0.5-9.2-0.1-14.3-0.1C872.9,601.3,872.9,605.9,872.9,611z"/>
<path class="st0" d="M1462.1,617c0.1-8.3,0.1-16.6,0.2-24.9c0-4.6,4.3-7.1,8.4-4.7c0.9,0.5,1.4,2.2,1.5,3.3c0.2,4.3,0.1,8.6,0.1,13
	c0,9.3,0,18.6,0,27.9c0,5.3-0.3,5.4-5.7,5.6c-3,0.1-4.8-1-6.6-3.4c-9.6-13.4-19.3-26.7-29-40c-0.5-0.7-1-1.3-1.5-2
	c-2-3.1-1.4-4.5,2.2-4.9c4.1-0.5,7,0.7,9.6,4.4c6.1,8.9,12.8,17.4,19.3,26c0.3,0.5,0.7,1,1.4,2C1462,618.1,1462.1,617.5,1462.1,617z
	"/>
<path class="st0" d="M924.2,596.9c-4.9-0.2-9.5-0.5-14.2-0.7c-0.4-0.9-0.9-1.6-0.9-2.4c-0.7-6.2-0.1-6.9,6.1-6.9c10,0,19.9,0,29.9,0
	c4.7,0,6.7,3.1,4.9,7.5c-0.4,0.9-1.6,1.7-2.6,1.8c-2.1,0.4-4.3,0.3-6.5,0.4c-2,0-3.9,0-6.5,0c0,2.1,0,3.8,0,5.4c0,9.8,0,19.6,0,29.4
	c0,4.9-3.4,7.1-7.8,5.1c-0.9-0.4-1.7-1.6-1.9-2.6c-0.3-1.4-0.2-3-0.2-4.5c0-9.1,0-18.3,0-27.4C924.4,600.4,924.2,598.7,924.2,596.9z
	"/>
<path class="st0" d="M1856.3,596.4c-4.6,0-8.3,0.2-11.9-0.1c-1.3-0.1-3.5-0.9-3.6-1.7c-0.4-2.2,0-4.5,0.4-6.7
	c0.1-0.5,1.7-0.9,2.6-0.9c11.5-0.1,22.9,0,34.4-0.1c2.3,0,3.3,0.9,3.4,3.2c0.4,5.3-0.3,6.2-5.5,6.3c-3.1,0-6.2,0-9.7,0
	c-0.1,2-0.3,3.4-0.3,4.9c0,9.6,0,19.3,0,28.9c0,6.5-0.6,7-7.2,6.6c-0.6,0-1.3-0.2-2.6-0.4C1856.3,623.3,1856.3,610.3,1856.3,596.4z"
	/>
<path class="st0" d="M1192.1,596.3c0,3.8,0,7,0,10.1c0,8.1,0,16.3,0,24.4c0,5.6-0.5,6-5.9,5.9c-1,0-2-0.1-3.7-0.3
	c-0.7-13.1,0-26.3-0.4-40.1c-4.1,0-7.7,0.2-11.3,0c-3.9-0.2-6.2-5.2-3.8-8.3c0.7-0.8,2.3-1.2,3.5-1.2c6-0.1,12-0.1,18-0.1
	c5.2,0,10.3-0.1,15.5,0c3.3,0.1,3.6,0.5,3.7,4.4c0.1,4.2-0.4,4.9-3.7,5C1200.1,596.4,1196.3,596.3,1192.1,596.3z"/>
<path class="st0" d="M1680,596.3c0,5.7,0,10.5,0,15.3c0,6.3,0,12.7,0,19c0,5.7-0.6,6.3-6.3,6.2c-0.8,0-1.7-0.1-3.2-0.3
	c-0.8-13,0-26-0.5-39.4c-1.2-0.2-2.3-0.5-3.4-0.5c-2.3-0.1-4.7,0-7-0.1c-5-0.3-6.6-2.7-5.2-7.5c0.6-1.8,2-2.1,3.5-2.1
	c3.5,0,7,0,10.5,0c7.7,0,15.3,0,23,0c3.7,0,3.9,0.4,4.1,4c0.2,4.9-0.3,5.4-5.3,5.4C1687,596.4,1683.9,596.3,1680,596.3z"/>
<path class="st0" d="M800.5,612.4c0.4-11.4,5.9-20.9,17.1-24.6c4.1-1.4,5.7-1.1,6.4,1.1c1.2,3.6,0,7.1-3.1,8.2
	c-6.2,2.2-9.2,6.7-10.2,13c-1.1,7.5,2.8,14.3,9.9,17c3.2,1.3,5.1,6.3,2.9,8.9c-0.8,0.9-3,1.2-4.4,0.9c-6.5-1.4-11.2-5.5-14.8-11
	C801.5,621.7,800.8,617,800.5,612.4z"/>
<path class="st0" d="M851.5,612.2c0,10.9-5,18.7-14.7,23.6c-0.7,0.4-1.5,0.8-2.3,0.9c-1.9,0.4-4.5,1.7-5.5-0.3s-0.6-4.8-0.4-7.2
	c0.1-0.7,1.7-1.5,2.7-1.9c7.1-3,10.1-7.4,10.2-14.9c0.1-7.6-2.9-12.1-9.8-15.2c-1.2-0.6-2.9-1.5-3.2-2.6c-0.4-2-0.3-4.3,0.3-6.3
	c0.2-0.7,2.6-1.2,3.8-0.9c9.7,1.9,17.7,11,18.7,20.9C851.4,609.5,851.4,610.9,851.5,612.2z"/>
<path class="st0" d="M2049.1,611.5c0-6.8-0.1-13.6,0-20.5c0-4,0.4-4.2,4.9-4.2c4.3,0,5,0.4,5,4.3c0.1,13.8,0,27.6,0,41.4
	c0,1.7,0.1,3.9-1.9,4.1c-2.4,0.3-4.9,0-7.2-0.6c-0.5-0.1-0.8-2.4-0.8-3.6C2049.1,625.5,2049.1,618.5,2049.1,611.5z"/>
<path class="st0" d="M1056.3,634c-1,0.9-2,2.4-3.1,2.7c-1.7,0.4-3.6,0.1-5.4-0.4c-0.7-0.2-1.3-1.4-1.5-2.3c-0.3-1.3-0.1-2.6-0.1-4
	c0-12.5,0-24.9,0-37.4c0-1.9-0.9-4.4,1.5-5.3c1.6-0.6,3.6-0.6,5.4-0.3c1.1,0.2,2.1,1.3,3.1,2C1056.3,604,1056.3,619,1056.3,634z"/>
<path class="st0" d="M960,587.5c0-0.2,0.6-0.3,0.7-0.3c8.3-1.1,8.6-0.8,8.6,7.2c0,12.3,0,24.6,0,36.9c0,5-1.7,6.4-6.8,5.5
	c-1.9-0.3-3.1-1.3-3.1-3.3C959.6,618.2,959.8,603,960,587.5z"/>
<path class="st0" d="M1217.2,611.5c0-6.8-0.1-13.7,0-20.5c0-3.8,0.5-4.1,4.5-4.2c4.4-0.1,5.3,0.4,5.3,3.9c0.1,14,0.1,28,0,42
	c0,3.5-1.1,4.1-5.3,4c-3.8-0.1-4.5-0.6-4.5-4.3C1217.1,625.5,1217.2,618.5,1217.2,611.5z"/>
<path class="st0" d="M1901.3,634c-1,0.9-2,2.4-3.1,2.7c-1.7,0.4-3.6,0.1-5.3-0.4c-0.7-0.2-1.3-1.4-1.5-2.3c-0.3-0.9-0.1-2-0.1-3
	c0-13.1,0-26.2,0-39.3c0-4.1,0.4-4.7,3.3-4.8c5.2-0.2,6.4-0.3,6.8,4C1901.3,605.3,1901.3,619.6,1901.3,634z"/>
<path class="st0" d="M1705.4,636.5c-0.1-1.9-0.3-3.3-0.3-4.8c0-13.1-0.1-26.3,0-39.4c0-1.7,0.4-4.4,1.4-4.8c2-0.8,4.5-0.4,6.8-0.3
	c0.5,0,1.3,1.1,1.5,1.8c0.3,1.1,0.2,2.3,0.2,3.5c0,12.6,0,25.3,0,37.9c0,6-0.7,6.6-6.6,6.4C1707.6,636.8,1706.8,636.6,1705.4,636.5z
	"/>
<path class="st0" d="M1578.4,637.1c-5,0-10,0.1-15,0c-3.5-0.1-3.9-0.6-4.1-4.1c-0.2-4.3,0.4-5.3,3.9-5.4c10.1-0.2,20.3-0.3,30.4-0.2
	c3.5,0,4.1,1,4,5.3c-0.1,3.9-0.4,4.3-4.3,4.3C1588.3,637.2,1583.4,637.1,1578.4,637.1z"/>
<path class="st0" d="M1576.7,607c4.6,0,9.3-0.1,13.9,0c3.4,0.1,4.2,1.2,4.2,5.2c0,3.7-0.7,4.7-4.1,4.7c-9.1,0.1-18.2,0.1-27.3,0
	c-3.6,0-4.2-0.9-4.1-5.1c0-3.9,0.6-4.7,4-4.8C1567.8,606.9,1572.3,607,1576.7,607z"/>
<path class="st0" d="M1578.7,596.7c-4.7,0-9.3,0-14,0c-4.9,0-7.1-3.4-5-8c0.4-0.9,2-1.8,3.1-1.8c10.5-0.1,21-0.1,31.5-0.1
	c2.3,0,3.2,1,3.4,3.3c0.4,5.5-0.3,6.3-6,6.4c-4.3,0-8.7,0-13,0C1578.7,596.6,1578.7,596.6,1578.7,596.7z"/>
<path class="st0" d="M2082.9,627.8c0.3,1.1,0.6,1.7,0.7,2.4c0.6,6.3,0.1,6.9-6.1,6.9c-3.6,0-7.3,0-10.9,0c-2.3,0-3.3-1.1-3.3-3.4
	c0-1.2-0.2-2.4,0.1-3.5c0.3-0.9,1.2-2.3,1.9-2.4C2071.1,627.1,2077,627,2082.9,627.8z"/>
<path class="st0" d="M1428.5,636.4c0-5.2,0-10.4,0-15.6c0.4-0.3,0.6-0.6,0.9-0.6c8.5-1,8.8-0.8,8.8,7.6c0,0.5,0,1,0,1.5
	C1438.2,637.7,1437.6,638.1,1428.5,636.4z"/>
<path class="st0" d="M667.1,18.1c-4.6,0-9.3,0.1-13.9,0.1c-0.3-0.1-0.7-0.3-1-0.4c0.2-0.5,0.2-1.1,0.5-1.4
	c2.5-2.1,10.9-2.4,13.5-0.4C666.7,16.4,666.8,17.4,667.1,18.1z"/>
<path class="st0" d="M652,977c0.4,1.4,0.8,2.9,1.2,4.3C650.8,980.7,650.6,980,652,977z"/>
<path class="st0" d="M652.2,17.8c0.3,0.1,0.7,0.3,1,0.4c-0.4,1.2-0.7,2.4-1.1,3.7C650.5,20.5,650.8,19.1,652.2,17.8z"/>
<path class="st0" d="M993.5,607.9c-0.1-0.8-0.1-1.6-0.3-3.3c1.1,1.2,1.7,1.8,2.2,2.3C994.7,607.2,994.1,607.6,993.5,607.9z"/>
<path class="st0" d="M1020.5,606.6c0.4-0.5,0.7-1,1.5-2c0,1.3,0,1.9,0,2.4C1021.5,606.8,1021,606.7,1020.5,606.6z"/>
<path class="st0" d="M2164.3,367.6c-1.5-0.6-1.4-1.3-0.1-2C2164.2,366.3,2164.3,366.9,2164.3,367.6z"/>
<path class="st0" d="M1854,322.8c0.3-0.2,0.6-0.4,0.9-0.6c0.1,0.2,0.2,0.5,0.3,0.7C1854.7,322.9,1854.4,322.8,1854,322.8z"/>
<path class="st0" d="M1574.3,260.9c-0.3,0.3-0.7,0.6-1,0.9C1573.6,261.5,1573.9,261.2,1574.3,260.9z"/>
<path class="st0" d="M-254.4,200.2c0.3-0.5,0.5-1,0.8-1.5C-253.8,199.2-254.1,199.7-254.4,200.2z"/>
<path class="st0" d="M566.5,435.4c-2.4-10-5.9-19.4-13-26.8c-0.8-0.8-1.4-1.8-2.1-2.7c-0.6-0.4-1.1-0.9-1.7-1.3
	c-0.7-0.6-1.4-1.2-2.1-1.8c-1-0.7-1.9-1.4-2.9-2.2c-2.4-1.3-4.9-2.8-7.4-4c-1.3-0.7-2.8-1-4.2-1.5c-2.5-0.8-5-1.9-7.5-2.4
	c-3.5-0.7-7.1-1-10.6-1.4c-0.6-0.1-1.1-0.2-1.7-0.3h-0.8c-2.8,0-5.6,0-8.4,0c-0.1,0-0.3-0.1-0.4-0.1c-0.8,0.2-1.7,0.3-2.5,0.5
	c-3.2,0.2-6.4,0.4-9.6,0.6c-0.1,1.4-0.6,1.6-1.7,0.8c-1.7,0.3-3.4,0.5-5,0.8c-3.1,0.7-6.1,1.5-9.2,2.2c-1.2,0.1-2.5,0.1-3.7,0.5
	c-4,1.2-7.9,2.6-11.9,4c-4,1.3-8,2.7-12,4c-0.4,0.3-0.9,0.5-1.3,0.8c-2.9,0.9-5.8,1.8-8.8,2.7c-0.3,0.1-0.6,0.2-0.9,0.3
	c-4.3,1.6-8.6,3.3-13,4.9c-0.3,0.1-0.6,0.2-0.9,0.3c-3.1,1-6.1,2.1-9.2,3.1c-0.7,0.3-1.3,0.6-2,0.9c-2.5,0.9-5.1,1.7-7.6,2.6
	c-0.3,0.3-0.6,0.5-0.9,0.8c-3.2,0.9-6.4,1.8-9.6,2.7c-0.4,0.4-0.8,0.8-1.3,1.3c-1.2-0.1-2.5-0.1-3.6-0.4c-2.6-0.7-5.1-1.5-7.7-2.2
	c-0.1-0.1-0.3-0.2-0.4-0.4c-0.3,0-0.6-0.1-0.9-0.1c-0.1-0.1-0.2-0.2-0.4-0.3c-1.1-0.7-2.3-1.5-3.4-2.2c-0.3-0.3-0.6-0.6-0.9-0.9
	c-2-1.5-4-3-6-4.5c-0.1,0-0.1,0-0.2,0c-0.3-0.3-0.6-0.6-0.9-0.9c-0.2-0.1-0.3-0.2-0.5-0.3c-0.1-0.1-0.2-0.3-0.4-0.4
	c-0.3-0.3-0.6-0.6-0.9-0.9c-0.3-0.2-0.5-0.4-0.8-0.6c-0.2-0.1-0.3-0.2-0.5-0.3c-0.5-0.6-1.1-1.1-1.6-1.7c-0.2-0.2-0.5-0.3-0.7-0.5
	c-0.9-0.9-1.7-1.8-2.6-2.6c-3.9-3.6-7.8-7.1-11.6-10.6c-3.7-3.4-7.3-6.9-11-10.3c-0.3-0.3-0.6-0.6-0.9-0.9c-0.3-0.2-0.5-0.4-0.8-0.6
	c-0.1-0.1-0.3-0.2-0.4-0.3c-0.3-0.3-0.5-0.7-0.8-1c-0.2-0.1-0.3-0.2-0.5-0.3c-0.1-0.1-0.2-0.3-0.4-0.4c-0.2-0.2-0.5-0.3-0.7-0.5
	c-1-1-2-2-3-3c-0.2-0.2-0.5-0.3-0.7-0.5c-13.6-12.8-27.2-25.6-41.1-38.7c12.2-5.9,23.8-11.6,35.5-17.3c0.3-0.3,0.6-0.5,0.9-0.8
	c0.3,0,0.5,0,0.8,0c1-0.4,1.9-0.9,2.9-1.3c0.3-0.1,0.6-0.3,0.9-0.4c1-0.4,1.9-0.9,2.9-1.3c0.3-0.1,0.6-0.3,0.9-0.4
	c1-0.4,1.9-0.9,2.9-1.3c0.3-0.1,0.6-0.3,0.9-0.4c1-0.4,1.9-0.9,2.9-1.3c0.3-0.1,0.6-0.3,0.9-0.4c1-0.4,1.9-0.9,2.9-1.3
	c0.3-0.1,0.6-0.3,0.9-0.4c3.7-1.7,7.3-3.4,11-5.1c3.6-1.7,7.3-3.3,10.9-4.9c0.3-0.1,0.5-0.2,0.8-0.4c1-0.5,1.9-0.9,2.9-1.4
	c0.4-0.6,0.8-1.1,1.3-1.7c1.5-0.2,3-0.1,4.3-0.6c2.9-1.1,5.8-2.6,8.6-3.9c0.3-0.3,0.6-0.5,0.9-0.8c1.8-0.7,3.5-1.4,5.3-2.1
	c2.2-0.9,4.3-2,6.5-2.9c1.1-0.4,2.2-0.7,3.3-1.1c0.4-0.3,0.8-0.5,1.3-0.8c0.5-0.2,1.1-0.4,1.6-0.5c0.4-0.4,0.9-0.8,1.3-1.2
	c1.4-0.3,2.8-0.7,4.1-1c0.3-0.3,0.5-0.6,0.8-0.9c1-0.3,2.1-0.3,2.9-0.8c1.7-1.4,3.4-2.3,5.6-2.6c0.5-0.1,1-0.6,1.5-1
	c0.4-0.2,0.7-0.7,1.1-0.7c2.2,0,4.2-0.3,5.5-2.5c0.1-0.2,0.5-0.3,0.7-0.3c1.2-0.3,2.5-0.3,3.7-0.8c2.3-0.9,4.5-2.1,6.7-3.2
	c0.6-0.4,1.5-0.3,2.3-0.6c5.7-2.6,11.5-5.3,17.2-8c5-2.3,10-4.6,15-6.8c2.2-0.9,4.4-1.6,6.6-2.5c0-1,0.2-1.7,1.3-0.8
	c2-0.7,4-1.4,5.9-2.2c1.1-0.5,2.2-1.1,3.6-1.8c0.8-0.1,2.1-0.1,3.3-0.3c1.4-0.3,2.9-0.8,4.3-1.1c3-0.6,6-1.5,9-1.9
	c0.1-0.7,0.2-1.5,0.3-2.2c-13.5,2.4-27,4.9-40.4,7.6c-32.3,6.6-64,14.8-94.3,28.1c-15.1,6.6-30.4,12.6-45.7,18.7
	c-7.6,3-15.5,5.4-23.1,8.4c-7.1,2.7-14,6-21.2,8.4c-1,0.3-1.9,0.3-2.6,0.1l0,0c-0.3,0.1-0.6,0.2-0.9,0.3l-4.6,1.4
	c-0.3,0.1-0.6,0.2-0.8,0.3c-0.1,0-0.3,0-0.4,0l-2.5,0.4c-0.8,0-1.7,0-2.5,0l-0.8-0.3c-1.5-0.5-3.2-0.6-4.4-1.5
	c-3-2.3-6.7-3.2-9.4-6.3c-2.6-3-6.1-5.1-9.2-7.6c-0.1-0.1-0.3-0.3-0.4-0.4c-0.6-0.3-1.1-0.6-1.7-0.9c-0.3-0.3-0.6-0.6-0.8-0.8
	c-2.9-1.5-5.7-2.9-8.6-4.4c-2.1-1.1-4.3-2.1-6.5-3.1c-0.4-0.3-0.9-0.5-1.3-0.8l-4.5-1.8l-0.9-0.3c-0.3-0.2-0.6-0.4-0.8-0.6
	c-1-0.3-1.9-0.6-2.9-0.9c-0.3-0.1-0.6-0.2-0.9-0.3c-0.6-0.2-1.1-0.4-1.7-0.6c-2.3-0.8-4.5-1.6-6.8-2.4c-3-1-6.1-1.9-9.1-2.9
	c-1.3-0.4-2.5-0.9-3.8-1.3c-1.2-0.2-2.4-0.6-3.6-0.7c-3.6-0.5-6.7-2.7-10.4-2.9c-2.8-0.2-5.4-1.5-8.2-2.4c-0.8-0.3-1.6-0.6-2.4-0.7
	c-1.4-0.2-2.9,0.1-4.2-0.4c-4.2-1.6-8.6-2.2-13.1-2.4c-0.3-0.1-0.6-0.2-0.8-0.3c-2.2-0.2-4.5-0.7-6.7-0.7c-6.2,0-12.5,0.1-18.7,0.2
	c-0.2,0-0.5,0-0.6,0.1c-2.7,1.8-5.7,1.8-8.7,2.2c-0.3,0.1-0.6,0.2-0.8,0.3l-5.4,1.4c-0.3,0.1-0.6,0.2-0.9,0.3
	c-1.5,0.5-3,0.9-4.6,1.4c-0.4,0.3-0.9,0.5-1.3,0.8l-1.6,0.5c-0.4,0.3-0.9,0.5-1.3,0.8c-3.9,2-7.8,4.1-11.7,6.1
	c-0.3,0.3-0.6,0.6-0.9,0.9c-3.7,2.9-6.7,6.5-8.8,10.9c-0.2,0.5-0.3,0.9-0.5,1.4c-0.8,3.2-2.1,6.4-2.3,9.6
	c-0.5,6.6-0.2,13.2,1.6,19.7c0,0.1,0,0.2,0,0.3c1.7,3.7,3.4,7.4,4.9,11.1c2.2,5.1,5.9,9,9.3,13c2.7,3.2,5.9,6,9.2,8.5
	c4,3.1,8,6.1,12.8,7.8c0.1-0.1,0.1-0.2,0.2-0.3c0,0.1-0.1,0.2-0.1,0.4c3.3,1.4,6.5,3,9.8,4.1c1.8,0.6,4,0,5.7,0.8
	c2.5,1.2,5,1.4,7.6,1.4c4.1,0,8.3-0.3,12.4-0.4c0.9,0,1.9,0.3,2.8,0.1c2.6-0.4,5.2-1,7.8-1.4c1.9-0.3,3.7-0.6,5.6-0.8
	c0.3-0.2,0.5-0.3,0.8-0.5c1.7-0.2,3.4-0.5,5.1-0.7c2.8-0.4,5.6-0.8,8.4-1.2c1.2-0.2,2.7,0.1,3.6-0.5c2.5-1.9,5.4-1.1,8-2l1.3-0.4
	c0.6-0.1,1.1-0.3,1.7-0.4c0.7-0.1,1.4-0.2,2.1-0.3c0.3,0,0.5-0.1,0.8-0.1c0.6-0.1,1.1-0.2,1.7-0.3c5-1.2,10.2-1.5,15.1-4.2
	c0.4,0.2,1.1,0.6,1.8,0.9c0.8-0.5,1.5-1.3,2.3-1.5c3.2-0.9,6.5-1.6,9.7-2.3c2-0.4,4.3-0.3,6.1-1.2c4-1.9,8.2-2,12.3-2.4
	c-0.1-1.2,0.4-1.3,1.3-0.8h4.6c0.4-0.1,0.8-0.2,1.3-0.3c0.1,0,0.3,0,0.4,0c0.6,0.1,1.1,0.2,1.7,0.4c4.6-0.3,9,1,13.1,3
	c1.2,0.6,2.4,1.2,3.7,1.8c0.4,0.4,0.8,0.8,1.2,1.2c0.1,0.1,0.3,0.1,0.4,0.2s0.3,0.2,0.4,0.3c0.3,0.2,0.5,0.4,0.8,0.6
	c0.1-0.1,0.1-0.2,0,0c0.2-0.1,0.1-0.1,0,0c0.5,0.7,1,1.4,1.4,2.1c0.7,0.3,1.3,0.5,2,0.8c0.6,0.5,1.1,1,1.7,1.4
	c0.3,0.3,0.6,0.6,0.8,0.8c0.2,0.1,0.3,0.2,0.5,0.3c0-0.1,0-0.2,0.1-0.3c0,0.1,0,0.2,0.1,0.4c0.3,0.3,0.7,0.7,1,1l0.9,1.2
	c0.2,0.2,0.3,0.4,0.5,0.5c0.4,0.4,0.8,0.8,1.2,1.2l1.7,1.9c0.5,0.5,1.1,1.1,1.6,1.6c0.3,0.2,0.5,0.4,0.8,0.6
	c0.3,0.3,0.6,0.6,0.8,0.9c1.2,1.3,2.3,2.6,3.5,3.9c0.2,0.3,0.5,0.5,0.7,0.8c0.4,0.6,0.9,1.1,1.3,1.7l0.1-0.3c0,0.1,0.1,0.2,0.1,0.4
	c1.8,2.1,3.6,4.1,5.4,6.2c0.2,0.3,0.4,0.6,0.6,0.9c0.3,0.3,0.6,0.6,0.8,0.9c0.3,0.3,0.6,0.6,0.8,0.9c0.3,0.3,0.6,0.6,0.8,0.9
	c0.3,0.3,0.6,0.6,0.8,0.9c1.4,1.5,2.8,2.9,4.2,4.4c0.3,0.4,0.6,0.9,0.9,1.3c0,0.1,0,0.3,0.1,0.4c1.2-0.2,1.8,0.3,1.6,1.7
	c1.2,1.1,2.5,2.1,3.7,3.2c0.3,0.3,0.6,0.6,0.9,0.9c0.2,0.3,0.3,0.6,0.5,0.8c0.4,0.4,0.8,0.9,1.2,1.3l0,0c1.5-0.1,1.8,0.8,1.7,2.1
	c0.4,0.2,0.9,0.3,1.2,0.6c1.8,1.7,3.5,3.5,5.3,5.3c0.1-0.1,0.2-0.1,0.3-0.3c-0.1,0.2-0.2,0.3-0.2,0.4c0.2,0.5,0.4,1.1,0.7,1.4
	c0.8,0.7,1.7,1.3,2.6,2c0.1-0.1,0.2-0.1,0.3-0.3c-0.1,0.2-0.2,0.3-0.3,0.3c0.5,0.6,1.1,1.1,1.6,1.7c0.1-0.1,0.2-0.1,0.3-0.3
	c-0.1,0.2-0.2,0.3-0.3,0.3c0.4,0.4,0.9,0.8,1.3,1.2c0.3,0.4,0.6,0.9,0.9,1.3c1.3,1.3,2.7,2.7,4,4c0.1-0.1,0.2-0.1,0.3-0.3
	c-0.1,0.2-0.2,0.3-0.3,0.3c0.5,0.6,1.1,1.1,1.6,1.7c0.1-0.1,0.2-0.1,0.3-0.3c-0.1,0.2-0.2,0.3-0.3,0.3c1,2.2,2.7,3.5,4.7,4.7
	c0.3,0.3,0.6,0.6,0.9,0.9s0.6,0.6,0.8,0.9l0.8,0.9c4.6,4.7,9.2,9.4,14.1,14.5c-2.6,1.4-5,2.7-7.3,4c-0.7,0.4-1.3,0.7-1.9,1.2
	c-3.3,2.5-6.4,5.3-10.7,5.8c-0.4,0-0.8,0.9-1.1,1.3c-0.2,0.3-0.3,0.8-0.5,1c-1.4,0.9-2.9,1.7-4.3,2.5c-1,0.6-2,1.1-2.9,1.7
	c-3.8,2.3-7.7,4.5-11.4,7c-1.4,1-2.5,2.5-4.4,2.5c-0.1,0-0.2,0.2-0.3,0.3c-0.6,0.6-1.1,1.2-1.8,1.7c-1.1,0.8-2.3,1.7-3.5,2.4
	c-3,1.8-6,3.7-9.2,5.1c-1.3,0.5-2.7,0.7-3.5,2c-0.3,0.1-0.6,0.2-0.9,0.3c-1.7,0.5-3.3,0.9-5,1.4c-0.4,0.3-0.8,0.6-1.2,0.9
	c-1.9-0.2-3.8-0.1-5.6-0.5c-1.9-0.5-3.8-2.2-5.6-2.2c-4.1,0-6.2-4-9.9-4.8c-0.6-2.4-2.7-2.3-4.4-2.7c-0.1-0.1-0.3-0.2-0.4-0.4
	c-0.3-0.2-0.6-0.3-0.9-0.5c-0.3-0.3-0.5-0.5-0.8-0.8c-0.8-0.3-1.6-0.4-2.3-0.9c-1.3-0.9-2.5-2.6-3.9-2.9c-3.7-0.7-5.5-5.3-9.6-5
	c-0.1,0-0.1-0.1-0.2-0.1c-2.9-1.6-5.9-3.2-8.8-4.7c-0.1-0.1-0.3-0.2-0.4-0.3c-2.9-1.3-5.9-2.6-8.8-3.9c-0.3-0.2-0.6-0.3-0.9-0.5
	c-3.6-1.4-7.3-2.9-11.2-4.4c-0.9-0.1-2.2-0.1-3.4-0.3c-0.7-0.1-1.4-0.4-2.1-0.6c-0.2-0.2-0.5-0.4-0.7-0.7c-1.6-0.2-3.1-0.4-4.7-0.6
	c-0.4-0.2-0.8-0.3-1.2-0.5c-1.9-0.2-3.8-0.3-5.7-0.5c-3.9-0.2-7.7-0.4-11.6-0.6c-1.5-0.1-3-0.4-4.5-0.6c-0.4,0.4-0.9,0.8-1.3,1.2
	c-1,0-1.9,0.1-2.9,0.1c-0.4,0.1-0.8,0.2-1.3,0.4c-0.1,0-0.3,0-0.4,0c-0.4,0.1-0.9,0.2-1.3,0.4c-1.7,0.3-3.3,0.7-5,1
	c-0.3,0.1-0.6,0.2-0.9,0.3c-1.8,0.8-3.6,1.6-5.4,2.4c-6.1,2.6-9.6,7.6-11.7,13.8c-2.4,7.1-1.4,14.3,0.5,21.5
	c0.1,0.3,0.2,0.6,0.3,0.9c2.6,8.5,7.1,15.8,12.9,22.3c1.6,1.7,3.7,2.9,5.5,4.4c0.3,0.3,0.5,0.6,0.8,0.9c1.9,1.4,3.7,2.9,5.6,4.3
	c0.2,0.2,0.5,0.3,0.7,0.5c1.4,0.7,2.7,1.7,4.1,2.1c4.1,1.3,8.1,2.5,12.3,3.5c3.2,0.8,6.4,1.3,9.6,1.8c5.6,0.8,10.6,3.3,15.4,6.2
	c0.3,0.1,0.6,0.2,0.9,0.4c1.5,0.8,3,1.7,4.5,2.5c1.2,0.6,2.9,0.8,3.7,1.7c1.6,2,3.9,2.5,5.9,3.5c3,1.4,6,2.7,9.4,3.1
	c2.9,0.4,5.8,1.1,8.8,1c1.2,0,2.4-0.3,3.7-0.4c0.4-0.1,0.8-0.3,1.2-0.4c2.2-0.5,4.4-0.7,6.4-1.5c3.4-1.3,6.9-2.6,10.2-4
	c4.3-1.8,9-2.3,13.6-3.4c0.3-0.1,0.5-0.3,0.7-0.4c0.5-0.3,0.9-0.7,1.5-0.8c1.7-0.2,3.4-0.3,5.1-0.3c0.2,0,0.4,0.4,0.6,0.7
	c0.3,0.1,0.6,0.3,0.9,0.4c6,1.7,11.1,5.1,15.6,9.4c5.3,5.1,10.2,10.5,15.3,15.7c4.3,4.5,8.7,8.9,13,13.4c0.2,0.3,0.4,0.6,0.6,0.9
	c3,2.9,5.9,5.7,8.9,8.6c2.8,2.7,5.7,5.3,8.5,8c0.2,0.2,0.3,0.3,0.5,0.5c0.3,0.3,0.5,0.6,0.8,0.8c0.2,0.3,0.4,0.6,0.7,0.9
	c0.5,0.4,1,0.9,1.5,1.3c1.6,1.5,3,3.1,4.7,4.5c1.6,1.3,3.3,2.3,5,3.5c1,0.7,1,2.7,2.8,2.2c0.2,0.3,0.5,0.6,0.7,0.8
	c0.5,0.3,0.9,0.6,1.4,0.8c0.2,0.3,0.5,0.6,0.7,0.9c0.6,0.3,1.2,0.7,1.7,1c3.3,2.3,6.5,4.6,9.7,6.9c0.3,0.3,0.5,0.6,0.8,0.8
	c0.4,0.2,0.9,0.4,1.3,0.5c0.2,0.3,0.5,0.5,0.7,0.8c0.7,0.4,1.3,0.8,2,1.1c2,1.1,4.1,2.2,6.1,3.3c0.3,0.3,0.6,0.5,0.8,0.8
	c1.9,0.9,3.8,1.7,5.7,2.6c3.6,1.6,7.1,3.4,10.7,4.8c2.4,1,5,1.4,7.4,2.4c5.7,2.3,11.5,3.8,17.5,4.6c5.5,0.8,10.9,0.8,16.3-1.2
	c4.3-1.6,7.3-4.6,9.4-8.6c1.9-3.7,2.7-7.6,2.8-11.6c-3.1-1.6-6.1-3.4-9.3-4.8c-6.1-2.8-13.3-3.8-19.9-5.2
	c-11.3-2.3-21.6-3.7-31.9-9.2c-0.8-0.4-1.6-0.9-2.5-1.3c-9.8-3.8-19.2-8.7-27.8-15c-6.5-4.7-12.6-10-18.1-15.9
	c-5.7-6.1-10.5-12.8-15.6-19.3c-0.6-0.5-1.2-1.1-1.9-1.6c-4.3-3.4-7.9-7.8-11.9-11.7c-3.6-3.5-5.4-8-7.6-12.4
	c-0.2-0.3-0.2-0.7-0.2-1c-0.6-4.7,1.4-8.2,4.7-11.2c0.3-0.3,0.5-0.5,0.8-0.8s0.6-0.7,0.9-1l0.7-0.4c4-2.8,8.1-5.6,12.1-8.4
	c0.3-0.1,0.6-0.3,0.9-0.4c5.3-2.8,10.3-6.2,15.7-8.8c4.3-2.1,8.5-4.7,12.4-7.5c4-2.8,8.3-4.8,12.9-6c2.2-0.6,4.5-1,6.8-1.3
	c1.1-0.2,2.3-0.2,3.3,0.1c4.3,1.1,8.6,2.3,12.9,3.4c0.3,0.1,0.6,0.2,0.9,0.3c1.2,0.5,2.5,1,3.7,1.4c0.3,0.2,0.6,0.3,0.9,0.5
	c1.1,0.4,2.3,0.8,3.4,1.2c1-0.8,1.2-0.2,1.3,0.8c4.2,0.8,7.7,3.4,11.7,4.5c0.3,0.1,0.6,0.2,0.9,0.3l3,0.9c0.4,0.3,0.8,0.6,1.2,0.8
	c2.5,1,5,2.1,7.5,3.1c0.3,0.2,0.5,0.3,0.8,0.5c0.2,0.1,0.3,0.2,0.5,0.3c1.1-0.8,1.2,0,1.2,0.9c0.3-0.1,0.7-0.4,0.9-0.3
	c2.9,1.3,5.8,2.6,8.6,3.9c0.1,0.1,0.3,0.2,0.4,0.3c2.8,1,5.6,2,8.4,3c1.4,0.5,2.8,1.1,4.2,1.5c3.9,1.2,7.8,2.3,11.7,3.5
	c0.3,0.1,0.6,0.2,0.8,0.3l6.7,1.4c0.3,0.1,0.6,0.2,0.8,0.3c0.5,0.2,1,0.5,1.5,0.5c2.3,0.2,4.6,0.4,6.9,0.5c0.4,0.1,0.8,0.2,1.3,0.4
	c0.8,0,1.7,0,2.5,0c2-0.5,4-1.2,5.9,0.4c0.4,0,0.8,0,1.2,0c0.6-0.1,1.1-0.2,1.7-0.3c2.7-0.2,5.5-0.1,8.2-0.5
	c3.8-0.7,7.6-1.7,11.4-2.6c0.3-0.1,0.6-0.2,0.9-0.3c1.4-0.4,2.8-0.9,4.2-1.3c0.4-0.3,0.8-0.5,1.2-0.8l2.9-1.4l0.9-0.4
	c0.9-0.5,1.7-0.9,2.6-1.4c0.1-0.1,0.2-0.3,0.4-0.4c1.8-1.2,3.6-2.3,5.4-3.5c0.2-0.1,0.3-0.2,0.5-0.3c0.2-0.2,0.4-0.4,0.5-0.5
	c0.3-0.1,0.5-0.2,0.8-0.4c1.4-1.3,2.9-2.5,4.3-3.9c2.1-2.1,4.1-4.3,5.9-6.6c1.5-1.9,2.6-4.1,3.9-6.1c0.2-0.5,0.4-0.9,0.5-1.4
	c1.6-4,3.6-7.9,4.1-12.4c0.2-2.1,0.9-4.2,1.2-6.3C568.7,452.1,568.5,443.7,566.5,435.4z M236.8,330.6c-0.1,0.4-0.3,1-0.6,1
	c-2.6,0.7-5.2,1.4-7.8,2c-0.3,0.1-0.6,0.2-0.8,0.3l-17.2,4.9c-0.4,0.3-0.9,0.5-1.3,0.8c-1.7,0.3-3.3,0.7-5,1
	c-0.3,0.2-0.6,0.5-0.9,0.7c-1.7,0.3-3.5,0.6-5.2,1c-1.8,0.5-3.6,1.1-5.5,1.6c-2.4,0.6-4.8,1.2-7.3,1.8l-1.3,0.4
	c-2.1,0.5-4.2,0.9-6.3,1.4c-0.4,0.1-0.8,0.3-1.3,0.4c-6,1.5-12,2.7-18.2,3.1c-2.4,0.2-4.7,0.9-7.1,1.1c-1.9,0.1-3.9-0.3-5.8-0.2
	c-4.8,0.3-9.4-0.9-14.1-1.8c-3.7-0.7-7.3-1.8-10.9-2.8c-5.2-1.5-10.1-3.8-14.8-6.5c-3.8-2.1-7.2-4.7-9.9-8.1
	c-1.9-2.3-3.4-5.1-4.7-7.9c-1.4-3.2-1.6-6.5-1.3-10.2c0.6-7.3,4.3-12,9.6-16.1c2.1-1.7,4.4-2.9,6.9-3.6c0.3-0.3,0.6-0.5,0.9-0.8
	c2.4-0.6,4.9-1.4,7.3-1.9c3.8-0.8,7.6-1.5,11.4-2.1c2-0.3,4-0.4,6-0.5l0.8-0.3c1,0,2,0,2.9,0c2.8-0.2,5.6-0.4,8.4-0.5
	c0.9,0,1.9,0.4,2.8,0.6c1.1-0.1,2.3-0.1,3.4-0.2c0.6,0.1,1.1,0.2,1.7,0.3c4.9,0.5,9.8,0.9,14.6,1.4c1.9,0.2,3.9,0.3,5.8,0.5
	c0.3,0,0.6,0.2,0.9,0.4c1.2,0.6,2.3,1.4,3.5,1.8c2.5,0.8,5,1.6,7.5,2.2c2.3,0.5,4.2,2.1,6.3,2.6c3.7,1,6.7,3.6,10.4,4.4
	c0.4-0.2,0.8-0.5,1.1-0.7c0.2,0.5,0.4,1,0.6,1.5c4.2,1.7,8.5,3.5,12.7,5.2c3.4,1.4,6.8,2.7,10.2,4.1c1.3,0.6,2.5,1.5,3.7,2.2
	c0.1-0.1,0.1-0.2,0.2-0.3c0,0.1-0.1,0.2-0.1,0.4c1.9,2,4.1,3.8,5.7,6C236.9,324.1,237.9,327.2,236.8,330.6z M257.7,504.2
	c0,0.3-0.4,0.8-0.8,0.9c-5.4,1.9-10.8,3.8-16.3,5.5c-5.7,1.7-11.6,2.4-17.5,2.4c-4.4,0-8.7,0-13.1,0c-0.3-0.1-0.6-0.2-0.8-0.4
	c-5.7,0.4-11.2-1.4-16.7-2.5c-6.2-1.2-12.1-3.5-18.1-5.5c-1.3-0.4-2.5-1.2-3.7-1.8c-0.3-0.3-0.6-0.6-0.8-0.8c-2.8-1-4-3.7-5.7-5.9
	c-3-4.2-2-8.6-0.7-13.1c1.4-4.7,4.5-8,8.1-10.9c0.3-0.3,0.6-0.6,0.9-0.8c7.1-3,14.2-3,21.5-0.8c4.1,1.2,8.3,2.4,12.4,3.6
	c4.7,1.4,9.5,2.8,14.2,4.2c0.3,0.1,0.6,0.2,0.9,0.3c6,2.1,12.1,4.2,18.1,6.2c4.4,1.4,8.2,4.1,11.9,6.7c2.6,1.8,4.4,5,6.1,7.9
	C258.2,500.8,257.7,502.7,257.7,504.2z M550.1,468.1c-1.6,2.3-3.6,4.3-5.4,6.4c-0.3,0.3-0.5,0.6-0.8,0.9c-1.8,1.3-3.6,2.8-5.6,4
	c-1.4,0.8-3,1.2-4.6,1.6c-4.5,1.2-8.9,2.7-13.4,3.4c-3.7,0.6-7.6,0.3-11.5,0.4c-4.4,0.1-8.9,0.2-13.3,0.1c-0.8,0-1.5-1-2.3-1.1
	c-5.1-1-10.3-1.6-15.4-2.7c-2.7-0.6-5.2-1.9-7.8-2.8c-2.9-1-5.9-1.9-8.8-2.8c-0.4-0.3-0.8-0.5-1.2-0.8c-2.7-0.2-4.9-1.6-7.3-2.7
	c-2.6-1.1-5.3-2.1-8-3.1c-0.4-0.3-0.7-0.5-1.1-0.8c-3.8-1.1-7.7-2-11.5-3.2c-5.4-1.7-10.2-4.5-13.2-9.8c-0.2-0.4-0.4-0.9-0.4-1.4
	c0-3.1,0-6.3,0-9.6c4.3-1.6,8.6-3.1,12.9-4.7c0.3-0.3,0.6-0.5,0.9-0.8c1.2-0.3,2.5-0.7,3.7-1c0.3-0.3,0.6-0.5,0.9-0.8
	c1.1-0.3,2.2-0.6,3.3-1c0.3-0.3,0.6-0.5,0.9-0.8c1.2-0.3,2.5-0.7,3.7-1c0.3-0.3,0.6-0.5,0.9-0.8c1.2-0.3,2.5-0.7,3.7-1
	c0.3-0.1,0.6-0.2,0.9-0.3c3.1-1,6.1-2,9.2-3.1c2.3-0.8,4.5-1.9,6.7-2.8c2.3-1,4.5-2.8,6.8-2.9c2.5,0,4.5-1.3,6.8-1.8
	c1.2-0.2,2.4-0.6,3.5-0.9c0.4-0.3,0.8-0.5,1.3-0.8c2.6-0.5,5.2-1,7.8-1.4c5-0.9,10.1-1.7,15.1-2.5c0.5-0.1,0.9-0.3,1.3-0.5
	c0.4-0.4,0.8-1,1.2-1c2.4,0,4.8,0.1,7.2,0.2c0.6,0.4,1.1,0.8,1.7,1.2c5.3,0,10.4,0.9,15.3,2.8c3.6,1.4,7.1,3.2,10.5,5.4
	c3.7,2.5,6,5.9,8.5,9.3c1.4,1.9,2.1,4.6,2.5,7C557.6,450.3,555.8,459.7,550.1,468.1z"/>
<path class="st0" d="M200.2,378.1c-0.1-0.1-0.2-0.1-0.3-0.2C200,377.9,200.1,378,200.2,378.1z"/>
<g>
	<path class="st0" d="M531.4,625.8c-2.4,0.5-4.7,0.5-6.7-0.6c-1.7-0.9-3.1-1.9-4-4c-0.9-1.8-1.9-3.4-2.9-5.3
		c-0.1-0.4-0.3-0.7-0.4-1.2c0-0.1-0.1-0.4-0.2-0.7c-1.3-0.1-1-2.1-1.7-2.9c-1.6-2.8-3.1-5.9-4.6-8.8c0-0.1-0.1-0.1-0.4-0.3
		c-0.3-0.7-0.5-1.3-0.8-2.1c-0.1-0.1-0.5-0.4-0.6-0.6c-0.1-0.4-0.5-0.5-0.6-0.9s-0.3-0.5-0.4-0.9c-0.3-0.5-0.4-0.9-0.8-1.4
		c-0.3-0.5-0.9-1-1.1-1.7c-0.7-1.7-1.9-2.9-2.8-4.3c-1.4-2.6-3.6-4.4-5.3-6.6c-0.9-1.2-1.7-2.5-2.8-3.5c-1.5-1.7-3.1-3.1-4.5-4.6
		c-2-1.9-3.8-4.1-5.9-6c-3.3-3.1-6.8-6-10.4-8.8c-2.4-1.9-5.2-3.5-7.8-5.1c-2.6-1.6-5.4-3.1-8-4.4c-1.7-1-3.2-1.7-4.9-2.6
		c-2.9-1.1-5.9-2-9.2-1.3c-2.9,0.4-5.7,1.1-8.5,1.7c-5.5,1.2-11,3.2-16.6,3.2c-1.6,0.1-3.2-0.2-4.7-0.8c-5.6-2.4-11.1-4.8-16.6-7.4
		c-0.9-0.4-1.7-0.9-2.6-1.2c-3.2-1.5-6.6-2.8-9.8-4.2c-1.2-0.6-2.5-1.2-3.8-0.7c-0.4-1.2-1.7,0.1-2.1-1.1c-0.1-0.4-0.9-0.1-1.5-0.1
		c-1.4-0.3-2.8-0.5-4.2-0.6c-1.5-0.1-3,0.2-4.5,0.1c-0.1,0.1-0.5,0.2-0.7,0.3c-1.2,0.1-2.2,0.4-3.4,0.5c-0.1,0-0.1,0-0.3,0.2l-0.1,0
		c0,0-0.1,0-0.1,0.1c-1.2,0.5-2.7,0.7-4,1c-2,0.7-4.3,1.3-6.3,2.2c-2.3,0.8-4.6,2-6.9,3.1c-1.8,0.9-3.5,1.8-5.3,2.6
		c-0.1,0-0.1,0-0.5,0.2c0.6-1.3,1.1-2.4,2.5-3c2-1.1,4.1-2.4,6.2-3.4c2.4-1.2,4.7-2.3,7.3-3.1c4.4-1.3,9-2.9,13.5-2.8
		c3.1,0.2,6.3,0.6,9.4,0.7c1.3,0.1,2.5,0.5,3.7,0.7c1.9,0.4,3.7,0.9,5.5,1.6c8.6,3.7,17.1,7.6,25.8,11.3c0.5,0.2,0.7,0.4,1.2,0.6
		c0.3-0.2,0.7-0.3,0.8-0.4c0.1,0,0.3-0.2,0.5,0c2.1,2.3,4.7,1.9,7.6,1.5c2.1-0.4,3.9-0.6,6-0.9c0.1,0,0.1,0,0.3-0.2
		c1.6-0.4,3.3-1,4.9-1.3c0.1,0,0.1,0,0.3-0.2c0.5-0.2,0.9-0.3,1.4-0.3c0.1,0,0.1,0,0.3-0.2c2.2-0.5,4.6-1.1,6.7-1.4
		c2.8-0.7,5.6-0.4,8.4,0c0.5,0,1.2-0.1,1.3-0.1c0.7,0.4,1.5,0.7,2.1,1.1c2,1,4,1.9,5.9,2.9c0.5,0.2,1,0.1,1.5,0.1
		c0.1,0,0.5,0.2,0.5,0.4c0.8,1.4,1.7,2.3,3.3,1.9c0.1,0,0.4,0.3,0.3,0.4c0.4,1.5,1.7,1.4,2.4,2.2c0.7,0.5,1.7,0.9,2.5,1.2
		c0.4,0.3,0.6,0.6,0.9,0.9c1.1,0.9,2.3,1.8,3.5,2.8c1.7,1.3,3.5,2.2,5,3.5c1.7,1.4,3.2,3.2,4.8,4.9c0.6,0.5,1.1,0.9,1.7,1.4
		c0.1,0.1,0.3,0.5,0.3,0.7c1.8,1.9,3.4,3.7,5.3,5.7c0.7,0.9,1.7,1.4,2.4,2.3c0.3,0.4,0.6,0.6,0.9,1.2c0.1,0.1,0.3,0.5,0.4,0.7
		c1.4,1.6,2.7,3.1,4.1,4.7c0,0.1,0,0.1,0.1,0.4c1.9,2.9,4,5.5,5.9,8.3l0.1,0.1l0.1,0.1c0,0,0,0.1,0.1,0.1c0.1,0.4,0.4,0.9,0.5,1.2
		c0.1,0.1,0.1,0.4,0.3,0.5c0,0,0,0.1,0.1,0.1c0.1,0,0.3,0,0.5,0.2l0.1,0.1c0,0.1,0,0.1,0.1,0.4c0.1,0.4,0.4,0.9,0.5,1.2
		c0.1,0.1,0.1,0.1,0.3,0.4l0.1,0.1l0.1,0.1c0.3,0.5,0.6,0.9,0.8,1.4c0.1,0.1,0.4,0.3,0.3,0.4c0.8,1.4,1.4,2.8,2.2,4.2
		c0.1,0.4,0.4,0.9,0.5,1.2c0.1,0.1,0.1,0.1,0.3,0.4c0.8,1.4,1.3,2.8,2.1,3.9c0,0,0,0.1,0.1,0.1c0.8,1.4,1.4,2.8,2.1,4.2
		c0,0.1,0.1,0.1,0.1,0.4c0.1,0.1,0.1,0.4,0.3,0.5c0,0.1,0.1,0.1,0.1,0.4c0.4,0.9,0.9,1.7,1.2,2.4c0.1,0.4,0.5,0.5,0.6,0.9
		c0.3,0.4,0.4,0.7,0.7,1c0.1,0.1,0.3,0.5,0.4,0.7c1.6,2.3,3.8,3.5,6.1,4.3c0.4,0.3,0.8-0.2,1.3-0.2c0.6,0.1,1.2-0.1,1.7-0.1
		c0.6,0.1,1.3-0.1,1.8,0c0,0.1-0.2,0.3-0.2,0.6c-1.1,0.5-2.2,0.7-3.3,1.1C531.5,625.8,531.5,625.8,531.4,625.8z"/>
	<path class="st0" d="M387.3,546.1c0.1,0.1,0.1,0.4,0.3,0.4c0.1,0.1,0.5,0.2,0.6,0.4c0.7,1,1.5,2.5,1.9,3.8c0.1,0.1,0.1,0.4,0.3,0.4
		c0.7,2.4,0.9,4.7,0.9,7.4c0,0.1,0,0.3-0.1,0.7c-0.2,1.1-0.4,2.5-0.6,3.7c-0.2,0.6-0.2,1-0.4,1.5c-0.6,2.5-1.8,4.4-3,6.2
		c-0.6,1.1-1.7,1.9-2.6,2.8c-1.6,1.8-3.4,2.8-5.3,3.7c-1.1,0.6-2.5,0.1-3.8,0.2c-0.1,0-0.4-0.3-0.6-0.2c-0.1,0-0.1,0-0.3,0.2
		c-0.3,0.2-0.5,0.2-0.8,0.3c-0.9-0.2-2-0.3-2.9-0.7c-1.2-0.6-2.7-1.2-3.5-2.7c-1.3-2.2-3.1-3.9-3.3-7.3c-0.1-0.1-0.1-0.5-0.3-0.7
		c0.1-2.2-0.4-4-0.1-6.4c0.5-2.3,0.9-4.4,1.6-6.6c0.2-0.7,0.4-1.1,0.5-1.8c0.1-0.1,0.3-0.2,0.7-0.3c1.4-2.5,3-4.8,4.9-6.2
		c2.7-1.8,5.6-2.9,8.4-2.8c2.4,0.1,4.6,1.5,6.7,2.9C386.9,545.7,387,546,387.3,546.1z M373.4,574.9c5.6,2.4,11.9-1.9,14.9-8.9
		c3.3-8.2,0.8-15.9-4.6-18.2c-5.7-2.5-12.3,1.5-15,8.9C365.6,564.6,367.9,572.2,373.4,574.9z"/>
	<path class="st0" d="M483.3,600.8c-0.6,2.2-0.9,4.2-1.6,6.4c-0.6,1.9-1.4,2.8-2.5,5.1c-0.6,1.3-1.7,1.9-2.5,3.1
		c-0.2,0.6-0.8,0.4-1.2,0.7c-0.1,0.1-0.4,0.3-0.7,0.4c-1,0.6-2.1,1.2-3,1.8c-0.7,0.3-1.2,0.7-1.9,0.6c-2.2-0.2-4.5-0.2-6.6-0.9
		c-1.9-0.4-3.2-2.1-4.4-4c-0.4-0.9-0.9-1.6-1.3-2.5l0-0.1c-1-2-1.6-4.1-1.6-6.8c0-1.6-0.2-3.2,0.2-4.9c0.8-2.7,1.3-5.6,2.9-7.9
		c2.6-3.3,5.3-6.8,8.8-7.4c1.8-0.2,3.9-0.7,5.8-1.1l0.1,0c1.8,1.3,3.6,2.6,5.5,3.9c0.7,0.5,1.1,1.7,2.1,2.3c0.6,0.2,0.7,1.7,1,2.8
		c0.1,0.5,0.3,1.1,0.4,1.3c0.2,0.7,0.4,1.3,0.6,2c0.2,0.7,0.1,1.3,0.2,1.9C483.5,599.1,483.4,599.9,483.3,600.8z M473.4,587.5
		C473.4,587.6,473.4,587.6,473.4,587.5c-0.3,0-0.5,0-0.8-0.2c-3.1-1.2-6.2-0.8-9.2,2c-2.8,2.4-4.7,5.8-5.7,9.9
		c-0.9,4.1-0.6,7.5,0.9,10.4c1.3,2.8,3.4,4.8,6.1,5.5c3,0.8,6.1-0.1,9-2.4c2.9-2.5,4.8-5.9,5.7-10.3c0.8-4.1,0.3-7.7-1.3-10.6
		c-0.3-0.5-0.3-1.3-0.5-1.6C476.1,589.2,474.8,588.4,473.4,587.5z"/>
	<path class="st0" d="M446.8,593.9c0.1,0,0.3-0.2,0.5-0.2c1.4,1.6,3.1,1.6,4.7,1.9c0.9,0.2,1.9,0.8,2.9,1.2c0.1,1.3,0.2,3,0.3,4.9
		c0,0,0,0.1-0.1,0c-1.6-0.6-3.5-1-5.2-2c-1.2-0.7-2.6-0.7-4-1.3c-1.5-0.6-2.9-1.1-4.3-1.9c-0.5-0.2-1-0.1-1.7-0.3
		c-5.2-2-10.3-4-15.6-6.3c-8.4-3.6-16.7-7.4-25.2-11c-4-1.8-8-3.4-11.9-5c-0.1-0.1-0.4-0.3-0.5-0.4c0.4-0.3,1.1-0.6,1.6-0.8
		c0.3-0.2,0.4-0.3,0.8-0.4l0-0.1l0,0.1c0.5,0,0.9,0.1,1.4,0.1c2.2,1,4.5,1.8,6.7,2.9c0.1,0,0.7-0.2,0.8-0.2c0.1,0.1,0.3,0.4,0.5,0.4
		c0.1,0.1,0.1,0.4,0.3,0.5c2.2,1,4.5,1.8,6.7,2.6c0.3,0,0.7-0.2,0.9-0.3c0.1,0,0.1,0.1,0.4,0.3c0.1,0.4,0.3,0.7,0.6,0.9
		c2,0.7,3.7,2.4,6,2.1c0.3,0,0.6,0.5,1,0.8c1.5,0.6,3.3,1,4.9,1.5c0.1,0,0.4,0.3,0.6,0.4c1.2,0.9,2.4,1.9,4,1.4
		c0.1,0,0.4,0.3,0.5,0.2c0.5,0.4,0.9,0.9,1.6,1c2,0.2,3.5,1.6,5.4,2.3c0.1,0,0.3,0,0.5,0c0.1,0,0.4,0.3,0.6,0.2
		c0.7,0.4,1.5,0.6,2.1,1c0.1,0,0.5,0,0.6,0.1l0.1,0c0.1,0,0.4,0.3,0.4,0.3c0.9,0.2,1.8,0.4,2.6,0.7c0.6,0.2,1.1,0.8,1.7,1
		c0.5,0.2,0.9,0.1,1.4-0.1c0.1,0,0.1,0.1,0.4,0.3c0.6,0.4,1.2,0.7,2,1.1c0.7,0.4,1.8,0.4,2.5,0.8
		C446.4,594.1,446.6,594.1,446.8,593.9z"/>
	<path class="st0" d="M569.3,634.8c-1.1-1.7-2.2-3.5-3.4-5.2c-1.6-2.8-3.4-5.2-5.7-7.3c-2.4-2.2-5.1-3.2-8.3-3.5
		c-1-0.1-2.3,0.1-3.5,0.2c0,0-0.1,0-0.1,0.1c-0.1,0-0.1,0-0.3,0c0,0-0.1,0-0.1,0.1c-0.1,0-0.4-0.3-0.6-0.2c2-1.1,4.1-1.4,6-1.7
		c1.6-0.2,3.1-0.2,4.5,0.2c1.5,0.5,3.1,1.2,4.5,2.1c1,0.6,2,1.1,2.8,2c1.1,1,1.7,2.3,2.7,3.5c0.1,0.1,0.3,0.4,0.5,0.5
		c0,0,0,0.1,0.1,0.1c1.2,2.1,2.5,4.1,3.7,6.2l0.1,0.1c1.1,1.7,2,3.7,3.4,5c0.9,0.9,1.6,1.9,2.3,2.9c1.7,2.5,4.2,3.4,6.7,4.6
		c0.7,0.4,1.6,0.6,2.3,1.2c0.7,0.4,1.6-0.1,2.2-0.1c0.6,0.1,1,1.4,1.7,1.4c0.9,0.1,1.7-0.2,2.5,0.7c0.5,0.5,1.5,0.3,2.5,0.5
		c0.5,0,0.9,0.9,1.2,0.7c1.1-0.7,1.6,0.6,2.7,0.5c1.2-0.1,2.1,0.7,3.3,1c0.3,0,0.7-0.2,0.9,0c0.1,0,0.5-0.2,0.7-0.2
		c0.9,1.4,2.5,0.8,3.5,1.4c0.4,0.3,0.8,0.2,1.4,0.5c-1.3,1.3-2.5,2.2-3.8,1.8c-1-0.1-2-0.8-3.1-1.1c-1.3-0.2-2.4-0.4-3.7-0.6
		c-0.8-0.2-1.5-0.6-2.4-0.8c-1.5-0.5-3-0.8-4.4-1c-0.1,0-0.3,0-0.5,0c-1.2-0.5-2.6-1.1-3.9-1.4c-0.8-0.2-1.5-0.6-2.1-0.8
		c-0.5-0.2-0.9-0.1-1.4-0.1c-0.1,0-0.3,0-0.3,0c-1.4-0.7-2.6-1.9-3.9-2.4c-2.3-0.7-3.8-2.5-5.6-4c-1.8-1.5-3-4-4.5-6.1
		C569.4,635.4,569.4,635.1,569.3,634.8z"/>
	<path class="st0" d="M407.4,553.8c-1.1-0.6-2.3-1.2-3.3-1.9c-0.4-0.3-0.6-0.5-1.1-0.8c-2.1-1.1-4.2-2.3-6.3-3.4
		c-0.4-0.3-0.6-0.4-1-0.6c-0.6-0.2-1.1-0.6-1.7-0.9c-0.4-0.3-0.6-0.4-1-0.6c-3.5-2.2-7.3-3.4-11.3-4.5c-0.5,0-0.8-0.2-1.3-0.2
		c-1.4-0.5-2.8-0.9-4.3-0.7c-0.9,0-1.9-0.3-2.7-0.4c-1-0.1-2.2,0-3.2,0c-1.4,0.1-2.8,0-4.3,0.1c-0.1,0.1-0.3,0.3-0.7,0.3
		c-0.4-0.3-0.5-0.4-0.7-0.4c0-0.1,0-0.1,0-0.3c0.3-0.2,0.7-0.2,0.9-0.3c0.1,0,0.5-0.2,0.7-0.2c3.8-0.7,9.4-0.6,12.8,0.3
		c2,0.4,4,1.3,6.2,1.4c1.9,0.2,3.4,1.3,5.1,1.9c1.6,0.6,3.2,1.7,4.9,2.7c1.4,0.7,3,1.3,4.3,2.3c2.6,1.3,5,2.8,7.6,4.5
		c0.1,0,0.4,0.3,0.5,0.2c3.7,1.8,7.2,3.7,10.9,5.5c0.1,0.1,0.3,0.4,0.5,0.5c1.9,0.8,3.7,1.8,5.6,2.5c0.1,0.1,0.3,0.4,0.5,0.5
		c3,1.3,5.8,2.5,8.8,4c0.1,0,0.4,0.3,0.6,0.2c3.8,1.8,7.6,3.4,11.4,5.2c0.4,0.3,0.5,0.2,0.7,0.4c2.2,1,4.6,2.2,7.1,3.1
		c1.4,0.6,2.8,1.1,4.1,1.5c-0.8,0.6-1.7,1.4-2.2,1.9c-0.4,0.3-0.9,0.3-1.4,0.1c-1.5-0.6-2.9-1.2-4.5-1.8c-0.5-0.2-0.9-0.4-1.2-0.6
		c-5.2-2.2-10.3-4.6-15.5-6.7c-1.1-0.3-2.1-0.8-3.1-1.2c-0.3-0.4-0.6-0.6-0.8-1.2c-1.2-0.5-2.6-0.8-3.9-1.3
		c-0.3-0.4-0.4-0.7-0.7-0.9c-0.6-0.2-1.4-0.6-2-0.8c-0.4-0.3-0.5-0.5-0.7-0.8c-0.5,0-0.9,0-1.3-0.2c-0.9-1.2-2.1-1-3.2-1.7
		c-0.3-0.4-0.4-0.7-0.7-0.9c-0.6-0.2-1.3-0.2-1.8-0.4c-0.4-0.3-0.6-0.4-1-0.6c-0.5-0.4-0.7-0.5-1.2-0.9c-0.1-0.1-0.1-0.4-0.3-0.5
		c-0.1-0.1-0.4-0.3-0.6-0.4c-0.5,0-0.9-0.2-1.4-0.3c-0.4-0.3-0.6-0.4-1-0.8c-0.5-0.2-0.9-0.4-1.4-0.7
		C408,554.3,407.8,553.9,407.4,553.8z"/>
	<path class="st0" d="M505.9,598.3c0.8-0.3,0.9,0.2,1.2,0.9c0.1,0.4,0.4,0.7,0.7,1c0.4,0.7,0.9,1.4,1.2,2.1c0.1,0.1-0.1,0.7-0.1,1
		c-4.2,1.7-8.1,3.3-12.3,3.2c-3.9,0.1-7.9,0.4-12-0.2c-0.1-1.2,0-2.6-0.2-3.6c0-0.1,0-0.3,0-0.5c0-0.1,0.2-0.3,0.2-0.6
		c1.4-0.2,2.9-0.4,4.2-0.5c0.8-0.2,1.4,0.1,2.2,0c1.4-0.1,2.8-0.1,4.3-0.4c2.4-0.4,4.9-0.8,7.2-1.3l0.1,0c0.5-0.2,0.8-0.3,1.2-0.6
		C504.8,598.9,505.5,598.6,505.9,598.3z"/>
	<path class="st0" d="M483.9,580.7c-1-0.6-1.7-1.1-2.6-1.9c-0.1,0-0.4-0.3-0.4-0.3c-0.5-0.2-0.9-0.4-1.2-0.6c-0.7-0.4-1.5-0.6-2.1-1
		c-1.5-0.5-2.9-0.9-4.5-1.4c-0.6-0.2-1.3-0.2-1.8-0.4c-0.5,0-0.9-0.1-1.4-0.1c-0.3,0-0.6-0.1-0.9-0.1c-0.5,0-0.8-0.1-1.3,0.1
		c-0.8-0.1-1.6,0.1-2.3,0c-0.1,0-0.5,0-0.6-0.1c0-0.1,0.2-0.3,0.2-0.7c2.2,0,4.3-0.2,6.5-0.2c0.9,0,1.9,0.2,2.7,0
		c0.3,0,0.5,0.2,0.8,0.2c0.4,0.3,0.6,0.2,0.9,0.4c0.1,0,0.3,0,0.5,0c0.8,0.2,1.4,0.5,2.1,0.7c0.5,0.2,0.9,0.4,1.2,0.6
		c0.7,0.4,1.5,0.7,2.5,0.9c0.4,0.3,0.6,0.5,1.1,0.8c0.9,0.4,1.7,0.9,2.6,1.2c0.1,0.1,0.1,0.1,0.3,0.4c0.1,0,0.4,0.3,0.6,0.2
		c0.1,0.1,0.4,0.3,0.5,0.4c0.1,0.1,0.3,0.4,0.5,0.4c0.4,0.3,0.6,0.4,0.7,0.8c0.6,0.4,1.2,0.7,1.7,1.1c0.1,0,0.1,0.1,0.4,0.3
		c0.7,0.8,1.7,1.3,2.4,2c0.1,0.1,0.1,0.1,0.3,0.4c0.3,0.4,0.6,0.5,0.9,0.9c0,0.1,0.1,0.1,0.1,0.4c0.7,0.5,1.6,1,2.2,1.5
		c0.7,0.8,1.6,1.3,2.3,2c0.1,0.1,0.5,0.2,0.6,0.4c0.1,0.1,0.3,0.5,0.4,0.7c0.4,0.3,0.6,0.5,1.1,0.8c0.1,0.1,0.5,0.4,0.6,0.5
		c1.1,1,2.1,2.1,3.2,3.1c0,0.1-0.2,0.3-0.2,0.6c-1.3,0.2-2.7,0.7-3.5-0.9c-0.3-0.5-0.9-0.9-1.3-1.3l-0.1-0.1l-0.1-0.1
		c-0.6-0.5-1.2-1.2-1.8-1.7c-0.4-0.3-0.6-0.4-1-0.6c-0.6-0.5-1.3-1.1-1.9-1.8c-0.1,0-0.4-0.3-0.4-0.3c-1.2-1.2-2.4-2-3.6-3.1
		c-0.5-0.4-1-0.8-1.3-0.9c-0.6-0.5-1.2-1.2-1.7-1.7c-0.5-0.4-1.1-0.8-1.6-1.1C485.1,581.6,484.5,581.2,483.9,580.7z"/>
	<path class="st0" d="M457.3,569.5c-0.9-0.4-1.9-0.8-2.7-1.2c0-0.1,0-0.3,0.1-0.7c0.4,0.3,0.6,0.2,0.9,0.4c0.1,0,0.1-0.1,0.3-0.2
		c0.5,0,0.8,0.2,1.3,0.2c1.4-0.1,2.5-0.8,3.6-2.4c0.5-1,1.2-1.7,1.8-2.5c0.3-0.3,0.5-0.8,0.9-1.1c0.8-1.4,1.8-2.9,2.7-4.2
		c0.1-0.1,0.5-0.2,0.7-0.2c0.4,0.3,0.6,0.5,1.1,0.8c0.4,0.3,0.7,0.4,1.1,0.6c0.1,0,0.4,0.3,0.4,0.3l0.1,0.1
		c-0.3,0.4-0.5,1.1-0.8,1.7c-0.3,0.3-0.5,0.6-0.9,1l-0.1,0.1c0,0.1-0.2,0.3-0.2,0.6c-0.3,0.3-0.5,0.6-0.9,1c-0.2,0.3-0.5,0.6-0.6,1
		c-0.3,0.3-0.5,0.8-0.9,1.1c-0.1,0.1-0.3,0.3-0.4,0.4c-1.6,3.1-3.6,4-5.8,3.6c-0.1,0-0.3,0-0.5,0
		C457.9,569.8,457.5,569.8,457.3,569.5z"/>
	<path class="st0" d="M362.1,559.9c-1.6,1-2.9,1.6-4.2,0.9c-1.7-1-3.7-1.4-5.5-2.3c-1.7-0.9-3-2-4.6-3.1c-1.8-1.3-3.6-2.8-5.4-4
		c0-0.1,0-0.3,0-0.5c0.6,0.1,1.4-0.3,1.8,0c1.2,0.6,2.2,1.5,3.4,2.3c0.1,0.1,0.5,0.2,0.8,0.2c0.7-0.2,1.2-0.1,1.2,0.7
		c0,0.3,0.6,0.5,0.7,0.5c0.9-0.5,1.4,0.3,2,1c0.1,0.4,0.5,0.4,0.7,0.5c1.7,0.9,3.2,1.6,5,2.2C359.4,559,360.7,559.4,362.1,559.9z"/>
	<path class="st0" d="M450.5,566c-0.3,0-0.8,0.2-1-0.1c-4.7-2-9.5-4.2-14.3-6.4l0-0.1l0-0.1c5,2.2,9.7,4.4,14.5,6.4
		C450.1,565.7,450.2,565.9,450.5,566z"/>
	<path class="st0" d="M435.4,559.2l0,0.1c-2.2-1-4.6-2.1-7.1-3c-0.1-0.1-0.3-0.4-0.5-0.5l0.1,0C430.4,556.9,432.9,558.1,435.4,559.2
		z"/>
	<path class="st0" d="M462.9,575.6c-0.9,0.3-2,0.5-3,0.6l-0.1,0c0-0.1,0-0.3-0.1-0.5c1.1-0.2,2.4-0.5,3.4-0.6
		C463.1,575.2,463.2,575.3,462.9,575.6z"/>
	<path class="st0" d="M364.9,539.9c-0.3,0.3-0.7,0.6-1,1.1c0-0.1-0.1-0.4-0.2-0.7c0.3-0.2,0.8-0.4,1.1-0.6
		C364.9,539.7,364.9,539.7,364.9,539.9z"/>
	<path class="st0" d="M462.9,575.6c0-0.1,0.2-0.3,0.2-0.6c0.5-0.2,1.1-0.2,1.6-0.4c0,0.1-0.2,0.3-0.2,0.7c-0.3,0.2-0.7,0.3-0.9,0.3
		C463.4,575.6,463.3,575.6,462.9,575.6z"/>
	<path class="st0" d="M457.3,569.5c0.3,0,0.6,0.1,0.8,0.1C457.9,569.8,457.5,569.8,457.3,569.5z"/>
	<path class="st0" d="M474.8,616.6c0.1-0.1,0.4-0.3,0.7-0.4C475.3,616.5,475.2,616.5,474.8,616.6z"/>
	<path class="st0" d="M418.1,548.4c-0.3,0.2-0.7,0.3-0.8,0.4C417.5,548.8,417.7,548.7,418.1,548.4z"/>
	<path class="st0" d="M425.2,561.1c-0.1-0.1-0.3-0.4-0.5-0.5C425,560.9,425.1,561,425.2,561.1z"/>
	<path class="st0" d="M369.1,536.3c0.1-0.1,0.5-0.2,0.7-0.3C369.5,536.2,369.4,536.1,369.1,536.3z"/>
	<path class="st0" d="M523.3,618.4c-0.1-0.4-0.5-0.5-0.6-0.9C523,617.8,523.2,618.1,523.3,618.4z"/>
	<path class="st0" d="M419.4,558.2c-0.1-0.1-0.3-0.4-0.5-0.5C419,557.8,419.2,557.9,419.4,558.2z"/>
	<path class="st0" d="M366.5,551.4c-0.1,0.1-0.3,0.2-0.7,0.3C366.2,551.6,366.3,551.4,366.5,551.4z"/>
	<path class="st0" d="M499.5,579.7c-0.1-0.1-0.3-0.5-0.4-0.7C499.4,579.2,499.5,579.5,499.5,579.7z"/>
	<path class="st0" d="M490.7,569.9c-0.1-0.1-0.3-0.5-0.3-0.7C490.4,569.4,490.6,569.7,490.7,569.9z"/>
	<path class="st0" d="M363.8,566.5c0.1,0.1,0.1,0.5,0.3,0.7C364,567,363.9,566.7,363.8,566.5z"/>
	<path class="st0" d="M374,577.8c0.3-0.2,0.5-0.2,0.8-0.3C374.4,577.6,374.1,577.5,374,577.8z"/>
	<path class="st0" d="M446.8,593.9c-0.3,0.2-0.5,0.2-0.8,0.3C446.4,594.1,446.6,594.1,446.8,593.9z"/>
	<path class="st0" d="M365.8,540.4c0.1-0.1,0.3-0.3,0.7-0.3C366.3,540.1,365.9,540.2,365.8,540.4z"/>
	<path class="st0" d="M524.4,620.1c-0.1-0.1-0.3-0.5-0.4-0.7C524.2,619.5,524.3,619.8,524.4,620.1z"/>
	<path class="st0" d="M480.8,578.8c0.1,0,0.4,0.3,0.4,0.3C481.1,578.8,480.9,578.8,480.8,578.8z"/>
	<path class="st0" d="M485.5,579.7c-0.1-0.1-0.1-0.1-0.3-0.4C485.4,579.4,485.7,579.5,485.5,579.7z"/>
	<path class="st0" d="M390.2,551.4c-0.1-0.1-0.1-0.4-0.3-0.4C390.1,551,390.2,551.2,390.2,551.4z"/>
	<path class="st0" d="M492.9,585.1c-0.1-0.1-0.1-0.1-0.3-0.4C492.7,584.7,492.8,584.8,492.9,585.1z"/>
	<path class="st0" d="M476.1,575c-0.1,0-0.3,0-0.5,0C475.7,575.2,476,575.2,476.1,575z"/>
	<path class="st0" d="M513.9,599.9c-0.1-0.1-0.4-0.3-0.3-0.4C513.8,599.8,513.9,599.8,513.9,599.9z"/>
	<path class="st0" d="M412.5,556.4c0.1,0.1,0.1,0.4,0.3,0.5C412.8,556.7,412.6,556.5,412.5,556.4z"/>
	<path class="st0" d="M511.3,595.7c-0.1,0-0.3,0-0.5-0.2C511.1,595.6,511.2,595.7,511.3,595.7z"/>
	<path class="st0" d="M391.2,559.4c0-0.1,0-0.3,0.1-0.7C391.2,559,391.2,559.2,391.2,559.4z"/>
	<path class="st0" d="M517.2,614.2c0,0.1,0.1,0.4,0.2,0.7C517.3,614.6,517.2,614.4,517.2,614.2z"/>
	<path class="st0" d="M569.3,634.8c0.1,0.1,0.1,0.4,0.3,0.7C569.4,635.4,569.4,635.1,569.3,634.8z"/>
	<path class="st0" d="M366.8,539.1c-0.1,0-0.5,0.2-0.7,0.2C366.3,539.3,366.5,539.2,366.8,539.1z"/>
	<path class="st0" d="M510.9,595.4c-0.1-0.1-0.1-0.4-0.3-0.5C510.7,595.1,510.7,595.2,510.9,595.4z"/>
	<path class="st0" d="M512.5,597.8c-0.1-0.1-0.1-0.1-0.3-0.4C512.4,597.7,512.4,597.7,512.5,597.8z"/>
	<path class="st0" d="M517,605.7c-0.1-0.1-0.1-0.1-0.3-0.4C516.7,605.3,516.7,605.5,517,605.7z"/>
	<path class="st0" d="M365.1,536.9c0,0,0.1,0,0.1-0.1C365.2,536.9,365.2,536.9,365.1,536.9z"/>
	<path class="st0" d="M521.1,614.3c0-0.1-0.1-0.1-0.1-0.4C521.1,614.2,521.1,614.2,521.1,614.3z"/>
	<path class="st0" d="M572.1,632.3l-0.1-0.1C571.9,632.1,572,632.1,572.1,632.3z"/>
	<path class="st0" d="M437.3,547.6c-0.1,0-0.1,0-0.3,0.2C437.2,547.8,437.3,547.8,437.3,547.6z"/>
	<path class="st0" d="M518.9,609.8c0,0,0-0.1-0.1-0.1C518.9,609.7,518.9,609.8,518.9,609.8z"/>
	<path class="st0" d="M531.4,625.8c0,0,0.1,0,0.1-0.1C531.5,625.8,531.5,625.8,531.4,625.8z"/>
	<path class="st0" d="M503.7,584.6c0-0.1,0-0.1-0.1-0.4C503.7,584.5,503.7,584.5,503.7,584.6z"/>
	<path class="st0" d="M548,619.3c0,0,0.1,0,0.1-0.1C548,619.3,548,619.3,548,619.3z"/>
	<path class="st0" d="M548.4,619.3c0,0,0.1,0,0.1-0.1C548.5,619.2,548.5,619.2,548.4,619.3z"/>
	<path class="st0" d="M432.2,549.1c-0.1,0-0.1,0-0.3,0.2C432,549.1,432.2,549.1,432.2,549.1z"/>
	<path class="st0" d="M365.5,536.7c0.1,0,0.1,0,0.3-0.2C365.6,536.7,365.5,536.7,365.5,536.7z"/>
	<path class="st0" d="M455.7,568.1c-0.1,0-0.1,0.1-0.3,0.2C455.6,568.2,455.6,568.2,455.7,568.1z"/>
	<path class="st0" d="M494,586.1c0-0.1-0.1-0.1-0.1-0.4C494,586,494,586,494,586.1z"/>
	<path class="st0" d="M439,547.3c-0.1,0-0.1,0-0.3,0.2C438.9,547.3,438.9,547.3,439,547.3z"/>
	<path class="st0" d="M509.7,593.1l-0.1-0.1L509.7,593.1z"/>
	<path class="st0" d="M568.3,626c0,0,0-0.1-0.1-0.1C568.1,625.8,568.2,625.8,568.3,626z"/>
	<path class="st0" d="M510.1,593.6c0,0,0-0.1-0.1-0.1C509.8,593.5,510.1,593.5,510.1,593.6z"/>
	<path class="st0" d="M521.5,615.1c0-0.1-0.1-0.1-0.1-0.4C521.4,614.8,521.5,615.1,521.5,615.1z"/>
	<path class="st0" d="M512.9,598.2l-0.1-0.1L512.9,598.2z"/>
	<path class="st0" d="M457.5,611.7l0,0.1C457.5,611.9,457.5,611.9,457.5,611.7z"/>
	<path class="st0" d="M511.7,596.1c0-0.1,0-0.1-0.1-0.4C511.5,596,511.7,596.1,511.7,596.1z"/>
	<path class="st0" d="M365,539.5c0.1,0,0.1,0,0.3,0c0,0.1-0.1,0.1-0.2,0.3C364.9,539.7,364.9,539.7,365,539.5z"/>
	<path class="st0" d="M509.8,600c-0.1-0.1-0.5-0.4-0.6-0.6C509.4,599.6,509.6,599.8,509.8,600z"/>
	<path class="st0" d="M468.4,561.1c-0.3,0.3-0.5,0.6-0.9,1C467.8,561.7,468.1,561.4,468.4,561.1z"/>
	<path class="st0" d="M368.6,564.7c0-0.5,0.1-1-0.1-1.5c0-0.1,0-0.1,0-0.3c0.4-1.8,0.5-3.9,1.3-5.6c0.8-1.9,2.2-3.9,3.5-5.2
		c2.4-2.3,5.1-3.5,7.7-2.7c2.8,0.7,5.2,2.2,6.4,6c0.7,2,0.9,4.3,0.5,6.7c-0.3,2.2-1.2,4.3-2.3,6.3c-1.7,2.7-3.6,4.5-5.9,5.5
		c-3.3,1.3-6.4,1-8.7-2.1c-0.3-0.4-0.6-0.9-1-1.3c0-0.1-0.1-0.1-0.1-0.4c-0.4-1.5-0.9-3.1-1.3-4.5
		C368.8,565.2,368.6,564.8,368.6,564.7z"/>
	<path class="st0" d="M368.6,564.7c0,0.1,0.1,0.5,0.2,0.7C368.8,565.2,368.6,564.8,368.6,564.7z"/>
	<path class="st0" d="M368.5,562.8c0,0.1,0,0.1,0,0.3C368.5,562.9,368.5,562.8,368.5,562.8z"/>
	<path class="st0" d="M370.2,570c0,0.1,0.1,0.1,0.1,0.4C370.2,570.2,370.2,570,370.2,570z"/>
	<path class="st0" d="M458.7,605.7c-0.5-3.2-0.1-6.4,1.5-9.4c2.1-4.6,5.3-6.8,8.8-7.4c4.4-0.6,8.4,2.9,9.2,8.2
		c0.9,5.1-1.6,11.7-5.1,14.5l-0.1,0.1c-1.2,0.6-2.6,1.5-3.8,1.8c-2.5,0.8-4.8,0.3-6.8-1.4c-1.7-1.4-2.8-3.4-3.2-6.1
		C458.8,606.1,458.7,606,458.7,605.7z"/>
	<path class="st0" d="M458.7,605.7c0,0.1,0.1,0.5,0.2,0.7C458.8,606.1,458.7,606,458.7,605.7z"/>
	<path class="st0" d="M472.6,612l0.1-0.1C472.8,611.9,472.8,611.9,472.6,612z"/>
</g>
<g>
	<path class="st0" d="M426.6,240c1.9-0.9,4.1-2,6-2.9c2.2-0.9,4.2-1.9,6.3-2.8c0.7-0.3,1.3-0.6,1.9-0.9c0.7-0.3,1.5-0.8,2.3-1.1
		c0.1-0.1,0.6-0.1,0.7-0.3c0.6-0.3,1-0.6,1.6-0.9c0.1,0,0.3,0,0.3-0.1c0.6-0.3,0.9-0.5,1.5-0.8c0.1,0,0.1-0.1,0.3-0.1
		c0.3-0.1,0.6-0.3,0.9-0.5c0.1,0,0.1-0.1,0.3-0.1c0.3-0.1,0.6-0.3,0.9-0.5c0.1,0,0.1-0.1,0.3-0.1h0.1c2.2-1.3,4.1-2.3,6.3-3.5
		c0.9-0.5,1.5-1.1,2.3-1.5l0,0c0.6-0.1,1-0.5,0.9-0.9c-0.1-1.3-0.3-2.6-0.9-3.8c-0.6-1.6-1.6-3.3-2.5-4.8c-0.1-0.3-0.3-0.8-0.6-1.1
		c-0.1-0.1-0.3-0.1-0.6-0.3c-1-1.4-2.2-2.9-3.2-4.3c-4.7-5-7.9-10.7-10.8-16.4c-1-2-1.9-4.1-1.8-6.3c0-0.3,0-0.6,0.1-0.9
		c0.9-1.6,1.9-3.4,3.1-5c0.9-1.3,1.8-1.4,3.4-0.9c0.1,0,0.6,0.1,0.7,0.1c0,0,0.1,0,0.1,0.1c1,0.6,2.2,1.1,3.2,1.6
		c2.2,1.3,4.2,2.6,6.4,4c0.3,0.3,0.9,0.6,1.3,0.8l0.1,0.1c1,0.6,1.9,1.3,3.1,1.9l0.1,0.1c0.9,0.6,1.8,1.1,2.8,1.6c0,0,0.1,0,0.1,0.1
		c1.5,0.8,2.6,1.5,4.1,2.4c0.1,0.1,0.6,0.3,0.7,0.5c3.1,1.9,5.8,3.5,8.9,5.4c0.1,0.1,0.6,0.3,0.7,0.5c2.6,1.5,5.1,3.3,7.9,4.8
		c2.5,1.5,5,2.9,7.4,4.3c0,0,0,0,0.1,0.1c1.8,1.3,3.9,2.1,6,2.9c3.2,1.1,6.7,2,10.1,2.4c2.2,0.3,4.2,0.6,6.4,0.3c0.1,0,0.6,0,0.9,0
		c20.7-1.1,41.4-2.1,62.2-3.3c1.5-0.1,3.1-0.1,4.4-0.1c1.8,0,3.1,1.1,2.3,2.3c-0.9,1.5-1.9,3-3.1,4.5c-0.3,0.5-1,0.6-1.6,0.9
		c-0.1,0.1-0.3,0.1-0.6,0.3c-1.6,0.6-3.1,1.1-4.7,1.6c-0.1,0.1-0.1,0.1-0.3,0.3c-2.3,0.8-4.7,1.6-6.9,2.4c-1,0.3-2.2,0.8-3.2,1.3
		l-0.1,0.1h-0.1c-0.1,0-0.1,0.1-0.3,0.1c-0.1,0-0.3,0-0.6,0c-0.1,0.1-0.1,0.1-0.3,0.3c-0.3,0-0.7,0.1-1,0.1
		c-0.1,0.1-0.1,0.1-0.3,0.3c-0.3,0-0.7,0.1-1,0.1c-0.1,0.1-0.1,0.1-0.3,0.3c-0.7,0.1-1.3,0.3-1.9,0.6c-0.1,0.1-0.1,0.1-0.3,0.3
		c-0.9,0.3-1.8,0.6-2.6,0.9l-0.1,0.1c-0.1,0-0.3,0.1-0.6,0.1c-0.1,0-0.1,0.1-0.3,0.1c-0.3,0-0.7,0.1-1,0.1c-0.1,0.1-0.1,0.1-0.3,0.3
		c-1,0.3-2.2,0.8-3.2,1.1c-3.1,1.1-6,2.1-9,3c-0.1,0.1-0.1,0.1-0.3,0.3c-2.2,0.8-4.2,1.4-6.4,2.1c-0.1,0.1-0.3,0.3-0.6,0.5
		c-1.3,0.3-2.3,0.8-3.5,1.1c-0.1,0.1-0.3,0.3-0.6,0.5c-0.3,0-0.6,0-0.9,0c-0.1,0.1-0.3,0.3-0.6,0.5c-0.6,0.1-0.9,0.1-1.5,0.3
		c-0.1,0.1-0.3,0.3-0.6,0.5c-0.9-0.1-1,0.3-1,0.8c-0.1,2-0.3,4,0.1,5.8c0.1,0.6,0,1.3,0.1,1.9c0.1,1.4,0.6,2.8,0.9,4.1
		c0.1,0.1,0.3,0.3,0.6,0.5c0,0.3,0,0.8,0,1.1c0.1,0.1,0.3,0.3,0.6,0.5c-0.1,1.1,0.3,2.1,0.9,3c0,0.1,0.1,0.1,0.1,0.3
		c0.1,0.8,0.3,1.4,0.6,2.1c0.1,0.8,0.6,1.6,0.9,2.4c0,0.3,0.1,0.5,0.3,0.6c-0.1,0.1-0.3,0.3-0.6,0.6c-0.1,0.1-0.1,0.5-0.3,0.6
		c0,0,0,0.1-0.1,0.1c-0.9,1.3-1.9,2.6-3.1,3.8c-0.7,0.8-1.8,0.6-2.8,0.3c-0.6-0.1-1.3-0.5-1.8-0.6c-0.7-0.3-1.6-0.8-2.3-1.1
		c-0.1-0.1-0.3-0.1-0.6-0.3c-0.7-0.3-1.5-0.8-1.9-1.1c0,0-0.1,0-0.1-0.1c-1-0.5-1.9-1.1-3.1-1.5c0,0-0.1,0-0.1-0.1
		c-0.1-0.1-0.3-0.1-0.6-0.3c0,0-0.1,0-0.1-0.1c-1.9-0.9-3.8-1.9-5.7-2.8c-1.6-0.8-3.2-1.6-4.8-2.4c-0.1,0-0.3-0.1-0.6-0.1
		c-0.7-0.3-1.5-0.8-2.3-1.1c-0.1-0.1-0.3-0.3-0.6-0.5c0,0-0.1,0-0.1-0.1c-1.5-0.8-2.8-1.4-4.2-2.1c0,0-0.1,0-0.1-0.1
		c-0.1,0-0.1-0.1-0.3-0.1c0,0-0.1,0-0.1-0.1c-0.9,0-1.8,0-2.6,0.1c-3.2,0.6-6.3,0.9-9.5,1.1c-1,0-1.9,0-2.8,0
		c-3.5-0.1-5-2.1-6.3-4.1c-0.3-0.5-0.3-1.1-0.6-1.5c-0.3-0.9-0.9-1.4-2.2-1.4c-2.6,0.1-5.4,0.5-8.2,0.6c-1,0-2.2,0-3.2,0
		c-2.3,0.1-4.7,0.3-7.2,0.5c-2.5,0.1-5.1,0.3-7.6,0.5c-5.8,0.3-12,0.8-17.8,1.1c-0.7,0-1.6,0.1-2.3,0.1c-1.3,0-1.8-0.8-1.6-1.6
		c0.1-0.5,0.1-0.8,0.3-1.3c0.1-0.3,0.3-0.6,0.6-0.9v-0.1c0.1-0.3,0.3-0.5,0.6-0.8c0.1-0.3,0.3-0.5,0.6-0.8
		C425.2,241.4,425.8,240.5,426.6,240z M446.4,185.7L446.4,185.7c-0.3-0.1-0.7-0.3-0.9-0.6c-0.1,0-0.1-0.1-0.3-0.1
		c-0.1-0.1-0.3-0.1-0.6-0.3c-0.3-0.5-0.9-0.8-1.8-0.8c0.1,0.3,0.3,0.6,0.3,0.8c0.3,0.8,0.7,1.5,1,2.3c0,0.1,0,0.3,0,0.5
		c0.3,0.8,0.7,1.5,1,2.1c0.1,0.1,0.3,0.5,0.3,0.6c0,0.1,0,0.1,0,0.3c0.9,1.4,1.8,2.8,2.6,4.1c0.3,0.5,0.6,0.9,0.9,1.4
		c0.1,0.5,0.6,0.8,0.7,1.3c0.1,0.1,0.3,0.5,0.3,0.6c0.1,0.1,0.1,0.3,0.3,0.5c0.1,0.3,0.3,0.5,0.6,0.8c0.7,1.1,1.6,2,2.3,3
		c2.2,2.9,4.4,5.8,6.6,8.6c1.9,2.9,3.1,6.1,2.2,9.4c0,0.1-0.1,0.5-0.1,0.6c-0.6,0.9-1,1.9-1.5,2.8c-0.1,0.3-0.3,0.5-0.6,0.8
		c-0.1,0.3-0.3,0.5-0.6,0.8c-0.3,0.5-0.7,0.8-1,1.3c0,0,0,0-0.1,0.1c-0.7,0.6-1.5,1.3-2.2,1.9c0,0,0,0-0.1,0.1
		c-0.9,0.6-1.8,1.3-2.6,1.9c-0.1,0-0.1,0.1-0.3,0.1c-0.3,0.3-0.7,0.5-1.3,0.8c-0.3,0.1-0.7,0.5-1,0.6c-1,0.6-2.2,1.1-3.2,1.6
		c-0.6,0.3-0.9,0.5-1.5,0.8c-0.7,0.3-1.3,0.6-1.9,0.9c-0.1,0.1-0.6,0.3-0.7,0.3c-0.3,0.1-0.9,0.5-1.3,0.6c-0.4,0.1-0.7,0.3-1,0.5
		c-0.3,0.1-0.6,0.3-0.9,0.5c-0.7,0.3-1.5,0.6-2.2,0.9c-0.3,0.1-0.6,0.3-0.9,0.5c-0.9,0.3-1.6,0.8-2.5,1.1c-0.6,0.1-0.9,0.5-1.5,0.6
		c-0.1,0-0.1,0.1-0.3,0.1c-1.8,0.8-3.4,1.5-5.1,2.1c0,0,0,0,0,0.1c1.9-0.1,4.1-0.1,6-0.3c2.8-0.1,5.7-0.3,8.5-0.5
		c1-0.1,2.3-0.1,3.4-0.3c2.5-0.1,5-0.3,7.4-0.5c1.3-0.1,2.5-0.1,3.8-0.3c2.6-0.1,5.4-0.3,8-0.5c1.3-0.1,2.5-0.1,3.8-0.3
		c1.6-0.1,3.1-0.1,4.7-0.3c0.1,0,0.1,0,0.3,0c0.9,0.3,1.3,0.8,1.3,1.5c0,0.3,0.1,0.5,0.1,0.8c0.1,0.5,0.3,0.8,0.7,1.3
		c1,1.9,3.1,3,5.5,3.4c0.6,0,0.9,0,1.5,0c0.6,0.3,1.3,0.5,1.9,0l0,0c0.3,0.1,0.6,0.1,0.9,0.3c0.6,0,1,0,1.6-0.1
		c0.1-0.1,0.6-0.3,0.7-0.5c0.6,0,1.3,0,1.8,0c0.3,0,0.6,0,0.9,0c0.1,0,0.1-0.1,0.3-0.1c0.1-0.1,0.3-0.1,0.6-0.3c0.3,0,0.6,0,0.9,0.1
		c0.9-0.1,1.8,0,2.3-0.8c1.3,0.1,2.5,0.1,3.4,0.9c0.7,0.5,1.5,0.8,2.2,1.1c1.5,0.8,3.1,1.4,4.4,2c0.9,0.5,1.9,1.1,2.8,1.5
		c1.6,0.8,3.2,1.5,4.8,2.4c0.9,0.5,1.8,0.9,2.6,1.4c0.3,0.1,0.7,0.5,1.3,0.6c0,0,0.1,0,0.1,0.1c0.6,0.1,1,0.5,1.5,0.6
		c0.3,0.1,0.7,0.3,0.9,0.5c0.1,0,0.3,0.1,0.3,0.1l0,0c0.7,0.5,1.5,0.8,2.3,1.3c1,0.6,2.2,1.3,3.2,1.6c0.7-0.5,0-0.6,0-1.1
		c-0.6-1.5-0.9-3-1.5-4.4c-0.1-0.6-0.7-1.3-0.3-1.9c0.1-0.1-0.3-0.8-0.1-1.3c0-0.1-0.1-0.1-0.1-0.3c-0.1-0.8-0.3-1.5-0.6-2.1
		c0-0.5,0-0.9-0.1-1.4c0-0.6,0-1.1,0-1.6c0-0.1,0-0.1,0.1-0.3c0-0.3-0.1-0.6-0.1-0.8c0-0.3,0-0.5,0-0.8c0-0.3,0-0.5,0.1-0.8
		c0.3-1.1,0.6-2.1,0.9-3l0.1-0.1v-0.1c0.1-0.1,0.1-0.3,0.3-0.6c0-0.1,0-0.3,0-0.6c0.1-0.1,0.3-0.3,0.6-0.5c0.7-1.9,1.8-3.4,3.2-4.9
		c0.3-0.3,0.7-0.8,1.3-1.1c1-0.5,2.2-0.9,3.4-1.4c0.6-0.1,1.3-0.3,1.9-0.5l0,0c0,0,0.1,0,0.1,0.1c0.1-0.1,0.3-0.3,0.6-0.6
		c1.3-0.5,2.3-0.8,3.5-1.3c0.1-0.1,0.6-0.3,0.7-0.5c0.7-0.3,1.5-0.5,1.9-0.6c1-0.3,2.2-0.6,3.2-1.1c0,0,0,0,0.1,0l0,0
		c0.3-0.1,0.9-0.1,1.3-0.3c1-0.3,2.2-0.8,3.1-1.1l0,0c0.1-0.1,0.3-0.3,0.6-0.3c0.9-0.3,1.8-0.6,2.8-0.9l0,0l0,0
		c1.6-0.8,3.2-1.5,5.1-1.6c0.1-0.1,0.3-0.3,0.6-0.5c0.1,0,0.3,0,0.6,0c0.3,0,0.6-0.1,0.7-0.1c0.1,0,0.1-0.1,0.3-0.1
		c0.1,0,0.3-0.1,0.6-0.1c0.1,0,0.1-0.1,0.3-0.1l0,0c0.1,0,0.1,0,0.3-0.1h0.1c0.1,0,0.1-0.1,0.3-0.1l0,0c0.3-0.1,0.7-0.3,1.3-0.5l0,0
		l0,0l0,0l0,0c0.1-0.1,0.3-0.3,0.6-0.5c0.9-0.3,1.9-0.6,2.8-0.9c0.3-0.1,0.6-0.3,0.9-0.5c0.6-0.1,1-0.3,1.6-0.5
		c1-0.3,2.3-0.6,3.4-0.9c0.1-0.1,0.3-0.3,0.6-0.5c0.1,0,0.3-0.1,0.3-0.1c1.5-0.5,2.8-0.9,4.1-1.4c0.1,0,0.1-0.1,0.3-0.1h0.1l0.1-0.1
		c0.1,0,0.6-0.1,0.7-0.1l0.1-0.1c0.3-0.1,0.6-0.3,0.9-0.3c0,0,0,0,0-0.1c-0.3,0-0.6,0-0.9,0c-16.2,0.9-32.5,1.6-48.7,2.6
		c-5.1,0.3-10.4,0.5-15.5,0.8c-2.6,0.1-5.1,0-7.6-0.3c-1.6-0.1-3.1-0.5-4.4-0.8c-0.3-0.1-0.7-0.1-1-0.3c-0.1,0-0.6-0.1-0.7-0.1
		c0,0,0-0.1-0.1-0.1c0,0,0,0.1-0.1,0.1c-0.1,0-0.6,0-0.7-0.1c-1.3-0.3-2.5-0.8-3.5-1.3v-0.1h-0.1c-0.1,0-0.6-0.1-0.7-0.1
		c-0.3-0.1-0.7-0.3-1-0.6c0,0-0.1,0-0.1-0.1c-1.3-0.6-2.3-1.3-3.5-2c-0.3-0.1-0.7-0.5-0.9-0.6c-0.7-0.5-1.5-0.9-2.3-1.4
		c-0.3-0.1-0.6-0.1-0.9-0.3c0-0.1,0-0.3-0.1-0.5c-0.1,0-0.1-0.1-0.3-0.1c-0.6-0.3-1.3-0.6-1.8-0.9c-0.3-0.1-0.7-0.5-0.9-0.6
		c-0.1-0.1-0.3-0.1-0.6-0.3c-0.1-0.1-0.6-0.3-0.7-0.5c-0.1-0.1-0.1-0.3-0.3-0.5c-0.1,0-0.1-0.1-0.3-0.1c-0.6-0.3-1.3-0.6-1.8-0.9
		c-0.3-0.1-0.7-0.5-0.9-0.6c-0.1-0.1-0.3-0.1-0.6-0.3c-0.1-0.3-0.3-0.6-0.9-0.5c-0.3-0.3-0.6-0.5-0.9-0.8c-0.9-0.6-1.9-1.1-2.8-1.6
		c-0.1-0.1-0.6-0.1-0.7-0.3c-0.9-0.6-1.6-1.1-2.5-1.6c-0.1-0.1-0.3-0.1-0.6-0.3c-0.3-0.1-0.7-0.3-0.9-0.6c-0.3-0.1-0.7-0.5-0.9-0.6
		c-0.1-0.1-0.3-0.1-0.6-0.3c-0.3-0.1-0.6-0.3-0.9-0.5v-0.1l-0.1-0.1c-0.1-0.1-0.3-0.1-0.6-0.3c-0.1-0.1-0.6-0.3-0.7-0.5
		c0,0-0.1,0-0.1-0.1c-0.1-0.1-0.3-0.1-0.6-0.3c-0.1-0.1-0.3-0.1-0.6-0.3c-0.3-0.3-0.7-0.5-1-0.8c-0.1,0-0.3-0.1-0.6-0.1
		c0-0.1-0.1-0.1-0.1-0.3c-0.1-0.1-0.6-0.3-0.7-0.5c-0.1-0.1-0.6-0.1-0.7-0.3c0-0.1-0.1-0.1-0.1-0.3c-0.1-0.1-0.3-0.1-0.6-0.3
		c-0.1,0-0.1-0.1-0.3-0.1c-0.1-0.1-0.3-0.1-0.6-0.3c0-0.1-0.1-0.1-0.1-0.3c0-0.1-0.1-0.1-0.1-0.3l0,0c-0.1,0-0.3,0-0.6-0.1
		c-0.1-0.1-0.6-0.3-0.7-0.3c0-0.1-0.1-0.1-0.1-0.3l-0.1-0.1v-0.1c-0.1-0.1-0.6-0.3-0.7-0.5c-0.1-0.1-0.6-0.1-0.7-0.3
		c0-0.1-0.1-0.1-0.1-0.3c-0.1-0.1-0.1-0.3-0.3-0.3c-0.3,0-0.7-0.1-1-0.1c-0.1-0.1-0.3-0.3-0.3-0.5c-1.8-1.1-3.5-2.1-5.4-3.3
		C446.8,185.8,446.5,185.8,446.4,185.7z"/>
	<path class="st0" d="M420.7,181.8c-0.1,1.5-0.6,2.9-0.7,4.4c-0.1,0.6-0.1,1.3,0,1.9c0.3,1.3,0.1,2.4,1,3.5c0.3,0.6,0.6,1.4,0.7,2
		c0.1,0.3,0.3,0.5,0.7,0.8l0.1,0.1c0.6,2.1,2.6,3.5,4.4,5c3.2,2.6,6.9,4.5,11.2,6.3c0.9,0.3,1.9,0.8,2.8,1.1
		c0.6,0.1,0.7,0.3,0.6,0.8c-0.9,1.4-1.6,2.6-2.5,4c-0.1,0.5-0.7,0.5-1.3,0.5c-3.4-0.5-6.4-1.4-9.5-2.8c-1.8-0.8-3.8-1.5-5.4-2.6
		c-3.4-2.1-6.6-4.5-8.3-7.8c-0.9-1.6-1.6-3.5-2.2-5.1c-1-3.8,0-7.6,1.6-11.3c1.6-3.5,3.8-6.6,6.6-9.8c4.1-4.3,9.6-7.3,16.2-8.9
		c2.6-0.6,5.4-1.1,8-1.5c1.6-0.3,3.2-0.3,4.8-0.6c1.5,0,2.6-0.1,4.1-0.1c3.4-0.1,6.6,0.1,9.9,0.5c0.9,0.1,1.8,0,2.5,0.1
		c0.7,0.1,1.3,0.5,1.9,0.6c1.9,0.6,4.1,1.1,5.8,1.9c4.8,2.1,8.9,4.8,12.1,8.3c0.6,0.6,1.3,1.1,1.8,1.6c0.9,1.1,1.6,2.1,2.2,3.4
		c1.3,2.6,2.5,5.1,3.8,7.6c0.3,0.6,0.3,1.3-0.1,1.9c-0.9,1.3-1.8,2.6-2.6,3.8c-1.8-2.4-3.2-4.8-5.1-6.9c-1.6-1.9-3.4-3.5-5.4-5.1
		c-1.3-1.1-2.8-1.9-4.1-2.8c-2.8-2.1-6.4-3.4-10.1-4.4c-2.3-0.8-4.8-1.3-7.3-1.3c-1.9-0.1-4.1-0.1-6-0.3c-0.6,0-1.3-0.1-1.8,0
		c-1.8,0.1-3.5,0.3-5.4,0.6c-0.7,0-1.3,0.1-1.9,0.3c-2.2,0.3-4.4,0.6-6.6,1.1c-3.2,0.6-6,1.5-8.9,3c-2.8,1.5-5.5,3.3-7.3,5.5
		C421,180.9,421,181.3,420.7,181.8C420.9,181.6,420.9,181.8,420.7,181.8z M416.6,191.5L416.6,191.5c0.1-0.9,0.1-1.6,0.3-2.4
		c0.3-2.4,1.5-4.9,2.8-7c1.5-2.6,3.2-5,5.5-7.1c2.2-2,4.4-3.6,7.3-4.9c2.8-1.4,6-2.1,9.2-2.9c-0.3,0-0.6,0-0.9,0
		c-1.8,0.3-3.8,0.6-5.5,1.1c-3.2,0.8-6.4,1.6-9.2,3.3c-1.8,1.1-3.5,2-5.1,3.3c-1.5,1.1-2.8,2.4-3.8,3.8c-1.6,2.4-1.9,5.4-1.8,8
		c0,1.3,0.3,2.4,0.6,3.6C416,190.4,416.2,190.9,416.6,191.5z"/>
	<path class="st0" d="M590.9,192.8c3.2,0.1,6.4,0.3,9.6,1.1c2.5,0.6,5,1.3,7.3,2.4c3.1,1.5,5.4,3.5,6.7,6.1c0.6,0.9,1.3,1.9,1.3,2.8
		c0,1.9,0.3,3.6-0.6,5.5c-0.6,0.9-0.9,1.9-1.3,2.8c0,0.1-0.1,0.3-0.1,0.5c-1.3,1.9-2.3,3.8-4.1,5.5c-0.1,0.1-0.1,0.5-0.3,0.6
		c0,0,0,0-0.1,0.1c-0.9,0.6-1.8,1.4-2.6,2c-0.1,0.1-0.1,0.1-0.3,0.3c-1.6,0.8-3.4,1.5-5,2.4c-0.1,0.1-0.1,0.1-0.3,0.3
		c-2.5,0.6-5,1.4-7.4,2c-4.2,1.1-8.8,0.9-13.1,1.3c-0.6,0-1,0-1.6,0c0.1-0.5,0.3-0.8,0.3-1.1c0,0,0-0.1,0.1-0.1
		c0.6-0.9,1.3-2,1.8-2.9c0.3-0.6,1-0.9,1.8-1.1c2.8-0.6,5.5-1.3,8.3-1.9c1.3-0.3,2.3-0.6,3.5-0.9c1.9-0.6,3.8-1.3,5.5-2
		c1.8-0.8,3.5-1.9,5.1-2.8c1.6-0.8,1.9-1.9,1.9-3.3c-0.1-2-1.3-3.6-2.6-5.1c-1.9-2.1-5-3.3-8-3.8c-2.3-0.6-4.7-0.9-6.9-1.4
		c-1.3-0.1-2.6-0.1-3.9-0.1c-1.5,0-2.8,0-4.1,0.1c-2.6,0.3-5.4,0.6-7.9,1.3c-4.4,0.8-8.3,2.3-12.6,4.1c0.1-0.5,0.3-0.9,0.6-1.3
		c1.3-2.8,3.8-4.8,6.7-6.4c5.1-2.9,10.7-4.9,16.9-5.8c0.9-0.1,1.6-0.1,2.5-0.3C588.7,192.9,589.7,192.8,590.9,192.8z M610.7,206.2
		c-0.6,5.6-3.9,10-8.8,14c0,0,0.1,0,0.3,0c3.5-1.1,6.7-2.6,9.2-4.9c0.3-0.3,0.6-0.6,0.6-0.9c0.6-2,0.6-4.1-0.3-6.1
		C611.6,207.6,611,207,610.7,206.2z"/>
	<path class="st0" d="M405.2,237c0.7-0.6,1.3-1.1,1.9-1.6c1.9-1.4,4.2-2,6.6-2.4c0.1,0,0.1,0,0.3,0c0.3,0,0.9-0.1,1.3-0.1
		c1,0,2.2-0.1,3.2-0.1c0.6,0,0.9,0,1.5,0c0.1,0,0.1,0,0.3,0c1.8,0.1,3.5,0.3,5.4,0.6c0.3,0.1,0.7,0.1,1,0.3c-0.3,0.8-0.7,1.4-1,2
		c-0.1,0.3-0.6,0.6-0.7,0.9c0,0.1,0,0.1-0.1,0.3c-0.1,0.1-0.3,0.5-0.6,0.6c-0.7,0.8-1.6,1.1-2.8,1.3c-3.5,0.5-7.2,0.8-10.4,2
		c-0.7,0.3-1.3,0.5-1.9,0.8c-0.1,0.1-0.3,0.5-0.3,0.6c0.1,1.3,0.9,2.3,1.9,3.3c2.6,2.3,6.3,3.4,9.8,4.4c2.5,0.8,5,1.3,7.6,1.3
		s5.4-0.1,8-0.5c1.8-0.1,3.5-0.6,5.4-1.1c0,0.3-0.1,0.6-0.3,0.9c-0.7,1.3-1.5,2.6-2.5,3.8c-0.3,0.5-1,0.6-1.6,0.9
		c-3.1,1.6-6.3,2.9-9.9,3.4c-1.9,0.3-4.1,0.5-6,0.5c-1,0-2.2-0.1-3.4-0.3c-1.8-0.3-3.5-0.6-5.4-1.1c-1.5-0.5-2.8-0.9-4.2-1.5
		c-2.2-0.9-3.9-2-5.4-3.4c-0.1-0.3-0.6-0.5-0.7-0.8c-0.6-0.9-1-1.6-1.5-2.6c-0.6-1.4-0.7-2.6-0.6-4.1c0-0.1,0-0.1,0-0.3
		c0-0.3,0-0.6,0.1-0.8c0-0.1,0.1-0.3,0.1-0.6c0.1-0.3,0.3-0.6,0.3-0.9c0.6-1.1,1-2.1,1.6-3.3c0.3-0.6,0.9-1.3,1.5-1.9
		C404.8,237.5,405,237.3,405.2,237z M406,246.8c-0.1-3.5,1.9-6.1,4.2-9c-1.9,0.5-3.8,1.1-5.4,1.9c-0.9,0.5-1,1.1-0.9,1.9
		c0,0.5,0,0.9,0.1,1.4C404.4,244.3,404.7,245.4,406,246.8z"/>
	<path class="st0" d="M541.7,253.2c1-0.3,1.8,0.3,2.5,0.6c0.9,0.3,1.8,0.8,2.8,1.3c0.3,0.3,0.9,0.6,1.3,0.9c1,0.8,1.8,1.5,1.9,2.6
		c0,0.5,0.3,0.9,0.6,1.4c0.1,0.1,0.1,0.5,0.3,0.6c-0.1,0.1-0.3,0.3-0.3,0.6c-0.3,2-1.5,3.6-2.5,5.4c-0.7,0.9-1.3,2-2.2,2.8
		c-1.6,1.3-3.4,2.4-5.1,3.5c-1.9,1.1-4.4,1.6-6.7,2.3c-3.4,0.9-6.7,0.8-10.1,0.8c-3.4,0-6.6-0.5-9.8-1.4c-2.5-0.8-5-1.9-6.7-3.4
		c-1.8-1.5-3.4-3.4-3.4-5.6c0-0.8,0.6-1.5,0.9-2.3c0.7-1.1,1.5-2,2.3-3c0.6,0.6,0.7,1.3,1,1.5c0.9,0.9,1.8,1.9,3.4,2.3
		c0.3,0.1,0.7,0.6,1,0.8c1,0.3,2.3,0.6,3.4,0.9s2.2,0.6,3.2,0.8c1.3,0.1,2.6,0.5,4.1,0.1c0.1,0,0.1,0,0.3,0c2.3,0.6,4.7,0.3,6.9,0
		c0.3,0,0.9,0,1.3-0.1c2.3-0.1,4.7-0.6,6.7-1.3c0.3-0.1,0.7-0.3,1-0.5c0.3,0,0.6-0.1,0.9-0.1c0.9-0.5,1.8-0.8,2.5-1.3
		c0.1-0.1,0.1-0.5,0.1-0.6c-1-1.6-2.5-3.3-4.2-4.4c-0.6-0.3-0.6-0.6-0.3-1.1c0.1-0.3,0.3-0.8,0.6-1.3
		C540.2,255.1,541,254.2,541.7,253.2z M546.4,262c-1.9,3.8-5.4,6.6-10.4,8.3c0.1,0.1,0.6,0.1,0.7,0.1c0.6-0.1,1.3-0.3,1.8-0.5
		c2.8-0.8,5.5-1.9,7.9-3.4c0.6-0.3,1.3-0.8,1.3-1.1C547.5,264.2,547.4,263,546.4,262z"/>
	<path class="st0" d="M530.9,260.2c0.1-0.1,0.3-0.3,0.6-0.6C531.2,260,531,260.1,530.9,260.2z"/>
	<path class="st0" d="M478.7,197.9c-0.1-0.1-0.6-0.3-0.7-0.5C478.1,197.7,478.4,197.8,478.7,197.9z"/>
	<path class="st0" d="M469,192.2c-0.1-0.1-0.6-0.3-0.7-0.5C468.4,192.1,468.9,192.1,469,192.2z"/>
	<path class="st0" d="M530.9,235.4c0.1-0.1,0.3-0.3,0.6-0.5C531.2,235.2,531,235.3,530.9,235.4z"/>
	<path class="st0" d="M535,233.9c0.1-0.1,0.3-0.3,0.6-0.5C535.3,233.8,535.1,233.9,535,233.9z"/>
	<path class="st0" d="M529.4,235.9c0.1-0.1,0.3-0.3,0.6-0.5C529.7,235.5,529.6,235.8,529.4,235.9z"/>
	<path class="st0" d="M527.5,236.5c0.1-0.1,0.3-0.3,0.6-0.5C527.8,236.3,527.7,236.5,527.5,236.5z"/>
	<path class="st0" d="M541,264.5c-0.3,0-0.6,0.1-0.9,0.1C540.4,264.7,540.7,264.7,541,264.5z"/>
	<path class="st0" d="M520,263c0.1,0.1,0.3,0.1,0.6,0.3C520.5,263.4,520.2,263.1,520,263z"/>
	<path class="st0" d="M528.6,250.9c-0.1-0.1-0.3-0.3-0.6-0.5C528.1,250.8,528.4,250.9,528.6,250.9z"/>
	<path class="st0" d="M528,249.6c-0.1-0.1-0.3-0.3-0.6-0.5C527.7,249.3,527.8,249.4,528,249.6z"/>
	<path class="st0" d="M581.1,217.2c0.1-0.1,0.3-0.1,0.6-0.3C581.5,217,581.4,217.1,581.1,217.2z"/>
	<path class="st0" d="M455.3,212.9c0.1,0.1,0.3,0.1,0.6,0.3C455.5,213,455.5,213,455.3,212.9z"/>
	<path class="st0" d="M554.3,226.9c0.1-0.1,0.1-0.1,0.3-0.3C554.7,226.8,554.5,226.9,554.3,226.9z"/>
	<path class="st0" d="M529.6,254.5c0-0.1-0.1-0.1-0.1-0.3C529.4,254.2,529.4,254.3,529.6,254.5z"/>
	<path class="st0" d="M541.7,231.4c0.1-0.1,0.1-0.1,0.3-0.3C542,231.3,541.8,231.3,541.7,231.4z"/>
	<path class="st0" d="M576.3,219.1c0.1-0.1,0.1-0.1,0.3-0.3C576.6,219,576.3,219,576.3,219.1z"/>
	<path class="st0" d="M606.2,222c0.1-0.1,0.1-0.1,0.3-0.3C606.4,221.8,606.2,221.9,606.2,222z"/>
	<path class="st0" d="M555.7,226.4c0.1,0,0.1-0.1,0.3-0.1C555.9,226.3,555.9,226.3,555.7,226.4z"/>
	<path class="st0" d="M559.5,225c0.1-0.1,0.1-0.1,0.3-0.3C559.7,224.9,559.7,225,559.5,225z"/>
	<path class="st0" d="M561.8,224.3c0.1-0.1,0.1-0.1,0.3-0.3C562,224.1,561.8,224.1,561.8,224.3z"/>
	<path class="st0" d="M563.2,223.9c0.1-0.1,0.1-0.1,0.3-0.3C563.4,223.6,563.2,223.6,563.2,223.9z"/>
	<path class="st0" d="M564.6,223.4c0.1-0.1,0.1-0.1,0.3-0.3C564.8,223.1,564.6,223.3,564.6,223.4z"/>
	<path class="st0" d="M600.7,224.6c0.1-0.1,0.1-0.1,0.3-0.3C601.1,224.5,601,224.5,600.7,224.6z"/>
	<path class="st0" d="M565.3,223.1c0.1,0,0.1-0.1,0.3-0.1C565.6,222.9,565.5,222.9,565.3,223.1z"/>
	<path class="st0" d="M579.1,226.4C578.9,226.6,578.9,226.6,579.1,226.4C578.9,226.6,578.9,226.6,579.1,226.4z"/>
	<path class="st0" d="M493.8,207.1C493.8,207.1,493.8,207,493.8,207.1C493.8,207,493.8,207,493.8,207.1z"/>
	<path class="st0" d="M464.2,189.4c0,0-0.1,0-0.1-0.1C464.1,189.4,464.1,189.4,464.2,189.4z"/>
	<path class="st0" d="M461.1,187.5C461.1,187.5,461,187.5,461.1,187.5C461,187.5,461.1,187.5,461.1,187.5z"/>
	<path class="st0" d="M609.1,219.7L609.1,219.7L609.1,219.7z"/>
	<path class="st0" d="M495,250.4c0,0,0.1,0,0.1,0.1C495.1,250.4,495,250.4,495,250.4z"/>
	<path class="st0" d="M495.4,250.7c0,0,0.1,0,0.1,0.1C495.7,250.8,495.4,250.7,495.4,250.7z"/>
	<path class="st0" d="M457.9,185.8C457.9,185.8,457.8,185.7,457.9,185.8C457.8,185.7,457.9,185.8,457.9,185.8z"/>
	<path class="st0" d="M565.9,222.8C566.1,222.8,566.1,222.8,565.9,222.8C566.1,222.8,566.1,222.8,565.9,222.8z"/>
	<path class="st0" d="M500,253C500.1,253,500.1,253,500,253C500.1,253,500.1,253,500,253z"/>
	<path class="st0" d="M420.7,181.8C420.9,181.8,420.9,181.6,420.7,181.8C420.9,181.6,420.9,181.8,420.7,181.8z"/>
	<path class="st0" d="M556.6,226.1C556.6,226,556.9,226,556.6,226.1C556.9,226,556.6,226,556.6,226.1z"/>
	<path class="st0" d="M447,179.1c0,0-0.1,0-0.1-0.1C446.8,179.1,446.8,179.1,447,179.1z"/>
	<path class="st0" d="M514,260c0,0,0.1,0,0.1,0.1C514,260,514,260,514,260z"/>
	<path class="st0" d="M514.7,260.2c0,0,0.1,0,0.1,0.1C514.8,260.3,514.7,260.2,514.7,260.2z"/>
	<path class="st0" d="M530.3,261C530.5,261,530.5,260.8,530.3,261C530.5,260.8,530.5,261,530.3,261z"/>
	<path class="st0" d="M517.9,262C517.9,262,518.1,262,517.9,262C518.1,262,517.9,262,517.9,262z"/>
	<path class="st0" d="M468.1,198.6c-0.3-0.1-0.7-0.5-0.9-0.6C467.4,198.1,467.7,198.4,468.1,198.6z"/>
	<path class="st0" d="M478.9,205c-0.3-0.1-0.7-0.5-0.9-0.6C478.2,204.6,478.7,204.8,478.9,205z"/>
	<path class="st0" d="M502.3,216.4c-0.3-0.1-0.7-0.1-1-0.3C501.6,216.2,501.9,216.2,502.3,216.4z"/>
	<path class="st0" d="M486.8,209.7c-0.3-0.1-0.6-0.1-0.9-0.3C486.2,209.5,486.5,209.7,486.8,209.7z"/>
	<path class="st0" d="M566.2,219c0.3-0.1,0.6-0.3,0.9-0.5C566.8,218.6,566.4,218.9,566.2,219z"/>
	<path class="st0" d="M523.9,239.7c0.1-0.1,0.1-0.3,0.3-0.6C524,239.2,524,239.5,523.9,239.7z"/>
	<path class="st0" d="M445.5,189.7c0.1,0.1,0.3,0.5,0.3,0.6C446,190.2,445.7,190,445.5,189.7z"/>
	<path class="st0" d="M538.6,228.9c0.1-0.1,0.6-0.3,0.7-0.5C539.2,228.5,538.9,228.8,538.6,228.9z"/>
	<path class="st0" d="M472.7,201.3c-0.1-0.1-0.6-0.1-0.7-0.3C472.4,201.2,472.5,201.3,472.7,201.3z"/>
	<path class="st0" d="M459.4,193.2c-0.1-0.1-0.3-0.1-0.6-0.3C459.1,193.1,459.2,193.2,459.4,193.2z"/>
	<path class="st0" d="M572.1,217c0.1-0.1,0.3-0.3,0.6-0.5C572.2,216.7,572.1,216.9,572.1,217z"/>
	<path class="st0" d="M562.9,220.2c0.1-0.1,0.3-0.3,0.6-0.5C563.2,219.9,563,220,562.9,220.2z"/>
	<path class="st0" d="M557.5,222.1c0.1-0.1,0.3-0.3,0.6-0.5C557.9,221.9,557.8,222,557.5,222.1z"/>
	<path class="st0" d="M452.7,189.5c-0.1-0.1-0.3-0.3-0.3-0.5C452.5,189.3,452.5,189.4,452.7,189.5z"/>
	<path class="st0" d="M461.7,194.7c-0.1,0-0.3-0.1-0.6-0.1C461.4,194.6,461.6,194.6,461.7,194.7z"/>
	<path class="st0" d="M454.1,190c-0.1-0.1-0.1-0.3-0.3-0.3C453.8,189.9,454.1,190,454.1,190z"/>
	<path class="st0" d="M486,209c-0.1,0-0.1-0.1-0.3-0.1C485.5,209,485.7,209,486,209z"/>
	<path class="st0" d="M445.5,185.2c-0.1,0-0.1-0.1-0.3-0.1C445.4,185,445.4,185,445.5,185.2z"/>
	<path class="st0" d="M523.9,250.9c0-0.1-0.1-0.1-0.1-0.3C523.8,250.8,523.9,250.9,523.9,250.9z"/>
	<path class="st0" d="M481.1,206.2c-0.1,0-0.1-0.1-0.3-0.1C480.8,206,481.1,206.2,481.1,206.2z"/>
	<path class="st0" d="M577,215.1c0.1,0,0.1-0.1,0.3-0.1C577.3,215,577.3,215,577,215.1z"/>
	<path class="st0" d="M457.6,192.3c-0.1-0.1-0.1-0.1-0.1-0.3C457.5,192.1,457.6,192.2,457.6,192.3z"/>
	<path class="st0" d="M500.4,215.9h-0.1c0,0,0-0.1,0.1-0.1C500.3,215.7,500.3,215.9,500.4,215.9z"/>
	<path class="st0" d="M577.6,214.9C577.6,214.9,577.7,214.9,577.6,214.9C577.7,214.9,577.6,214.9,577.6,214.9z"/>
	<path class="st0" d="M534.4,230.4c0,0,0.1,0,0.1,0.1C534.6,230.5,534.6,230.5,534.4,230.4z"/>
	<path class="st0" d="M464.2,196.1h-0.1v-0.1C464.1,196.1,464.1,196.1,464.2,196.1z"/>
	<path class="st0" d="M578.5,214.6C578.5,214.6,578.6,214.6,578.5,214.6C578.6,214.6,578.5,214.6,578.5,214.6z"/>
	<path class="st0" d="M523.9,240C523.9,239.8,523.9,239.8,523.9,240C523.9,239.8,523.9,239.8,523.9,240z"/>
	<path class="st0" d="M552.4,223.9L552.4,223.9L552.4,223.9z"/>
	<path class="st0" d="M456,191.2C456,191.2,455.9,191,456,191.2C455.9,191,456,191.2,456,191.2z"/>
	<path class="st0" d="M544.8,226.8C544.8,226.6,544.8,226.6,544.8,226.8C544.8,226.6,544.8,226.6,544.8,226.8
		C544.8,226.6,544.8,226.8,544.8,226.8z"/>
	<path class="st0" d="M549.1,225L549.1,225L549.1,225z"/>
	<path class="st0" d="M495.9,214.6h-0.1C495.7,214.4,495.7,214.4,495.9,214.6z"/>
	<path class="st0" d="M493.7,213.6c0,0-0.1,0-0.1-0.1C493.5,213.6,493.7,213.6,493.7,213.6z"/>
	<path class="st0" d="M465.7,197.1C465.7,197.1,465.5,197.1,465.7,197.1C465.5,197.1,465.7,197.1,465.7,197.1z"/>
	<path class="st0" d="M496.9,232.3c2.2,0.9,4.4,1.6,5.8,3.3c0.3,0.3,0.6,0.8,0.9,1.1c0,0.1,0.1,0.5,0.1,0.6
		c-0.1,2.3-1.5,4.1-4.4,5.1c-0.1,0-0.6,0.1-0.7,0.1c-1.6,0.1-3.1,0.1-4.7,0.3c-0.7,0-1.3-0.1-1.9-0.3c-2.5-0.3-5-0.9-7.3-1.6
		c-2.6-0.9-4.8-2.3-6-4.4c-0.3-1.1,0.3-2.1,0.7-3.3c0,0,0,0,0-0.1l0,0c0.1-0.1,0.3-0.3,0.6-0.5c0.6-0.8,1.3-1.4,2.3-1.6
		c0.9-0.3,1.9-0.5,2.8-0.6c0.1,0,0.6,0,0.7,0c0.9,0,1.9,0,2.8,0c0.3,0,0.9,0.1,1.3,0.1c1.3,0.1,2.3,0.5,3.5,0.8
		c0.3,0.1,0.7,0.3,1,0.3c0.3,0,0.9,0,1.3,0.1C496.6,231.9,496.8,232,496.9,232.3z M494.1,240.2c2.6,0.3,5.5,0.5,8.2-0.6
		c-0.9-2-3.1-3-5.1-4.1c-0.3,0.9-0.7,1.9-1,2.6C495.4,238.8,494.6,239.4,494.1,240.2z M486,238c-0.6-0.9,0-1.9,0.6-2.6
		c0.6-0.8,1-1.5,1.6-2.4c-3.8-0.3-6.3,0-7.6,0.6C481.3,235.9,483.6,236.9,486,238z M495.3,237.5c-0.6-2.3-4.8-3.5-7.3-2.6
		c-0.6,0.1-0.3,0.5-0.1,0.8C488.7,237.5,493,238.8,495.3,237.5z"/>
</g>
</svg>
