<?xml version="1.0" encoding="UTF-8"?>
<svg id="Layer_1" xmlns="http://www.w3.org/2000/svg" version="1.1" viewBox="0 0 1537 450">
  <!-- Generator: Adobe Illustrator 29.1.0, SVG Export Plug-In . SVG Version: 2.1.0 Build 142)  -->
  <defs>
    <style>
      .st0 {
        fill: #5869bb;
      }
    </style>
  </defs>
  <path class="st0" d="M-52.1,797.9c.4,1.4.8,2.9,1.2,4.3-2.4-.6-2.6-1.3-1.2-4.3Z"/>
  <g>
    <path class="st0" d="M1466,297.9c6.1,4.9,11.8,10.2,16.1,16.9,13.6,21.1,12.1,55-4.5,72.9-8,8.7-17.8,14.4-28.7,18.4-10.4,3.9-21.2,5.9-32.3,5.9-33,.1-66,0-99,.2-6,0-12.3-4.9-11.9-11.9.4-6.3,0-12.7,0-19,0-8.2,4-12.3,12.3-12.3h97.5c6.2,0,12.3-.9,18.1-2.9,13.1-4.4,18.6-21.9,9.9-32.5-3.9-4.8-8.7-8.4-15.4-10.1-6.7-1.6-13.3-2.3-20.1-2.3h-90c-3.5,0-6.6-.5-9.1-3.1-1.9-2-3.2-4.2-3.2-7.1,0-7.2,0-14.3,0-21.5,0-5.5,4.2-9.7,9.7-10.2,1.7-.2,3.3-.1,5-.1,28,0,56,0,84-.1,4.6,0,9.3-.4,13.9-1.2,5.9-1.1,11.2-3.8,14.4-9,5-8.1,6-17,1.1-25.4-3.2-5.4-8.2-9.5-14.9-10.4-3.9-.5-7.9-.9-11.9-1-29.2-.1-58.3,0-87.5-.1-2,0-4,0-5.9-.4-4.5-1.1-7.7-5.1-7.8-9.8-.2-7.5-.2-15,0-22.5,0-5.6,4.2-9.6,9.8-10.2.7-.1,1.3-.1,2-.1,31.3,0,62.6-.2,94,.2,16.2.2,31.7,4.2,44.9,14.3,11.5,8.8,19.8,19.8,22.7,34.2,3.1,15.2,2.6,30.2-4.4,44.3-2.4,4.9-6,9.2-9.1,13.7-1.2.9-1.3,1.6.2,2.2h0Z"/>
    <path class="st0" d="M1155.7,253.1c-4.2,9.8-8.5,19.5-12.6,29.3-8.8,21-17.7,42.1-26.4,63.2-2.3,5.5-5.9,8.1-11.9,7.9-7.3-.2-14.7-.1-22-.1h-.5c-9.9-.1-14.3-6.7-10.5-16,2.9-7.3,6.1-14.4,9.1-21.6,17-39.8,34-79.6,50.9-119.5,2.1-5.1,5.7-7,10.7-7,8.7-.1,17.3.1,26-.1,6.2-.2,10,2.5,12.3,8.1,11,26.2,22.2,52.4,33.3,78.7,16.9,39.7,33.7,79.4,50.6,119.1,1.6,3.8,2.6,7.5.3,11.4-2,3.4-4.8,5.5-8.8,5.7-1.5.1-3,.1-4.5.1-64,0-128-.2-192,.2-10.9.1-17.7-8-12.1-18.3,2.9-5.2,5-10.9,7.1-16.5,2.3-6.1,6.3-8.7,12.9-8.7,43.7.1,87.3.1,131,.1h6.5c-2-4.9-3.6-9-5.3-13.1-13.9-33.2-27.7-66.4-41.6-99.5-.4-1.1-1-2.1-1.5-3.1,0-.2-.2-.5-.3-.7-.2,0-.4.2-.7.4Z"/>
    <path class="st0" d="M471.1,334.7v-130.8c0-1.7,0-3.3.1-5,.5-5.4,4.3-9.4,9.7-9.6,8-.3,16-.3,24,0,5.8.2,9.7,4.6,10,10.4.1,1.3,0,2.7,0,4v193.5c0,1.7.1,3.3-.1,5-.5,4.9-4.7,9-9.7,9.1-9.3.2-18.7.1-28,0-4.1,0-6.7-2.5-9-5.6-6.9-9.4-13.7-18.9-20.6-28.3-41.1-56.4-82.3-112.8-123.4-169.2-.9-1.2-1.8-2.4-2.5-3.8-3.4-6.9.6-14.8,8.2-15.2,9.5-.5,19-.2,28.5-.1,3.9,0,6.3,2.5,8.4,5.5,10.1,13.9,20.3,27.7,30.5,41.5,23.6,32.1,47.2,64.2,70.8,96.2.6.8,1.3,1.5,1.9,2.3.5.2.9.1,1.2.1h0Z"/>
    <path class="st0" d="M167.9,391.1c0-3.7-.1-7.3,0-11,.2-5.4,2.6-8.7,7.7-10.4,2.4-.8,4.9-1.2,7.2-2,22.6-7.6,36.1-23.5,42.1-46.2,2.3-8.8,2.6-17.8,2.1-26.8-1.4-22.2-10.5-40.3-29.1-53.1-6.7-4.6-14.2-7.3-22-9.1-1.5-.4-3.3-.9-4.1-1.9-1.6-2-3.5-4.5-3.6-6.8-.4-8.5-.5-17-.1-25.5.3-5.9,6.1-9.9,12.2-8.8,14.9,2.6,29,7.6,41.5,16.2,26.5,18.1,42.8,43.1,47.7,74.8,4.5,29.1,1.1,57.3-15.2,82.6-17.2,26.8-41.3,43.9-72.9,49.6-7.9,1.4-13.3-3.1-13.5-11.2-.1-3.4,0-6.9,0-10.4h0Z"/>
    <path class="st0" d="M149.1,391.4c0,3.5.1,7,0,10.5-.2,7.9-5.4,12.3-13.2,10.9-19.7-3.4-37-11.7-52-24.9-18.6-16.4-30.9-36.6-35.5-61-5.8-31-2.3-60.8,14.7-88,17-27.1,41.6-43.5,73-49.4,5.8-1.1,13.2,2,13,10.5-.2,7,0,14,0,21-.1,7.1-2.5,10.3-9.5,12-7.4,1.7-14.3,4.4-20.5,8.8-14.7,10.3-24.1,24.2-27.5,41.9-3.2,16.7-2.5,33.2,4.4,49,8,18.5,21.8,30.7,41.5,36,1.3.3,2.6.6,3.9,1,5.2,1.6,7.7,4.8,7.8,10.3,0,3.7-.1,7.5-.1,11.4Z"/>
    <path class="st0" d="M876,191.2c3.5-1.7,7.2-2.2,11.1-2.1,5.8.2,11.7.3,17.5,0,6.2-.3,11.7,5.2,11.6,11.6-.3,20.7,0,41.3,0,62v134c0,1.7,0,3.3,0,5-.4,5.3-4.5,9.4-9.8,9.5-8,.2-16,.2-24,0-6.3-.2-9.1-3-9.8-9.2-.2-1.8-.2-3.7-.2-5.5,0-64,0-128,0-192,0-4.4.4-8.6,2.8-12.4.4-.3.7-.6,1.1-.9h0Z"/>
    <path class="st0" d="M661.9,232.4h-72c-9,0-12.8-3.8-12.9-12.6,0-6.2,0-12.3,0-18.5,0-7.9,4.2-12,12.1-12h144c2.1,0,4.4,0,6.4.7,3.9,1.4,6.5,4.2,6.6,8.5.2,8.2.3,16.3,0,24.5-.2,5.7-4.3,9.4-10.2,9.4-12.7.1-25.3,0-38,0h-36,0Z"/>
    <path class="st0" d="M662,369h69.5c1.8,0,3.7,0,5.5.1,5,.4,8.9,3.9,9.1,9,.3,8.3.3,16.7,0,25-.2,4.9-4.2,8.5-9.1,9.1-1.5.2-3,.1-4.5.1h-144.9c-5.8-.4-10.2-4.4-10.4-10.1-.3-7.7-.3-15.3,0-23,.2-5.9,4.7-9.9,10.9-10,10.5-.1,21,0,31.5,0,14.1-.2,28.2-.2,42.4-.2h0Z"/>
    <path class="st0" d="M654.9,322.3h-63.5c-1.5,0-3,.1-4.5-.1-5.4-.5-9.8-4.7-9.9-10.1-.2-7.7-.2-15.3,0-23,0-5.7,4-9.5,9.7-10.2,2.3-.3,4.7-.3,7-.4h122.4c2.7,0,5.3.1,8,.5,5.2.7,8.8,4.4,8.9,9.8.2,7.7.2,15.3,0,23,0,5.8-4.3,9.9-10.1,10.4-1.5.1-3,.1-4.5.1h-63.5Z"/>
    <path class="st0" d="M980,411.4h-33.5c-7.8,0-11.5-3.8-11.6-11.7,0-6.2,0-12.3,0-18.5-.2-8.3,3.8-12.9,12.7-12.7,6.8.2,13.7,0,20.5,0h43.5c1.5,0,3-.1,4.5.1,5.7.7,9.6,4.4,9.8,10.2.3,7.5.2,15,0,22.5-.2,5.8-5.4,10.3-10.8,10.2-11.8-.3-23.5-.1-35.1-.1h0Z"/>
    <path class="st0" d="M320.6,372.9c0-8.7-.1-17.3,0-26,.1-8.2,3.7-11.8,11.9-11.9,6.8-.1,13.7-.1,20.5,0,7.2.1,11.1,3.9,11.1,11.2.1,18,.1,36,0,53.9,0,7.2-4.1,11.1-11.2,11.2-7,0-14,0-21,0-7.4-.1-11.3-3.9-11.4-11.5,0-8.9.1-17.9.1-26.9h0Z"/>
    <path class="st0" d="M1466,297.9c-1.5-.6-1.4-1.3,0-2,0,.7,0,1.3,0,2Z"/>
    <path class="st0" d="M1155.7,253.1c.3-.2.6-.4.9-.6,0,.2.2.5.3.7-.5,0-.8-.1-1.2-.1h0Z"/>
    <path class="st0" d="M876,191.2c-.3.3-.7.6-1,.9.3-.3.6-.6,1-.9Z"/>
  </g>
  <path class="st0" d="M-958.5,21.1c.3-.5.5-1,.8-1.5-.2.5-.5,1-.8,1.5Z"/>
</svg>