<svg version="1.2" xmlns="http://www.w3.org/2000/svg" viewBox="0 0 1537 574" width="1537" height="574">
	<title>onelab_c-svg</title>
	<style>
		.s0 { fill: #5869bb } 
	</style>
	<path class="s0" d="m1460.2 250.5c6.1 4.9 11.8 10.2 16.1 16.9 13.6 21.1 12.1 55-4.5 72.9-8 8.7-17.8 14.4-28.7 18.4-10.4 3.9-21.2 5.9-32.3 5.9-33 0.1-66 0-99 0.2-6 0-12.3-4.9-11.9-11.9 0.4-6.3 0-12.7 0.1-19 0.1-8.2 4-12.3 12.3-12.3q48.7 0 97.5 0c6.2 0 12.3-0.9 18.1-2.9 13.1-4.4 18.6-21.9 9.9-32.5-3.9-4.8-8.7-8.4-15.4-10.1-6.7-1.6-13.3-2.3-20.1-2.3q-45 0-90 0c-3.5 0-6.6-0.5-9.1-3.1-1.9-2-3.2-4.2-3.2-7.1 0-7.2-0.1-14.3 0-21.5 0.1-5.5 4.2-9.7 9.7-10.2 1.7-0.2 3.3-0.1 5-0.1 28 0 56 0 84-0.1 4.6 0 9.3-0.4 13.9-1.2 5.9-1.1 11.2-3.8 14.4-9 5-8.1 6-17 1.1-25.4-3.2-5.4-8.2-9.5-14.9-10.4-3.9-0.5-7.9-0.9-11.9-1-29.2-0.1-58.3 0-87.5-0.1-2 0-4 0-5.9-0.4-4.5-1.1-7.7-5.1-7.8-9.8q-0.3-11.3 0-22.5c0.1-5.6 4.2-9.6 9.8-10.2 0.7-0.1 1.3-0.1 2-0.1 31.3 0 62.6-0.2 94 0.2 16.2 0.2 31.7 4.2 44.9 14.3 11.5 8.8 19.8 19.8 22.7 34.2 3.1 15.2 2.6 30.2-4.4 44.3-2.4 4.9-6 9.2-9.1 13.7-1.2 0.9-1.3 1.6 0.2 2.2z"/>
	<path class="s0" d="m1149.9 205.7c-4.2 9.8-8.5 19.5-12.6 29.3-8.8 21-17.7 42.1-26.4 63.2-2.3 5.5-5.9 8.1-11.9 7.9-7.3-0.2-14.7-0.1-22-0.1-0.2 0-0.3 0-0.5 0-9.9-0.1-14.3-6.7-10.5-16 2.9-7.3 6.1-14.4 9.1-21.6 17-39.8 34-79.6 50.9-119.5 2.1-5.1 5.7-7 10.7-7 8.7-0.1 17.3 0.1 26-0.1 6.2-0.2 10 2.5 12.3 8.1 11 26.2 22.2 52.4 33.3 78.7 16.9 39.7 33.7 79.4 50.6 119.1 1.6 3.8 2.6 7.5 0.3 11.4-2 3.4-4.8 5.5-8.8 5.7-1.5 0.1-3 0.1-4.5 0.1-64 0-128-0.2-192 0.2-10.9 0.1-17.7-8-12.1-18.3 2.9-5.2 5-10.9 7.1-16.5 2.3-6.1 6.3-8.7 12.9-8.7 43.7 0.1 87.3 0.1 131 0.1 1.9 0 3.9 0 6.5 0-2-4.9-3.6-9-5.3-13.1-13.9-33.2-27.7-66.4-41.6-99.5-0.4-1.1-1-2.1-1.5-3.1-0.1-0.2-0.2-0.5-0.3-0.7-0.2 0-0.4 0.2-0.7 0.4z"/>
	<path class="s0" d="m465.3 287.3c0-1.8 0-3.5 0-5.3 0-41.8 0-83.7 0-125.5 0-1.7 0-3.3 0.1-5 0.5-5.4 4.3-9.4 9.7-9.6q12-0.4 24 0c5.8 0.2 9.7 4.6 10 10.4 0.1 1.3 0 2.7 0 4q0 96.7 0 193.5c0 1.7 0.1 3.3-0.1 5-0.5 4.9-4.7 9-9.7 9.1-9.3 0.2-18.7 0.1-28 0-4.1 0-6.7-2.5-9-5.6-6.9-9.4-13.7-18.9-20.6-28.3-41.1-56.4-82.3-112.8-123.4-169.2-0.9-1.2-1.8-2.4-2.5-3.8-3.4-6.9 0.6-14.8 8.2-15.2 9.5-0.5 19-0.2 28.5-0.1 3.9 0 6.3 2.5 8.4 5.5 10.1 13.9 20.3 27.7 30.5 41.5 23.6 32.1 47.2 64.2 70.8 96.2 0.6 0.8 1.3 1.5 1.9 2.3 0.5 0.2 0.9 0.1 1.2 0.1z"/>
	<path class="s0" d="m162.1 343.7c0-3.7-0.1-7.3 0-11 0.2-5.4 2.6-8.7 7.7-10.4 2.4-0.8 4.9-1.2 7.2-2 22.6-7.6 36.1-23.5 42.1-46.2 2.3-8.8 2.6-17.8 2.1-26.8-1.4-22.2-10.5-40.3-29.1-53.1-6.7-4.6-14.2-7.3-22-9.1-1.5-0.4-3.3-0.9-4.1-1.9-1.6-2-3.5-4.5-3.6-6.8-0.4-8.5-0.5-17-0.1-25.5 0.3-5.9 6.1-9.9 12.2-8.8 14.9 2.6 29 7.6 41.5 16.2 26.5 18.1 42.8 43.1 47.7 74.8 4.5 29.1 1.1 57.3-15.2 82.6-17.2 26.8-41.3 43.9-72.9 49.6-7.9 1.4-13.3-3.1-13.5-11.2-0.1-3.4 0-6.9 0-10.4z"/>
	<path class="s0" d="m143.3 344c0 3.5 0.1 7 0 10.5-0.2 7.9-5.4 12.3-13.2 10.9-19.7-3.4-37-11.7-52-24.9-18.6-16.4-30.9-36.6-35.5-61-5.8-31-2.3-60.8 14.7-88 17-27.1 41.6-43.5 73-49.4 5.8-1.1 13.2 2 13 10.5-0.2 7 0 14 0 21-0.1 7.1-2.5 10.3-9.5 12-7.4 1.7-14.3 4.4-20.5 8.8-14.7 10.3-24.1 24.2-27.5 41.9-3.2 16.7-2.5 33.2 4.4 49 8 18.5 21.8 30.7 41.5 36 1.3 0.3 2.6 0.6 3.9 1 5.2 1.6 7.7 4.8 7.8 10.3 0 3.7-0.1 7.5-0.1 11.4z"/>
	<path class="s0" d="m870.2 143.8c3.5-1.7 7.2-2.2 11.1-2.1 5.8 0.2 11.7 0.3 17.5 0 6.2-0.3 11.7 5.2 11.6 11.6-0.3 20.7-0.1 41.3-0.1 62 0 44.7 0 89.3 0 134 0 1.7 0.1 3.3-0.1 5-0.4 5.3-4.5 9.4-9.8 9.5q-12 0.3-24 0c-6.3-0.2-9.1-3-9.8-9.2-0.2-1.8-0.2-3.7-0.2-5.5 0-64 0-128-0.1-192 0-4.4 0.4-8.6 2.8-12.4 0.4-0.3 0.7-0.6 1.1-0.9z"/>
	<path class="s0" d="m656.1 185q-36 0-72 0c-9 0-12.8-3.8-12.9-12.6 0-6.2-0.1-12.3 0-18.5 0.1-7.9 4.2-12 12.1-12 27.8 0 55.7 0 83.5 0 20.2 0 40.3 0 60.5 0 2.1 0 4.4 0 6.4 0.7 3.9 1.4 6.5 4.2 6.6 8.5 0.2 8.2 0.3 16.3 0 24.5-0.2 5.7-4.3 9.4-10.2 9.4-12.7 0.1-25.3 0-38 0-12.1 0-24 0-36 0z"/>
	<path class="s0" d="m656.2 321.6c23.2 0 46.3 0 69.5 0 1.8 0 3.7 0 5.5 0.1 5 0.4 8.9 3.9 9.1 9 0.3 8.3 0.3 16.7 0 25-0.2 4.9-4.2 8.5-9.1 9.1-1.5 0.2-3 0.1-4.5 0.1-47.1 0-94.3 0-141.4 0-1.2 0-2.3 0-3.5 0-5.8-0.4-10.2-4.4-10.4-10.1-0.3-7.7-0.3-15.3 0-23 0.2-5.9 4.7-9.9 10.9-10 10.5-0.1 21 0 31.5 0 14.1-0.2 28.2-0.2 42.4-0.2z"/>
	<path class="s0" d="m649.1 274.9c-21.2 0-42.3 0-63.5 0-1.5 0-3 0.1-4.5-0.1-5.4-0.5-9.8-4.7-9.9-10.1-0.2-7.7-0.2-15.3 0-23 0.1-5.7 4-9.5 9.7-10.2 2.3-0.3 4.7-0.3 7-0.4q61.2 0 122.4 0c2.7 0 5.3 0.1 8 0.5 5.2 0.7 8.8 4.4 8.9 9.8 0.2 7.7 0.2 15.3 0 23-0.1 5.8-4.3 9.9-10.1 10.4-1.5 0.1-3 0.1-4.5 0.1-21.1 0-42.3 0-63.5 0z"/>
	<path class="s0" d="m974.2 364c-11.2 0-22.3 0-33.5 0-7.8 0-11.5-3.8-11.6-11.7-0.1-6.2 0.1-12.3 0-18.5-0.2-8.3 3.8-12.9 12.7-12.7 6.8 0.2 13.7 0 20.5 0q21.7 0 43.5 0c1.5 0 3-0.1 4.5 0.1 5.7 0.7 9.6 4.4 9.8 10.2 0.3 7.5 0.2 15 0 22.5-0.2 5.8-5.4 10.3-10.8 10.2-11.8-0.3-23.5-0.1-35.1-0.1z"/>
	<path class="s0" d="m314.8 325.5c0-8.7-0.1-17.3 0-26 0.1-8.2 3.7-11.8 11.9-11.9 6.8-0.1 13.7-0.1 20.5 0 7.2 0.1 11.1 3.9 11.1 11.2 0.1 18 0.1 36 0 53.9 0 7.2-4.1 11.1-11.2 11.2q-10.5 0.1-21 0c-7.4-0.1-11.3-3.9-11.4-11.5 0-8.9 0.1-17.9 0.1-26.9z"/>
	<path fill-rule="evenodd" class="s0" d="m1479.1 494q1.3 1.8 2.7 3.6c4.9 7.5 2 17-6.3 20.2-2.3 0.9-4.8 1.6-7.2 1.7-7.2 0.2-14.3 0.2-21.5 0.1-3.3 0-4.3-0.9-4.3-4.2 0-14.7 0.1-29.3 0.1-44 0-0.3 0.2-0.6 0.5-1.2 0.4-0.1 1-0.5 1.6-0.5 7.7 0 15.3-0.3 23 0.1 9.7 0.5 15.6 8.1 13.7 17.4-0.5 2.2-1.4 4.2-2.3 6.8zm-26.6 15.9c5.8 0 11.1 0.1 16.4 0 3.2-0.1 5-1.8 5.3-4.3 0.3-2.7-1.2-5-4.4-5.7-5.7-1.3-11.4-0.6-17.3-0.6 0 3.7 0 6.8 0 10.6zm0-19.6c5.3-0.5 10-0.6 14.7-1.4 4.1-0.7 4.1-0.9 4-4.6 0-3.3-0.8-4.6-4.3-4.8-4.7-0.3-9.5-0.1-14.4-0.1 0 3.5 0 6.6 0 10.9z"/>
	<path class="s0" d="m289.4 490.8c-0.1 7.9-0.1 15.8-0.2 23.7 0 4-0.5 4.7-3.1 5.2-4.2 0.7-5.8-0.1-7.1-3.8q0-21 0-42c0.3-1.8 0.3-4 2.8-4 3 0 6.4-1.1 8.7 2.1 3.4 4.7 7 9.3 10.5 14 0.8 1 1.7 2 2.8 3.4 1.3-1.7 2.4-3.1 3.5-4.5 3.1-4.1 6.1-8.3 9.1-12.5 1.1-1.6 2.4-2.5 4.5-2.6 6.6-0.3 7 0 7 6.7 0 12.6 0 25.3 0 37.9 0 4.8-3.4 7-8 5.1-1.9-0.8-2-2.4-2-4.2q0-9.7 0-19.5c0-2-0.1-4-0.2-6 0-0.6 0-1.1 0-2.4-0.8 1.1-1.2 1.6-1.5 2-3 3.7-6 7.5-9 11.1-1 1.2-2.2 2.3-3.7 3.9-4.4-5.2-8.4-9.9-12.4-14.7-0.5-0.6-1.1-1.1-2.2-2.3 0.3 1.9 0.4 2.6 0.5 3.4z"/>
	<path class="s0" d="m1049.4 489.4c4.1-5.6 8.2-10.4 11.5-15.7 2.5-4 5.9-4.2 9.9-3.9 1.9 0.1 2.6 1.2 2.7 2.9 0 2.2 0 4.3 0 6.5 0 11.8 0 23.7 0 35.5 0 4.4-0.9 5.2-5.3 5-3.4-0.1-4.1-0.6-4.3-4.1-0.2-6.7-0.2-13.3-0.2-20 0-2.1 0-4.3 0-7.7-5.8 5.2-8.8 11.5-14.2 16.4-5.4-4.6-8.5-10.8-13.8-16-0.3 1.6-0.6 2.6-0.6 3.6q0 10.5 0 21c0 6.4-0.5 6.9-6.8 6.7-0.7 0-1.3-0.1-2.6-0.2-0.1-1.6-0.4-3.4-0.4-5.1 0-13-0.1-26 0-39 0-1.9-0.8-4.2 1.6-5.3 2.3-1.1 7.8-0.2 9.2 1.6 3.8 4.9 7.5 9.8 11.2 14.7 0.2 0.9 0.9 1.7 2.1 3.1z"/>
	<path class="s0" d="m1303.8 500.5c0-1.8 0-3.6 0-5.3 0-7.2-0.1-14.3 0-21.5 0-3.7 0.5-3.9 4.7-3.9 4.3 0 4.8 0.3 4.9 3.8q0.1 21 0 42c0 3.5-0.7 4-4.1 4.2q-0.7 0-1.5 0c-1.3 0-2.7 0-3.7 0-7.8-10.7-15.4-21.1-23.7-32.5-0.3 2.1-0.5 3.1-0.5 4.2 0 7.2 0 14.3 0 21.5 0 6.5-0.7 7.1-7.3 6.7-0.6 0-1.3-0.2-2.2-0.3-0.1-2-0.3-3.7-0.4-5.5 0-12.8 0-25.7 0-38.5 0-1.9-0.8-4.2 1.6-5.3 2.3-1.1 7.8-0.2 9.2 1.6 2.8 3.7 5.6 7.5 8.3 11.2 3.7 5 7.3 9.9 11 14.9q1.2 1.5 2.4 3c0.5 0 0.9-0.1 1.3-0.3z"/>
	<path class="s0" d="m629.7 500.7c0-5.1 0-10.2 0.1-15.3 0-4.9 0.1-9.9 0.1-14.6 1-0.5 1.5-0.9 1.9-0.9 7.4-0.6 7.6-0.5 7.6 7 0 12.2 0 24.3 0 36.5 0 6.2-0.2 6.4-6.5 6.4-1 0-2 0-2.9 0-7.8-10.6-15.4-21-23.6-32.2-0.3 1.7-0.7 2.7-0.7 3.7 0 7.2 0 14.3 0 21.5 0 6.7-0.6 7.2-7.1 6.9-0.6 0-1.3-0.2-2.4-0.3-0.1-1.6-0.4-3.2-0.4-4.8 0-13.2 0-26.3 0-39.5 0-1.9-0.8-4.7 1.9-5 2.9-0.4 6.4-1.6 8.8 1.5 1.7 2.2 3.4 4.5 5.1 6.8 4.7 6.4 9.5 12.9 14.2 19.3 0.8 1.1 1.8 2.2 2.7 3.3q0.7-0.2 1.2-0.3z"/>
	<path fill-rule="evenodd" class="s0" d="m782.2 494.6c0-6.8-0.1-13.6 0-20.5 0-3.8 0.5-4.3 4.3-4.3 5.5-0.1 11 0.1 16.5 0 13.7-0.4 24.3 11.2 23.8 25.8-0.2 6.6-2.4 12.6-7.3 17.5-4.4 4.3-9.7 6.4-15.7 6.6-5.6 0.2-11.3 0.1-17 0-4-0.1-4.6-0.7-4.6-4.7-0.1-6.8 0-13.6 0-20.4zm10.1 15.3c4.6 0 8.5 0.1 12.5 0 4.2-0.2 7.2-2.4 9.4-5.8 3.4-5.5 3.7-11.3 0.9-17.2-1.5-3.1-3.8-5.6-7.1-6.7-5.1-1.6-10.4-1.1-15.7-0.8 0 10.3 0 20.1 0 30.5z"/>
	<path fill-rule="evenodd" class="s0" d="m559.4 469.8c14.6 0 24.8 10.5 25.1 25.2 0.3 13.9-10.2 25.9-25.2 25.7-15-0.2-25.4-10.5-25.3-25.9 0.2-14.5 10.9-25 25.4-25zm-15.4 25.3c0 9.4 6 15.7 15 15.8 9.2 0.1 15.8-6.4 15.8-15.6 0-9.3-6.4-15.8-15.7-15.7-9 0-15 6.2-15.1 15.5z"/>
	<path fill-rule="evenodd" class="s0" d="m1258.5 495.1c0.5 14.6-10.8 25.7-24.8 25.7-15 0-25.4-10.1-25.6-25.2-0.1-15 10.5-25.7 25.3-25.7 14.7-0.1 25.1 10.4 25.1 25.2zm-25.4-15.5c-9.1 0.1-15.1 6.3-15.1 15.7 0 9.6 6.2 15.8 15.6 15.7 8.9-0.1 15.3-6.7 15.2-15.7 0.1-9.5-6.3-15.8-15.7-15.7z"/>
	<path class="s0" d="m922.1 521c-3.8-1-7.9-1.5-11.5-3-5.1-2.1-7.9-6.4-8.7-11.9-0.4-3.2 0.2-3.9 3.3-4.1 4.6-0.4 4.9-0.2 7 4.2 1.2 2.5 3.3 4 5.8 4.3 3.6 0.4 7.3 0.4 10.9 0.1 2.4-0.2 4.5-1.6 4.7-4.4 0.2-2.7-1.8-3.8-3.9-4.4-3.3-1-6.7-1.8-10.1-2.9-3.3-1.1-6.7-2.1-9.8-3.6-10.4-5.2-7.7-17.7-0.9-22.2 7.3-4.9 21.6-4.3 28.3 1.4 3.6 3.1 5.6 6.9 4.7 12.5-2.3 0.1-4.5 0.4-6.8 0.2-0.9-0.1-2.3-1.1-2.5-1.9-1.5-5.1-5.8-5.6-10-5.9-2.2-0.2-4.7 0.3-6.8 1.1-1.3 0.5-2.4 2.2-2.8 3.6-0.6 2 1.1 3 2.7 3.5 2.7 0.9 5.4 1.6 8.1 2.4 3.7 1.1 7.5 1.9 10.9 3.4 5.4 2.3 9 6.3 8.9 12.6 0 5.9-3.7 10.8-9.9 13-2.8 1-5.8 1.3-8.7 2-0.9 0-1.9 0-2.9 0z"/>
	<path class="s0" d="m388.4 479.6c-2.3-0.1-3.9-0.3-5.5-0.3-5.2-0.1-10.3-0.1-15.5-0.2-4.3-0.1-4.7-0.6-4.6-5.1 0.1-3.9 0.3-4.2 4.9-4.2 9.8 0 19.6 0 29.5 0 5.6 0 7.7 4 4.8 8.9-0.9 1.4-2 2.6-3.1 3.9-6.7 8.1-13.4 16.1-20.1 24.2-0.6 0.7-1.1 1.5-2.1 2.9 1.8 0.1 3 0.3 4.3 0.3 6 0 12-0.1 18 0.1 3.4 0.1 4 0.9 4 4.9 0 3.8-0.6 4.8-4 4.8-10.8 0.1-21.6 0.1-32.5 0-4 0-5.7-4.3-3.6-8.6 0.5-1 1.4-1.9 2.1-2.8q10.2-12.3 20.4-24.6c1-1.1 1.7-2.4 3-4.2z"/>
	<path fill-rule="evenodd" class="s0" d="m1116.8 506.8c-6.6 0-12.8 0-19.2 0-1.4 3.2-2.7 6.3-4.1 9.5-1.4 3.1-6.9 4.8-9.6 2.9-0.7-0.5-1.1-1.7-1.1-2.5 0.1-1.1 0.6-2.2 1.1-3.3 5.6-13.2 11.1-26.3 16.7-39.5 0.6-1.4 1.6-3.6 2.7-3.8 2.5-0.6 5.3-0.3 7.9 0 0.8 0.1 1.6 1.6 2 2.6 6 14.1 12 28.1 17.9 42.2 1.4 3.4 0.6 4.5-3.1 4.7-5.2 0.4-5.7 0.1-7.8-4.9-1-2.5-2.2-5.1-3.4-7.9zm-4.4-10.1c-1.5-4.5-2.8-8.4-5.5-12.7-1.9 4.8-3.4 8.5-5.1 12.7 3.7 0 6.8 0 10.6 0z"/>
	<path fill-rule="evenodd" class="s0" d="m423.5 506.9c-1.4 3.3-2.8 6.5-4.2 9.7-1.3 3-7.3 4.6-9.7 2.5-0.6-0.5-0.9-1.7-0.8-2.6 0-0.9 0.6-1.9 0.9-2.8 5.6-13.3 11.2-26.6 17-39.9 0.6-1.4 1.7-3.4 2.9-3.6 2.5-0.5 5.3-0.2 7.9 0.2 0.7 0.1 1.3 1.4 1.7 2.3 6 14.2 12.1 28.4 18 42.7 1.3 3.1 0.4 4.2-2.9 4.5-5.2 0.5-5.9 0-7.9-4.7-1.2-2.7-2.3-5.4-3.5-8.2-6.7-0.1-13-0.1-19.4-0.1zm4.1-10.2c4.1 0 7.2 0 11.1 0-1.8-4.3-3.4-8.1-5-11.9-0.4 0-0.7 0-1.1 0-1.6 3.8-3.1 7.5-5 11.9z"/>
	<path fill-rule="evenodd" class="s0" d="m1418.5 506.6c-5.8 0-11.3 0.1-16.8 0-2 0-3 0.9-3.6 2.7-1 2.6-2 5.3-3.2 7.8-1.2 2.6-7.4 3.8-9.7 1.9-1.5-1.3-0.8-2.7-0.2-4.1 2.1-5.1 4.2-10.1 6.4-15.2 3.6-8.6 7.5-17.1 10.8-25.8 1.3-3.5 3.4-4.3 6.8-4.3 3.2 0 5.1 0.7 6.5 4 5.4 13.3 11.1 26.4 16.7 39.6 0.5 1.1 1 2.2 1.1 3.3 0.1 0.7-0.1 1.7-0.6 2.3-1.8 2-8.4 0.9-9.6-1.6-1.6-3.3-2.9-6.7-4.6-10.6zm-9-21.7c-0.4-0.1-0.8-0.1-1.2-0.2-1.1 4-4 7.3-4.1 11.9 3.4 0 6.5 0 10.2 0-1.8-4.1-3.3-7.9-4.9-11.7z"/>
	<path fill-rule="evenodd" class="s0" d="m680.9 506.6c-1.5 3.6-2.8 6.7-4.1 9.7-1.4 3.2-6.9 4.8-9.7 2.8-1.8-1.3-1.1-2.9-0.4-4.5 2.1-5.1 4.3-10.1 6.4-15.2 3.6-8.6 7.4-17.1 10.8-25.8 1.3-3.3 3.2-4.1 6.4-4.1 3.1 0 5.3 0.5 6.6 3.8 5.6 13.7 11.5 27.3 17.2 41 1.7 4.2 0.9 5.1-3.8 5.3-3.3 0.2-5.3-0.8-6.4-4.1-1-3-1.9-6.9-4.1-8.3-2.4-1.5-6.4-0.7-9.7-0.8-3 0.2-5.9 0.2-9.2 0.2zm15.1-9.9c-1.9-4.6-3.5-8.4-5.5-13.3-2.1 5-3.7 8.9-5.5 13.3 3.7 0 6.8 0 11 0z"/>
	<path fill-rule="evenodd" class="s0" d="m168.3 503.6c0 5.6 0 10.5 0 15-1 0.5-1.3 0.8-1.6 0.8-7.6 0.7-8 0.4-8-7.2q0-18.8 0-37.5c0-4.9 0.2-5.1 5.1-5.1 6.2 0 12.3-0.1 18.5 0.1 12.5 0.4 19.7 10.6 16 22.4-1.9 6-6.1 9.4-12.1 10.5-2.9 0.6-5.9 0.7-8.9 0.8-2.6 0.3-5.3 0.2-9 0.2zm0.5-9.7c4.6 0 9 0.2 13.5 0 4.6-0.2 6.8-2.4 7-6.8 0.2-4.4-1.6-7-6.2-7.5-4.6-0.5-9.2-0.1-14.3-0.1 0 4.7 0 9.3 0 14.4z"/>
	<path class="s0" d="m758 499.9c0.1-8.3 0.1-16.6 0.2-24.9 0-4.6 4.3-7.1 8.4-4.7 0.9 0.5 1.4 2.2 1.5 3.3 0.2 4.3 0.1 8.6 0.1 13q0 13.9 0 27.9c0 5.3-0.3 5.4-5.7 5.6-3 0.1-4.8-1-6.6-3.4-9.6-13.4-19.3-26.7-29-40-0.5-0.7-1-1.3-1.5-2-2-3.1-1.4-4.5 2.2-4.9 4.1-0.5 7 0.7 9.6 4.4 6.1 8.9 12.8 17.4 19.3 26 0.3 0.5 0.7 1 1.4 2 0-1.2 0.1-1.8 0.1-2.3z"/>
	<path class="s0" d="m220.1 479.8c-4.9-0.2-9.5-0.5-14.2-0.7-0.4-0.9-0.9-1.6-0.9-2.4-0.7-6.2-0.1-6.9 6.1-6.9 10 0 19.9 0 29.9 0 4.7 0 6.7 3.1 4.9 7.5-0.4 0.9-1.6 1.7-2.6 1.8-2.1 0.4-4.3 0.3-6.5 0.4-2 0-3.9 0-6.5 0 0 2.1 0 3.8 0 5.4q0 14.7 0 29.4c0 4.9-3.4 7.1-7.8 5.1-0.9-0.4-1.7-1.6-1.9-2.6-0.3-1.4-0.2-3-0.2-4.5 0-9.1 0-18.3 0-27.4-0.1-1.6-0.3-3.3-0.3-5.1z"/>
	<path class="s0" d="m1152.2 479.3c-4.6 0-8.3 0.2-11.9-0.1-1.3-0.1-3.5-0.9-3.6-1.7-0.4-2.2 0-4.5 0.4-6.7 0.1-0.5 1.7-0.9 2.6-0.9 11.5-0.1 22.9 0 34.4-0.1 2.3 0 3.3 0.9 3.4 3.2 0.4 5.3-0.3 6.2-5.5 6.3-3.1 0-6.2 0-9.7 0-0.1 2-0.3 3.4-0.3 4.9 0 9.6 0 19.3 0 28.9 0 6.5-0.6 7-7.2 6.6-0.6 0-1.3-0.2-2.6-0.4 0-13.1 0-26.1 0-40z"/>
	<path class="s0" d="m488 479.2c0 3.8 0 7 0 10.1 0 8.1 0 16.3 0 24.4 0 5.6-0.5 6-5.9 5.9-1 0-2-0.1-3.7-0.3-0.7-13.1 0-26.3-0.4-40.1-4.1 0-7.7 0.2-11.3 0-3.9-0.2-6.2-5.2-3.8-8.3 0.7-0.8 2.3-1.2 3.5-1.2 6-0.1 12-0.1 18-0.1 5.2 0 10.3-0.1 15.5 0 3.3 0.1 3.6 0.5 3.7 4.4 0.1 4.2-0.4 4.9-3.7 5-3.9 0.3-7.7 0.2-11.9 0.2z"/>
	<path class="s0" d="m975.9 479.2c0 5.7 0 10.5 0 15.3 0 6.3 0 12.7 0 19 0 5.7-0.6 6.3-6.3 6.2-0.8 0-1.7-0.1-3.2-0.3-0.8-13 0-26-0.5-39.4-1.2-0.2-2.3-0.5-3.4-0.5-2.3-0.1-4.7 0-7-0.1-5-0.3-6.6-2.7-5.2-7.5 0.6-1.8 2-2.1 3.5-2.1q5.2 0 10.5 0c7.7 0 15.3 0 23 0 3.7 0 3.9 0.4 4.1 4 0.2 4.9-0.3 5.4-5.3 5.4-3.2 0.1-6.3 0-10.2 0z"/>
	<path class="s0" d="m96.4 495.3c0.4-11.4 5.9-20.9 17.1-24.6 4.1-1.4 5.7-1.1 6.4 1.1 1.2 3.6 0 7.1-3.1 8.2-6.2 2.2-9.2 6.7-10.2 13-1.1 7.5 2.8 14.3 9.9 17 3.2 1.3 5.1 6.3 2.9 8.9-0.8 0.9-3 1.2-4.4 0.9-6.5-1.4-11.2-5.5-14.8-11-2.8-4.2-3.5-8.9-3.8-13.5z"/>
	<path class="s0" d="m147.4 495.1c0 10.9-5 18.7-14.7 23.6-0.7 0.4-1.5 0.8-2.3 0.9-1.9 0.4-4.5 1.7-5.5-0.3-1-2-0.6-4.8-0.4-7.2 0.1-0.7 1.7-1.5 2.7-1.9 7.1-3 10.1-7.4 10.2-14.9 0.1-7.6-2.9-12.1-9.8-15.2-1.2-0.6-2.9-1.5-3.2-2.6-0.4-2-0.3-4.3 0.3-6.3 0.2-0.7 2.6-1.2 3.8-0.9 9.7 1.9 17.7 11 18.7 20.9 0.1 1.2 0.1 2.6 0.2 3.9z"/>
	<path class="s0" d="m1345 494.4c0-6.8-0.1-13.6 0-20.5 0-4 0.4-4.2 4.9-4.2 4.3 0 5 0.4 5 4.3 0.1 13.8 0 27.6 0 41.4 0 1.7 0.1 3.9-1.9 4.1-2.4 0.3-4.9 0-7.2-0.6-0.5-0.1-0.8-2.4-0.8-3.6 0-6.9 0-13.9 0-20.9z"/>
	<path class="s0" d="m352.2 516.9c-1 0.9-2 2.4-3.1 2.7-1.7 0.4-3.6 0.1-5.4-0.4-0.7-0.2-1.3-1.4-1.5-2.3-0.3-1.3-0.1-2.6-0.1-4 0-12.5 0-24.9 0-37.4 0-1.9-0.9-4.4 1.5-5.3 1.6-0.6 3.6-0.6 5.4-0.3 1.1 0.2 2.1 1.3 3.1 2 0.1 15 0.1 30 0.1 45z"/>
	<path class="s0" d="m255.9 470.4c0-0.2 0.6-0.3 0.7-0.3 8.3-1.1 8.6-0.8 8.6 7.2q0 18.5 0 36.9c0 5-1.7 6.4-6.8 5.5-1.9-0.3-3.1-1.3-3.1-3.3 0.2-15.3 0.4-30.5 0.6-46z"/>
	<path class="s0" d="m513.1 494.4c0-6.8-0.1-13.7 0-20.5 0-3.8 0.5-4.1 4.5-4.2 4.4-0.1 5.3 0.4 5.3 3.9q0.1 21 0 42c0 3.5-1.1 4.1-5.3 4-3.8-0.1-4.5-0.6-4.5-4.3-0.1-6.9 0-13.9 0-20.9z"/>
	<path class="s0" d="m1197.2 516.9c-1 0.9-2 2.4-3.1 2.7-1.7 0.4-3.6 0.1-5.3-0.4-0.7-0.2-1.3-1.4-1.5-2.3-0.3-0.9-0.1-2-0.1-3q0-19.6 0-39.3c0-4.1 0.4-4.7 3.3-4.8 5.2-0.2 6.4-0.3 6.8 4-0.1 14.4-0.1 28.7-0.1 43.1z"/>
	<path class="s0" d="m1001.3 519.4c-0.1-1.9-0.3-3.3-0.3-4.8 0-13.1-0.1-26.3 0-39.4 0-1.7 0.4-4.4 1.4-4.8 2-0.8 4.5-0.4 6.8-0.3 0.5 0 1.3 1.1 1.5 1.8 0.3 1.1 0.2 2.3 0.2 3.5 0 12.6 0 25.3 0 37.9 0 6-0.7 6.6-6.6 6.4-0.8 0-1.6-0.2-3-0.3z"/>
	<path class="s0" d="m874.3 520c-5 0-10 0.1-15 0-3.5-0.1-3.9-0.6-4.1-4.1-0.2-4.3 0.4-5.3 3.9-5.4 10.1-0.2 20.3-0.3 30.4-0.2 3.5 0 4.1 1 4 5.3-0.1 3.9-0.4 4.3-4.3 4.3-5 0.2-9.9 0.1-14.9 0.1z"/>
	<path class="s0" d="m872.6 489.9c4.6 0 9.3-0.1 13.9 0 3.4 0.1 4.2 1.2 4.2 5.2 0 3.7-0.7 4.7-4.1 4.7q-13.7 0.2-27.3 0c-3.6 0-4.2-0.9-4.1-5.1 0-3.9 0.6-4.7 4-4.8 4.5-0.1 9 0 13.4 0z"/>
	<path class="s0" d="m874.6 479.6c-4.7 0-9.3 0-14 0-4.9 0-7.1-3.4-5-8 0.4-0.9 2-1.8 3.1-1.8 10.5-0.1 21-0.1 31.5-0.1 2.3 0 3.2 1 3.4 3.3 0.4 5.5-0.3 6.3-6 6.4-4.3 0-8.7 0-13 0 0 0.1 0 0.1 0 0.2z"/>
	<path class="s0" d="m1378.8 510.7c0.3 1.1 0.6 1.7 0.7 2.4 0.6 6.3 0.1 6.9-6.1 6.9-3.6 0-7.3 0-10.9 0-2.3 0-3.3-1.1-3.3-3.4 0-1.2-0.2-2.4 0.1-3.5 0.3-0.9 1.2-2.3 1.9-2.4 5.8-0.7 11.7-0.8 17.6 0z"/>
	<path class="s0" d="m724.4 519.3q0-7.8 0-15.6c0.4-0.3 0.6-0.6 0.9-0.6 8.5-1 8.8-0.8 8.8 7.6q0 0.8 0 1.5c0 8.4-0.6 8.8-9.7 7.1z"/>
	<path class="s0" d="m-52.1 859.9c0.4 1.4 0.8 2.9 1.2 4.3-2.4-0.6-2.6-1.3-1.2-4.3z"/>
	<path class="s0" d="m289.4 490.8c-0.1-0.8-0.1-1.6-0.3-3.3 1.1 1.2 1.7 1.8 2.2 2.3-0.7 0.3-1.3 0.7-1.9 1z"/>
	<path class="s0" d="m316.4 489.5c0.4-0.5 0.7-1 1.5-2 0 1.3 0 1.9 0 2.4-0.5-0.2-1-0.3-1.5-0.4z"/>
	<path class="s0" d="m1460.2 250.5c-1.5-0.6-1.4-1.3-0.1-2 0 0.7 0.1 1.3 0.1 2z"/>
	<path class="s0" d="m1149.9 205.7q0.4-0.3 0.9-0.6c0.1 0.2 0.2 0.5 0.3 0.7-0.5 0-0.8-0.1-1.2-0.1z"/>
	<path class="s0" d="m870.2 143.8c-0.3 0.3-0.7 0.6-1 0.9 0.3-0.3 0.6-0.6 1-0.9z"/>
	<path class="s0" d="m-958.5 83.1c0.3-0.5 0.5-1 0.8-1.5-0.2 0.5-0.5 1-0.8 1.5z"/>
</svg>