<?xml version="1.0" encoding="utf-8"?>
<!-- Generator: Adobe Illustrator 28.0.0, SVG Export Plug-In . SVG Version: 6.00 Build 0)  -->
<svg version="1.1" id="Layer_1" xmlns="http://www.w3.org/2000/svg" xmlns:xlink="http://www.w3.org/1999/xlink" x="0px" y="0px"
	 viewBox="0 0 2183.2 2183" style="enable-background:new 0 0 2183.2 2183;" xml:space="preserve">
<style type="text/css">
	.st0{fill:#5869BB;}
</style>
<path class="st0" d="M2122.8,1024.5c6.1,4.9,11.8,10.2,16.1,16.9c13.6,21.1,12.1,55-4.5,72.9c-8,8.7-17.8,14.4-28.7,18.4
	c-10.4,3.9-21.2,5.9-32.3,5.9c-33,0.1-66,0-99,0.2c-6,0-12.3-4.9-11.9-11.9c0.4-6.3,0-12.7,0.1-19c0.1-8.2,4-12.3,12.3-12.3
	c32.5,0,65,0,97.5,0c6.2,0,12.3-0.9,18.1-2.9c13.1-4.4,18.6-21.9,9.9-32.5c-3.9-4.8-8.7-8.4-15.4-10.1c-6.7-1.6-13.3-2.3-20.1-2.3
	c-30,0-60,0-90,0c-3.5,0-6.6-0.5-9.1-3.1c-1.9-2-3.2-4.2-3.2-7.1c0-7.2-0.1-14.3,0-21.5c0.1-5.5,4.2-9.7,9.7-10.2
	c1.7-0.2,3.3-0.1,5-0.1c28,0,56,0,84-0.1c4.6,0,9.3-0.4,13.9-1.2c5.9-1.1,11.2-3.8,14.4-9c5-8.1,6-17,1.1-25.4
	c-3.2-5.4-8.2-9.5-14.9-10.4c-3.9-0.5-7.9-0.9-11.9-1c-29.2-0.1-58.3,0-87.5-0.1c-2,0-4,0-5.9-0.4c-4.5-1.1-7.7-5.1-7.8-9.8
	c-0.2-7.5-0.2-15,0-22.5c0.1-5.6,4.2-9.6,9.8-10.2c0.7-0.1,1.3-0.1,2-0.1c31.3,0,62.6-0.2,94,0.2c16.2,0.2,31.7,4.2,44.9,14.3
	c11.5,8.8,19.8,19.8,22.7,34.2c3.1,15.2,2.6,30.2-4.4,44.3c-2.4,4.9-6,9.2-9.1,13.7C2121.4,1023.2,2121.3,1023.9,2122.8,1024.5z"/>
<path class="st0" d="M1812.5,979.7c-4.2,9.8-8.5,19.5-12.6,29.3c-8.8,21-17.7,42.1-26.4,63.2c-2.3,5.5-5.9,8.1-11.9,7.9
	c-7.3-0.2-14.7-0.1-22-0.1c-0.2,0-0.3,0-0.5,0c-9.9-0.1-14.3-6.7-10.5-16c2.9-7.3,6.1-14.4,9.1-21.6c17-39.8,34-79.6,50.9-119.5
	c2.1-5.1,5.7-7,10.7-7c8.7-0.1,17.3,0.1,26-0.1c6.2-0.2,10,2.5,12.3,8.1c11,26.2,22.2,52.4,33.3,78.7
	c16.9,39.7,33.7,79.4,50.6,119.1c1.6,3.8,2.6,7.5,0.3,11.4c-2,3.4-4.8,5.5-8.8,5.7c-1.5,0.1-3,0.1-4.5,0.1c-64,0-128-0.2-192,0.2
	c-10.9,0.1-17.7-8-12.1-18.3c2.9-5.2,5-10.9,7.1-16.5c2.3-6.1,6.3-8.7,12.9-8.7c43.7,0.1,87.3,0.1,131,0.1c1.9,0,3.9,0,6.5,0
	c-2-4.9-3.6-9-5.3-13.1c-13.9-33.2-27.7-66.4-41.6-99.5c-0.4-1.1-1-2.1-1.5-3.1c-0.1-0.2-0.2-0.5-0.3-0.7
	C1813,979.3,1812.8,979.5,1812.5,979.7z"/>
<path class="st0" d="M1127.9,1061.3c0-1.8,0-3.5,0-5.3c0-41.8,0-83.7,0-125.5c0-1.7,0-3.3,0.1-5c0.5-5.4,4.3-9.4,9.7-9.6
	c8-0.3,16-0.3,24,0c5.8,0.2,9.7,4.6,10,10.4c0.1,1.3,0,2.7,0,4c0,64.5,0,129,0,193.5c0,1.7,0.1,3.3-0.1,5c-0.5,4.9-4.7,9-9.7,9.1
	c-9.3,0.2-18.7,0.1-28,0c-4.1,0-6.7-2.5-9-5.6c-6.9-9.4-13.7-18.9-20.6-28.3c-41.1-56.4-82.3-112.8-123.4-169.2
	c-0.9-1.2-1.8-2.4-2.5-3.8c-3.4-6.9,0.6-14.8,8.2-15.2c9.5-0.5,19-0.2,28.5-0.1c3.9,0,6.3,2.5,8.4,5.5
	c10.1,13.9,20.3,27.7,30.5,41.5c23.6,32.1,47.2,64.2,70.8,96.2c0.6,0.8,1.3,1.5,1.9,2.3C1127.2,1061.4,1127.6,1061.3,1127.9,1061.3z
	"/>
<path class="st0" d="M628,675c0.1,3.7,0.3,7.4,0.3,11.1c0,248.4,0,496.7,0,745.1c0,2.2,0,4.4,0,7c-6,0-11.2,0-16.4,0
	c-0.5-1.1-1-2.3-1.4-3.4c0-1.8,0.1-3.7,0.1-5.5c0-248.3,0-496.6,0-744.9c0-2.1,0-4.2,0-6.3c0.4-1,0.9-1.9,1.3-2.9
	C617.3,675.1,622.7,675,628,675z"/>
<path class="st0" d="M824.7,1117.7c0-3.7-0.1-7.3,0-11c0.2-5.4,2.6-8.7,7.7-10.4c2.4-0.8,4.9-1.2,7.2-2
	c22.6-7.6,36.1-23.5,42.1-46.2c2.3-8.8,2.6-17.8,2.1-26.8c-1.4-22.2-10.5-40.3-29.1-53.1c-6.7-4.6-14.2-7.3-22-9.1
	c-1.5-0.4-3.3-0.9-4.1-1.9c-1.6-2-3.5-4.5-3.6-6.8c-0.4-8.5-0.5-17-0.1-25.5c0.3-5.9,6.1-9.9,12.2-8.8c14.9,2.6,29,7.6,41.5,16.2
	c26.5,18.1,42.8,43.1,47.7,74.8c4.5,29.1,1.1,57.3-15.2,82.6c-17.2,26.8-41.3,43.9-72.9,49.6c-7.9,1.4-13.3-3.1-13.5-11.2
	C824.6,1124.7,824.7,1121.2,824.7,1117.7z"/>
<path class="st0" d="M805.9,1118c0,3.5,0.1,7,0,10.5c-0.2,7.9-5.4,12.3-13.2,10.9c-19.7-3.4-37-11.7-52-24.9
	c-18.6-16.4-30.9-36.6-35.5-61c-5.8-31-2.3-60.8,14.7-88c17-27.1,41.6-43.5,73-49.4c5.8-1.1,13.2,2,13,10.5c-0.2,7,0,14,0,21
	c-0.1,7.1-2.5,10.3-9.5,12c-7.4,1.7-14.3,4.4-20.5,8.8c-14.7,10.3-24.1,24.2-27.5,41.9c-3.2,16.7-2.5,33.2,4.4,49
	c8,18.5,21.8,30.7,41.5,36c1.3,0.3,2.6,0.6,3.9,1c5.2,1.6,7.7,4.8,7.8,10.3C806,1110.3,805.9,1114.1,805.9,1118L805.9,1118z"/>
<path class="st0" d="M1532.8,917.8c3.5-1.7,7.2-2.2,11.1-2.1c5.8,0.2,11.7,0.3,17.5,0c6.2-0.3,11.7,5.2,11.6,11.6
	c-0.3,20.7-0.1,41.3-0.1,62c0,44.7,0,89.3,0,134c0,1.7,0.1,3.3-0.1,5c-0.4,5.3-4.5,9.4-9.8,9.5c-8,0.2-16,0.2-24,0
	c-6.3-0.2-9.1-3-9.8-9.2c-0.2-1.8-0.2-3.7-0.2-5.5c0-64,0-128-0.1-192c0-4.4,0.4-8.6,2.8-12.4
	C1532.1,918.4,1532.4,918.1,1532.8,917.8z"/>
<path class="st0" d="M1318.7,959c-24,0-48,0-72,0c-9,0-12.8-3.8-12.9-12.6c0-6.2-0.1-12.3,0-18.5c0.1-7.9,4.2-12,12.1-12
	c27.8,0,55.7,0,83.5,0c20.2,0,40.3,0,60.5,0c2.1,0,4.4,0,6.4,0.7c3.9,1.4,6.5,4.2,6.6,8.5c0.2,8.2,0.3,16.3,0,24.5
	c-0.2,5.7-4.3,9.4-10.2,9.4c-12.7,0.1-25.3,0-38,0C1342.6,959,1330.7,959,1318.7,959z"/>
<path class="st0" d="M1318.8,1095.6c23.2,0,46.3,0,69.5,0c1.8,0,3.7,0,5.5,0.1c5,0.4,8.9,3.9,9.1,9c0.3,8.3,0.3,16.7,0,25
	c-0.2,4.9-4.2,8.5-9.1,9.1c-1.5,0.2-3,0.1-4.5,0.1c-47.1,0-94.3,0-141.4,0c-1.2,0-2.3,0-3.5,0c-5.8-0.4-10.2-4.4-10.4-10.1
	c-0.3-7.7-0.3-15.3,0-23c0.2-5.9,4.7-9.9,10.9-10c10.5-0.1,21,0,31.5,0C1290.5,1095.6,1304.6,1095.6,1318.8,1095.6z"/>
<path class="st0" d="M1311.7,1048.9c-21.2,0-42.3,0-63.5,0c-1.5,0-3,0.1-4.5-0.1c-5.4-0.5-9.8-4.7-9.9-10.1c-0.2-7.7-0.2-15.3,0-23
	c0.1-5.7,4-9.5,9.7-10.2c2.3-0.3,4.7-0.3,7-0.4c40.8,0,81.6,0,122.4,0c2.7,0,5.3,0.1,8,0.5c5.2,0.7,8.8,4.4,8.9,9.8
	c0.2,7.7,0.2,15.3,0,23c-0.1,5.8-4.3,9.9-10.1,10.4c-1.5,0.1-3,0.1-4.5,0.1C1354.1,1048.9,1332.9,1048.9,1311.7,1048.9z"/>
<path class="st0" d="M1636.8,1138c-11.2,0-22.3,0-33.5,0c-7.8,0-11.5-3.8-11.6-11.7c-0.1-6.2,0.1-12.3,0-18.5
	c-0.2-8.3,3.8-12.9,12.7-12.7c6.8,0.2,13.7,0,20.5,0c14.5,0,29,0,43.5,0c1.5,0,3-0.1,4.5,0.1c5.7,0.7,9.6,4.4,9.8,10.2
	c0.3,7.5,0.2,15,0,22.5c-0.2,5.8-5.4,10.3-10.8,10.2C1660.1,1137.8,1648.4,1138,1636.8,1138z"/>
<path class="st0" d="M977.4,1099.5c0-8.7-0.1-17.3,0-26c0.1-8.2,3.7-11.8,11.9-11.9c6.8-0.1,13.7-0.1,20.5,0
	c7.2,0.1,11.1,3.9,11.1,11.2c0.1,18,0.1,36,0,53.9c0,7.2-4.1,11.1-11.2,11.2c-7,0.1-14,0.1-21,0c-7.4-0.1-11.3-3.9-11.4-11.5
	C977.3,1117.5,977.4,1108.5,977.4,1099.5z"/>
<path class="st0" d="M2141.7,1268c0.9,1.2,1.8,2.4,2.7,3.6c4.9,7.5,2,17-6.3,20.2c-2.3,0.9-4.8,1.6-7.2,1.7
	c-7.2,0.2-14.3,0.2-21.5,0.1c-3.3,0-4.3-0.9-4.3-4.2c0-14.7,0.1-29.3,0.1-44c0-0.3,0.2-0.6,0.5-1.2c0.4-0.1,1-0.5,1.6-0.5
	c7.7,0,15.3-0.3,23,0.1c9.7,0.5,15.6,8.1,13.7,17.4C2143.5,1263.4,2142.6,1265.4,2141.7,1268z M2115.1,1283.9c5.8,0,11.1,0.1,16.4,0
	c3.2-0.1,5-1.8,5.3-4.3c0.3-2.7-1.2-5-4.4-5.7c-5.7-1.3-11.4-0.6-17.3-0.6C2115.1,1277,2115.1,1280.1,2115.1,1283.9z M2115.1,1264.3
	c5.3-0.5,10-0.6,14.7-1.4c4.1-0.7,4.1-0.9,4-4.6c0-3.3-0.8-4.6-4.3-4.8c-4.7-0.3-9.5-0.1-14.4-0.1
	C2115.1,1256.9,2115.1,1260,2115.1,1264.3z"/>
<path class="st0" d="M952,1264.8c-0.1,7.9-0.1,15.8-0.2,23.7c0,4-0.5,4.7-3.1,5.2c-4.2,0.7-5.8-0.1-7.1-3.8c0-14,0-28,0-42
	c0.3-1.8,0.3-4,2.8-4c3,0,6.4-1.1,8.7,2.1c3.4,4.7,7,9.3,10.5,14c0.8,1,1.7,2,2.8,3.4c1.3-1.7,2.4-3.1,3.5-4.5
	c3.1-4.1,6.1-8.3,9.1-12.5c1.1-1.6,2.4-2.5,4.5-2.6c6.6-0.3,7,0,7,6.7c0,12.6,0,25.3,0,37.9c0,4.8-3.4,7-8,5.1c-1.9-0.8-2-2.4-2-4.2
	c0-6.5,0-13,0-19.5c0-2-0.1-4-0.2-6c0-0.6,0-1.1,0-2.4c-0.8,1.1-1.2,1.6-1.5,2c-3,3.7-6,7.5-9,11.1c-1,1.2-2.2,2.3-3.7,3.9
	c-4.4-5.2-8.4-9.9-12.4-14.7c-0.5-0.6-1.1-1.1-2.2-2.3C951.8,1263.3,951.9,1264,952,1264.8z"/>
<path class="st0" d="M1712,1263.4c4.1-5.6,8.2-10.4,11.5-15.7c2.5-4,5.9-4.2,9.9-3.9c1.9,0.1,2.6,1.2,2.7,2.9c0,2.2,0,4.3,0,6.5
	c0,11.8,0,23.7,0,35.5c0,4.4-0.9,5.2-5.3,5c-3.4-0.1-4.1-0.6-4.3-4.1c-0.2-6.7-0.2-13.3-0.2-20c0-2.1,0-4.3,0-7.7
	c-5.8,5.2-8.8,11.5-14.2,16.4c-5.4-4.6-8.5-10.8-13.8-16c-0.3,1.6-0.6,2.6-0.6,3.6c0,7,0,14,0,21c0,6.4-0.5,6.9-6.8,6.7
	c-0.7,0-1.3-0.1-2.6-0.2c-0.1-1.6-0.4-3.4-0.4-5.1c0-13-0.1-26,0-39c0-1.9-0.8-4.2,1.6-5.3c2.3-1.1,7.8-0.2,9.2,1.6
	c3.8,4.9,7.5,9.8,11.2,14.7C1710.1,1261.2,1710.8,1262,1712,1263.4z"/>
<path class="st0" d="M1966.4,1274.5c0-1.8,0-3.6,0-5.3c0-7.2-0.1-14.3,0-21.5c0-3.7,0.5-3.9,4.7-3.9c4.3,0,4.8,0.3,4.9,3.8
	c0.1,14,0.1,28,0,42c0,3.5-0.7,4-4.1,4.2c-0.5,0-1,0-1.5,0c-1.3,0-2.7,0-3.7,0c-7.8-10.7-15.4-21.1-23.7-32.5
	c-0.3,2.1-0.5,3.1-0.5,4.2c0,7.2,0,14.3,0,21.5c0,6.5-0.7,7.1-7.3,6.7c-0.6,0-1.3-0.2-2.2-0.3c-0.1-2-0.3-3.7-0.4-5.5
	c0-12.8,0-25.7,0-38.5c0-1.9-0.8-4.2,1.6-5.3c2.3-1.1,7.8-0.2,9.2,1.6c2.8,3.7,5.6,7.5,8.3,11.2c3.7,5,7.3,9.9,11,14.9
	c0.8,1,1.6,2,2.4,3C1965.6,1274.8,1966,1274.7,1966.4,1274.5z"/>
<path class="st0" d="M1292.3,1274.7c0-5.1,0-10.2,0.1-15.3c0-4.9,0.1-9.9,0.1-14.6c1-0.5,1.5-0.9,1.9-0.9c7.4-0.6,7.6-0.5,7.6,7
	c0,12.2,0,24.3,0,36.5c0,6.2-0.2,6.4-6.5,6.4c-1,0-2,0-2.9,0c-7.8-10.6-15.4-21-23.6-32.2c-0.3,1.7-0.7,2.7-0.7,3.7
	c0,7.2,0,14.3,0,21.5c0,6.7-0.6,7.2-7.1,6.9c-0.6,0-1.3-0.2-2.4-0.3c-0.1-1.6-0.4-3.2-0.4-4.8c0-13.2,0-26.3,0-39.5
	c0-1.9-0.8-4.7,1.9-5c2.9-0.4,6.4-1.6,8.8,1.5c1.7,2.2,3.4,4.5,5.1,6.8c4.7,6.4,9.5,12.9,14.2,19.3c0.8,1.1,1.8,2.2,2.7,3.3
	C1291.6,1274.9,1292,1274.8,1292.3,1274.7z"/>
<path class="st0" d="M1444.8,1268.6c0-6.8-0.1-13.6,0-20.5c0-3.8,0.5-4.3,4.3-4.3c5.5-0.1,11,0.1,16.5,0
	c13.7-0.4,24.3,11.2,23.8,25.8c-0.2,6.6-2.4,12.6-7.3,17.5c-4.4,4.3-9.7,6.4-15.7,6.6c-5.6,0.2-11.3,0.1-17,0
	c-4-0.1-4.6-0.7-4.6-4.7C1444.7,1282.2,1444.8,1275.4,1444.8,1268.6z M1454.9,1283.9c4.6,0,8.5,0.1,12.5,0c4.2-0.2,7.2-2.4,9.4-5.8
	c3.4-5.5,3.7-11.3,0.9-17.2c-1.5-3.1-3.8-5.6-7.1-6.7c-5.1-1.6-10.4-1.1-15.7-0.8C1454.9,1263.7,1454.9,1273.5,1454.9,1283.9z"/>
<path class="st0" d="M1222,1243.8c14.6,0,24.8,10.5,25.1,25.2c0.3,13.9-10.2,25.9-25.2,25.7c-15-0.2-25.4-10.5-25.3-25.9
	C1196.8,1254.3,1207.5,1243.8,1222,1243.8z M1206.6,1269.1c0,9.4,6,15.7,15,15.8c9.2,0.1,15.8-6.4,15.8-15.6
	c0-9.3-6.4-15.8-15.7-15.7C1212.7,1253.6,1206.7,1259.8,1206.6,1269.1z"/>
<path class="st0" d="M1921.1,1269.1c0.5,14.6-10.8,25.7-24.8,25.7c-15,0-25.4-10.1-25.6-25.2c-0.1-15,10.5-25.7,25.3-25.7
	C1910.7,1243.8,1921.1,1254.3,1921.1,1269.1z M1895.7,1253.6c-9.1,0.1-15.1,6.3-15.1,15.7c0,9.6,6.2,15.8,15.6,15.7
	c8.9-0.1,15.3-6.7,15.2-15.7C1911.5,1259.8,1905.1,1253.5,1895.7,1253.6z"/>
<path class="st0" d="M1584.7,1295c-3.8-1-7.9-1.5-11.5-3c-5.1-2.1-7.9-6.4-8.7-11.9c-0.4-3.2,0.2-3.9,3.3-4.1c4.6-0.4,4.9-0.2,7,4.2
	c1.2,2.5,3.3,4,5.8,4.3c3.6,0.4,7.3,0.4,10.9,0.1c2.4-0.2,4.5-1.6,4.7-4.4c0.2-2.7-1.8-3.8-3.9-4.4c-3.3-1-6.7-1.8-10.1-2.9
	c-3.3-1.1-6.7-2.1-9.8-3.6c-10.4-5.2-7.7-17.7-0.9-22.2c7.3-4.9,21.6-4.3,28.3,1.4c3.6,3.1,5.6,6.9,4.7,12.5
	c-2.3,0.1-4.5,0.4-6.8,0.2c-0.9-0.1-2.3-1.1-2.5-1.9c-1.5-5.1-5.8-5.6-10-5.9c-2.2-0.2-4.7,0.3-6.8,1.1c-1.3,0.5-2.4,2.2-2.8,3.6
	c-0.6,2,1.1,3,2.7,3.5c2.7,0.9,5.4,1.6,8.1,2.4c3.7,1.1,7.5,1.9,10.9,3.4c5.4,2.3,9,6.3,8.9,12.6c0,5.9-3.7,10.8-9.9,13
	c-2.8,1-5.8,1.3-8.7,2C1586.7,1295,1585.7,1295,1584.7,1295z"/>
<path class="st0" d="M1051,1253.6c-2.3-0.1-3.9-0.3-5.5-0.3c-5.2-0.1-10.3-0.1-15.5-0.2c-4.3-0.1-4.7-0.6-4.6-5.1
	c0.1-3.9,0.3-4.2,4.9-4.2c9.8,0,19.6,0,29.5,0c5.6,0,7.7,4,4.8,8.9c-0.9,1.4-2,2.6-3.1,3.9c-6.7,8.1-13.4,16.1-20.1,24.2
	c-0.6,0.7-1.1,1.5-2.1,2.9c1.8,0.1,3,0.3,4.3,0.3c6,0,12-0.1,18,0.1c3.4,0.1,4,0.9,4,4.9c0,3.8-0.6,4.8-4,4.8
	c-10.8,0.1-21.6,0.1-32.5,0c-4,0-5.7-4.3-3.6-8.6c0.5-1,1.4-1.9,2.1-2.8c6.8-8.2,13.6-16.4,20.4-24.6
	C1049,1256.7,1049.7,1255.4,1051,1253.6z"/>
<path class="st0" d="M1779.4,1280.8c-6.6,0-12.8,0-19.2,0c-1.4,3.2-2.7,6.3-4.1,9.5c-1.4,3.1-6.9,4.8-9.6,2.9
	c-0.7-0.5-1.1-1.7-1.1-2.5c0.1-1.1,0.6-2.2,1.1-3.3c5.6-13.2,11.1-26.3,16.7-39.5c0.6-1.4,1.6-3.6,2.7-3.8c2.5-0.6,5.3-0.3,7.9,0
	c0.8,0.1,1.6,1.6,2,2.6c6,14.1,12,28.1,17.9,42.2c1.4,3.4,0.6,4.5-3.1,4.7c-5.2,0.4-5.7,0.1-7.8-4.9
	C1781.8,1286.2,1780.6,1283.6,1779.4,1280.8z M1775,1270.7c-1.5-4.5-2.8-8.4-5.5-12.7c-1.9,4.8-3.4,8.5-5.1,12.7
	C1768.1,1270.7,1771.2,1270.7,1775,1270.7z"/>
<path class="st0" d="M1086.1,1280.9c-1.4,3.3-2.8,6.5-4.2,9.7c-1.3,3-7.3,4.6-9.7,2.5c-0.6-0.5-0.9-1.7-0.8-2.6
	c0-0.9,0.6-1.9,0.9-2.8c5.6-13.3,11.2-26.6,17-39.9c0.6-1.4,1.7-3.4,2.9-3.6c2.5-0.5,5.3-0.2,7.9,0.2c0.7,0.1,1.3,1.4,1.7,2.3
	c6,14.2,12.1,28.4,18,42.7c1.3,3.1,0.4,4.2-2.9,4.5c-5.2,0.5-5.9,0-7.9-4.7c-1.2-2.7-2.3-5.4-3.5-8.2
	C1098.8,1280.9,1092.5,1280.9,1086.1,1280.9z M1090.2,1270.7c4.1,0,7.2,0,11.1,0c-1.8-4.3-3.4-8.1-5-11.9c-0.4,0-0.7,0-1.1,0
	C1093.6,1262.6,1092.1,1266.3,1090.2,1270.7z"/>
<path class="st0" d="M2081.1,1280.6c-5.8,0-11.3,0.1-16.8,0c-2,0-3,0.9-3.6,2.7c-1,2.6-2,5.3-3.2,7.8c-1.2,2.6-7.4,3.8-9.7,1.9
	c-1.5-1.3-0.8-2.7-0.2-4.1c2.1-5.1,4.2-10.1,6.4-15.2c3.6-8.6,7.5-17.1,10.8-25.8c1.3-3.5,3.4-4.3,6.8-4.3c3.2,0,5.1,0.7,6.5,4
	c5.4,13.3,11.1,26.4,16.7,39.6c0.5,1.1,1,2.2,1.1,3.3c0.1,0.7-0.1,1.7-0.6,2.3c-1.8,2-8.4,0.9-9.6-1.6
	C2084.1,1287.9,2082.8,1284.5,2081.1,1280.6z M2072.1,1258.9c-0.4-0.1-0.8-0.1-1.2-0.2c-1.1,4-4,7.3-4.1,11.9c3.4,0,6.5,0,10.2,0
	C2075.2,1266.5,2073.7,1262.7,2072.1,1258.9z"/>
<path class="st0" d="M1343.5,1280.6c-1.5,3.6-2.8,6.7-4.1,9.7c-1.4,3.2-6.9,4.8-9.7,2.8c-1.8-1.3-1.1-2.9-0.4-4.5
	c2.1-5.1,4.3-10.1,6.4-15.2c3.6-8.6,7.4-17.1,10.8-25.8c1.3-3.3,3.2-4.1,6.4-4.1c3.1,0,5.3,0.5,6.6,3.8c5.6,13.7,11.5,27.3,17.2,41
	c1.7,4.2,0.9,5.1-3.8,5.3c-3.3,0.2-5.3-0.8-6.4-4.1c-1-3-1.9-6.9-4.1-8.3c-2.4-1.5-6.4-0.7-9.7-0.8
	C1349.7,1280.6,1346.8,1280.6,1343.5,1280.6z M1358.6,1270.7c-1.9-4.6-3.5-8.4-5.5-13.3c-2.1,5-3.7,8.9-5.5,13.3
	C1351.3,1270.7,1354.4,1270.7,1358.6,1270.7z"/>
<path class="st0" d="M830.9,1277.6c0,5.6,0,10.5,0,15c-1,0.5-1.3,0.8-1.6,0.8c-7.6,0.7-8,0.4-8-7.2c0-12.5,0-25,0-37.5
	c0-4.9,0.2-5.1,5.1-5.1c6.2,0,12.3-0.1,18.5,0.1c12.5,0.4,19.7,10.6,16,22.4c-1.9,6-6.1,9.4-12.1,10.5c-2.9,0.6-5.9,0.7-8.9,0.8
	C837.3,1277.7,834.6,1277.6,830.9,1277.6z M831.4,1267.9c4.6,0,9,0.2,13.5,0c4.6-0.2,6.8-2.4,7-6.8s-1.6-7-6.2-7.5
	c-4.6-0.5-9.2-0.1-14.3-0.1C831.4,1258.2,831.4,1262.8,831.4,1267.9z"/>
<path class="st0" d="M1420.6,1273.9c0.1-8.3,0.1-16.6,0.2-24.9c0-4.6,4.3-7.1,8.4-4.7c0.9,0.5,1.4,2.2,1.5,3.3
	c0.2,4.3,0.1,8.6,0.1,13c0,9.3,0,18.6,0,27.9c0,5.3-0.3,5.4-5.7,5.6c-3,0.1-4.8-1-6.6-3.4c-9.6-13.4-19.3-26.7-29-40
	c-0.5-0.7-1-1.3-1.5-2c-2-3.1-1.4-4.5,2.2-4.9c4.1-0.5,7,0.7,9.6,4.4c6.1,8.9,12.8,17.4,19.3,26c0.3,0.5,0.7,1,1.4,2
	C1420.5,1275,1420.6,1274.4,1420.6,1273.9z"/>
<path class="st0" d="M882.7,1253.8c-4.9-0.2-9.5-0.5-14.2-0.7c-0.4-0.9-0.9-1.6-0.9-2.4c-0.7-6.2-0.1-6.9,6.1-6.9
	c10,0,19.9,0,29.9,0c4.7,0,6.7,3.1,4.9,7.5c-0.4,0.9-1.6,1.7-2.6,1.8c-2.1,0.4-4.3,0.3-6.5,0.4c-2,0-3.9,0-6.5,0c0,2.1,0,3.8,0,5.4
	c0,9.8,0,19.6,0,29.4c0,4.9-3.4,7.1-7.8,5.1c-0.9-0.4-1.7-1.6-1.9-2.6c-0.3-1.4-0.2-3-0.2-4.5c0-9.1,0-18.3,0-27.4
	C882.9,1257.3,882.7,1255.6,882.7,1253.8z"/>
<path class="st0" d="M1814.8,1253.3c-4.6,0-8.3,0.2-11.9-0.1c-1.3-0.1-3.5-0.9-3.6-1.7c-0.4-2.2,0-4.5,0.4-6.7
	c0.1-0.5,1.7-0.9,2.6-0.9c11.5-0.1,22.9,0,34.4-0.1c2.3,0,3.3,0.9,3.4,3.2c0.4,5.3-0.3,6.2-5.5,6.3c-3.1,0-6.2,0-9.7,0
	c-0.1,2-0.3,3.4-0.3,4.9c0,9.6,0,19.3,0,28.9c0,6.5-0.6,7-7.2,6.6c-0.6,0-1.3-0.2-2.6-0.4
	C1814.8,1280.2,1814.8,1267.2,1814.8,1253.3z"/>
<path class="st0" d="M1150.6,1253.2c0,3.8,0,7,0,10.1c0,8.1,0,16.3,0,24.4c0,5.6-0.5,6-5.9,5.9c-1,0-2-0.1-3.7-0.3
	c-0.7-13.1,0-26.3-0.4-40.1c-4.1,0-7.7,0.2-11.3,0c-3.9-0.2-6.2-5.2-3.8-8.3c0.7-0.8,2.3-1.2,3.5-1.2c6-0.1,12-0.1,18-0.1
	c5.2,0,10.3-0.1,15.5,0c3.3,0.1,3.6,0.5,3.7,4.4c0.1,4.2-0.4,4.9-3.7,5C1158.6,1253.3,1154.8,1253.2,1150.6,1253.2z"/>
<path class="st0" d="M1638.5,1253.2c0,5.7,0,10.5,0,15.3c0,6.3,0,12.7,0,19c0,5.7-0.6,6.3-6.3,6.2c-0.8,0-1.7-0.1-3.2-0.3
	c-0.8-13,0-26-0.5-39.4c-1.2-0.2-2.3-0.5-3.4-0.5c-2.3-0.1-4.7,0-7-0.1c-5-0.3-6.6-2.7-5.2-7.5c0.6-1.8,2-2.1,3.5-2.1
	c3.5,0,7,0,10.5,0c7.7,0,15.3,0,23,0c3.7,0,3.9,0.4,4.1,4c0.2,4.9-0.3,5.4-5.3,5.4C1645.5,1253.3,1642.4,1253.2,1638.5,1253.2z"/>
<path class="st0" d="M759,1269.3c0.4-11.4,5.9-20.9,17.1-24.6c4.1-1.4,5.7-1.1,6.4,1.1c1.2,3.6,0,7.1-3.1,8.2
	c-6.2,2.2-9.2,6.7-10.2,13c-1.1,7.5,2.8,14.3,9.9,17c3.2,1.3,5.1,6.3,2.9,8.9c-0.8,0.9-3,1.2-4.4,0.9c-6.5-1.4-11.2-5.5-14.8-11
	C760,1278.6,759.3,1273.9,759,1269.3z"/>
<path class="st0" d="M810,1269.1c0,10.9-5,18.7-14.7,23.6c-0.7,0.4-1.5,0.8-2.3,0.9c-1.9,0.4-4.5,1.7-5.5-0.3s-0.6-4.8-0.4-7.2
	c0.1-0.7,1.7-1.5,2.7-1.9c7.1-3,10.1-7.4,10.2-14.9c0.1-7.6-2.9-12.1-9.8-15.2c-1.2-0.6-2.9-1.5-3.2-2.6c-0.4-2-0.3-4.3,0.3-6.3
	c0.2-0.7,2.6-1.2,3.8-0.9c9.7,1.9,17.7,11,18.7,20.9C809.9,1266.4,809.9,1267.8,810,1269.1z"/>
<path class="st0" d="M2007.6,1268.4c0-6.8-0.1-13.6,0-20.5c0-4,0.4-4.2,4.9-4.2c4.3,0,5,0.4,5,4.3c0.1,13.8,0,27.6,0,41.4
	c0,1.7,0.1,3.9-1.9,4.1c-2.4,0.3-4.9,0-7.2-0.6c-0.5-0.1-0.8-2.4-0.8-3.6C2007.6,1282.4,2007.6,1275.4,2007.6,1268.4z"/>
<path class="st0" d="M1014.8,1290.9c-1,0.9-2,2.4-3.1,2.7c-1.7,0.4-3.6,0.1-5.4-0.4c-0.7-0.2-1.3-1.4-1.5-2.3
	c-0.3-1.3-0.1-2.6-0.1-4c0-12.5,0-24.9,0-37.4c0-1.9-0.9-4.4,1.5-5.3c1.6-0.6,3.6-0.6,5.4-0.3c1.1,0.2,2.1,1.3,3.1,2
	C1014.8,1260.9,1014.8,1275.9,1014.8,1290.9z"/>
<path class="st0" d="M918.5,1244.4c0-0.2,0.6-0.3,0.7-0.3c8.3-1.1,8.6-0.8,8.6,7.2c0,12.3,0,24.6,0,36.9c0,5-1.7,6.4-6.8,5.5
	c-1.9-0.3-3.1-1.3-3.1-3.3C918.1,1275.1,918.3,1259.9,918.5,1244.4z"/>
<path class="st0" d="M1175.7,1268.4c0-6.8-0.1-13.7,0-20.5c0-3.8,0.5-4.1,4.5-4.2c4.4-0.1,5.3,0.4,5.3,3.9c0.1,14,0.1,28,0,42
	c0,3.5-1.1,4.1-5.3,4c-3.8-0.1-4.5-0.6-4.5-4.3C1175.6,1282.4,1175.7,1275.4,1175.7,1268.4z"/>
<path class="st0" d="M1859.8,1290.9c-1,0.9-2,2.4-3.1,2.7c-1.7,0.4-3.6,0.1-5.3-0.4c-0.7-0.2-1.3-1.4-1.5-2.3c-0.3-0.9-0.1-2-0.1-3
	c0-13.1,0-26.2,0-39.3c0-4.1,0.4-4.7,3.3-4.8c5.2-0.2,6.4-0.3,6.8,4C1859.8,1262.2,1859.8,1276.5,1859.8,1290.9z"/>
<path class="st0" d="M1663.9,1293.4c-0.1-1.9-0.3-3.3-0.3-4.8c0-13.1-0.1-26.3,0-39.4c0-1.7,0.4-4.4,1.4-4.8c2-0.8,4.5-0.4,6.8-0.3
	c0.5,0,1.3,1.1,1.5,1.8c0.3,1.1,0.2,2.3,0.2,3.5c0,12.6,0,25.3,0,37.9c0,6-0.7,6.6-6.6,6.4
	C1666.1,1293.7,1665.3,1293.5,1663.9,1293.4z"/>
<path class="st0" d="M1536.9,1294c-5,0-10,0.1-15,0c-3.5-0.1-3.9-0.6-4.1-4.1c-0.2-4.3,0.4-5.3,3.9-5.4c10.1-0.2,20.3-0.3,30.4-0.2
	c3.5,0,4.1,1,4,5.3c-0.1,3.9-0.4,4.3-4.3,4.3C1546.8,1294.1,1541.9,1294,1536.9,1294z"/>
<path class="st0" d="M1535.2,1263.9c4.6,0,9.3-0.1,13.9,0c3.4,0.1,4.2,1.2,4.2,5.2c0,3.7-0.7,4.7-4.1,4.7c-9.1,0.1-18.2,0.1-27.3,0
	c-3.6,0-4.2-0.9-4.1-5.1c0-3.9,0.6-4.7,4-4.8C1526.3,1263.8,1530.8,1263.9,1535.2,1263.9z"/>
<path class="st0" d="M1537.2,1253.6c-4.7,0-9.3,0-14,0c-4.9,0-7.1-3.4-5-8c0.4-0.9,2-1.8,3.1-1.8c10.5-0.1,21-0.1,31.5-0.1
	c2.3,0,3.2,1,3.4,3.3c0.4,5.5-0.3,6.3-6,6.4c-4.3,0-8.7,0-13,0C1537.2,1253.5,1537.2,1253.5,1537.2,1253.6z"/>
<path class="st0" d="M2041.4,1284.7c0.3,1.1,0.6,1.7,0.7,2.4c0.6,6.3,0.1,6.9-6.1,6.9c-3.6,0-7.3,0-10.9,0c-2.3,0-3.3-1.1-3.3-3.4
	c0-1.2-0.2-2.4,0.1-3.5c0.3-0.9,1.2-2.3,1.9-2.4C2029.6,1284,2035.5,1283.9,2041.4,1284.7z"/>
<path class="st0" d="M1387,1293.3c0-5.2,0-10.4,0-15.6c0.4-0.3,0.6-0.6,0.9-0.6c8.5-1,8.8-0.8,8.8,7.6c0,0.5,0,1,0,1.5
	C1396.7,1294.6,1396.1,1295,1387,1293.3z"/>
<path class="st0" d="M625.6,675c-4.6,0-9.3,0.1-13.9,0.1c-0.3-0.1-0.7-0.3-1-0.4c0.2-0.5,0.2-1.1,0.5-1.4c2.5-2.1,10.9-2.4,13.5-0.4
	C625.2,673.3,625.3,674.3,625.6,675z"/>
<path class="st0" d="M610.5,1633.9c0.4,1.4,0.8,2.9,1.2,4.3C609.3,1637.6,609.1,1636.9,610.5,1633.9z"/>
<path class="st0" d="M610.7,674.7c0.3,0.1,0.7,0.3,1,0.4c-0.4,1.2-0.7,2.4-1.1,3.7C609,677.4,609.3,676,610.7,674.7z"/>
<path class="st0" d="M952,1264.8c-0.1-0.8-0.1-1.6-0.3-3.3c1.1,1.2,1.7,1.8,2.2,2.3C953.2,1264.1,952.6,1264.5,952,1264.8z"/>
<path class="st0" d="M979,1263.5c0.4-0.5,0.7-1,1.5-2c0,1.3,0,1.9,0,2.4C980,1263.7,979.5,1263.6,979,1263.5z"/>
<path class="st0" d="M2122.8,1024.5c-1.5-0.6-1.4-1.3-0.1-2C2122.7,1023.2,2122.8,1023.8,2122.8,1024.5z"/>
<path class="st0" d="M1812.5,979.7c0.3-0.2,0.6-0.4,0.9-0.6c0.1,0.2,0.2,0.5,0.3,0.7C1813.2,979.8,1812.9,979.7,1812.5,979.7z"/>
<path class="st0" d="M1532.8,917.8c-0.3,0.3-0.7,0.6-1,0.9C1532.1,918.4,1532.4,918.1,1532.8,917.8z"/>
<path class="st0" d="M-295.9,857.1c0.3-0.5,0.5-1,0.8-1.5C-295.3,856.1-295.6,856.6-295.9,857.1z"/>
<path class="st0" d="M525,1092.3c-2.4-10-5.9-19.4-13-26.8c-0.8-0.8-1.4-1.8-2.1-2.7c-0.6-0.4-1.1-0.9-1.7-1.3
	c-0.7-0.6-1.4-1.2-2.1-1.8c-1-0.7-1.9-1.4-2.9-2.2c-2.4-1.3-4.9-2.8-7.4-4c-1.3-0.7-2.8-1-4.2-1.5c-2.5-0.8-5-1.9-7.5-2.4
	c-3.5-0.7-7.1-1-10.6-1.4c-0.6-0.1-1.1-0.2-1.7-0.3H471c-2.8,0-5.6,0-8.4,0c-0.1,0-0.3-0.1-0.4-0.1c-0.8,0.2-1.7,0.3-2.5,0.5
	c-3.2,0.2-6.4,0.4-9.6,0.6c-0.1,1.4-0.6,1.6-1.7,0.8c-1.7,0.3-3.4,0.5-5,0.8c-3.1,0.7-6.1,1.5-9.2,2.2c-1.2,0.1-2.5,0.1-3.7,0.5
	c-4,1.2-7.9,2.6-11.9,4c-4,1.3-8,2.7-12,4c-0.4,0.3-0.9,0.5-1.3,0.8c-2.9,0.9-5.8,1.8-8.8,2.7c-0.3,0.1-0.6,0.2-0.9,0.3
	c-4.3,1.6-8.6,3.3-13,4.9c-0.3,0.1-0.6,0.2-0.9,0.3c-3.1,1-6.1,2.1-9.2,3.1c-0.7,0.3-1.3,0.6-2,0.9c-2.5,0.9-5.1,1.7-7.6,2.6
	c-0.3,0.3-0.6,0.5-0.9,0.8c-3.2,0.9-6.4,1.8-9.6,2.7c-0.4,0.4-0.8,0.8-1.3,1.3c-1.2-0.1-2.5-0.1-3.6-0.4c-2.6-0.7-5.1-1.5-7.7-2.2
	c-0.1-0.1-0.3-0.2-0.4-0.4c-0.3,0-0.6-0.1-0.9-0.1c-0.1-0.1-0.2-0.2-0.4-0.3c-1.1-0.7-2.3-1.5-3.4-2.2c-0.3-0.3-0.6-0.6-0.9-0.9
	c-2-1.5-4-3-6-4.5c-0.1,0-0.1,0-0.2,0c-0.3-0.3-0.6-0.6-0.9-0.9c-0.2-0.1-0.3-0.2-0.5-0.3c-0.1-0.1-0.2-0.3-0.4-0.4
	c-0.3-0.3-0.6-0.6-0.9-0.9c-0.3-0.2-0.5-0.4-0.8-0.6c-0.2-0.1-0.3-0.2-0.5-0.3c-0.5-0.6-1.1-1.1-1.6-1.7c-0.2-0.2-0.5-0.3-0.7-0.5
	c-0.9-0.9-1.7-1.8-2.6-2.6c-3.9-3.6-7.8-7.1-11.6-10.6c-3.7-3.4-7.3-6.9-11-10.3c-0.3-0.3-0.6-0.6-0.9-0.9c-0.3-0.2-0.5-0.4-0.8-0.6
	c-0.1-0.1-0.3-0.2-0.4-0.3c-0.3-0.3-0.5-0.7-0.8-1c-0.2-0.1-0.3-0.2-0.5-0.3c-0.1-0.1-0.2-0.3-0.4-0.4c-0.2-0.2-0.5-0.3-0.7-0.5
	c-1-1-2-2-3-3c-0.2-0.2-0.5-0.3-0.7-0.5c-13.6-12.8-27.2-25.6-41.1-38.7c12.2-5.9,23.8-11.6,35.5-17.3c0.3-0.3,0.6-0.5,0.9-0.8
	c0.3,0,0.5,0,0.8,0c1-0.4,1.9-0.9,2.9-1.3c0.3-0.1,0.6-0.3,0.9-0.4c1-0.4,1.9-0.9,2.9-1.3c0.3-0.1,0.6-0.3,0.9-0.4
	c1-0.4,1.9-0.9,2.9-1.3c0.3-0.1,0.6-0.3,0.9-0.4c1-0.4,1.9-0.9,2.9-1.3c0.3-0.1,0.6-0.3,0.9-0.4c1-0.4,1.9-0.9,2.9-1.3
	c0.3-0.1,0.6-0.3,0.9-0.4c3.7-1.7,7.3-3.4,11-5.1c3.6-1.7,7.3-3.3,10.9-4.9c0.3-0.1,0.5-0.2,0.8-0.4c1-0.5,1.9-0.9,2.9-1.4
	c0.4-0.6,0.8-1.1,1.3-1.7c1.5-0.2,3-0.1,4.3-0.6c2.9-1.1,5.8-2.6,8.6-3.9c0.3-0.3,0.6-0.5,0.9-0.8c1.8-0.7,3.5-1.4,5.3-2.1
	c2.2-0.9,4.3-2,6.5-2.9c1.1-0.4,2.2-0.7,3.3-1.1c0.4-0.3,0.8-0.5,1.3-0.8c0.5-0.2,1.1-0.4,1.6-0.5c0.4-0.4,0.9-0.8,1.3-1.2
	c1.4-0.3,2.8-0.7,4.1-1c0.3-0.3,0.5-0.6,0.8-0.9c1-0.3,2.1-0.3,2.9-0.8c1.7-1.4,3.4-2.3,5.6-2.6c0.5-0.1,1-0.6,1.5-1
	c0.4-0.2,0.7-0.7,1.1-0.7c2.2,0,4.2-0.3,5.5-2.5c0.1-0.2,0.5-0.3,0.7-0.3c1.2-0.3,2.5-0.3,3.7-0.8c2.3-0.9,4.5-2.1,6.7-3.2
	c0.6-0.4,1.5-0.3,2.3-0.6c5.7-2.6,11.5-5.3,17.2-8c5-2.3,10-4.6,15-6.8c2.2-0.9,4.4-1.6,6.6-2.5c0-1,0.2-1.7,1.3-0.8
	c2-0.7,4-1.4,5.9-2.2c1.1-0.5,2.2-1.1,3.6-1.8c0.8-0.1,2.1-0.1,3.3-0.3c1.4-0.3,2.9-0.8,4.3-1.1c3-0.6,6-1.5,9-1.9
	c0.1-0.7,0.2-1.5,0.3-2.2c-13.5,2.4-27,4.9-40.4,7.6c-32.3,6.6-64,14.8-94.3,28.1c-15.1,6.6-30.4,12.6-45.7,18.7
	c-7.6,3-15.5,5.4-23.1,8.4c-7.1,2.7-14,6-21.2,8.4c-1,0.3-1.9,0.3-2.6,0.1l0,0c-0.3,0.1-0.6,0.2-0.9,0.3l-4.6,1.4
	c-0.3,0.1-0.6,0.2-0.8,0.3c-0.1,0-0.3,0-0.4,0l-2.5,0.4c-0.8,0-1.7,0-2.5,0l-0.8-0.3c-1.5-0.5-3.2-0.6-4.4-1.5
	c-3-2.3-6.7-3.2-9.4-6.3c-2.6-3-6.1-5.1-9.2-7.6c-0.1-0.1-0.3-0.3-0.4-0.4c-0.6-0.3-1.1-0.6-1.7-0.9c-0.3-0.3-0.6-0.6-0.8-0.8
	c-2.9-1.5-5.7-2.9-8.6-4.4c-2.1-1.1-4.3-2.1-6.5-3.1c-0.4-0.3-0.9-0.5-1.3-0.8l-4.5-1.8l-0.9-0.3c-0.3-0.2-0.6-0.4-0.8-0.6
	c-1-0.3-1.9-0.6-2.9-0.9c-0.3-0.1-0.6-0.2-0.9-0.3c-0.6-0.2-1.1-0.4-1.7-0.6c-2.3-0.8-4.5-1.6-6.8-2.4c-3-1-6.1-1.9-9.1-2.9
	c-1.3-0.4-2.5-0.9-3.8-1.3c-1.2-0.2-2.4-0.6-3.6-0.7c-3.6-0.5-6.7-2.7-10.4-2.9c-2.8-0.2-5.4-1.5-8.2-2.4c-0.8-0.3-1.6-0.6-2.4-0.7
	c-1.4-0.2-2.9,0.1-4.2-0.4c-4.2-1.6-8.6-2.2-13.1-2.4c-0.3-0.1-0.6-0.2-0.8-0.3c-2.2-0.2-4.5-0.7-6.7-0.7c-6.2,0-12.5,0.1-18.7,0.2
	c-0.2,0-0.5,0-0.6,0.1c-2.7,1.8-5.7,1.8-8.7,2.2c-0.3,0.1-0.6,0.2-0.8,0.3l-5.4,1.4c-0.3,0.1-0.6,0.2-0.9,0.3
	c-1.5,0.5-3,0.9-4.6,1.4c-0.4,0.3-0.9,0.5-1.3,0.8l-1.6,0.5c-0.4,0.3-0.9,0.5-1.3,0.8c-3.9,2-7.8,4.1-11.7,6.1
	c-0.3,0.3-0.6,0.6-0.9,0.9c-3.7,2.9-6.7,6.5-8.8,10.9c-0.2,0.5-0.3,0.9-0.5,1.4c-0.8,3.2-2.1,6.4-2.3,9.6
	c-0.5,6.6-0.2,13.2,1.6,19.7c0,0.1,0,0.2,0,0.3c1.7,3.7,3.4,7.4,4.9,11.1c2.2,5.1,5.9,9,9.3,13c2.7,3.2,5.9,6,9.2,8.5
	c4,3.1,8,6.1,12.8,7.8c0.1-0.1,0.1-0.2,0.2-0.3c0,0.1-0.1,0.2-0.1,0.4c3.3,1.4,6.5,3,9.8,4.1c1.8,0.6,4,0,5.7,0.8
	c2.5,1.2,5,1.4,7.6,1.4c4.1,0,8.3-0.3,12.4-0.4c0.9,0,1.9,0.3,2.8,0.1c2.6-0.4,5.2-1,7.8-1.4c1.9-0.3,3.7-0.6,5.6-0.8
	c0.3-0.2,0.5-0.3,0.8-0.5c1.7-0.2,3.4-0.5,5.1-0.7c2.8-0.4,5.6-0.8,8.4-1.2c1.2-0.2,2.7,0.1,3.6-0.5c2.5-1.9,5.4-1.1,8-2l1.3-0.4
	c0.6-0.1,1.1-0.3,1.7-0.4c0.7-0.1,1.4-0.2,2.1-0.3c0.3,0,0.5-0.1,0.8-0.1c0.6-0.1,1.1-0.2,1.7-0.3c5-1.2,10.2-1.5,15.1-4.2
	c0.4,0.2,1.1,0.6,1.8,0.9c0.8-0.5,1.5-1.3,2.3-1.5c3.2-0.9,6.5-1.6,9.7-2.3c2-0.4,4.3-0.3,6.1-1.2c4-1.9,8.2-2,12.3-2.4
	c-0.1-1.2,0.4-1.3,1.3-0.8h4.6c0.4-0.1,0.8-0.2,1.3-0.3c0.1,0,0.3,0,0.4,0c0.6,0.1,1.1,0.2,1.7,0.4c4.6-0.3,9,1,13.1,3
	c1.2,0.6,2.4,1.2,3.7,1.8c0.4,0.4,0.8,0.8,1.2,1.2c0.1,0.1,0.3,0.1,0.4,0.2c0.1,0.1,0.3,0.2,0.4,0.3c0.3,0.2,0.5,0.4,0.8,0.6
	c0.1-0.1,0.1-0.2,0,0c0.2-0.1,0.1-0.1,0,0c0.5,0.7,1,1.4,1.4,2.1c0.7,0.3,1.3,0.5,2,0.8c0.6,0.5,1.1,1,1.7,1.4
	c0.3,0.3,0.6,0.6,0.8,0.8c0.2,0.1,0.3,0.2,0.5,0.3c0-0.1,0-0.2,0.1-0.3c0,0.1,0,0.2,0.1,0.4c0.3,0.3,0.7,0.7,1,1l0.9,1.2
	c0.2,0.2,0.3,0.4,0.5,0.5c0.4,0.4,0.8,0.8,1.2,1.2l1.7,1.9c0.5,0.5,1.1,1.1,1.6,1.6c0.3,0.2,0.5,0.4,0.8,0.6
	c0.3,0.3,0.6,0.6,0.8,0.9c1.2,1.3,2.3,2.6,3.5,3.9c0.2,0.3,0.5,0.5,0.7,0.8c0.4,0.6,0.9,1.1,1.3,1.7l0.1-0.3c0,0.1,0.1,0.2,0.1,0.4
	c1.8,2.1,3.6,4.1,5.4,6.2c0.2,0.3,0.4,0.6,0.6,0.9c0.3,0.3,0.6,0.6,0.8,0.9c0.3,0.3,0.6,0.6,0.8,0.9c0.3,0.3,0.6,0.6,0.8,0.9
	c0.3,0.3,0.6,0.6,0.8,0.9c1.4,1.5,2.8,2.9,4.2,4.4c0.3,0.4,0.6,0.9,0.9,1.3c0,0.1,0,0.3,0.1,0.4c1.2-0.2,1.8,0.3,1.6,1.7
	c1.2,1.1,2.5,2.1,3.7,3.2c0.3,0.3,0.6,0.6,0.9,0.9c0.2,0.3,0.3,0.6,0.5,0.8c0.4,0.4,0.8,0.9,1.2,1.3l0,0c1.5-0.1,1.8,0.8,1.7,2.1
	c0.4,0.2,0.9,0.3,1.2,0.6c1.8,1.7,3.5,3.5,5.3,5.3c0.1-0.1,0.2-0.1,0.3-0.3c-0.1,0.2-0.2,0.3-0.2,0.4c0.2,0.5,0.4,1.1,0.7,1.4
	c0.8,0.7,1.7,1.3,2.6,2c0.1-0.1,0.2-0.1,0.3-0.3c-0.1,0.2-0.2,0.3-0.3,0.3c0.5,0.6,1.1,1.1,1.6,1.7c0.1-0.1,0.2-0.1,0.3-0.3
	c-0.1,0.2-0.2,0.3-0.3,0.3c0.4,0.4,0.9,0.8,1.3,1.2c0.3,0.4,0.6,0.9,0.9,1.3c1.3,1.3,2.7,2.7,4,4c0.1-0.1,0.2-0.1,0.3-0.3
	c-0.1,0.2-0.2,0.3-0.3,0.3c0.5,0.6,1.1,1.1,1.6,1.7c0.1-0.1,0.2-0.1,0.3-0.3c-0.1,0.2-0.2,0.3-0.3,0.3c1,2.2,2.7,3.5,4.7,4.7
	c0.3,0.3,0.6,0.6,0.9,0.9c0.3,0.3,0.6,0.6,0.8,0.9l0.8,0.9c4.6,4.7,9.2,9.4,14.1,14.5c-2.6,1.4-5,2.7-7.3,4
	c-0.7,0.4-1.3,0.7-1.9,1.2c-3.3,2.5-6.4,5.3-10.7,5.8c-0.4,0-0.8,0.9-1.1,1.3c-0.2,0.3-0.3,0.8-0.5,1c-1.4,0.9-2.9,1.7-4.3,2.5
	c-1,0.6-2,1.1-2.9,1.7c-3.8,2.3-7.7,4.5-11.4,7c-1.4,1-2.5,2.5-4.4,2.5c-0.1,0-0.2,0.2-0.3,0.3c-0.6,0.6-1.1,1.2-1.8,1.7
	c-1.1,0.8-2.3,1.7-3.5,2.4c-3,1.8-6,3.7-9.2,5.1c-1.3,0.5-2.7,0.7-3.5,2c-0.3,0.1-0.6,0.2-0.9,0.3c-1.7,0.5-3.3,0.9-5,1.4
	c-0.4,0.3-0.8,0.6-1.2,0.9c-1.9-0.2-3.8-0.1-5.6-0.5c-1.9-0.5-3.8-2.2-5.6-2.2c-4.1,0-6.2-4-9.9-4.8c-0.6-2.4-2.7-2.3-4.4-2.7
	c-0.1-0.1-0.3-0.2-0.4-0.4c-0.3-0.2-0.6-0.3-0.9-0.5c-0.3-0.3-0.5-0.5-0.8-0.8c-0.8-0.3-1.6-0.4-2.3-0.9c-1.3-0.9-2.5-2.6-3.9-2.9
	c-3.7-0.7-5.5-5.3-9.6-5c-0.1,0-0.1-0.1-0.2-0.1c-2.9-1.6-5.9-3.2-8.8-4.7c-0.1-0.1-0.3-0.2-0.4-0.3c-2.9-1.3-5.9-2.6-8.8-3.9
	c-0.3-0.2-0.6-0.3-0.9-0.5c-3.6-1.4-7.3-2.9-11.2-4.4c-0.9-0.1-2.2-0.1-3.4-0.3c-0.7-0.1-1.4-0.4-2.1-0.6c-0.2-0.2-0.5-0.4-0.7-0.7
	c-1.6-0.2-3.1-0.4-4.7-0.6c-0.4-0.2-0.8-0.3-1.2-0.5c-1.9-0.2-3.8-0.3-5.7-0.5c-3.9-0.2-7.7-0.4-11.6-0.6c-1.5-0.1-3-0.4-4.5-0.6
	c-0.4,0.4-0.9,0.8-1.3,1.2c-1,0-1.9,0.1-2.9,0.1c-0.4,0.1-0.8,0.2-1.3,0.4c-0.1,0-0.3,0-0.4,0c-0.4,0.1-0.9,0.2-1.3,0.4
	c-1.7,0.3-3.3,0.7-5,1c-0.3,0.1-0.6,0.2-0.9,0.3c-1.8,0.8-3.6,1.6-5.4,2.4c-6.1,2.6-9.6,7.6-11.7,13.8c-2.4,7.1-1.4,14.3,0.5,21.5
	c0.1,0.3,0.2,0.6,0.3,0.9c2.6,8.5,7.1,15.8,12.9,22.3c1.6,1.7,3.7,2.9,5.5,4.4c0.3,0.3,0.5,0.6,0.8,0.9c1.9,1.4,3.7,2.9,5.6,4.3
	c0.2,0.2,0.5,0.3,0.7,0.5c1.4,0.7,2.7,1.7,4.1,2.1c4.1,1.3,8.1,2.5,12.3,3.5c3.2,0.8,6.4,1.3,9.6,1.8c5.6,0.8,10.6,3.3,15.4,6.2
	c0.3,0.1,0.6,0.2,0.9,0.4c1.5,0.8,3,1.7,4.5,2.5c1.2,0.6,2.9,0.8,3.7,1.7c1.6,2,3.9,2.5,5.9,3.5c3,1.4,6,2.7,9.4,3.1
	c2.9,0.4,5.8,1.1,8.8,1c1.2,0,2.4-0.3,3.7-0.4c0.4-0.1,0.8-0.3,1.2-0.4c2.2-0.5,4.4-0.7,6.4-1.5c3.4-1.3,6.9-2.6,10.2-4
	c4.3-1.8,9-2.3,13.6-3.4c0.3-0.1,0.5-0.3,0.7-0.4c0.5-0.3,0.9-0.7,1.5-0.8c1.7-0.2,3.4-0.3,5.1-0.3c0.2,0,0.4,0.4,0.6,0.7
	c0.3,0.1,0.6,0.3,0.9,0.4c6,1.7,11.1,5.1,15.6,9.4c5.3,5.1,10.2,10.5,15.3,15.7c4.3,4.5,8.7,8.9,13,13.4c0.2,0.3,0.4,0.6,0.6,0.9
	c3,2.9,5.9,5.7,8.9,8.6c2.8,2.7,5.7,5.3,8.5,8c0.2,0.2,0.3,0.3,0.5,0.5c0.3,0.3,0.5,0.6,0.8,0.8c0.2,0.3,0.4,0.6,0.7,0.9
	c0.5,0.4,1,0.9,1.5,1.3c1.6,1.5,3,3.1,4.7,4.5c1.6,1.3,3.3,2.3,5,3.5c1,0.7,1,2.7,2.8,2.2c0.2,0.3,0.5,0.6,0.7,0.8
	c0.5,0.3,0.9,0.6,1.4,0.8c0.2,0.3,0.5,0.6,0.7,0.9c0.6,0.3,1.2,0.7,1.7,1c3.3,2.3,6.5,4.6,9.7,6.9c0.3,0.3,0.5,0.6,0.8,0.8
	c0.4,0.2,0.9,0.4,1.3,0.5c0.2,0.3,0.5,0.5,0.7,0.8c0.7,0.4,1.3,0.8,2,1.1c2,1.1,4.1,2.2,6.1,3.3c0.3,0.3,0.6,0.5,0.8,0.8
	c1.9,0.9,3.8,1.7,5.7,2.6c3.6,1.6,7.1,3.4,10.7,4.8c2.4,1,5,1.4,7.4,2.4c5.7,2.3,11.5,3.8,17.5,4.6c5.5,0.8,10.9,0.8,16.3-1.2
	c4.3-1.6,7.3-4.6,9.4-8.6c1.9-3.7,2.7-7.6,2.8-11.6c-3.1-1.6-6.1-3.4-9.3-4.8c-6.1-2.8-13.3-3.8-19.9-5.2
	c-11.3-2.3-21.6-3.7-31.9-9.2c-0.8-0.4-1.6-0.9-2.5-1.3c-9.8-3.8-19.2-8.7-27.8-15c-6.5-4.7-12.6-10-18.1-15.9
	c-5.7-6.1-10.5-12.8-15.6-19.3c-0.6-0.5-1.2-1.1-1.9-1.6c-4.3-3.4-7.9-7.8-11.9-11.7c-3.6-3.5-5.4-8-7.6-12.4
	c-0.2-0.3-0.2-0.7-0.2-1c-0.6-4.7,1.4-8.2,4.7-11.2c0.3-0.3,0.5-0.5,0.8-0.8c0.3-0.3,0.6-0.7,0.9-1l0.7-0.4c4-2.8,8.1-5.6,12.1-8.4
	c0.3-0.1,0.6-0.3,0.9-0.4c5.3-2.8,10.3-6.2,15.7-8.8c4.3-2.1,8.5-4.7,12.4-7.5c4-2.8,8.3-4.8,12.9-6c2.2-0.6,4.5-1,6.8-1.3
	c1.1-0.2,2.3-0.2,3.3,0.1c4.3,1.1,8.6,2.3,12.9,3.4c0.3,0.1,0.6,0.2,0.9,0.3c1.2,0.5,2.5,1,3.7,1.4c0.3,0.2,0.6,0.3,0.9,0.5
	c1.1,0.4,2.3,0.8,3.4,1.2c1-0.8,1.2-0.2,1.3,0.8c4.2,0.8,7.7,3.4,11.7,4.5c0.3,0.1,0.6,0.2,0.9,0.3l3,0.9c0.4,0.3,0.8,0.6,1.2,0.8
	c2.5,1,5,2.1,7.5,3.1c0.3,0.2,0.5,0.3,0.8,0.5c0.2,0.1,0.3,0.2,0.5,0.3c1.1-0.8,1.2,0,1.2,0.9c0.3-0.1,0.7-0.4,0.9-0.3
	c2.9,1.3,5.8,2.6,8.6,3.9c0.1,0.1,0.3,0.2,0.4,0.3c2.8,1,5.6,2,8.4,3c1.4,0.5,2.8,1.1,4.2,1.5c3.9,1.2,7.8,2.3,11.7,3.5
	c0.3,0.1,0.6,0.2,0.8,0.3l6.7,1.4c0.3,0.1,0.6,0.2,0.8,0.3c0.5,0.2,1,0.5,1.5,0.5c2.3,0.2,4.6,0.4,6.9,0.5c0.4,0.1,0.8,0.2,1.3,0.4
	c0.8,0,1.7,0,2.5,0c2-0.5,4-1.2,5.9,0.4c0.4,0,0.8,0,1.2,0c0.6-0.1,1.1-0.2,1.7-0.3c2.7-0.2,5.5-0.1,8.2-0.5
	c3.8-0.7,7.6-1.7,11.4-2.6c0.3-0.1,0.6-0.2,0.9-0.3c1.4-0.4,2.8-0.9,4.2-1.3c0.4-0.3,0.8-0.5,1.2-0.8l2.9-1.4l0.9-0.4
	c0.9-0.5,1.7-0.9,2.6-1.4c0.1-0.1,0.2-0.3,0.4-0.4c1.8-1.2,3.6-2.3,5.4-3.5c0.2-0.1,0.3-0.2,0.5-0.3c0.2-0.2,0.4-0.4,0.5-0.5
	c0.3-0.1,0.5-0.2,0.8-0.4c1.4-1.3,2.9-2.5,4.3-3.9c2.1-2.1,4.1-4.3,5.9-6.6c1.5-1.9,2.6-4.1,3.9-6.1c0.2-0.5,0.4-0.9,0.5-1.4
	c1.6-4,3.6-7.9,4.1-12.4c0.2-2.1,0.9-4.2,1.2-6.3C527.2,1109,527,1100.6,525,1092.3z M195.3,987.5c-0.1,0.4-0.3,1-0.6,1
	c-2.6,0.7-5.2,1.4-7.8,2c-0.3,0.1-0.6,0.2-0.8,0.3l-17.2,4.9c-0.4,0.3-0.9,0.5-1.3,0.8c-1.7,0.3-3.3,0.7-5,1
	c-0.3,0.2-0.6,0.5-0.9,0.7c-1.7,0.3-3.5,0.6-5.2,1c-1.8,0.5-3.6,1.1-5.5,1.6c-2.4,0.6-4.8,1.2-7.3,1.8l-1.3,0.4
	c-2.1,0.5-4.2,0.9-6.3,1.4c-0.4,0.1-0.8,0.3-1.3,0.4c-6,1.5-12,2.7-18.2,3.1c-2.4,0.2-4.7,0.9-7.1,1.1c-1.9,0.1-3.9-0.3-5.8-0.2
	c-4.8,0.3-9.4-0.9-14.1-1.8c-3.7-0.7-7.3-1.8-10.9-2.8c-5.2-1.5-10.1-3.8-14.8-6.5c-3.8-2.1-7.2-4.7-9.9-8.1
	c-1.9-2.3-3.4-5.1-4.7-7.9c-1.4-3.2-1.6-6.5-1.3-10.2c0.6-7.3,4.3-12,9.6-16.1c2.1-1.7,4.4-2.9,6.9-3.6c0.3-0.3,0.6-0.5,0.9-0.8
	c2.4-0.6,4.9-1.4,7.3-1.9c3.8-0.8,7.6-1.5,11.4-2.1c2-0.3,4-0.4,6-0.5l0.8-0.3c1,0,2,0,2.9,0c2.8-0.2,5.6-0.4,8.4-0.5
	c0.9,0,1.9,0.4,2.8,0.6c1.1-0.1,2.3-0.1,3.4-0.2c0.6,0.1,1.1,0.2,1.7,0.3c4.9,0.5,9.8,0.9,14.6,1.4c1.9,0.2,3.9,0.3,5.8,0.5
	c0.3,0,0.6,0.2,0.9,0.4c1.2,0.6,2.3,1.4,3.5,1.8c2.5,0.8,5,1.6,7.5,2.2c2.3,0.5,4.2,2.1,6.3,2.6c3.7,1,6.7,3.6,10.4,4.4
	c0.4-0.2,0.8-0.5,1.1-0.7c0.2,0.5,0.4,1,0.6,1.5c4.2,1.7,8.5,3.5,12.7,5.2c3.4,1.4,6.8,2.7,10.2,4.1c1.3,0.6,2.5,1.5,3.7,2.2
	c0.1-0.1,0.1-0.2,0.2-0.3c0,0.1-0.1,0.2-0.1,0.4c1.9,2,4.1,3.8,5.7,6C195.4,981,196.4,984.1,195.3,987.5z M216.2,1161.1
	c0,0.3-0.4,0.8-0.8,0.9c-5.4,1.9-10.8,3.8-16.3,5.5c-5.7,1.7-11.6,2.4-17.5,2.4c-4.4,0-8.7,0-13.1,0c-0.3-0.1-0.6-0.2-0.8-0.4
	c-5.7,0.4-11.2-1.4-16.7-2.5c-6.2-1.2-12.1-3.5-18.1-5.5c-1.3-0.4-2.5-1.2-3.7-1.8c-0.3-0.3-0.6-0.6-0.8-0.8c-2.8-1-4-3.7-5.7-5.9
	c-3-4.2-2-8.6-0.7-13.1c1.4-4.7,4.5-8,8.1-10.9c0.3-0.3,0.6-0.6,0.9-0.8c7.1-3,14.2-3,21.5-0.8c4.1,1.2,8.3,2.4,12.4,3.6
	c4.7,1.4,9.5,2.8,14.2,4.2c0.3,0.1,0.6,0.2,0.9,0.3c6,2.1,12.1,4.2,18.1,6.2c4.4,1.4,8.2,4.1,11.9,6.7c2.6,1.8,4.4,5,6.1,7.9
	C216.7,1157.7,216.2,1159.6,216.2,1161.1z M508.6,1125c-1.6,2.3-3.6,4.3-5.4,6.4c-0.3,0.3-0.5,0.6-0.8,0.9c-1.8,1.3-3.6,2.8-5.6,4
	c-1.4,0.8-3,1.2-4.6,1.6c-4.5,1.2-8.9,2.7-13.4,3.4c-3.7,0.6-7.6,0.3-11.5,0.4c-4.4,0.1-8.9,0.2-13.3,0.1c-0.8,0-1.5-1-2.3-1.1
	c-5.1-1-10.3-1.6-15.4-2.7c-2.7-0.6-5.2-1.9-7.8-2.8c-2.9-1-5.9-1.9-8.8-2.8c-0.4-0.3-0.8-0.5-1.2-0.8c-2.7-0.2-4.9-1.6-7.3-2.7
	c-2.6-1.1-5.3-2.1-8-3.1c-0.4-0.3-0.7-0.5-1.1-0.8c-3.8-1.1-7.7-2-11.5-3.2c-5.4-1.7-10.2-4.5-13.2-9.8c-0.2-0.4-0.4-0.9-0.4-1.4
	c0-3.1,0-6.3,0-9.6c4.3-1.6,8.6-3.1,12.9-4.7c0.3-0.3,0.6-0.5,0.9-0.8c1.2-0.3,2.5-0.7,3.7-1c0.3-0.3,0.6-0.5,0.9-0.8
	c1.1-0.3,2.2-0.6,3.3-1c0.3-0.3,0.6-0.5,0.9-0.8c1.2-0.3,2.5-0.7,3.7-1c0.3-0.3,0.6-0.5,0.9-0.8c1.2-0.3,2.5-0.7,3.7-1
	c0.3-0.1,0.6-0.2,0.9-0.3c3.1-1,6.1-2,9.2-3.1c2.3-0.8,4.5-1.9,6.7-2.8c2.3-1,4.5-2.8,6.8-2.9c2.5,0,4.5-1.3,6.8-1.8
	c1.2-0.2,2.4-0.6,3.5-0.9c0.4-0.3,0.8-0.5,1.3-0.8c2.6-0.5,5.2-1,7.8-1.4c5-0.9,10.1-1.7,15.1-2.5c0.5-0.1,0.9-0.3,1.3-0.5
	c0.4-0.4,0.8-1,1.2-1c2.4,0,4.8,0.1,7.2,0.2c0.6,0.4,1.1,0.8,1.7,1.2c5.3,0,10.4,0.9,15.3,2.8c3.6,1.4,7.1,3.2,10.5,5.4
	c3.7,2.5,6,5.9,8.5,9.3c1.4,1.9,2.1,4.6,2.5,7C516.1,1107.2,514.3,1116.6,508.6,1125z"/>
<path class="st0" d="M158.7,1035c-0.1-0.1-0.2-0.1-0.3-0.2C158.5,1034.8,158.6,1034.9,158.7,1035z"/>
<g>
	<path class="st0" d="M489.9,1282.7c-2.4,0.5-4.7,0.5-6.7-0.6c-1.7-0.9-3.1-1.9-4-4c-0.9-1.8-1.9-3.4-2.9-5.3
		c-0.1-0.4-0.3-0.7-0.4-1.2c0-0.1-0.1-0.4-0.2-0.7c-1.3-0.1-1-2.1-1.7-2.9c-1.6-2.8-3.1-5.9-4.6-8.8c0-0.1-0.1-0.1-0.4-0.3
		c-0.3-0.7-0.5-1.3-0.8-2.1c-0.1-0.1-0.5-0.4-0.6-0.6c-0.1-0.4-0.5-0.5-0.6-0.9s-0.3-0.5-0.4-0.9c-0.3-0.5-0.4-0.9-0.8-1.4
		c-0.3-0.5-0.9-1-1.1-1.7c-0.7-1.7-1.9-2.9-2.8-4.3c-1.4-2.6-3.6-4.4-5.3-6.6c-0.9-1.2-1.7-2.5-2.8-3.5c-1.5-1.7-3.1-3.1-4.5-4.6
		c-2-1.9-3.8-4.1-5.9-6c-3.3-3.1-6.8-6-10.4-8.8c-2.4-1.9-5.2-3.5-7.8-5.1c-2.6-1.6-5.4-3.1-8-4.4c-1.7-1-3.2-1.7-4.9-2.6
		c-2.9-1.1-5.9-2-9.2-1.3c-2.9,0.4-5.7,1.1-8.5,1.7c-5.5,1.2-11,3.2-16.6,3.2c-1.6,0.1-3.2-0.2-4.7-0.8c-5.6-2.4-11.1-4.8-16.6-7.4
		c-0.9-0.4-1.7-0.9-2.6-1.2c-3.2-1.5-6.6-2.8-9.8-4.2c-1.2-0.6-2.5-1.2-3.8-0.7c-0.4-1.2-1.7,0.1-2.1-1.1c-0.1-0.4-0.9-0.1-1.5-0.1
		c-1.4-0.3-2.8-0.5-4.2-0.6c-1.5-0.1-3,0.2-4.5,0.1c-0.1,0.1-0.5,0.2-0.7,0.3c-1.2,0.1-2.2,0.4-3.4,0.5c-0.1,0-0.1,0-0.3,0.2h-0.1
		c0,0-0.1,0-0.1,0.1c-1.2,0.5-2.7,0.7-4,1c-2,0.7-4.3,1.3-6.3,2.2c-2.3,0.8-4.6,2-6.9,3.1c-1.8,0.9-3.5,1.8-5.3,2.6
		c-0.1,0-0.1,0-0.5,0.2c0.6-1.3,1.1-2.4,2.5-3c2-1.1,4.1-2.4,6.2-3.4c2.4-1.2,4.7-2.3,7.3-3.1c4.4-1.3,9-2.9,13.5-2.8
		c3.1,0.2,6.3,0.6,9.4,0.7c1.3,0.1,2.5,0.5,3.7,0.7c1.9,0.4,3.7,0.9,5.5,1.6c8.6,3.7,17.1,7.6,25.8,11.3c0.5,0.2,0.7,0.4,1.2,0.6
		c0.3-0.2,0.7-0.3,0.8-0.4c0.1,0,0.3-0.2,0.5,0c2.1,2.3,4.7,1.9,7.6,1.5c2.1-0.4,3.9-0.6,6-0.9c0.1,0,0.1,0,0.3-0.2
		c1.6-0.4,3.3-1,4.9-1.3c0.1,0,0.1,0,0.3-0.2c0.5-0.2,0.9-0.3,1.4-0.3c0.1,0,0.1,0,0.3-0.2c2.2-0.5,4.6-1.1,6.7-1.4
		c2.8-0.7,5.6-0.4,8.4,0c0.5,0,1.2-0.1,1.3-0.1c0.7,0.4,1.5,0.7,2.1,1.1c2,1,4,1.9,5.9,2.9c0.5,0.2,1,0.1,1.5,0.1
		c0.1,0,0.5,0.2,0.5,0.4c0.8,1.4,1.7,2.3,3.3,1.9c0.1,0,0.4,0.3,0.3,0.4c0.4,1.5,1.7,1.4,2.4,2.2c0.7,0.5,1.7,0.9,2.5,1.2
		c0.4,0.3,0.6,0.6,0.9,0.9c1.1,0.9,2.3,1.8,3.5,2.8c1.7,1.3,3.5,2.2,5,3.5c1.7,1.4,3.2,3.2,4.8,4.9c0.6,0.5,1.1,0.9,1.7,1.4
		c0.1,0.1,0.3,0.5,0.3,0.7c1.8,1.9,3.4,3.7,5.3,5.7c0.7,0.9,1.7,1.4,2.4,2.3c0.3,0.4,0.6,0.6,0.9,1.2c0.1,0.1,0.3,0.5,0.4,0.7
		c1.4,1.6,2.7,3.1,4.1,4.7c0,0.1,0,0.1,0.1,0.4c1.9,2.9,4,5.5,5.9,8.3l0.1,0.1l0.1,0.1c0,0,0,0.1,0.1,0.1c0.1,0.4,0.4,0.9,0.5,1.2
		c0.1,0.1,0.1,0.4,0.3,0.5c0,0,0,0.1,0.1,0.1s0.3,0,0.5,0.2l0.1,0.1c0,0.1,0,0.1,0.1,0.4c0.1,0.4,0.4,0.9,0.5,1.2
		c0.1,0.1,0.1,0.1,0.3,0.4l0.1,0.1l0.1,0.1c0.3,0.5,0.6,0.9,0.8,1.4c0.1,0.1,0.4,0.3,0.3,0.4c0.8,1.4,1.4,2.8,2.2,4.2
		c0.1,0.4,0.4,0.9,0.5,1.2c0.1,0.1,0.1,0.1,0.3,0.4c0.8,1.4,1.3,2.8,2.1,3.9c0,0,0,0.1,0.1,0.1c0.8,1.4,1.4,2.8,2.1,4.2
		c0,0.1,0.1,0.1,0.1,0.4c0.1,0.1,0.1,0.4,0.3,0.5c0,0.1,0.1,0.1,0.1,0.4c0.4,0.9,0.9,1.7,1.2,2.4c0.1,0.4,0.5,0.5,0.6,0.9
		c0.3,0.4,0.4,0.7,0.7,1c0.1,0.1,0.3,0.5,0.4,0.7c1.6,2.3,3.8,3.5,6.1,4.3c0.4,0.3,0.8-0.2,1.3-0.2c0.6,0.1,1.2-0.1,1.7-0.1
		c0.6,0.1,1.3-0.1,1.8,0c0,0.1-0.2,0.3-0.2,0.6c-1.1,0.5-2.2,0.7-3.3,1.1C490,1282.7,490,1282.7,489.9,1282.7z"/>
	<path class="st0" d="M345.8,1203c0.1,0.1,0.1,0.4,0.3,0.4c0.1,0.1,0.5,0.2,0.6,0.4c0.7,1,1.5,2.5,1.9,3.8c0.1,0.1,0.1,0.4,0.3,0.4
		c0.7,2.4,0.9,4.7,0.9,7.4c0,0.1,0,0.3-0.1,0.7c-0.2,1.1-0.4,2.5-0.6,3.7c-0.2,0.6-0.2,1-0.4,1.5c-0.6,2.5-1.8,4.4-3,6.2
		c-0.6,1.1-1.7,1.9-2.6,2.8c-1.6,1.8-3.4,2.8-5.3,3.7c-1.1,0.6-2.5,0.1-3.8,0.2c-0.1,0-0.4-0.3-0.6-0.2c-0.1,0-0.1,0-0.3,0.2
		c-0.3,0.2-0.5,0.2-0.8,0.3c-0.9-0.2-2-0.3-2.9-0.7c-1.2-0.6-2.7-1.2-3.5-2.7c-1.3-2.2-3.1-3.9-3.3-7.3c-0.1-0.1-0.1-0.5-0.3-0.7
		c0.1-2.2-0.4-4-0.1-6.4c0.5-2.3,0.9-4.4,1.6-6.6c0.2-0.7,0.4-1.1,0.5-1.8c0.1-0.1,0.3-0.2,0.7-0.3c1.4-2.5,3-4.8,4.9-6.2
		c2.7-1.8,5.6-2.9,8.4-2.8c2.4,0.1,4.6,1.5,6.7,2.9C345.4,1202.6,345.5,1202.9,345.8,1203z M331.9,1231.8c5.6,2.4,11.9-1.9,14.9-8.9
		c3.3-8.2,0.8-15.9-4.6-18.2c-5.7-2.5-12.3,1.5-15,8.9C324.1,1221.5,326.4,1229.1,331.9,1231.8z"/>
	<path class="st0" d="M441.8,1257.7c-0.6,2.2-0.9,4.2-1.6,6.4c-0.6,1.9-1.4,2.8-2.5,5.1c-0.6,1.3-1.7,1.9-2.5,3.1
		c-0.2,0.6-0.8,0.4-1.2,0.7c-0.1,0.1-0.4,0.3-0.7,0.4c-1,0.6-2.1,1.2-3,1.8c-0.7,0.3-1.2,0.7-1.9,0.6c-2.2-0.2-4.5-0.2-6.6-0.9
		c-1.9-0.4-3.2-2.1-4.4-4c-0.4-0.9-0.9-1.6-1.3-2.5v-0.1c-1-2-1.6-4.1-1.6-6.8c0-1.6-0.2-3.2,0.2-4.9c0.8-2.7,1.3-5.6,2.9-7.9
		c2.6-3.3,5.3-6.8,8.8-7.4c1.8-0.2,3.9-0.7,5.8-1.1h0.1c1.8,1.3,3.6,2.6,5.5,3.9c0.7,0.5,1.1,1.7,2.1,2.3c0.6,0.2,0.7,1.7,1,2.8
		c0.1,0.5,0.3,1.1,0.4,1.3c0.2,0.7,0.4,1.3,0.6,2c0.2,0.7,0.1,1.3,0.2,1.9C442,1256,441.9,1256.8,441.8,1257.7z M431.9,1244.4
		C431.9,1244.5,431.9,1244.5,431.9,1244.4c-0.3,0-0.5,0-0.8-0.2c-3.1-1.2-6.2-0.8-9.2,2c-2.8,2.4-4.7,5.8-5.7,9.9
		c-0.9,4.1-0.6,7.5,0.9,10.4c1.3,2.8,3.4,4.8,6.1,5.5c3,0.8,6.1-0.1,9-2.4c2.9-2.5,4.8-5.9,5.7-10.3c0.8-4.1,0.3-7.7-1.3-10.6
		c-0.3-0.5-0.3-1.3-0.5-1.6C434.6,1246.1,433.3,1245.3,431.9,1244.4z"/>
	<path class="st0" d="M405.3,1250.8c0.1,0,0.3-0.2,0.5-0.2c1.4,1.6,3.1,1.6,4.7,1.9c0.9,0.2,1.9,0.8,2.9,1.2c0.1,1.3,0.2,3,0.3,4.9
		c0,0,0,0.1-0.1,0c-1.6-0.6-3.5-1-5.2-2c-1.2-0.7-2.6-0.7-4-1.3c-1.5-0.6-2.9-1.1-4.3-1.9c-0.5-0.2-1-0.1-1.7-0.3
		c-5.2-2-10.3-4-15.6-6.3c-8.4-3.6-16.7-7.4-25.2-11c-4-1.8-8-3.4-11.9-5c-0.1-0.1-0.4-0.3-0.5-0.4c0.4-0.3,1.1-0.6,1.6-0.8
		c0.3-0.2,0.4-0.3,0.8-0.4v-0.1v0.1c0.5,0,0.9,0.1,1.4,0.1c2.2,1,4.5,1.8,6.7,2.9c0.1,0,0.7-0.2,0.8-0.2c0.1,0.1,0.3,0.4,0.5,0.4
		c0.1,0.1,0.1,0.4,0.3,0.5c2.2,1,4.5,1.8,6.7,2.6c0.3,0,0.7-0.2,0.9-0.3c0.1,0,0.1,0.1,0.4,0.3c0.1,0.4,0.3,0.7,0.6,0.9
		c2,0.7,3.7,2.4,6,2.1c0.3,0,0.6,0.5,1,0.8c1.5,0.6,3.3,1,4.9,1.5c0.1,0,0.4,0.3,0.6,0.4c1.2,0.9,2.4,1.9,4,1.4
		c0.1,0,0.4,0.3,0.5,0.2c0.5,0.4,0.9,0.9,1.6,1c2,0.2,3.5,1.6,5.4,2.3c0.1,0,0.3,0,0.5,0c0.1,0,0.4,0.3,0.6,0.2
		c0.7,0.4,1.5,0.6,2.1,1c0.1,0,0.5,0,0.6,0.1h0.1c0.1,0,0.4,0.3,0.4,0.3c0.9,0.2,1.8,0.4,2.6,0.7c0.6,0.2,1.1,0.8,1.7,1
		c0.5,0.2,0.9,0.1,1.4-0.1c0.1,0,0.1,0.1,0.4,0.3c0.6,0.4,1.2,0.7,2,1.1c0.7,0.4,1.8,0.4,2.5,0.8
		C404.9,1251,405.1,1251,405.3,1250.8z"/>
	<path class="st0" d="M527.8,1291.7c-1.1-1.7-2.2-3.5-3.4-5.2c-1.6-2.8-3.4-5.2-5.7-7.3c-2.4-2.2-5.1-3.2-8.3-3.5
		c-1-0.1-2.3,0.1-3.5,0.2c0,0-0.1,0-0.1,0.1c-0.1,0-0.1,0-0.3,0c0,0-0.1,0-0.1,0.1c-0.1,0-0.4-0.3-0.6-0.2c2-1.1,4.1-1.4,6-1.7
		c1.6-0.2,3.1-0.2,4.5,0.2c1.5,0.5,3.1,1.2,4.5,2.1c1,0.6,2,1.1,2.8,2c1.1,1,1.7,2.3,2.7,3.5c0.1,0.1,0.3,0.4,0.5,0.5
		c0,0,0,0.1,0.1,0.1c1.2,2.1,2.5,4.1,3.7,6.2l0.1,0.1c1.1,1.7,2,3.7,3.4,5c0.9,0.9,1.6,1.9,2.3,2.9c1.7,2.5,4.2,3.4,6.7,4.6
		c0.7,0.4,1.6,0.6,2.3,1.2c0.7,0.4,1.6-0.1,2.2-0.1c0.6,0.1,1,1.4,1.7,1.4c0.9,0.1,1.7-0.2,2.5,0.7c0.5,0.5,1.5,0.3,2.5,0.5
		c0.5,0,0.9,0.9,1.2,0.7c1.1-0.7,1.6,0.6,2.7,0.5c1.2-0.1,2.1,0.7,3.3,1c0.3,0,0.7-0.2,0.9,0c0.1,0,0.5-0.2,0.7-0.2
		c0.9,1.4,2.5,0.8,3.5,1.4c0.4,0.3,0.8,0.2,1.4,0.5c-1.3,1.3-2.5,2.2-3.8,1.8c-1-0.1-2-0.8-3.1-1.1c-1.3-0.2-2.4-0.4-3.7-0.6
		c-0.8-0.2-1.5-0.6-2.4-0.8c-1.5-0.5-3-0.8-4.4-1c-0.1,0-0.3,0-0.5,0c-1.2-0.5-2.6-1.1-3.9-1.4c-0.8-0.2-1.5-0.6-2.1-0.8
		c-0.5-0.2-0.9-0.1-1.4-0.1c-0.1,0-0.3,0-0.3,0c-1.4-0.7-2.6-1.9-3.9-2.4c-2.3-0.7-3.8-2.5-5.6-4s-3-4-4.5-6.1
		C527.9,1292.3,527.9,1292,527.8,1291.7z"/>
	<path class="st0" d="M365.9,1210.7c-1.1-0.6-2.3-1.2-3.3-1.9c-0.4-0.3-0.6-0.5-1.1-0.8c-2.1-1.1-4.2-2.3-6.3-3.4
		c-0.4-0.3-0.6-0.4-1-0.6c-0.6-0.2-1.1-0.6-1.7-0.9c-0.4-0.3-0.6-0.4-1-0.6c-3.5-2.2-7.3-3.4-11.3-4.5c-0.5,0-0.8-0.2-1.3-0.2
		c-1.4-0.5-2.8-0.9-4.3-0.7c-0.9,0-1.9-0.3-2.7-0.4c-1-0.1-2.2,0-3.2,0c-1.4,0.1-2.8,0-4.3,0.1c-0.1,0.1-0.3,0.3-0.7,0.3
		c-0.4-0.3-0.5-0.4-0.7-0.4c0-0.1,0-0.1,0-0.3c0.3-0.2,0.7-0.2,0.9-0.3c0.1,0,0.5-0.2,0.7-0.2c3.8-0.7,9.4-0.6,12.8,0.3
		c2,0.4,4,1.3,6.2,1.4c1.9,0.2,3.4,1.3,5.1,1.9c1.6,0.6,3.2,1.7,4.9,2.7c1.4,0.7,3,1.3,4.3,2.3c2.6,1.3,5,2.8,7.6,4.5
		c0.1,0,0.4,0.3,0.5,0.2c3.7,1.8,7.2,3.7,10.9,5.5c0.1,0.1,0.3,0.4,0.5,0.5c1.9,0.8,3.7,1.8,5.6,2.5c0.1,0.1,0.3,0.4,0.5,0.5
		c3,1.3,5.8,2.5,8.8,4c0.1,0,0.4,0.3,0.6,0.2c3.8,1.8,7.6,3.4,11.4,5.2c0.4,0.3,0.5,0.2,0.7,0.4c2.2,1,4.6,2.2,7.1,3.1
		c1.4,0.6,2.8,1.1,4.1,1.5c-0.8,0.6-1.7,1.4-2.2,1.9c-0.4,0.3-0.9,0.3-1.4,0.1c-1.5-0.6-2.9-1.2-4.5-1.8c-0.5-0.2-0.9-0.4-1.2-0.6
		c-5.2-2.2-10.3-4.6-15.5-6.7c-1.1-0.3-2.1-0.8-3.1-1.2c-0.3-0.4-0.6-0.6-0.8-1.2c-1.2-0.5-2.6-0.8-3.9-1.3
		c-0.3-0.4-0.4-0.7-0.7-0.9c-0.6-0.2-1.4-0.6-2-0.8c-0.4-0.3-0.5-0.5-0.7-0.8c-0.5,0-0.9,0-1.3-0.2c-0.9-1.2-2.1-1-3.2-1.7
		c-0.3-0.4-0.4-0.7-0.7-0.9c-0.6-0.2-1.3-0.2-1.8-0.4c-0.4-0.3-0.6-0.4-1-0.6c-0.5-0.4-0.7-0.5-1.2-0.9c-0.1-0.1-0.1-0.4-0.3-0.5
		c-0.1-0.1-0.4-0.3-0.6-0.4c-0.5,0-0.9-0.2-1.4-0.3c-0.4-0.3-0.6-0.4-1-0.8c-0.5-0.2-0.9-0.4-1.4-0.7
		C366.5,1211.2,366.3,1210.8,365.9,1210.7z"/>
	<path class="st0" d="M464.4,1255.2c0.8-0.3,0.9,0.2,1.2,0.9c0.1,0.4,0.4,0.7,0.7,1c0.4,0.7,0.9,1.4,1.2,2.1c0.1,0.1-0.1,0.7-0.1,1
		c-4.2,1.7-8.1,3.3-12.3,3.2c-3.9,0.1-7.9,0.4-12-0.2c-0.1-1.2,0-2.6-0.2-3.6c0-0.1,0-0.3,0-0.5c0-0.1,0.2-0.3,0.2-0.6
		c1.4-0.2,2.9-0.4,4.2-0.5c0.8-0.2,1.4,0.1,2.2,0c1.4-0.1,2.8-0.1,4.3-0.4c2.4-0.4,4.9-0.8,7.2-1.3h0.1c0.5-0.2,0.8-0.3,1.2-0.6
		C463.3,1255.8,464,1255.5,464.4,1255.2z"/>
	<path class="st0" d="M442.4,1237.6c-1-0.6-1.7-1.1-2.6-1.9c-0.1,0-0.4-0.3-0.4-0.3c-0.5-0.2-0.9-0.4-1.2-0.6
		c-0.7-0.4-1.5-0.6-2.1-1c-1.5-0.5-2.9-0.9-4.5-1.4c-0.6-0.2-1.3-0.2-1.8-0.4c-0.5,0-0.9-0.1-1.4-0.1c-0.3,0-0.6-0.1-0.9-0.1
		c-0.5,0-0.8-0.1-1.3,0.1c-0.8-0.1-1.6,0.1-2.3,0c-0.1,0-0.5,0-0.6-0.1c0-0.1,0.2-0.3,0.2-0.7c2.2,0,4.3-0.2,6.5-0.2
		c0.9,0,1.9,0.2,2.7,0c0.3,0,0.5,0.2,0.8,0.2c0.4,0.3,0.6,0.2,0.9,0.4c0.1,0,0.3,0,0.5,0c0.8,0.2,1.4,0.5,2.1,0.7
		c0.5,0.2,0.9,0.4,1.2,0.6c0.7,0.4,1.5,0.7,2.5,0.9c0.4,0.3,0.6,0.5,1.1,0.8c0.9,0.4,1.7,0.9,2.6,1.2c0.1,0.1,0.1,0.1,0.3,0.4
		c0.1,0,0.4,0.3,0.6,0.2c0.1,0.1,0.4,0.3,0.5,0.4s0.3,0.4,0.5,0.4c0.4,0.3,0.6,0.4,0.7,0.8c0.6,0.4,1.2,0.7,1.7,1.1
		c0.1,0,0.1,0.1,0.4,0.3c0.7,0.8,1.7,1.3,2.4,2c0.1,0.1,0.1,0.1,0.3,0.4c0.3,0.4,0.6,0.5,0.9,0.9c0,0.1,0.1,0.1,0.1,0.4
		c0.7,0.5,1.6,1,2.2,1.5c0.7,0.8,1.6,1.3,2.3,2c0.1,0.1,0.5,0.2,0.6,0.4c0.1,0.1,0.3,0.5,0.4,0.7c0.4,0.3,0.6,0.5,1.1,0.8
		c0.1,0.1,0.5,0.4,0.6,0.5c1.1,1,2.1,2.1,3.2,3.1c0,0.1-0.2,0.3-0.2,0.6c-1.3,0.2-2.7,0.7-3.5-0.9c-0.3-0.5-0.9-0.9-1.3-1.3
		l-0.1-0.1l-0.1-0.1c-0.6-0.5-1.2-1.2-1.8-1.7c-0.4-0.3-0.6-0.4-1-0.6c-0.6-0.5-1.3-1.1-1.9-1.8c-0.1,0-0.4-0.3-0.4-0.3
		c-1.2-1.2-2.4-2-3.6-3.1c-0.5-0.4-1-0.8-1.3-0.9c-0.6-0.5-1.2-1.2-1.7-1.7c-0.5-0.4-1.1-0.8-1.6-1.1
		C443.6,1238.5,443,1238.1,442.4,1237.6z"/>
	<path class="st0" d="M415.8,1226.4c-0.9-0.4-1.9-0.8-2.7-1.2c0-0.1,0-0.3,0.1-0.7c0.4,0.3,0.6,0.2,0.9,0.4c0.1,0,0.1-0.1,0.3-0.2
		c0.5,0,0.8,0.2,1.3,0.2c1.4-0.1,2.5-0.8,3.6-2.4c0.5-1,1.2-1.7,1.8-2.5c0.3-0.3,0.5-0.8,0.9-1.1c0.8-1.4,1.8-2.9,2.7-4.2
		c0.1-0.1,0.5-0.2,0.7-0.2c0.4,0.3,0.6,0.5,1.1,0.8c0.4,0.3,0.7,0.4,1.1,0.6c0.1,0,0.4,0.3,0.4,0.3l0.1,0.1
		c-0.3,0.4-0.5,1.1-0.8,1.7c-0.3,0.3-0.5,0.6-0.9,1l-0.1,0.1c0,0.1-0.2,0.3-0.2,0.6c-0.3,0.3-0.5,0.6-0.9,1c-0.2,0.3-0.5,0.6-0.6,1
		c-0.3,0.3-0.5,0.8-0.9,1.1c-0.1,0.1-0.3,0.3-0.4,0.4c-1.6,3.1-3.6,4-5.8,3.6c-0.1,0-0.3,0-0.5,0
		C416.4,1226.7,416,1226.7,415.8,1226.4z"/>
	<path class="st0" d="M320.6,1216.8c-1.6,1-2.9,1.6-4.2,0.9c-1.7-1-3.7-1.4-5.5-2.3c-1.7-0.9-3-2-4.6-3.1c-1.8-1.3-3.6-2.8-5.4-4
		c0-0.1,0-0.3,0-0.5c0.6,0.1,1.4-0.3,1.8,0c1.2,0.6,2.2,1.5,3.4,2.3c0.1,0.1,0.5,0.2,0.8,0.2c0.7-0.2,1.2-0.1,1.2,0.7
		c0,0.3,0.6,0.5,0.7,0.5c0.9-0.5,1.4,0.3,2,1c0.1,0.4,0.5,0.4,0.7,0.5c1.7,0.9,3.2,1.6,5,2.2
		C317.9,1215.9,319.2,1216.3,320.6,1216.8z"/>
	<path class="st0" d="M409,1222.9c-0.3,0-0.8,0.2-1-0.1c-4.7-2-9.5-4.2-14.3-6.4v-0.1v-0.1c5,2.2,9.7,4.4,14.5,6.4
		C408.6,1222.6,408.7,1222.8,409,1222.9z"/>
	<path class="st0" d="M393.9,1216.1L393.9,1216.1c-2.2-0.9-4.6-2-7.1-2.9c-0.1-0.1-0.3-0.4-0.5-0.5h0.1
		C388.9,1213.8,391.4,1215,393.9,1216.1z"/>
	<path class="st0" d="M421.4,1232.5c-0.9,0.3-2,0.5-3,0.6h-0.1c0-0.1,0-0.3-0.1-0.5c1.1-0.2,2.4-0.5,3.4-0.6
		C421.6,1232.1,421.7,1232.2,421.4,1232.5z"/>
	<path class="st0" d="M323.4,1196.8c-0.3,0.3-0.7,0.6-1,1.1c0-0.1-0.1-0.4-0.2-0.7c0.3-0.2,0.8-0.4,1.1-0.6
		C323.4,1196.6,323.4,1196.6,323.4,1196.8z"/>
	<path class="st0" d="M421.4,1232.5c0-0.1,0.2-0.3,0.2-0.6c0.5-0.2,1.1-0.2,1.6-0.4c0,0.1-0.2,0.3-0.2,0.7c-0.3,0.2-0.7,0.3-0.9,0.3
		C421.9,1232.5,421.8,1232.5,421.4,1232.5z"/>
	<path class="st0" d="M415.8,1226.4c0.3,0,0.6,0.1,0.8,0.1C416.4,1226.7,416,1226.7,415.8,1226.4z"/>
	<path class="st0" d="M433.3,1273.5c0.1-0.1,0.4-0.3,0.7-0.4C433.8,1273.4,433.7,1273.4,433.3,1273.5z"/>
	<path class="st0" d="M376.6,1205.3c-0.3,0.2-0.7,0.3-0.8,0.4C376,1205.7,376.2,1205.6,376.6,1205.3z"/>
	<path class="st0" d="M383.7,1218c-0.1-0.1-0.3-0.4-0.5-0.5C383.5,1217.8,383.6,1217.9,383.7,1218z"/>
	<path class="st0" d="M327.6,1193.2c0.1-0.1,0.5-0.2,0.7-0.3C328,1193.1,327.9,1193,327.6,1193.2z"/>
	<path class="st0" d="M481.8,1275.3c-0.1-0.4-0.5-0.5-0.6-0.9C481.5,1274.7,481.7,1275,481.8,1275.3z"/>
	<path class="st0" d="M377.9,1215.1c-0.1-0.1-0.3-0.4-0.5-0.5C377.5,1214.7,377.7,1214.8,377.9,1215.1z"/>
	<path class="st0" d="M325,1208.3c-0.1,0.1-0.3,0.2-0.7,0.3C324.7,1208.5,324.8,1208.3,325,1208.3z"/>
	<path class="st0" d="M458,1236.6c-0.1-0.1-0.3-0.5-0.4-0.7C457.9,1236.1,458,1236.4,458,1236.6z"/>
	<path class="st0" d="M449.2,1226.8c-0.1-0.1-0.3-0.5-0.3-0.7C448.9,1226.3,449.1,1226.6,449.2,1226.8z"/>
	<path class="st0" d="M322.3,1223.4c0.1,0.1,0.1,0.5,0.3,0.7C322.5,1223.9,322.4,1223.6,322.3,1223.4z"/>
	<path class="st0" d="M332.5,1234.7c0.3-0.2,0.5-0.2,0.8-0.3C332.9,1234.5,332.6,1234.4,332.5,1234.7z"/>
	<path class="st0" d="M405.3,1250.8c-0.3,0.2-0.5,0.2-0.8,0.3C404.9,1251,405.1,1251,405.3,1250.8z"/>
	<path class="st0" d="M324.3,1197.3c0.1-0.1,0.3-0.3,0.7-0.3C324.8,1197,324.4,1197.1,324.3,1197.3z"/>
	<path class="st0" d="M482.9,1277c-0.1-0.1-0.3-0.5-0.4-0.7C482.7,1276.4,482.8,1276.7,482.9,1277z"/>
	<path class="st0" d="M439.3,1235.7c0.1,0,0.4,0.3,0.4,0.3C439.6,1235.7,439.4,1235.7,439.3,1235.7z"/>
	<path class="st0" d="M444,1236.6c-0.1-0.1-0.1-0.1-0.3-0.4C443.9,1236.3,444.2,1236.4,444,1236.6z"/>
	<path class="st0" d="M348.7,1208.3c-0.1-0.1-0.1-0.4-0.3-0.4C348.6,1207.9,348.7,1208.1,348.7,1208.3z"/>
	<path class="st0" d="M451.4,1242c-0.1-0.1-0.1-0.1-0.3-0.4C451.2,1241.6,451.3,1241.7,451.4,1242z"/>
	<path class="st0" d="M434.6,1231.9c-0.1,0-0.3,0-0.5,0C434.2,1232.1,434.5,1232.1,434.6,1231.9z"/>
	<path class="st0" d="M472.4,1256.8c-0.1-0.1-0.4-0.3-0.3-0.4C472.3,1256.7,472.4,1256.7,472.4,1256.8z"/>
	<path class="st0" d="M371,1213.3c0.1,0.1,0.1,0.4,0.3,0.5C371.3,1213.6,371.1,1213.4,371,1213.3z"/>
	<path class="st0" d="M469.8,1252.6c-0.1,0-0.3,0-0.5-0.2C469.6,1252.5,469.7,1252.6,469.8,1252.6z"/>
	<path class="st0" d="M349.7,1216.3c0-0.1,0-0.3,0.1-0.7C349.7,1215.9,349.7,1216.1,349.7,1216.3z"/>
	<path class="st0" d="M475.7,1271.1c0,0.1,0.1,0.4,0.2,0.7C475.8,1271.5,475.7,1271.3,475.7,1271.1z"/>
	<path class="st0" d="M527.8,1291.7c0.1,0.1,0.1,0.4,0.3,0.7C527.9,1292.3,527.9,1292,527.8,1291.7z"/>
	<path class="st0" d="M325.3,1196c-0.1,0-0.5,0.2-0.7,0.2C324.8,1196.2,325,1196.1,325.3,1196z"/>
	<path class="st0" d="M469.4,1252.3c-0.1-0.1-0.1-0.4-0.3-0.5C469.2,1252,469.2,1252.1,469.4,1252.3z"/>
	<path class="st0" d="M471,1254.7c-0.1-0.1-0.1-0.1-0.3-0.4C470.9,1254.6,470.9,1254.6,471,1254.7z"/>
	<path class="st0" d="M475.5,1262.6c-0.1-0.1-0.1-0.1-0.3-0.4C475.2,1262.2,475.2,1262.4,475.5,1262.6z"/>
	<path class="st0" d="M323.6,1193.8c0,0,0.1,0,0.1-0.1C323.7,1193.8,323.7,1193.8,323.6,1193.8z"/>
	<path class="st0" d="M479.6,1271.2c0-0.1-0.1-0.1-0.1-0.4C479.6,1271.1,479.6,1271.1,479.6,1271.2z"/>
	<path class="st0" d="M530.6,1289.2L530.6,1289.2C530.4,1289,530.5,1289,530.6,1289.2z"/>
	<path class="st0" d="M395.8,1204.5c-0.1,0-0.1,0-0.3,0.2C395.7,1204.7,395.8,1204.7,395.8,1204.5z"/>
	<path class="st0" d="M477.4,1266.7C477.4,1266.7,477.4,1266.6,477.4,1266.7C477.4,1266.6,477.4,1266.7,477.4,1266.7z"/>
	<path class="st0" d="M489.9,1282.7C489.9,1282.7,490,1282.7,489.9,1282.7C490,1282.7,490,1282.7,489.9,1282.7z"/>
	<path class="st0" d="M462.2,1241.5c0-0.1,0-0.1-0.1-0.4C462.2,1241.4,462.2,1241.4,462.2,1241.5z"/>
	<path class="st0" d="M506.5,1276.2C506.5,1276.2,506.6,1276.2,506.5,1276.2C506.5,1276.2,506.5,1276.2,506.5,1276.2z"/>
	<path class="st0" d="M506.9,1276.2C506.9,1276.2,507,1276.2,506.9,1276.2C507,1276.1,507,1276.1,506.9,1276.2z"/>
	<path class="st0" d="M390.7,1206c-0.1,0-0.1,0-0.3,0.2C390.5,1206,390.7,1206,390.7,1206z"/>
	<path class="st0" d="M324,1193.6c0.1,0,0.1,0,0.3-0.2C324.1,1193.6,324,1193.6,324,1193.6z"/>
	<path class="st0" d="M414.2,1225c-0.1,0-0.1,0.1-0.3,0.2C414.1,1225.1,414.1,1225.1,414.2,1225z"/>
	<path class="st0" d="M452.5,1243c0-0.1-0.1-0.1-0.1-0.4C452.5,1242.9,452.5,1242.9,452.5,1243z"/>
	<path class="st0" d="M397.5,1204.2c-0.1,0-0.1,0-0.3,0.2C397.4,1204.2,397.4,1204.2,397.5,1204.2z"/>
	<path class="st0" d="M468.2,1250l-0.1-0.1L468.2,1250z"/>
	<path class="st0" d="M526.8,1282.9C526.8,1282.9,526.8,1282.8,526.8,1282.9C526.6,1282.7,526.7,1282.7,526.8,1282.9z"/>
	<path class="st0" d="M468.6,1250.5c0,0,0-0.1-0.1-0.1C468.3,1250.4,468.6,1250.4,468.6,1250.5z"/>
	<path class="st0" d="M480,1272c0-0.1-0.1-0.1-0.1-0.4C479.9,1271.7,480,1272,480,1272z"/>
	<path class="st0" d="M471.4,1255.1L471.4,1255.1L471.4,1255.1z"/>
	<path class="st0" d="M416,1268.6L416,1268.6C416,1268.8,416,1268.8,416,1268.6z"/>
	<path class="st0" d="M470.2,1253c0-0.1,0-0.1-0.1-0.4C470,1252.9,470.2,1253,470.2,1253z"/>
	<path class="st0" d="M323.5,1196.4c0.1,0,0.1,0,0.3,0c0,0.1-0.1,0.1-0.2,0.3C323.4,1196.6,323.4,1196.6,323.5,1196.4z"/>
	<path class="st0" d="M468.3,1256.9c-0.1-0.1-0.5-0.4-0.6-0.6C467.9,1256.5,468.1,1256.7,468.3,1256.9z"/>
	<path class="st0" d="M426.9,1218c-0.3,0.3-0.5,0.6-0.9,1C426.3,1218.6,426.6,1218.3,426.9,1218z"/>
	<path class="st0" d="M327.1,1221.6c0-0.5,0.1-1-0.1-1.5c0-0.1,0-0.1,0-0.3c0.4-1.8,0.5-3.9,1.3-5.6c0.8-1.9,2.2-3.9,3.5-5.2
		c2.4-2.3,5.1-3.5,7.7-2.7c2.8,0.7,5.2,2.2,6.4,6c0.7,2,0.9,4.3,0.5,6.7c-0.3,2.2-1.2,4.3-2.3,6.3c-1.7,2.7-3.6,4.5-5.9,5.5
		c-3.3,1.3-6.4,1-8.7-2.1c-0.3-0.4-0.6-0.9-1-1.3c0-0.1-0.1-0.1-0.1-0.4c-0.4-1.5-0.9-3.1-1.3-4.5
		C327.3,1222.1,327.1,1221.7,327.1,1221.6z"/>
	<path class="st0" d="M327.1,1221.6c0,0.1,0.1,0.5,0.2,0.7C327.3,1222.1,327.1,1221.7,327.1,1221.6z"/>
	<path class="st0" d="M327,1219.7c0,0.1,0,0.1,0,0.3C327,1219.8,327,1219.7,327,1219.7z"/>
	<path class="st0" d="M328.7,1226.9c0,0.1,0.1,0.1,0.1,0.4C328.7,1227.1,328.7,1226.9,328.7,1226.9z"/>
	<path class="st0" d="M417.2,1262.6c-0.5-3.2-0.1-6.4,1.5-9.4c2.1-4.6,5.3-6.8,8.8-7.4c4.4-0.6,8.4,2.9,9.2,8.2
		c0.9,5.1-1.6,11.7-5.1,14.5l-0.1,0.1c-1.2,0.6-2.6,1.5-3.8,1.8c-2.5,0.8-4.8,0.3-6.8-1.4c-1.7-1.4-2.8-3.4-3.2-6.1
		C417.3,1263,417.2,1262.9,417.2,1262.6z"/>
	<path class="st0" d="M417.2,1262.6c0,0.1,0.1,0.5,0.2,0.7C417.3,1263,417.2,1262.9,417.2,1262.6z"/>
	<path class="st0" d="M431.1,1268.9l0.1-0.1C431.3,1268.8,431.3,1268.8,431.1,1268.9z"/>
</g>
<g>
	<path class="st0" d="M385.1,896.9c1.9-0.9,4.1-2,6-2.9c2.2-0.9,4.2-1.9,6.3-2.8c0.7-0.3,1.3-0.6,1.9-0.9c0.7-0.3,1.5-0.8,2.3-1.1
		c0.1-0.1,0.6-0.1,0.7-0.3c0.6-0.3,1-0.6,1.6-0.9c0.1,0,0.3,0,0.3-0.1c0.6-0.3,0.9-0.5,1.5-0.8c0.1,0,0.1-0.1,0.3-0.1
		c0.3-0.1,0.6-0.3,0.9-0.5c0.1,0,0.1-0.1,0.3-0.1c0.3-0.1,0.6-0.3,0.9-0.5c0.1,0,0.1-0.1,0.3-0.1h0.1c2.2-1.3,4.1-2.3,6.3-3.5
		c0.9-0.5,1.5-1.1,2.3-1.5l0,0c0.6-0.1,1-0.5,0.9-0.9c-0.1-1.3-0.3-2.6-0.9-3.8c-0.6-1.6-1.6-3.3-2.5-4.8c-0.1-0.3-0.3-0.8-0.6-1.1
		c-0.1-0.1-0.3-0.1-0.6-0.3c-1-1.4-2.2-2.9-3.2-4.3c-4.7-5-7.9-10.7-10.8-16.4c-1-2-1.9-4.1-1.8-6.3c0-0.3,0-0.6,0.1-0.9
		c0.9-1.6,1.9-3.4,3.1-5c0.9-1.3,1.8-1.4,3.4-0.9c0.1,0,0.6,0.1,0.7,0.1c0,0,0.1,0,0.1,0.1c1,0.6,2.2,1.1,3.2,1.6
		c2.2,1.3,4.2,2.6,6.4,4c0.3,0.3,0.9,0.6,1.3,0.8l0.1,0.1c1,0.6,1.9,1.3,3.1,1.9l0.1,0.1c0.9,0.6,1.8,1.1,2.8,1.6c0,0,0.1,0,0.1,0.1
		c1.5,0.8,2.6,1.5,4.1,2.4c0.1,0.1,0.6,0.3,0.7,0.5c3.1,1.9,5.8,3.5,8.9,5.4c0.1,0.1,0.6,0.3,0.7,0.5c2.6,1.5,5.1,3.3,7.9,4.8
		c2.5,1.5,5,2.9,7.4,4.3c0,0,0,0,0.1,0.1c1.8,1.3,3.9,2.1,6,2.9c3.2,1.1,6.7,2,10.1,2.4c2.2,0.3,4.2,0.6,6.4,0.3c0.1,0,0.6,0,0.9,0
		c20.7-1.1,41.4-2.1,62.2-3.3c1.5-0.1,3.1-0.1,4.4-0.1c1.8,0,3.1,1.1,2.3,2.3c-0.9,1.5-1.9,3-3.1,4.5c-0.3,0.5-1,0.6-1.6,0.9
		c-0.1,0.1-0.3,0.1-0.6,0.3c-1.6,0.6-3.1,1.1-4.7,1.6c-0.1,0.1-0.1,0.1-0.3,0.3c-2.3,0.8-4.7,1.6-6.9,2.4c-1,0.3-2.2,0.8-3.2,1.3
		l-0.1,0.1h-0.1c-0.1,0-0.1,0.1-0.3,0.1c-0.1,0-0.3,0-0.6,0c-0.1,0.1-0.1,0.1-0.3,0.3c-0.3,0-0.7,0.1-1,0.1
		c-0.1,0.1-0.1,0.1-0.3,0.3c-0.3,0-0.7,0.1-1,0.1c-0.1,0.1-0.1,0.1-0.3,0.3c-0.7,0.1-1.3,0.3-1.9,0.6c-0.1,0.1-0.1,0.1-0.3,0.3
		c-0.9,0.3-1.8,0.6-2.6,0.9l-0.1,0.1c-0.1,0-0.3,0.1-0.6,0.1c-0.1,0-0.1,0.1-0.3,0.1c-0.3,0-0.7,0.1-1,0.1c-0.1,0.1-0.1,0.1-0.3,0.3
		c-1,0.3-2.2,0.8-3.2,1.1c-3.1,1.1-6,2.1-9,3c-0.1,0.1-0.1,0.1-0.3,0.3c-2.2,0.8-4.2,1.4-6.4,2.1c-0.1,0.1-0.3,0.3-0.6,0.5
		c-1.3,0.3-2.3,0.8-3.5,1.1c-0.1,0.1-0.3,0.3-0.6,0.5c-0.3,0-0.6,0-0.9,0c-0.1,0.1-0.3,0.3-0.6,0.5c-0.6,0.1-0.9,0.1-1.5,0.3
		c-0.1,0.1-0.3,0.3-0.6,0.5c-0.9-0.1-1,0.3-1,0.8c-0.1,2-0.3,4,0.1,5.8c0.1,0.6,0,1.3,0.1,1.9c0.1,1.4,0.6,2.8,0.9,4.1
		c0.1,0.1,0.3,0.3,0.6,0.5c0,0.3,0,0.8,0,1.1c0.1,0.1,0.3,0.3,0.6,0.5c-0.1,1.1,0.3,2.1,0.9,3c0,0.1,0.1,0.1,0.1,0.3
		c0.1,0.8,0.3,1.4,0.6,2.1c0.1,0.8,0.6,1.6,0.9,2.4c0,0.3,0.1,0.5,0.3,0.6c-0.1,0.1-0.3,0.3-0.6,0.6c-0.1,0.1-0.1,0.5-0.3,0.6
		c0,0,0,0.1-0.1,0.1c-0.9,1.3-1.9,2.6-3.1,3.8c-0.7,0.8-1.8,0.6-2.8,0.3c-0.6-0.1-1.3-0.5-1.8-0.6c-0.7-0.3-1.6-0.8-2.3-1.1
		c-0.1-0.1-0.3-0.1-0.6-0.3c-0.7-0.3-1.5-0.8-1.9-1.1c0,0-0.1,0-0.1-0.1c-1-0.5-1.9-1.1-3.1-1.5c0,0-0.1,0-0.1-0.1
		c-0.1-0.1-0.3-0.1-0.6-0.3c0,0-0.1,0-0.1-0.1c-1.9-0.9-3.8-1.9-5.7-2.8c-1.6-0.8-3.2-1.6-4.8-2.4c-0.1,0-0.3-0.1-0.6-0.1
		c-0.7-0.3-1.5-0.8-2.3-1.1c-0.1-0.1-0.3-0.3-0.6-0.5c0,0-0.1,0-0.1-0.1c-1.5-0.8-2.8-1.4-4.2-2.1c0,0-0.1,0-0.1-0.1
		c-0.1,0-0.1-0.1-0.3-0.1c0,0-0.1,0-0.1-0.1c-0.9,0-1.8,0-2.6,0.1c-3.2,0.6-6.3,0.9-9.5,1.1c-1,0-1.9,0-2.8,0
		c-3.5-0.1-5-2.1-6.3-4.1c-0.3-0.5-0.3-1.1-0.6-1.5c-0.3-0.9-0.9-1.4-2.2-1.4c-2.6,0.1-5.4,0.5-8.2,0.6c-1,0-2.2,0-3.2,0
		c-2.3,0.1-4.7,0.3-7.2,0.5c-2.5,0.1-5.1,0.3-7.6,0.5c-5.8,0.3-12,0.8-17.8,1.1c-0.7,0-1.6,0.1-2.3,0.1c-1.3,0-1.8-0.8-1.6-1.6
		c0.1-0.5,0.1-0.8,0.3-1.3c0.1-0.3,0.3-0.6,0.6-0.9V901c0.1-0.3,0.3-0.5,0.6-0.8c0.1-0.3,0.3-0.5,0.6-0.8
		C383.7,898.3,384.3,897.4,385.1,896.9z M404.9,842.6L404.9,842.6c-0.3-0.1-0.7-0.3-0.9-0.6c-0.1,0-0.1-0.1-0.3-0.1
		c-0.1-0.1-0.3-0.1-0.6-0.3c-0.3-0.5-0.9-0.8-1.8-0.8c0.1,0.3,0.3,0.6,0.3,0.8c0.3,0.8,0.7,1.5,1,2.3c0,0.1,0,0.3,0,0.5
		c0.3,0.8,0.7,1.5,1,2.1c0.1,0.1,0.3,0.5,0.3,0.6c0,0.1,0,0.1,0,0.3c0.9,1.4,1.8,2.8,2.6,4.1c0.3,0.5,0.6,0.9,0.9,1.4
		c0.1,0.5,0.6,0.8,0.7,1.3c0.1,0.1,0.3,0.5,0.3,0.6c0.1,0.1,0.1,0.3,0.3,0.5c0.1,0.3,0.3,0.5,0.6,0.8c0.7,1.1,1.6,2,2.3,3
		c2.2,2.9,4.4,5.8,6.6,8.6c1.9,2.9,3.1,6.1,2.2,9.4c0,0.1-0.1,0.5-0.1,0.6c-0.6,0.9-1,1.9-1.5,2.8c-0.1,0.3-0.3,0.5-0.6,0.8
		c-0.1,0.3-0.3,0.5-0.6,0.8c-0.3,0.5-0.7,0.8-1,1.3c0,0,0,0-0.1,0.1c-0.7,0.6-1.5,1.3-2.2,1.9c0,0,0,0-0.1,0.1
		c-0.9,0.6-1.8,1.3-2.6,1.9c-0.1,0-0.1,0.1-0.3,0.1c-0.3,0.3-0.7,0.5-1.3,0.8c-0.3,0.1-0.7,0.5-1,0.6c-1,0.6-2.2,1.1-3.2,1.6
		c-0.6,0.3-0.9,0.5-1.5,0.8c-0.7,0.3-1.3,0.6-1.9,0.9c-0.1,0.1-0.6,0.3-0.7,0.3c-0.3,0.1-0.9,0.5-1.3,0.6c-0.4,0.1-0.7,0.3-1,0.5
		c-0.3,0.1-0.6,0.3-0.9,0.5c-0.7,0.3-1.5,0.6-2.2,0.9c-0.3,0.1-0.6,0.3-0.9,0.5c-0.9,0.3-1.6,0.8-2.5,1.1c-0.6,0.1-0.9,0.5-1.5,0.6
		c-0.1,0-0.1,0.1-0.3,0.1c-1.8,0.8-3.4,1.5-5.1,2.1c0,0,0,0,0,0.1c1.9-0.1,4.1-0.1,6-0.3c2.8-0.1,5.7-0.3,8.5-0.5
		c1-0.1,2.3-0.1,3.4-0.3c2.5-0.1,5-0.3,7.4-0.5c1.3-0.1,2.5-0.1,3.8-0.3c2.6-0.1,5.4-0.3,8-0.5c1.3-0.1,2.5-0.1,3.8-0.3
		c1.6-0.1,3.1-0.1,4.7-0.3c0.1,0,0.1,0,0.3,0c0.9,0.3,1.3,0.8,1.3,1.5c0,0.3,0.1,0.5,0.1,0.8c0.1,0.5,0.3,0.8,0.7,1.3
		c1,1.9,3.1,3,5.5,3.4c0.6,0,0.9,0,1.5,0c0.6,0.3,1.3,0.5,1.9,0l0,0c0.3,0.1,0.6,0.1,0.9,0.3c0.6,0,1,0,1.6-0.1
		c0.1-0.1,0.6-0.3,0.7-0.5c0.6,0,1.3,0,1.8,0c0.3,0,0.6,0,0.9,0c0.1,0,0.1-0.1,0.3-0.1c0.1-0.1,0.3-0.1,0.6-0.3c0.3,0,0.6,0,0.9,0.1
		c0.9-0.1,1.8,0,2.3-0.8c1.3,0.1,2.5,0.1,3.4,0.9c0.7,0.5,1.5,0.8,2.2,1.1c1.5,0.8,3.1,1.4,4.4,2c0.9,0.5,1.9,1.1,2.8,1.5
		c1.6,0.8,3.2,1.5,4.8,2.4c0.9,0.5,1.8,0.9,2.6,1.4c0.3,0.1,0.7,0.5,1.3,0.6c0,0,0.1,0,0.1,0.1c0.6,0.1,1,0.5,1.5,0.6
		c0.3,0.1,0.7,0.3,0.9,0.5c0.1,0,0.3,0.1,0.3,0.1l0,0c0.7,0.5,1.5,0.8,2.3,1.3c1,0.6,2.2,1.3,3.2,1.6c0.7-0.5,0-0.6,0-1.1
		c-0.6-1.5-0.9-3-1.5-4.4c-0.1-0.6-0.7-1.3-0.3-1.9c0.1-0.1-0.3-0.8-0.1-1.3c0-0.1-0.1-0.1-0.1-0.3c-0.1-0.8-0.3-1.5-0.6-2.1
		c0-0.5,0-0.9-0.1-1.4c0-0.6,0-1.1,0-1.6c0-0.1,0-0.1,0.1-0.3c0-0.3-0.1-0.6-0.1-0.8c0-0.3,0-0.5,0-0.8s0-0.5,0.1-0.8
		c0.3-1.1,0.6-2.1,0.9-3l0.1-0.1v-0.1c0.1-0.1,0.1-0.3,0.3-0.6c0-0.1,0-0.3,0-0.6c0.1-0.1,0.3-0.3,0.6-0.5c0.7-1.9,1.8-3.4,3.2-4.9
		c0.3-0.3,0.7-0.8,1.3-1.1c1-0.5,2.2-0.9,3.4-1.4c0.6-0.1,1.3-0.3,1.9-0.5l0,0c0,0,0.1,0,0.1,0.1c0.1-0.1,0.3-0.3,0.6-0.6
		c1.3-0.5,2.3-0.8,3.5-1.3c0.1-0.1,0.6-0.3,0.7-0.5c0.7-0.3,1.5-0.5,1.9-0.6c1-0.3,2.2-0.6,3.2-1.1c0,0,0,0,0.1,0l0,0
		c0.3-0.1,0.9-0.1,1.3-0.3c1-0.3,2.2-0.8,3.1-1.1l0,0c0.1-0.1,0.3-0.3,0.6-0.3c0.9-0.3,1.8-0.6,2.8-0.9l0,0l0,0
		c1.6-0.8,3.2-1.5,5.1-1.6c0.1-0.1,0.3-0.3,0.6-0.5c0.1,0,0.3,0,0.6,0s0.6-0.1,0.7-0.1c0.1,0,0.1-0.1,0.3-0.1c0.1,0,0.3-0.1,0.6-0.1
		c0.1,0,0.1-0.1,0.3-0.1l0,0c0.1,0,0.1,0,0.3-0.1h0.1c0.1,0,0.1-0.1,0.3-0.1l0,0c0.3-0.1,0.7-0.3,1.3-0.5l0,0l0,0l0,0l0,0
		c0.1-0.1,0.3-0.3,0.6-0.5c0.9-0.3,1.9-0.6,2.8-0.9c0.3-0.1,0.6-0.3,0.9-0.5c0.6-0.1,1-0.3,1.6-0.5c1-0.3,2.3-0.6,3.4-0.9
		c0.1-0.1,0.3-0.3,0.6-0.5c0.1,0,0.3-0.1,0.3-0.1c1.5-0.5,2.8-0.9,4.1-1.4c0.1,0,0.1-0.1,0.3-0.1h0.1l0.1-0.1c0.1,0,0.6-0.1,0.7-0.1
		l0.1-0.1c0.3-0.1,0.6-0.3,0.9-0.3c0,0,0,0,0-0.1c-0.3,0-0.6,0-0.9,0c-16.2,0.9-32.5,1.6-48.7,2.6c-5.1,0.3-10.4,0.5-15.5,0.8
		c-2.6,0.1-5.1,0-7.6-0.3c-1.6-0.1-3.1-0.5-4.4-0.8c-0.3-0.1-0.7-0.1-1-0.3c-0.1,0-0.6-0.1-0.7-0.1c0,0,0-0.1-0.1-0.1
		c0,0,0,0.1-0.1,0.1s-0.6,0-0.7-0.1c-1.3-0.3-2.5-0.8-3.5-1.3v-0.1h-0.1c-0.1,0-0.6-0.1-0.7-0.1c-0.3-0.1-0.7-0.3-1-0.6
		c0,0-0.1,0-0.1-0.1c-1.3-0.6-2.3-1.3-3.5-2c-0.3-0.1-0.7-0.5-0.9-0.6c-0.7-0.5-1.5-0.9-2.3-1.4c-0.3-0.1-0.6-0.1-0.9-0.3
		c0-0.1,0-0.3-0.1-0.5c-0.1,0-0.1-0.1-0.3-0.1c-0.6-0.3-1.3-0.6-1.8-0.9c-0.3-0.1-0.7-0.5-0.9-0.6c-0.1-0.1-0.3-0.1-0.6-0.3
		c-0.1-0.1-0.6-0.3-0.7-0.5c-0.1-0.1-0.1-0.3-0.3-0.5c-0.1,0-0.1-0.1-0.3-0.1c-0.6-0.3-1.3-0.6-1.8-0.9c-0.3-0.1-0.7-0.5-0.9-0.6
		c-0.1-0.1-0.3-0.1-0.6-0.3c-0.1-0.3-0.3-0.6-0.9-0.5c-0.3-0.3-0.6-0.5-0.9-0.8c-0.9-0.6-1.9-1.1-2.8-1.6c-0.1-0.1-0.6-0.1-0.7-0.3
		c-0.9-0.6-1.6-1.1-2.5-1.6c-0.1-0.1-0.3-0.1-0.6-0.3c-0.3-0.1-0.7-0.3-0.9-0.6c-0.3-0.1-0.7-0.5-0.9-0.6c-0.1-0.1-0.3-0.1-0.6-0.3
		c-0.3-0.1-0.6-0.3-0.9-0.5v-0.1l-0.1-0.1c-0.1-0.1-0.3-0.1-0.6-0.3c-0.1-0.1-0.6-0.3-0.7-0.5c0,0-0.1,0-0.1-0.1
		c-0.1-0.1-0.3-0.1-0.6-0.3c-0.1-0.1-0.3-0.1-0.6-0.3c-0.3-0.3-0.7-0.5-1-0.8c-0.1,0-0.3-0.1-0.6-0.1c0-0.1-0.1-0.1-0.1-0.3
		c-0.1-0.1-0.6-0.3-0.7-0.5c-0.1-0.1-0.6-0.1-0.7-0.3c0-0.1-0.1-0.1-0.1-0.3c-0.1-0.1-0.3-0.1-0.6-0.3c-0.1,0-0.1-0.1-0.3-0.1
		c-0.1-0.1-0.3-0.1-0.6-0.3c0-0.1-0.1-0.1-0.1-0.3c0-0.1-0.1-0.1-0.1-0.3l0,0c-0.1,0-0.3,0-0.6-0.1c-0.1-0.1-0.6-0.3-0.7-0.3
		c0-0.1-0.1-0.1-0.1-0.3l-0.1-0.1v-0.1c-0.1-0.1-0.6-0.3-0.7-0.5c-0.1-0.1-0.6-0.1-0.7-0.3c0-0.1-0.1-0.1-0.1-0.3
		c-0.1-0.1-0.1-0.3-0.3-0.3c-0.3,0-0.7-0.1-1-0.1c-0.1-0.1-0.3-0.3-0.3-0.5c-1.8-1.1-3.5-2.1-5.4-3.3
		C405.3,842.7,405,842.7,404.9,842.6z"/>
	<path class="st0" d="M379.2,838.7c-0.1,1.5-0.6,2.9-0.7,4.4c-0.1,0.6-0.1,1.3,0,1.9c0.3,1.3,0.1,2.4,1,3.5c0.3,0.6,0.6,1.4,0.7,2
		c0.1,0.3,0.3,0.5,0.7,0.8l0.1,0.1c0.6,2.1,2.6,3.5,4.4,5c3.2,2.6,6.9,4.5,11.2,6.3c0.9,0.3,1.9,0.8,2.8,1.1
		c0.6,0.1,0.7,0.3,0.6,0.8c-0.9,1.4-1.6,2.6-2.5,4c-0.1,0.5-0.7,0.5-1.3,0.5c-3.4-0.5-6.4-1.4-9.5-2.8c-1.8-0.8-3.8-1.5-5.4-2.6
		c-3.4-2.1-6.6-4.5-8.3-7.8c-0.9-1.6-1.6-3.5-2.2-5.1c-1-3.8,0-7.6,1.6-11.3c1.6-3.5,3.8-6.6,6.6-9.8c4.1-4.3,9.6-7.3,16.2-8.9
		c2.6-0.6,5.4-1.1,8-1.5c1.6-0.3,3.2-0.3,4.8-0.6c1.5,0,2.6-0.1,4.1-0.1c3.4-0.1,6.6,0.1,9.9,0.5c0.9,0.1,1.8,0,2.5,0.1
		c0.7,0.1,1.3,0.5,1.9,0.6c1.9,0.6,4.1,1.1,5.8,1.9c4.8,2.1,8.9,4.8,12.1,8.3c0.6,0.6,1.3,1.1,1.8,1.6c0.9,1.1,1.6,2.1,2.2,3.4
		c1.3,2.6,2.5,5.1,3.8,7.6c0.3,0.6,0.3,1.3-0.1,1.9c-0.9,1.3-1.8,2.6-2.6,3.8c-1.8-2.4-3.2-4.8-5.1-6.9c-1.6-1.9-3.4-3.5-5.4-5.1
		c-1.3-1.1-2.8-1.9-4.1-2.8c-2.8-2.1-6.4-3.4-10.1-4.4c-2.3-0.8-4.8-1.3-7.3-1.3c-1.9-0.1-4.1-0.1-6-0.3c-0.6,0-1.3-0.1-1.8,0
		c-1.8,0.1-3.5,0.3-5.4,0.6c-0.7,0-1.3,0.1-1.9,0.3c-2.2,0.3-4.4,0.6-6.6,1.1c-3.2,0.6-6,1.5-8.9,3c-2.8,1.5-5.5,3.3-7.3,5.5
		C379.5,837.8,379.5,838.2,379.2,838.7C379.4,838.5,379.4,838.7,379.2,838.7z M375.1,848.4L375.1,848.4c0.1-0.9,0.1-1.6,0.3-2.4
		c0.3-2.4,1.5-4.9,2.8-7c1.5-2.6,3.2-5,5.5-7.1c2.2-2,4.4-3.6,7.3-4.9c2.8-1.4,6-2.1,9.2-2.9c-0.3,0-0.6,0-0.9,0
		c-1.8,0.3-3.8,0.6-5.5,1.1c-3.2,0.8-6.4,1.6-9.2,3.3c-1.8,1.1-3.5,2-5.1,3.3c-1.5,1.1-2.8,2.4-3.8,3.8c-1.6,2.4-1.9,5.4-1.8,8
		c0,1.3,0.3,2.4,0.6,3.6C374.5,847.3,374.7,847.8,375.1,848.4z"/>
	<path class="st0" d="M549.4,849.7c3.2,0.1,6.4,0.3,9.6,1.1c2.5,0.6,5,1.3,7.3,2.4c3.1,1.5,5.4,3.5,6.7,6.1c0.6,0.9,1.3,1.9,1.3,2.8
		c0,1.9,0.3,3.6-0.6,5.5c-0.6,0.9-0.9,1.9-1.3,2.8c0,0.1-0.1,0.3-0.1,0.5c-1.3,1.9-2.3,3.8-4.1,5.5c-0.1,0.1-0.1,0.5-0.3,0.6
		c0,0,0,0-0.1,0.1c-0.9,0.6-1.8,1.4-2.6,2c-0.1,0.1-0.1,0.1-0.3,0.3c-1.6,0.8-3.4,1.5-5,2.4c-0.1,0.1-0.1,0.1-0.3,0.3
		c-2.5,0.6-5,1.4-7.4,2c-4.2,1.1-8.8,0.9-13.1,1.3c-0.6,0-1,0-1.6,0c0.1-0.5,0.3-0.8,0.3-1.1c0,0,0-0.1,0.1-0.1
		c0.6-0.9,1.3-2,1.8-2.9c0.3-0.6,1-0.9,1.8-1.1c2.8-0.6,5.5-1.3,8.3-1.9c1.3-0.3,2.3-0.6,3.5-0.9c1.9-0.6,3.8-1.3,5.5-2
		c1.8-0.8,3.5-1.9,5.1-2.8c1.6-0.8,1.9-1.9,1.9-3.3c-0.1-2-1.3-3.6-2.6-5.1c-1.9-2.1-5-3.3-8-3.8c-2.3-0.6-4.7-0.9-6.9-1.4
		c-1.3-0.1-2.6-0.1-3.9-0.1c-1.5,0-2.8,0-4.1,0.1c-2.6,0.3-5.4,0.6-7.9,1.3c-4.4,0.8-8.3,2.3-12.6,4.1c0.1-0.5,0.3-0.9,0.6-1.3
		c1.3-2.8,3.8-4.8,6.7-6.4c5.1-2.9,10.7-4.9,16.9-5.8c0.9-0.1,1.6-0.1,2.5-0.3C547.2,849.8,548.2,849.7,549.4,849.7z M569.2,863.1
		c-0.6,5.6-3.9,10-8.8,14c0,0,0.1,0,0.3,0c3.5-1.1,6.7-2.6,9.2-4.9c0.3-0.3,0.6-0.6,0.6-0.9c0.6-2,0.6-4.1-0.3-6.1
		C570.1,864.5,569.5,863.9,569.2,863.1z"/>
	<path class="st0" d="M363.7,893.9c0.7-0.6,1.3-1.1,1.9-1.6c1.9-1.4,4.2-2,6.6-2.4c0.1,0,0.1,0,0.3,0c0.3,0,0.9-0.1,1.3-0.1
		c1,0,2.2-0.1,3.2-0.1c0.6,0,0.9,0,1.5,0c0.1,0,0.1,0,0.3,0c1.8,0.1,3.5,0.3,5.4,0.6c0.3,0.1,0.7,0.1,1,0.3c-0.3,0.8-0.7,1.4-1,2
		c-0.1,0.3-0.6,0.6-0.7,0.9c0,0.1,0,0.1-0.1,0.3c-0.1,0.1-0.3,0.5-0.6,0.6c-0.7,0.8-1.6,1.1-2.8,1.3c-3.5,0.5-7.2,0.8-10.4,2
		c-0.7,0.3-1.3,0.5-1.9,0.8c-0.1,0.1-0.3,0.5-0.3,0.6c0.1,1.3,0.9,2.3,1.9,3.3c2.6,2.3,6.3,3.4,9.8,4.4c2.5,0.8,5,1.3,7.6,1.3
		s5.4-0.1,8-0.5c1.8-0.1,3.5-0.6,5.4-1.1c0,0.3-0.1,0.6-0.3,0.9c-0.7,1.3-1.5,2.6-2.5,3.8c-0.3,0.5-1,0.6-1.6,0.9
		c-3.1,1.6-6.3,2.9-9.9,3.4c-1.9,0.3-4.1,0.5-6,0.5c-1,0-2.2-0.1-3.4-0.3c-1.8-0.3-3.5-0.6-5.4-1.1c-1.5-0.5-2.8-0.9-4.2-1.5
		c-2.2-0.9-3.9-2-5.4-3.4c-0.1-0.3-0.6-0.5-0.7-0.8c-0.6-0.9-1-1.6-1.5-2.6c-0.6-1.4-0.7-2.6-0.6-4.1c0-0.1,0-0.1,0-0.3
		c0-0.3,0-0.6,0.1-0.8c0-0.1,0.1-0.3,0.1-0.6c0.1-0.3,0.3-0.6,0.3-0.9c0.6-1.1,1-2.1,1.6-3.3c0.3-0.6,0.9-1.3,1.5-1.9
		C363.3,894.4,363.5,894.2,363.7,893.9z M364.5,903.7c-0.1-3.5,1.9-6.1,4.2-9c-1.9,0.5-3.8,1.1-5.4,1.9c-0.9,0.5-1,1.1-0.9,1.9
		c0,0.5,0,0.9,0.1,1.4C362.9,901.2,363.2,902.3,364.5,903.7z"/>
	<path class="st0" d="M500.2,910.1c1-0.3,1.8,0.3,2.5,0.6c0.9,0.3,1.8,0.8,2.8,1.3c0.3,0.3,0.9,0.6,1.3,0.9c1,0.8,1.8,1.5,1.9,2.6
		c0,0.5,0.3,0.9,0.6,1.4c0.1,0.1,0.1,0.5,0.3,0.6c-0.1,0.1-0.3,0.3-0.3,0.6c-0.3,2-1.5,3.6-2.5,5.4c-0.7,0.9-1.3,2-2.2,2.8
		c-1.6,1.3-3.4,2.4-5.1,3.5c-1.9,1.1-4.4,1.6-6.7,2.3c-3.4,0.9-6.7,0.8-10.1,0.8c-3.4,0-6.6-0.5-9.8-1.4c-2.5-0.8-5-1.9-6.7-3.4
		c-1.8-1.5-3.4-3.4-3.4-5.6c0-0.8,0.6-1.5,0.9-2.3c0.7-1.1,1.5-2,2.3-3c0.6,0.6,0.7,1.3,1,1.5c0.9,0.9,1.8,1.9,3.4,2.3
		c0.3,0.1,0.7,0.6,1,0.8c1,0.3,2.3,0.6,3.4,0.9s2.2,0.6,3.2,0.8c1.3,0.1,2.6,0.5,4.1,0.1c0.1,0,0.1,0,0.3,0c2.3,0.6,4.7,0.3,6.9,0
		c0.3,0,0.9,0,1.3-0.1c2.3-0.1,4.7-0.6,6.7-1.3c0.3-0.1,0.7-0.3,1-0.5c0.3,0,0.6-0.1,0.9-0.1c0.9-0.5,1.8-0.8,2.5-1.3
		c0.1-0.1,0.1-0.5,0.1-0.6c-1-1.6-2.5-3.3-4.2-4.4c-0.6-0.3-0.6-0.6-0.3-1.1c0.1-0.3,0.3-0.8,0.6-1.3
		C498.7,912,499.5,911.1,500.2,910.1z M504.9,918.9c-1.9,3.8-5.4,6.6-10.4,8.3c0.1,0.1,0.6,0.1,0.7,0.1c0.6-0.1,1.3-0.3,1.8-0.5
		c2.8-0.8,5.5-1.9,7.9-3.4c0.6-0.3,1.3-0.8,1.3-1.1C506,921.1,505.9,919.9,504.9,918.9z"/>
	<path class="st0" d="M489.4,917.1c0.1-0.1,0.3-0.3,0.6-0.6C489.7,916.9,489.5,917,489.4,917.1z"/>
	<path class="st0" d="M437.2,854.8c-0.1-0.1-0.6-0.3-0.7-0.5C436.6,854.6,436.9,854.7,437.2,854.8z"/>
	<path class="st0" d="M427.5,849.1c-0.1-0.1-0.6-0.3-0.7-0.5C426.9,849,427.4,849,427.5,849.1z"/>
	<path class="st0" d="M489.4,892.3c0.1-0.1,0.3-0.3,0.6-0.5C489.7,892.1,489.5,892.2,489.4,892.3z"/>
	<path class="st0" d="M493.5,890.8c0.1-0.1,0.3-0.3,0.6-0.5C493.8,890.7,493.6,890.8,493.5,890.8z"/>
	<path class="st0" d="M487.9,892.8c0.1-0.1,0.3-0.3,0.6-0.5C488.2,892.4,488.1,892.7,487.9,892.8z"/>
	<path class="st0" d="M486,893.4c0.1-0.1,0.3-0.3,0.6-0.5C486.3,893.2,486.2,893.4,486,893.4z"/>
	<path class="st0" d="M499.5,921.4c-0.3,0-0.6,0.1-0.9,0.1C498.9,921.6,499.2,921.6,499.5,921.4z"/>
	<path class="st0" d="M478.5,919.9c0.1,0.1,0.3,0.1,0.6,0.3C479,920.3,478.7,920,478.5,919.9z"/>
	<path class="st0" d="M487.1,907.8c-0.1-0.1-0.3-0.3-0.6-0.5C486.6,907.7,486.9,907.8,487.1,907.8z"/>
	<path class="st0" d="M486.5,906.5c-0.1-0.1-0.3-0.3-0.6-0.5C486.2,906.2,486.3,906.3,486.5,906.5z"/>
	<path class="st0" d="M539.6,874.1c0.1-0.1,0.3-0.1,0.6-0.3C540,873.9,539.9,874,539.6,874.1z"/>
	<path class="st0" d="M413.8,869.8c0.1,0.1,0.3,0.1,0.6,0.3C414,869.9,414,869.9,413.8,869.8z"/>
	<path class="st0" d="M512.8,883.8c0.1-0.1,0.1-0.1,0.3-0.3C513.2,883.7,513,883.8,512.8,883.8z"/>
	<path class="st0" d="M488.1,911.4c0-0.1-0.1-0.1-0.1-0.3C487.9,911.1,487.9,911.2,488.1,911.4z"/>
	<path class="st0" d="M500.2,888.3c0.1-0.1,0.1-0.1,0.3-0.3C500.5,888.2,500.3,888.2,500.2,888.3z"/>
	<path class="st0" d="M534.8,876c0.1-0.1,0.1-0.1,0.3-0.3C535.1,875.9,534.8,875.9,534.8,876z"/>
	<path class="st0" d="M564.7,878.9c0.1-0.1,0.1-0.1,0.3-0.3C564.9,878.7,564.7,878.8,564.7,878.9z"/>
	<path class="st0" d="M514.2,883.3c0.1,0,0.1-0.1,0.3-0.1C514.4,883.2,514.4,883.2,514.2,883.3z"/>
	<path class="st0" d="M518,881.9c0.1-0.1,0.1-0.1,0.3-0.3C518.2,881.8,518.2,881.9,518,881.9z"/>
	<path class="st0" d="M520.3,881.2c0.1-0.1,0.1-0.1,0.3-0.3C520.5,881,520.3,881,520.3,881.2z"/>
	<path class="st0" d="M521.7,880.8c0.1-0.1,0.1-0.1,0.3-0.3C521.9,880.5,521.7,880.5,521.7,880.8z"/>
	<path class="st0" d="M523.1,880.3c0.1-0.1,0.1-0.1,0.3-0.3C523.3,880,523.1,880.2,523.1,880.3z"/>
	<path class="st0" d="M559.2,881.5c0.1-0.1,0.1-0.1,0.3-0.3C559.6,881.4,559.5,881.4,559.2,881.5z"/>
	<path class="st0" d="M523.8,880c0.1,0,0.1-0.1,0.3-0.1C524.1,879.8,524,879.8,523.8,880z"/>
	<path class="st0" d="M537.6,883.3C537.4,883.5,537.4,883.5,537.6,883.3C537.4,883.5,537.4,883.5,537.6,883.3z"/>
	<path class="st0" d="M452.3,864C452.3,864,452.3,863.9,452.3,864C452.3,863.9,452.3,863.9,452.3,864z"/>
	<path class="st0" d="M422.7,846.3c0,0-0.1,0-0.1-0.1C422.6,846.3,422.6,846.3,422.7,846.3z"/>
	<path class="st0" d="M419.6,844.4C419.6,844.4,419.5,844.4,419.6,844.4C419.5,844.4,419.6,844.4,419.6,844.4z"/>
	<path class="st0" d="M567.6,876.6L567.6,876.6L567.6,876.6z"/>
	<path class="st0" d="M453.5,907.3c0,0,0.1,0,0.1,0.1C453.6,907.3,453.5,907.3,453.5,907.3z"/>
	<path class="st0" d="M453.9,907.6c0,0,0.1,0,0.1,0.1C454.2,907.7,453.9,907.6,453.9,907.6z"/>
	<path class="st0" d="M416.4,842.7C416.4,842.7,416.3,842.6,416.4,842.7C416.3,842.6,416.4,842.7,416.4,842.7z"/>
	<path class="st0" d="M524.4,879.7C524.6,879.7,524.6,879.7,524.4,879.7C524.6,879.7,524.6,879.7,524.4,879.7z"/>
	<path class="st0" d="M458.5,909.9C458.6,909.9,458.6,909.9,458.5,909.9C458.6,909.9,458.6,909.9,458.5,909.9z"/>
	<path class="st0" d="M379.2,838.7C379.4,838.7,379.4,838.5,379.2,838.7C379.4,838.5,379.4,838.7,379.2,838.7z"/>
	<path class="st0" d="M515.1,883C515.1,882.9,515.4,882.9,515.1,883C515.4,882.9,515.1,882.9,515.1,883z"/>
	<path class="st0" d="M405.5,836c0,0-0.1,0-0.1-0.1C405.3,836,405.3,836,405.5,836z"/>
	<path class="st0" d="M472.5,916.9c0,0,0.1,0,0.1,0.1C472.5,916.9,472.5,916.9,472.5,916.9z"/>
	<path class="st0" d="M473.2,917.1c0,0,0.1,0,0.1,0.1C473.3,917.2,473.2,917.1,473.2,917.1z"/>
	<path class="st0" d="M488.8,917.9C489,917.9,489,917.7,488.8,917.9C489,917.7,489,917.9,488.8,917.9z"/>
	<path class="st0" d="M476.4,918.9C476.4,918.9,476.6,918.9,476.4,918.9C476.6,918.9,476.4,918.9,476.4,918.9z"/>
	<path class="st0" d="M426.6,855.5c-0.3-0.1-0.7-0.5-0.9-0.6C425.9,855,426.2,855.3,426.6,855.5z"/>
	<path class="st0" d="M437.4,861.9c-0.3-0.1-0.7-0.5-0.9-0.6C436.7,861.5,437.2,861.7,437.4,861.9z"/>
	<path class="st0" d="M460.8,873.3c-0.3-0.1-0.7-0.1-1-0.3C460.1,873.1,460.4,873.1,460.8,873.3z"/>
	<path class="st0" d="M445.3,866.6c-0.3-0.1-0.6-0.1-0.9-0.3C444.7,866.4,445,866.6,445.3,866.6z"/>
	<path class="st0" d="M524.7,875.9c0.3-0.1,0.6-0.3,0.9-0.5C525.3,875.5,524.9,875.8,524.7,875.9z"/>
	<path class="st0" d="M482.4,896.6c0.1-0.1,0.1-0.3,0.3-0.6C482.5,896.1,482.5,896.4,482.4,896.6z"/>
	<path class="st0" d="M404,846.6c0.1,0.1,0.3,0.5,0.3,0.6C404.5,847.1,404.2,846.9,404,846.6z"/>
	<path class="st0" d="M497.1,885.8c0.1-0.1,0.6-0.3,0.7-0.5C497.7,885.4,497.4,885.7,497.1,885.8z"/>
	<path class="st0" d="M431.2,858.2c-0.1-0.1-0.6-0.1-0.7-0.3C430.9,858.1,431,858.2,431.2,858.2z"/>
	<path class="st0" d="M417.9,850.1c-0.1-0.1-0.3-0.1-0.6-0.3C417.6,850,417.7,850.1,417.9,850.1z"/>
	<path class="st0" d="M530.6,873.9c0.1-0.1,0.3-0.3,0.6-0.5C530.7,873.6,530.6,873.8,530.6,873.9z"/>
	<path class="st0" d="M521.4,877.1c0.1-0.1,0.3-0.3,0.6-0.5C521.7,876.8,521.5,876.9,521.4,877.1z"/>
	<path class="st0" d="M516,879c0.1-0.1,0.3-0.3,0.6-0.5C516.4,878.8,516.3,878.9,516,879z"/>
	<path class="st0" d="M411.2,846.4c-0.1-0.1-0.3-0.3-0.3-0.5C411,846.2,411,846.3,411.2,846.4z"/>
	<path class="st0" d="M420.2,851.6c-0.1,0-0.3-0.1-0.6-0.1C419.9,851.5,420.1,851.5,420.2,851.6z"/>
	<path class="st0" d="M412.6,846.9c-0.1-0.1-0.1-0.3-0.3-0.3C412.3,846.8,412.6,846.9,412.6,846.9z"/>
	<path class="st0" d="M444.5,865.9c-0.1,0-0.1-0.1-0.3-0.1C444,865.9,444.2,865.9,444.5,865.9z"/>
	<path class="st0" d="M404,842.1c-0.1,0-0.1-0.1-0.3-0.1C403.9,841.9,403.9,841.9,404,842.1z"/>
	<path class="st0" d="M482.4,907.8c0-0.1-0.1-0.1-0.1-0.3C482.3,907.7,482.4,907.8,482.4,907.8z"/>
	<path class="st0" d="M439.6,863.1c-0.1,0-0.1-0.1-0.3-0.1C439.3,862.9,439.6,863.1,439.6,863.1z"/>
	<path class="st0" d="M535.5,872c0.1,0,0.1-0.1,0.3-0.1C535.8,871.9,535.8,871.9,535.5,872z"/>
	<path class="st0" d="M416.1,849.2c-0.1-0.1-0.1-0.1-0.1-0.3C416,849,416.1,849.1,416.1,849.2z"/>
	<path class="st0" d="M458.9,872.8h-0.1c0,0,0-0.1,0.1-0.1C458.8,872.6,458.8,872.8,458.9,872.8z"/>
	<path class="st0" d="M536.1,871.8C536.1,871.8,536.2,871.8,536.1,871.8C536.2,871.8,536.1,871.8,536.1,871.8z"/>
	<path class="st0" d="M492.9,887.3C492.9,887.3,493,887.3,492.9,887.3C493.1,887.4,493.1,887.4,492.9,887.3z"/>
	<path class="st0" d="M422.7,853h-0.1v-0.1C422.6,853,422.6,853,422.7,853z"/>
	<path class="st0" d="M537,871.5C537,871.5,537.1,871.5,537,871.5C537.1,871.5,537,871.5,537,871.5z"/>
	<path class="st0" d="M482.4,896.9C482.4,896.7,482.4,896.7,482.4,896.9C482.4,896.7,482.4,896.7,482.4,896.9z"/>
	<path class="st0" d="M510.9,880.8L510.9,880.8L510.9,880.8z"/>
	<path class="st0" d="M414.5,848.1C414.5,848.1,414.4,847.9,414.5,848.1C414.4,847.9,414.5,848.1,414.5,848.1z"/>
	<path class="st0" d="M503.3,883.7C503.3,883.5,503.3,883.5,503.3,883.7C503.3,883.5,503.3,883.5,503.3,883.7
		C503.3,883.5,503.3,883.7,503.3,883.7z"/>
	<path class="st0" d="M507.6,881.9L507.6,881.9L507.6,881.9z"/>
	<path class="st0" d="M454.4,871.5h-0.1C454.2,871.3,454.2,871.3,454.4,871.5z"/>
	<path class="st0" d="M452.2,870.5c0,0-0.1,0-0.1-0.1C452,870.5,452.2,870.5,452.2,870.5z"/>
	<path class="st0" d="M424.2,854C424.2,854,424,854,424.2,854C424,854,424.2,854,424.2,854z"/>
	<path class="st0" d="M455.4,889.2c2.2,0.9,4.4,1.6,5.8,3.3c0.3,0.3,0.6,0.8,0.9,1.1c0,0.1,0.1,0.5,0.1,0.6
		c-0.1,2.3-1.5,4.1-4.4,5.1c-0.1,0-0.6,0.1-0.7,0.1c-1.6,0.1-3.1,0.1-4.7,0.3c-0.7,0-1.3-0.1-1.9-0.3c-2.5-0.3-5-0.9-7.3-1.6
		c-2.6-0.9-4.8-2.3-6-4.4c-0.3-1.1,0.3-2.1,0.7-3.3c0,0,0,0,0-0.1l0,0c0.1-0.1,0.3-0.3,0.6-0.5c0.6-0.8,1.3-1.4,2.3-1.6
		c0.9-0.3,1.9-0.5,2.8-0.6c0.1,0,0.6,0,0.7,0c0.9,0,1.9,0,2.8,0c0.3,0,0.9,0.1,1.3,0.1c1.3,0.1,2.3,0.5,3.5,0.8
		c0.3,0.1,0.7,0.3,1,0.3s0.9,0,1.3,0.1C455.1,888.8,455.3,888.9,455.4,889.2z M452.6,897.1c2.6,0.3,5.5,0.5,8.2-0.6
		c-0.9-2-3.1-3-5.1-4.1c-0.3,0.9-0.7,1.9-1,2.6C453.9,895.7,453.1,896.3,452.6,897.1z M444.5,894.9c-0.6-0.9,0-1.9,0.6-2.6
		c0.6-0.8,1-1.5,1.6-2.4c-3.8-0.3-6.3,0-7.6,0.6C439.8,892.8,442.1,893.8,444.5,894.9z M453.8,894.4c-0.6-2.3-4.8-3.5-7.3-2.6
		c-0.6,0.1-0.3,0.5-0.1,0.8C447.2,894.4,451.5,895.7,453.8,894.4z"/>
</g>
</svg>
