<?xml version="1.0" encoding="utf-8"?>
<!-- Generator: Adobe Illustrator 27.9.0, SVG Export Plug-In . SVG Version: 6.00 Build 0)  -->
<svg version="1.1" id="Layer_1" xmlns="http://www.w3.org/2000/svg" xmlns:xlink="http://www.w3.org/1999/xlink" x="0px" y="0px"
	 viewBox="0 0 449.3 83.7" style="enable-background:new 0 0 449.3 83.7;" xml:space="preserve">
<style type="text/css">
	.st0{fill:#5869BB;}
</style>
<g>
	<path class="st0" d="M79.4,41c0-11.6,0-23.2,0-34.7c0-3.8,1.3-5.2,5-5.2c17,0,34,0,51,0c3.4,0,4.5,1.2,4.6,4.5c0,1.9,0,3.8,0,5.7
		c0,3.5-0.9,4.4-4.5,4.4c-12.3,0-24.7,0-37,0c-4,0-4,0-4,4c0,3.7,0.1,7.3,0,11c-0.1,2.2,0.7,2.9,2.9,2.9c11-0.1,22,0,33,0
		c3.7,0,4.9,1.1,5.1,4.9c0.1,1.6,0,3.2,0,4.7c-0.1,3.9-1.6,5.4-5.6,5.4c-10.4,0-20.8,0-31.2,0c-4.1,0-4.1,0-4.1,4.3
		c0,3.4,0.1,6.8,0,10.2c-0.1,2.2,0.6,3,3,3c12.5-0.1,25-0.1,37.5,0c4,0,5,1,5,5c0,2,0,4,0,6c0,2.2-1,3.5-3.1,3.8
		c-0.9,0.1-1.8,0.2-2.7,0.2c-16.2,0-32.5,0-48.7,0c-4.7,0-6-1.3-6-5.9C79.4,63.8,79.4,52.4,79.4,41z"/>
	<path class="st0" d="M388.4,41.1c0-11.7,0-23.3,0-35c0-3.9,1.1-5,5-5c16.7,0,33.5,0,50.2,0c4.2,0,5.3,1.1,5.3,5.4c0,1.7,0,3.3,0,5
		c-0.1,3-1.2,4.2-4.3,4.2c-12.4,0-24.8,0-37.2,0c-4,0-4,0-4,4c0,3.7,0.1,7.5,0,11.2c-0.1,2.1,0.8,2.7,2.8,2.7c11-0.1,22,0,33,0
		c3.8,0,4.8,1,4.8,4.7c0,1.7,0,3.3,0,5c0,4.1-1.2,5.3-5.4,5.4c-9.5,0-19,0-28.5,0c-6.7,0-6.7,0-6.7,6.6c0,2.4,0,4.8,0,7.2
		c0,3.6,0,3.6,3.5,3.6c12.2,0,24.3,0,36.5,0c4.5,0,5.5,1,5.5,5.6c0,1.4,0,2.8,0,4.2c0,3.7-1.4,5.1-5.1,5.1c-5,0-10,0-15,0
		c-11.5,0-23,0-34.5,0c-5,0-5.9-1-5.9-6C388.4,63.8,388.4,52.4,388.4,41.1z"/>
	<path class="st0" d="M230.6,41.9c0.6,21.9-16.6,41.3-41.3,40.8c-23.1-0.4-39.8-18.9-39.7-41.1c0.1-21.5,16.1-40.7,40.9-40.5
		C214.9,1.3,231.2,20.3,230.6,41.9z M215.5,43c0.1-11.2-3.7-19.5-12.7-24.1c-8.9-4.6-18.4-4.5-26.9,1c-10.3,6.7-12.4,16.8-10.6,27.4
		c2.8,17.2,18.6,23.4,33.6,19.1C209.1,63.5,216,53.7,215.5,43z"/>
	<path class="st0" d="M244.9,41.1c0-11.7,0-23.3,0-35c0-3.9,1.1-5,5.1-5c10.7,0,21.5-0.2,32.2,0.1c11.1,0.3,20.7,4.3,25.2,15.2
		c6.1,14.9,1.4,34.6-20.2,38c-7.7,1.2-15.6,0.6-23.4,0.7c-3.7,0.1-3.7,0-3.7,3.8c0,5.7,0,11.5,0,17.2c0,3.3-1.4,4.8-4.6,4.9
		c-2,0.1-4,0.1-6,0c-3.3-0.2-4.4-1.5-4.4-4.7C244.9,64.6,244.9,52.8,244.9,41.1z M272.7,40.1c3.6,0,7.2,0.1,10.7,0
		c6.2-0.2,10.6-4.3,11-10.1c0.5-8.1-2.8-13.2-9.7-13.7c-7.5-0.6-15.1-0.4-22.7-0.6c-1.4,0-2.1,0.6-2.1,2.1c0,6.7,0.1,13.5,0,20.2
		c0,1.7,0.7,2.1,2.3,2.1C265.7,40,269.2,40.1,272.7,40.1z"/>
	<path class="st0" d="M23.6,1.6c6.8,0,13.7-0.4,20.4,0.1c12.1,0.8,21.3,9.9,23,22c1.8,12.6-2.6,22.8-13,28.1
		c-3.7,1.9-8.2,3-12.4,3.3c-6.8,0.6-13.7,0.2-20.5,0.2c-4.1,0-4.1,0-4.1,4.2c0,5.7,0,11.5,0,17.2c0,3.8-1.1,4.9-4.9,4.9
		c-2.1,0-4.2,0.1-6.2,0c-2.4-0.1-4-1.5-4-3.9C1.9,66.5,1.9,55.3,2,44.2c0-2.4,1.8-3.6,4.8-3.6c10.7,0,21.5,0,32.2,0c1,0,2,0,3-0.2
		c6.7-1.2,9.8-4.8,10-11.6c0.3-7.7-3.7-12.4-11.5-12.7c-11.1-0.3-22.3-0.3-33.5-0.5c-4.2,0-5.2-1-5.2-5.1c0-1.7,0-3.3,0-5
		c0-3,1.4-4.5,4.4-4.5c5.7,0,11.5,0,17.2,0C23.6,1.2,23.6,1.4,23.6,1.6z"/>
	<path class="st0" d="M321.9,40.9c0-11.6,0-23.1,0-34.7c0-4.1,1-5.1,5.2-5.1c1.5,0,3,0,4.5,0c4.2,0,5.4,1.2,5.4,5.3
		c0,18.8,0,37.6,0,56.4c0,3.3,0,3.3,3.3,3.3c10.5,0,21,0,31.5,0c3.8,0,5.1,1.3,5.2,5c0,1.7,0.1,3.5,0,5.2c-0.1,3.1-1.6,4.7-4.6,4.7
		c-15.3,0.1-30.6,0.1-46,0c-3.3,0-4.4-1.4-4.4-4.7C321.9,64.5,321.9,52.7,321.9,40.9z"/>
</g>
</svg>
