<?xml version="1.0" encoding="utf-8"?>
<!-- Generator: Adobe Illustrator 27.9.0, SVG Export Plug-In . SVG Version: 6.00 Build 0)  -->
<svg version="1.1" id="Layer_1" xmlns="http://www.w3.org/2000/svg" xmlns:xlink="http://www.w3.org/1999/xlink" x="0px" y="0px"
	 viewBox="0 0 606.6 83.7" style="enable-background:new 0 0 606.6 83.7;" xml:space="preserve">
<style type="text/css">
	.st0{fill:#5869BB;}
</style>
<g>
	<path class="st0" d="M129.2,50.6c0.8,1.3,1.4,2.3,2,3.3c4.5,6.9,9,13.8,13.5,20.7c1,1.6,2.2,3.5,0.8,5c-1,1.1-3,1.9-4.5,1.9
		c-12.1,0.1-8.9,1.1-15.1-8.2c-3.9-5.9-7.5-12-11.3-17.9c-0.5-0.7-1.4-1.6-2.2-1.6c-6.2-0.1-12.3-0.1-18.8-0.1
		c-0.1,1-0.2,1.9-0.2,2.8c0,6.5,0,13,0,19.5c0,4.3-1.4,5.7-5.7,5.7c-1.7,0-3.5,0.1-5.2,0c-3-0.2-4.1-1.4-4.2-4.5c0-0.5,0-1,0-1.5
		c0-22.8,0-45.7,0-68.5c0-4.6,0.9-5.5,5.6-5.5c11.2,0,22.3-0.1,33.5,0c7.6,0.1,14.6,2.2,20.2,7.7c4.5,4.4,6.8,9.9,6.8,16.1
		c0,3.9-0.4,7.8-1.4,11.5c-1.4,5.4-5.2,9.2-10.2,11.7C131.7,49.3,130.6,49.9,129.2,50.6z M93.4,38.2c9.1,0,17.9,0.3,26.7-0.1
		c4.3-0.2,8.2-2.6,9.1-7.3c1.2-6.9-0.7-12.9-9.6-14c-8-1-16.1-0.5-24.2-0.6c-1.3,0-2,0.5-2,1.9C93.4,24.8,93.4,31.4,93.4,38.2z"/>
	<path class="st0" d="M316.3,41.6c0-11.7,0-23.3,0-35c0-3.9,1.1-5,5-5c16.7,0,33.5,0,50.2,0c4.1,0,5.3,1.2,5.3,5.4c0,1.7,0,3.3,0,5
		c-0.1,3-1.2,4.2-4.3,4.2c-12.4,0-24.8,0-37.2,0c-4,0-4,0-4,4c0,3.7,0.1,7.5,0,11.2c-0.1,2.1,0.8,2.7,2.8,2.7c11-0.1,22,0,33,0
		c3.8,0,4.8,1,4.8,4.7c0,1.7,0,3.3,0,5c0,4.1-1.3,5.3-5.4,5.3c-9.8,0-19.7,0-29.5,0c-5.6,0-5.6,0-5.6,5.6c0,2.8,0,5.7,0,8.5
		c0,3.3,0,3.3,3.2,3.3c12,0,24,0,36,0c5.4,0,6.3,0.8,6.3,6.1c0,1.2,0,2.5,0,3.7c0,3.7-1.4,5.1-5.2,5.1c-5.8,0-11.7,0-17.5,0
		c-10.5,0-21,0-31.5,0c-5.6,0-6.4-0.8-6.4-6.3C316.3,64.1,316.3,52.8,316.3,41.6z"/>
	<path class="st0" d="M236.1,42.4c0.5,22-16.9,41.6-42.2,40.7C171.6,82.4,155,64.3,155.1,42c0.1-21.3,16-40.7,41-40.4
		C220.3,1.8,236.6,20.6,236.1,42.4z M220.9,42.5c0-0.3,0-0.7,0-1c0-10.1-4.2-18.2-13.4-22.5c-9.4-4.3-19.2-4-27.8,2.5
		c-8.7,6.6-11.2,17.7-8.3,28.9c4,15.3,19.4,20.5,33.5,16.2C214.3,63.8,221.5,54.4,220.9,42.5z"/>
	<path class="st0" d="M575.1,83.3c-8.4-0.2-16.6-1.2-23.9-5.9c-7-4.5-10.2-11.2-11.3-19.1c-0.4-3.1,1.1-4.6,4.3-4.7c2.3,0,4.7,0,7,0
		c2.1,0,3.7,1,4,3.1c0.8,7.1,5.7,9.7,11.8,11c6.4,1.3,12.7,1.4,19-0.6c4-1.3,5.8-3.7,6-7.4c0.2-2.5-0.8-4.4-3-5.2
		c-4.4-1.7-8.8-3.3-13.3-4.7c-5.8-1.8-11.8-3.1-17.5-5.1c-5.6-2-10.9-5-13.9-10.5c-5.2-9.7-1.7-23.7,10.8-29.2
		c7.3-3.2,14.9-4.2,22.7-3c4.6,0.7,9.4,1.7,13.6,3.6c8.3,3.7,12.9,10.4,13.8,19.6c0.2,2.3-1.1,3.8-3.4,3.9c-2.7,0.1-5.5,0-8.2,0
		c-1.9,0-3.1-0.9-3.4-2.6c-1-5.7-4.8-8.3-10-9.4c-6-1.4-12.1-1.4-17.9,0.9c-1.1,0.5-2.3,1.1-3.1,2c-3.1,3-2.9,7.1,0.8,9.1
		c3.2,1.7,6.7,2.9,10.2,3.9c5.8,1.7,11.9,2.7,17.6,4.7c4.4,1.6,8.8,3.7,12.6,6.4c9.5,7,8.7,20.9,2.5,28.7c-4.8,6-11.5,8.6-18.8,9.7
		C580.9,83,578,83,575.1,83.3z"/>
	<path class="st0" d="M453.8,31.1c-0.8,0-1.7-0.1-2.5,0c-2.7,0.3-4.3-0.9-5.5-3.3c-3.2-6.3-8.3-10.2-15.3-11
		c-15.9-1.8-26.8,6.1-28.6,21.3c-0.8,6.6,0,12.8,3,18.6c3.7,7.1,9.9,10.4,17.5,11.2c3.6,0.4,7.4,0.1,10.9-0.7
		c5.7-1.3,10-4.9,12.5-10.2c1.2-2.5,2.9-3.7,5.7-3.5c2.2,0.2,4.3-0.1,6.5,0.1c3,0.2,4.4,2.4,3.3,5.2c-5.5,14.8-19.1,24-34.8,24.4
		c-21.6,0.5-36.4-13.8-39.3-32.1c-2.7-16.9,1-31.9,15.4-42.6c8.1-6,17.3-7.5,27.2-6.5c10.5,1,19.2,5.4,25.6,13.8
		c2.5,3.3,4.2,7.1,6,10.8c1,2-0.5,4.1-2.9,4.5c-0.2,0-0.3,0-0.5,0C456.6,31.1,455.2,31.1,453.8,31.1
		C453.8,31.1,453.8,31.1,453.8,31.1z"/>
	<path class="st0" d="M22.1,2c6.9,0,13.8-0.3,20.7,0.1C55.6,2.9,65.7,13.9,66,26.8c0.2,6.9-0.9,13.3-5.3,18.8
		c-5.1,6.5-12.1,9.6-20.2,9.9c-7.1,0.3-14.2,0.1-21.2,0.1c-3.4,0-3.4,0-3.4,3.3c0,6,0,12,0,18c0,3.8-1.3,5.1-5.1,5.1
		c-2.1,0-4.2,0.1-6.2,0c-2.4-0.1-3.8-1.3-3.8-3.7c-0.1-11.2-0.1-22.5,0-33.7c0-2.5,1.6-3.6,4.5-3.6c10.9,0,21.8,0,32.7-0.1
		c2,0,4-0.4,5.8-1c4.3-1.4,6.3-4.7,6.9-9c0.9-6.8-2.1-14.2-11.2-14.4C28.3,16.3,17.2,16.3,6,16.2c-4.6-0.1-5.3-0.7-5.3-5.4
		c0-1.7,0-3.5,0-5.2c0.1-2.7,1.4-3.9,4.3-4c5.7,0,11.3,0,17,0C22,1.7,22,1.9,22.1,2z"/>
	<path class="st0" d="M493.3,47.8c0-9.5-0.1-19,0-28.5c0-2.4-0.7-3.3-3.1-3.2c-6.1,0.1-12.2,0.1-18.2,0c-3.2,0-4.1-1-4.2-4.2
		c0-2.1,0-4.2,0-6.2c0.1-2.8,1.3-4.1,4.1-4.1c3.6-0.1,7.2,0,10.7,0c15.2,0,30.5,0,45.7,0c4.3,0,5.5,1.2,5.5,5.4c0,1.7,0.1,3.5,0,5.2
		c-0.2,2.7-1.4,3.9-4.1,3.9c-6.1,0-12.2,0.1-18.2,0c-2.4,0-3.2,0.7-3.1,3.1c0.1,18.9,0.1,37.8,0,56.7c0,4.3-1.4,5.6-5.7,5.6
		c-1.7,0-3.5,0.1-5.2,0c-3.1-0.3-4.1-1.4-4.1-4.5C493.3,67.3,493.3,57.6,493.3,47.8z"/>
	<path class="st0" d="M298.4,29.8c0,7.3,0.3,14.7-0.1,22c-0.3,4.8-0.8,9.9-2.4,14.4c-3.3,9.8-12.2,15.6-22.6,15.9
		c-7.5,0.2-14.7-0.8-20.7-5.7c-5.3-4.3-8.5-10-9.3-16.8c-0.4-3.2,0.8-4.5,4-4.6c2.3-0.1,4.7,0,7,0c2.1,0,3.6,0.9,4.2,3.1
		c2.4,10.2,14.3,10.8,20.3,7.2c3.4-2,4-5.6,4-9.2C283,40,283,23.7,283.1,7.5c0-0.9-0.1-1.9,0.1-2.7c0.3-0.9,0.9-2.3,1.5-2.4
		c4-0.2,8-0.3,11.9,0.1c0.7,0.1,1.6,2.8,1.6,4.3C298.5,14.5,298.4,22.1,298.4,29.8z"/>
</g>
</svg>
