<?xml version="1.0" encoding="utf-8"?>
<!-- Generator: Adobe Illustrator 27.9.0, SVG Export Plug-In . SVG Version: 6.00 Build 0)  -->
<svg version="1.1" id="Layer_1" xmlns="http://www.w3.org/2000/svg" xmlns:xlink="http://www.w3.org/1999/xlink" x="0px" y="0px"
	 viewBox="0 0 857.9 83.7" style="enable-background:new 0 0 857.9 83.7;" xml:space="preserve">
<style type="text/css">
	.st0{fill:#5869BB;}
</style>
<g>
	<path class="st0" d="M221.6,40.7c0.7,0.7,1.3,1.3,1.9,1.8c11.7,9.2,10.5,30.4-6,36.8c-5.4,2.1-11,2.7-16.6,2.8
		c-10.2,0.2-20.3,0.1-30.5,0c-4.5,0-5.9-1.4-5.9-5.8c0-23,0-46,0-68.9c0-3.9,1.3-5.3,5.2-5.3c10.7,0,21.5-0.2,32.2,0.1
		c8.2,0.2,15.6,2.5,20.9,9.2c5.9,7.4,6.1,19.4,0.3,27C222.8,39.1,222.2,39.8,221.6,40.7z M194.4,67.1
		C194.4,67.1,194.4,67.1,194.4,67.1c4.1,0,8.1,0,12.2,0c0.2,0,0.3,0,0.5,0c4.9-0.3,8.4-3,9-7.1c0.6-4.5-1.8-8.3-6.6-9.9
		c-1.5-0.5-3.1-0.9-4.6-0.9c-7.6-0.1-15.1,0-22.7-0.1c-1.7,0-2.4,0.6-2.4,2.3c0,4.5,0,9,0,13.5c0,1.7,0.7,2.3,2.4,2.3
		C186.2,67,190.3,67.1,194.4,67.1z M192.4,34.6C192.4,34.6,192.4,34.5,192.4,34.6c3.6,0,7.2,0.1,10.7,0c5.2-0.2,8.8-3.3,9-7.6
		c0.3-6.2-1.9-9.4-7.9-9.8c-7.5-0.5-15-0.3-22.4-0.4c-1.6,0-1.9,1-1.9,2.3c0,4.4,0,8.8,0,13.2c0,1.7,0.6,2.4,2.4,2.3
		C185.5,34.5,189,34.6,192.4,34.6z"/>
	<path class="st0" d="M720.7,28.9c0,1,0,2,0,2.9c0,15,0,30,0,45c0,4-1.2,5.2-5.2,5.3c-1.8,0-3.7,0.1-5.5,0c-3-0.2-4.3-1.6-4.3-4.6
		c0-23.7,0-47.3,0-71c0-3,1.3-4.3,4.2-4.4c1.1,0,2.2,0.1,3.2,0c5.4-0.9,8.6,1.5,11.7,5.8c10.9,15.3,22.2,30.4,33.4,45.5
		c0.5,0.6,1,1.2,2.1,1.6c0.1-1,0.2-2,0.2-3.1c0-14.9,0-29.8,0-44.7c0-4.1,1-5.1,5.2-5.1c1.9,0,3.8-0.1,5.7,0
		c2.7,0.1,4.2,1.6,4.2,4.2c0,23.7,0,47.3,0,71c0,3.1-1.5,4.6-4.6,4.7c-2.5,0.1-5,0.1-7.5,0c-2-0.1-3.6-1-4.8-2.7
		C747,63.2,735.2,47.1,723.4,31c-0.6-0.8-1.3-1.6-1.9-2.4C721.2,28.7,720.9,28.8,720.7,28.9z"/>
	<path class="st0" d="M610.6,42.8C610,21.5,626,2.1,650.9,2.1c23.9,0,40.6,17.8,40.7,40.6c0.1,23.6-17.6,40.9-40.5,41
		C627,83.8,609.9,64.6,610.6,42.8z M651,68.6c13.1,0.7,25.5-8.6,25.5-25.6c0-15.4-10.7-25.9-25.2-26.1
		c-17.2-0.2-25.9,13.6-25.7,25.8C625.8,58.5,635.5,68.6,651,68.6z"/>
	<path class="st0" d="M825.5,83.7c-10.7-0.1-19.6-1.3-27.2-7.2c-5.8-4.6-8.6-10.8-9.2-18.1c-0.2-2.8,1.2-4.2,4-4.2
		c2.4-0.1,4.8,0,7.2,0c2.1,0,3.7,0.9,4,3c0.9,7.3,5.9,9.9,12.3,11.1c6.2,1.2,12.4,1.2,18.5-0.7c3.9-1.3,5.9-3.8,6.1-7.3
		c0.2-2.5-0.8-4.4-3-5.3c-4.4-1.8-8.8-3.4-13.3-4.8c-5.8-1.8-11.7-3.1-17.5-5.1c-5.6-1.9-10.7-4.9-13.8-10.2
		c-5.3-8.9-1.9-21.7,7.2-27.5c7.8-5,16.5-5.7,25.5-5.2c5,0.3,9.9,1.3,14.4,3.7c8,4.2,13.1,10.4,13.7,19.7c0.2,2.7-0.9,3.9-3.5,4
		c-2.7,0-5.3,0-8,0c-1.9,0-3.2-0.9-3.5-2.6c-0.9-5.9-5-8.4-10.2-9.5c-5.9-1.3-11.9-1.4-17.7,0.9c-1.1,0.4-2.1,1-3,1.8
		c-3.3,2.9-3.2,7.4,0.7,9.5c3.1,1.7,6.5,2.8,10,3.8c5.8,1.7,11.8,2.8,17.6,4.6c3.7,1.2,7.3,2.9,10.6,4.9c12,7.3,10.9,23.2,3.7,31.2
		c-4.8,5.4-11.2,7.7-18,8.8C830.1,83.5,827,83.5,825.5,83.7z"/>
	<path class="st0" d="M461.2,2.1c8.3,0,7.1-0.7,10.3,6.8c9.3,21.8,18.5,43.6,27.8,65.5c2.6,6.1,1.5,7.8-5.2,7.8
		c-8.7,0-7.8,0.4-11.1-7.3c-1.7-4.1-3.5-8.1-5.2-12.2c-0.6-1.4-1.4-2-3-2c-9.1,0.1-18.2,0.1-27.2,0c-1.8,0-2.7,0.8-3.3,2.3
		c-2.1,5.2-4.4,10.4-6.5,15.7c-1,2.6-2.8,3.6-5.4,3.5c-2,0-4,0-6,0c-3.7-0.1-5.8-2.1-4.1-6.2c10.1-23.5,20-47,30-70.5
		c1-2.4,2.5-3.6,5.2-3.3C458.7,2.1,460,2.1,461.2,2.1z M470.9,45.9c-3.2-7.6-6.2-14.8-9.2-22c-0.3,0-0.6,0-0.8,0
		c-3,7.2-6,14.4-9.1,22C458.3,45.9,464.2,45.9,470.9,45.9z"/>
	<path class="st0" d="M408.7,31.6c-1.1,0-2.2,0-3.2,0c-2.1,0.1-3.5-0.7-4.4-2.6c-5.5-11.3-15.6-13.5-26.8-11.3
		c-9.9,1.9-16.8,10.2-17.4,21c-0.3,4.2-0.2,8.5,0.7,12.6c1.8,8.1,6.8,13.9,15,16.1c8.1,2.2,16.1,2.1,22.9-3.6c2.2-1.9,3.9-4.5,5.5-7
		c1.2-1.9,2.5-3,4.8-2.8c2.4,0.1,4.8-0.1,7.2,0.1c2.9,0.2,4.2,2.4,3.2,5.1c-6.3,16.9-23.5,26.5-41.5,24.2
		c-16.2-2.1-30-14.1-32.8-32.4c-2.3-14.9,0.7-28.5,12.2-39.3c6.1-5.7,13.5-8.6,21.8-9.3c8.7-0.8,16.9,0.6,24.5,5.1
		c7.7,4.5,12.9,11.2,15.9,19.5c0.8,2.3-0.5,4.3-3.1,4.6C411.7,31.7,410.2,31.5,408.7,31.6C408.7,31.6,408.7,31.6,408.7,31.6z"/>
	<path class="st0" d="M78,28.9c0-7.3,0-14.7,0-22c0-3.6,1.2-4.8,4.8-4.8c1.7,0,3.5,0,5.2,0c3.8,0,5.1,1.4,5.1,5.1c0,14,0,28,0,42
		c0,4.8,1.5,9.2,4.7,12.8c5.4,6.1,14.9,7.2,22.4,4.4c7-2.6,11.2-9.1,11.3-17.2c0.1-13.8,0.2-27.7,0.3-41.5c0-4.8,0.9-5.7,5.7-5.7
		c1.4,0,2.8,0,4.2,0c3.8,0,5.3,1.4,5.3,5.3c0,12.8,0.1,25.7-0.1,38.5c-0.1,4-0.5,8-1.5,11.8c-3.4,14.6-16.3,24.6-31.3,25
		c-9.9,0.3-18.8-2-26.1-9.1c-6.5-6.4-9.9-14.3-10.1-23.4C77.9,43,78.1,35.9,78,28.9C78,28.9,78,28.9,78,28.9z"/>
	<path class="st0" d="M22.7,41.5c5.4,0,10.8,0.1,16.2,0c4.6-0.1,8.9-1.4,11-6c2.2-4.8,2.1-9.7-1-14.2c-2-2.9-5.1-4-8.4-4.2
		c-4.6-0.3-9.1-0.4-13.7-0.4c-7-0.1-14,0-21,0c-3.5,0-4.7-1.2-4.8-4.8c0-1.8,0-3.7,0-5.5C1.2,3.8,2.5,2.1,5,2.1
		C18,2.2,31,1.8,44,2.7C57,3.6,66.5,15,66.7,28.2c0.1,10.7-3.5,19.4-13.3,24.4c-3.7,1.9-8.2,3-12.4,3.3c-7.1,0.5-14.3,0.2-21.5,0.2
		c-2.1,0-2.9,0.6-2.9,2.8c0.1,5.8,0.1,11.7,0,17.5c0,4.9-1.2,6.1-6,6.1c-1.7,0-3.5,0-5.2,0c-2.7-0.1-4.2-1.5-4.3-4.2
		c-0.1-11-0.1-22,0-33c0-2.5,1.7-3.8,4.6-3.8C11.4,41.5,17.1,41.6,22.7,41.5C22.7,41.5,22.7,41.5,22.7,41.5z"/>
	<path class="st0" d="M544.6,48.1c0,9.4,0,18.8,0,28.2c0,4.3-1.4,5.7-5.7,5.7c-1.7,0-3.3,0.1-5,0c-3.3-0.2-4.5-1.4-4.5-4.7
		c0-10,0-20,0-30c0-8.7,0-17.5,0-26.2c0-4.5,0-4.5-4.4-4.5c-5.6,0-11.2,0-16.7,0c-3.5,0-4.4-0.9-4.5-4.5c0-2-0.1-4,0-6
		c0.1-2.8,1.4-4.1,4.2-4.1c5.2,0,10.5,0,15.7,0c13.6,0,27.2,0,40.7,0c4.2,0,5.5,1.2,5.5,5.5c0,1.6,0.1,3.2,0,4.7
		c-0.2,3.1-1.4,4.3-4.5,4.3c-6,0-12,0.1-18,0c-2.2,0-3,0.6-3,3C544.7,29.1,544.6,38.6,544.6,48.1z"/>
	<path class="st0" d="M245.6,41.9c0-11.7,0-23.3,0-35c0-3.8,1.1-4.9,4.9-4.9c1.6,0,3.2,0,4.7,0c4.2,0,5.4,1.2,5.4,5.3
		c0,18.7,0,37.5,0,56.2c0,3.5,0,3.5,3.4,3.5c10.4,0,20.8,0,31.2,0c4.1,0,5.3,1.3,5.4,5.4c0,1.3,0,2.7,0,4c0,4.2-1.4,5.6-5.8,5.6
		c-10.1,0-20.2,0-30.2,0c-4.6,0-9.2,0-13.7,0c-4.2,0-5.3-1.2-5.3-5.4C245.6,65.1,245.6,53.5,245.6,41.9z"/>
	<path class="st0" d="M312.1,42c0-11.7,0-23.3,0-35c0-3.8,1.1-4.9,4.9-4.9c2,0,4-0.1,6,0c2.7,0.1,4.2,1.5,4.2,4.2
		c0,23.7,0,47.5,0,71.2c0,2.8-1.2,4.2-4,4.5c-2.3,0.2-4.7,0.2-7,0c-3-0.2-4.1-1.5-4.1-4.6C312.1,65.6,312.1,53.8,312.1,42z"/>
	<path class="st0" d="M596.3,41.8c0,11.6,0,23.2,0,34.7c0,4.3-1.1,5.5-5.4,5.5c-1.4,0-2.8,0-4.2,0c-4,0-5.5-1.5-5.5-5.4
		c0-8.7,0-17.5,0-26.2c0-14.3,0-28.7,0-43c0-4.1,1.3-5.4,5.4-5.4c1.7,0,3.5,0,5.2,0c3.3,0,4.5,1.2,4.5,4.5
		C596.3,18.3,596.3,30.1,596.3,41.8z"/>
</g>
</svg>
