<?xml version="1.0" encoding="utf-8"?>
<!-- Generator: Adobe Illustrator 28.0.0, SVG Export Plug-In . SVG Version: 6.00 Build 0)  -->
<svg version="1.1" id="Layer_1" xmlns="http://www.w3.org/2000/svg" xmlns:xlink="http://www.w3.org/1999/xlink" x="0px" y="0px"
	 viewBox="0 0 720 720" style="enable-background:new 0 0 720 720;" xml:space="preserve">
<style type="text/css">
	.st0{opacity:0.4;fill:#6666FF;}
	.st1{opacity:0.86;fill:#6666FF;}
</style>
<ellipse class="st0" cx="441.8" cy="461.1" rx="230.7" ry="63.7"/>
<ellipse transform="matrix(1 -1.329342e-03 1.329342e-03 1 -0.6129 0.178)" class="st0" cx="133.6" cy="461.1" rx="86.2" ry="39.6"/>
<path class="st1" d="M474.8,158c-14.5-14.2-38.8-15-54.3-1.7c-0.3,0.3-0.6,0.5-0.9,0.8L225,335.4c-10.7,9.8-28,9.8-38.7,0L157.4,309
	c-15-13.7-39.3-13.8-54.2,0c0,0,0,0,0,0l-55.8,51.2l625.1,0.2l0-7.3L474.8,158z"/>
</svg>
