<?xml version="1.0" encoding="UTF-8"?>
<svg xmlns="http://www.w3.org/2000/svg" version="1.1" xmlns:xlink="http://www.w3.org/1999/xlink" viewBox="0 0 770 770.1">
  <defs>
    <style>
      .cls-1 {
        fill: #cacaca;
      }

      .cls-2 {
        fill: url(#linear-gradient-2);
      }

      .cls-3 {
        fill: #2f2e41;
      }

      .cls-4 {
        fill: #f5f5f5;
        opacity: .2;
      }

      .cls-4, .cls-5, .cls-6, .cls-7, .cls-8 {
        isolation: isolate;
      }

      .cls-5 {
        opacity: 0;
      }

      .cls-6 {
        opacity: .4;
      }

      .cls-6, .cls-9 {
        fill: #f2f2f2;
      }

      .cls-10 {
        fill: #fff;
      }

      .cls-11 {
        fill: #ffb6b6;
      }

      .cls-12 {
        fill: #f0f0f0;
      }

      .cls-13 {
        fill: url(#linear-gradient-4);
      }

      .cls-14 {
        fill: #3f3d56;
      }

      .cls-7 {
        opacity: .2;
      }

      .cls-15 {
        fill: url(#linear-gradient-3);
      }

      .cls-16 {
        fill: #ffb8b8;
      }

      .cls-8 {
        opacity: .1;
      }

      .cls-17 {
        fill: #5869bb;
      }

      .cls-18 {
        fill: #a0616a;
      }

      .cls-19 {
        fill: #ccc;
      }

      .cls-20 {
        fill: #b3b3b3;
      }

      .cls-21 {
        fill: #536dfe;
      }

      .cls-22 {
        fill: #e4e4e4;
      }

      .cls-23 {
        fill: url(#linear-gradient);
      }

      .cls-24 {
        fill: #e6e6e6;
      }
    </style>
    <linearGradient id="linear-gradient" x1="167" y1="828.3" x2="167" y2="817.3" gradientTransform="translate(-276.4 -1154.2) rotate(-14.4) scale(2.2 1.9) skewX(-3.6)" gradientUnits="userSpaceOnUse">
      <stop offset="0" stop-color="gray" stop-opacity=".2"/>
      <stop offset=".5" stop-color="gray" stop-opacity=".1"/>
      <stop offset="1" stop-color="gray" stop-opacity=".1"/>
    </linearGradient>
    <linearGradient id="linear-gradient-2" x1="-89.9" y1="695.2" x2="-89.9" y2="677.8" gradientTransform="translate(153.6 -820.7) rotate(169.5) scale(1.8 -1.6) skewX(-2.9)" gradientUnits="userSpaceOnUse">
      <stop offset="0" stop-color="gray" stop-opacity=".2"/>
      <stop offset=".5" stop-color="gray" stop-opacity=".1"/>
      <stop offset="1" stop-color="gray" stop-opacity=".1"/>
    </linearGradient>
    <linearGradient id="linear-gradient-3" x1="167.7" y1="683.2" x2="167.7" y2="666.4" gradientTransform="translate(66.1 -1306.6) rotate(11) scale(2 2.1) skewX(1.2)" gradientUnits="userSpaceOnUse">
      <stop offset="0" stop-color="gray" stop-opacity=".2"/>
      <stop offset=".5" stop-color="gray" stop-opacity=".1"/>
      <stop offset="1" stop-color="gray" stop-opacity=".1"/>
    </linearGradient>
    <linearGradient id="linear-gradient-4" x1="138.9" y1="811.4" x2="138.9" y2="799" gradientTransform="translate(-358.9 -1281.7) rotate(-14.7) scale(2.3 2) skewX(-3.1)" gradientUnits="userSpaceOnUse">
      <stop offset="0" stop-color="gray" stop-opacity=".2"/>
      <stop offset=".5" stop-color="gray" stop-opacity=".1"/>
      <stop offset="1" stop-color="gray" stop-opacity=".1"/>
    </linearGradient>
  </defs>
  <!-- Generator: Adobe Illustrator 28.7.1, SVG Export Plug-In . SVG Version: 1.2.0 Build 142)  -->
  <g>
    <g id="d8951433-2714-4e95-856e-ed301a2a6756">
      <ellipse class="cls-9" cx="658.5" cy="86" rx="27.6" ry="24"/>
      <path class="cls-9" d="M74.8,202.8c6.6-21.8,22.7-38.7,41.7-48.7,22.6-11.9,48.6-13.3,73.2-8.6,26.5,5,51.3,16.6,75.3,29.2,23.5,12.4,46.7,25.4,71.1,35.6,48.8,20.4,100.6,31.7,153.1,33.6,47.2,1.7,97.7-3.8,138.1-31.9,37-25.8,60.6-68.3,72.9-112.6,1.6-5.7,3-11.4,4.2-17.2.4-1.7-2.1-2.4-2.4-.7-9.9,46.3-31,92-67.1,121.5-39,31.9-90.2,39.3-138.2,38.4-53-1-105.5-11.7-155.1-31.7-25.1-10.1-48.8-23.3-72.8-36-23.5-12.4-47.6-24-73.4-29.8-23.6-5.2-48.8-5.5-71.5,3.8-18.7,7.7-35.7,21.3-45.7,40-2.4,4.6-4.4,9.4-5.9,14.4-.5,1.6,2,2.3,2.5.7h0Z"/>
      <path class="cls-14" d="M456,401.3c.5,0,.8-.4.8-.9s-.4-.9-.8-.9h-7.9v-3.5h7.9c.5,0,.8-.4.8-.9s-.4-.9-.8-.9h-67.8c-.5,0-.8.4-.8.9s.4.9.8.9h7.9v3.5h-7.9c-.5,0-.8.4-.8.9s.4.9.8.9h7.9v3.5h-7.9c-.5,0-.8.4-.8.9s.4.9.8.9h7.9v3.5h-7.1c-.9,0-1.7.8-1.7,1.8s.7,1.8,1.7,1.8h6.8c0,.1-.1.3-.1.4v12.4c0,.7.6,1.3,1.3,1.3s1.3-.6,1.3-1.3v-12.4c0-.2,0-.3-.1-.4h47.8c0,.1-.1.3-.1.4v12.4c0,.7.6,1.3,1.3,1.3s1.3-.6,1.3-1.3v-12.4c0-.2,0-.3-.1-.4h6.8c.9,0,1.7-.8,1.7-1.8s-.7-1.8-1.7-1.8h-7.1v-3.5h7.9c.5,0,.8-.4.8-.9s-.4-.9-.8-.9h-7.9v-3.5h7.9ZM397.9,396h48.5v3.5h-48.5v-3.5ZM446.4,410.2h-48.5v-3.5h48.5v3.5ZM446.4,404.9h-48.5v-3.5h48.5v3.5Z"/>
      <path class="cls-24" d="M200.8,370.3c0-15.7-12-52.8-26.8-52.8s-26.8,37.2-26.8,52.8,12,28.4,26.8,28.4c14.8,0,26.8-12.7,26.8-28.4h0Z"/>
      <path class="cls-9" d="M194.1,370.3c0-15.7-12-52.8-26.8-52.8s-26.8,37.2-26.8,52.8,12,28.4,26.8,28.4c14.8,0,26.8-12.7,26.8-28.4h0Z"/>
      <path class="cls-19" d="M168.2,433.8c-.5,0-.8-.4-.8-.9v-79.1c0-.5.4-.9.8-.9s.8.4.8.9v79.1c0,.5-.3.9-.8.9Z"/>
      <path class="cls-19" d="M168.2,366.8c-.5,0-.8-.4-.8-.9s.1-.5.2-.6l10.9-11.6c.3-.3.9-.3,1.2,0s.3.9,0,1.3l-10.9,11.6c-.2.1-.4.2-.6.2Z"/>
      <path class="cls-24" d="M484.5,369.9c0-15.7-12-52.8-26.8-52.8s-26.8,37.2-26.8,52.8,12,28.4,26.8,28.4,26.8-12.7,26.8-28.4h0Z"/>
      <path class="cls-9" d="M477.9,369.9c0-15.7-12-52.8-26.8-52.8s-26.8,37.2-26.8,52.8,12,28.4,26.8,28.4,26.8-12.7,26.8-28.4h0Z"/>
      <path class="cls-19" d="M451.9,433.3c-.5,0-.8-.4-.8-.9v-79.1c0-.5.4-.9.8-.9s.8.4.8.9v79.1c.1.5-.3.9-.8.9Z"/>
      <path class="cls-19" d="M451.9,366.4c-.5,0-.8-.4-.8-.9s.1-.5.2-.6l10.9-11.6c.3-.3.9-.3,1.2,0,.3.3.3.9,0,1.3l-10.9,11.6c-.1.1-.4.2-.6.2Z"/>
      <path class="cls-24" d="M256.9,121.2h-13.4c-2.1,0-3.8-1.8-3.8-4v-32.8c0-2.2,1.7-4,3.8-4h13.4c2.1,0,3.8,1.8,3.8,4v32.8c0,2.2-1.7,4-3.8,4Z"/>
      <path class="cls-24" d="M309.6,427.2h-68.6c-3.9,0-7.1-3.4-7.1-7.5V126.1c0-4.2,3.2-7.5,7.1-7.5h68.6c3.9,0,7.1,3.4,7.1,7.5v293.6c0,4.1-3.2,7.5-7.1,7.5Z"/>
      <path class="cls-9" d="M268.6,427.2h-68.6c-3.9,0-7.1-3.4-7.1-7.5V126.1c0-4.2,3.2-7.5,7.1-7.5h68.6c3.9,0,7.1,3.4,7.1,7.5v293.6c0,4.1-3.2,7.5-7.1,7.5Z"/>
      <path class="cls-9" d="M244.3,121.2h-13.4c-2.1,0-3.8-1.8-3.8-4v-32.8c0-2.2,1.7-4,3.8-4h13.4c2.1,0,3.8,1.8,3.8,4v32.8c0,2.2-1.7,4-3.8,4Z"/>
      <path class="cls-10" d="M226.8,185.1h-15.9c-1.2,0-2.1-1-2.1-2.2v-25.7c0-1.2.9-2.2,2.1-2.2h15.9c1.2,0,2.1,1,2.1,2.2v25.7c0,1.2-1,2.2-2.1,2.2Z"/>
      <path class="cls-10" d="M257.7,185.1h-15.9c-1.2,0-2.1-1-2.1-2.2v-25.7c0-1.2.9-2.2,2.1-2.2h15.9c1.2,0,2.1,1,2.1,2.2v25.7c0,1.2-.9,2.2-2.1,2.2Z"/>
      <path class="cls-10" d="M226.8,232.1h-15.9c-1.2,0-2.1-1-2.1-2.2v-25.7c0-1.2.9-2.2,2.1-2.2h15.9c1.2,0,2.1,1,2.1,2.2v25.7c0,1.2-1,2.2-2.1,2.2Z"/>
      <path class="cls-10" d="M257.7,232.1h-15.9c-1.2,0-2.1-1-2.1-2.2v-25.7c0-1.2.9-2.2,2.1-2.2h15.9c1.2,0,2.1,1,2.1,2.2v25.7c0,1.2-.9,2.2-2.1,2.2Z"/>
      <path class="cls-10" d="M226.8,279.1h-15.9c-1.2,0-2.1-1-2.1-2.2v-25.7c0-1.2.9-2.2,2.1-2.2h15.9c1.2,0,2.1,1,2.1,2.2v25.7c0,1.2-1,2.2-2.1,2.2Z"/>
      <path class="cls-10" d="M257.7,279.1h-15.9c-1.2,0-2.1-1-2.1-2.2v-25.7c0-1.2.9-2.2,2.1-2.2h15.9c1.2,0,2.1,1,2.1,2.2v25.7c0,1.2-.9,2.2-2.1,2.2Z"/>
      <path class="cls-10" d="M226.8,326.1h-15.9c-1.2,0-2.1-1-2.1-2.2v-25.7c0-1.2.9-2.2,2.1-2.2h15.9c1.2,0,2.1,1,2.1,2.2v25.7c0,1.2-1,2.2-2.1,2.2Z"/>
      <path class="cls-10" d="M257.7,326.1h-15.9c-1.2,0-2.1-1-2.1-2.2v-25.7c0-1.2.9-2.2,2.1-2.2h15.9c1.2,0,2.1,1,2.1,2.2v25.7c0,1.2-.9,2.2-2.1,2.2Z"/>
      <path class="cls-10" d="M226.8,373.1h-15.9c-1.2,0-2.1-1-2.1-2.2v-25.7c0-1.2.9-2.2,2.1-2.2h15.9c1.2,0,2.1,1,2.1,2.2v25.7c0,1.2-1,2.2-2.1,2.2Z"/>
      <path class="cls-10" d="M257.7,373.1h-15.9c-1.2,0-2.1-1-2.1-2.2v-25.7c0-1.2.9-2.2,2.1-2.2h15.9c1.2,0,2.1,1,2.1,2.2v25.7c0,1.2-.9,2.2-2.1,2.2Z"/>
      <path class="cls-24" d="M521.4,282.2h-13.4c-2.1,0-3.8-1.8-3.8-4v-18.6c0-2.2,1.7-4,3.8-4h13.4c2.1,0,3.8,1.8,3.8,4v18.6c-.1,2.2-1.8,4-3.8,4Z"/>
      <path class="cls-24" d="M634.3,433.8h-68.6c-3.9,0-7.1-3.4-7.1-7.5v-141c0-4.2,3.2-7.5,7.1-7.5h68.6c3.9,0,7.1,3.4,7.1,7.5v141c0,4.1-3.2,7.5-7.1,7.5Z"/>
      <path class="cls-9" d="M593.3,433.8h-118.8c-3.9,0-7.1-3.4-7.1-7.5v-141c0-4.2,3.2-7.5,7.1-7.5h118.8c3.9,0,7.1,3.4,7.1,7.5v141c0,4.1-3.2,7.5-7.1,7.5Z"/>
      <path class="cls-9" d="M508.8,282.2h-13.4c-2.1,0-3.8-1.8-3.8-4v-18.6c0-2.2,1.7-4,3.8-4h13.4c2.1,0,3.8,1.8,3.8,4v18.6c0,2.2-1.7,4-3.8,4Z"/>
      <path class="cls-10" d="M526.4,347.4h-15.9c-1.2,0-2.1-1-2.1-2.2v-25.7c0-1.2.9-2.2,2.1-2.2h15.9c1.2,0,2.1,1,2.1,2.2v25.7c0,1.2-1,2.2-2.1,2.2Z"/>
      <path class="cls-10" d="M557.3,347.4h-15.9c-1.2,0-2.1-1-2.1-2.2v-25.7c0-1.2.9-2.2,2.1-2.2h15.9c1.2,0,2.1,1,2.1,2.2v25.7c0,1.2-.9,2.2-2.1,2.2Z"/>
      <path class="cls-10" d="M526.4,394.4h-15.9c-1.2,0-2.1-1-2.1-2.2v-25.7c0-1.2.9-2.2,2.1-2.2h15.9c1.2,0,2.1,1,2.1,2.2v25.7c0,1.2-1,2.2-2.1,2.2Z"/>
      <path class="cls-10" d="M557.3,394.4h-15.9c-1.2,0-2.1-1-2.1-2.2v-25.7c0-1.2.9-2.2,2.1-2.2h15.9c1.2,0,2.1,1,2.1,2.2v25.7c0,1.2-.9,2.2-2.1,2.2Z"/>
      <path class="cls-24" d="M717.3,435.5H59.2c-.3,0-.6-.6-.6-1.2s.3-1.2.6-1.2h658.1c.3,0,.6.6.6,1.2.1.6-.2,1.2-.6,1.2Z"/>
      <path class="cls-24" d="M323,459.5h-77.8c-.5,0-.8-.4-.8-.9s.4-.9.8-.9h77.8c.5,0,.8.4.8.9s-.4.9-.8.9Z"/>
      <path class="cls-24" d="M516.2,459.5h-77.8c-.5,0-.8-.4-.8-.9s.4-.9.8-.9h77.8c.5,0,.8.4.8.9s-.3.9-.8.9Z"/>
      <path class="cls-24" d="M709.5,459.5h-77.8c-.5,0-.8-.4-.8-.9s.4-.9.8-.9h77.8c.5,0,.8.4.8.9s-.3.9-.8.9Z"/>
      <path class="cls-24" d="M367.3,364.1c0-15.7-12-52.8-26.8-52.8s-26.8,37.2-26.8,52.8,12,28.4,26.8,28.4,26.8-12.7,26.8-28.4h0Z"/>
      <path class="cls-9" d="M360.6,364.1c0-15.7-12-52.8-26.8-52.8s-26.8,37.2-26.8,52.8,12,28.4,26.8,28.4,26.8-12.7,26.8-28.4h0Z"/>
      <path class="cls-19" d="M334.7,427.6c-.5,0-.8-.4-.8-.9v-79.1c0-.5.4-.9.8-.9s.8.4.8.9v79.1c0,.5-.3.9-.8.9Z"/>
      <path class="cls-19" d="M334.7,360.6c-.5,0-.8-.4-.8-.9s.1-.5.2-.6l10.9-11.6c.3-.3.9-.3,1.2,0,.3.3.3.9,0,1.3l-10.9,11.6c-.2.1-.4.2-.6.2Z"/>
      <path class="cls-16" d="M582.9,389.2c.8.2,1.2,1,1,1.8,0,.1,0,.2,0,.3l3.6,3.7-2.6.6-3.1-3.6c-.7-.4-.9-1.3-.6-2.1.5-.6,1.2-.9,1.8-.7h0Z"/>
      <path class="cls-17" d="M588,399l-4.5-4.5c-.3-.3-.3-.7,0-1h0l.9-1c.2-.2.6-.3.8-.1l3.8,3,2.3-6c.4-1,1.4-1.4,2.3-1h0c.7.4,1.1,1.2,1,2-.4,2.7-3,6.4-4.5,8.3-.4.5-1.1.7-1.7.5,0,.1-.3,0-.5-.2Z"/>
      <path class="cls-10" d="M585.5,394.7l-3.3-5.1c0-.1,0-.3,0-.4h0c0-.2.3-.2.4,0l3.3,5.1c0,.1,0,.3,0,.4h0c-.1.2-.3,0-.4,0h0Z"/>
      <path class="cls-14" d="M584.6,394.7l-2.7-4.2c-.2-.4-.2-.9.2-1.1l.3-.2,3.6,5.6-.3.2h0c-.4.2-.9.1-1.1-.3Z"/>
      <polygon class="cls-16" points="584.9 431.1 583.2 430.9 583.4 423.8 585.7 424.1 584.9 431.1"/>
      <path class="cls-3" d="M585.2,432.9l-5.6-.7h0c0-1.4,1.2-2.3,2.4-2.1h0l3.4.4-.2,2.4Z"/>
      <polygon class="cls-16" points="604.9 429.8 603.3 430.3 600.5 423.8 603 423 604.9 429.8"/>
      <path class="cls-3" d="M605.9,431.3l-5.3,1.7h0c-.4-1.3.3-2.6,1.4-3h0l3.3-1.1.6,2.4Z"/>
      <path class="cls-3" d="M583,429.5c-.4-.1-.6-.5-.5-.9l1-12.7c0-.6.2-1.1.5-1.6l6.3-11.1,5.6,1.1h0c2.7,1.8,5.2,10.4,7.5,18.7.4,1.3.7,2.6,1.1,3.9,0,.4,0,.8-.4,1l-1.7.8c-.3.2-.7,0-.9-.3l-8.8-17h0c0-.1,0-.1,0-.1l-5.1,6.1-1.9,11.6h0c0,.3-.5.5-.8.4h-1.7Z"/>
      <path class="cls-17" d="M590,404.4h0c0-.1-2.6-9.4-.3-15.2h0c0-.1,1.7-3.4,3.6-3.8h0l.6,1.2c.2.2,3.5,3.8,2,10.1,0,.5,2,7.5,1,8.6-.4.3-.8.4-1.2.3-1.9-.2-3.8-.6-5.7-1.2Z"/>
      <ellipse class="cls-3" cx="592.9" cy="379.6" rx="4.4" ry="4.6"/>
      <ellipse class="cls-16" cx="591.2" cy="380.5" rx="3.5" ry="3.7"/>
      <path class="cls-3" d="M593.4,384.1c-.3.1-.7.2-1,0-.2-.3-.2-.7,0-1,.2-.3.3-.6.4-1,0-.5,0-1-.5-1.4-.4-.3-.8-.5-1.3-.7l-2.4-.9c-.6-.2-1.2-.5-1.6-1.1-.4-.9,0-2.1.8-2.6.8-.4,1.8-.5,2.7-.1.5.2.9.4,1.4.6,1,.3,2.1,0,2.9.6.7.6,1.1,1.5,1.1,2.5,0,1-.3,1.9-.7,2.8-.2.5-.5,1-.8,1.5-.3.4-.9.7-1.4.6l.5.2Z"/>
      <ellipse class="cls-3" cx="596.6" cy="377.4" rx="2.8" ry="3"/>
      <path class="cls-10" d="M591.9,381.7c0-.2,0-.3.3-.3s.3.1.3.3,0,.2-.2.3v.7q0,.1,0,.1t0-.1h0v-.7c-.1-.1-.2-.2-.2-.3Z"/>
      <path class="cls-16" d="M583.1,392.4c.8-.1,1.5.5,1.6,1.4v.3l4.6,2.1-2.2,1.5-4.1-2.3c-.8-.1-1.3-.9-1.2-1.7.1-.7.6-1.3,1.3-1.3Z"/>
      <path class="cls-17" d="M591.1,399.7l-5.7-2.5c-.3-.1-.5-.5-.3-.9h0l.5-1.3c0-.3.5-.5.8-.4l4.5,1.5.2-6.5c0-1,.9-1.9,1.8-1.8h0c.8.1,1.4.7,1.6,1.5.5,2.7-.7,7.1-1.5,9.4-.2.7-.8,1.1-1.5,1.1,0,0-.3-.1-.5-.1Z"/>
      <path class="cls-16" d="M365,398.1c.5-.5.5-1.3,0-1.9l-.2-.2-.6-4.4-2.6.9,1.4,3.9c-.4.6-.2,1.4.4,1.8.5.4,1.2.4,1.6,0h0Z"/>
      <path class="cls-17" d="M362.3,396.1l-1.6-7.9c-.3-1.5.1-3.1,1.2-4.2,2-2.1,4.7-4.7,5.6-5.4.8-.6,1.9-1,2.9-.9h0l1.4,1.4-3,5.2-4.5,3,.5,7.7-2.5,1.1Z"/>
      <path class="cls-19" d="M361.2,385.4h6.7c.3,0,.5.2.5.6h0c0,.3-.2.6-.5.6h-6.7c-.3,0-.5-.2-.5-.6h0c0-.4.2-.6.5-.6Z"/>
      <path class="cls-19" d="M361.2,397.4h6.7c.3,0,.5.2.5.6h0c0,.3-.2.6-.5.6h-6.7c-.3,0-.5-.2-.5-.6h0c0-.3.2-.6.5-.6Z"/>
      <path class="cls-19" d="M364.6,427.7c-.1,0-.2-.1-.3-.3l-3.3-41.5c0-.2.1-.3.2-.3s.3.1.3.3l3.1,38.3,3-38.3c0-.2.1-.3.3-.3s.3.1.2.3l-3.2,41.5c0,.2-.2.3-.3.3h0Z"/>
      <ellipse class="cls-16" cx="372.1" cy="372.4" rx="3.4" ry="3.6"/>
      <polygon class="cls-16" points="361.9 426 360.2 425.5 361.5 418.5 363.9 419.3 361.9 426"/>
      <path class="cls-3" d="M361.8,427.5l-5.3-1.8h0c.3-1.3,1.5-1.9,2.6-1.5l3.3,1.1-.6,2.2Z"/>
      <polygon class="cls-16" points="373.7 426 372 426 371.2 419 373.7 419 373.7 426"/>
      <path class="cls-3" d="M368.8,427.6h5.3v-2.1h-3.3c-1.1,0-2,.9-2,2.1h0Z"/>
      <path class="cls-3" d="M373.7,423.7h-.6c-.7-.1-1.4-.3-2.1-.5-.1-.1-.2-1.1-.1-6.7.1-4.1.1-9.3,0-12,0-.3-.2-.5-.5-.5s-.3.1-.4.3c-1.3,3.2-3.5,10.3-4.9,15.1-.5,1.6-.9,2.9-1.2,3.7-.1.3-.4.5-.7.4-1.2-.3-1.1-.5-2.8-.9-.3-.1-.5-.4-.4-.7.3-1.5,5.9-26.4,6.4-28.8.1-.3.4-.6.7-.5h0c1.3.3,2,.6,3.3.8,1.4.3,2.7.6,4.1.9h0c.1,0,.3.1.3.2.4.4.8.8,1.4,1,.4.2-.5.2-.1.4,1.3,1.1-.6,22.5-1.6,27.3-.2.3-.5.5-.8.5h0Z"/>
      <path class="cls-3" d="M373.6,375.6c-.2-.9.8-2.8.6-3.7-.1-.6-1.5-.2-1.8-.7-.3-.6-.8-.9-1.4-1-.7,0-1.3.5-2,.3-.6-.3-.9-1.2-.6-1.8h0c.3-.6.9-1.1,1.5-1.4,1-.7,2.2-.9,3.4-.6.7.3,1.3.7,1.8,1.2.5.4,1,.9,1.4,1.5.7,1.2.7,2.6.1,3.8-.8,1-1.8,1.9-3,2.4"/>
      <path class="cls-17" d="M365.1,396.6c.4-.7.9-3.7,1.6-8.9.5-3.5.9-7.1,1.1-8.9,0-.3.2-.6.5-.7.1-.1.3-.1.4-.2,3.2-1.6,7-1,9.7,1.4h0s.7,4.1-.7,6.8c-1.4,2.7-1.4,9.9-1.4,9.9h0c0,.1-.1.1-.1.1-2.2-.7-10.8.5-10.9.5h-.2Z"/>
      <path class="cls-19" d="M371.4,387.2h6.7c.3,0,.5.2.5.6h0c0,.3-.2.6-.5.6h-6.7c-.3,0-.5-.2-.5-.6h0c0-.4.2-.6.5-.6Z"/>
      <path class="cls-19" d="M371.4,399.2h6.7c.3,0,.5.2.5.6h0c0,.3-.2.6-.5.6h-6.7c-.3,0-.5-.2-.5-.6h0c0-.3.2-.6.5-.6Z"/>
      <path class="cls-19" d="M374.8,427.8c-.1,0-.2-.1-.3-.3l-3.3-39.8c0-.2.1-.3.2-.3s.3.1.3.3h0l3.1,36.7,3-36.7c0-.2.1-.3.3-.3s.3.1.2.3l-3.2,39.8c0,.2-.1.3-.3.3h0Z"/>
      <path class="cls-16" d="M372.7,399.4c-.1-.7.3-1.4.9-1.6h.2l2.8-3.3,1.7,2.2-3.2,2.5c0,.7-.6,1.3-1.3,1.3-.5-.1-1-.5-1.1-1.1h0Z"/>
      <path class="cls-17" d="M374.3,397.1l4.4-6.2-2.3-5.1.2-6.1,1.9-.4h0c.9.6,1.6,1.4,2,2.4.4,1.1,1.3,4.8,1.9,7.7.3,1.5-.1,3.1-1.1,4.2l-5.4,5.7-1.6-2.2Z"/>
      <path class="cls-19" d="M355.9,426.1l6,1.5c.2.1.5-.1.6-.3l5.1-14.5v-.4l-.3-.3-4.5-1.8c-.1-.1-.3,0-.4,0-.1.1-.2.2-.2.3h0l-3.2,12.8h0c-1,.1-1.9.5-2.7,1.2-.3.5-.4,1-.4,1.5Z"/>
      <polygon class="cls-20" points="360.2 418.2 360.3 418 365.7 418.6 365.7 418.9 360.2 418.2"/>
      <polygon class="cls-20" points="359.7 420.5 359.8 420.2 364.2 422.3 364.1 422.6 359.7 420.5"/>
      <polygon class="cls-20" points="366.3 416.6 361.1 414.8 361.2 414.6 366.4 416.4 366.3 416.6"/>
      <polygon class="cls-20" points="366.8 415.4 361.6 412.7 361.7 412.5 366.9 415.1 366.8 415.4"/>
      <polygon class="cls-20" points="359.2 422.6 359.3 422.4 363.1 425.8 362.9 426 359.2 422.6"/>
      <polygon class="cls-20" points="358 423.7 358.3 423.5 359.8 427 359.5 427.2 358 423.7"/>
      <path class="cls-18" d="M423.2,405.1c-.8-.2-1.4-1.1-1.2-2,0-.1,0-.2.1-.3l-5.7-13.8,3.3-.9,4.6,13.8c.8.4,1.1,1.4.7,2.2-.4.8-1.1,1.1-1.8,1Z"/>
      <path class="cls-17" d="M417.4,393.3c-.2-.1-.3-.3-.4-.5l-1-3.6c-.5-1,0-2.3.9-2.7,1-.5,2.1,0,2.6,1l1.9,3.1c.2.3.1.8-.2,1,0,0-.1,0-.1.1l-3.2,1.6c0,.1-.3.1-.5,0Z"/>
      <path class="cls-14" d="M429.1,391.6l-3.5,2.6c-.1.1-.2.1-.3,0l-1-.8c-.1-.1-.1-.3-.1-.4h0l2.7-2.6c.1-.1.2-.1.3-.1l1.8.7c.1.1.2.2.2.4s0,0-.1.2Z"/>
      <path class="cls-10" d="M428.9,391.3q0-.1-.1-.1l-1.6-.6h-.1l-2.4,2.3h0c0,.1.9.8.9.8h.1l3.2-2.4c-.1.1-.1,0,0,0Z"/>
      <polygon class="cls-18" points="416.3 431 418.1 431 418.9 423.7 416.3 423.7 416.3 431"/>
      <path class="cls-3" d="M415.8,430.4h3.5c1.2,0,2.2,1.1,2.2,2.4h0c0,.1-5.7.1-5.7.1v-2.5Z"/>
      <polygon class="cls-18" points="410.3 431 412.1 431 413 423.7 410.3 423.7 410.3 431"/>
      <path class="cls-3" d="M409.9,430.4h3.5c1.2,0,2.2,1.1,2.2,2.4h0c0,.1-5.7.1-5.7.1v-2.5Z"/>
      <path class="cls-3" d="M410,428.8c-.1-.1-.2-.3-.2-.5-.4-4.6.7-28.9,3.4-31h0l7.8-1.4h0v.2c.1.2,1.5,21.5-2.4,32.4-.1.3-.3.4-.6.4h-1.6c-.4,0-.7-.3-.7-.7h0c0-.1,1.3-20.5,1.3-20.5,0-.1-.1-.2-.2-.2s-.2.1-.2.2l-3.6,20.7c-.1.3-.3.5-.6.5l-2,.2h0c0-.1-.3-.2-.4-.3Z"/>
      <ellipse class="cls-18" cx="418.9" cy="380.4" rx="3.5" ry="3.8" transform="translate(-136.7 488) rotate(-53.2)"/>
      <path class="cls-17" d="M411.7,400.5c-.2-.2-.2-.4-.2-.6l1.5-7.2c-1.2-5.2.4-6.2,2.1-7.2h0l.7-2.1c.1-.3.4-.6.8-.5h.1l3.7,2.1c.2.1.3.3.3.5.1.2.1.4,0,.6l-.3.8c.7,1,1.8,5,.6,6.5l.9,5.1c0,.4-.2.8-.5.9l-9.2,1.2h-.1c-.2.1-.3.1-.4,0Z"/>
      <path class="cls-18" d="M425,392.3l-.2.2-7.2-.5-.8-1.7-2.5.9,1.1,3.1c.2.5.7.8,1.2.8l8.2-.7c.5.7,1.4.9,2.1.4s.8-1.5.3-2.3c-.5-.7-1.4-.9-2.1-.4,0,.1-.1.1-.1.2Z"/>
      <path class="cls-17" d="M417.4,392l-3.1,1.1c-.3.1-.7-.1-.8-.4h0c0-.1-.6-3.5-.6-3.5-.3-1,.2-2.1,1.2-2.4s2,.2,2.3,1.2l1.5,3.1c0,.2-.1.6-.5.9q0-.1,0,0h0Z"/>
      <ellipse class="cls-3" cx="413.1" cy="377.3" rx="2.8" ry="3.1" transform="translate(-136.4 482) rotate(-53.2)"/>
      <path class="cls-3" d="M421.7,378.5c.2-.1.4-.4.6-.6.1-.3,0-.6-.2-.9-2.3-3.1-4.3-.9-4.7-.8-.3,0-.5.1-.8.1-.6.1-1.1.4-1.5.8-.5.4-1,.9-1.3,1.5-.2.6-.2,1.2-.1,1.9.2.6.5,1.2.8,1.8.4.7.9,1.3,1.5,1.7,1,.6,2.3.6,3.2-.1-.8-.6-1.1-1.5-.8-2.4.2-.6.7-1.2,1.3-1.5.4-.2.7-.5,1.1-.7.3-.3.7-.6.9-.8Z"/>
      <polygon class="cls-10" points="162.3 391.4 162.3 391.4 162.3 391.4 162.3 391.4"/>
      <g>
        <path class="cls-23" d="M387,277.3c-1.4.3-2.8.8-4.2,1.3h0c-.1-.5-.6-.8-1.2-.6-.6.1-.9.7-.9,1.1h0c-1.4.2-2.9.5-4.3.8-3.2.8-5.7,1.7-5.6,2.1s2.7,0,5.9-.7c1.4-.3,2.8-.8,4.2-1.3h0c0,.1.1.2.1.3-.3.3-.3.7,0,.9,0,0,.1.1.2.1-.5.3-.8.7-.9,1.2-.3-.1-.7-.2-1-.1l-10.7,2.2c-.9-.7-2.3-1-3.6-.7l-6.7,1.6c-1.3.3-2.5,1.2-3.1,2.3l-10,2.9c-.3.1-.6.3-.9.5-.3-.3-.7-.5-1.2-.6.2-.2.3-.4.2-.6-.1-.3-.3-.5-.6-.5v-.3h0c1.4-.2,2.9-.5,4.3-.8,3.2-.8,5.7-1.7,5.6-2.1s-2.7,0-5.9.7c-1.4.3-2.8.8-4.2,1.3h0c-.1-.5-.6-.8-1.2-.7h0c-.6.1-.9.7-.8,1.2h0c-1.4.2-2.9.5-4.3.8-3.2.8-5.7,1.7-5.6,2.1s2.7,0,5.9-.7c1.4-.3,2.8-.8,4.2-1.3h0c0,.1.1.2.1.3-.3.3-.3.7,0,.9,0,.1.1.1.2.1-.7.4-1,1.2-.9,1.8l.2,1.1c.2.9,1.2,1.5,2.2,1.2h0l.8-.2c.6-.1,1.1-.5,1.4-1.1.4.2.8.2,1.2.1l10-2.2c.4.4.9.6,1.5.8-.8,1.1-3.7,5.8-1.8,12.3,0,0,.8.8,2.1-.5,0,0-2.5-7.2,2.4-11.6.3.4.9.6,1.4.5l.7-.2c-1.3.9-2,2.3-1.7,3.6.3,1.8,2.2,2.8,4.2,2.4s3.5-2.2,3.2-4v-.2c-.3-1.3-1.4-2.3-2.9-2.5l.7-.2c.6-.1,1-.6,1.1-1.1,6.1,1.7,6.6,9.4,6.6,9.4,1.7.6,2.1-.5,2.1-.5-.8-7.8-6.6-10.4-6.6-10.4h-.1c.3-.4.6-.7.7-1.1l10.4-2.8c.4-.1.8-.4,1.1-.7.4.4,1.1.5,1.7.3l.8-.2c1.1-.3,1.8-1.2,1.6-2.1h0l-.2-1.1c-.1-.7-.7-1.1-1.4-1.3.3-.2.3-.6.1-.9-.1-.1-.3-.2-.4-.2v-.3h0c1.4-.2,2.9-.5,4.3-.8,3.2-.8,5.7-1.7,5.6-2.1-.3,0-2.9.3-6.1,1.1Z"/>
        <ellipse class="cls-21" cx="363.7" cy="295.9" rx="3.7" ry="3.1" transform="translate(-79.9 144) rotate(-20.2)"/>
        <ellipse class="cls-21" cx="363.7" cy="295.9" rx="2.5" ry="2.1" transform="translate(-79.9 144) rotate(-20.2)"/>
        <ellipse class="cls-4" cx="363.7" cy="295.9" rx="2.5" ry="2.1" transform="translate(-79.9 144) rotate(-20.2)"/>
        <ellipse class="cls-21" cx="363.7" cy="295.9" rx="1.6" ry="1.4" transform="translate(-81.5 148.8) rotate(-20.8)"/>
        <ellipse class="cls-7" cx="363.7" cy="295.9" rx="1.6" ry="1.4" transform="translate(-81.5 148.8) rotate(-20.8)"/>
        <path class="cls-21" d="M357.2,292.7s-4.1,4.8-2,11.8c0,0,.8.8,2.1-.5,0,0-3-8.8,4.9-12.6l-5,1.3Z"/>
        <path class="cls-21" d="M368.4,290s5.5,2.5,6.3,9.8c0,0-.4,1.1-2.1.5,0,0-.6-9.4-9.2-9.1l5-1.2Z"/>
        <path class="cls-21" d="M357.4,286.2l7.8-1.9c1.9-.5,3.7.5,4,2.1l.2,1.1c.3,1.6-1,3.3-2.8,3.7l-7.8,1.9c-1.9.5-3.7-.5-4-2.1l-.2-1.1c-.3-1.6.9-3.2,2.8-3.7Z"/>
        <path class="cls-21" d="M357.5,291.8l-11.4,2.5c-.9.2-1.8-.3-1.9-1.1v-.4c-.3-.8.3-1.6,1.2-1.9l11.3-3.2c.9-.3,1.9.2,2.1,1h0c0,.1.2,1.2.2,1.2.1.9-.5,1.7-1.5,1.9h0Z"/>
        <path class="cls-21" d="M367.7,289.3l11.3-3.1c.9-.3,1.5-1.1,1.4-1.9v-.4c-.3-.8-1.1-1.3-2-1.1l-11.5,2.3c-.9.2-1.6,1-1.5,1.8h0c0,.1.2,1.2.2,1.2.3,1,1.2,1.5,2.1,1.2h0Z"/>
        <path class="cls-4" d="M357.5,291.8l-11.4,2.5c-.9.2-1.8-.3-1.9-1.1v-.4c-.3-.8.3-1.6,1.2-1.9l11.3-3.2c.9-.3,1.9.2,2.1,1h0c0,.1.2,1.2.2,1.2.1.9-.5,1.7-1.5,1.9h0Z"/>
        <path class="cls-4" d="M367.7,289.3l11.3-3.1c.9-.3,1.5-1.1,1.4-1.9v-.4c-.3-.8-1.1-1.3-2-1.1l-11.5,2.3c-.9.2-1.6,1-1.5,1.8h0c0,.1.2,1.2.2,1.2.3,1,1.2,1.5,2.1,1.2h0Z"/>
        <path class="cls-21" d="M341.9,291.2l.7-.2c1-.2,2,.3,2.2,1.1l.2,1c.2.9-.5,1.8-1.5,2l-.7.2c-1,.2-2-.3-2.2-1.1l-.2-1c-.2-.8.5-1.8,1.5-2Z"/>
        <path class="cls-21" d="M381,281.6l.7-.2c1-.2,2,.3,2.2,1.1l.2,1c.2.9-.5,1.8-1.5,2l-.7.2c-1,.2-2-.3-2.2-1.1l-.2-1c-.2-.8.4-1.7,1.5-2Z"/>
        <path class="cls-21" d="M341.4,290.3l1.5-.4c.3-.1.6.1.6.3v.2c.1.3-.2.5-.5.6l-1.5.4c-.3.1-.6-.1-.6-.3v-.2c0-.2.2-.5.5-.6Z"/>
        <path class="cls-21" d="M341.5,288.3h.3c.5-.2.9,0,1,.4l.2,1.1c.1.4-.2.8-.7.9h-.3c-.5.2-.9,0-1-.4l-.2-1.1c0-.4.3-.8.7-.9Z"/>
        <ellipse class="cls-21" cx="336.8" cy="290.8" rx="5.7" ry=".6" transform="translate(-59.6 88.6) rotate(-13.8)"/>
        <ellipse class="cls-21" cx="347.1" cy="288.3" rx="5.7" ry=".6" transform="translate(-58.7 91) rotate(-13.8)"/>
        <path class="cls-21" d="M380.5,280.8l1.5-.4c.3-.1.6.1.6.3v.2c.1.3-.2.5-.5.6l-1.5.4c-.3.1-.6-.1-.6-.3v-.2c0-.3.2-.5.5-.6Z"/>
        <path class="cls-21" d="M380.6,278.7h.3c.5-.2.9,0,1,.4l.2,1.1c.1.4-.2.8-.7.9h-.3c-.5.2-.9,0-1-.4l-.2-1.1c0-.4.3-.8.7-.9Z"/>
        <ellipse class="cls-21" cx="375.9" cy="281.2" rx="5.7" ry=".6" transform="translate(-56.2 97.6) rotate(-13.8)"/>
        <ellipse class="cls-21" cx="386.2" cy="278.7" rx="5.7" ry=".6" transform="translate(-55.3 100) rotate(-13.8)"/>
        <ellipse class="cls-4" cx="336.8" cy="290.8" rx="5.7" ry=".6" transform="translate(-59.6 88.6) rotate(-13.8)"/>
        <ellipse class="cls-4" cx="347.1" cy="288.3" rx="5.7" ry=".6" transform="translate(-58.7 91) rotate(-13.8)"/>
        <ellipse class="cls-4" cx="375.9" cy="281.2" rx="5.7" ry=".6" transform="translate(-56.2 97.6) rotate(-13.8)"/>
        <ellipse class="cls-4" cx="386.2" cy="278.7" rx="5.7" ry=".6" transform="translate(-55.3 100) rotate(-13.8)"/>
        <path class="cls-21" d="M360.5,291.3l4.4-1.1c.6-.2,1.2.2,1.3.7v.4c.2.5-.2,1.1-.8,1.2l-4.4,1.1c-.6.2-1.2-.2-1.3-.7v-.4c-.2-.5.2-1,.8-1.2Z"/>
        <path class="cls-4" d="M360.5,291.3l4.4-1.1c.6-.2,1.2.2,1.3.7v.4c.2.5-.2,1.1-.8,1.2l-4.4,1.1c-.6.2-1.2-.2-1.3-.7v-.4c-.2-.5.2-1,.8-1.2Z"/>
        <ellipse class="cls-5" cx="364.2" cy="309.5" rx="17.1" ry="2.2" transform="translate(-64.4 98) rotate(-14.1)"/>
      </g>
      <path class="cls-8" d="M417.5,302.8l-1,.4v-.5s0,.3,1,.1Z"/>
      <g>
        <path class="cls-21" d="M532.4,354.1l3.2,12c0,.4.5.7,1,.6h0c.2-.1.4-.2.6-.4,0-.2.2-.4,0-.6l-3.2-12.2-1.8.6Z"/>
        <path class="cls-21" d="M514.6,358.5l3.2,12c0,.4.5.7,1,.6h0c.2-.1.4-.2.6-.4,0-.2.2-.4,0-.6l-3.2-12.2-1.8.6Z"/>
        <path class="cls-10" d="M543.6,364.4c-.2-.6-.8-.9-1.4-.9h-1.1c0,.1-1.9.3-1.9.3l-2.2.2-1.9.2-13,1.3c-.2,0-.4.1-.6.2l-2.7,1.4-1.1.5-.4.2h-.2c0,.1-1.6.9-1.6.9l-.5.3h-.2c0,.1-1.5.9-1.5.9l-3,1.5c-.2.1-.4.2-.5.4h0c-.2.3-.3.6-.2,1l3.6,13.6c0,.1,0,.2,0,.3.2.4.7.6,1.3.6l18.8-1.2h1.9c0-.1.2-.1.2-.1h0q0,0,.2-.1h0c0,0,0-.1.2-.1l5.9-3.3,4.9-2.8c.5-.3.8-.8.6-1.3l-3.8-14Z"/>
        <path class="cls-14" d="M542.4,364.7c0-.1,0-.1-.2-.1h-.9c0,.1,0,.1,0,.1h0l-1.8.2-2.2.2-1.9.2-13.2,1.4h0l-1,.5-1,.5-1,.5-1.7.9h-.2c0,.1-2,1.1-2,1.1l-1.7.9-1.1.6-.7.4h0l-.8.4c-.1,0-.1.1-.1.2l3.6,13.6c0,.1,0,.1.2.1h.8c0-.1,18-1.2,18-1.2h1.7c0-.1,0-.1,0-.1h.3c0-.1,4.4-2.5,4.4-2.5h0l1.7-.9,4.6-2.6c0,0,0-.1,0-.2l-3.9-14.2Z"/>
        <path class="cls-14" d="M543.6,364.4c-.2-.6-.8-.9-1.4-.9h-1.1c0,.1-1.9.3-1.9.3l-2.2.2-1.9.2-13,1.3c-.2,0-.4.1-.6.2l-2.7,1.4-1.1.5-.4.2h-.2c0,.1-1.6.9-1.6.9l-.5.3h-.2c0,.1-1.5.9-1.5.9l-3,1.5c-.2.1-.4.2-.5.4h0c-.2.3-.3.6-.2,1l3.6,13.6c0,.1,0,.2,0,.3.2.4.7.6,1.3.6l18.8-1.2h1.9c0-.1.2-.1.2-.1h0q0,0,.2-.1h0c0,0,0-.1.2-.1l5.9-3.3,4.9-2.8c.5-.3.8-.8.6-1.3l-3.8-14ZM546.6,379.4l-4.9,2.7-1.7.9-4.3,2.4h0c0,0-.2.1-.3.1h-1.9c0,.1-18.8,1.3-18.8,1.3-.4,0-.7-.1-.9-.4,0-.1,0-.2,0-.3l-3.6-13.6c-.1-.2,0-.4.1-.6h0l.3-.3h.1l2.9-1.4,1.7-.9h.2c0-.1,1.9-1.1,1.9-1.1l.9-.4.7-.4h0c0-.1,2.8-1.5,2.8-1.5,0,0,.2-.1.2-.1h.2l13-1.4,1.9-.2,2.2-.2,1.9-.2h1c.2-.1.4-.1.6,0h0c.3.1.4.3.5.6l3.8,13.9c.2.4,0,.9-.4,1.1Z"/>
        <path class="cls-14" d="M543,364.1h0l-5.4,2.8-1.7.8-4.7,2.4h0l-21.1,1.9h0c-.1,0-.2-.1-.2-.1,0-.1.1-.2.2-.2h.4l20.7-1.8,4.1-2.1,2.3-1.2,5.2-2.7h.3c.1.1.1.2,0,.2Z"/>
        <path class="cls-14" d="M535.6,385.9c0,0-.2,0-.2-.1l-4.4-15.7c0-.1,0-.2,0-.2h0c0,0,.2,0,.2.1l4.4,15.7q0,.1,0,.2h0Z"/>
        <path class="cls-21" d="M541.7,382.3l-1.7.8-4.9-15.3-19.9,1.5h0c-.2,0-.3,0-.4-.1l2.4-1.2h.8c0-.1,18.9-1.5,18.9-1.5.2,0,.4,0,.5.2.3,0,4.4,15.5,4.4,15.6Z"/>
        <path class="cls-21" d="M542.9,348.2h-1l-.3-1.2c0-.4-.4-.8-.8-1-.2-.1-.4-.2-.6-.2h-.8c-.2,0-.4.1-.6.2,0,.1-.2.1-.3.2s-.3.2-.4.4c0,0,0,.1,0,.1-.3.4-.3.8-.2,1.2v.5c-10,.7-19.9,3.2-29.1,7.3v-.5c-.2-.4-.5-.8-.9-1-.2-.1-.4-.2-.6-.2h-.8c-.2,0-.4.1-.6.2-.1.1-.2.1-.3.2-.1.1-.3.2-.4.4,0,0,0,.1-.1.1-.3.4-.3.8-.2,1.2l.3,1.3c-.3.1-.6.3-.9.4h-.1c.1.6.4,1.1.8,1.6l.3.3c1.1.9,2.7,1.3,4.2.9l1.3-.3,3.2,12.1c0,.4.5.7,1,.6.3,0,.5-.2.6-.4,0-.2.2-.4,0-.6l-3.2-12.1c.9,0,1.7.3,2.2.8s.4.3.6.5c1.3.9,3,1.2,4.6.8l11.2-2.8c.9-.2,1.6-.6,2.3-1.1s1.1-1.2,1.4-1.9c0-.2,0-.3,0-.5.2-.8.7-1.4,1.5-1.8l3.2,12c0,.4.5.7,1,.6h0c.2-.1.4-.2.6-.4,0-.2.2-.4,0-.6l-3.2-12.2,1.3-.3c1.5-.4,2.8-1.4,3.2-2.7,0-.1,0-.2,0-.4.4-.5.4-1.1.2-1.7h0Z"/>
        <ellipse class="cls-14" cx="524.4" cy="358.2" rx="5" ry="4.3" transform="translate(-60.3 110.4) rotate(-11.4)"/>
        <ellipse class="cls-21" cx="524.4" cy="358.2" rx="2.7" ry="2.3" transform="translate(-60.3 110.4) rotate(-11.4)"/>
        <path class="cls-21" d="M546,343.3l-6.3,1.6.2.9,7.4-1.9c-.1-.4-.7-.7-1.3-.6Z"/>
        <path class="cls-21" d="M532.2,346.8c-.6.1-1,.6-.9,1.1l7.4-1.9-.2-.9-6.3,1.7Z"/>
        <path class="cls-14" d="M540.9,345.5c-.2-.3-.4-.6-.8-.7-.9-.3-1.9,0-2.4.8,0,.2-.2.5-.2.8v.3h0c0,.1,3.4-.8,3.4-.8h0c0-.2,0-.3,0-.4Z"/>
        <path class="cls-21" d="M513,351.5l-6.3,1.6.2.9,7.4-1.9c-.1-.4-.7-.7-1.3-.6Z"/>
        <path class="cls-21" d="M499.1,355c-.6.1-1,.6-.9,1.1l7.4-1.9-.2-.9-6.3,1.7Z"/>
        <path class="cls-14" d="M507.9,353.7c-.4-.8-1.4-1.1-2.3-.7-.7.3-1.1.9-1.1,1.5v.3h0c0,.1,3.4-.8,3.4-.8h0c.1-.1,0-.2,0-.3Z"/>
        <path class="cls-14" d="M504.9,359.4c12.3-4.5,25-7.7,38-9.5,0,.1,0,.3,0,.4-6.4.9-12.7,2.1-19,3.6h0c-.4.1-.7.2-1.1.3h0c-6,1.5-11.8,3.3-17.6,5.5l-.2-.3Z"/>
        <path class="cls-21" d="M523.9,382.5h0l-6.6.4c-.2,0-.3-.1-.3-.3s0-.3.3-.3l6.6-.3c.2,0,.3.1.3.3-.1,0-.2.2-.3.2h0Z"/>
        <path class="cls-21" d="M521.4,379.6h0l-6.6.4c-.2,0-.3-.1-.3-.3s0-.3.3-.3h0l6.6-.3c.2,0,.3.1.3.3s-.1.2-.3.2h0Z"/>
      </g>
      <g>
        <path class="cls-2" d="M545.2,220.5c1.8-.4,3.6-.6,5.5-.7h0c-.2-.7.3-1.3,1-1.4.7-.1,1.4.3,1.6.9h0c1.7-.6,3.5-1,5.3-1.3,4-.8,7.3-1,7.4-.5,0,.5-3,1.5-7,2.3-1.8.4-3.6.6-5.5.7h0c0,.1,0,.3,0,.4.5.2.7.6.5,1.1,0,.1,0,.1,0,.2.7.1,1.3.4,1.7.9.3-.3.7-.6,1.1-.7l13.3-3.2c.7-1.4,2.1-2.5,3.8-2.8l8.5-1.7c1.7-.3,3.4.1,4.7,1.2l12.9-1.9c.4-.1.9,0,1.2.1,0-.5.5-1,1-1.4-.3-.1-.5-.3-.5-.6,0-.4,0-.7.4-.9,0-.1,0-.2,0-.3h0c-1.7.6-3.5,1-5.3,1.3-4,.8-7.3,1-7.4.5,0-.5,3-1.5,7-2.3,1.8-.4,3.6-.6,5.5-.7h0c-.2-.7.3-1.3,1-1.5h0c.7-.1,1.4.3,1.6,1h0c1.7-.6,3.5-1,5.3-1.3,4-.8,7.3-1,7.4-.5,0,.5-3,1.5-7,2.3-1.8.4-3.6.6-5.5.7h0c0,.1,0,.3,0,.4.5.2.7.6.5,1.1,0,.1,0,.2-.2.2,1,.2,1.8.9,2,1.8l.4,1.5c.3,1.2-.5,2.4-1.9,2.7h0l-1,.2c-.8.1-1.6,0-2.1-.5-.3.4-.8.7-1.3.8l-12.5,2.8c-.3.7-.7,1.3-1.2,1.8,1.5.9,7.3,5.1,8.7,14.1,0,0-.4,1.5-2.7.5,0,0-1.1-10.2-9-12.9,0,.7-.6,1.3-1.4,1.4l-.9.2c1.9.3,3.5,1.7,3.9,3.5.6,2.3-.9,4.7-3.5,5.2-2.5.6-5.1-.8-5.8-3.2,0-.1,0-.2,0-.3-.4-1.8.4-3.6,2-4.6l-.9.2c-.8.1-1.5-.2-1.9-.8-6,5.5-2.4,15.1-2.4,15.1-1.6,1.7-2.7.5-2.7.5-3.3-10,1.8-16.4,1.8-16.4h0c-.5-.3-1-.6-1.5-1l-13.3,2.2c-.6.1-1.2,0-1.7-.3-.3.7-1,1.2-1.7,1.3l-1,.2c-1.3.2-2.6-.5-2.9-1.8h0l-.4-1.5c-.2-.9.2-1.8.9-2.3-.5-.1-.7-.6-.6-1.1,0-.2.2-.4.4-.4,0-.1,0-.2,0-.3h0c-1.7.6-3.5,1-5.3,1.4-4,.8-7.3,1-7.4.5.2-.3,3.4-1.3,7.4-2.1Z"/>
        <ellipse class="cls-21" cx="581.6" cy="230.8" rx="4.6" ry="4.2"/>
        <ellipse class="cls-21" cx="581.6" cy="230.8" rx="3.1" ry="2.8"/>
        <ellipse class="cls-4" cx="581.6" cy="230.8" rx="3.1" ry="2.8"/>
        <ellipse class="cls-21" cx="581.6" cy="230.8" rx="1.9" ry="2" transform="translate(332.7 804.8) rotate(-88.2)"/>
        <ellipse class="cls-7" cx="581.6" cy="230.8" rx="1.9" ry="2" transform="translate(332.7 804.8) rotate(-88.2)"/>
        <path class="cls-21" d="M587.2,223.3s7.2,3.7,8.6,13.5c0,0-.4,1.4-2.6.5,0,0-1.3-12.5-12.3-12.8l6.3-1.2Z"/>
        <path class="cls-21" d="M573.2,226s-5,6-1.8,15.5c0,0,1,1.1,2.6-.5,0,0-4.4-11.9,5.5-16.2l-6.3,1.2Z"/>
        <path class="cls-21" d="M583.5,215.3l-9.8,1.9c-2.4.5-3.9,2.6-3.4,4.7l.3,1.5c.5,2.2,2.9,3.5,5.2,3.1l9.8-1.9c2.4-.5,3.9-2.6,3.4-4.7l-.3-1.5c-.5-2.1-2.8-3.5-5.2-3.1Z"/>
        <path class="cls-21" d="M586.5,222.3l14.3-3.2c1.2-.3,1.9-1.3,1.6-2.4v-.5c-.3-1.1-1.4-1.7-2.6-1.6l-14.5,2.2c-1.2.2-2,1.2-1.8,2.3h0c0,.1.3,1.6.3,1.6.2,1.2,1.4,1.8,2.7,1.6h0Z"/>
        <path class="cls-21" d="M573.5,224.8l-14.5,2.4c-1.2.2-2.3-.5-2.6-1.6v-.5c-.3-1.1.4-2.1,1.5-2.4l14.2-3.4c1.2-.3,2.4.4,2.7,1.4h0c0,.1.3,1.6.3,1.6.4,1.2-.4,2.3-1.6,2.5h0Z"/>
        <path class="cls-4" d="M586.5,222.3l14.3-3.2c1.2-.3,1.9-1.3,1.6-2.4v-.5c-.3-1.1-1.4-1.7-2.6-1.6l-14.5,2.2c-1.2.2-2,1.2-1.8,2.3h0c0,.1.3,1.6.3,1.6.2,1.2,1.4,1.8,2.7,1.6h0Z"/>
        <path class="cls-4" d="M573.5,224.8l-14.5,2.4c-1.2.2-2.3-.5-2.6-1.6v-.5c-.3-1.1.4-2.1,1.5-2.4l14.2-3.4c1.2-.3,2.4.4,2.7,1.4h0c0,.1.3,1.6.3,1.6.4,1.2-.4,2.3-1.6,2.5h0Z"/>
        <path class="cls-21" d="M603.7,213l-.9.2c-1.3.3-2.1,1.4-1.8,2.6l.3,1.4c.3,1.2,1.6,1.9,2.8,1.7l.9-.2c1.3-.3,2.1-1.4,1.8-2.6l-.3-1.4c-.2-1.2-1.5-1.9-2.8-1.7Z"/>
        <path class="cls-21" d="M554.3,222.6l-.9.2c-1.3.3-2.1,1.4-1.8,2.6l.3,1.4c.3,1.2,1.6,1.9,2.8,1.7l.9-.2c1.3-.3,2.1-1.4,1.8-2.6l-.3-1.4c-.2-1.2-1.5-2-2.8-1.7Z"/>
        <path class="cls-21" d="M603.9,211.7l-1.9.4c-.4.1-.6.4-.5.8v.2c.2.4.6.6,1,.5l1.9-.4c.4-.1.6-.4.5-.8v-.2c-.2-.4-.6-.6-1-.5Z"/>
        <path class="cls-21" d="M602.6,209.2h-.4c-.6.2-1,.7-.8,1.3l.4,1.5c0,.5.7.9,1.3.8h.4c.6-.2,1-.7.8-1.3l-.4-1.5c0-.5-.7-.9-1.3-.8Z"/>
        <ellipse class="cls-21" cx="609.3" cy="209.7" rx="7.2" ry=".9" transform="translate(-28.7 119.5) rotate(-10.9)"/>
        <ellipse class="cls-21" cx="596.3" cy="212.3" rx="7.2" ry=".9" transform="translate(-29.5 117.1) rotate(-10.9)"/>
        <path class="cls-21" d="M554.5,221.3l-1.9.4c-.4.1-.6.4-.5.8v.2c.2.4.6.6,1,.5l1.9-.4c.4-.1.6-.4.5-.8v-.2c-.3-.4-.7-.6-1-.5Z"/>
        <path class="cls-21" d="M553.2,218.8h-.4c-.6.2-1,.7-.8,1.3l.4,1.5c0,.5.7.9,1.3.8h.4c.6-.2,1-.7.8-1.3l-.4-1.5c-.2-.6-.7-.9-1.3-.8Z"/>
        <ellipse class="cls-21" cx="559.9" cy="219.3" rx="7.2" ry=".9" transform="translate(-31.5 110.3) rotate(-10.9)"/>
        <ellipse class="cls-21" cx="546.8" cy="221.8" rx="7.2" ry=".9" transform="translate(-32.2 107.9) rotate(-10.9)"/>
        <ellipse class="cls-4" cx="609.3" cy="209.7" rx="7.2" ry=".9" transform="translate(-28.7 119.5) rotate(-10.9)"/>
        <ellipse class="cls-4" cx="596.3" cy="212.3" rx="7.2" ry=".9" transform="translate(-29.5 117.1) rotate(-10.9)"/>
        <ellipse class="cls-4" cx="559.9" cy="219.3" rx="7.2" ry=".9" transform="translate(-31.5 110.3) rotate(-10.9)"/>
        <ellipse class="cls-4" cx="546.8" cy="221.8" rx="7.2" ry=".9" transform="translate(-32.2 107.9) rotate(-10.9)"/>
        <path class="cls-21" d="M582.8,223.3l-5.6,1.1c-.8.1-1.3.8-1.1,1.6v.5c.3.7,1,1.2,1.8,1l5.6-1.1c.8-.1,1.3-.8,1.1-1.6v-.5c-.3-.7-1-1.1-1.8-1Z"/>
        <path class="cls-4" d="M582.8,223.3l-5.6,1.1c-.8.1-1.3.8-1.1,1.6v.5c.3.7,1,1.2,1.8,1l5.6-1.1c.8-.1,1.3-.8,1.1-1.6v-.5c-.3-.7-1-1.1-1.8-1Z"/>
        <ellipse class="cls-5" cx="588.4" cy="247.7" rx="21.4" ry="3" transform="translate(-35.6 112.6) rotate(-10.6)"/>
      </g>
      <g>
        <path class="cls-14" d="M461.4,336.8h4.2v.3c0,1.8-.8,3.2-1.9,3.2h-.4c-1,0-1.9-1.4-1.9-3.2v-.3h0Z"/>
        <path class="cls-14" d="M474.9,332.9l-7.3-2.6v-.9l3.4-2.5c.4-1.1,1-.5,1-.5,0,0,1.2.3.9-1.6-.2-1.9-1.8-.5-1.8-.5l-4.2,2.2-.7-2.7c-.2-.8-.7-1.4-1.2-1.4h-2.4c-.5,0-1,.5-1.2,1.3l-.8,2.8-4.2-2.2s-1.6-1.4-1.8.5c-.2,1.9.9,1.6.9,1.6,0,0,.6-.6,1,.5l3.4,2.5v.2c-.2.2-.2.5-.2.8l-7.1,2.5c-.6.2-.9,1.3-.7,2.2l.2.7c.2,1,1,1.3,1.4.7.2-.2.3-.5.3-1l5.9-2.3c.4,2.6,1.8,4.6,3.4,4.6h1.2c1.7,0,3.1-2,3.4-4.7l6.1,2.4c0,.5.1.8.3,1,.5.6,1.2.3,1.4-.7l.2-.7c.2-.9-.2-2-.8-2.2h0Z"/>
        <path class="cls-21" d="M471.5,322.2l-3.6-3s-.4,0-.2.3c.2.3,4,3.3,4,3.3l-.2-.6h0Z"/>
        <path class="cls-21" d="M472.5,323.4s.2,1.1.8,1.8c.6.7,4,2.3,4,2.3l.5-.5-3.7-3.5-1.2-.2h-.4Z"/>
        <path class="cls-21" d="M474.9,333.5s.7.4,1.3-.1c.7-.5,3.3-4.4,3.3-4.4v-1l-3.7,3.4-.8,1.6v.5h-.1Z"/>
        <path class="cls-21" d="M475.2,333.6s-.6-.7-1.3-.6-3.9,2.4-3.9,2.4l-.2.9,4.2-1.2,1.1-1.1v-.4h0Z"/>
        <path class="cls-21" d="M455.9,322.2l3.6-3s.4,0,.2.3c-.2.3-4,3.3-4,3.3l.2-.6Z"/>
        <path class="cls-21" d="M454.9,323.4s-.2,1.1-.8,1.8c-.6.7-4,2.3-4,2.3l-.5-.5,3.7-3.5,1.2-.2h.4Z"/>
        <path class="cls-21" d="M452.5,333.5s-.7.4-1.3-.1c-.7-.5-3.3-4.4-3.3-4.4v-1l3.7,3.4.8,1.6v.5h0Z"/>
        <path class="cls-21" d="M452.2,333.6s.6-.7,1.3-.6c.7.1,3.9,2.4,3.9,2.4l.2.9-4.2-1.2-1.1-1.1v-.4h0Z"/>
        <ellipse class="cls-14" cx="472.1" cy="323.7" rx="1" ry="1.7"/>
        <ellipse class="cls-14" cx="455.2" cy="323.8" rx="1" ry="1.7"/>
      </g>
      <g>
        <path class="cls-21" d="M485.9,199l-2.4,19.6c-.1.7.3,1.3,1,1.4h.1c.3,0,.7,0,.9-.2.3-.2.5-.5.5-.9l2.4-19.8h-2.5Z"/>
        <path class="cls-21" d="M460.3,196.1l-2.4,19.6c-.1.7.3,1.3,1,1.4h.1c.3,0,.7,0,.9-.2.3-.2.5-.5.5-.9l2.4-19.8h-2.5Z"/>
        <path class="cls-10" d="M494.9,220.3c.1-.9-.5-1.8-1.4-2l-1.5-.4-2.6-.7-3-.8-2.6-.7-17.7-4.9c-.3-.1-.5-.1-.8-.1l-4.3.6-1.7.2h-.7c0,.1-.3.1-.3.1l-2.6.3h-.8c0,.1-.2.1-.2.1l-2.4.3-4.7.6c-.3,0-.6.2-.9.3h0c-.5.3-.7.8-.8,1.3l-2.7,22.1v.5c.1.7.6,1.3,1.3,1.5l25.1,8.3,2.5.8c.1,0,.2.1.3.1h.7l9.5-1.8,8-1.5c.8-.2,1.5-.8,1.6-1.7l2.7-22.5Z"/>
        <path class="cls-14" d="M493.2,220.1c0-.1-.1-.2-.2-.3h-.2c0-.1-1-.4-1-.4h-.1l-2.5-.7-3-.8-2.6-.7-17.9-5h-.1l-1.6.2-1.6.2-1.5.2-2.7.4h-.2l-3.1.4-2.7.4-1.8.2-1.2.2h0l-1.3.2c-.1,0-.2.1-.2.2l-2.7,22.1c0,.1.1.2.2.2l1.1.4,24.1,7.9,2.3.7h.4l7-1.3h0l2.7-.5,7.5-1.4c.1,0,.2-.1.2-.2l2.7-22.6Z"/>
        <path class="cls-14" d="M494.9,220.3c.1-.9-.5-1.8-1.4-2l-1.5-.4-2.6-.7-3-.8-2.6-.7-17.7-4.9c-.3-.1-.5-.1-.8-.1l-4.3.6-1.7.2h-.7c0,.1-.3.1-.3.1l-2.6.3h-.8c0,.1-.2.1-.2.1l-2.4.3-4.7.6c-.3,0-.6.2-.9.3h0c-.5.3-.7.8-.8,1.3l-2.7,22.1v.5c.1.7.6,1.3,1.3,1.5l25.1,8.3,2.5.8c.1,0,.2.1.3.1h.7l9.5-1.8,8-1.5c.8-.2,1.5-.8,1.6-1.7l2.7-22.5ZM490.7,244.2l-7.9,1.4-2.7.5-7,1.3h-.7l-2.5-.8-25.2-8.3c-.5-.2-.8-.6-1-1v-.5l2.7-22.1c0-.3.2-.7.5-.9h0c.2-.2.4-.3.6-.3h.1l4.6-.6,2.7-.4h.3l3.1-.4,1.4-.2h1.1c0-.1.2-.1.2-.1l4.4-.6h.6l17.7,4.9,2.6.7,3,.8,2.6.7,1.4.4c.3.1.5.2.7.4h0c.3.3.4.7.3,1.1l-2.6,22.7c0,.6-.4,1.1-1,1.3Z"/>
        <path class="cls-14" d="M494.4,219.6q-.1,0,0,0l-8.5,1.2-2.6.4-7.5,1.1h-.1l-28.6-8.5h0c-.1,0-.2-.2-.2-.3s.2-.2.3-.2l.6.2,28.1,8.3,6.5-.9,3.6-.5,8.3-1.2h.1c.1,0,.2.1.3.2h0c0,0,0,.2-.2.2Z"/>
        <path class="cls-14" d="M472.8,247.9c-.1,0-.2-.1-.2-.3l2.9-25.7c0-.1.1-.2.3-.2h0c.1,0,.2.1.2.3l-2.9,25.7c0,.1-.2.2-.3.2h0Z"/>
        <path class="cls-21" d="M482.8,245.9l-2.6.4,2-25.4-26.8-8.4h-.1c-.2-.1-.4-.2-.5-.4l3.9-.5,1.1.3,25.4,8c.3.1.5.3.6.5,0,0-3,25.3-3,25.5Z"/>
        <path class="cls-21" d="M502.9,195.8c-.4-.2-.9-.3-1.3-.5l.2-2c.1-.7-.1-1.4-.5-2-.2-.3-.4-.5-.7-.7-.1,0-.1-.1-.2-.1-.3-.1-.5-.2-.8-.3s-.6-.1-.9,0c-.2,0-.4.1-.5.1-.3.1-.5.2-.7.4h-.1c-.5.5-.9,1.2-1,1.8v.9c-13.7-4.3-28-5.9-42.2-4.8v-.8c.2-.7,0-1.4-.4-2-.2-.3-.4-.5-.7-.7-.1,0-.1-.1-.2-.1-.3-.1-.5-.2-.8-.3s-.6-.1-.9,0c-.2,0-.4.1-.5.1-.3.1-.5.2-.7.4h-.1c-.5.5-.9,1.2-1,1.8l-.3,2.1c-.5.1-.9.1-1.4.2h-.1c-.1,1,0,1.9.3,2.7l.2.6c.9,2,2.8,3.3,5,3.6l1.9.2-2.4,19.7c-.1.7.3,1.3,1,1.4.4.1.7,0,1-.2s.5-.5.5-.9l2.4-19.6c1.1.4,2,1.3,2.4,2.4.1.3.3.7.5,1,1.1,2,3.2,3.4,5.6,3.7l16.1,1.8c1.2.1,2.5,0,3.6-.4s2.1-1.1,2.9-2c.2-.2.3-.4.4-.6.7-1,1.8-1.7,3-1.9l-2.4,19.6c-.1.7.3,1.3,1,1.4h.1c.3,0,.7,0,.9-.2.3-.2.5-.5.5-.9l2.4-19.8,1.9.2c2.2.3,4.4-.6,5.7-2.3.1-.2.2-.3.4-.5.5-.8.8-1.6.9-2.5h0c0-.1,0,0,0,0Z"/>
        <ellipse class="cls-14" cx="473.4" cy="200.8" rx="7" ry="6.8"/>
        <ellipse class="cls-21" cx="473.4" cy="200.8" rx="3.7" ry="3.6"/>
        <path class="cls-21" d="M509.7,190.3l-9.1-1-.2,1.4,10.7,1.2c0-.8-.6-1.5-1.4-1.6Z"/>
        <path class="cls-21" d="M489.7,188c-.8-.1-1.6.4-1.8,1.2l10.7,1.2.2-1.4-9.1-1Z"/>
        <path class="cls-14" d="M501.8,190.8c0-.6-.3-1.1-.7-1.5-.9-1-2.5-1-3.5-.1-.3.3-.6.7-.7,1.1,0,.1-.1.3-.1.4h0c0,.1,4.9.7,4.9.7h0c.1-.3.1-.4.1-.6Z"/>
        <path class="cls-21" d="M462.1,184.9l-9.1-1-.2,1.4,10.7,1.2c0-.8-.6-1.5-1.4-1.6Z"/>
        <path class="cls-21" d="M442,182.6c-.8-.1-1.6.4-1.8,1.2l10.8,1.2.2-1.4-9.2-1Z"/>
        <path class="cls-14" d="M454.2,185.4c-.1-1.3-1.3-2.3-2.6-2.3-1,.1-1.9.7-2.2,1.7,0,.1-.1.3-.1.4h0c0,.1,4.9.7,4.9.7h0c0-.2,0-.4,0-.5Z"/>
        <path class="cls-14" d="M447.2,192.2c18.5-.2,36.9,2,54.9,6.3-.1.2-.2.3-.4.5-8.8-2.1-17.7-3.7-26.7-4.7h0c-.5-.1-1-.1-1.5-.2h0c-8.6-.9-17.3-1.4-26-1.3l-.3-.6Z"/>
        <path class="cls-21" d="M459.4,236.7q-.1,0,0,0l-8.9-3c-.2-.1-.3-.3-.3-.5.1-.2.3-.3.6-.3l8.8,3c.2.1.3.3.3.5-.1.2-.3.3-.5.3h0Z"/>
        <path class="cls-21" d="M457.7,231.1s-.1,0,0,0l-8.9-3c-.2-.1-.3-.3-.3-.5.1-.2.3-.3.6-.3h0l8.8,3c.2.1.3.3.3.5-.1.2-.3.3-.5.3h0Z"/>
      </g>
      <g>
        <path class="cls-15" d="M191.5,124.4c-2-.4-3.9-.7-5.9-.8h0c.1-.8-.4-1.6-1.1-1.8-.8-.2-1.5.4-1.7,1.2h0c-1.9-.7-3.8-1.2-5.8-1.5-4.3-.9-7.9-1-8-.4s3.3,1.8,7.6,2.7c2,.4,3.9.7,5.9.8h0v.6c-.5.2-.7.8-.5,1.4,0,0,.1.2.1.3-.7,0-1.4.6-1.8,1.2-.3-.4-.8-.7-1.2-.8l-14.4-3.6c-.8-1.8-2.3-3-4.1-3.4l-9.2-1.8c-1.8-.4-3.7.3-5,1.6l-13.9-2c-.4,0-.9,0-1.3.2-.2-.7-.6-1.3-1.1-1.7.3,0,.5-.4.6-.8s-.1-.9-.5-1.1c.1,0,.1-.3.1-.4h0c1.9.7,3.8,1.2,5.8,1.5,4.3.9,7.9,1,8,.4s-3.3-1.8-7.6-2.7c-2-.4-3.9-.7-5.9-.8h0c.1-.8-.4-1.6-1.1-1.8h0c-.8-.2-1.5.4-1.7,1.3h0c-1.9-.7-3.8-1.2-5.8-1.5-4.3-.9-7.9-1-8-.4s3.3,1.8,7.6,2.7c2,.4,3.9.7,5.9.8h0v.6c-.5.2-.7.8-.5,1.4,0,0,0,.2.2.3-1.1.2-1.9,1.1-2.1,2.3l-.3,1.9c-.3,1.5.7,3,2.1,3.3h0l1,.2c.8.2,1.7,0,2.3-.7.4.5.9.9,1.5,1l13.5,3.1c.3.8.8,1.6,1.4,2.2-1.6,1.2-7.7,6.6-8.8,18,0,0,.5,1.8,2.9.6,0,0,.8-12.8,9.2-16.5.1.9.7,1.5,1.5,1.7l1,.2c-2.1.5-3.7,2.2-4,4.5-.6,2.9,1.2,5.8,3.9,6.5,2.7.6,5.5-1.2,6.1-4.1,0-.1,0-.2.1-.4.4-2.2-.5-4.5-2.3-5.7l1,.2c.8.2,1.6-.3,2-1,6.6,6.7,3.2,18.9,3.2,18.9,1.8,2.1,2.9.6,2.9.6,3.1-12.7-2.6-20.5-2.6-20.5h-.1c.6-.3,1.1-.8,1.5-1.3l14.3,2.4c.6.1,1.3-.1,1.8-.4.3.8,1.1,1.4,1.9,1.6l1,.2c1.5.3,2.8-.8,3.1-2.3h0l.3-1.9c.2-1.1-.2-2.2-1.1-2.9.5-.2.8-.8.6-1.3-.1-.2-.2-.4-.4-.6.1,0,.1-.3.1-.4h0c1.9.7,3.8,1.2,5.8,1.6,4.3.9,7.9,1,8,.4-.2-1-3.6-2.2-8-3.1Z"/>
        <ellipse class="cls-21" cx="152.8" cy="138.4" rx="5" ry="5.3" transform="translate(-5.8 6.7) rotate(-2.4)"/>
        <ellipse class="cls-21" cx="152.8" cy="138.4" rx="3.3" ry="3.6" transform="translate(-5.8 6.7) rotate(-2.4)"/>
        <ellipse class="cls-4" cx="152.8" cy="138.4" rx="3.3" ry="3.6" transform="translate(-5.8 6.7) rotate(-2.4)"/>
        <ellipse class="cls-21" cx="152.8" cy="138.3" rx="2.2" ry="2.3" transform="translate(-.6 .7) rotate(-.3)"/>
        <ellipse class="cls-7" cx="152.8" cy="138.3" rx="2.2" ry="2.3" transform="translate(-.6 .7) rotate(-.3)"/>
        <path class="cls-21" d="M146.5,129.2s-7.6,4.8-8.8,17.2c0,0,.5,1.7,2.8.6,0,0,.9-15.7,12.7-16.4l-6.7-1.4Z"/>
        <path class="cls-21" d="M161.7,132.2s5.5,7.4,2.6,19.4c0,0-1,1.4-2.8-.6,0,0,4.3-15-6.5-20.2l6.7,1.4Z"/>
        <path class="cls-21" d="M150.2,119.1l10.6,2.1c2.6.5,4.3,3.1,3.8,5.8l-.3,1.8c-.5,2.7-2.9,4.5-5.5,4l-10.6-2.1c-2.6-.5-4.3-3.1-3.8-5.8l.3-1.8c.5-2.7,2.9-4.5,5.5-4Z"/>
        <path class="cls-21" d="M147.3,127.9l-15.5-3.5c-1.3-.3-2.1-1.6-1.8-2.9v-.6c.3-1.3,1.5-2.2,2.7-2l15.7,2.3c1.3.2,2.2,1.5,2,2.8h0c0,0-.3,1.9-.3,1.9-.2,1.4-1.5,2.3-2.8,2h0Z"/>
        <path class="cls-21" d="M161.3,130.7l15.6,2.6c1.3.2,2.5-.7,2.7-2v-.6c.3-1.3-.5-2.6-1.7-2.9l-15.4-3.8c-1.3-.3-2.5.5-2.8,1.9h0c0,0-.3,1.9-.3,1.9-.3,1.3.6,2.6,1.9,2.9h0Z"/>
        <path class="cls-4" d="M147.3,127.9l-15.5-3.5c-1.3-.3-2.1-1.6-1.8-2.9v-.6c.3-1.3,1.5-2.2,2.7-2l15.7,2.3c1.3.2,2.2,1.5,2,2.8h0c0,0-.3,1.9-.3,1.9-.2,1.4-1.5,2.3-2.8,2h0Z"/>
        <path class="cls-4" d="M161.3,130.7l15.6,2.6c1.3.2,2.5-.7,2.7-2v-.6c.3-1.3-.5-2.6-1.7-2.9l-15.4-3.8c-1.3-.3-2.5.5-2.8,1.9h0c0,0-.3,1.9-.3,1.9-.3,1.3.6,2.6,1.9,2.9h0Z"/>
        <path class="cls-21" d="M128.4,116.8l1,.2c1.4.3,2.3,1.7,2.1,3.2l-.3,1.7c-.3,1.5-1.6,2.4-3,2.2l-1-.2c-1.4-.3-2.3-1.7-2.1-3.2l.3-1.7c.3-1.5,1.6-2.5,3-2.2Z"/>
        <path class="cls-21" d="M181.8,127.3l1,.2c1.4.3,2.3,1.7,2.1,3.2l-.3,1.7c-.3,1.5-1.6,2.4-3,2.2l-1-.2c-1.4-.3-2.3-1.7-2.1-3.2l.3-1.7c.2-1.5,1.6-2.5,3-2.2Z"/>
        <path class="cls-21" d="M128.2,115.1l2.1.4c.4,0,.7.5.6,1v.3c-.1.4-.5.8-.9.6l-2.1-.4c-.4,0-.7-.5-.6-1v-.3c0-.4.4-.6.9-.6Z"/>
        <path class="cls-21" d="M129.4,112h.4c.6.2,1.1.9.9,1.5l-.3,1.9c-.1.7-.7,1.1-1.3,1h-.4c-.6-.2-1.1-.9-.9-1.5l.3-1.9c.1-.7.7-1.1,1.3-1Z"/>
        <ellipse class="cls-21" cx="122.3" cy="112.8" rx="1.1" ry="7.7" transform="translate(-12.1 210.9) rotate(-78.8)"/>
        <ellipse class="cls-21" cx="136.3" cy="115.6" rx="1.1" ry="7.7" transform="translate(-3.5 226.9) rotate(-78.8)"/>
        <path class="cls-21" d="M181.6,125.6l2.1.4c.4,0,.7.5.6,1v.3c-.1.4-.5.8-.9.6l-2.1-.4c-.4,0-.7-.5-.6-1v-.3c0-.3.5-.6.9-.6Z"/>
        <path class="cls-21" d="M182.9,122.5h.4c.6.2,1.1.9.9,1.5l-.3,1.9c-.1.7-.7,1.1-1.3,1h-.4c-.6-.2-1.1-.9-.9-1.5l.3-1.9c.1-.7.7-1.1,1.3-1Z"/>
        <ellipse class="cls-21" cx="175.7" cy="123.4" rx="1.1" ry="7.7" transform="translate(20.6 271.9) rotate(-78.8)"/>
        <ellipse class="cls-21" cx="189.8" cy="126.1" rx="1.1" ry="7.7" transform="translate(29.3 287.8) rotate(-78.8)"/>
        <ellipse class="cls-4" cx="122.3" cy="112.8" rx="1.1" ry="7.7" transform="translate(-12.1 210.9) rotate(-78.8)"/>
        <ellipse class="cls-4" cx="136.3" cy="115.6" rx="1.1" ry="7.7" transform="translate(-3.5 226.9) rotate(-78.8)"/>
        <ellipse class="cls-4" cx="175.7" cy="123.4" rx="1.1" ry="7.7" transform="translate(20.6 271.9) rotate(-78.8)"/>
        <ellipse class="cls-4" cx="189.8" cy="126.1" rx="1.1" ry="7.7" transform="translate(29.3 287.8) rotate(-78.8)"/>
        <path class="cls-21" d="M151.3,129.1l6,1.2c.8.2,1.4,1,1.3,1.9v.6c-.2.9-1.1,1.5-1.9,1.3l-6-1.2c-.8-.2-1.4-1-1.3-1.9v-.6c.2-.9,1-1.5,1.9-1.3Z"/>
        <path class="cls-4" d="M151.3,129.1l6,1.2c.8.2,1.4,1,1.3,1.9v.6c-.2.9-1.1,1.5-1.9,1.3l-6-1.2c-.8-.2-1.4-1-1.3-1.9v-.6c.2-.9,1-1.5,1.9-1.3Z"/>
        <ellipse class="cls-5" cx="146.3" cy="159.8" rx="3.7" ry="23.1" transform="translate(-38.1 273.5) rotate(-79.2)"/>
      </g>
      <path class="cls-14" d="M578.5,431.3c-.5,0-.8-.5-.8-1.1v-95.2c0-.6.4-1.1.8-1.1s.8.5.8,1.1v95.2c0,.7-.4,1.1-.8,1.1Z"/>
      <path class="cls-14" d="M587.7,366.8h-18.4c-1.2,0-2.1-1.2-2.1-2.7v-23.5c0-1.5.9-2.7,2.1-2.7h18.4c1.2,0,2.1,1.2,2.1,2.7v23.5c0,1.5-1,2.7-2.1,2.7Z"/>
      <path class="cls-14" d="M234.3,431.4c-.5,0-.8-.4-.8-.9v-79.1c0-.5.4-.9.8-.9s.8.4.8.9v79.1c0,.5-.3.9-.8.9Z"/>
      <path class="cls-14" d="M243.5,377.8h-18.4c-1.2,0-2.1-1-2.1-2.2v-19.5c0-1.2.9-2.2,2.1-2.2h18.4c1.2,0,2.1,1,2.1,2.2v19.5c0,1.2-.9,2.2-2.1,2.2Z"/>
      <g>
        <path class="cls-21" d="M270.5,389.5l-.2,10.9c0,.4.3.7.7.7h.1c.2,0,.4-.1.5-.2.2-.1.3-.3.3-.5l.2-11h-1.6Z"/>
        <path class="cls-21" d="M255.1,389.3l-.2,10.9c0,.4.3.7.7.7h.1c.2,0,.4-.1.5-.2.2-.1.3-.3.3-.5l.2-11h-1.6Z"/>
        <path class="cls-10" d="M277.3,400.7c0-.5-.4-.9-1-1h-.9c0-.1-1.6-.4-1.6-.4l-1.9-.3-1.6-.3-10.9-1.7h-.5l-2.5.5-1,.2h-.4c0,.1-.1.1-.1.1l-1.5.3h-.5c0,.1-.1.1-.1.1l-1.4.3-2.8.6c-.2,0-.4.1-.5.2h0c-.3.2-.4.5-.4.8l-.2,12.3v.3c.1.4.4.7.9.8l15.6,3.2,1.5.3h.6l5.6-1.5,4.7-1.2c.5-.1.8-.5.8-1v-12.6Z"/>
        <path class="cls-14" d="M276.3,400.7c0-.1-.1-.1-.1-.1h-.7c0-.1-.1-.1-.1-.1h0l-1.5-.2-1.9-.3-1.6-.3-11-1.8h0l-.9.2-1,.2-.9.2-1.6.3h-.1l-1.8.4-1.6.3-1,.2h-.7c0,.1-.8.3-.8.3-.1,0-.1.1-.1.1l-.2,12.3q0,.1.1.1h.7c0,.1,14.9,3.1,14.9,3.1l1.4.3h.3l4.1-1.1h0l1.6-.4,4.4-1.2c.1,0,.1-.1.1-.1v-12.4h0Z"/>
        <path class="cls-14" d="M277.3,400.7c0-.5-.4-.9-1-1h-.9c0-.1-1.6-.4-1.6-.4l-1.9-.3-1.6-.3-10.9-1.7h-.5l-2.5.5-1,.2h-.4c0,.1-.1.1-.1.1l-1.5.3h-.5c0,.1-.1.1-.1.1l-1.4.3-2.8.6c-.2,0-.4.1-.5.2h0c-.3.2-.4.5-.4.8l-.2,12.3v.3c.1.4.4.7.9.8l15.6,3.2,1.5.3h.6l5.6-1.5,4.7-1.2c.5-.1.8-.5.8-1v-12.6ZM276.3,414l-4.6,1.2-1.6.4-4.1,1.1h-.5l-1.5-.3-15.6-3.2c-.3-.1-.5-.3-.6-.5v-.3l.2-12.3c0-.2.1-.4.2-.5h0c.1-.1.2-.2.4-.2h.1l2.7-.6,1.6-.3h.2l1.8-.4.8-.2h.7c0-.1.1-.1.1-.1l2.6-.6h.3l10.9,1.8,1.6.3,1.9.3,1.6.3h.9c.2.1.3.2.4.3h0c.2.2.3.4.3.6v12.6c-.2.2-.4.5-.8.6Z"/>
        <path class="cls-14" d="M276.9,400.3h0l-5,1.1-1.5.3-4.4,1h0l-17.6-3.1h-.1c-.1,0-.1-.1-.1-.2s.1-.1.2-.1h.4c0,.1,17.3,3.2,17.3,3.2l3.8-.9,2.1-.5,4.9-1.1h.1q.1,0,.2.1h0c-.2.1-.2.2-.3.2Z"/>
        <path class="cls-14" d="M265.8,417c-.1,0-.1-.1-.1-.1v-14.2c.1-.1.2-.1.2-.1h0c.1,0,.1.1.1.1v14.2c0,.1-.1.1-.2.1h0Z"/>
        <path class="cls-21" d="M271.7,415.4l-1.5.3-.4-14-16.5-3.2h0c-.1,0-.2-.1-.3-.2l2.3-.5h.7c0,.1,15.7,3.1,15.7,3.1.2,0,.3.1.4.3-.2.1-.4,14.1-.4,14.2Z"/>
        <path class="cls-21" d="M280.5,386.8c-.3-.1-.5-.1-.8-.2v-1.1c0-.4-.2-.8-.5-1.1-.1-.1-.3-.2-.5-.3,0,0-.1,0-.1-.1-.2-.1-.3-.1-.5-.1h-.6c-.1,0-.2.1-.3.1-.1.1-.3.1-.4.2,0,0-.1,0-.1.1-.3.3-.5.6-.5,1v.5c-8.4-1.6-17-1.7-25.5-.4v-.4c0-.4-.2-.8-.5-1.1-.1-.1-.3-.2-.5-.3,0,0-.1,0-.1-.1-.2-.1-.3-.1-.5-.1h-.6c-.1,0-.2.1-.3.1-.1.1-.3.1-.4.2,0,0-.1,0-.1.1-.3.3-.5.6-.5,1v1.1c-.3.1-.5.1-.8.2h-.1c0,.6.1,1.1.3,1.5l.2.3c.7,1,1.9,1.7,3.2,1.7h1.1l-.2,11c0,.4.3.7.7.7s.4,0,.6-.2c.2-.1.3-.3.3-.5l.2-10.9c.7.2,1.3.6,1.6,1.2s.2.4.3.5c.8,1,2.1,1.7,3.6,1.7h9.8c.7.1,1.5,0,2.1-.3.7-.3,1.2-.7,1.6-1.3.1-.1.2-.2.2-.4.3-.6.9-1,1.7-1.2l-.2,10.9c0,.4.3.7.7.7h.1c.2,0,.4-.1.5-.2.2-.1.3-.3.3-.5l.2-11h1.1c1.3,0,2.6-.6,3.3-1.6.1-.1.1-.2.2-.3.6,0,.7-.5.7-1.1h0Z"/>
        <ellipse class="cls-14" cx="263.1" cy="391.1" rx="3.7" ry="4.2" transform="translate(-130.8 650) rotate(-89.4)"/>
        <ellipse class="cls-21" cx="263.1" cy="391.1" rx="2" ry="2.2" transform="translate(-130.8 650) rotate(-89.4)"/>
        <path class="cls-21" d="M284.2,383.4h-5.5c0-.1,0,.7,0,.7h6.5c-.1-.3-.5-.7-1-.7Z"/>
        <path class="cls-21" d="M272.1,383.3c-.5,0-.9.3-1,.8h6.5c0,.1,0-.7,0-.7h-5.5Z"/>
        <path class="cls-14" d="M279.5,384.1c-.1-.3-.2-.6-.5-.8-.6-.5-1.6-.4-2.1.1s-.3.4-.3.6v.2h0c0,.1,3,.1,3,.1h0c-.1,0-.1-.1-.1-.2Z"/>
        <path class="cls-21" d="M255.4,383h-5.5c0-.1,0,.7,0,.7h6.5c-.1-.3-.5-.7-1-.7Z"/>
        <path class="cls-21" d="M243.3,382.8c-.5,0-.9.3-1,.8h6.5c0,.1,0-.7,0-.7h-5.5Z"/>
        <path class="cls-14" d="M250.7,383.7c-.1-.7-.9-1.2-1.7-1.1-.6.1-1.1.5-1.2,1.1v.2h0c0,.1,3,.1,3,.1h0c-.1-.1-.1-.2-.1-.3Z"/>
        <path class="cls-14" d="M247,387.8c11-1.1,22.2-.9,33.2.5-.1.1-.1.2-.2.3-5.4-.7-10.8-1.1-16.3-1.2h-.9c-5.2,0-10.4.2-15.6.7l-.2-.3Z"/>
        <path class="cls-21" d="M257.1,411.6h0l-5.5-1.2c-.1,0-.2-.2-.2-.3s.2-.2.3-.2l5.4,1.2c.1,0,.2.2.2.3,0,.1-.1.2-.2.2h0Z"/>
        <path class="cls-21" d="M255.8,408.6q-.1,0,0,0l-5.5-1.2c-.1,0-.2-.2-.2-.3s.2-.2.3-.2h0l5.4,1.2c.1,0,.2.2.2.3s-.1.2-.2.2h0Z"/>
      </g>
      <path class="cls-8" d="M180.6,239.8l-.7.3v-.4s0,.2.7,0Z"/>
      <g>
        <path class="cls-13" d="M283,188c-1.6.4-3.2.9-4.7,1.5h0c-.1-.6-.7-.9-1.4-.8-.6.2-1.1.8-.9,1.3h0c-1.6.2-3.3.5-4.9,1-3.5.9-6.4,2-6.3,2.4s3,.1,6.6-.8c1.6-.4,3.2-.9,4.7-1.5h0c0,.1.1.3.1.4-.3.3-.3.8,0,1.1,0,0,.1.1.2.1-.5.3-.9.8-1,1.4-.4-.2-.8-.2-1.2-.1l-12,2.6c-1.1-.9-2.6-1.2-4.1-.8l-7.5,1.9c-1.5.4-2.8,1.4-3.4,2.7l-11.2,3.4c-.4.1-.7.3-1,.6-.3-.4-.8-.6-1.3-.7.2-.2.3-.5.2-.7-.1-.3-.3-.5-.7-.5v-.3h0c1.6-.2,3.3-.5,4.9-1,3.5-.9,6.4-2,6.3-2.4-.1-.4-3-.1-6.6.8-1.6.4-3.2.9-4.7,1.5h0c-.1-.6-.7-.9-1.4-.8h0c-.6.2-1,.8-.9,1.4h0c-1.6.2-3.3.5-4.9,1-3.5.9-6.4,2-6.3,2.4.1.4,3,.1,6.6-.8,1.6-.4,3.2-.9,4.7-1.5h0c0,.1.1.3.1.4-.3.3-.3.8,0,1.1s.1.1.2.1c-.8.5-1.2,1.4-1,2.2l.3,1.3c.2,1.1,1.3,1.7,2.5,1.4h0l.9-.2c.7-.2,1.3-.6,1.5-1.2.4.2.9.3,1.4.2l11.2-2.6c.5.4,1,.8,1.7,1-.9,1.3-4.1,6.8-1.8,14.5,0,0,.9,1,2.4-.6,0,0-2.9-8.5,2.5-13.7.3.5,1,.8,1.6.6l.8-.2c-1.5,1-2.2,2.7-1.9,4.2.4,2.1,2.5,3.4,4.8,2.8,2.3-.5,3.9-2.6,3.5-4.7v-.3c-.3-1.6-1.6-2.7-3.4-2.9l.8-.2c.7-.2,1.2-.7,1.3-1.3,6.9,2.1,7.6,11.1,7.6,11.1,2,.7,2.4-.6,2.4-.6-1.1-9.2-7.6-12.4-7.6-12.4h-.1c.3-.4.6-.9.8-1.3l11.6-3.3c.5-.1.9-.5,1.2-.9.5.4,1.2.6,1.9.4l.9-.2c1.2-.3,2-1.4,1.7-2.5h0l-.3-1.3c-.2-.8-.8-1.3-1.6-1.5.3-.3.4-.8.1-1.1-.1-.1-.3-.2-.5-.2v-.3h0c1.6-.2,3.3-.5,4.8-.9,3.5-.9,6.4-2,6.3-2.4,0-.6-3-.2-6.5.7Z"/>
        <ellipse class="cls-21" cx="257.1" cy="210" rx="4.2" ry="3.7" transform="translate(-64.7 128.4) rotate(-25)"/>
        <ellipse class="cls-21" cx="257.1" cy="210" rx="2.8" ry="2.5" transform="translate(-64.7 128.4) rotate(-25)"/>
        <ellipse class="cls-4" cx="257.1" cy="210" rx="2.8" ry="2.5" transform="translate(-64.7 128.4) rotate(-25)"/>
        <ellipse class="cls-21" cx="257.1" cy="210" rx="1.8" ry="1.6" transform="translate(-66.6 136.2) rotate(-26.4)"/>
        <ellipse class="cls-7" cx="257.1" cy="210" rx="1.8" ry="1.6" transform="translate(-66.6 136.2) rotate(-26.4)"/>
        <path class="cls-21" d="M249.8,206.2s-4.5,5.7-2,14c0,0,.9.9,2.3-.6,0,0-3.6-10.4,5.3-14.8l-5.6,1.4Z"/>
        <path class="cls-21" d="M262.2,203s6.3,2.9,7.3,11.6c0,0-.4,1.2-2.3.6,0,0-.8-11.2-10.5-10.8l5.5-1.4Z"/>
        <path class="cls-21" d="M249.8,198.5l8.7-2.2c2.1-.5,4.1.6,4.5,2.5l.3,1.3c.4,1.9-1,3.9-3.1,4.4l-8.7,2.2c-2.1.5-4.1-.6-4.5-2.5l-.3-1.3c-.4-1.9,1-3.9,3.1-4.4Z"/>
        <path class="cls-21" d="M250,205.1l-12.8,2.9c-1,.2-2-.3-2.2-1.3v-.4c-.3-.9.3-1.9,1.4-2.2l12.7-3.8c1-.3,2.1.2,2.3,1.1h0c0,.1.3,1.4.3,1.4.1,1.1-.6,2-1.7,2.3h0Z"/>
        <path class="cls-21" d="M261.5,202.2l12.7-3.6c1-.3,1.7-1.3,1.5-2.2v-.4c-.3-.9-1.3-1.5-2.3-1.3l-12.9,2.7c-1.1.2-1.8,1.2-1.7,2.2h0c0,.1.3,1.4.3,1.4.3.9,1.3,1.5,2.4,1.2h0Z"/>
        <path class="cls-4" d="M250,205.1l-12.8,2.9c-1,.2-2-.3-2.2-1.3v-.4c-.3-.9.3-1.9,1.4-2.2l12.7-3.8c1-.3,2.1.2,2.3,1.1h0c0,.1.3,1.4.3,1.4.1,1.1-.6,2-1.7,2.3h0Z"/>
        <path class="cls-4" d="M261.5,202.2l12.7-3.6c1-.3,1.7-1.3,1.5-2.2v-.4c-.3-.9-1.3-1.5-2.3-1.3l-12.9,2.7c-1.1.2-1.8,1.2-1.7,2.2h0c0,.1.3,1.4.3,1.4.3.9,1.3,1.5,2.4,1.2h0Z"/>
        <path class="cls-21" d="M232.5,204.3l.8-.2c1.2-.3,2.2.3,2.5,1.3l.3,1.2c.2,1-.6,2.1-1.7,2.4l-.8.2c-1.2.3-2.2-.3-2.5-1.3l-.3-1.2c-.2-1,.5-2.1,1.7-2.4Z"/>
        <path class="cls-21" d="M276.3,193.1l.8-.2c1.2-.3,2.2.3,2.5,1.3l.3,1.2c.2,1-.6,2.1-1.7,2.4l-.8.2c-1.2.3-2.2-.3-2.5-1.3l-.3-1.2c-.2-1,.5-2.1,1.7-2.4Z"/>
        <path class="cls-21" d="M231.8,203.3l1.7-.4c.3-.1.7.1.7.4v.2c.1.3-.2.6-.5.7l-1.7.4c-.3.1-.7-.1-.7-.4v-.2c0-.3.2-.6.5-.7Z"/>
        <path class="cls-21" d="M231.9,200.9h.3c.5-.2,1,0,1.1.5l.3,1.3c.1.5-.2,1-.8,1.1h-.3c-.5.2-1,0-1.1-.5l-.3-1.3c0-.5.3-1,.8-1.1Z"/>
        <ellipse class="cls-21" cx="226.7" cy="203.9" rx="6.4" ry=".8" transform="translate(-43.6 62.7) rotate(-14.4)"/>
        <ellipse class="cls-21" cx="238.2" cy="200.9" rx="6.4" ry=".8" transform="translate(-42.5 65.5) rotate(-14.4)"/>
        <path class="cls-21" d="M275.7,192.1l1.7-.4c.3-.1.7.1.7.4v.2c.1.3-.2.6-.5.7l-1.7.4c-.3.1-.7-.1-.7-.4v-.2c0-.3.2-.6.5-.7Z"/>
        <path class="cls-21" d="M275.8,189.7h.3c.5-.2,1,0,1.1.5l.3,1.3c.1.5-.2,1-.8,1.1h-.3c-.5.2-1,0-1.1-.5l-.3-1.3c0-.5.3-1,.8-1.1Z"/>
        <ellipse class="cls-21" cx="270.6" cy="192.6" rx="6.4" ry=".8" transform="translate(-39.4 73.3) rotate(-14.4)"/>
        <ellipse class="cls-21" cx="282.1" cy="189.7" rx="6.4" ry=".8" transform="translate(-38.3 76.1) rotate(-14.4)"/>
        <ellipse class="cls-4" cx="226.7" cy="203.9" rx="6.4" ry=".8" transform="translate(-43.6 62.7) rotate(-14.4)"/>
        <ellipse class="cls-4" cx="238.2" cy="200.9" rx="6.4" ry=".8" transform="translate(-42.5 65.5) rotate(-14.4)"/>
        <ellipse class="cls-4" cx="270.6" cy="192.6" rx="6.4" ry=".8" transform="translate(-39.4 73.3) rotate(-14.4)"/>
        <ellipse class="cls-4" cx="282.1" cy="189.7" rx="6.4" ry=".8" transform="translate(-38.3 76.1) rotate(-14.4)"/>
        <path class="cls-21" d="M253.4,204.6l4.9-1.3c.7-.2,1.4.2,1.5.8v.4c.2.6-.2,1.3-.9,1.5l-4.9,1.3c-.7.2-1.4-.2-1.5-.8v-.4c-.3-.7.2-1.4.9-1.5Z"/>
        <path class="cls-4" d="M253.4,204.6l4.9-1.3c.7-.2,1.4.2,1.5.8v.4c.2.6-.2,1.3-.9,1.5l-4.9,1.3c-.7.2-1.4-.2-1.5-.8v-.4c-.3-.7.2-1.4.9-1.5Z"/>
        <ellipse class="cls-5" cx="257.9" cy="226.1" rx="19.2" ry="2.6" transform="translate(-49 72.9) rotate(-14.7)"/>
      </g>
      <g>
        <path class="cls-21" d="M201.6,279l2.8,8.6c.1.3.4.5.7.4h.1c.1,0,.3-.1.4-.3.1-.1.1-.3.1-.5l-2.8-8.7-1.3.5Z"/>
        <path class="cls-21" d="M189.8,282.6l2.8,8.6c.1.3.4.5.7.4h.1c.1,0,.3-.1.4-.3.1-.1.1-.3.1-.5l-2.8-8.7-1.3.5Z"/>
        <path class="cls-10" d="M209.7,286.2c-.1-.4-.6-.6-1-.6h-.7c0,.1-1.3.3-1.3.3l-1.5.2-1.3.2-8.7,1.3c-.1,0-.3.1-.4.1l-1.8,1-.7.4-.3.2h-.1c0,.1-.9.7-.9.7l-.3.2h-.1c0,.1-1,.7-1,.7l-1.9,1.1c-.1.1-.2.2-.3.3h0c-.1.2-.2.5-.1.7l3.1,9.7c0,.1.1.1.1.2.2.3.5.4.9.4l12.6-1.3h1.3q.1-.1.2-.1h.1s.1,0,.1-.1l3.8-2.5,3.2-2.1c.3-.2.5-.6.4-1l-3.4-10Z"/>
        <path class="cls-14" d="M208.9,286.4c0-.1-.1-.1-.1-.1h-.6c0,.1-1.2.3-1.2.3l-1.5.2-1.3.2-8.8,1.3h0l-.6.4-.7.4-.6.4-1.1.7h-.1c0,.1-1.3.9-1.3.9l-1.1.6-.7.4-.5.3h0l-.5.3h-.1c0,.1,3.1,9.8,3.1,9.8h.1c0,.1.6,0,.6,0l12.1-1.2h1.1c0-.1.1-.1.1-.1h.2c0-.1,2.8-2,2.8-2h0l1.1-.7,3-2s.1-.1,0-.1l-3.4-10Z"/>
        <path class="cls-14" d="M209.7,286.2c-.1-.4-.6-.6-1-.6h-.7c0,.1-1.3.3-1.3.3l-1.5.2-1.3.2-8.7,1.3c-.1,0-.3.1-.4.1l-1.8,1-.7.4-.3.2h-.1c0,.1-.9.7-.9.7l-.3.2h-.1c0,.1-1,.7-1,.7l-1.9,1.1c-.1.1-.2.2-.3.3h0c-.1.2-.2.5-.1.7l3.1,9.7c0,.1.1.1.1.2.2.3.5.4.9.4l12.6-1.3h1.3q.1-.1.2-.1h.1s.1,0,.1-.1l3.8-2.5,3.2-2.1c.3-.2.5-.6.4-1l-3.4-10ZM212.5,296.9l-3.2,2.1-1.1.7-2.8,1.8h0c-.1,0-.1.1-.2.1h-1.3c0,.1-12.6,1.4-12.6,1.4-.2,0-.5-.1-.6-.3,0-.1-.1-.1-.1-.2l-3.1-9.7v-.5h0c0-.1.1-.2.2-.2h.1l1.9-1.1,1.1-.7h.1c0-.1,1.3-.8,1.3-.8l.6-.3.5-.3h.1l1.8-1.1c.1,0,.1-.1.2-.1h.1l8.7-1.3,1.3-.2,1.5-.2,1.3-.2h.7c.1-.1.3-.1.4-.1h0c.2.1.3.2.4.4l3.3,9.9c-.2.4-.3.7-.6.9Z"/>
        <path class="cls-14" d="M209.3,286h0l-3.5,2.1-1.1.6-3.1,1.8h0l-14.2,1.8h0q-.1,0-.1-.1t.1-.1h.3l13.9-1.8,2.6-1.6,1.5-.9,3.4-2h.2c0,.1,0,.2,0,.2Z"/>
        <path class="cls-14" d="M205.4,301.8q-.1,0-.1-.1l-3.8-11.2q0-.1.1-.1h0q.1,0,.1.1l3.8,11.2s0,.1-.1.1h0Z"/>
        <path class="cls-21" d="M209.4,299.1l-1.1.6-4.1-11-13.4,1.5h0c-.1,0-.2,0-.3-.1l1.6-.9h.5c0-.1,12.7-1.5,12.7-1.5.1,0,.3,0,.4.1.1.2,3.7,11.2,3.7,11.3Z"/>
        <path class="cls-21" d="M208.4,274.5h-.7l-.3-.9c-.1-.3-.3-.6-.6-.7-.1-.1-.3-.1-.4-.1h-.5c-.1,0-.3.1-.4.2-.1,0-.1.1-.2.2-.1.1-.2.2-.2.3h0c-.1.4-.2.7-.1,1v.4c-6.7.7-13.3,2.7-19.3,5.9v-.3c-.2-.3-.4-.6-.7-.7-.1-.1-.3-.1-.4-.1h-.5c-.1,0-.3.1-.4.2-.1,0-.1.1-.2.2-.1.1-.2.2-.2.3h0c-.2.4-.2.7-.1,1l.3.9c-.2.1-.4.2-.6.3h0c.1.4.3.7.6,1l.2.2c.8.6,1.9.9,2.9.5l.9-.3,2.8,8.7c.1.3.4.5.7.4.2,0,.3-.1.4-.3.1-.1.1-.3.1-.5l-2.8-8.6c.6,0,1.1.2,1.5.6s.3.2.4.3c.9.6,2.1.8,3.2.5l7.4-2.2c.6-.2,1.1-.5,1.5-.9s.7-.9.9-1.4c0-.1.1-.2.1-.3.1-.5.4-1,.9-1.3l2.8,8.6c.1.3.4.5.7.4h.1c.1,0,.3-.1.4-.3.1-.1.1-.3.1-.5l-2.8-8.7.9-.3c1-.3,1.8-1.1,2-2,0-.1,0-.2.1-.3-.3-.5-.3-1-.5-1.4h0Z"/>
        <ellipse class="cls-14" cx="196.5" cy="282.1" rx="3.4" ry="3.1" transform="translate(-46.9 39.3) rotate(-10.2)"/>
        <ellipse class="cls-21" cx="196.5" cy="282.1" rx="1.8" ry="1.7" transform="translate(-46.9 39.3) rotate(-10.2)"/>
        <path class="cls-21" d="M210.3,270.9l-4.2,1.3.2.6,4.9-1.5c0-.3-.5-.5-.9-.4Z"/>
        <path class="cls-21" d="M201.1,273.7c-.4.1-.6.5-.5.8l4.9-1.5-.2-.6-4.2,1.3Z"/>
        <path class="cls-14" d="M207,272.6c-.1-.2-.3-.4-.6-.5-.6-.2-1.3,0-1.6.6s-.1.4-.1.6v.2h0c0,.1,2.3-.6,2.3-.6h0c0-.1,0-.2,0-.3Z"/>
        <path class="cls-21" d="M188.4,277.6l-4.2,1.3.2.6,4.9-1.5c0-.4-.5-.5-.9-.4Z"/>
        <path class="cls-21" d="M179.2,280.4c-.4.1-.6.5-.5.8l4.9-1.5-.2-.6-4.2,1.3Z"/>
        <path class="cls-14" d="M185.1,279.3c-.3-.5-1-.7-1.6-.5-.4.2-.7.7-.6,1.1v.2h0c0,.1,2.3-.6,2.3-.6h0c0-.1,0-.2,0-.2Z"/>
        <path class="cls-14" d="M183.3,283.4c8.1-3.5,16.5-6.1,25.2-7.6,0,.1,0,.2-.1.3-4.3.8-8.5,1.8-12.6,3h0c-.2.1-.5.1-.7.2h0c-4,1.2-7.8,2.7-11.6,4.3l-.2-.2Z"/>
        <path class="cls-21" d="M197.4,299.7q0,0,0,0l-4.5.4c-.1,0-.2-.1-.2-.2s.1-.2.2-.2l4.4-.4c.1,0,.2.1.2.2,0,0,0,.1,0,.2h0Z"/>
        <path class="cls-21" d="M195.5,297.6h0l-4.5.4c-.1,0-.2-.1-.2-.2s.1-.2.2-.2h0l4.4-.4c.1,0,.2.1.2.2.1.1,0,.2,0,.2h0Z"/>
      </g>
      <g>
        <ellipse class="cls-11" cx="140.5" cy="363.4" rx="3.9" ry="4.4" transform="translate(-223.2 503.2) rotate(-89.9)"/>
        <path class="cls-3" d="M140.8,367.2c-1,.4-2.3.3-3.3-.2s-1.7-1.3-2.3-2.3c-.4-.7-.7-1.4-.5-2.2.2-.7,1.1-1.3,1.9-1.1-.6-.4-.5-1.2-.1-1.7s1.1-.7,1.8-.9c1-.3,2-.5,3-.3s2,.6,2.5,1.4c.7.2,1.4-.1,1.7-.7.2.5,0,1.1-.5,1.5l1.4-.7c.4.4,0,1.1-.5,1.3-.5.2-1.2.2-1.8.1s-1.3.2-1.9.2-1.2.3-1.4.8c-.1.3,0,.6-.1.8s-.2.6-.5.7h-.6c-.2.1-.4.3-.4.5s0,.4.1.6c.3.8.8,1.2,1.1,2"/>
        <path class="cls-11" d="M161.5,394.7c-.9-.1-1.6-.8-1.5-1.6,0-.1,0-.2.1-.3l-4.8-3,2.8-1,4.1,3c.9.3,1.3,1.1,1,1.9-.3.6-1,1-1.7,1h0Z"/>
        <path class="cls-11" d="M129.3,396.9c-.4-.7-.1-1.6.7-2,.1,0,.2-.1.3-.1l.2-5.2,2.5,1.6-.6,4.7c.2.8-.3,1.6-1.2,1.8-.7.1-1.5-.2-1.9-.8h0Z"/>
        <polygon class="cls-11" points="137.6 428.7 140 428.7 141.1 420.2 137.5 420.2 137.6 428.7"/>
        <path class="cls-3" d="M137,430.9h7.9v-.2c0-1.5-1.4-2.8-3.1-2.7h0l-1.5-1-2.7,1h-.7v2.9Z"/>
        <polygon class="cls-11" points="153.2 428.6 155.6 428.2 155.3 419.7 151.7 420.2 153.2 428.6"/>
        <path class="cls-3" d="M152.9,430.7l7.8-1.1h0c-.3-1.6-1.8-2.6-3.5-2.4h0l-1.6-.8-2.5,1.3h-.7c0,.1.5,3,.5,3Z"/>
        <path class="cls-3" d="M133.6,395.5c1.3-.3,2.7-.6,4-.9,2.1-.5,4.3-1,6.4-1.5l1.5-.3h.1q.1,0,.2.1c.3.5.7,1,1,1.5l2.4,3.5c.9,1.4,1.9,2.7,2.8,4.1l2.2,3.2c.2.3.4.6.6.9.1.1.1.2.2.3.1.7.1,1.3.2,2,.1,1.3.3,2.7.4,4l.5,4.8c.1,1.4.3,2.8.4,4.2.1.7.1,1.5.2,2.2h0c0,.2-.1.3-.2.3l-3.9,1.2-.6.2c-.1,0-.3,0-.3-.2-.3-1.4-.5-2.8-.8-4.1-.4-2.2-.9-4.4-1.3-6.6-.1-.3-.1-.7-.2-1,0-.2-.1-.3-.1-.5-.1-.1-.1-.2-.2-.3-.2-.4-.3-.9-.2-1.3h0c0-.2,0-.3-.1-.4-.1-.3-.1-.6-.2-.9,0-.2-.1-.5-.1-.7h.1c-.2-.1-.3-.3-.5-.4-.8-.7-1.6-1.4-2.3-2.1-1.4-1.2-2.8-2.5-4.2-3.7l.2,19.4c0,.9.1,1.8,0,2.7h0c0,.1-.1.2-.2.2h-4.5c-.1,0-.2-.1-.3-.2-.1-.5-.1-1.1-.2-1.6-.1-1.2-.3-2.5-.4-3.7-.2-1.3-.3-2.7-.5-4l-.3-2.6v-.2h0c0-.2-.1-.3-.1-.3-.2-.4-.4-.8-.3-1.3,0-.1,0-.3.1-.4,0-.1.1-.1.1-.2,0,0,0-.1.1-.1h0c-.1-.3-.1-.7-.1-1-.1-.6-.1-1.2-.2-1.8l-.4-3.7-.2-1.4-.4-3.7c-.1-1-.2-2.1-.3-3.1v-.2c-.3-.3-.2-.4,0-.4Z"/>
        <path class="cls-3" d="M148.4,409.6h0Z"/>
        <path class="cls-17" d="M135.9,371l2.9-2.7v-1.3l6,1.3v2.7s4.6,8,3.1,12c-.8,2.4-1.2,6.1-1.3,8.8,0,.3-.4.6-.4.8s1,.7,1,.9c0,1.2-.7,1.6-.7,1.6l-13.4,1.4c.1-1-.2-1.2-.2-2.2s.8-1.3.8-1.6-.5-.6-.5-.9v-.6c-.1-3.3-.7-6.4-1.8-9.4l4.5-10.8Z"/>
        <path class="cls-17" d="M133.3,394l.2-10.2,6-9.9c.6-1,.2-2.3-1-2.9s-2.6-.2-3.2.9l-6.4,10.6h0l.4,6.1.5,2.4-.3.7.2,2.2h3.6Z"/>
        <path class="cls-17" d="M157.2,392.6l3.6-2.2-8.9-6.9-4.8-10.4c-.5-1.1-1.9-1.6-3.1-1.2-.1.1-.3.1-.4.2h0c-1,.6-1.3,1.7-.9,2.6l5.1,11.1,2.4,1.3.9,1.1h.8l.3.8,1.4.5,3.6,3.1Z"/>
        <polygon class="cls-10" points="163 389.3 163 389.3 163 389.3 163 389.3"/>
      </g>
      <path class="cls-24" d="M718.9,489.8H59.9c-.3,0-.6-.8-.6-1.8s.3-1.8.6-1.8h659c.3,0,.6.8.6,1.8s-.3,1.8-.6,1.8Z"/>
      <path class="cls-24" d="M146.4,458.7h-77.8c-.5,0-.8-.4-.8-.9s.4-.9.8-.9h77.8c.5,0,.8.4.8.9s-.3.9-.8.9Z"/>
      <path class="cls-14" d="M717.9,578.4L19.1,491.7V95L717.9,8.2v570.2ZM23.9,488.1l689.2,85.6V13L23.9,98.6v389.5Z"/>
      <path id="af4baad4-c88d-44ba-bf25-f9ac1002d243-290" class="cls-6" d="M25.1,98.1L710.3,13v558.1L25.1,486V98.1h0Z"/>
      <g>
        <path class="cls-12" d="M445,661.2c3.7-28.9,21.9-57.4,50-66.8-11.1,29.8-11.1,62.4,0,92.2,4.3,11.5,10.3,23.8,6.3,35.3-2.5,7.2-8.7,12.7-15.6,16.1-6.9,3.4-14.6,5.1-22.2,6.7l-1.5,1.2c-12-26.6-20.7-55.8-17-84.7Z"/>
        <path class="cls-10" d="M495.3,594.9c-16.4,18-26.5,40.6-29.1,64.6-.6,5.2-.4,10.4.6,15.5,1.2,4.9,3.6,9.5,7.2,13.1,3.2,3.5,7,6.7,9.3,10.9,2.3,4.4,2.6,9.5.9,14.2-2,5.8-6.1,10.5-10.2,14.9-4.6,4.9-9.4,10-11.3,16.6-.2.8-1.5.4-1.2-.4,3.4-11.4,14.7-17.9,20-28.2,2.5-4.8,3.6-10.4,1.2-15.4-2.1-4.4-5.9-7.7-9.2-11.2-3.5-3.5-6.1-7.9-7.5-12.6-1.3-5-1.7-10.2-1.2-15.4.9-11.6,3.7-23.1,8.3-33.8,5.1-12.3,12.4-23.7,21.4-33.7.5-.7,1.3.3.8.9h0Z"/>
        <path class="cls-10" d="M466.6,651.7c-8.4-2-14-9.6-13.4-18,.1-.8,1.4-.8,1.3,0-.6,7.8,4.7,14.9,12.5,16.8.8.1.4,1.3-.4,1.1h0Z"/>
        <path class="cls-10" d="M472.1,686.6c7.3-4.3,12.7-11.1,15.1-19.1.2-.8,1.5-.4,1.2.4-2.5,8.3-8.1,15.4-15.8,19.9-.6.4-1.2-.8-.5-1.2h0Z"/>
        <path class="cls-10" d="M479.4,616.5c3,1.4,6.6,1.2,9.4-.5.7-.4,1.3.7.6,1.1-3.2,1.9-7.1,2.1-10.4.5-.3,0-.5-.5-.4-.8,0-.2.4-.4.8-.3h0Z"/>
        <path class="cls-12" d="M580.7,646c-.4.3-.9.6-1.3.9-5.9,3.8-11.5,8.1-16.7,12.8-.4.4-.8.7-1.2,1.1-12.4,11.5-22.6,25.1-29.9,40.2-2.9,6-5.4,12.2-7.3,18.6-2.7,8.8-4.9,18.6-10.3,25.8-.6.8-1.1,1.5-1.8,2.2h-48.4c-.1,0-.2,0-.3-.2h-1.9c.1-.2.2-.6.2-.9s.1-.4.1-.6.1-.3.1-.4h0c0-.2.1-.3.1-.4.5-1.9,1-3.9,1.5-5.8h0c4-14.8,9.2-29.4,16.6-42.7.2-.4.4-.8.7-1.2,3.3-6,7.2-11.7,11.5-17.1,2.4-2.9,4.9-5.8,7.5-8.4,6.9-6.9,14.8-12.8,23.5-17.3,17.4-9,37.5-12.4,56-6.9.3,0,.8.2,1.3.3Z"/>
        <path class="cls-10" d="M580.6,646.6c-24.1,4.7-46.1,16.7-62.8,34.4-3.7,3.7-6.7,8-9,12.7-2.1,4.6-2.9,9.7-2.3,14.7.4,4.7,1.5,9.5.7,14.2-.8,4.9-3.7,9.2-8,11.8-5.2,3.4-11.3,4.8-17.3,5.9-6.7,1.3-13.6,2.5-19.2,6.5-.7.5-1.4-.6-.7-1.1,9.7-7.1,22.7-5.6,33.3-10.6,4.9-2.3,9.2-6.2,10.4-11.6,1.1-4.8,0-9.7-.5-14.4-.6-4.9,0-9.9,1.7-14.5,2.1-4.8,4.9-9.2,8.5-13,7.9-8.7,17.1-16.2,27.4-22.1,11.7-6.8,24.4-11.6,37.7-14.2.8-.1.9,1.2,0,1.3h0Z"/>
        <path class="cls-10" d="M522.8,675c-5.4-6.5-5.3-16,.4-22.3.6-.6,1.6.2,1,.8-5.3,5.9-5.4,14.7-.3,20.7.5.7-.6,1.5-1.1.8h0Z"/>
        <path class="cls-10" d="M505.8,706.1c8.5.9,17-1.4,23.8-6.3.7-.5,1.4.6.7,1.1-7.1,5.2-16,7.5-24.8,6.5-.8,0-.5-1.4.3-1.3Z"/>
        <path class="cls-10" d="M554.6,654.5c1.5,2.9,4.5,4.9,7.8,5.2.8,0,.6,1.3-.2,1.3-3.7-.4-6.9-2.5-8.6-5.7-.2-.3,0-.7.2-.9.2-.3.6-.2.8.1h0Z"/>
        <polygon class="cls-11" points="386.3 732 399.1 727.8 388.5 677.2 369.6 683.5 386.3 732"/>
        <path class="cls-3" d="M381.6,729l3.6-1.2,12.2-10.3,9.5,3.1h0c8.9-2.9,18.5,1.8,21.5,10.5l.2.5-41.4,13.7-5.6-16.3Z"/>
        <polygon class="cls-11" points="324 723.7 337.2 726.8 355.5 678.3 336 673.8 324 723.7"/>
        <path class="cls-3" d="M321.6,718.7l3.7.9,15.9-2.4,6.4,7.6h0c9.1,2.1,14.8,11.1,12.6,20.1v.5c-.1,0-42.6-9.9-42.6-9.9l4-16.8Z"/>
        <rect class="cls-1" x="211.8" y="678.8" width="23.2" height="37.8"/>
        <polygon class="cls-1" points="230.9 703.2 233.9 698.8 289.6 736 286.7 740.3 230.9 703.2"/>
        <polygon class="cls-1" points="157.1 736 212.9 698.8 215.9 703.2 160.1 740.3 157.1 736"/>
        <ellipse class="cls-1" cx="288.2" cy="738.2" rx="7.3" ry="7.2"/>
        <ellipse class="cls-1" cx="223.1" cy="738.2" rx="7.3" ry="7.2"/>
        <ellipse class="cls-1" cx="158.6" cy="738.2" rx="7.3" ry="7.2"/>
        <rect class="cls-1" x="220.4" y="701" width="5.3" height="37.2"/>
        <rect class="cls-1" x="218.4" y="645.6" width="10" height="50.2"/>
        <path class="cls-14" d="M172.7,653.4v-11.7c0-4.5,3.7-8.1,8.3-8.1h77.6c4.6,0,8.3,3.7,8.3,8.1v11.7c0,4.5-3.7,8.1-8.3,8.1h-77.6c-4.5,0-8.3-3.6-8.3-8.1Z"/>
        <path class="cls-14" d="M117.2,627.4l-50.1-84.6c-3.4-5.7-1.4-13.1,4.4-16.4l2.9-1.7c5.9-3.3,13.3-1.4,16.8,4.3l50.1,84.6c3.4,5.7,1.4,13.1-4.4,16.4l-2.9,1.7c-5.9,3.4-13.4,1.4-16.8-4.3Z"/>
        <path class="cls-14" d="M173.1,653c-22.6,0-40.8-18-40.9-40.1h4.4c0,19.8,16.3,35.8,36.5,35.8s14.8-2.3,21-6.5l2.5,3.5c-6.9,4.8-15.1,7.3-23.5,7.3Z"/>
        <path class="cls-3" d="M219.5,592.3s123.7-36.9,142.5,8.7,36.5,97.6,36.5,97.6l-24.3,7.6-47.5-78.1s-114.5,28.2-138.4-4.9l31.2-30.9Z"/>
        <path class="cls-21" d="M130,500.2l-28.7-2.2-5.5,34.7s35.3,90,96.1,98.6l57.4-51-63.6-23.3-55.7-56.8Z"/>
        <ellipse class="cls-16" cx="88" cy="463.3" rx="37.6" ry="36.9"/>
        <path class="cls-3" d="M98.4,501.4c-1.7,1.4-4.3,2.2-7.9,2.3-21.6.7-41-12.9-47.4-33.2-1.6-5-2.9-12.4-.3-19.5,1.8-5.1,5.5-9.4,8.7-13,2.8-3.1,5.8-6.2,8.7-9.1,3.6-3.5,7.8-7.3,13.2-9.1,3.9-1.3,8.1-1.4,12.1-1.6,1.4,0,2.9-.1,4.3-.2,3.5-.1,7-1,10.2-2.5,1.3-.7,2.9-.8,4.3-.3s2.5,1.6,3.1,3c.5,1.4,1,2.6,2.5,3,1.1.3,2.4,0,3.3-.7.5-.4,1.1-.5,1.7-.4.6.2,1.1.6,1.3,1.2v.4c.8-.4,1.6-.5,2.3-.3,1.1.4,1.8,1.5,1.6,2.6-.5,4.5-2.3,8.8-5.2,12.3-2,2.4-4.4,4.4-7.2,5.9l-.4.2-.3-.5c-12.5,4.5-16.3,17.4-15.7,27.9h-1.1c-.2-.6-.6-1.2-1.3-1.6-.7-.5-1.6-.6-2.5-.4-1.6.5-2.8,1.9-2.9,3.6s.5,3.4,1.7,4.6c1.3,1.3,2.8,2.3,4.5,3.1.7.4,1.5.8,2.3,1.3,4.2,2.7,7.2,6.8,8.4,11.5.6,2.2.9,5.2-.8,7.7-.3,1-.7,1.4-1.2,1.8Z"/>
        <path class="cls-3" d="M366.8,614.9c-5.8,48.8-18.1,94.4-18.1,94.4l-23.2-3.3,5.3-92"/>
        <path class="cls-14" d="M116.2,469.2c-2.3,0-4.3-1.5-5-3.6-15.1-7.7-7.1-13.1-6.1-19.3-.8-2.7.7-5.5,3.4-6.4h0l15.4-4.7c2.7-.8,5.6.7,6.5,3.4l6.1,19.3c.8,2.7-.7,5.5-3.4,6.4l-15.4,4.7c-.4.1-.9.2-1.5.2Z"/>
        <path class="cls-21" d="M126.3,434.6c2.3,0,4.3,1.5,5,3.6l6.4,19.7c.4,1.3.3,2.8-.3,4s-1.7,2.2-3,2.6l-3.5,1.1-9.6-29.7,3.5-1.1c.5-.1,1-.2,1.5-.2Z"/>
        <path class="cls-14" d="M46.7,480.1c-1.5,0-2.8-.9-3.2-2.3l-1.6-5.1c-.5-1.7.4-3.6,2.2-4.1h0l69.6-21.1c1.8-.5,3.7.4,4.2,2.2h0l1.6,5.1c.5,1.7-.4,3.6-2.2,4.1l-69.6,21.1c-.4.1-.7.1-1,.1Z"/>
        <path class="cls-22" d="M257.8,623h-10.4c-2.8,0-5-2.1-5.2-4.8l-1.8-30.7c-.2-2.8,2-5.2,4.9-5.4h14.2c2.9,0,5.2,2.3,5.2,5.1v.3l-1.8,30.7c-.1,2.7-2.4,4.8-5.1,4.8Z"/>
        <polygon class="cls-1" points="264.3 589.3 264.2 591.5 241 591.5 240.8 589.3 264.3 589.3"/>
        <polygon class="cls-1" points="264.1 594.4 263.9 596.6 241.3 596.6 241.1 594.4 264.1 594.4"/>
        <polygon class="cls-1" points="263.8 599.5 263.6 601.7 241.6 601.7 241.4 599.5 263.8 599.5"/>
        <polygon class="cls-1" points="263.5 604.6 263.3 606.9 241.9 606.9 241.7 604.6 263.5 604.6"/>
        <polygon class="cls-1" points="263.2 609.7 263 612 242.1 612 242 609.7 263.2 609.7"/>
        <polygon class="cls-1" points="262.9 614.8 262.8 617.1 242.4 617.1 242.3 614.8 262.9 614.8"/>
        <ellipse class="cls-1" cx="252.9" cy="583.3" rx="3.8" ry=".9"/>
        <path class="cls-1" d="M253.2,584.1c-.5,0-.9-.4-.9-.9h0v-16h-5.5c-.5,0-.9-.4-.9-.9s.4-.9.9-.9h6.4c.5,0,.9.4.9.9h0v17c0,.5-.5.8-.9.8h0Z"/>
        <path class="cls-11" d="M250.2,598.1c-4.7-3.8-11.7-3.1-15.6,1.5-.4.5-.8,1-1.1,1.6l-38.9-6.8,8.1,18.5,35.7,3.6c5.6,2.6,12.2.3,14.9-5.2,2.2-4.5.9-10-3.1-13.2h0Z"/>
        <path class="cls-21" d="M224.9,616.7l-71.2-5.5v-.3c-.4-.5-27.4-50.7-31.3-62.2-2.5-6.9-2.5-14.5,0-21.4v-.2c0,0,.3,0,.3,0,6.8-3.8,15.3-2.5,20.6,3.2,12.2,13.3,21.2,29.2,26.1,46.5l2.8,9.8,51,11.2,1.6,19Z"/>
        <path class="cls-1" d="M651.4,750H87.8c-.7,0-1.3-.6-1.3-1.3s.6-1.3,1.3-1.3h563.7c.7,0,1.3.6,1.3,1.3,0,.7-.6,1.3-1.4,1.3Z"/>
        <path class="cls-14" d="M123.7,448.2c-1.2,0-2.2-.7-2.6-1.8l-1.4-4.1c-.5-1.4.3-3,1.7-3.4,1.4-.5,3,.3,3.5,1.7h0l1.4,4.1c.5,1.4-.3,3-1.7,3.4h0c-.3,0-.6,0-.9,0Z"/>
        <path class="cls-14" d="M126.9,459.1c-1.2,0-2.3-.8-2.7-2l-1.2-4.2c-.4-1.4.4-2.9,1.9-3.3s3,.4,3.4,1.9l1.2,4.2c.4,1.4-.4,2.9-1.9,3.3h0c-.2,0-.4.1-.7.1Z"/>
      </g>
    </g>
  </g>
</svg>