<?xml version="1.0" encoding="utf-8"?>
<!-- Generator: Adobe Illustrator 25.3.1, SVG Export Plug-In . SVG Version: 6.00 Build 0)  -->
<svg version="1.1" id="d8951433-2714-4e95-856e-ed301a2a6756"
	 xmlns="http://www.w3.org/2000/svg" xmlns:xlink="http://www.w3.org/1999/xlink" x="0px" y="0px" viewBox="0 0 770 770.1"
	 style="enable-background:new 0 0 770 770.1;" xml:space="preserve">
<style type="text/css">
	.st0{opacity:0.1;enable-background:new    ;}
	.st1{fill:#F2F2F2;}
	.st2{opacity:3.000000e-02;enable-background:new    ;}
	.st3{fill:none;stroke:#536DFE;stroke-width:2;stroke-miterlimit:10;}
	.st4{fill:#DE1F26;}
	.st5{fill:#3F3D56;}
	.st6{fill:#536DFE;}
	.st7{opacity:0.1;fill:#FFFFFF;enable-background:new    ;}
	.st8{fill:#DD4126;}
</style>
<path class="st0" d="M751.6,264.8l-3.5,1.2l-0.2-1.7C748,264.3,747.8,265.2,751.6,264.8z"/>
<path class="st1" d="M503.9,146l-9.1,5.8l5.5-10.2c-1.6-1.3-3.5-2-5.5-2h-0.1c-0.6,0-1.3,0-1.9-0.1l-3.1,2l1.3-2.4
	c-2.2-0.8-4.1-2.2-5.4-4.2l-5.5,3.6l3.5-6.4c-3.2-3.9-7.6-6.3-12.4-6.3c-5.7,0-10.8,3.5-14.1,8.9c-2,3.3-5.6,5.2-9.4,5.1h-0.3
	c-6.3,0-11.5,7.3-11.5,16.3s5.1,16.3,11.5,16.3c1.4,0,2.8-0.4,4-1c4.4-2.1,9.4-2.2,13.9-0.3c3.8,1.7,8,1.7,11.8,0
	c4.4-1.9,9.4-1.8,13.8,0.3c1.2,0.6,2.6,1,4,1c6.3,0,11.5-7.3,11.5-16.3C506.3,152.5,505.5,149.1,503.9,146z"/>
<path class="st2" d="M486.7,169.8c-3.3-0.6-6.7-0.3-9.8,1.1c-3.8,1.7-8,1.7-11.8,0c-4.4-2-9.5-1.9-13.9,0.3c-1.2,0.7-2.6,1-4,1
	c-5.6,0-10.3-5.8-11.3-13.3c1.1-0.8,2.1-1.9,2.8-3.1c3.3-5.4,8.4-8.8,14.1-8.8s10.8,3.4,14.1,8.7c2,3.3,5.6,5.3,9.4,5.2h0.1
	C481,160.9,484.8,164.5,486.7,169.8z"/>
<path class="st1" d="M178.8,129.7l-9.1,5.8l5.5-10.2c-1.6-1.3-3.5-2-5.5-2h-0.1c-0.6,0-1.3,0-1.9-0.1l-3.1,2l1.3-2.4
	c-2.2-0.8-4.1-2.2-5.4-4.2l-5.5,3.6l3.5-6.4c-3.2-3.9-7.6-6.3-12.4-6.3c-5.7,0-10.8,3.5-14.1,8.9c-2,3.3-5.6,5.2-9.4,5.1h-0.3
	c-6.3,0-11.5,7.3-11.5,16.3S116,156,122.4,156c1.4,0,2.8-0.4,4-1c4.4-2.1,9.4-2.2,13.9-0.3c3.8,1.7,8,1.7,11.8,0
	c4.4-1.9,9.4-1.8,13.8,0.3c1.2,0.6,2.6,1,4,1c6.3,0,11.5-7.3,11.5-16.3C181.3,136.2,180.4,132.8,178.8,129.7z"/>
<path class="st2" d="M161.7,153.5c-3.3-0.6-6.7-0.3-9.8,1.1c-3.8,1.7-8,1.7-11.8,0c-4.4-2-9.5-1.9-13.9,0.3c-1.2,0.7-2.6,1-4,1
	c-5.6,0-10.3-5.8-11.3-13.3c1.1-0.8,2.1-1.9,2.8-3.1c3.3-5.4,8.4-8.8,14.1-8.8s10.8,3.4,14.1,8.7c2,3.3,5.6,5.3,9.4,5.2h0.1
	C155.9,144.6,159.8,148.2,161.7,153.5z"/>
<polygon class="st3" points="179.5,242.2 359.8,404.5 627.6,235.3 "/>
<path class="st3" d="M663.1,287"/>
<path class="st4" d="M530.2,500c-0.5,0.4-1.1,0.6-1.8,0.7c-41.6,4.3-69.7,25.1-85.7,63.8c-0.8,1.9-2.9,2.7-4.8,2
	c-1.9-0.8-2.7-2.9-2-4.8c16.9-40.8,47.8-63.7,91.7-68.3c2-0.2,3.8,1.3,4,3.3C531.8,498,531.2,499.2,530.2,500L530.2,500z"/>
<path class="st4" d="M537,532.6c-0.5,0.4-1.1,0.6-1.8,0.7c-31.2,3.2-52.2,18.9-64.3,47.8c-0.8,1.9-2.9,2.7-4.8,2
	c-1.9-0.8-2.7-2.9-2-4.8c13-31.2,36.6-48.8,70.3-52.3c2-0.2,3.8,1.3,4,3.3C538.6,530.6,538.1,531.8,537,532.6L537,532.6z"/>
<path class="st4" d="M518.7,466.2c-0.5,0.4-1.1,0.6-1.8,0.7c-41.6,4.3-90.2,40.5-106.2,79c-0.8,1.9-2.9,2.7-4.8,2
	c-1.9-0.8-2.7-2.9-2-4.8l0,0c16.9-40.7,68.3-79,112.2-83.5c2-0.2,3.8,1.3,4,3.3C520.3,464.2,519.7,465.4,518.7,466.2L518.7,466.2z"
	/>
<path class="st1" d="M156.5,275.5l-4.1,2.6l2.5-4.5c-0.7-0.6-1.6-0.9-2.5-0.9h-0.1c-0.3,0-0.6,0-0.9-0.1l-1.4,0.9l0.6-1.1
	c-1-0.3-1.8-1-2.4-1.8l-2.5,1.6l1.6-2.9c-1.5-1.7-3.4-2.8-5.6-2.8c-2.6,0-4.9,1.5-6.4,3.9c-0.9,1.5-2.5,2.3-4.2,2.3H131
	c-2.9,0-5.2,3.2-5.2,7.2s2.3,7.2,5.2,7.2c0.6,0,1.2-0.2,1.8-0.5c2-1,4.3-1,6.3-0.1c1.7,0.8,3.6,0.8,5.3,0c2-0.9,4.3-0.8,6.2,0.1
	c0.6,0.3,1.2,0.4,1.8,0.4c2.9,0,5.2-3.2,5.2-7.2C157.6,278.3,157.2,276.8,156.5,275.5z"/>
<path class="st2" d="M148.7,286c-1.5-0.3-3-0.1-4.4,0.5c-1.7,0.8-3.6,0.8-5.3,0c-2-0.9-4.3-0.8-6.3,0.1c-0.6,0.3-1.2,0.4-1.8,0.5
	c-2.5,0-4.7-2.5-5.1-5.9c0.5-0.4,0.9-0.8,1.3-1.4c1.5-2.4,3.8-3.9,6.4-3.9s4.9,1.5,6.4,3.9c0.9,1.5,2.5,2.3,4.2,2.3h0.1
	C146.1,282,147.9,283.7,148.7,286z"/>
<path class="st1" d="M692.1,265.3l-4.1,2.6l2.5-4.5c-0.7-0.6-1.6-0.9-2.5-0.9l0,0c-0.3,0-0.6,0-0.9-0.1l-1.4,0.9l0.6-1.1
	c-1-0.3-1.8-1-2.4-1.8l-2.5,1.6l1.6-2.9c-1.5-1.7-3.4-2.8-5.6-2.8c-2.6,0-4.9,1.5-6.4,3.9c-0.9,1.5-2.5,2.3-4.2,2.3h-0.1
	c-2.9,0-5.2,3.2-5.2,7.2s2.3,7.2,5.2,7.2c0.6,0,1.2-0.2,1.8-0.5c2-1,4.3-1,6.3-0.1c1.7,0.8,3.6,0.8,5.3,0c2-0.9,4.3-0.8,6.2,0.1
	c0.6,0.3,1.2,0.4,1.8,0.4c2.9,0,5.2-3.2,5.2-7.2C693.2,268.1,692.8,266.6,692.1,265.3z"/>
<path class="st2" d="M684.4,275.8c-1.5-0.3-3-0.1-4.4,0.5c-1.7,0.8-3.6,0.8-5.3,0c-2-0.9-4.3-0.8-6.3,0.1c-0.6,0.3-1.2,0.4-1.8,0.5
	c-2.5,0-4.7-2.5-5.1-5.9c0.5-0.4,0.9-0.8,1.3-1.4c1.5-2.4,3.8-3.9,6.4-3.9c2.6,0,4.9,1.5,6.4,3.9c0.9,1.5,2.5,2.3,4.2,2.3h0.1
	C681.8,271.8,683.5,273.5,684.4,275.8z"/>
<path class="st1" d="M281.5,474.7l-4.1,2.6l2.5-4.5c-0.7-0.6-1.6-0.9-2.5-0.9h-0.1c-0.3,0-0.6,0-0.9-0.1l-1.4,0.9l0.6-1.1
	c-1-0.3-1.8-1-2.4-1.8l-2.5,1.6l1.6-2.9c-1.5-1.7-3.4-2.8-5.6-2.8c-2.6,0-4.9,1.5-6.4,3.9c-0.9,1.5-2.5,2.3-4.2,2.3H256
	c-2.9,0-5.2,3.2-5.2,7.2s2.3,7.2,5.2,7.2c0.6,0,1.2-0.2,1.8-0.5c2-1,4.3-1,6.3-0.1c1.7,0.8,3.6,0.8,5.3,0c2-0.9,4.3-0.8,6.2,0.1
	c0.6,0.3,1.2,0.4,1.8,0.4c2.9,0,5.2-3.2,5.2-7.2C282.5,477.6,282.2,476.1,281.5,474.7z"/>
<path class="st2" d="M273.7,485.3c-1.5-0.3-3-0.1-4.4,0.5c-1.7,0.8-3.6,0.8-5.3,0c-2-0.9-4.3-0.8-6.3,0.1c-0.6,0.3-1.2,0.4-1.8,0.5
	c-2.5,0-4.7-2.5-5.1-5.9c0.5-0.4,0.9-0.8,1.3-1.4c1.5-2.4,3.8-3.9,6.4-3.9c2.6,0,4.9,1.5,6.4,3.9c0.9,1.5,2.5,2.3,4.2,2.3h0.1
	C271.1,481.3,272.9,482.9,273.7,485.3z"/>
<path class="st1" d="M311,338.8l-2.1,1.3l1.2-2.2c-0.4-0.3-0.8-0.4-1.2-0.4l0,0c-0.1,0-0.3,0-0.4,0l-0.7,0.4l0.3-0.5
	c-0.5-0.2-0.9-0.5-1.2-0.9l-1.2,0.8l0.8-1.4c-0.7-0.9-1.7-1.4-2.8-1.4c-1.3,0-2.4,0.8-3.2,2c-0.4,0.7-1.3,1.2-2.1,1.1h-0.1
	c-1.4,0-2.6,1.6-2.6,3.6s1.2,3.6,2.6,3.6c0.3,0,0.6-0.1,0.9-0.2c1-0.5,2.1-0.5,3.1-0.1c0.8,0.4,1.8,0.4,2.6,0c1-0.4,2.1-0.4,3.1,0.1
	c0.3,0.1,0.6,0.2,0.9,0.2c1.4,0,2.6-1.6,2.6-3.6C311.5,340.2,311.3,339.5,311,338.8z"/>
<path class="st2" d="M307.1,344.1c-0.7-0.1-1.5-0.1-2.2,0.2c-0.4,0.2-0.9,0.3-1.3,0.3c-0.5,0-0.9-0.1-1.3-0.3
	c-1-0.4-2.1-0.4-3.1,0.1c-0.3,0.1-0.6,0.2-0.9,0.2c-1.3,0-2.3-1.3-2.5-2.9c0.3-0.2,0.5-0.4,0.6-0.7c0.7-1.2,1.9-2,3.2-2
	c1.3,0,2.4,0.8,3.2,1.9c0.5,0.7,1.3,1.2,2.1,1.2l0,0C305.8,342.1,306.7,342.9,307.1,344.1z"/>
<path class="st1" d="M704.8,298.3l-2.1,1.3l1.2-2.2c-0.4-0.3-0.8-0.4-1.2-0.4l0,0c-0.1,0-0.3,0-0.4,0l-0.7,0.4l0.3-0.5
	c-0.5-0.2-0.9-0.5-1.2-0.9l-1.2,0.8l0.8-1.4c-0.7-0.9-1.7-1.4-2.8-1.4c-1.3,0-2.4,0.8-3.2,2c-0.4,0.7-1.3,1.2-2.1,1.1h-0.1
	c-1.4,0-2.6,1.6-2.6,3.6s1.2,3.6,2.6,3.6c0.3,0,0.6-0.1,0.9-0.2c1-0.5,2.1-0.5,3.1-0.1c0.8,0.4,1.8,0.4,2.6,0c1-0.4,2.1-0.4,3.1,0.1
	c0.3,0.1,0.6,0.2,0.9,0.2c1.4,0,2.6-1.6,2.6-3.6C705.4,299.8,705.2,299,704.8,298.3z"/>
<path class="st2" d="M701,303.6c-0.7-0.1-1.5-0.1-2.2,0.2c-0.4,0.2-0.9,0.3-1.3,0.3c-0.5,0-0.9-0.1-1.3-0.3c-1-0.4-2.1-0.4-3.1,0.1
	c-0.3,0.1-0.6,0.2-0.9,0.2c-1.3,0-2.3-1.3-2.5-2.9c0.3-0.2,0.5-0.4,0.6-0.7c0.7-1.2,1.9-2,3.2-2s2.4,0.8,3.2,1.9
	c0.5,0.7,1.3,1.2,2.1,1.2l0,0C699.7,301.6,700.5,302.4,701,303.6z"/>
<path class="st1" d="M94.7,312l-2.1,1.3l1.2-2.2c-0.4-0.3-0.8-0.4-1.2-0.4l0,0c-0.1,0-0.3,0-0.4,0l-0.7,0.4l0.3-0.5
	c-0.5-0.2-0.9-0.5-1.2-0.9l-1.2,0.8l0.8-1.4c-0.7-0.9-1.7-1.4-2.8-1.4c-1.3,0-2.4,0.8-3.2,2c-0.4,0.7-1.3,1.2-2.1,1.1H82
	c-1.4,0-2.6,1.6-2.6,3.6s1.2,3.6,2.6,3.6c0.3,0,0.6-0.1,0.9-0.2c1-0.5,2.1-0.5,3.1-0.1c0.8,0.4,1.8,0.4,2.6,0c1-0.4,2.1-0.4,3.1,0.1
	c0.3,0.1,0.6,0.2,0.9,0.2c1.4,0,2.6-1.6,2.6-3.6C95.3,313.4,95.1,312.7,94.7,312z"/>
<path class="st2" d="M90.9,317.2c-0.7-0.1-1.5-0.1-2.2,0.2c-0.4,0.2-0.9,0.3-1.3,0.3c-0.5,0-0.9-0.1-1.3-0.3c-1-0.4-2.1-0.4-3.1,0.1
	c-0.3,0.1-0.6,0.2-0.9,0.2c-1.3,0-2.3-1.3-2.5-2.9c0.3-0.2,0.5-0.4,0.6-0.7c0.7-1.2,1.9-2,3.2-2s2.4,0.8,3.2,1.9
	c0.5,0.7,1.3,1.2,2.1,1.2l0,0C89.6,315.3,90.4,316.1,90.9,317.2z"/>
<path class="st1" d="M397.9,312l-4.1,2.6l2.5-4.5c-0.7-0.6-1.6-0.9-2.5-0.9h-0.1c-0.3,0-0.6,0-0.9-0.1l-1.4,0.9l0.6-1.1
	c-1-0.3-1.8-1-2.4-1.8l-2.5,1.6l1.6-2.9c-1.5-1.7-3.4-2.8-5.6-2.8c-2.6,0-4.9,1.5-6.4,3.9c-0.9,1.5-2.5,2.3-4.2,2.3h-0.1
	c-2.9,0-5.2,3.2-5.2,7.2s2.3,7.2,5.2,7.2c0.6,0,1.2-0.2,1.8-0.5c2-1,4.3-1,6.3-0.1c1.7,0.8,3.6,0.8,5.3,0c2-0.9,4.3-0.8,6.2,0.1
	c0.6,0.3,1.2,0.4,1.8,0.4c2.9,0,5.2-3.2,5.2-7.2C399,314.9,398.6,313.4,397.9,312z"/>
<path class="st2" d="M390.1,322.6c-1.5-0.3-3-0.1-4.4,0.5c-1.7,0.8-3.6,0.8-5.3,0c-2-0.9-4.3-0.8-6.3,0.1c-0.6,0.3-1.2,0.4-1.8,0.5
	c-2.5,0-4.7-2.5-5.1-5.9c0.5-0.4,0.9-0.8,1.3-1.4c1.5-2.4,3.8-3.9,6.4-3.9s4.9,1.5,6.4,3.9c0.9,1.5,2.5,2.3,4.2,2.3h0.1
	C387.5,318.6,389.3,320.2,390.1,322.6z"/>
<path class="st1" d="M538.3,357.2l-2.1,1.3l1.2-2.2c-0.4-0.3-0.8-0.4-1.2-0.4l0,0c-0.1,0-0.3,0-0.4,0l-0.7,0.4l0.3-0.5
	c-0.5-0.2-0.9-0.5-1.2-0.9l-1.2,0.8l0.8-1.4c-0.7-0.9-1.7-1.4-2.8-1.4c-1.3,0-2.4,0.8-3.2,2c-0.4,0.7-1.3,1.2-2.1,1.1h-0.1
	c-1.4,0-2.6,1.6-2.6,3.6s1.2,3.6,2.6,3.6c0.3,0,0.6-0.1,0.9-0.2c1-0.5,2.1-0.5,3.1-0.1c0.8,0.4,1.8,0.4,2.6,0c1-0.4,2.1-0.4,3.1,0.1
	c0.3,0.1,0.6,0.2,0.9,0.2c1.4,0,2.6-1.6,2.6-3.6C538.8,358.7,538.7,357.9,538.3,357.2z"/>
<path class="st2" d="M534.4,362.5c-0.7-0.1-1.5-0.1-2.2,0.2c-0.4,0.2-0.9,0.3-1.3,0.3c-0.5,0-0.9-0.1-1.3-0.3
	c-1-0.4-2.1-0.4-3.1,0.1c-0.3,0.1-0.6,0.2-0.9,0.2c-1.3,0-2.3-1.3-2.5-2.9c0.3-0.2,0.5-0.4,0.6-0.7c0.7-1.2,1.9-2,3.2-2
	s2.4,0.8,3.2,1.9c0.5,0.7,1.2,1.2,2.1,1.2l0,0C533.1,360.5,534,361.3,534.4,362.5z"/>
<path class="st1" d="M146.2,421.3l-9.1,5.8l5.5-10.2c-1.6-1.3-3.5-2-5.5-2H137c-0.6,0-1.3,0-1.9-0.1l-3.1,2l1.3-2.4
	c-2.2-0.8-4.1-2.2-5.4-4.2l-5.5,3.6l3.5-6.4c-3.2-3.9-7.6-6.3-12.4-6.3c-5.7,0-10.8,3.5-14.1,8.9c-2,3.3-5.6,5.2-9.4,5.1h-0.3
	c-6.3,0-11.5,7.3-11.5,16.3s5.1,16.3,11.5,16.3c1.4,0,2.8-0.4,4-1c4.4-2.1,9.4-2.2,13.9-0.3c3.8,1.7,8,1.7,11.8,0
	c4.4-1.9,9.4-1.8,13.8,0.3c1.2,0.6,2.6,1,4,1c6.3,0,11.5-7.3,11.5-16.3C148.6,427.8,147.8,424.4,146.2,421.3z"/>
<path class="st2" d="M129,445.1c-3.3-0.6-6.7-0.3-9.8,1.1c-3.8,1.7-8,1.7-11.8,0c-4.4-2-9.5-1.9-13.9,0.3c-1.2,0.7-2.6,1-4,1
	c-5.6,0-10.3-5.8-11.3-13.3c1.1-0.8,2.1-1.9,2.8-3.1c3.3-5.4,8.4-8.8,14.1-8.8s10.8,3.4,14.1,8.7c2,3.3,5.6,5.3,9.4,5.2h0.1
	C123.3,436.1,127.1,439.8,129,445.1z"/>
<path class="st5" d="M712.4,225.1c-1.9,1.3-5.5,2.8-9.6,4.2c-11.3,3.9-27.1,7.7-27.1,7.7s-80.2,24.1-147.2,7.8c0,0-10-3.5-3.1-12.3
	c1.1-1.3,2.2-2.5,3.5-3.6l0.1-0.1c0.7-1.2,1.6-2.3,2.5-3.3c2.7-3,7.5-6.8,14.3-6.9l166.8-2.8C712.6,215.8,719.6,220.3,712.4,225.1z"
	/>
<path class="st5" d="M677.7,218.2l28.2-33.9l15.4-0.1l-8.8,31.6C712.6,215.8,679,222.9,677.7,218.2z"/>
<polygon class="st5" points="589.6,218.8 652.4,183.9 663.7,184.3 636.5,205.9 629.5,219.8 "/>
<path class="st6" d="M702.8,229.3c-11.3,3.9-27.1,7.7-27.1,7.7s-80.2,24.1-147.2,7.8c0,0-10-3.5-3.1-12.3l0.1,0.1
	c0,0,15.3,7.5,80.1,3.2L702.8,229.3z"/>
<path class="st5" d="M691.9,230.9l32.8,7.9l7.3-2.5l-21-11.7C711,224.6,688.3,223.7,691.9,230.9z"/>
<path class="st6" d="M536.7,232c-1.4,0.3-5.3-1.7-7.7-3.2c0.7-1.2,1.6-2.3,2.5-3.3c1.9,1.1,5.3,2.8,6.9,2.4
	C540.8,227.4,538.8,231.5,536.7,232z"/>
<path class="st5" d="M688.4,281.6l-19,5l-62.5-30.5l-11.6-5.7l-5.6-2.8c7.4-10.6,47.2-6,47.2-6c0.9,0.5,1.3,1.6,1.5,2.9
	c0.4,2.4,0,5.3-0.2,6.4c0,0.3-0.1,0.4-0.1,0.4L688.4,281.6z"/>
<path class="st5" d="M277.2,249.7c-2,1.1-5.7,2.3-9.9,3.3c-11.6,2.9-27.6,5.2-27.6,5.2s-82,17-147.3-5.2c0,0-9.6-4.4-2-12.5
	c1.2-1.2,2.4-2.3,3.8-3.3l0.1-0.1c0.8-1.1,1.8-2.1,2.8-3c3-2.7,8.1-6.1,14.8-5.6l166.4,11.9C278.2,240.5,284.8,245.6,277.2,249.7z"
	/>
<path class="st5" d="M243.2,239.8l31.1-31.3l15.4,1.3l-11.5,30.7C278.2,240.5,244.2,244.6,243.2,239.8z"/>
<polygon class="st5" points="155.4,232.5 221,203.4 232.3,204.8 203.3,223.9 195.1,237.1 "/>
<path class="st6" d="M267.3,253.1c-11.6,2.9-27.6,5.2-27.6,5.2s-82,17-147.3-5.2c0,0-9.6-4.4-2-12.5v0.1c0,0,14.5,8.8,79.5,10.3
	L267.3,253.1z"/>
<path class="st5" d="M256.3,253.7l32,10.7l7.5-1.8l-19.9-13.5C275.9,249.1,253.3,246.2,256.3,253.7z"/>
<path class="st6" d="M101.5,241c-1.4,0.2-5.1-2.2-7.3-3.8c0.8-1.1,1.8-2.1,2.8-3c1.8,1.3,5,3.3,6.7,3
	C106,236.8,103.7,240.7,101.5,241z"/>
<path class="st5" d="M248.3,303.9l-19.4,3.3l-59.5-36l-11-6.7l-5.4-3.2c8.3-9.9,47.5-1.8,47.5-1.8c0.8,0.6,1.2,1.7,1.3,3
	c0.2,2.4-0.5,5.3-0.7,6.4c-0.1,0.3-0.1,0.4-0.1,0.4L248.3,303.9z"/>
<path class="st5" d="M463.5,394.3c-1.9,1.3-5.5,2.8-9.6,4.2c-11.3,3.9-27.1,7.7-27.1,7.7s-80.2,24.1-147.2,7.8c0,0-10-3.5-3.1-12.3
	c1.1-1.3,2.2-2.5,3.5-3.6l0.1-0.1c0.7-1.2,1.6-2.3,2.5-3.3c2.7-3,7.5-6.8,14.3-6.9l166.8-2.8C463.7,385,470.7,389.5,463.5,394.3z"/>
<path class="st5" d="M428.8,387.4l28.2-33.9l15.4-0.1l-8.8,31.6C463.7,385,430.1,392.1,428.8,387.4z"/>
<polygon class="st5" points="340.7,388 403.5,353.1 414.8,353.5 387.6,375.1 380.6,389 "/>
<path class="st6" d="M453.9,398.5c-11.3,3.9-27.1,7.7-27.1,7.7s-80.2,24.1-147.2,7.8c0,0-10-3.5-3.1-12.3l0.1,0.1
	c0,0,15.3,7.5,80.1,3.2L453.9,398.5z"/>
<path class="st5" d="M443,400.1l32.8,7.9l7.3-2.5l-21-11.7C462.1,393.8,439.4,392.9,443,400.1z"/>
<path class="st6" d="M287.8,401.2c-1.4,0.3-5.3-1.7-7.7-3.2c0.7-1.2,1.6-2.3,2.5-3.3c1.9,1.1,5.3,2.8,6.9,2.4
	C291.9,396.6,289.9,400.7,287.8,401.2z"/>
<path class="st5" d="M439.5,450.8l-19,5L358,425.3l-11.6-5.7l-5.6-2.8c7.4-10.6,47.2-6,47.2-6c0.9,0.5,1.3,1.6,1.5,2.9
	c0.4,2.4,0,5.3-0.2,6.4c0,0.3-0.1,0.4-0.1,0.4L439.5,450.8z"/>
<ellipse transform="matrix(0.7138 -0.7003 0.7003 0.7138 -267.4319 585.8997)" class="st5" cx="583.2" cy="620.2" rx="45.5" ry="38.5"/>
<ellipse transform="matrix(0.7138 -0.7003 0.7003 0.7138 -267.4297 585.8989)" class="st7" cx="583.2" cy="620.2" rx="41.7" ry="35.2"/>
<polygon class="st5" points="532.1,597 579.4,621 583.9,618.4 587.8,618.7 580.3,624.2 532.1,601.5 "/>
<path class="st5" d="M535.1,601.6l-3,0.4l0,0l-7-1.4l-2.1-10.4l1.3-0.4l3.3-1.1c5.8,0,7,2.5,7,2.5L535.1,601.6z"/>
<path class="st0" d="M532.1,602L532.1,602l-7-1.4l-2.1-10.4l1.3-0.4c2.7,0.3,5.8,0.8,6.9,2L532.1,602z"/>
<ellipse class="st8" cx="527.6" cy="592.7" rx="6.8" ry="5.6"/>
</svg>
