<?xml version="1.0" encoding="utf-8"?>
<!-- Generator: Adobe Illustrator 25.3.1, SVG Export Plug-In . SVG Version: 6.00 Build 0)  -->
<svg version="1.1" id="d8951433-2714-4e95-856e-ed301a2a6756"
	 xmlns="http://www.w3.org/2000/svg" xmlns:xlink="http://www.w3.org/1999/xlink" x="0px" y="0px" viewBox="0 0 770 770.1"
	 style="enable-background:new 0 0 770 770.1;" xml:space="preserve">
<style type="text/css">
	.st0{opacity:0.1;fill:#FC0019;stroke:#FFFFFF;stroke-miterlimit:10;enable-background:new    ;}
	.st1{opacity:3.000000e-02;enable-background:new    ;}
	.st2{fill:url(#SVGID_1_);}
	.st3{fill:#536DFE;}
	.st4{opacity:0.2;fill:#F5F5F5;enable-background:new    ;}
	.st5{opacity:0.25;enable-background:new    ;}
	.st6{opacity:0.7;}
	.st7{fill:url(#SVGID_2_);}
	.st8{opacity:0.5;}
	.st9{fill:url(#SVGID_3_);}
	.st10{fill:url(#SVGID_4_);}
	.st11{opacity:0.3;}
	.st12{fill:url(#SVGID_5_);}
	.st13{fill:url(#SVGID_6_);}
	.st14{opacity:0.1;enable-background:new    ;}
	.st15{fill:none;stroke:#4051B5;stroke-miterlimit:10;}
	.st16{fill:#EE273D;}
</style>
<path class="st0" d="M222.5,259.7c-3,3.7-4.2,8.9-5.5,13.8c-10.5,39.5-36.3,71.3-65.8,94c-12.5,9.6-27.6,22.5-24.9,39.8
	c1.5,9.3,7.9,16.1,12.7,23.6c10.1,16.2,13.2,36.9,8.5,56.2c-5.4,21.5-20.7,41.6-15.9,63.3c2.9,13.4,12.8,22.9,22.2,31.1
	c14.8,12.8,30,24.7,45.8,35.9c10.5,7.5,21.8,14.8,34,15.7c10.8,0.8,21.4-3.3,31.7-7.4c9-3.6,18.2-7.3,25.4-14.5
	c4.7-4.7,8.5-10.7,13.8-14.6c12.3-9,28.2-3.3,42.4,0.5c33.7,9,68.9,5.8,100.9-9.3c48.7-23.2,85.9-71.8,133.6-97.9
	c20.5-11.2,42.8-18.2,61.8-32.6c10.5-8,19.6-18,27.2-29.7c14.4-22.4,22.1-50.9,19.9-78.8c-2.2-27.9-14.8-54.8-34.5-70.6
	c-21.1-16.8-47.8-20-71.8-30.2c-24.8-10.5-46.9-28.5-71.4-39.7c-40.2-18.3-86.5-17.3-126,2.9c-26.7,13.6-53.8,45.5-83.6,47.9
	C281.6,260.9,239.1,239.4,222.5,259.7z"/>
<ellipse transform="matrix(0.9646 -0.2637 0.2637 0.9646 -87.5027 123.6905)" class="st1" cx="417" cy="387.8" rx="40.8" ry="6.1"/>
<linearGradient id="SVGID_1_" gradientUnits="userSpaceOnUse" x1="671.8341" y1="458.1222" x2="671.8341" y2="575.7713" gradientTransform="matrix(0.978 0.2085 0.2085 -0.978 -188.7467 507.0154)">
	<stop  offset="0" style="stop-color:#808080;stop-opacity:0.25"/>
	<stop  offset="0.54" style="stop-color:#808080;stop-opacity:0.12"/>
	<stop  offset="1" style="stop-color:#808080;stop-opacity:0.1"/>
</linearGradient>
<path class="st2" d="M711.8,114.3c-7-1.6-14-2.6-21.1-3.1l0,0c0.6-2.8-1.2-5.5-3.9-6.1s-5.5,1.2-6.1,3.9l0,0
	c-6.7-2.4-13.6-4.3-20.6-5.7c-15.4-3.3-28.3-4.2-28.7-2.1c-0.5,2.1,11.7,6.5,27.1,9.8c7,1.6,14,2.6,21.1,3.1l0,0
	c-0.1,0.6-0.2,1.3-0.1,1.9c-1.8,0.7-2.7,2.7-2,4.6c0.1,0.3,0.3,0.6,0.5,0.9c-2.7,0.4-5.1,1.8-6.6,4c-1.1-1.4-2.7-2.4-4.4-2.8
	l-51.4-13.4c-2.6-6-8-10.4-14.5-11.8l-32.7-7c-6.5-1.4-13.3,0.5-18.2,5l-49.8-8.2c-1.6-0.3-3.3-0.1-4.8,0.6
	c-0.5-2.3-1.9-4.4-3.8-5.8c1.1-0.4,1.9-1.4,2.1-2.5c0.3-1.5-0.3-3-1.6-3.7c0.2-0.4,0.4-0.9,0.5-1.4l0,0c6.7,2.4,13.6,4.3,20.6,5.7
	c15.4,3.3,28.3,4.2,28.7,2.1c0.5-2.1-11.7-6.5-27.1-9.8c-7-1.6-14-2.6-21.1-3.1l0,0c0.6-2.8-1.1-5.6-3.9-6.2l0,0
	c-2.8-0.6-5.5,1.3-6.1,4.1l0,0c-6.7-2.4-13.6-4.3-20.6-5.7c-15.4-3.3-28.3-4.2-28.7-2.1s11.7,6.5,27.1,9.8c7,1.6,14,2.6,21.1,3.1
	l0,0c-0.1,0.6-0.2,1.3-0.1,1.9c-1.8,0.7-2.7,2.7-2,4.6c0.1,0.4,0.4,0.7,0.6,1c-3.9,0.7-7,3.7-7.8,7.5l-1.4,6.3
	c-1.2,5.1,2.1,10.3,7.2,11.4l0,0l3.7,0.8c2.9,0.6,6-0.2,8.2-2.3c1.2,1.8,3,3,5.1,3.5l48.1,11.7c1,2.8,2.6,5.4,4.7,7.6
	c-5.7,3.8-28.3,21.4-33.4,59.8c0,0,1.7,6.2,10.4,2.2c0,0,4.2-43.1,34.7-54.7c0.3,2.9,2.4,5.3,5.3,5.9l3.4,0.7
	c-7.5,1.4-13.5,7.2-15,14.7c-2.4,9.8,3.6,19.8,13.4,22.2c9.8,2.4,19.8-3.6,22.2-13.4c0.1-0.4,0.2-0.8,0.3-1.2
	c1.6-7.5-1.4-15.2-7.7-19.6l3.4,0.7c2.9,0.6,5.8-0.7,7.3-3.3c23.1,23.1,9.4,64.1,9.4,64.1c6.3,7.2,10.4,2.2,10.4,2.2
	c12.6-42.5-7-69.5-7-69.5l-0.4-0.1c2.1-1.1,4-2.5,5.6-4.2l51.2,9.4c2.2,0.4,4.5-0.1,6.4-1.3c1.1,2.9,3.7,5,6.7,5.7l3.7,0.8
	c5.2,1,10.2-2.3,11.2-7.5l0,0l1.4-6.3c0.8-3.7-0.6-7.5-3.6-9.8c1.8-0.6,2.8-2.6,2.2-4.5c-0.3-0.8-0.8-1.5-1.5-1.9
	c0.2-0.4,0.4-0.9,0.5-1.4l0,0c6.7,2.4,13.6,4.3,20.5,5.8c15.4,3.3,28.3,4.2,28.7,2.1C739.4,121.9,727.2,117.6,711.8,114.3z"/>
<circle class="st3" cx="571.3" cy="157.6" r="17.8"/>
<ellipse class="st3" cx="571.3" cy="157.6" rx="12" ry="12"/>
<ellipse class="st4" cx="571.3" cy="157.6" rx="12" ry="12"/>
<ellipse transform="matrix(0.2085 -0.978 0.978 0.2085 297.9971 683.4514)" class="st3" cx="571.3" cy="157.6" rx="7.9" ry="7.8"/>
<ellipse transform="matrix(0.2085 -0.978 0.978 0.2085 297.9971 683.4514)" class="st5" cx="571.3" cy="157.6" rx="7.9" ry="7.8"/>
<path class="st3" d="M549.7,126c0,0-27.9,15.6-33.3,57.1c0,0,1.7,5.9,10.1,2.2c0,0,5-53,47.4-54.1L549.7,126z"/>
<path class="st3" d="M603.9,137.5c0,0,19.1,25.6,7.1,65.7c0,0-3.9,4.6-10.1-2.2c0,0,17.1-50.4-21.3-68.7L603.9,137.5z"/>
<path class="st3" d="M563.9,92.3l37.9,8.1c9.2,2,15,11,13,20.1l-1.3,6.2c-2,9.2-11,15-20.1,13l-37.9-8.1c-9.2-2-15-11-13-20.1
	l1.3-6.2C545.8,96.2,554.8,90.3,563.9,92.3z"/>
<path class="st3" d="M552.5,121.7l-55.1-13.4c-4.5-1.1-7.3-5.5-6.3-10l0.5-2.1c0.9-4.5,5.2-7.4,9.7-6.6l56,9.3
	c4.6,0.8,7.8,5.2,7,9.8c0,0.1,0,0.2-0.1,0.4l-1.3,6.2c-1,4.6-5.5,7.5-10.1,6.6C552.6,121.7,552.6,121.7,552.5,121.7z"/>
<path class="st3" d="M602.7,132.4l55.8,10.3c4.5,0.8,8.9-2.1,9.9-6.6l0.5-2.1c0.9-4.5-1.8-8.9-6.2-10l-54.9-14.3
	c-4.5-1.2-9.2,1.5-10.4,6.1c0,0.1-0.1,0.2-0.1,0.4l-1.3,6.2c-1,4.6,1.9,9.1,6.5,10.1C602.5,132.4,602.6,132.4,602.7,132.4z"/>
<path class="st4" d="M552.5,121.7l-55.1-13.4c-4.5-1.1-7.3-5.5-6.3-10l0.5-2.1c0.9-4.5,5.2-7.4,9.7-6.6l56,9.3
	c4.6,0.8,7.8,5.2,7,9.8c0,0.1,0,0.2-0.1,0.4l-1.3,6.2c-1,4.6-5.5,7.5-10.1,6.6C552.6,121.7,552.6,121.7,552.5,121.7z"/>
<path class="st4" d="M602.7,132.4l55.8,10.3c4.5,0.8,8.9-2.1,9.9-6.6l0.5-2.1c0.9-4.5-1.8-8.9-6.2-10l-54.9-14.3
	c-4.5-1.2-9.2,1.5-10.4,6.1c0,0.1-0.1,0.2-0.1,0.4l-1.3,6.2c-1,4.6,1.9,9.1,6.5,10.1C602.5,132.4,602.6,132.4,602.7,132.4z"/>
<path class="st3" d="M486.1,82.4l3.4,0.7c5,1.1,8.1,6,7.1,10.9l-1.2,5.8c-1.1,5-6,8.1-10.9,7.1l-3.4-0.7c-5-1.1-8.1-6-7.1-10.9
	l1.2-5.8C476.2,84.6,481.1,81.4,486.1,82.4z"/>
<path class="st3" d="M676.4,123l3.4,0.7c5,1.1,8.1,6,7.1,10.9l-1.2,5.8c-1.1,5-6,8.1-10.9,7.1l-3.4-0.7c-5-1.1-8.1-6-7.1-10.9
	l1.2-5.8C666.5,125.1,671.4,121.9,676.4,123z"/>
<path class="st3" d="M485.4,76.8l7.5,1.6c1.5,0.3,2.5,1.8,2.1,3.3l-0.2,1c-0.3,1.5-1.8,2.5-3.3,2.1l-7.5-1.6
	c-1.5-0.3-2.5-1.8-2.1-3.3l0.2-1C482.4,77.4,483.8,76.5,485.4,76.8z"/>
<path class="st3" d="M490.2,66.4l1.5,0.3c2.3,0.5,3.7,2.7,3.2,4.9l-1.4,6.4c-0.5,2.3-2.7,3.7-4.9,3.2l-1.5-0.3
	c-2.3-0.5-3.7-2.7-3.2-4.9l1.4-6.4C485.8,67.4,488,66,490.2,66.4z"/>
<ellipse transform="matrix(0.2085 -0.978 0.978 0.2085 300.5233 508.5005)" class="st3" cx="464.4" cy="68.6" rx="3.7" ry="27.7"/>
<ellipse transform="matrix(0.2085 -0.978 0.978 0.2085 329.6807 565.8911)" class="st3" cx="514.5" cy="79.3" rx="3.7" ry="27.7"/>
<path class="st3" d="M676,117.4l7.5,1.6c1.5,0.3,2.5,1.8,2.1,3.3l-0.2,1c-0.3,1.5-1.8,2.5-3.3,2.1l-7.5-1.6
	c-1.5-0.3-2.5-1.8-2.1-3.3l0.2-1C673.1,118.1,674.5,117.1,676,117.4z"/>
<path class="st3" d="M680.9,107.1l1.5,0.3c2.3,0.5,3.7,2.7,3.2,4.9l-1.4,6.4c-0.5,2.3-2.7,3.7-4.9,3.2l-1.5-0.3
	c-2.3-0.5-3.7-2.7-3.2-4.9l1.4-6.4C676.5,108,678.7,106.6,680.9,107.1z"/>
<ellipse transform="matrix(0.2085 -0.978 0.978 0.2085 411.6754 727.192)" class="st3" cx="655.1" cy="109.3" rx="3.7" ry="27.7"/>
<ellipse transform="matrix(0.2085 -0.978 0.978 0.2085 441.002 784.6379)" class="st3" cx="705.3" cy="119.9" rx="3.7" ry="27.7"/>
<ellipse transform="matrix(0.2085 -0.978 0.978 0.2085 300.5233 508.5005)" class="st4" cx="464.4" cy="68.6" rx="3.7" ry="27.7"/>
<ellipse transform="matrix(0.2085 -0.978 0.978 0.2085 329.6807 565.8911)" class="st4" cx="514.5" cy="79.3" rx="3.7" ry="27.7"/>
<ellipse transform="matrix(0.2085 -0.978 0.978 0.2085 411.6754 727.192)" class="st4" cx="655.1" cy="109.3" rx="3.7" ry="27.7"/>
<ellipse transform="matrix(0.2085 -0.978 0.978 0.2085 441.002 784.6379)" class="st4" cx="705.3" cy="119.9" rx="3.7" ry="27.7"/>
<path class="st3" d="M566.8,126.2l21.4,4.6c3,0.6,4.9,3.6,4.3,6.6l-0.4,2.1c-0.6,3-3.6,4.9-6.6,4.3l-21.4-4.6
	c-3-0.6-4.9-3.6-4.3-6.6l0.4-2.1C560.8,127.5,563.8,125.6,566.8,126.2z"/>
<path class="st4" d="M566.8,126.2l21.4,4.6c3,0.6,4.9,3.6,4.3,6.6l-0.4,2.1c-0.6,3-3.6,4.9-6.6,4.3l-21.4-4.6
	c-3-0.6-4.9-3.6-4.3-6.6l0.4-2.1C560.8,127.5,563.8,125.6,566.8,126.2z"/>
<g class="st6">
	
		<linearGradient id="SVGID_2_" gradientUnits="userSpaceOnUse" x1="440.7661" y1="430.3857" x2="440.7661" y2="508.8056" gradientTransform="matrix(0.98 0.1991 0.1991 -0.98 -180.4757 564.3075)">
		<stop  offset="0" style="stop-color:#808080;stop-opacity:0.25"/>
		<stop  offset="0.54" style="stop-color:#808080;stop-opacity:0.12"/>
		<stop  offset="1" style="stop-color:#808080;stop-opacity:0.1"/>
	</linearGradient>
	<path class="st7" d="M435.1,172.8c-4.6-1-9.3-1.6-14.1-2l0,0c0.5-1.8-0.6-3.7-2.4-4.2s-3.7,0.6-4.2,2.4c0,0.1-0.1,0.2-0.1,0.4l0,0
		c-4.5-1.6-9.1-2.8-13.7-3.7c-10.3-2.1-18.9-2.6-19.1-1.2c-0.3,1.4,7.8,4.3,18.1,6.4c4.6,1,9.3,1.6,14.1,2l0,0
		c-0.1,0.4-0.1,0.8,0,1.2c-1.2,0.5-1.8,1.8-1.3,3c0.1,0.2,0.2,0.4,0.4,0.6c-1.8,0.3-3.4,1.2-4.4,2.7c-0.8-0.9-1.8-1.6-3-1.8
		l-34.3-8.6c-1.8-4-5.4-6.9-9.7-7.8l-21.8-4.4c-4.4-0.9-8.9,0.4-12.1,3.5l-33.2-5.2c-1.1-0.2-2.2,0-3.2,0.4
		c-0.3-1.5-1.3-2.9-2.6-3.8c0.7-0.3,1.2-1,1.4-1.8c0.2-1-0.2-2-1.1-2.5c0.2-0.3,0.3-0.6,0.3-1l0,0c4.5,1.6,9.1,2.8,13.7,3.7
		c10.3,2.1,18.9,2.6,19.1,1.2c0.3-1.4-7.8-4.3-18.1-6.4c-4.6-1-9.3-1.6-14.1-2l0,0c0.4-1.9-0.8-3.7-2.6-4.1l0,0l0,0
		c-1.9-0.4-3.7,0.9-4,2.7l0,0l0,0c-4.5-1.6-9.1-2.8-13.7-3.7c-10.3-2.1-18.9-2.6-19.1-1.2c-0.3,1.4,7.8,4.3,18.1,6.4
		c4.6,1,9.3,1.6,14.1,2l0,0c-0.1,0.4-0.1,0.8,0,1.2c-1.2,0.5-1.8,1.8-1.3,3.1c0.1,0.3,0.2,0.5,0.4,0.7c-2.6,0.5-4.7,2.5-5.2,5.1
		l-0.9,4.3c-0.7,3.4,1.4,6.8,4.9,7.6l0,0l2.4,0.5c2,0.4,4-0.2,5.4-1.6c0.8,1.2,2,2,3.4,2.3l32.1,7.5c0.7,1.9,1.8,3.6,3.1,5
		c-3.7,2.6-18.7,14.5-21.9,40.1c0,0,1.2,4.1,7,1.4c0,0,2.5-28.7,22.8-36.7c0.2,1.9,1.7,3.5,3.6,3.9l2.3,0.5c-5,1-8.9,4.9-9.9,9.9
		c-1.5,6.6,2.6,13.1,9.1,14.7c6.6,1.5,13.1-2.6,14.7-9.1c0.1-0.2,0.1-0.5,0.1-0.7c1-4.9-1-10-5.1-12.9l2.3,0.5
		c1.9,0.4,3.9-0.5,4.8-2.2c15.6,15.2,6.6,42.7,6.6,42.7c4.3,4.7,7,1.4,7,1.4c8.1-28.4-5.1-46.3-5.1-46.3l-0.3-0.1
		c1.4-0.7,2.6-1.7,3.7-2.8l34.2,5.9c1.5,0.3,3-0.1,4.3-0.9c0.8,1.9,2.5,3.3,4.5,3.7l2.4,0.5c3.5,0.7,6.8-1.6,7.4-5.1l0,0l0.9-4.3
		c0.5-2.5-0.4-5-2.5-6.5c1.2-0.4,1.9-1.7,1.5-3c-0.2-0.5-0.5-1-1-1.3c0.2-0.3,0.3-0.6,0.3-1l0,0c4.5,1.6,9.1,2.8,13.7,3.7
		c10.3,2.1,18.9,2.6,19.1,1.2C453.5,177.8,445.4,174.9,435.1,172.8z"/>
	<circle class="st3" cx="341.8" cy="202.6" r="11.8"/>
	<circle class="st3" cx="341.8" cy="202.6" r="8"/>
	<circle class="st4" cx="341.8" cy="202.6" r="8"/>
	<circle class="st3" cx="341.8" cy="202.6" r="5.2"/>
	<circle class="st5" cx="341.8" cy="202.6" r="5.2"/>
	<path class="st3" d="M327.2,181.7c0,0-18.5,10.5-21.8,38.3c0,0,1.2,3.9,6.7,1.4c0,0,3-35.3,31.3-36.3L327.2,181.7z"/>
	<path class="st3" d="M363.4,189c0,0,12.9,16.9,5.2,43.7c0,0-2.6,3.1-6.7-1.4c0,0,11.1-33.7-14.6-45.7L363.4,189z"/>
	<path class="st3" d="M336.5,159.1l25.3,5.1c6.1,1.2,10.1,7.2,8.8,13.3l-0.8,4.2c-1.2,6.1-7.2,10.1-13.3,8.8l-25.3-5.1
		c-6.1-1.2-10.1-7.2-8.8-13.3l0.8-4.2C324.4,161.8,330.4,157.9,336.5,159.1z"/>
	<path class="st3" d="M329,178.8l-36.8-8.6c-3-0.7-4.9-3.6-4.3-6.6l0.3-1.4c0.6-3,3.4-4.9,6.4-4.5l37.4,5.9c3.1,0.5,5.2,3.4,4.7,6.5
		c0,0.1,0,0.2,0,0.2l-0.8,4.1c-0.6,3.1-3.6,5-6.7,4.4C329.1,178.8,329.1,178.8,329,178.8z"/>
	<path class="st3" d="M362.6,185.6l37.2,6.5c3,0.5,5.9-1.4,6.5-4.4l0.3-1.4c0.6-3-1.2-5.9-4.2-6.6l-36.7-9.2c-3-0.8-6.1,1.1-6.9,4.1
		c0,0.1,0,0.2-0.1,0.2l-0.8,4.1c-0.6,3.1,1.4,6.1,4.5,6.7C362.5,185.6,362.5,185.6,362.6,185.6z"/>
	<path class="st4" d="M329,178.8l-36.8-8.6c-3-0.7-4.9-3.6-4.3-6.6l0.3-1.4c0.6-3,3.4-4.9,6.4-4.5l37.4,5.9c3.1,0.5,5.2,3.4,4.7,6.5
		c0,0.1,0,0.2,0,0.2l-0.8,4.1c-0.6,3.1-3.6,5-6.7,4.4C329.1,178.8,329.1,178.8,329,178.8z"/>
	<path class="st4" d="M362.6,185.6l37.2,6.5c3,0.5,5.9-1.4,6.5-4.4l0.3-1.4c0.6-3-1.2-5.9-4.2-6.6l-36.7-9.2c-3-0.8-6.1,1.1-6.9,4.1
		c0,0.1,0,0.2-0.1,0.2l-0.8,4.1c-0.6,3.1,1.4,6.1,4.5,6.7C362.5,185.6,362.5,185.6,362.6,185.6z"/>
	<path class="st3" d="M284.6,153.1l2.3,0.5c3.3,0.7,5.5,3.9,4.8,7.2l-0.8,3.9c-0.7,3.3-3.9,5.5-7.2,4.8l-2.3-0.5
		c-3.3-0.7-5.5-3.9-4.8-7.2l0.8-3.9C278,154.6,281.2,152.4,284.6,153.1z"/>
	<path class="st3" d="M411.6,178.9l2.3,0.5c3.3,0.7,5.5,3.9,4.8,7.2l-0.8,3.9c-0.7,3.3-3.9,5.5-7.2,4.8l-2.3-0.5
		c-3.3-0.7-5.5-3.9-4.8-7.2l0.8-3.9C405,180.4,408.2,178.2,411.6,178.9z"/>
	<path class="st3" d="M284,149.3l5,1c1,0.2,1.6,1.2,1.4,2.2l-0.1,0.7c-0.2,1-1.2,1.6-2.2,1.4l-5-1c-1-0.2-1.6-1.2-1.4-2.2l0.1-0.7
		C282,149.8,283,149.1,284,149.3z"/>
	<path class="st3" d="M287.2,142.4l1,0.2c1.5,0.3,2.5,1.8,2.2,3.3l-0.9,4.3c-0.3,1.5-1.8,2.5-3.3,2.2l-1-0.2
		c-1.5-0.3-2.5-1.8-2.2-3.3l0.9-4.3C284.3,143.1,285.7,142.1,287.2,142.4z"/>
	<ellipse transform="matrix(0.1991 -0.98 0.98 0.1991 75.2135 379.8961)" class="st3" cx="270" cy="143.9" rx="2.5" ry="18.4"/>
	<ellipse transform="matrix(0.1991 -0.98 0.98 0.1991 95.3309 418.0654)" class="st3" cx="303.4" cy="150.7" rx="2.5" ry="18.4"/>
	<path class="st3" d="M411.3,175.2l5,1c1,0.2,1.6,1.2,1.4,2.2l-0.1,0.7c-0.2,1-1.2,1.6-2.2,1.4l-5-1c-1-0.2-1.6-1.2-1.4-2.2l0.1-0.7
		C409.3,175.6,410.3,175,411.3,175.2z"/>
	<path class="st3" d="M414.5,168.3l1,0.2c1.5,0.3,2.5,1.8,2.2,3.3l-0.9,4.3c-0.3,1.5-1.8,2.5-3.3,2.2l-1-0.2
		c-1.5-0.3-2.5-1.8-2.2-3.3l0.9-4.3C411.5,168.9,413,168,414.5,168.3z"/>
	<ellipse transform="matrix(0.1991 -0.98 0.98 0.1991 151.793 525.3179)" class="st3" cx="397.3" cy="169.8" rx="2.5" ry="18.4"/>
	<ellipse transform="matrix(0.1991 -0.98 0.98 0.1991 171.9106 563.4874)" class="st3" cx="430.7" cy="176.6" rx="2.5" ry="18.4"/>
	<ellipse transform="matrix(0.1991 -0.98 0.98 0.1991 75.2135 379.8961)" class="st4" cx="270" cy="143.9" rx="2.5" ry="18.4"/>
	<ellipse transform="matrix(0.1991 -0.98 0.98 0.1991 95.3309 418.0654)" class="st4" cx="303.4" cy="150.7" rx="2.5" ry="18.4"/>
	<ellipse transform="matrix(0.1991 -0.98 0.98 0.1991 151.793 525.3179)" class="st4" cx="397.3" cy="169.8" rx="2.5" ry="18.4"/>
	<ellipse transform="matrix(0.1991 -0.98 0.98 0.1991 171.9106 563.4874)" class="st4" cx="430.7" cy="176.6" rx="2.5" ry="18.4"/>
	<path class="st3" d="M338.6,181.7l14.3,2.9c2,0.4,3.3,2.4,2.9,4.4l-0.3,1.4c-0.4,2-2.4,3.3-4.4,2.9l-14.3-2.9
		c-2-0.4-3.3-2.4-2.9-4.4l0.3-1.4C334.6,182.6,336.6,181.3,338.6,181.7z"/>
	<path class="st4" d="M338.6,181.7l14.3,2.9c2,0.4,3.3,2.4,2.9,4.4l-0.3,1.4c-0.4,2-2.4,3.3-4.4,2.9l-14.3-2.9
		c-2-0.4-3.3-2.4-2.9-4.4l0.3-1.4C334.6,182.6,336.6,181.3,338.6,181.7z"/>
</g>
<g class="st8">
	
		<linearGradient id="SVGID_3_" gradientUnits="userSpaceOnUse" x1="494.2563" y1="369.664" x2="494.2563" y2="423.364" gradientTransform="matrix(0.9646 -0.2637 -0.2637 -0.9646 32.0908 852.6384)">
		<stop  offset="0" style="stop-color:#808080;stop-opacity:0.25"/>
		<stop  offset="0.54" style="stop-color:#808080;stop-opacity:0.12"/>
		<stop  offset="1" style="stop-color:#808080;stop-opacity:0.1"/>
	</linearGradient>
	<path class="st9" d="M453.4,300.4c-3.1,0.8-6.2,1.9-9.2,3.1l0,0c-0.3-1.2-1.6-2-2.9-1.6c-1.2,0.3-2,1.6-1.6,2.9l0,0l0,0
		c-3.2,0.4-6.4,1.1-9.5,2c-6.9,1.9-12.3,4.2-12.1,5.2s6.1,0.2,13-1.7c3.1-0.8,6.2-1.9,9.2-3.1l0,0c0.1,0.3,0.2,0.5,0.4,0.8
		c-0.6,0.7-0.5,1.7,0.1,2.3c0.1,0.1,0.3,0.2,0.4,0.3c-1,0.7-1.7,1.8-1.8,3c-0.8-0.3-1.6-0.4-2.4-0.2l-23.6,5.3
		c-2.3-1.9-5.4-2.5-8.3-1.8l-14.7,4c-2.9,0.8-5.3,3-6.3,5.9l-21.9,7.1c-0.7,0.2-1.3,0.7-1.8,1.3c-0.7-0.8-1.7-1.4-2.7-1.5
		c0.4-0.4,0.5-1,0.3-1.5c-0.2-0.7-0.8-1.1-1.4-1.2c0-0.2,0-0.5-0.1-0.7l0,0c3.2-0.4,6.4-1.1,9.5-2c6.9-1.9,12.3-4.2,12.1-5.2
		s-6.1-0.2-13,1.7c-3.1,0.8-6.2,1.9-9.2,3.1l0,0c-0.3-1.3-1.6-2-2.9-1.7l0,0c-1.3,0.4-2,1.7-1.6,2.9l0,0c-3.2,0.4-6.4,1.1-9.5,2
		c-6.9,1.9-12.3,4.2-12.1,5.2c0.3,1,6.1,0.2,13-1.7c3.1-0.8,6.2-1.9,9.2-3.1l0,0c0.1,0.3,0.2,0.5,0.4,0.8c-0.6,0.7-0.5,1.7,0.1,2.3
		c0.1,0.1,0.3,0.2,0.5,0.3c-1.5,1.1-2.1,3-1.6,4.7l0.8,2.9c0.6,2.3,3,3.7,5.3,3.1l0,0l1.6-0.5c1.3-0.4,2.4-1.3,2.8-2.6
		c0.9,0.5,1.9,0.6,2.8,0.4l21.9-5.3c1,0.9,2.2,1.6,3.5,2.1c-1.5,2.7-7,14.6-1,31.2c0,0,2,2.1,4.7-1.3c0,0-7.3-18.3,2.6-29.4
		c0.7,1.1,2.1,1.6,3.4,1.3l1.5-0.4c-2.8,2.1-3.9,5.7-3,9.1c1.1,4.5,5.6,7.3,10.1,6.2c4.5-1.1,7.3-5.6,6.2-10.1
		c0-0.2-0.1-0.4-0.2-0.6c-0.9-3.4-3.7-5.9-7.2-6.3l1.6-0.4c1.3-0.4,2.2-1.5,2.3-2.8c14.2,4.5,17.2,24,17.2,24
		c4.1,1.6,4.7-1.3,4.7-1.3c-3.8-19.9-17.4-26.7-17.4-26.7l-0.2,0.1c0.6-0.9,1.1-1.8,1.4-2.9l22.7-6.9c1-0.3,1.8-1,2.3-1.9
		c1.1,0.9,2.5,1.3,3.9,0.9l1.7-0.5c2.3-0.7,3.6-3.1,3-5.4l0,0l-0.8-2.9c-0.5-1.7-1.8-2.9-3.5-3.2c0.6-0.6,0.6-1.6,0-2.3
		c-0.3-0.3-0.6-0.4-1-0.5c0-0.2,0-0.5-0.1-0.7l0,0c3.2-0.4,6.4-1.1,9.5-2c6.9-1.9,12.3-4.2,12.1-5.2
		C466.2,297.8,460.3,298.5,453.4,300.4z"/>
	<circle class="st3" cx="405.5" cy="347.4" r="8.1"/>
	<ellipse class="st3" cx="405.5" cy="347.4" rx="5.5" ry="5.5"/>
	<ellipse class="st4" cx="405.5" cy="347.4" rx="5.5" ry="5.5"/>
	<ellipse class="st3" cx="405.5" cy="347.4" rx="3.6" ry="3.6"/>
	<ellipse class="st5" cx="405.5" cy="347.4" rx="3.6" ry="3.6"/>
	<path class="st3" d="M390.2,339.1c0,0-8,12.2-1.5,30.1c0,0,1.9,2,4.5-1.2c0,0-9.1-22.5,7.9-31.8L390.2,339.1z"/>
	<path class="st3" d="M414.5,332.5c0,0,13.1,6.4,16.6,25.1c0,0-0.6,2.7-4.5,1.2c0,0-3.6-24-23-23.4L414.5,332.5z"/>
	<path class="st3" d="M388.9,322.5l17.1-4.7c4.1-1.1,8.4,1.3,9.5,5.4l0.8,2.8c1.1,4.1-1.3,8.4-5.4,9.5l-17.1,4.7
		c-4.1,1.1-8.4-1.3-9.5-5.4l-0.8-2.8C382.3,327.9,384.7,323.6,388.9,322.5z"/>
	<path class="st3" d="M390.4,336.8l-25.1,6.1c-2,0.5-4.1-0.7-4.7-2.7l-0.3-1c-0.5-2,0.6-4.1,2.6-4.7l24.6-7.9c2-0.7,4.2,0.5,4.9,2.5
		c0,0.1,0,0.1,0,0.2l0.8,2.8C393.8,334.2,392.5,336.3,390.4,336.8L390.4,336.8z"/>
	<path class="st3" d="M413,330.6l24.8-7.5c2-0.6,3.2-2.7,2.6-4.7l-0.3-1c-0.5-2-2.6-3.2-4.6-2.8l-25.3,5.7c-2.1,0.5-3.4,2.6-2.9,4.6
		c0,0.1,0,0.1,0,0.2l0.8,2.8c0.6,2.1,2.7,3.3,4.8,2.7C412.9,330.7,412.9,330.6,413,330.6z"/>
	<path class="st4" d="M390.4,336.8l-25.1,6.1c-2,0.5-4.1-0.7-4.7-2.7l-0.3-1c-0.5-2,0.6-4.1,2.6-4.7l24.6-7.9c2-0.7,4.2,0.5,4.9,2.5
		c0,0.1,0,0.1,0,0.2l0.8,2.8C393.8,334.2,392.5,336.3,390.4,336.8L390.4,336.8z"/>
	<path class="st4" d="M413,330.6l24.8-7.5c2-0.6,3.2-2.7,2.6-4.7l-0.3-1c-0.5-2-2.6-3.2-4.6-2.8l-25.3,5.7c-2.1,0.5-3.4,2.6-2.9,4.6
		c0,0.1,0,0.1,0,0.2l0.8,2.8c0.6,2.1,2.7,3.3,4.8,2.7C412.9,330.7,412.9,330.6,413,330.6z"/>
	<path class="st3" d="M355.2,334.8l1.5-0.4c2.2-0.6,4.5,0.7,5.2,2.9l0.7,2.6c0.6,2.2-0.7,4.5-2.9,5.2l-1.5,0.4
		c-2.2,0.6-4.5-0.7-5.2-2.9l-0.7-2.6C351.7,337.7,353,335.4,355.2,334.8z"/>
	<path class="st3" d="M440.8,311.4l1.5-0.4c2.2-0.6,4.5,0.7,5.2,2.9l0.7,2.6c0.6,2.2-0.7,4.5-2.9,5.2l-1.5,0.4
		c-2.2,0.6-4.5-0.7-5.2-2.9l-0.7-2.6C437.3,314.3,438.6,312,440.8,311.4z"/>
	<path class="st3" d="M353.8,332.7l3.4-0.9c0.7-0.2,1.4,0.2,1.6,0.9l0.1,0.5c0.2,0.7-0.2,1.4-0.9,1.6l-3.4,0.9
		c-0.7,0.2-1.4-0.2-1.6-0.9l-0.1-0.5C352.7,333.6,353.1,332.9,353.8,332.7z"/>
	<path class="st3" d="M353.6,327.5l0.7-0.2c1-0.3,2.1,0.3,2.3,1.3l0.8,2.9c0.3,1-0.3,2.1-1.3,2.3l-0.7,0.2c-1,0.3-2.1-0.3-2.3-1.3
		l-0.8-2.9C352,328.8,352.6,327.7,353.6,327.5z"/>
	
		<ellipse transform="matrix(0.9646 -0.2637 0.2637 0.9646 -75.8345 102.4202)" class="st3" cx="343.6" cy="333.7" rx="12.6" ry="1.7"/>
	
		<ellipse transform="matrix(0.9646 -0.2637 0.2637 0.9646 -73.4308 108.1374)" class="st3" cx="366.1" cy="327.6" rx="12.6" ry="1.7"/>
	<path class="st3" d="M439.6,309.2l3.4-0.9c0.7-0.2,1.4,0.2,1.6,0.9l0.1,0.5c0.2,0.7-0.2,1.4-0.9,1.6l-3.4,0.9
		c-0.7,0.2-1.4-0.2-1.6-0.9l-0.1-0.5C438.5,310.1,438.9,309.4,439.6,309.2z"/>
	<path class="st3" d="M439.4,304l0.7-0.2c1-0.3,2.1,0.3,2.3,1.3l0.8,2.9c0.3,1-0.3,2.1-1.3,2.3l-0.7,0.2c-1,0.3-2.1-0.3-2.3-1.3
		l-0.8-2.9C437.8,305.3,438.4,304.3,439.4,304z"/>
	
		<ellipse transform="matrix(0.9646 -0.2637 0.2637 0.9646 -66.6319 124.19)" class="st3" cx="429.3" cy="310.3" rx="12.6" ry="1.7"/>
	
		<ellipse transform="matrix(0.9646 -0.2637 0.2637 0.9646 -64.1958 129.9311)" class="st3" cx="451.9" cy="304.1" rx="12.6" ry="1.7"/>
	
		<ellipse transform="matrix(0.9646 -0.2637 0.2637 0.9646 -75.8345 102.4202)" class="st4" cx="343.6" cy="333.7" rx="12.6" ry="1.7"/>
	
		<ellipse transform="matrix(0.9646 -0.2637 0.2637 0.9646 -73.4308 108.1374)" class="st4" cx="366.1" cy="327.6" rx="12.6" ry="1.7"/>
	
		<ellipse transform="matrix(0.9646 -0.2637 0.2637 0.9646 -66.6319 124.19)" class="st4" cx="429.3" cy="310.3" rx="12.6" ry="1.7"/>
	
		<ellipse transform="matrix(0.9646 -0.2637 0.2637 0.9646 -64.1958 129.9311)" class="st4" cx="451.9" cy="304.1" rx="12.6" ry="1.7"/>
	<path class="st3" d="M397.1,335.7l9.6-2.6c1.4-0.4,2.7,0.4,3.1,1.8l0.3,0.9c0.4,1.4-0.4,2.7-1.8,3.1l-9.6,2.6
		c-1.4,0.4-2.7-0.4-3.1-1.8l-0.3-0.9C395,337.4,395.8,336,397.1,335.7z"/>
	<path class="st4" d="M397.1,335.7l9.6-2.6c1.4-0.4,2.7,0.4,3.1,1.8l0.3,0.9c0.4,1.4-0.4,2.7-1.8,3.1l-9.6,2.6
		c-1.4,0.4-2.7-0.4-3.1-1.8l-0.3-0.9C395,337.4,395.8,336,397.1,335.7z"/>
</g>
<g class="st8">
	
		<linearGradient id="SVGID_4_" gradientUnits="userSpaceOnUse" x1="396.4139" y1="53.7663" x2="396.4139" y2="84.1563" gradientTransform="matrix(0.9795 0.2016 0.2016 -0.9795 -104.2283 574.5421)">
		<stop  offset="0" style="stop-color:#808080;stop-opacity:0.25"/>
		<stop  offset="0.54" style="stop-color:#808080;stop-opacity:0.12"/>
		<stop  offset="1" style="stop-color:#808080;stop-opacity:0.1"/>
	</linearGradient>
	<path class="st10" d="M333.1,579.7c-1.8-0.4-3.6-0.6-5.5-0.8l0,0c0.1-0.7-0.3-1.4-1-1.6c-0.7-0.1-1.4,0.3-1.6,1l0,0l0,0
		c-1.7-0.6-3.5-1.1-5.3-1.4c-4-0.8-7.3-1-7.4-0.5s3,1.6,7,2.5c1.8,0.4,3.6,0.6,5.5,0.8l0,0c0,0.2,0,0.3,0,0.5
		c-0.5,0.2-0.7,0.7-0.5,1.2c0,0.1,0.1,0.2,0.1,0.2c-0.7,0.1-1.3,0.5-1.7,1c-0.3-0.4-0.7-0.6-1.1-0.7l-13.3-3.3
		c-0.7-1.6-2.1-2.7-3.8-3l-8.5-1.7c-1.7-0.3-3.4,0.2-4.7,1.3l-12.9-2c-0.4-0.1-0.8,0-1.2,0.2c-0.1-0.6-0.5-1.1-1-1.5
		c0.3-0.1,0.5-0.4,0.5-0.7c0.1-0.4-0.1-0.8-0.4-1c0.1-0.1,0.1-0.2,0.1-0.4l0,0c1.7,0.6,3.5,1.1,5.3,1.4c4,0.8,7.3,1,7.4,0.5
		s-3-1.6-7-2.5c-1.8-0.4-3.6-0.6-5.5-0.8l0,0c0.2-0.7-0.3-1.4-1-1.6l0,0l0,0c-0.7-0.1-1.4,0.3-1.6,1.1l0,0l0,0
		c-1.7-0.6-3.5-1.2-5.3-1.6c-4-0.8-7.3-1-7.4-0.5s3,1.6,7,2.5c1.8,0.4,3.6,0.6,5.5,0.8l0,0c0,0.2,0,0.3,0,0.5
		c-0.5,0.2-0.7,0.7-0.5,1.2c0,0.1,0.1,0.2,0.2,0.3c-1,0.2-1.8,1-2,2l-0.3,1.6c-0.3,1.3,0.5,2.6,1.9,2.9l1,0.2
		c0.8,0.2,1.5-0.1,2.1-0.6c0.3,0.5,0.8,0.8,1.3,0.9l12.4,2.9c0.3,0.7,0.7,1.4,1.2,1.9c-1.5,1-7.3,5.6-8.5,15.5c0,0,0.5,1.6,2.7,0.6
		c0,0,1-11.1,8.9-14.2c0.1,0.8,0.6,1.4,1.4,1.5l0.9,0.2c-1.9,0.4-3.5,1.9-3.8,3.8c-0.5,2.6,1.1,5.1,3.7,5.6s5.1-1.1,5.6-3.7
		c0.4-1.9-0.4-3.9-2-5l0.9,0.2c0.7,0.1,1.5-0.2,1.9-0.9c6,5.9,2.5,16.5,2.5,16.5c1.7,1.8,2.7,0.6,2.7,0.6c3.2-11-1.9-17.9-1.9-17.9
		h-0.2c0.5-0.3,1-0.6,1.4-1.1l13.2,2.3c0.6,0.1,1.2,0,1.6-0.4c0.3,0.7,1,1.3,1.7,1.5l1,0.2c1.3,0.3,2.6-0.6,2.9-2l0.3-1.6
		c0.2-1-0.2-1.9-1-2.5c0.5-0.2,0.7-0.7,0.6-1.2c-0.1-0.2-0.2-0.4-0.4-0.5c0.1-0.1,0.1-0.2,0.1-0.4l0,0c1.7,0.6,3.5,1.1,5.3,1.4
		c4,0.8,7.3,1,7.4,0.5S337.1,580.5,333.1,579.7z"/>
	<circle class="st3" cx="296.9" cy="591.1" r="4.6"/>
	<circle class="st3" cx="296.9" cy="591.1" r="3.1"/>
	<circle class="st4" cx="296.9" cy="591.1" r="3.1"/>
	<circle class="st3" cx="296.9" cy="591.1" r="2"/>
	<circle class="st5" cx="296.9" cy="591.1" r="2"/>
	<path class="st3" d="M291.3,583c0,0-7.2,4.1-8.5,14.8c0,0,0.5,1.5,2.6,0.5c0,0,1.2-13.7,12.1-14.1L291.3,583z"/>
	<path class="st3" d="M305.3,585.9c0,0,5,6.6,2,17c0,0-1,1.2-2.6-0.5c0,0,4.3-13-5.6-17.7L305.3,585.9z"/>
	<path class="st3" d="M294.9,574.3l9.8,2c2.4,0.5,3.9,2.8,3.4,5.2l-0.3,1.6c-0.5,2.4-2.8,3.9-5.2,3.4l-9.8-2
		c-2.4-0.5-3.9-2.8-3.4-5.2l0.3-1.6C290.2,575.3,292.5,573.8,294.9,574.3z"/>
	<path class="st3" d="M292,581.9l-14.3-3.4c-1.2-0.3-1.9-1.4-1.6-2.6l0.1-0.5c0.2-1.1,1.3-1.9,2.5-1.7l14.5,2.3
		c1.2,0.2,2,1.3,1.8,2.5v0.1l-0.3,1.6C294.4,581.4,293.2,582.2,292,581.9L292,581.9z"/>
	<path class="st3" d="M305,584.6l14.4,2.6c1.2,0.2,2.3-0.6,2.5-1.7l0.1-0.5c0.2-1.1-0.5-2.3-1.6-2.6l-14.2-3.6
		c-1.2-0.3-2.4,0.4-2.7,1.6v0.1l-0.3,1.6C303,583.2,303.7,584.3,305,584.6L305,584.6z"/>
	<path class="st4" d="M292,581.9l-14.3-3.4c-1.2-0.3-1.9-1.4-1.6-2.6l0.1-0.5c0.2-1.1,1.3-1.9,2.5-1.7l14.5,2.3
		c1.2,0.2,2,1.3,1.8,2.5v0.1l-0.3,1.6C294.4,581.4,293.2,582.2,292,581.9L292,581.9z"/>
	<path class="st4" d="M305,584.6l14.4,2.6c1.2,0.2,2.3-0.6,2.5-1.7l0.1-0.5c0.2-1.1-0.5-2.3-1.6-2.6l-14.2-3.6
		c-1.2-0.3-2.4,0.4-2.7,1.6v0.1l-0.3,1.6C303,583.2,303.7,584.3,305,584.6L305,584.6z"/>
	<path class="st3" d="M274.8,571.9l0.9,0.2c1.3,0.3,2.1,1.5,1.9,2.8l-0.3,1.5c-0.3,1.3-1.5,2.1-2.8,1.9l-0.9-0.2
		c-1.3-0.3-2.1-1.5-1.9-2.8l0.3-1.5C272.2,572.5,273.5,571.6,274.8,571.9z"/>
	<path class="st3" d="M324,582l0.9,0.2c1.3,0.3,2.1,1.5,1.9,2.8l-0.3,1.5c-0.3,1.3-1.5,2.1-2.8,1.9l-0.9-0.2
		c-1.3-0.3-2.1-1.5-1.9-2.8l0.3-1.5C321.4,582.6,322.7,581.8,324,582z"/>
	<path class="st3" d="M274.6,570.4l1.9,0.4c0.4,0.1,0.6,0.5,0.6,0.9L277,572c-0.1,0.4-0.5,0.6-0.9,0.6l-1.9-0.4
		c-0.4-0.1-0.6-0.5-0.6-0.9l0.1-0.3C273.8,570.6,274.2,570.4,274.6,570.4z"/>
	<path class="st3" d="M275.8,567.8l0.4,0.1c0.6,0.1,1,0.7,0.8,1.3l-0.3,1.6c-0.1,0.6-0.7,1-1.3,0.8l-0.4-0.1c-0.6-0.1-1-0.7-0.8-1.3
		l0.3-1.6C274.7,568,275.3,567.6,275.8,567.8z"/>
	
		<ellipse transform="matrix(0.2016 -0.9795 0.9795 0.2016 -341.7222 717.4014)" class="st3" cx="269.2" cy="568.3" rx="1" ry="7.1"/>
	<ellipse transform="matrix(0.2016 -0.9795 0.9795 0.2016 -334.0081 732.2394)" class="st3" cx="282.1" cy="571" rx="1" ry="7.1"/>
	<path class="st3" d="M323.9,580.6l1.9,0.4c0.4,0.1,0.6,0.5,0.6,0.9l-0.1,0.3c-0.1,0.4-0.5,0.6-0.9,0.6l-1.9-0.4
		c-0.4-0.1-0.6-0.5-0.6-0.9l0.1-0.3C323.1,580.8,323.5,580.5,323.9,580.6z"/>
	<path class="st3" d="M325.1,577.9l0.4,0.1c0.6,0.1,1,0.7,0.8,1.3l-0.3,1.6c-0.1,0.6-0.7,1-1.3,0.8l-0.4-0.1c-0.6-0.1-1-0.7-0.8-1.3
		l0.3-1.6C324,578.2,324.6,577.8,325.1,577.9z"/>
	
		<ellipse transform="matrix(0.2016 -0.9795 0.9795 0.2016 -312.2364 773.7474)" class="st3" cx="318.5" cy="578.4" rx="1" ry="7.1"/>
	
		<ellipse transform="matrix(0.2016 -0.9795 0.9795 0.2016 -304.5421 788.5909)" class="st3" cx="331.4" cy="581.1" rx="1" ry="7.1"/>
	
		<ellipse transform="matrix(0.2016 -0.9795 0.9795 0.2016 -341.7222 717.4014)" class="st4" cx="269.2" cy="568.3" rx="1" ry="7.1"/>
	<ellipse transform="matrix(0.2016 -0.9795 0.9795 0.2016 -334.0081 732.2394)" class="st4" cx="282.1" cy="571" rx="1" ry="7.1"/>
	
		<ellipse transform="matrix(0.2016 -0.9795 0.9795 0.2016 -312.2364 773.7474)" class="st4" cx="318.5" cy="578.4" rx="1" ry="7.1"/>
	
		<ellipse transform="matrix(0.2016 -0.9795 0.9795 0.2016 -304.5421 788.5909)" class="st4" cx="331.4" cy="581.1" rx="1" ry="7.1"/>
	<path class="st3" d="M295.7,583.1l5.5,1.1c0.8,0.2,1.3,0.9,1.1,1.7l-0.1,0.5c-0.2,0.8-0.9,1.3-1.7,1.1l-5.5-1.1
		c-0.8-0.2-1.3-0.9-1.1-1.7l0.1-0.5C294.2,583.4,294.9,582.9,295.7,583.1z"/>
	<path class="st4" d="M295.7,583.1l5.5,1.1c0.8,0.2,1.3,0.9,1.1,1.7l-0.1,0.5c-0.2,0.8-0.9,1.3-1.7,1.1l-5.5-1.1
		c-0.8-0.2-1.3-0.9-1.1-1.7l0.1-0.5C294.2,583.4,294.9,582.9,295.7,583.1z"/>
</g>
<g class="st11">
	
		<linearGradient id="SVGID_5_" gradientUnits="userSpaceOnUse" x1="285.8593" y1="-40.6586" x2="285.8593" y2="-16.4386" gradientTransform="matrix(0.927 0.375 0.375 -0.927 -72.3173 530.1863)">
		<stop  offset="0" style="stop-color:#808080;stop-opacity:0.25"/>
		<stop  offset="0.54" style="stop-color:#808080;stop-opacity:0.12"/>
		<stop  offset="1" style="stop-color:#808080;stop-opacity:0.1"/>
	</linearGradient>
	<path class="st12" d="M210.8,663.3c-1.4-0.6-2.7-1-4.2-1.4l0,0c0.2-0.5,0-1.1-0.6-1.4c-0.5-0.2-1.1,0-1.4,0.6l0,0
		c-1.3-0.7-2.6-1.4-4-1.9c-3-1.2-5.6-1.9-5.8-1.5s2.1,1.7,5.1,3c1.4,0.6,2.7,1,4.2,1.4l0,0c0,0.1-0.1,0.2-0.1,0.4
		c-0.4,0.1-0.7,0.5-0.6,0.9c0,0.1,0,0.1,0.1,0.2c-0.6,0-1.1,0.2-1.5,0.6c-0.2-0.3-0.5-0.6-0.8-0.7l-9.9-4.6
		c-0.3-1.3-1.3-2.4-2.5-2.9l-6.4-2.6c-1.3-0.5-2.7-0.4-3.9,0.4l-9.8-3.4c-0.3-0.1-0.7-0.1-1,0c0-0.5-0.2-0.9-0.6-1.3
		c0.2,0,0.4-0.2,0.5-0.4c0.1-0.3,0-0.6-0.2-0.8c0.1-0.1,0.1-0.2,0.1-0.3l0,0c1.3,0.7,2.6,1.4,4,1.9c3,1.2,5.6,1.9,5.8,1.5
		s-2.1-1.7-5.1-3c-1.4-0.6-2.7-1-4.2-1.4l0,0c0.2-0.5,0-1.2-0.6-1.4l0,0c-0.5-0.2-1.2,0.1-1.4,0.6l0,0c-1.3-0.7-2.6-1.4-4-1.9
		c-3-1.2-5.6-1.9-5.8-1.5s2.1,1.7,5.1,3c1.4,0.6,2.7,1,4.2,1.4l0,0c0,0.1-0.1,0.2-0.1,0.4c-0.4,0.1-0.6,0.5-0.5,0.9
		c0,0.1,0.1,0.2,0.1,0.2c-0.8,0-1.6,0.5-1.9,1.3l-0.5,1.2c-0.4,1,0.1,2.1,1,2.6l0.7,0.3c0.6,0.2,1.2,0.2,1.7-0.2
		c0.2,0.4,0.5,0.7,0.9,0.9l9.3,4.1c0.1,0.6,0.3,1.2,0.7,1.7c-1.3,0.6-6.5,3.3-8.9,10.9c0,0,0.1,1.3,2,0.8c0,0,2.4-8.6,9-9.9
		c-0.1,0.6,0.3,1.2,0.8,1.4l0.7,0.3c-1.6,0-3,1-3.6,2.5c-0.8,1.9,0.2,4.1,2.1,4.9c1.9,0.8,4.1-0.2,4.9-2.1c0.6-1.5,0.3-3.1-0.9-4.2
		l0.7,0.3c0.6,0.2,1.2,0,1.6-0.4c3.9,5.5-0.4,13.3-0.4,13.3c1,1.7,2,0.8,2,0.8c4.1-8.2,1.1-14.3,1.1-14.3h-0.1
		c0.5-0.1,0.9-0.3,1.3-0.6l10,3.7c0.4,0.2,0.9,0.1,1.3,0c0.1,0.6,0.6,1.1,1.2,1.4l0.7,0.3c1,0.4,2.1-0.1,2.5-1.1l0.5-1.3
		c0.3-0.7,0.1-1.5-0.4-2.1c0.4,0,0.7-0.4,0.6-0.8c0-0.2-0.1-0.3-0.2-0.5c0.1-0.1,0.1-0.2,0.1-0.3l0,0c1.3,0.7,2.6,1.4,4,1.9
		c3,1.2,5.6,1.9,5.8,1.5S213.8,664.5,210.8,663.3z"/>
	<circle class="st3" cx="180.8" cy="667.1" r="3.7"/>
	<circle class="st3" cx="180.8" cy="667.1" r="2.5"/>
	<circle class="st4" cx="180.8" cy="667.1" r="2.5"/>
	<circle class="st3" cx="180.8" cy="667.1" r="1.6"/>
	<circle class="st5" cx="180.8" cy="667.1" r="1.6"/>
	<path class="st3" d="M177.5,659.9c0,0-6.2,2.2-8.8,10.4c0,0,0.1,1.3,2,0.8c0,0,2.9-10.6,11.5-9.3L177.5,659.9z"/>
	<path class="st3" d="M188.1,664.2c0,0,2.9,5.9-0.9,13.6c0,0-1,0.8-2-0.8c0,0,5.3-9.6-1.9-14.7L188.1,664.2z"/>
	<path class="st3" d="M180.5,653.1l9.7,3.9c1.1,0.5,1.7,1.8,1.2,2.9l-1.4,3.6c-0.5,1.1-1.8,1.7-2.9,1.2l-9.7-3.9
		c-1.1-0.5-1.7-1.8-1.2-2.9l1.4-3.6C178,653.2,179.3,652.6,180.5,653.1z"/>
	<path class="st3" d="M178.3,659.1l-10.7-4.7c-0.9-0.4-1.3-1.4-0.9-2.3l0.2-0.4c0.4-0.9,1.3-1.3,2.2-1l11,3.9
		c0.9,0.3,1.4,1.3,1.1,2.2v0.1l-0.5,1.2C180.2,659.1,179.2,659.5,178.3,659.1L178.3,659.1z"/>
	<path class="st3" d="M188.1,663.1l10.9,4.1c0.9,0.3,1.9-0.1,2.2-1l0.2-0.4c0.4-0.9,0-1.9-0.9-2.2l-10.6-4.9c-0.9-0.4-1.9,0-2.3,0.9
		c0,0,0,0,0,0.1l-0.5,1.2C186.7,661.7,187.1,662.7,188.1,663.1C188,663.1,188,663.1,188.1,663.1z"/>
	<path class="st4" d="M178.3,659.1l-10.7-4.7c-0.9-0.4-1.3-1.4-0.9-2.3l0.2-0.4c0.4-0.9,1.3-1.3,2.2-1l11,3.9
		c0.9,0.3,1.4,1.3,1.1,2.2v0.1l-0.5,1.2C180.2,659.1,179.2,659.5,178.3,659.1L178.3,659.1z"/>
	<path class="st4" d="M188.1,663.1l10.9,4.1c0.9,0.3,1.9-0.1,2.2-1l0.2-0.4c0.4-0.9,0-1.9-0.9-2.2l-10.6-4.9c-0.9-0.4-1.9,0-2.3,0.9
		c0,0,0,0,0,0.1l-0.5,1.2C186.7,661.7,187.1,662.7,188.1,663.1C188,663.1,188,663.1,188.1,663.1z"/>
	<path class="st3" d="M165.6,648.6l1.9,0.8c0.6,0.3,0.9,1,0.7,1.6l-1,2.4c-0.3,0.6-1,0.9-1.6,0.7l-1.9-0.8c-0.6-0.3-0.9-1-0.7-1.6
		l1-2.4C164.2,648.6,165,648.3,165.6,648.6z"/>
	<path class="st3" d="M202.7,663.6l1.9,0.8c0.6,0.3,0.9,1,0.7,1.6l-1,2.4c-0.3,0.6-1,0.9-1.6,0.7l-1.9-0.8c-0.6-0.3-0.9-1-0.7-1.6
		l1-2.4C201.4,663.6,202.1,663.3,202.7,663.6z"/>
	<path class="st3" d="M166.1,647.6l1.8,0.7c0.2,0.1,0.3,0.3,0.2,0.5l-0.2,0.6c-0.1,0.2-0.3,0.3-0.5,0.2l-1.8-0.7
		c-0.2-0.1-0.3-0.3-0.2-0.5l0.2-0.6C165.7,647.6,165.9,647.5,166.1,647.6z"/>
	<path class="st3" d="M167.3,645.6l0.9,0.4c0.3,0.1,0.4,0.4,0.3,0.7l-0.7,1.8c-0.1,0.3-0.4,0.4-0.7,0.3l-0.9-0.4
		c-0.3-0.1-0.4-0.4-0.3-0.7l0.7-1.8C166.7,645.6,167.1,645.5,167.3,645.6z"/>
	<ellipse transform="matrix(0.375 -0.927 0.927 0.375 -496.6935 553.6498)" class="st3" cx="162.3" cy="645.2" rx="0.8" ry="5.7"/>
	<ellipse transform="matrix(0.375 -0.927 0.927 0.375 -494.2231 565.2905)" class="st3" cx="172.1" cy="649.2" rx="0.8" ry="5.7"/>
	<path class="st3" d="M203.3,662.6l1.8,0.7c0.2,0.1,0.3,0.3,0.2,0.5l-0.2,0.6c-0.1,0.2-0.3,0.3-0.5,0.2l-1.8-0.7
		c-0.2-0.1-0.3-0.3-0.2-0.5l0.2-0.6C202.9,662.6,203.1,662.5,203.3,662.6z"/>
	<path class="st3" d="M204.5,660.6l0.9,0.4c0.3,0.1,0.4,0.4,0.3,0.7l-0.7,1.8c-0.1,0.3-0.4,0.4-0.7,0.3l-0.9-0.4
		c-0.3-0.1-0.4-0.4-0.3-0.7l0.7-1.8C203.9,660.7,204.2,660.5,204.5,660.6z"/>
	<ellipse transform="matrix(0.375 -0.927 0.927 0.375 -487.4159 597.6426)" class="st3" cx="199.5" cy="660.3" rx="0.8" ry="5.7"/>
	<ellipse transform="matrix(0.375 -0.927 0.927 0.375 -484.8956 609.0815)" class="st3" cx="209.3" cy="664.2" rx="0.8" ry="5.7"/>
	<ellipse transform="matrix(0.375 -0.927 0.927 0.375 -496.6935 553.6498)" class="st4" cx="162.3" cy="645.2" rx="0.8" ry="5.7"/>
	<ellipse transform="matrix(0.375 -0.927 0.927 0.375 -494.2231 565.2905)" class="st4" cx="172.1" cy="649.2" rx="0.8" ry="5.7"/>
	<ellipse transform="matrix(0.375 -0.927 0.927 0.375 -487.4159 597.6426)" class="st4" cx="199.5" cy="660.3" rx="0.8" ry="5.7"/>
	<ellipse transform="matrix(0.375 -0.927 0.927 0.375 -484.8956 609.0815)" class="st4" cx="209.3" cy="664.2" rx="0.8" ry="5.7"/>
	<path class="st3" d="M180.6,660.4l5,2c0.4,0.2,0.6,0.6,0.4,1l-0.5,1.2c-0.2,0.4-0.6,0.6-1,0.4l-5-2c-0.4-0.2-0.6-0.6-0.4-1l0.5-1.2
		C179.8,660.4,180.2,660.3,180.6,660.4z"/>
	<path class="st4" d="M180.6,660.4l5,2c0.4,0.2,0.6,0.6,0.4,1l-0.5,1.2c-0.2,0.4-0.6,0.6-1,0.4l-5-2c-0.4-0.2-0.6-0.6-0.4-1l0.5-1.2
		C179.8,660.4,180.2,660.3,180.6,660.4z"/>
</g>
<g class="st11">
	
		<linearGradient id="SVGID_6_" gradientUnits="userSpaceOnUse" x1="496.4945" y1="212.3741" x2="496.4945" y2="254.583" gradientTransform="matrix(0.9893 -0.1459 -0.1459 -0.9893 -48.0149 785.748)">
		<stop  offset="0" style="stop-color:#808080;stop-opacity:0.25"/>
		<stop  offset="0.54" style="stop-color:#808080;stop-opacity:0.12"/>
		<stop  offset="1" style="stop-color:#808080;stop-opacity:0.1"/>
	</linearGradient>
	<path class="st13" d="M451.3,456.3c-2.5,0.3-5,0.9-7.5,1.6l0,0c-0.1-1-1.1-1.7-2.1-1.5c-1,0.1-1.7,1.1-1.5,2.1l0,0
		c-2.6,0-5.1,0.3-7.6,0.6c-5.6,0.8-10,2.1-9.9,2.9s4.8,0.7,10.3-0.1c2.5-0.3,5-0.9,7.5-1.6l0,0c0,0.2,0.1,0.4,0.2,0.6
		c-0.5,0.5-0.6,1.3-0.1,1.8c0.1,0.1,0.2,0.2,0.3,0.2c-0.8,0.5-1.5,1.2-1.7,2.2c-0.6-0.3-1.2-0.5-1.8-0.4l-18.9,1.9
		c-1.7-1.7-4-2.5-6.4-2.2l-11.9,1.8c-2.4,0.4-4.4,1.8-5.5,4l-17.8,3.5c-0.6,0.1-1.1,0.4-1.5,0.8c-0.5-0.7-1.2-1.2-2-1.5
		c0.3-0.3,0.5-0.7,0.4-1.1c-0.1-0.5-0.5-1-1-1.1c0-0.2,0-0.4,0-0.5l0,0c2.6,0,5.1-0.3,7.6-0.6c5.6-0.8,10-2.1,9.9-2.9
		s-4.7-0.7-10.3,0.1c-2.5,0.3-5,0.9-7.5,1.6l0,0c-0.1-1-1.1-1.7-2.1-1.6l0,0c-1,0.2-1.7,1.1-1.5,2.1l0,0c-2.6,0-5.1,0.3-7.6,0.6
		c-5.6,0.8-10,2.1-9.9,2.9s4.8,0.8,10.4,0c2.5-0.3,5-0.9,7.5-1.6l0,0c0,0.2,0.1,0.4,0.2,0.6c-0.5,0.5-0.6,1.3-0.1,1.8
		c0.1,0.1,0.2,0.2,0.3,0.3c-1.2,0.7-1.9,2.1-1.7,3.5l0.3,2.3c0.2,1.9,2,3.2,3.8,2.9l0,0l1.3-0.2c1.1-0.2,2-0.8,2.5-1.8
		c0.6,0.4,1.4,0.6,2.1,0.6l17.6-2.1c0.7,0.8,1.5,1.5,2.5,2c-1.4,2-6.8,10.7-3.7,24.3c0,0,1.4,1.8,3.8-0.6c0,0-4-15,4.8-22.7
		c0.5,0.9,1.5,1.5,2.5,1.3l1.2-0.2c-2.4,1.4-3.6,4.1-3.2,6.8c0.4,3.6,3.6,6.2,7.2,5.8c3.6-0.4,6.2-3.6,5.8-7.2c0-0.2,0-0.3-0.1-0.5
		c-0.4-2.7-2.4-4.9-5-5.6l1.2-0.2c1-0.2,1.9-1,2-2c10.7,4.8,11.2,20.4,11.2,20.4c3,1.6,3.8-0.6,3.8-0.6c-1.1-15.9-11-22.5-11-22.5
		h-0.2c0.6-0.6,1-1.3,1.4-2.1l18.4-3.3c0.8-0.1,1.5-0.6,2-1.3c0.7,0.8,1.9,1.2,3,1.1l1.3-0.2c1.9-0.3,3.1-2.1,2.8-3.9l0,0l-0.3-2.3
		c-0.2-1.3-1.1-2.5-2.4-2.8c0.5-0.4,0.6-1.2,0.2-1.8c-0.2-0.2-0.5-0.4-0.8-0.5c0-0.2,0-0.4,0-0.5l0,0c2.6,0,5.1-0.3,7.6-0.6
		c5.6-0.8,10-2.1,9.9-2.9C461.5,455.4,456.9,455.4,451.3,456.3z"/>
	<circle class="st3" cx="409.5" cy="488.4" r="6.4"/>
	<circle class="st3" cx="409.5" cy="488.4" r="4.3"/>
	<circle class="st4" cx="409.5" cy="488.4" r="4.3"/>
	<circle class="st3" cx="409.5" cy="488.4" r="2.8"/>
	<circle class="st5" cx="409.5" cy="488.4" r="2.8"/>
	<path class="st3" d="M398.3,480.5c0,0-7.4,8.7-4,23.3c0,0,1.3,1.8,3.7-0.5c0,0-5-18.4,9.2-24.1L398.3,480.5z"/>
	<path class="st3" d="M417.9,477.6c0,0,9.6,6.2,10.6,21.2c0,0-0.7,2-3.7,0.5c0,0-0.6-19.1-15.7-20.4L417.9,477.6z"/>
	<path class="st3" d="M398.8,467.4l13.8-2c3.3-0.5,6.4,1.8,6.9,5.1l0.3,2.3c0.5,3.3-1.8,6.4-5.1,6.9l-13.8,2
		c-3.3,0.5-6.4-1.8-6.9-5.1l-0.3-2.3C393.2,471,395.5,467.9,398.8,467.4z"/>
	<path class="st3" d="M398.7,478.7l-20.2,2.4c-1.6,0.2-3.2-0.9-3.4-2.5l-0.1-0.8c-0.2-1.6,0.8-3.1,2.4-3.4l20-3.9
		c1.6-0.3,3.2,0.7,3.6,2.3c0,0.1,0,0.1,0,0.2l0.3,2.2C401.5,476.8,400.4,478.4,398.7,478.7C398.8,478.7,398.7,478.7,398.7,478.7z"/>
	<path class="st3" d="M416.9,476l20-3.5c1.6-0.2,2.8-1.8,2.5-3.4l-0.1-0.8c-0.2-1.6-1.7-2.7-3.3-2.5l-20.2,2.1
		c-1.7,0.1-2.9,1.6-2.7,3.2c0,0.1,0,0.1,0,0.2l0.3,2.2c0.2,1.6,1.8,2.8,3.4,2.5C416.8,476,416.9,476,416.9,476z"/>
	<path class="st4" d="M398.7,478.7l-20.2,2.4c-1.6,0.2-3.2-0.9-3.4-2.5l-0.1-0.8c-0.2-1.6,0.8-3.1,2.4-3.4l20-3.9
		c1.6-0.3,3.2,0.7,3.6,2.3c0,0.1,0,0.1,0,0.2l0.3,2.2C401.5,476.8,400.4,478.4,398.7,478.7C398.8,478.7,398.7,478.7,398.7,478.7z"/>
	<path class="st4" d="M416.9,476l20-3.5c1.6-0.2,2.8-1.8,2.5-3.4l-0.1-0.8c-0.2-1.6-1.7-2.7-3.3-2.5l-20.2,2.1
		c-1.7,0.1-2.9,1.6-2.7,3.2c0,0.1,0,0.1,0,0.2l0.3,2.2c0.2,1.6,1.8,2.8,3.4,2.5C416.8,476,416.9,476,416.9,476z"/>
	<path class="st3" d="M371.5,473.8l1.2-0.2c1.8-0.3,3.5,1,3.7,2.8l0.3,2.1c0.3,1.8-1,3.5-2.8,3.7l-1.2,0.2c-1.8,0.3-3.5-1-3.7-2.8
		l-0.3-2.1C368.4,475.7,369.7,474.1,371.5,473.8z"/>
	<path class="st3" d="M440.5,463.6l1.2-0.2c1.8-0.3,3.5,1,3.7,2.8l0.3,2.1c0.3,1.8-1,3.5-2.8,3.7l-1.2,0.2c-1.8,0.3-3.5-1-3.7-2.8
		l-0.3-2.1C437.4,465.6,438.7,463.9,440.5,463.6z"/>
	<path class="st3" d="M370.5,472l2.7-0.4c0.5-0.1,1.1,0.3,1.1,0.8l0.1,0.4c0.1,0.5-0.3,1.1-0.8,1.1l-2.7,0.4
		c-0.5,0.1-1.1-0.3-1.1-0.8l-0.1-0.4C369.6,472.6,370,472.1,370.5,472z"/>
	<path class="st3" d="M370.9,467.9l0.5-0.1c0.8-0.1,1.6,0.4,1.7,1.3l0.3,2.3c0.1,0.8-0.4,1.6-1.3,1.7l-0.5,0.1
		c-0.8,0.1-1.6-0.4-1.7-1.3l-0.3-2.3C369.5,468.8,370.1,468,370.9,467.9z"/>
	
		<ellipse transform="matrix(0.9893 -0.1459 0.1459 0.9893 -64.9565 57.9374)" class="st3" cx="362.5" cy="471.8" rx="9.9" ry="1.3"/>
	
		<ellipse transform="matrix(0.9893 -0.1459 0.1459 0.9893 -64.3837 60.5502)" class="st3" cx="380.6" cy="469.2" rx="9.9" ry="1.3"/>
	<path class="st3" d="M439.7,461.8l2.7-0.4c0.5-0.1,1.1,0.3,1.1,0.8l0.1,0.4c0.1,0.5-0.3,1.1-0.8,1.1l-2.7,0.4
		c-0.5,0.1-1.1-0.3-1.1-0.8l-0.1-0.4C438.7,462.4,439.1,461.9,439.7,461.8z"/>
	<path class="st3" d="M440,457.7l0.5-0.1c0.8-0.1,1.6,0.4,1.7,1.3l0.3,2.3c0.1,0.8-0.4,1.6-1.3,1.7l-0.5,0.1
		c-0.8,0.1-1.6-0.4-1.7-1.3l-0.3-2.3C438.6,458.6,439.2,457.8,440,457.7z"/>
	<ellipse transform="matrix(0.9893 -0.1459 0.1459 0.9893 -62.7438 67.911)" class="st3" cx="431.6" cy="461.7" rx="9.9" ry="1.3"/>
	<ellipse transform="matrix(0.9893 -0.1459 0.1459 0.9893 -62.155 70.5376)" class="st3" cx="449.8" cy="459" rx="9.9" ry="1.3"/>
	
		<ellipse transform="matrix(0.9893 -0.1459 0.1459 0.9893 -64.9565 57.9374)" class="st4" cx="362.5" cy="471.8" rx="9.9" ry="1.3"/>
	
		<ellipse transform="matrix(0.9893 -0.1459 0.1459 0.9893 -64.3837 60.5502)" class="st4" cx="380.6" cy="469.2" rx="9.9" ry="1.3"/>
	<ellipse transform="matrix(0.9893 -0.1459 0.1459 0.9893 -62.7438 67.911)" class="st4" cx="431.6" cy="461.7" rx="9.9" ry="1.3"/>
	<ellipse transform="matrix(0.9893 -0.1459 0.1459 0.9893 -62.155 70.5376)" class="st4" cx="449.8" cy="459" rx="9.9" ry="1.3"/>
	<path class="st3" d="M404.1,478.4l7.8-1.1c1.1-0.2,2.1,0.6,2.3,1.7l0.1,0.8c0.2,1.1-0.6,2.1-1.7,2.3l-7.8,1.1
		c-1.1,0.2-2.1-0.6-2.3-1.7l-0.1-0.8C402.2,479.6,403,478.6,404.1,478.4z"/>
	<path class="st4" d="M404.1,478.4l7.8-1.1c1.1-0.2,2.1,0.6,2.3,1.7l0.1,0.8c0.2,1.1-0.6,2.1-1.7,2.3l-7.8,1.1
		c-1.1,0.2-2.1-0.6-2.3-1.7l-0.1-0.8C402.2,479.6,403,478.6,404.1,478.4z"/>
</g>
<ellipse transform="matrix(0.2025 -0.9793 0.9793 0.2025 210.2709 716.7852)" class="st1" cx="545.2" cy="229.3" rx="12.5" ry="82.7"/>
<ellipse class="st1" cx="281.9" cy="627" rx="23.1" ry="3.5"/>
<ellipse transform="matrix(0.1734 -0.9848 0.9848 0.1734 -3.9029 527.4271)" class="st1" cx="312.3" cy="266" rx="9" ry="59.6"/>
<ellipse transform="matrix(0.995 -9.949823e-02 9.949823e-02 0.995 -50.1806 43.786)" class="st1" cx="413.9" cy="525" rx="34.4" ry="5.2"/>
<ellipse transform="matrix(0.375 -0.927 0.927 0.375 -533.2166 590.8948)" class="st1" cx="171.6" cy="690.9" rx="3" ry="19.7"/>
<path class="st14" d="M751.6,264.8l-3.5,1.2l-0.2-1.7C748,264.3,747.8,265.2,751.6,264.8z"/>
<path class="st15" d="M72.9,117.5"/>
<polygon class="st16" points="675.2,249 696.1,267 672.5,278.8 682.4,287.4 631.5,311.6 659,288.3 650.2,280.6 670.7,268.7 
	661,260.3 "/>
<polygon class="st16" points="136.8,334.5 114.6,346.1 134.1,363.4 123.5,369 165.6,405.1 144.7,375.9 154,371 137.5,354.3 
	147.8,348.9 "/>
</svg>
