<?xml version="1.0" encoding="utf-8"?>
<!-- Generator: Adobe Illustrator 25.3.1, SVG Export Plug-In . SVG Version: 6.00 Build 0)  -->
<svg version="1.1" id="d8951433-2714-4e95-856e-ed301a2a6756"
	 xmlns="http://www.w3.org/2000/svg" xmlns:xlink="http://www.w3.org/1999/xlink" x="0px" y="0px" viewBox="0 0 770 770.1"
	 style="enable-background:new 0 0 770 770.1;" xml:space="preserve">
<style type="text/css">
	.st0{opacity:0.1;enable-background:new    ;}
	.st1{fill:#E4E4E4;}
	.st2{fill:#CACACA;}
	.st3{fill:#FFFFFF;}
	.st4{opacity:0.8;fill:none;stroke:#536DFE;stroke-width:2;stroke-miterlimit:10;enable-background:new    ;}
	.st5{fill:#536DFE;}
	.st6{fill:#3F3D56;}
	.st7{fill:#2F2E41;}
</style>
<path class="st0" d="M751.6,264.8l-3.5,1.2l-0.2-1.7C748,264.3,747.8,265.2,751.6,264.8z"/>
<rect x="542.4" y="43.6" class="st1" width="9.3" height="23.8"/>
<path class="st1" d="M567.8,65.5v239.7c-11.8-1.8-23.5-4.6-34.9-8.4c-2.2-0.7-4.4-1.5-6.6-2.3c-0.6-0.2-1.2-0.4-1.8-0.7
	c-2.5-0.9-4.9-1.9-7.3-2.9c-2-0.9-4.1-1.7-6.1-2.7c-2-0.9-3.9-1.9-5.9-2.8c-3.2-1.6-6.4-3.3-9.5-5c-2.4-1.4-4.8-2.8-7.1-4.3V65.5
	H567.8z"/>
<path class="st2" d="M599.7,65.5v242.1c-3.8,0-7.5-0.1-11.3-0.3c-1.1-0.1-2.2-0.1-3.2-0.2c-5.7-0.4-11.4-1-17-1.9
	c-0.1,0-0.2,0-0.3-0.1V65.5H599.7z"/>
<rect x="502.9" y="89.3" class="st3" width="12" height="12.2"/>
<rect x="522.2" y="89.3" class="st3" width="12" height="12.2"/>
<rect x="541.5" y="89.3" class="st3" width="12" height="12.2"/>
<rect x="503.3" y="117.2" class="st3" width="12" height="12.2"/>
<rect x="522.5" y="117.2" class="st3" width="12" height="12.2"/>
<rect x="541.8" y="117.2" class="st3" width="12" height="12.2"/>
<rect x="503.6" y="145.1" class="st3" width="12" height="12.2"/>
<rect x="522.9" y="145.1" class="st3" width="12" height="12.2"/>
<rect x="542.2" y="145.1" class="st3" width="12" height="12.2"/>
<rect x="503.9" y="173" class="st3" width="12" height="12.2"/>
<rect x="523.2" y="173" class="st3" width="12" height="12.2"/>
<rect x="542.5" y="173" class="st3" width="12" height="12.2"/>
<rect x="504.3" y="200.9" class="st3" width="12" height="12.2"/>
<rect x="523.5" y="200.9" class="st3" width="12" height="12.2"/>
<rect x="542.8" y="200.9" class="st3" width="12" height="12.2"/>
<rect x="504.6" y="228.8" class="st3" width="12" height="12.2"/>
<rect x="523.9" y="228.8" class="st3" width="12" height="12.2"/>
<rect x="543.2" y="228.8" class="st3" width="12" height="12.2"/>
<rect x="504.9" y="256.7" class="st3" width="12" height="12.2"/>
<rect x="524.2" y="256.7" class="st3" width="12" height="12.2"/>
<rect x="543.5" y="256.7" class="st3" width="12" height="12.2"/>
<path class="st3" d="M517.2,284.6v6.4c-2-0.9-4.1-1.7-6.1-2.7c-2-0.9-3.9-1.9-5.9-2.8v-0.8h12V284.6z"/>
<path class="st3" d="M536.5,284.6v12.2h-3.6c-2.2-0.7-4.4-1.5-6.6-2.3c-0.6-0.2-1.2-0.4-1.8-0.7v-9.3L536.5,284.6z"/>
<rect x="543.8" y="284.6" class="st3" width="12" height="12.2"/>
<rect x="650.9" y="164.8" class="st1" width="9.3" height="14.1"/>
<path class="st1" d="M667.5,177.7V296c-21.8,7.8-44.8,11.6-67.8,11.6c-3.8,0-7.5-0.1-11.3-0.3V177.7H667.5z"/>
<path class="st2" d="M699.4,177.7v103.2c-6.1,3.7-12.4,7.1-18.9,9.9c-4.3,1.9-8.6,3.6-13,5.2V177.7H699.4z"/>
<rect x="604" y="200.9" class="st3" width="12" height="12.2"/>
<rect x="623.3" y="200.9" class="st3" width="12" height="12.2"/>
<rect x="642.6" y="200.9" class="st3" width="12" height="12.2"/>
<rect x="604.3" y="228.8" class="st3" width="12" height="12.2"/>
<rect x="623.6" y="228.8" class="st3" width="12" height="12.2"/>
<rect x="642.9" y="228.8" class="st3" width="12" height="12.2"/>
<rect x="604.7" y="256.7" class="st3" width="12" height="12.2"/>
<rect x="624" y="256.7" class="st3" width="12" height="12.2"/>
<rect x="643.2" y="256.7" class="st3" width="12" height="12.2"/>
<rect x="605" y="284.6" class="st3" width="12" height="12.2"/>
<rect x="624.3" y="284.6" class="st3" width="12" height="12.2"/>
<rect x="643.6" y="284.6" class="st3" width="12" height="12.2"/>
<rect x="238" y="290.3" class="st1" width="10.8" height="28.8"/>
<path class="st1" d="M219.3,316.8v289.9c13.8-2.2,27.4-5.5,40.6-10.1c2.6-0.9,5.1-1.8,7.7-2.8c0.7-0.3,1.4-0.5,2.1-0.8
	c2.9-1.1,5.7-2.3,8.5-3.5c2.4-1,4.7-2.1,7.1-3.2c2.3-1.1,4.6-2.2,6.9-3.4c3.7-1.9,7.4-4,11-6.1c2.8-1.7,5.6-3.4,8.3-5.1V316.8H219.3
	z"/>
<path class="st2" d="M182.1,316.8v292.8c4.4,0,8.8-0.1,13.2-0.4c1.3-0.1,2.5-0.1,3.8-0.2c6.6-0.5,13.2-1.2,19.8-2.2
	c0.1,0,0.3,0,0.4-0.1V316.8H182.1z"/>
<rect x="280.9" y="345.6" class="st3" width="13.9" height="14.8"/>
<rect x="258.4" y="345.6" class="st3" width="13.9" height="14.8"/>
<rect x="235.9" y="345.6" class="st3" width="13.9" height="14.8"/>
<rect x="280.5" y="379.3" class="st3" width="13.9" height="14.8"/>
<rect x="258" y="379.3" class="st3" width="13.9" height="14.8"/>
<rect x="235.6" y="379.3" class="st3" width="13.9" height="14.8"/>
<rect x="280.1" y="413.1" class="st3" width="13.9" height="14.8"/>
<rect x="257.6" y="413.1" class="st3" width="13.9" height="14.8"/>
<rect x="235.2" y="413.1" class="st3" width="13.9" height="14.8"/>
<rect x="279.7" y="446.8" class="st3" width="13.9" height="14.8"/>
<rect x="257.2" y="446.8" class="st3" width="13.9" height="14.8"/>
<rect x="234.8" y="446.8" class="st3" width="13.9" height="14.8"/>
<rect x="279.3" y="480.5" class="st3" width="13.9" height="14.8"/>
<rect x="256.9" y="480.5" class="st3" width="13.9" height="14.8"/>
<rect x="234.4" y="480.5" class="st3" width="13.9" height="14.8"/>
<rect x="278.9" y="514.3" class="st3" width="13.9" height="14.8"/>
<rect x="256.5" y="514.3" class="st3" width="13.9" height="14.8"/>
<rect x="234" y="514.3" class="st3" width="13.9" height="14.8"/>
<rect x="278.5" y="548" class="st3" width="13.9" height="14.8"/>
<rect x="256.1" y="548" class="st3" width="13.9" height="14.8"/>
<rect x="233.6" y="548" class="st3" width="13.9" height="14.8"/>
<path class="st3" d="M278.1,581.7v7.7c2.4-1,4.7-2.1,7.1-3.2c2.3-1.1,4.6-2.2,6.9-3.4v-1L278.1,581.7L278.1,581.7z"/>
<path class="st3" d="M255.7,581.7v14.8h4.2c2.6-0.9,5.1-1.8,7.7-2.8c0.7-0.3,1.4-0.5,2.1-0.8v-11.2H255.7z"/>
<rect x="233.2" y="581.7" class="st3" width="13.9" height="14.8"/>
<rect x="111.7" y="436.9" class="st1" width="10.8" height="17.1"/>
<path class="st1" d="M103.1,452.5v143c25.3,9.4,52.1,14,79,14c4.4,0,8.8-0.1,13.2-0.4V452.5H103.1z"/>
<path class="st2" d="M66,452.5v124.8c7.1,4.5,14.5,8.5,22,12c5,2.3,10,4.4,15.1,6.3v-143L66,452.5L66,452.5z"/>
<rect x="163.2" y="480.5" class="st3" width="13.9" height="14.8"/>
<rect x="140.7" y="480.5" class="st3" width="13.9" height="14.8"/>
<rect x="118.2" y="480.5" class="st3" width="13.9" height="14.8"/>
<rect x="162.8" y="514.3" class="st3" width="13.9" height="14.8"/>
<rect x="140.3" y="514.3" class="st3" width="13.9" height="14.8"/>
<rect x="117.9" y="514.3" class="st3" width="13.9" height="14.8"/>
<rect x="162.4" y="548" class="st3" width="13.9" height="14.8"/>
<rect x="139.9" y="548" class="st3" width="13.9" height="14.8"/>
<rect x="117.5" y="548" class="st3" width="13.9" height="14.8"/>
<rect x="162" y="581.7" class="st3" width="13.9" height="14.8"/>
<rect x="139.5" y="581.7" class="st3" width="13.9" height="14.8"/>
<rect x="117.1" y="581.7" class="st3" width="13.9" height="14.8"/>
<path class="st4" d="M662.5,273.7c0,0-199,113.4-219.2,198c0,0-67.1,166-37.2,205.8c0,0-193.9-41.4-209.4-26.3"/>
<path class="st4" d="M406.1,677.5c-66.7-73.6-16.9-381.8-16.9-381.8c-10,42.2,54.1,176.1,54.1,176.1S229,564.1,196.7,651.1
	c0,0,206.3-348.3,465.7-377.4"/>
<ellipse transform="matrix(0.4789 -0.8779 0.8779 0.4789 -469.1242 511.9088)" class="st5" cx="196.6" cy="651.1" rx="8.5" ry="9.2"/>
<ellipse transform="matrix(0.4789 -0.8779 0.8779 0.4789 -383.1259 709.4654)" class="st5" cx="406.1" cy="677.5" rx="8.5" ry="9.2"/>
<ellipse transform="matrix(0.4789 -0.8779 0.8779 0.4789 -56.7793 495.7549)" class="st5" cx="389.2" cy="295.7" rx="8.5" ry="9.2"/>
<ellipse transform="matrix(0.4789 -0.8779 0.8779 0.4789 104.93 724.1393)" class="st5" cx="662.4" cy="273.7" rx="8.5" ry="9.2"/>
<ellipse transform="matrix(0.4789 -0.8779 0.8779 0.4789 -183.125 634.8763)" class="st5" cx="443.2" cy="471.7" rx="8.5" ry="9.2"/>
<path class="st3" d="M365,271.3c-0.7,0.2-1.4,0.5-2.2,0.7v-0.7H365z"/>
<path class="st3" d="M426.9,289.3v3.6c-1.2-0.5-2.3-1-3.5-1.5c-1.1-0.5-2.3-1-3.4-1.6v-0.5H426.9z"/>
<path class="st6" d="M473.1,304.4c0,0,2.4,8.7,12.7,8.3s14.7-8.5,14.7-8.5L473.1,304.4z"/>
<polygon class="st7" points="332.1,270.4 329.1,275.7 329.6,285.8 399.7,306.7 430.2,310.5 424.2,274 403.3,270.3 372,271.2 
	345.5,266.3 "/>
<path class="st6" d="M341.8,305.7H340c-3.6,0-6.8-2.1-8.3-5.3c-2.8-6.1-2-14.5-2-14.7c0.6-7.3,4.6-12.1,9.9-11.8
	c5.9,0.2,10.8,20.5,11.1,21.4c0.3,1.5,0.3,3-0.3,4.4C349.1,303.3,345.7,305.7,341.8,305.7z"/>
<path class="st6" d="M415.6,319.7c-0.3,0-0.6,0-0.9-0.1c-4.8-0.8-8.8-3.9-10.8-8.2c-0.7-1.6-1.4-3.2-2.1-4.9
	c-2.6-6.5-0.4-18,3.2-22.4c3.2-3.9,6.4-3.9,11.2-3.8c0.5,0,1,0,1.5,0c5.4,0,11.1,19.8,12.9,26.4c0.1,0.5,0.3,0.9,0.4,1.3
	c0.3,1,0.3,2.2-0.1,3.5c-1.1,4.2-4.9,7.4-9.3,7.8C418.3,319.5,416.3,319.7,415.6,319.7z"/>
<path class="st6" d="M329.6,285.8c0,0-2.1-9.2,1-15.5l3.1-7.5l11.7,10.9l2.7,17.1l45.9,7c0,0-2.8-28.1,15-29.2s26.3,29.2,26.3,29.2
	l8.9,6.5l62.1-4.6c0,0,1.1,3-0.5,4.6s-76.9,6.5-76.9,6.5s-3.8-37.6-18.8-34.1s-10.5,29.9-10.5,29.9l-53.6-9.5
	c0,0-1.7-25.5-10.6-25.5S329.6,285.8,329.6,285.8z"/>
<polygon class="st6" points="340.1,253.7 350.2,237.8 393.4,235.3 441.2,235.9 463.5,256.7 394.6,260.6 339.2,257.6 "/>
<path class="st5" d="M341.3,253.8c0,0-8.6,0.2-9.6,16.5c0,0,9.2-16.6,17.1,20.4l47.2,7.7c0,0-1.7-30.9,16.1-28.5
	c17.9,2.4,22.1,30.7,22.1,30.7s3.5,7,22.6,5.9s47.7-2.9,50.7-6.8c0,0,7-23.6-14.7-38.8l-28.1-4.1L401,258L341.3,253.8z"/>
<path class="st2" d="M361.8,265h-5.4c-0.6,0-1.1-0.5-1.1-1.1s0.5-1.1,1.1-1.1l0,0h5.4c0.6,0,1.1,0.5,1.1,1.1S362.4,265,361.8,265z"
	/>
<ellipse class="st3" cx="443.5" cy="296" rx="3.5" ry="3.5"/>
<path class="st3" d="M441.8,278.9c-2.4,0-5.2-1-7.8-3c-4.5-3.5-6.4-8.6-4.2-11.4c2.2-2.8,7.6-2.3,12.1,1.2c2.2,1.7,3.8,3.8,4.6,5.9
	c0.8,2.2,0.7,4.1-0.4,5.5C445.2,278.3,443.6,278.9,441.8,278.9z"/>
<path class="st3" d="M503.6,274.4c-1.8,0-4.9-1.8-8-4.7c-1.9-1.7-3.4-3.6-4.4-5.2c-1-1.7-1.2-2.9-0.6-3.5s1.8-0.5,3.5,0.3
	s3.7,2.2,5.5,3.9c3.9,3.7,6.1,7.5,5,8.7C504.4,274.3,504,274.5,503.6,274.4z"/>
<path class="st3" d="M356.7,253.9h-0.1l-11.4-1.1c-0.7-0.1-1.2-0.7-1.1-1.3c0-0.2,0.1-0.4,0.2-0.5l6.4-10.4c0.2-0.3,0.6-0.6,1-0.6
	l8.5-0.4c0.7,0,1.3,0.5,1.3,1.2c0,0.1,0,0.3-0.1,0.4l-3.5,11.9C357.8,253.5,357.3,253.9,356.7,253.9z"/>
<path class="st3" d="M386.8,256.3c-0.1,0-0.2,0-0.3,0l-19.8-2c-1.9-0.2-3.3-1.9-3.1-3.8c0-0.2,0.1-0.4,0.1-0.6l2.8-10.5
	c0.4-1.5,1.7-2.5,3.2-2.5l15.9-0.6c1.8-0.1,3.3,1.3,3.5,3.1l1.3,11.4c0,0.4,0,0.8-0.1,1.1l-0.3,1.6
	C389.9,255.2,388.5,256.3,386.8,256.3z"/>
<path class="st3" d="M399.5,257.5c-1.2,0-2.2-0.8-2.5-2l-3.5-15.1c-0.3-1.4,0.5-2.8,1.9-3.1c0.2,0,0.4-0.1,0.6-0.1h41.3
	c0.7,0,1.4,0.3,1.8,0.8l13.5,14c1,1,1,2.6-0.1,3.6c-0.5,0.5-1.1,0.7-1.7,0.7L399.5,257.5C399.6,257.5,399.5,257.5,399.5,257.5z"/>
<path class="st5" d="M350,238.5l0.4-0.6c0,0,2.1-5.7,30.3-6.7s54.7-0.5,60.7,4.8l-48.8-0.2l-41.2,2.9L350,238.5z"/>
<path class="st1" d="M336.6,279.2c-3,0-5.4,5-5.4,11.1s2.4,11.1,5.4,11.1s5.4-5,5.4-11.1C341.9,284.1,339.5,279.2,336.6,279.2z
	 M336.8,281.6c0.7,0,1.2,1.3,1.2,2.9s-0.5,2.9-1.2,2.9s-1.2-1.3-1.2-2.9S336.1,281.6,336.8,281.6z M337.5,290.3c0,0.5-0.4,1-0.8,1
	s-0.8-0.4-0.8-1c0-0.5,0.4-1,0.8-1S337.5,289.7,337.5,290.3L337.5,290.3z M333.4,290.9c-1,0.1-1.9-0.2-1.9-0.6s0.8-0.8,1.8-0.9
	s1.9,0.2,1.9,0.6C335.2,290.4,334.4,290.8,333.4,290.9L333.4,290.9z M336.8,299c-0.7,0-1.2-1.3-1.2-2.9s0.5-2.9,1.2-2.9
	s1.2,1.3,1.2,2.9S337.5,299,336.8,299L336.8,299z M339.9,290.9c-1,0.1-1.9-0.2-1.9-0.6s0.8-0.8,1.8-0.9s1.9,0.2,1.9,0.6
	C341.7,290.4,340.9,290.8,339.9,290.9L339.9,290.9z"/>
<path class="st1" d="M411.6,286.6c-4.7,0-8.5,6.4-8.5,14.2c0,7.8,3.8,14.2,8.5,14.2s8.5-6.4,8.5-14.2
	C420.2,293,416.3,286.6,411.6,286.6z M406.5,301.9c-1.4,0.1-2.5-0.3-2.6-0.8c0-0.6,1-1.1,2.4-1.2s2.5,0.3,2.6,0.8
	C409,301.2,407.9,301.8,406.5,301.9L406.5,301.9z M411.6,312.7c-0.9,0-1.6-1.7-1.6-3.9s0.7-3.9,1.6-3.9s1.6,1.7,1.6,3.9
	S412.5,312.7,411.6,312.7L411.6,312.7z M410.4,300.9c0-0.8,0.6-1.5,1.3-1.5s1.3,0.7,1.3,1.5s-0.6,1.5-1.3,1.5
	C410.9,302.4,410.4,301.7,410.4,300.9L410.4,300.9z M411.6,296.8c-0.9,0-1.6-1.7-1.6-3.9c0-2.1,0.7-3.9,1.6-3.9s1.6,1.7,1.6,3.9
	C413.2,295.1,412.5,296.8,411.6,296.8L411.6,296.8z M417,301.6c-1.4,0.1-2.5-0.3-2.6-0.8s1-1.1,2.4-1.2s2.5,0.3,2.6,0.8
	S418.4,301.4,417,301.6z"/>
<path class="st2" d="M381.8,258.3l1.9,4.4c0,0,3.2,1.3,5.2-3l-4.2-4.2L381.8,258.3z"/>
<path class="st2" d="M379.1,259.3c-3.4,0-6.2-1.8-6.2-4.1c0-2.3,2.8-4.1,6.2-4.1c3.4,0,6.2,1.8,6.2,4.1
	C385.3,257.4,382.5,259.3,379.1,259.3z"/>
<path class="st6" d="M497.1,273.6l-35.3,1c0,0-7.7,2.2-8.5,8.4c0,0,1.1,5.1,3.9,5.1s46.4-2.3,46.4-2.3s2.8-4.4,0.5-7.5
	C501.7,275.3,497.1,273.6,497.1,273.6z"/>
<rect x="459.6" y="276.5" transform="matrix(0.9995 -3.314350e-02 3.314350e-02 0.9995 -8.909 16.0734)" class="st1" width="41.5" height="0.5"/>
<rect x="457.5" y="278.3" transform="matrix(0.999 -4.539708e-02 4.539708e-02 0.999 -12.1507 22.0808)" class="st1" width="45.1" height="0.5"/>
<rect x="455.8" y="280.6" transform="matrix(0.9986 -5.378366e-02 5.378366e-02 0.9986 -14.411 26.2239)" class="st1" width="48.4" height="0.5"/>
<path class="st3" d="M293.1,592.2c1.1,0.4,2.2,0.8,3.2,1.2v-1.2H293.1z"/>
<path class="st3" d="M200.4,620.7v5.7c1.8-0.8,3.5-1.6,5.2-2.4c1.7-0.8,3.4-1.7,5.1-2.5v-0.8H200.4z"/>
<path class="st6" d="M131.1,644.6c0,0-3.7,13.8-19,13.2s-22-13.4-22-13.4L131.1,644.6z"/>
<polygon class="st7" points="342.6,590.7 346.9,599.2 346.2,615.2 241.2,648.3 195.4,654.2 204.4,596.4 235.7,590.5 282.6,592 
	322.4,584.2 "/>
<path class="st6" d="M327.9,646.7h2.7c5.4,0,10.2-3.3,12.5-8.4c4.2-9.7,2.9-23,2.9-23.2c-0.9-11.6-6.9-19.1-14.9-18.8
	c-8.8,0.4-16.3,32.6-16.6,33.9c-0.5,2.3-0.4,4.7,0.4,7C317,642.9,322.2,646.7,327.9,646.7z"/>
<path class="st6" d="M217.4,668.8c0.5,0,0.9-0.1,1.4-0.1c7.1-1.2,13.2-6.1,16.2-13.1c1.1-2.5,2.2-5.1,3.1-7.7
	c4-10.4,0.6-28.5-4.8-35.5c-4.8-6.2-9.6-6.1-16.8-6.1c-0.7,0-1.5,0-2.3,0c-8.1,0-16.6,31.4-19.4,41.7c-0.2,0.8-0.4,1.5-0.5,2
	c-0.4,1.6-0.4,3.4,0.2,5.6c1.7,6.7,7.3,11.7,14,12.4C213.2,668.5,216.2,668.8,217.4,668.8z"/>
<path class="st6" d="M346.2,615.2c0,0,3.1-14.6-1.5-24.5l-4.7-11.9l-17.6,17.3l-4,27.1l-68.8,11.1c0,0,4.3-44.4-22.5-46.2
	s-39.5,46.2-39.5,46.2l-13.4,10.3l-93.1-7.3c0,0-1.6,4.8,0.7,7.3c2.4,2.5,115.4,10.3,115.4,10.3s5.7-59.5,28.2-54
	s15.8,47.4,15.8,47.4l80.4-15c0,0,2.6-40.4,15.9-40.4C350.7,592.8,346.2,615.2,346.2,615.2z"/>
<polygon class="st6" points="330.5,564.3 315.3,539.1 250.7,535.1 178.9,536.1 145.5,569 248.8,575.3 331.9,570.5 "/>
<path class="st5" d="M328.7,564.4c0,0,12.9,0.3,14.3,26.1c0,0-13.7-26.4-25.6,32.4l-70.7,12.2c0,0,2.6-49-24.2-45.2
	s-33.2,48.7-33.2,48.7s-5.2,11-33.9,9.3s-71.5-4.5-76-10.8c0,0-10.4-37.4,22-61.5l42.2-6.5l95.5,2L328.7,564.4z"/>
<path class="st2" d="M298,582.2h8.1c0.9,0,1.7-0.8,1.7-1.8s-0.7-1.8-1.7-1.8l0,0H298c-0.9,0-1.7,0.8-1.7,1.8
	C296.4,581.4,297.1,582.2,298,582.2z"/>
<ellipse class="st3" cx="175.4" cy="631.3" rx="5.2" ry="5.5"/>
<path class="st3" d="M178,604.1c3.6,0,7.8-1.6,11.6-4.7c6.7-5.5,9.6-13.6,6.3-18.1s-11.4-3.6-18.1,1.8c-3.3,2.7-5.7,6-6.9,9.4
	s-1,6.5,0.6,8.7C173,603.2,175.3,604.1,178,604.1z"/>
<path class="st3" d="M85.4,597.1c2.6,0,7.3-2.8,12-7.4c2.8-2.7,5.1-5.7,6.5-8.3s1.8-4.6,0.9-5.6c-0.8-1-2.7-0.8-5.3,0.5
	c-2.6,1.3-5.5,3.5-8.3,6.2c-5.9,5.8-9.2,11.9-7.4,13.9C84.2,597,84.8,597.2,85.4,597.1z"/>
<path class="st3" d="M305.6,564.6c0.1,0,0.1,0,0.2,0l17.1-1.7c1-0.1,1.8-1.1,1.7-2.1c0-0.3-0.1-0.6-0.3-0.8l-9.7-16.5
	c-0.3-0.5-0.9-0.9-1.5-0.9l-12.8-0.6c-1,0-1.9,0.8-1.9,1.9c0,0.2,0,0.4,0.1,0.6l5.3,18.8C304,564,304.7,564.6,305.6,564.6z"/>
<path class="st3" d="M260.4,568.4c0.2,0,0.3,0,0.5,0l29.6-3.1c2.8-0.3,4.9-3,4.6-6c0-0.3-0.1-0.6-0.2-0.9l-4.3-16.6
	c-0.6-2.3-2.5-4-4.8-4l-23.9-0.9c-2.7-0.1-5,2-5.3,4.8l-2,18c-0.1,0.6,0,1.2,0.1,1.8l0.5,2.5C255.9,566.6,258,568.4,260.4,568.4z"/>
<path class="st3" d="M241.4,570.3c1.8,0,3.3-1.3,3.7-3.2l5.2-23.9c0.5-2.2-0.8-4.4-2.9-4.9c-0.3-0.1-0.6-0.1-0.9-0.1h-62
	c-1,0-2,0.4-2.8,1.2l-20.2,22.1c-1.5,1.6-1.4,4.2,0.1,5.8c0.7,0.7,1.6,1.1,2.6,1.1L241.4,570.3L241.4,570.3z"/>
<path class="st5" d="M315.7,540.2l-0.5-0.9c0,0-3.1-9-45.5-10.5s-82-0.8-91,7.5l73.2-0.3l61.8,4.5L315.7,540.2z"/>
<path class="st1" d="M335.8,604.6c4.4,0,8.1,7.9,8.1,17.6s-3.6,17.6-8.1,17.6c-4.4,0-8.1-7.9-8.1-17.6
	C327.8,612.5,331.4,604.6,335.8,604.6z M335.5,608.4c-1,0-1.8,2-1.8,4.5s0.8,4.5,1.8,4.5s1.8-2,1.8-4.5
	C337.2,610.4,336.4,608.4,335.5,608.4z M334.4,622.2c0,0.8,0.5,1.5,1.2,1.5s1.2-0.7,1.2-1.5s-0.5-1.5-1.2-1.5
	S334.4,621.4,334.4,622.2L334.4,622.2z M340.6,623.2c1.5,0.1,2.8-0.3,2.8-1s-1.1-1.3-2.7-1.4c-1.5-0.1-2.8,0.3-2.8,1
	C337.9,622.4,339.1,623.1,340.6,623.2L340.6,623.2z M335.5,636c1,0,1.8-2,1.8-4.5s-0.8-4.5-1.8-4.5s-1.8,2-1.8,4.5
	S334.5,636,335.5,636L335.5,636z M330.9,623.2c1.5,0.1,2.8-0.3,2.8-1s-1.1-1.3-2.7-1.4c-1.5-0.1-2.8,0.3-2.8,1
	C328.1,622.4,329.3,623.1,330.9,623.2L330.9,623.2z"/>
<path class="st1" d="M223.3,616.4c7.1,0,12.8,10.1,12.8,22.5s-5.7,22.5-12.8,22.5s-12.8-10.1-12.8-22.5S216.2,616.4,223.3,616.4z
	 M230.9,640.6c2.1,0.2,3.8-0.4,3.9-1.3c0.1-0.9-1.6-1.8-3.6-2c-2.1-0.2-3.8,0.4-3.9,1.3C227.2,639.6,228.9,640.4,230.9,640.6
	L230.9,640.6z M223.3,657.7c1.3,0,2.4-2.7,2.4-6.1c0-3.4-1.1-6.1-2.4-6.1c-1.3,0-2.4,2.7-2.4,6.1C220.9,655,221.9,657.7,223.3,657.7
	L223.3,657.7z M225.2,639c0-1.3-0.8-2.4-1.9-2.4s-1.9,1.1-1.9,2.4c0,1.3,0.8,2.4,1.9,2.4C224.3,641.4,225.2,640.4,225.2,639
	L225.2,639z M223.3,632.6c1.3,0,2.4-2.7,2.4-6.1s-1.1-6.1-2.4-6.1c-1.3,0-2.4,2.7-2.4,6.1C220.9,629.8,221.9,632.6,223.3,632.6
	L223.3,632.6z M215.2,640.1c2.1,0.2,3.8-0.4,3.9-1.3c0.1-0.9-1.6-1.8-3.6-2c-2.1-0.2-3.8,0.4-3.9,1.3
	C211.5,639,213.1,639.9,215.2,640.1z"/>
<path class="st2" d="M268.1,571.5l-2.8,7c0,0-4.7,2-7.8-4.8l6.2-6.6L268.1,571.5z"/>
<path class="st2" d="M272,573.1c5.1,0,9.2-2.9,9.2-6.5s-4.1-6.5-9.2-6.5s-9.2,2.9-9.2,6.5C262.7,570.2,266.9,573.1,272,573.1z"/>
<path class="st6" d="M95.2,595.8l53,1.6c0,0,11.6,3.4,12.8,13.3c0,0-1.7,8-5.9,8c-4.3,0-69.5-3.6-69.5-3.6s-4.3-6.9-0.7-11.8
	C88.3,598.4,95.2,595.8,95.2,595.8z"/>
<polygon class="st1" points="151.3,601.4 89.2,599.2 89.2,600 151.3,602.2 "/>
<polygon class="st1" points="154.5,604.9 87,601.6 86.9,602.4 154.5,605.6 "/>
<polygon class="st1" points="157,609 84.6,604.9 84.6,605.6 157,609.7 "/>
<path class="st3" d="M688.8,283.3c0.3,0.2,0.7,0.3,1,0.5v-0.4L688.8,283.3z"/>
<path class="st3" d="M659.2,293.6v2.2c0.6-0.3,1.1-0.6,1.7-0.9c0.5-0.3,1.1-0.6,1.6-0.9v-0.3L659.2,293.6z"/>
<path class="st6" d="M637,302.2c0,0-1.3,5.2-6.1,4.9c-4.9-0.3-6.9-5.3-6.9-5.3L637,302.2z"/>
<polygon class="st7" points="704.4,283.1 705.8,286.3 705.4,292.4 671.9,304.3 657.3,306.3 660.6,284.3 670.6,282.3 685.4,283.2 
	698.1,280.5 "/>
<path class="st6" d="M699.4,304.3h0.9c1.7,0,3.3-1.2,4-3.1c1.4-3.7,1.1-8.7,1.1-8.8c-0.2-4.4-2-7.3-4.6-7.2
	c-2.8,0.1-5.4,12.3-5.5,12.8c-0.2,0.9-0.2,1.8,0.1,2.6C695.9,302.8,697.5,304.2,699.4,304.3z"/>
<path class="st6" d="M664.2,311.9c0.1,0,0.3,0,0.4,0c2.3-0.4,4.2-2.2,5.2-4.9c0.4-1,0.7-1.9,1.1-2.9c1.3-3.9,0.4-10.8-1.2-13.5
	c-1.5-2.4-3-2.4-5.3-2.4c-0.2,0-0.5,0-0.7,0c-2.6,0-5.5,11.8-6.5,15.7c-0.1,0.3-0.1,0.6-0.2,0.8c-0.2,0.6-0.1,1.3,0,2.1
	c0.5,2.6,2.2,4.5,4.3,4.8C662.9,311.8,663.8,311.9,664.2,311.9z"/>
<path class="st6" d="M705.4,292.4c0,0,1.1-5.5-0.3-9.3l-1.4-4.6L698,285l-1.5,10.3l-21.9,3.8c0,0,1.7-16.9-6.8-17.7
	c-8.5-0.8-12.9,17.3-12.9,17.3l-4.3,3.8l-29.4-3.4c0,0-0.6,1.8,0.2,2.8c0.7,1,36.5,4.7,36.5,4.7s2.3-22.6,9.4-20.3
	c7.1,2.2,4.6,18.1,4.6,18.1l25.6-5.2c0,0,1.1-15.4,5.3-15.3C707,283.9,705.4,292.4,705.4,292.4z"/>
<polygon class="st6" points="700.8,273 696.2,263.3 675.8,261.3 653,261.2 642.2,273.5 674.8,276.6 701.2,275.3 "/>
<path class="st5" d="M700.3,273c0,0,4.1,0.2,4.3,10c0,0-4.1-10.1-8.4,12.1l-22.5,4.2c0,0,1.2-18.6-7.3-17.3s-10.9,18.3-10.9,18.3
	s-1.7,4.2-10.8,3.3c-9.1-0.9-22.6-2.2-24-4.6c0,0-3-14.3,7.5-23.2l13.4-2.2l30.2,1.4L700.3,273z"/>
<path class="st2" d="M690.4,279.5l2.6,0.1c0.3,0,0.5-0.3,0.5-0.7c0-0.4-0.2-0.7-0.5-0.7l0,0l-2.6-0.1c-0.3,0-0.5,0.3-0.5,0.7
	S690.1,279.5,690.4,279.5z"/>
<ellipse transform="matrix(2.064447e-02 -0.9998 0.9998 2.064447e-02 340.4482 942.2764)" class="st3" cx="651.2" cy="297.4" rx="2.1" ry="1.7"/>
<path class="st3" d="M652.2,287.1c1.1,0,2.5-0.6,3.7-1.7c2.2-2,3.1-5.1,2.1-6.8c-1-1.7-3.6-1.5-5.7,0.6c-1.1,1-1.9,2.2-2.3,3.5
	c-0.4,1.3-0.4,2.5,0.1,3.3C650.6,286.7,651.3,287.1,652.2,287.1z"/>
<path class="st3" d="M622.9,283.8c0.8,0,2.3-1,3.9-2.7c0.9-1,1.7-2.1,2.1-3.1c0.5-1,0.6-1.7,0.3-2.1s-0.9-0.3-1.7,0.2
	s-1.8,1.3-2.7,2.3c-1.9,2.2-3,4.5-2.5,5.2C622.6,283.8,622.7,283.8,622.9,283.8z"/>
<path class="st3" d="M692.9,272.9C692.9,272.9,693,272.9,692.9,272.9l5.5-0.5c0.3,0,0.6-0.4,0.5-0.8c0-0.1,0-0.2-0.1-0.3l-2.9-6.3
	c-0.1-0.2-0.3-0.3-0.5-0.4l-4-0.3c-0.3,0-0.6,0.3-0.6,0.7c0,0.1,0,0.2,0,0.2l1.5,7.2C692.4,272.7,692.7,272.9,692.9,272.9z"/>
<path class="st3" d="M678.6,274.1c0.1,0,0.1,0,0.2,0l9.4-1c0.9-0.1,1.6-1.1,1.5-2.2c0-0.1,0-0.2,0-0.3l-1.2-6.3
	c-0.2-0.9-0.8-1.5-1.5-1.6l-7.6-0.5c-0.9,0-1.6,0.7-1.7,1.8l-0.8,6.8c0,0.2,0,0.5,0,0.7l0.1,1C677.2,273.3,677.8,274,678.6,274.1z"
	/>
<path class="st3" d="M672.6,274.6c0.6,0,1.1-0.5,1.2-1.2l1.8-9.1c0.2-0.8-0.2-1.7-0.9-1.9c-0.1,0-0.2,0-0.3,0l-19.6-0.4
	c-0.3,0-0.6,0.2-0.9,0.5l-6.6,8.3c-0.5,0.6-0.5,1.6,0,2.2c0.2,0.3,0.5,0.4,0.8,0.5L672.6,274.6C672.5,274.6,672.6,274.6,672.6,274.6
	z"/>
<path class="st5" d="M696.3,263.7l-0.2-0.3c0,0-0.9-3.5-14.3-4.3c-13.4-0.9-26-0.8-28.9,2.3l23.2,0.4l19.5,2.1L696.3,263.7z"/>
<path class="st1" d="M702.2,288.3c1.4,0,2.5,3,2.4,6.7s-1.3,6.7-2.7,6.6c-1.4,0-2.5-3-2.4-6.7S700.8,288.3,702.2,288.3z M702,289.8
	c-0.3,0-0.6,0.8-0.6,1.7c0,0.9,0.2,1.7,0.5,1.7s0.6-0.8,0.6-1.7S702.4,289.8,702,289.8z M701.6,295c0,0.3,0.2,0.6,0.4,0.6
	s0.4-0.2,0.4-0.6c0-0.3-0.2-0.6-0.4-0.6S701.6,294.7,701.6,295L701.6,295z M703.6,295.4c0.5,0.1,0.9-0.1,0.9-0.4s-0.4-0.5-0.8-0.6
	s-0.9,0.1-0.9,0.4S703.1,295.3,703.6,295.4L703.6,295.4z M701.8,300.3c0.3,0,0.6-0.8,0.6-1.7c0-0.9-0.2-1.7-0.5-1.7
	s-0.6,0.8-0.6,1.7S701.5,300.2,701.8,300.3L701.8,300.3z M700.5,295.3c0.5,0.1,0.9-0.1,0.9-0.4s-0.4-0.5-0.8-0.6
	c-0.5-0.1-0.9,0.1-0.9,0.4C699.6,295,700,295.3,700.5,295.3L700.5,295.3z"/>
<path class="st1" d="M666.5,292.1c2.2,0,4,3.9,3.9,8.6s-2,8.5-4.2,8.5s-4-3.9-3.9-8.6C662.3,295.8,664.2,292,666.5,292.1z
	 M668.7,301.3c0.7,0.1,1.2-0.1,1.2-0.5s-0.5-0.7-1.1-0.8s-1.2,0.1-1.2,0.5C667.5,300.9,668,301.2,668.7,301.3L668.7,301.3z
	 M666.1,307.8c0.4,0,0.8-1,0.8-2.3s-0.3-2.3-0.7-2.3s-0.8,1-0.8,2.3S665.7,307.8,666.1,307.8L666.1,307.8z M666.9,300.7
	c0-0.5-0.2-0.9-0.6-0.9c-0.3,0-0.6,0.4-0.6,0.9s0.2,0.9,0.6,0.9C666.6,301.6,666.9,301.2,666.9,300.7L666.9,300.7z M666.3,298.2
	c0.4,0,0.8-1,0.8-2.3s-0.3-2.3-0.7-2.3s-0.8,1-0.8,2.3S665.9,298.2,666.3,298.2L666.3,298.2z M663.7,301c0.7,0.1,1.2-0.1,1.2-0.5
	c0-0.3-0.5-0.7-1.1-0.8s-1.2,0.1-1.2,0.5C662.5,300.6,663,300.9,663.7,301z"/>
<path class="st2" d="M681,275.3l-1,2.7c0,0-1.5,0.7-2.4-1.9l2-2.5L681,275.3z"/>
<path class="st2" d="M682.2,275.9c1.6,0,2.9-1.1,3-2.4c0-1.4-1.3-2.5-2.9-2.5c-1.6,0-2.9,1.1-3,2.4
	C679.3,274.7,680.6,275.9,682.2,275.9z"/>
<path class="st6" d="M626,283.4l16.8,1c0,0,3.6,1.4,3.9,5.1c0,0-0.6,3-1.9,3c-1.3,0-22-1.8-22-1.8s-1.3-2.6-0.1-4.5
	C623.8,284.3,626,283.4,626,283.4z"/>
<polygon class="st1" points="643.8,285.9 624.1,284.7 624.1,284.9 643.8,286.2 "/>
<polygon class="st1" points="644.8,287.2 623.4,285.5 623.4,285.8 644.7,287.5 "/>
<polygon class="st1" points="645.5,288.8 622.6,286.8 622.6,287.1 645.5,289.1 "/>
<path class="st3" d="M551.3,467.8c0.7,0.2,1.4,0.5,2,0.7v-0.7H551.3z"/>
<path class="st3" d="M493.4,485.7v3.6c1.1-0.5,2.2-1,3.3-1.5c1.1-0.5,2.1-1,3.2-1.6v-0.5H493.4z"/>
<path class="st6" d="M450.2,500.8c0,0-2.3,8.7-11.9,8.3c-9.6-0.4-13.7-8.5-13.7-8.5L450.2,500.8z"/>
<polygon class="st7" points="582.2,466.8 584.9,472.2 584.5,482.2 518.9,503.1 490.3,506.8 495.9,470.4 515.5,466.7 544.8,467.6 
	569.6,462.7 "/>
<path class="st6" d="M573.1,502.1h1.7c3.3,0,6.4-2.1,7.8-5.3c2.6-6.1,1.8-14.5,1.8-14.6c-0.6-7.3-4.3-12-9.3-11.8
	c-5.5,0.2-10.2,20.5-10.4,21.4c-0.3,1.5-0.2,3,0.2,4.4C566.2,499.7,569.5,502.1,573.1,502.1z"/>
<path class="st6" d="M504,516c0.3,0,0.6,0,0.9-0.1c4.5-0.7,8.3-3.8,10.1-8.2c0.7-1.6,1.3-3.2,2-4.9c2.5-6.5,0.4-18-3-22.4
	c-3-3.9-6-3.9-10.5-3.8c-0.5,0-0.9,0-1.4,0c-5,0-10.4,19.8-12.1,26.3c-0.1,0.5-0.3,0.9-0.3,1.3c-0.3,1-0.2,2.2,0.1,3.5
	c1.1,4.2,4.6,7.4,8.7,7.8C501.4,515.9,503.3,516,504,516z"/>
<path class="st6" d="M584.5,482.2c0,0,1.9-9.2-1-15.4l-2.9-7.5l-11,10.9l-2.5,17.1l-43,7c0,0,2.7-28-14.1-29.1
	c-16.7-1.1-24.6,29.1-24.6,29.1l-8.3,6.5l-58.1-4.6c0,0-1,3,0.4,4.6c1.5,1.6,72,6.5,72,6.5s3.6-37.5,17.6-34
	c14.1,3.5,9.8,29.9,9.8,29.9l50.2-9.5c0,0,1.6-25.5,9.9-25.5C587.3,468.2,584.5,482.2,584.5,482.2z"/>
<polygon class="st6" points="574.7,450.2 565.2,434.3 524.8,431.8 480,432.4 459.1,453.1 523.6,457.1 575.6,454.1 "/>
<path class="st5" d="M573.6,450.2c0,0,8.1,0.2,8.9,16.5c0,0-8.6-16.6-16,20.4l-44.2,7.7c0,0,1.6-30.9-15.1-28.5S486.6,497,486.6,497
	s-3.3,7-21.2,5.9c-17.9-1.1-44.7-2.8-47.5-6.8c0,0-6.5-23.6,13.8-38.8l26.3-4.1l59.6,1.3L573.6,450.2z"/>
<path class="st2" d="M554.4,461.4h5c0.6,0,1-0.5,1-1.1s-0.5-1.1-1-1.1l0,0h-5c-0.6,0-1,0.5-1,1.1S553.8,461.4,554.4,461.4z"/>
<ellipse class="st3" cx="477.8" cy="492.4" rx="3.3" ry="3.5"/>
<path class="st3" d="M479.5,475.3c2.2,0,4.9-1,7.3-3c4.2-3.5,6-8.6,3.9-11.4c-2-2.8-7.1-2.3-11.3,1.2c-2,1.7-3.6,3.8-4.3,5.9
	c-0.7,2.2-0.6,4.1,0.4,5.5C476.3,474.7,477.8,475.3,479.5,475.3z"/>
<path class="st3" d="M421.6,470.9c1.6,0,4.6-1.8,7.5-4.7c1.7-1.7,3.2-3.6,4.1-5.2c0.9-1.7,1.1-2.9,0.6-3.5s-1.7-0.5-3.3,0.3
	c-1.6,0.8-3.4,2.2-5.2,3.9c-3.7,3.6-5.7,7.5-4.7,8.7C420.9,470.8,421.3,470.9,421.6,470.9z"/>
<path class="st3" d="M559.1,450.3L559.1,450.3l10.8-1.1c0.6-0.1,1.1-0.7,1-1.3c0-0.2-0.1-0.4-0.2-0.5l-6-10.4
	c-0.2-0.3-0.5-0.6-0.9-0.6l-8-0.4c-0.6,0-1.2,0.5-1.2,1.2c0,0.1,0,0.3,0,0.4l3.3,11.8C558.1,450,558.6,450.3,559.1,450.3z"/>
<path class="st3" d="M530.9,452.8c0.1,0,0.2,0,0.3,0l18.5-1.9c1.8-0.2,3.1-1.9,2.9-3.8c0-0.2-0.1-0.4-0.1-0.6l-2.7-10.4
	c-0.4-1.5-1.6-2.5-3-2.5l-14.9-0.6c-1.7-0.1-3.1,1.3-3.3,3.1l-1.2,11.4c0,0.4,0,0.8,0.1,1.1l0.3,1.6
	C528.1,451.6,529.4,452.8,530.9,452.8z"/>
<path class="st3" d="M519.1,454c1.1,0,2.1-0.8,2.3-2l3.3-15.1c0.3-1.4-0.5-2.8-1.8-3.1c-0.2,0-0.4-0.1-0.5-0.1h-38.7
	c-0.6,0-1.3,0.3-1.7,0.8l-12.6,13.9c-0.9,1-0.9,2.6,0.1,3.6c0.4,0.5,1,0.7,1.6,0.7L519.1,454C519,454,519,454,519.1,454z"/>
<path class="st5" d="M565.5,435l-0.3-0.6c0,0-1.9-5.7-28.4-6.6s-51.2-0.5-56.8,4.7l45.7-0.2l38.6,2.8L565.5,435z"/>
<path class="st1" d="M578,475.6c2.8,0,5,5,5,11.1s-2.3,11.1-5,11.1c-2.8,0-5-5-5-11.1S575.2,475.6,578,475.6z M577.8,478
	c-0.6,0-1.1,1.3-1.1,2.8c0,1.6,0.5,2.8,1.1,2.8s1.1-1.3,1.1-2.8C578.9,479.2,578.4,478,577.8,478z M577.1,486.7
	c0,0.5,0.3,0.9,0.7,0.9s0.7-0.4,0.7-0.9s-0.3-0.9-0.7-0.9S577.1,486.1,577.1,486.7L577.1,486.7z M581,487.3c1,0.1,1.7-0.2,1.8-0.6
	c0-0.4-0.7-0.8-1.7-0.9s-1.7,0.2-1.8,0.6C579.3,486.8,580,487.2,581,487.3L581,487.3z M577.8,495.4c0.6,0,1.1-1.3,1.1-2.8
	c0-1.6-0.5-2.8-1.1-2.8s-1.1,1.3-1.1,2.8S577.2,495.4,577.8,495.4L577.8,495.4z M574.9,487.3c1,0.1,1.7-0.2,1.8-0.6
	c0-0.4-0.7-0.8-1.7-0.9s-1.7,0.2-1.8,0.6C573.2,486.8,574,487.2,574.9,487.3L574.9,487.3z"/>
<path class="st1" d="M507.7,483c4.4,0,8,6.3,8,14.2c0,7.8-3.6,14.2-8,14.2c-4.4,0-8-6.3-8-14.2S503.3,483,507.7,483z M512.5,498.3
	c1.3,0.1,2.4-0.3,2.4-0.8c0-0.6-1-1.1-2.3-1.2s-2.4,0.3-2.4,0.8C510.2,497.6,511.2,498.1,512.5,498.3L512.5,498.3z M507.7,509.1
	c0.8,0,1.5-1.7,1.5-3.9c0-2.1-0.7-3.9-1.5-3.9s-1.5,1.7-1.5,3.9C506.2,507.3,506.9,509.1,507.7,509.1L507.7,509.1z M508.9,497.3
	c0-0.8-0.5-1.5-1.2-1.5s-1.2,0.7-1.2,1.5s0.5,1.5,1.2,1.5S508.9,498.1,508.9,497.3L508.9,497.3z M507.7,493.2c0.8,0,1.5-1.7,1.5-3.9
	c0-2.1-0.7-3.9-1.5-3.9s-1.5,1.7-1.5,3.9S506.9,493.2,507.7,493.2L507.7,493.2z M502.7,497.9c1.3,0.1,2.4-0.3,2.4-0.8
	c0-0.6-1-1.1-2.3-1.2s-2.4,0.3-2.4,0.8C500.4,497.3,501.4,497.8,502.7,497.9z"/>
<path class="st2" d="M535.7,454.7l-1.8,4.4c0,0-3,1.3-4.9-3l3.9-4.2L535.7,454.7z"/>
<path class="st2" d="M538.1,455.7c3.2,0,5.8-1.8,5.8-4.1c0-2.3-2.6-4.1-5.8-4.1s-5.8,1.8-5.8,4.1
	C532.4,453.9,534.9,455.7,538.1,455.7z"/>
<path class="st6" d="M427.7,470l33.1,1c0,0,7.2,2.2,8,8.4c0,0-1,5.1-3.7,5.1s-43.4-2.3-43.4-2.3s-2.7-4.3-0.4-7.4
	C423.4,471.7,427.7,470,427.7,470z"/>
<polygon class="st1" points="462.8,473.6 424,472.2 424,472.7 462.8,474 "/>
<polygon class="st1" points="464.8,475.7 422.6,473.7 422.6,474.2 464.8,476.2 "/>
<polygon class="st1" points="466.4,478.3 421.1,475.7 421.1,476.2 466.3,478.8 "/>
<rect x="545.1" y="550.9" class="st1" width="11.4" height="17.1"/>
<path class="st1" d="M565.5,566.5v143c-26.7,9.4-55,14-83.3,14c-4.6,0-9.3-0.1-13.9-0.4V566.5H565.5z"/>
<path class="st2" d="M604.7,566.5v124.8c-7.5,4.5-15.2,8.5-23.3,12c-5.2,2.3-10.6,4.4-15.9,6.3v-143L604.7,566.5z"/>
<rect x="487.5" y="594.5" class="st3" width="14.7" height="14.8"/>
<rect x="511.2" y="594.5" class="st3" width="14.7" height="14.8"/>
<rect x="534.9" y="594.5" class="st3" width="14.7" height="14.8"/>
<rect x="487.9" y="628.3" class="st3" width="14.7" height="14.8"/>
<rect x="511.6" y="628.3" class="st3" width="14.7" height="14.8"/>
<rect x="535.3" y="628.3" class="st3" width="14.7" height="14.8"/>
<rect x="488.3" y="662" class="st3" width="14.7" height="14.8"/>
<rect x="512" y="662" class="st3" width="14.7" height="14.8"/>
<rect x="535.7" y="662" class="st3" width="14.7" height="14.8"/>
<rect x="488.7" y="695.8" class="st3" width="14.7" height="14.8"/>
<rect x="512.4" y="695.8" class="st3" width="14.7" height="14.8"/>
<rect x="536.1" y="695.8" class="st3" width="14.7" height="14.8"/>
<path class="st3" d="M428.4,673.3c-0.7,0.3-1.5,0.5-2.2,0.8v-0.8H428.4z"/>
<path class="st3" d="M491.3,692.4v3.8c-1.2-0.5-2.4-1-3.5-1.6c-1.2-0.5-2.3-1.1-3.4-1.7v-0.5H491.3z"/>
<path class="st6" d="M538.3,708.4c0,0,2.5,9.3,12.9,8.9c10.4-0.4,14.9-9,14.9-9L538.3,708.4z"/>
<polygon class="st7" points="394.8,672.2 391.9,678 392.3,688.7 463.6,710.9 494.7,714.9 488.6,676.1 467.4,672.1 435.5,673.1 
	408.5,667.9 "/>
<path class="st6" d="M404.8,709.9H403c-3.6,0-6.9-2.2-8.5-5.6c-2.8-6.5-2-15.5-2-15.6c0.6-7.8,4.7-12.8,10.1-12.6
	c6,0.3,11,21.9,11.2,22.8c0.4,1.6,0.3,3.2-0.3,4.7C412.2,707.3,408.7,709.9,404.8,709.9z"/>
<path class="st6" d="M479.8,724.7c-0.3,0-0.6,0-0.9-0.1c-4.8-0.8-9-4.1-11-8.8c-0.7-1.7-1.5-3.4-2.1-5.2c-2.7-7-0.4-19.2,3.2-23.9
	c3.2-4.2,6.5-4.1,11.4-4.1c0.5,0,1,0,1.6,0c5.5,0,11.2,21.1,13.1,28.1c0.2,0.6,0.3,1,0.4,1.4c0.3,1.1,0.3,2.3-0.1,3.7
	c-1.2,4.5-5,7.9-9.5,8.3C482.6,724.5,480.6,724.7,479.8,724.7z"/>
<path class="st6" d="M392.3,688.7c0,0-2.1-9.8,1-16.4l3.2-8l11.9,11.6l2.7,18.2l46.7,7.4c0,0-2.9-29.9,15.3-31
	c18.2-1.2,26.8,31,26.8,31l9.1,6.9l63.2-4.9c0,0,1.1,3.2-0.5,4.9s-78.3,6.9-78.3,6.9s-3.9-40-19.1-36.3
	c-15.3,3.7-10.7,31.8-10.7,31.8L409,700.7c0,0-1.8-27.2-10.8-27.2S392.3,688.7,392.3,688.7z"/>
<polygon class="st6" points="403,654.5 413.3,637.6 457.2,634.9 505.9,635.6 528.6,657.7 458.5,661.9 402.1,658.7 "/>
<path class="st5" d="M404.2,654.6c0,0-8.8,0.2-9.7,17.6c0,0,9.3-17.7,17.4,21.8l48,8.2c0,0-1.8-32.9,16.4-30.4
	c18.2,2.5,22.5,32.7,22.5,32.7s3.5,7.4,23,6.2s48.5-3,51.6-7.3c0,0,7.1-25.1-15-41.3l-28.6-4.4L465,659L404.2,654.6z"/>
<path class="st2" d="M425.1,666.5h-5.5c-0.6,0-1.1-0.5-1.1-1.2s0.5-1.2,1.1-1.2l0,0h5.5c0.6,0,1.1,0.5,1.1,1.2
	S425.7,666.5,425.1,666.5z"/>
<ellipse class="st3" cx="508.2" cy="699.5" rx="3.5" ry="3.7"/>
<path class="st3" d="M506.5,681.3c-2.4,0-5.3-1.1-7.9-3.2c-4.6-3.7-6.5-9.1-4.3-12.1s7.7-2.5,12.3,1.2c2.2,1.8,3.9,4,4.7,6.3
	s0.7,4.4-0.4,5.8C509.9,680.6,508.3,681.3,506.5,681.3z"/>
<path class="st3" d="M569.3,676.6c-1.8,0-5-1.9-8.1-5c-1.9-1.8-3.5-3.8-4.4-5.6c-1-1.8-1.2-3.1-0.6-3.7c0.6-0.6,1.9-0.5,3.6,0.4
	c1.7,0.9,3.7,2.4,5.6,4.2c4,3.9,6.2,8,5.1,9.3C570.1,676.4,569.7,676.6,569.3,676.6z"/>
<path class="st3" d="M419.9,654.7h-0.1l-11.6-1.1c-0.7-0.1-1.2-0.7-1.1-1.4c0-0.2,0.1-0.4,0.2-0.6l6.6-11.1c0.2-0.4,0.6-0.6,1-0.6
	l8.7-0.4c0.7,0,1.3,0.5,1.3,1.3c0,0.1,0,0.3-0.1,0.4l-3.6,12.6C421,654.3,420.5,654.7,419.9,654.7z"/>
<path class="st3" d="M450.6,657.3c-0.1,0-0.2,0-0.3,0l-20.1-2.1c-1.9-0.2-3.3-2-3.1-4c0-0.2,0.1-0.4,0.1-0.6l2.9-11.1
	c0.4-1.6,1.7-2.7,3.3-2.7l16.2-0.6c1.8-0.1,3.4,1.4,3.6,3.3l1.3,12.1c0,0.4,0,0.8-0.1,1.2l-0.4,1.7
	C453.6,656.1,452.2,657.3,450.6,657.3z"/>
<path class="st3" d="M463.5,658.5c-1.2,0-2.3-0.9-2.5-2.1l-3.5-16.1c-0.3-1.5,0.5-2.9,2-3.3c0.2,0,0.4-0.1,0.6-0.1h42
	c0.7,0,1.4,0.3,1.9,0.8l13.7,14.9c1,1.1,1,2.8-0.1,3.9c-0.5,0.5-1.1,0.8-1.8,0.8L463.5,658.5L463.5,658.5z"/>
<path class="st5" d="M413,638.3l0.4-0.6c0,0,2.1-6.1,30.9-7.1s55.6-0.5,61.7,5.1l-49.7-0.2l-42,3L413,638.3z"/>
<path class="st1" d="M399.4,681.6c-3,0-5.5,5.3-5.5,11.8s2.4,11.8,5.5,11.8c3,0,5.5-5.3,5.5-11.8
	C404.9,686.9,402.4,681.6,399.4,681.6z M399.7,684.1c0.7,0,1.2,1.4,1.2,3c0,1.7-0.5,3-1.2,3s-1.2-1.4-1.2-3S399,684.1,399.7,684.1z
	 M400.4,693.4c0,0.6-0.4,1-0.8,1s-0.8-0.5-0.8-1s0.4-1,0.8-1S400.4,692.9,400.4,693.4L400.4,693.4z M396.2,694.1
	c-1,0.1-1.9-0.2-1.9-0.7s0.8-0.9,1.8-1s1.9,0.2,1.9,0.7C398,693.5,397.2,694,396.2,694.1L396.2,694.1z M399.7,702.7
	c-0.7,0-1.2-1.4-1.2-3c0-1.7,0.5-3,1.2-3s1.2,1.4,1.2,3C400.9,701.3,400.3,702.7,399.7,702.7L399.7,702.7z M402.8,694.1
	c-1,0.1-1.9-0.2-1.9-0.7s0.8-0.9,1.8-1s1.9,0.2,1.9,0.7C404.6,693.5,403.8,694,402.8,694.1L402.8,694.1z"/>
<path class="st1" d="M475.8,689.5c-4.8,0-8.7,6.8-8.7,15.1s3.9,15.1,8.7,15.1s8.7-6.8,8.7-15.1S480.6,689.5,475.8,689.5z
	 M470.6,705.8c-1.4,0.1-2.6-0.3-2.6-0.9s1.1-1.2,2.5-1.3s2.6,0.3,2.6,0.9C473.1,705.1,472,705.7,470.6,705.8L470.6,705.8z
	 M475.8,717.3c-0.9,0-1.6-1.8-1.6-4.1s0.7-4.1,1.6-4.1s1.6,1.8,1.6,4.1C477.4,715.4,476.7,717.3,475.8,717.3L475.8,717.3z
	 M474.5,704.7c0-0.9,0.6-1.6,1.3-1.6c0.7,0,1.3,0.7,1.3,1.6c0,0.9-0.6,1.6-1.3,1.6S474.5,705.6,474.5,704.7L474.5,704.7z
	 M475.8,700.4c-0.9,0-1.6-1.8-1.6-4.1s0.7-4.1,1.6-4.1s1.6,1.8,1.6,4.1C477.4,698.5,476.7,700.4,475.8,700.4L475.8,700.4z
	 M481.3,705.4c-1.4,0.1-2.6-0.3-2.6-0.9c0-0.6,1.1-1.2,2.5-1.3s2.6,0.3,2.6,0.9C483.8,704.7,482.7,705.3,481.3,705.4z"/>
<path class="st2" d="M445.4,659.3l1.9,4.7c0,0,3.2,1.3,5.3-3.2l-4.2-4.4L445.4,659.3z"/>
<path class="st2" d="M442.7,660.4c-3.5,0-6.3-2-6.3-4.4s2.8-4.4,6.3-4.4s6.3,2,6.3,4.4C449,658.5,446.2,660.4,442.7,660.4z"/>
<path class="st6" d="M562.7,675.7l-35.9,1.1c0,0-7.9,2.3-8.7,8.9c0,0,1.1,5.4,4,5.4s47.2-2.4,47.2-2.4s2.9-4.6,0.5-7.9
	C567.4,677.4,562.7,675.7,562.7,675.7z"/>
<polygon class="st1" points="524.6,679.4 566.7,678 566.8,678.5 524.6,679.9 "/>
<polygon class="st1" points="522.4,681.8 568.3,679.6 568.3,680.1 522.5,682.3 "/>
<polygon class="st1" points="520.7,684.5 569.9,681.8 569.9,682.3 520.7,685 "/>
<path class="st3" d="M752.7,553.7c-1.6,0.5-3.2,1.1-4.8,1.6v-1.6H752.7z"/>
</svg>
