<?xml version="1.0" encoding="utf-8"?>
<!-- Generator: Adobe Illustrator 28.0.0, SVG Export Plug-In . SVG Version: 6.00 Build 0)  -->
<svg version="1.1" id="d8951433-2714-4e95-856e-ed301a2a6756"
	 xmlns="http://www.w3.org/2000/svg" xmlns:xlink="http://www.w3.org/1999/xlink" x="0px" y="0px" viewBox="0 0 770 770.1"
	 style="enable-background:new 0 0 770 770.1;" xml:space="preserve">
<style type="text/css">
	.st0{fill:#F2F2F2;}
	.st1{fill:#3F3D56;}
	.st2{fill:#E6E6E6;}
	.st3{fill:#CCCCCC;}
	.st4{fill:#FFFFFF;}
	.st5{fill:#FFB8B8;}
	.st6{fill:#5869BB;}
	.st7{fill:#2F2E41;}
	.st8{fill:#B3B3B3;}
	.st9{fill:#A0616A;}
	.st10{fill:url(#SVGID_1_);}
	.st11{fill:#536DFE;}
	.st12{opacity:0.2;fill:#F5F5F5;enable-background:new    ;}
	.st13{opacity:0.25;enable-background:new    ;}
	.st14{opacity:3.000000e-02;enable-background:new    ;}
	.st15{opacity:0.1;enable-background:new    ;}
	.st16{fill:url(#SVGID_00000176763587026446569500000001255969845258077825_);}
	.st17{fill:url(#SVGID_00000176043753615311659530000012664880544258152885_);}
	.st18{fill:url(#SVGID_00000083777405404971062750000017551583631749714850_);}
	.st19{fill:#FFB6B6;}
	.st20{opacity:0.42;fill:#F2F2F2;enable-background:new    ;}
	.st21{fill:#F0F0F0;}
	.st22{fill:#CACACA;}
	.st23{fill:#E4E4E4;}
</style>
<ellipse class="st0" cx="658.5" cy="86" rx="27.6" ry="24"/>
<path class="st0" d="M74.8,202.8c6.6-21.8,22.7-38.7,41.7-48.7c22.6-11.9,48.6-13.3,73.2-8.6c26.5,5,51.3,16.6,75.3,29.2
	c23.5,12.4,46.7,25.4,71.1,35.6c48.8,20.4,100.6,31.7,153.1,33.6c47.2,1.7,97.7-3.8,138.1-31.9c37-25.8,60.6-68.3,72.9-112.6
	c1.6-5.7,3-11.4,4.2-17.2c0.4-1.7-2.1-2.4-2.4-0.7c-9.9,46.3-31,92-67.1,121.5c-39,31.9-90.2,39.3-138.2,38.4
	c-53-1-105.5-11.7-155.1-31.7c-25.1-10.1-48.8-23.3-72.8-36c-23.5-12.4-47.6-24-73.4-29.8c-23.6-5.2-48.8-5.5-71.5,3.8
	c-18.7,7.7-35.7,21.3-45.7,40c-2.4,4.6-4.4,9.4-5.9,14.4C71.8,203.7,74.3,204.4,74.8,202.8L74.8,202.8z"/>
<path class="st1" d="M456,401.3c0.5,0,0.8-0.4,0.8-0.9s-0.4-0.9-0.8-0.9h-7.9V396h7.9c0.5,0,0.8-0.4,0.8-0.9s-0.4-0.9-0.8-0.9h-67.8
	c-0.5,0-0.8,0.4-0.8,0.9s0.4,0.9,0.8,0.9h7.9v3.5h-7.9c-0.5,0-0.8,0.4-0.8,0.9s0.4,0.9,0.8,0.9h7.9v3.5h-7.9c-0.5,0-0.8,0.4-0.8,0.9
	s0.4,0.9,0.8,0.9h7.9v3.5H389c-0.9,0-1.7,0.8-1.7,1.8s0.7,1.8,1.7,1.8h6.8c0,0.1-0.1,0.3-0.1,0.4v12.4c0,0.7,0.6,1.3,1.3,1.3
	s1.3-0.6,1.3-1.3v-12.4c0-0.2,0-0.3-0.1-0.4H446c0,0.1-0.1,0.3-0.1,0.4v12.4c0,0.7,0.6,1.3,1.3,1.3s1.3-0.6,1.3-1.3v-12.4
	c0-0.2,0-0.3-0.1-0.4h6.8c0.9,0,1.7-0.8,1.7-1.8s-0.7-1.8-1.7-1.8h-7.1v-3.5h7.9c0.5,0,0.8-0.4,0.8-0.9s-0.4-0.9-0.8-0.9h-7.9v-3.5
	H456z M397.9,396h48.5v3.5h-48.5V396z M446.4,410.2h-48.5v-3.5h48.5V410.2z M446.4,404.9h-48.5v-3.5h48.5V404.9z"/>
<path class="st2" d="M200.8,370.3c0-15.7-12-52.8-26.8-52.8s-26.8,37.2-26.8,52.8c0,15.7,12,28.4,26.8,28.4
	C188.8,398.7,200.8,386,200.8,370.3L200.8,370.3z"/>
<path class="st0" d="M194.1,370.3c0-15.7-12-52.8-26.8-52.8s-26.8,37.2-26.8,52.8c0,15.7,12,28.4,26.8,28.4
	C182.1,398.7,194.1,386,194.1,370.3L194.1,370.3z"/>
<path class="st3" d="M168.2,433.8c-0.5,0-0.8-0.4-0.8-0.9v-79.1c0-0.5,0.4-0.9,0.8-0.9s0.8,0.4,0.8,0.9v79.1
	C169,433.4,168.7,433.8,168.2,433.8z"/>
<path class="st3" d="M168.2,366.8c-0.5,0-0.8-0.4-0.8-0.9c0-0.2,0.1-0.5,0.2-0.6l10.9-11.6c0.3-0.3,0.9-0.3,1.2,0s0.3,0.9,0,1.3
	l-10.9,11.6C168.6,366.7,168.4,366.8,168.2,366.8z"/>
<path class="st2" d="M484.5,369.9c0-15.7-12-52.8-26.8-52.8s-26.8,37.2-26.8,52.8c0,15.7,12,28.4,26.8,28.4
	C472.6,398.3,484.5,385.6,484.5,369.9L484.5,369.9z"/>
<path class="st0" d="M477.9,369.9c0-15.7-12-52.8-26.8-52.8s-26.8,37.2-26.8,52.8c0,15.7,12,28.4,26.8,28.4S477.9,385.6,477.9,369.9
	L477.9,369.9z"/>
<path class="st3" d="M451.9,433.3c-0.5,0-0.8-0.4-0.8-0.9v-79.1c0-0.5,0.4-0.9,0.8-0.9s0.8,0.4,0.8,0.9v79.1
	C452.8,432.9,452.4,433.3,451.9,433.3z"/>
<path class="st3" d="M451.9,366.4c-0.5,0-0.8-0.4-0.8-0.9c0-0.2,0.1-0.5,0.2-0.6l10.9-11.6c0.3-0.3,0.9-0.3,1.2,0
	c0.3,0.3,0.3,0.9,0,1.3l-10.9,11.6C452.4,366.3,452.1,366.4,451.9,366.4z"/>
<path class="st2" d="M256.9,121.2h-13.4c-2.1,0-3.8-1.8-3.8-4V84.4c0-2.2,1.7-4,3.8-4h13.4c2.1,0,3.8,1.8,3.8,4v32.8
	C260.6,119.4,259,121.2,256.9,121.2z"/>
<path class="st2" d="M309.6,427.2H241c-3.9,0-7.1-3.4-7.1-7.5V126.1c0-4.2,3.2-7.5,7.1-7.5h68.6c3.9,0,7.1,3.4,7.1,7.5v293.6
	C316.7,423.8,313.5,427.2,309.6,427.2z"/>
<path class="st0" d="M268.6,427.2H200c-3.9,0-7.1-3.4-7.1-7.5V126.1c0-4.2,3.2-7.5,7.1-7.5h68.6c3.9,0,7.1,3.4,7.1,7.5v293.6
	C275.7,423.8,272.5,427.2,268.6,427.2z"/>
<path class="st0" d="M244.3,121.2h-13.4c-2.1,0-3.8-1.8-3.8-4V84.4c0-2.2,1.7-4,3.8-4h13.4c2.1,0,3.8,1.8,3.8,4v32.8
	C248.1,119.4,246.4,121.2,244.3,121.2z"/>
<path class="st4" d="M226.8,185.1h-15.9c-1.2,0-2.1-1-2.1-2.2v-25.7c0-1.2,0.9-2.2,2.1-2.2h15.9c1.2,0,2.1,1,2.1,2.2v25.7
	C228.9,184.1,227.9,185.1,226.8,185.1z"/>
<path class="st4" d="M257.7,185.1h-15.9c-1.2,0-2.1-1-2.1-2.2v-25.7c0-1.2,0.9-2.2,2.1-2.2h15.9c1.2,0,2.1,1,2.1,2.2v25.7
	C259.8,184.1,258.9,185.1,257.7,185.1z"/>
<path class="st4" d="M226.8,232.1h-15.9c-1.2,0-2.1-1-2.1-2.2v-25.7c0-1.2,0.9-2.2,2.1-2.2h15.9c1.2,0,2.1,1,2.1,2.2v25.7
	C228.9,231.1,227.9,232.1,226.8,232.1z"/>
<path class="st4" d="M257.7,232.1h-15.9c-1.2,0-2.1-1-2.1-2.2v-25.7c0-1.2,0.9-2.2,2.1-2.2h15.9c1.2,0,2.1,1,2.1,2.2v25.7
	C259.8,231.1,258.9,232.1,257.7,232.1z"/>
<path class="st4" d="M226.8,279.1h-15.9c-1.2,0-2.1-1-2.1-2.2v-25.7c0-1.2,0.9-2.2,2.1-2.2h15.9c1.2,0,2.1,1,2.1,2.2v25.7
	C228.9,278.1,227.9,279.1,226.8,279.1z"/>
<path class="st4" d="M257.7,279.1h-15.9c-1.2,0-2.1-1-2.1-2.2v-25.7c0-1.2,0.9-2.2,2.1-2.2h15.9c1.2,0,2.1,1,2.1,2.2v25.7
	C259.8,278.1,258.9,279.1,257.7,279.1z"/>
<path class="st4" d="M226.8,326.1h-15.9c-1.2,0-2.1-1-2.1-2.2v-25.7c0-1.2,0.9-2.2,2.1-2.2h15.9c1.2,0,2.1,1,2.1,2.2v25.7
	C228.9,325.1,227.9,326.1,226.8,326.1z"/>
<path class="st4" d="M257.7,326.1h-15.9c-1.2,0-2.1-1-2.1-2.2v-25.7c0-1.2,0.9-2.2,2.1-2.2h15.9c1.2,0,2.1,1,2.1,2.2v25.7
	C259.8,325.1,258.9,326.1,257.7,326.1z"/>
<path class="st4" d="M226.8,373.1h-15.9c-1.2,0-2.1-1-2.1-2.2v-25.7c0-1.2,0.9-2.2,2.1-2.2h15.9c1.2,0,2.1,1,2.1,2.2v25.7
	C228.9,372.1,227.9,373.1,226.8,373.1z"/>
<path class="st4" d="M257.7,373.1h-15.9c-1.2,0-2.1-1-2.1-2.2v-25.7c0-1.2,0.9-2.2,2.1-2.2h15.9c1.2,0,2.1,1,2.1,2.2v25.7
	C259.8,372.1,258.9,373.1,257.7,373.1z"/>
<path class="st2" d="M521.4,282.2H508c-2.1,0-3.8-1.8-3.8-4v-18.6c0-2.2,1.7-4,3.8-4h13.4c2.1,0,3.8,1.8,3.8,4v18.6
	C525.1,280.4,523.4,282.2,521.4,282.2z"/>
<path class="st2" d="M634.3,433.8h-68.6c-3.9,0-7.1-3.4-7.1-7.5v-141c0-4.2,3.2-7.5,7.1-7.5h68.6c3.9,0,7.1,3.4,7.1,7.5v141
	C641.4,430.4,638.2,433.8,634.3,433.8z"/>
<path class="st0" d="M593.3,433.8H474.5c-3.9,0-7.1-3.4-7.1-7.5v-141c0-4.2,3.2-7.5,7.1-7.5h118.8c3.9,0,7.1,3.4,7.1,7.5v141
	C600.4,430.4,597.2,433.8,593.3,433.8z"/>
<path class="st0" d="M508.8,282.2h-13.4c-2.1,0-3.8-1.8-3.8-4v-18.6c0-2.2,1.7-4,3.8-4h13.4c2.1,0,3.8,1.8,3.8,4v18.6
	C512.6,280.4,510.9,282.2,508.8,282.2z"/>
<path class="st4" d="M526.4,347.4h-15.9c-1.2,0-2.1-1-2.1-2.2v-25.7c0-1.2,0.9-2.2,2.1-2.2h15.9c1.2,0,2.1,1,2.1,2.2v25.7
	C528.5,346.4,527.5,347.4,526.4,347.4z"/>
<path class="st4" d="M557.3,347.4h-15.9c-1.2,0-2.1-1-2.1-2.2v-25.7c0-1.2,0.9-2.2,2.1-2.2h15.9c1.2,0,2.1,1,2.1,2.2v25.7
	C559.4,346.4,558.5,347.4,557.3,347.4z"/>
<path class="st4" d="M526.4,394.4h-15.9c-1.2,0-2.1-1-2.1-2.2v-25.7c0-1.2,0.9-2.2,2.1-2.2h15.9c1.2,0,2.1,1,2.1,2.2v25.7
	C528.5,393.4,527.5,394.4,526.4,394.4z"/>
<path class="st4" d="M557.3,394.4h-15.9c-1.2,0-2.1-1-2.1-2.2v-25.7c0-1.2,0.9-2.2,2.1-2.2h15.9c1.2,0,2.1,1,2.1,2.2v25.7
	C559.4,393.4,558.5,394.4,557.3,394.4z"/>
<path class="st2" d="M717.3,435.5H59.2c-0.3,0-0.6-0.6-0.6-1.2c0-0.7,0.3-1.2,0.6-1.2h658.1c0.3,0,0.6,0.6,0.6,1.2
	C718,434.9,717.7,435.5,717.3,435.5z"/>
<path class="st2" d="M323,459.5h-77.8c-0.5,0-0.8-0.4-0.8-0.9s0.4-0.9,0.8-0.9H323c0.5,0,0.8,0.4,0.8,0.9S323.4,459.5,323,459.5z"/>
<path class="st2" d="M516.2,459.5h-77.8c-0.5,0-0.8-0.4-0.8-0.9s0.4-0.9,0.8-0.9h77.8c0.5,0,0.8,0.4,0.8,0.9
	S516.7,459.5,516.2,459.5z"/>
<path class="st2" d="M709.5,459.5h-77.8c-0.5,0-0.8-0.4-0.8-0.9s0.4-0.9,0.8-0.9h77.8c0.5,0,0.8,0.4,0.8,0.9S710,459.5,709.5,459.5z
	"/>
<path class="st2" d="M367.3,364.1c0-15.7-12-52.8-26.8-52.8s-26.8,37.2-26.8,52.8c0,15.7,12,28.4,26.8,28.4S367.3,379.8,367.3,364.1
	L367.3,364.1z"/>
<path class="st0" d="M360.6,364.1c0-15.7-12-52.8-26.8-52.8S307,348.5,307,364.1c0,15.7,12,28.4,26.8,28.4S360.6,379.8,360.6,364.1
	L360.6,364.1z"/>
<path class="st3" d="M334.7,427.6c-0.5,0-0.8-0.4-0.8-0.9v-79.1c0-0.5,0.4-0.9,0.8-0.9s0.8,0.4,0.8,0.9v79.1
	C335.5,427.2,335.2,427.6,334.7,427.6z"/>
<path class="st3" d="M334.7,360.6c-0.5,0-0.8-0.4-0.8-0.9c0-0.2,0.1-0.5,0.2-0.6l10.9-11.6c0.3-0.3,0.9-0.3,1.2,0
	c0.3,0.3,0.3,0.9,0,1.3l-10.9,11.6C335.1,360.5,334.9,360.6,334.7,360.6z"/>
<path class="st5" d="M582.9,389.2c0.8,0.2,1.2,1,1,1.8c0,0.1,0,0.2-0.1,0.3l3.6,3.7l-2.6,0.6l-3.1-3.6c-0.7-0.4-0.9-1.3-0.6-2.1
	C581.6,389.3,582.3,389,582.9,389.2L582.9,389.2z"/>
<path class="st6" d="M588,399l-4.5-4.5c-0.3-0.3-0.3-0.7,0-1l0,0l0.9-1c0.2-0.2,0.6-0.3,0.8-0.1l3.8,3l2.3-6c0.4-1,1.4-1.4,2.3-1
	h0.1l0,0c0.7,0.4,1.1,1.2,1,2c-0.4,2.7-3,6.4-4.5,8.3c-0.4,0.5-1.1,0.7-1.7,0.5C588.4,399.3,588.2,399.2,588,399z"/>
<path class="st4" d="M585.5,394.7l-3.3-5.1c-0.1-0.1-0.1-0.3,0.1-0.4l0.1-0.1c0.1-0.1,0.3-0.1,0.4,0.1l3.3,5.1
	c0.1,0.1,0.1,0.3-0.1,0.4l0,0l-0.1,0.1C585.8,394.9,585.6,394.8,585.5,394.7L585.5,394.7z"/>
<path class="st1" d="M584.6,394.7l-2.7-4.2c-0.2-0.4-0.2-0.9,0.2-1.1l0.3-0.2l3.6,5.6l-0.3,0.2l0,0
	C585.3,395.2,584.8,395.1,584.6,394.7z"/>
<polygon class="st5" points="584.9,431.1 583.2,430.9 583.4,423.8 585.7,424.1 "/>
<path class="st7" d="M585.2,432.9l-5.6-0.7v-0.1c0.1-1.3,1.2-2.2,2.4-2l0,0l0,0l3.4,0.4L585.2,432.9z"/>
<polygon class="st5" points="604.9,429.8 603.3,430.3 600.5,423.8 603,423 "/>
<path class="st7" d="M605.9,431.3l-5.3,1.7v-0.1c-0.4-1.2,0.3-2.5,1.4-2.9l0,0l0,0l3.3-1.1L605.9,431.3z"/>
<path class="st7" d="M583,429.5c-0.4-0.1-0.6-0.5-0.5-0.9l1-12.7c0-0.6,0.2-1.1,0.5-1.6l6.3-11.1l5.6,1.1l0,0
	c2.7,1.8,5.2,10.4,7.5,18.7c0.4,1.3,0.7,2.6,1.1,3.9c0.1,0.4,0,0.8-0.4,1l-1.7,0.8c-0.3,0.2-0.7,0-0.9-0.3l-8.8-17l-0.1-0.1h-0.1
	l-5.1,6.1l-1.9,11.6l0,0c-0.1,0.3-0.5,0.5-0.8,0.4L583,429.5L583,429.5L583,429.5z"/>
<path class="st6" d="M590,404.4L590,404.4L590,404.4c-0.1-0.1-2.6-9.4-0.3-15.2l0,0c0.1-0.1,1.7-3.4,3.6-3.8l0,0l0.6,1.2
	c0.2,0.2,3.5,3.8,2,10.1c0.1,0.5,2,7.5,1,8.6c-0.4,0.3-0.8,0.4-1.2,0.3C593.8,405.4,591.9,405,590,404.4z"/>
<ellipse class="st7" cx="592.9" cy="379.6" rx="4.4" ry="4.6"/>
<ellipse class="st5" cx="591.2" cy="380.5" rx="3.5" ry="3.7"/>
<path class="st7" d="M593.4,384.1c-0.3,0.1-0.7,0.2-1,0c-0.2-0.3-0.2-0.7-0.1-1c0.2-0.3,0.3-0.6,0.4-1c0.1-0.5-0.1-1-0.5-1.4
	c-0.4-0.3-0.8-0.5-1.3-0.7l-2.4-0.9c-0.6-0.2-1.2-0.5-1.6-1.1c-0.4-0.9-0.1-2.1,0.8-2.6c0.8-0.4,1.8-0.5,2.7-0.1
	c0.5,0.2,0.9,0.4,1.4,0.6c1,0.3,2.1,0,2.9,0.6c0.7,0.6,1.1,1.5,1.1,2.5c-0.1,1-0.3,1.9-0.7,2.8c-0.2,0.5-0.5,1-0.8,1.5
	c-0.3,0.4-0.9,0.7-1.4,0.6L593.4,384.1z"/>
<ellipse class="st7" cx="596.6" cy="377.4" rx="2.8" ry="3"/>
<path class="st4" d="M591.9,381.7c0-0.2,0.1-0.3,0.3-0.3s0.3,0.1,0.3,0.3c0,0.1-0.1,0.2-0.2,0.3v0.7c0,0.1,0,0.1-0.1,0.1
	s-0.1,0-0.1-0.1l0,0V382C592,381.9,591.9,381.8,591.9,381.7z"/>
<path class="st5" d="M583.1,392.4c0.8-0.1,1.5,0.5,1.6,1.4c0,0.1,0,0.2,0,0.3l4.6,2.1l-2.2,1.5l-4.1-2.3c-0.8-0.1-1.3-0.9-1.2-1.7
	C581.9,393,582.4,392.4,583.1,392.4z"/>
<path class="st6" d="M591.1,399.7l-5.7-2.5c-0.3-0.1-0.5-0.5-0.3-0.9l0,0l0.5-1.3c0.1-0.3,0.5-0.5,0.8-0.4l4.5,1.5l0.2-6.5
	c0-1,0.9-1.9,1.8-1.8h0.1l0,0c0.8,0.1,1.4,0.7,1.6,1.5c0.5,2.7-0.7,7.1-1.5,9.4c-0.2,0.7-0.8,1.1-1.5,1.1
	C591.5,399.8,591.3,399.7,591.1,399.7z"/>
<path class="st5" d="M365,398.1c0.5-0.5,0.5-1.3,0-1.9c-0.1-0.1-0.1-0.1-0.2-0.2l-0.6-4.4l-2.6,0.9l1.4,3.9
	c-0.4,0.6-0.2,1.4,0.4,1.8C363.9,398.6,364.6,398.6,365,398.1L365,398.1z"/>
<path class="st6" d="M362.3,396.1l-1.6-7.9c-0.3-1.5,0.1-3.1,1.2-4.2c2-2.1,4.7-4.7,5.6-5.4c0.8-0.6,1.9-1,2.9-0.9l0,0l1.4,1.4
	l-3,5.2l-4.5,3l0.5,7.7L362.3,396.1z"/>
<path class="st3" d="M361.2,385.4h6.7c0.3,0,0.5,0.2,0.5,0.6l0,0c0,0.3-0.2,0.6-0.5,0.6h-6.7c-0.3,0-0.5-0.2-0.5-0.6l0,0
	C360.7,385.6,360.9,385.4,361.2,385.4z"/>
<path class="st3" d="M361.2,397.4h6.7c0.3,0,0.5,0.2,0.5,0.6l0,0c0,0.3-0.2,0.6-0.5,0.6h-6.7c-0.3,0-0.5-0.2-0.5-0.6l0,0
	C360.7,397.7,360.9,397.4,361.2,397.4z"/>
<path class="st3" d="M364.6,427.7c-0.1,0-0.2-0.1-0.3-0.3l-3.3-41.5c0-0.2,0.1-0.3,0.2-0.3s0.3,0.1,0.3,0.3l3.1,38.3l3-38.3
	c0-0.2,0.1-0.3,0.3-0.3c0.1,0,0.3,0.1,0.2,0.3l-3.2,41.5C364.9,427.6,364.7,427.7,364.6,427.7L364.6,427.7z"/>
<ellipse class="st5" cx="372.1" cy="372.4" rx="3.4" ry="3.6"/>
<polygon class="st5" points="361.9,426 360.2,425.5 361.5,418.5 363.9,419.3 "/>
<path class="st7" d="M361.8,427.5l-5.3-1.8v-0.1c0.3-1.2,1.5-1.8,2.6-1.4l3.3,1.1L361.8,427.5z"/>
<polygon class="st5" points="373.7,426 372,426 371.2,419 373.7,419 "/>
<path class="st7" d="M368.8,427.6h5.3v-2.1h-3.3C369.7,425.5,368.8,426.4,368.8,427.6L368.8,427.6z"/>
<path class="st7" d="M373.7,423.7l-0.6-0.1c-0.7,0-1.4-0.2-2.1-0.4c-0.1-0.1-0.2-1.1-0.1-6.7c0.1-4.1,0.1-9.3,0-12
	c0-0.3-0.2-0.5-0.5-0.5c-0.2,0-0.3,0.1-0.4,0.3c-1.3,3.2-3.5,10.3-4.9,15.1c-0.5,1.6-0.9,2.9-1.2,3.7c-0.1,0.3-0.4,0.5-0.7,0.4
	c-1.2-0.3-1.1-0.5-2.8-0.9c-0.3-0.1-0.5-0.4-0.4-0.7c0.3-1.5,5.9-26.4,6.4-28.8c0.1-0.3,0.4-0.6,0.7-0.5l0,0c1.3,0.3,2,0.6,3.3,0.8
	c1.4,0.3,2.7,0.6,4.1,0.9l0,0c0.1,0,0.3,0.1,0.3,0.2c0.4,0.4,0.8,0.8,1.4,1c0.4,0.2-0.5,0.2-0.1,0.4c1.3,1.1-0.6,22.5-1.6,27.3
	C374.3,423.5,374,423.7,373.7,423.7L373.7,423.7z"/>
<path class="st7" d="M373.6,375.6c-0.2-0.9,0.8-2.8,0.6-3.7c-0.1-0.6-1.5-0.2-1.8-0.7c-0.3-0.6-0.8-0.9-1.4-1c-0.7,0-1.3,0.5-2,0.3
	c-0.6-0.3-0.9-1.2-0.6-1.8l0,0c0.3-0.6,0.9-1.1,1.5-1.4c1-0.7,2.2-0.9,3.4-0.6c0.7,0.3,1.3,0.7,1.8,1.2c0.5,0.4,1,0.9,1.4,1.5
	c0.7,1.2,0.7,2.6,0.1,3.8C375.8,374.2,374.8,375.1,373.6,375.6"/>
<path class="st6" d="M365.1,396.6c0.4-0.7,0.9-3.7,1.6-8.9c0.5-3.5,0.9-7.1,1.1-8.9c0-0.3,0.2-0.6,0.5-0.7c0.1-0.1,0.3-0.1,0.4-0.2
	c3.2-1.6,7-1,9.7,1.4l0,0l0,0c0,0,0.7,4.1-0.7,6.8c-1.4,2.7-1.4,9.9-1.4,9.9v0.1h-0.1c-2.2-0.7-10.8,0.5-10.9,0.5h-0.1L365.1,396.6z
	"/>
<path class="st3" d="M371.4,387.2h6.7c0.3,0,0.5,0.2,0.5,0.6l0,0c0,0.3-0.2,0.6-0.5,0.6h-6.7c-0.3,0-0.5-0.2-0.5-0.6l0,0
	C370.9,387.4,371.1,387.2,371.4,387.2z"/>
<path class="st3" d="M371.4,399.2h6.7c0.3,0,0.5,0.2,0.5,0.6l0,0c0,0.3-0.2,0.6-0.5,0.6h-6.7c-0.3,0-0.5-0.2-0.5-0.6l0,0
	C370.9,399.5,371.1,399.2,371.4,399.2z"/>
<path class="st3" d="M374.8,427.8c-0.1,0-0.2-0.1-0.3-0.3l-3.3-39.8c0-0.2,0.1-0.3,0.2-0.3s0.3,0.1,0.3,0.3l0,0l3.1,36.7l3-36.7
	c0-0.2,0.1-0.3,0.3-0.3c0.1,0,0.3,0.1,0.2,0.3l-3.2,39.8C375.1,427.7,375,427.8,374.8,427.8L374.8,427.8z"/>
<path class="st5" d="M372.7,399.4c-0.1-0.7,0.3-1.4,0.9-1.6c0.1,0,0.1,0,0.2,0l2.8-3.3l1.7,2.2l-3.2,2.5c0,0.7-0.6,1.3-1.3,1.3
	C373.3,400.4,372.8,400,372.7,399.4L372.7,399.4z"/>
<path class="st6" d="M374.3,397.1l4.4-6.2l-2.3-5.1l0.2-6.1l1.9-0.4l0,0c0.9,0.6,1.6,1.4,2,2.4c0.4,1.1,1.3,4.8,1.9,7.7
	c0.3,1.5-0.1,3.1-1.1,4.2l-5.4,5.7L374.3,397.1z"/>
<path class="st3" d="M355.9,426.1l6,1.5c0.2,0.1,0.5-0.1,0.6-0.3l5.1-14.5c0-0.1,0-0.2,0-0.4c-0.1-0.1-0.2-0.2-0.3-0.3l-4.5-1.8
	c-0.1-0.1-0.3,0-0.4,0c-0.1,0.1-0.2,0.2-0.2,0.3l0,0l-3.2,12.8l0,0c-1,0.1-1.9,0.5-2.7,1.2C356,425.1,355.9,425.6,355.9,426.1z"/>
<polygon class="st8" points="360.2,418.2 360.3,418 365.7,418.6 365.7,418.9 "/>
<polygon class="st8" points="359.7,420.5 359.8,420.2 364.2,422.3 364.1,422.6 "/>
<polygon class="st8" points="366.3,416.6 361.1,414.8 361.2,414.6 366.4,416.4 "/>
<polygon class="st8" points="366.8,415.4 361.6,412.7 361.7,412.5 366.9,415.1 "/>
<polygon class="st8" points="359.2,422.6 359.3,422.4 363.1,425.8 362.9,426 "/>
<polygon class="st8" points="358,423.7 358.3,423.5 359.8,427 359.5,427.2 "/>
<path class="st9" d="M423.2,405.1c-0.8-0.2-1.4-1.1-1.2-2c0-0.1,0-0.2,0.1-0.3l-5.7-13.8l3.3-0.9l4.6,13.8c0.8,0.4,1.1,1.4,0.7,2.2
	C424.6,404.9,423.9,405.2,423.2,405.1z"/>
<path class="st6" d="M417.4,393.3c-0.2-0.1-0.3-0.3-0.4-0.5l-1-3.6c-0.5-1,0-2.3,0.9-2.7c1-0.5,2.1,0,2.6,1l1.9,3.1
	c0.2,0.3,0.1,0.8-0.2,1c0,0-0.1,0-0.1,0.1l-3.2,1.6C417.8,393.4,417.6,393.4,417.4,393.3z"/>
<path class="st1" d="M429.1,391.6l-3.5,2.6c-0.1,0.1-0.2,0.1-0.3,0l-1-0.8c-0.1-0.1-0.1-0.3-0.1-0.4l0,0l2.7-2.6
	c0.1-0.1,0.2-0.1,0.3-0.1l1.8,0.7c0.1,0.1,0.2,0.2,0.2,0.4C429.2,391.5,429.2,391.5,429.1,391.6z"/>
<path class="st4" d="M428.9,391.3c0-0.1,0-0.1-0.1-0.1l-1.6-0.6h-0.1l-2.4,2.3l0,0v0.1l0,0l0.9,0.7h0.1L428.9,391.3
	C428.8,391.4,428.8,391.3,428.9,391.3z"/>
<polygon class="st9" points="416.3,431 418.1,431 418.9,423.7 416.3,423.7 "/>
<path class="st7" d="M415.8,430.4h3.5l0,0c1.2,0,2.2,1.1,2.2,2.4l0,0v0.1h-5.7V430.4z"/>
<polygon class="st9" points="410.3,431 412.1,431 413,423.7 410.3,423.7 "/>
<path class="st7" d="M409.9,430.4h3.5l0,0c1.2,0,2.2,1.1,2.2,2.4l0,0v0.1h-5.7V430.4z"/>
<path class="st7" d="M410,428.8c-0.1-0.1-0.2-0.3-0.2-0.5c-0.4-4.6,0.7-28.9,3.4-31l0,0l7.8-1.4l0,0l0.1,0.2
	c0,0.2,1.4,21.5-2.5,32.4c-0.1,0.3-0.3,0.4-0.6,0.4h-1.6c-0.4,0-0.7-0.3-0.7-0.7c0,0,0,0,0-0.1l1.3-20.4c0-0.1-0.1-0.2-0.2-0.2
	s-0.2,0.1-0.2,0.2l-3.6,20.7c-0.1,0.3-0.3,0.5-0.6,0.5l-2,0.2l0,0C410.3,429,410.1,428.9,410,428.8z"/>
<ellipse transform="matrix(0.599 -0.8007 0.8007 0.599 -136.635 487.9963)" class="st9" cx="418.9" cy="380.4" rx="3.5" ry="3.8"/>
<path class="st6" d="M411.7,400.5c-0.2-0.2-0.2-0.4-0.2-0.6l1.5-7.2c-1.2-5.2,0.4-6.2,2.1-7.2l0,0l0.7-2.1c0.1-0.3,0.4-0.6,0.8-0.5
	h0.1l3.7,2.1c0.2,0.1,0.3,0.3,0.3,0.5c0.1,0.2,0.1,0.4,0,0.6l-0.3,0.8c0.7,1,1.8,5,0.6,6.5l0.9,5.1c0,0.4-0.2,0.8-0.5,0.9l-9.2,1.2
	h-0.1C411.9,400.7,411.8,400.7,411.7,400.5z"/>
<path class="st9" d="M425,392.3c-0.1,0.1-0.1,0.1-0.2,0.2l-7.2-0.5l-0.8-1.7l-2.5,0.9l1.1,3.1c0.2,0.5,0.7,0.8,1.2,0.8l8.2-0.7
	c0.5,0.7,1.4,0.9,2.1,0.4s0.8-1.5,0.3-2.3c-0.5-0.7-1.4-0.9-2.1-0.4C425.1,392.2,425,392.2,425,392.3z"/>
<path class="st6" d="M417.4,392l-3.1,1.1c-0.3,0.1-0.7-0.1-0.8-0.4v-0.1l-0.6-3.4c-0.3-1,0.2-2.1,1.2-2.4s2,0.2,2.3,1.2l1.5,3.1
	C417.9,391.3,417.8,391.7,417.4,392C417.4,391.9,417.4,391.9,417.4,392L417.4,392z"/>
<ellipse transform="matrix(0.599 -0.8007 0.8007 0.599 -136.3986 482.0826)" class="st7" cx="413.1" cy="377.2" rx="2.8" ry="3.1"/>
<path class="st7" d="M421.7,378.5c0.2-0.1,0.4-0.4,0.6-0.6c0.1-0.3,0-0.6-0.2-0.9c-2.3-3.1-4.3-0.9-4.7-0.8c-0.3,0-0.5,0.1-0.8,0.1
	c-0.6,0.1-1.1,0.4-1.5,0.8c-0.5,0.4-1,0.9-1.3,1.5c-0.2,0.6-0.2,1.2-0.1,1.9c0.2,0.6,0.5,1.2,0.8,1.8c0.4,0.7,0.9,1.3,1.5,1.7
	c1,0.6,2.3,0.6,3.2-0.1c-0.8-0.6-1.1-1.5-0.8-2.4c0.2-0.6,0.7-1.2,1.3-1.5c0.4-0.2,0.7-0.5,1.1-0.7
	C421.1,379,421.5,378.7,421.7,378.5z"/>
<rect x="162.3" y="391.4" class="st4" width="0" height="0"/>
<g>
	
		<linearGradient id="SVGID_1_" gradientUnits="userSpaceOnUse" x1="500.7868" y1="251.7277" x2="500.7868" y2="262.7793" gradientTransform="matrix(2.1734 -0.5597 -0.3364 -1.8723 -638.4114 1054.8489)">
		<stop  offset="0" style="stop-color:#808080;stop-opacity:0.25"/>
		<stop  offset="0.54" style="stop-color:#808080;stop-opacity:0.12"/>
		<stop  offset="1" style="stop-color:#808080;stop-opacity:0.1"/>
	</linearGradient>
	<path class="st10" d="M387,277.3c-1.4,0.3-2.8,0.8-4.2,1.3l0,0c-0.1-0.5-0.6-0.8-1.2-0.6c-0.6,0.1-0.9,0.7-0.9,1.1l0,0
		c-1.4,0.2-2.9,0.5-4.3,0.8c-3.2,0.8-5.7,1.7-5.6,2.1s2.7,0,5.9-0.7c1.4-0.3,2.8-0.8,4.2-1.3l0,0c0,0.1,0.1,0.2,0.1,0.3
		c-0.3,0.3-0.3,0.7,0,0.9c0,0,0.1,0.1,0.2,0.1c-0.5,0.3-0.8,0.7-0.9,1.2c-0.3-0.1-0.7-0.2-1-0.1l-10.7,2.2c-0.9-0.7-2.3-1-3.6-0.7
		l-6.7,1.6c-1.3,0.3-2.5,1.2-3.1,2.3l-10,2.9c-0.3,0.1-0.6,0.3-0.9,0.5c-0.3-0.3-0.7-0.5-1.2-0.6c0.2-0.2,0.3-0.4,0.2-0.6
		c-0.1-0.3-0.3-0.5-0.6-0.5c0-0.1,0-0.2,0-0.3l0,0c1.4-0.2,2.9-0.5,4.3-0.8c3.2-0.8,5.7-1.7,5.6-2.1s-2.7,0-5.9,0.7
		c-1.4,0.3-2.8,0.8-4.2,1.3l0,0c-0.1-0.5-0.6-0.8-1.2-0.7l0,0c-0.6,0.1-0.9,0.7-0.8,1.2l0,0c-1.4,0.2-2.9,0.5-4.3,0.8
		c-3.2,0.8-5.7,1.7-5.6,2.1s2.7,0,5.9-0.7c1.4-0.3,2.8-0.8,4.2-1.3l0,0c0,0.1,0.1,0.2,0.1,0.3c-0.3,0.3-0.3,0.7,0,0.9
		c0,0.1,0.1,0.1,0.2,0.1c-0.7,0.4-1,1.2-0.9,1.8l0.2,1.1c0.2,0.9,1.2,1.5,2.2,1.2l0,0l0.8-0.2c0.6-0.1,1.1-0.5,1.4-1.1
		c0.4,0.2,0.8,0.2,1.2,0.1l10-2.2c0.4,0.4,0.9,0.6,1.5,0.8c-0.8,1.1-3.7,5.8-1.8,12.3c0,0,0.8,0.8,2.1-0.5c0,0-2.5-7.2,2.4-11.6
		c0.3,0.4,0.9,0.6,1.4,0.5l0.7-0.2c-1.3,0.9-2,2.3-1.7,3.6c0.3,1.8,2.2,2.8,4.2,2.4s3.5-2.2,3.2-4c0-0.1,0-0.1,0-0.2
		c-0.3-1.3-1.4-2.3-2.9-2.5l0.7-0.2c0.6-0.1,1-0.6,1.1-1.1c6.1,1.7,6.6,9.4,6.6,9.4c1.7,0.6,2.1-0.5,2.1-0.5
		c-0.8-7.8-6.6-10.4-6.6-10.4h-0.1c0.3-0.4,0.6-0.7,0.7-1.1l10.4-2.8c0.4-0.1,0.8-0.4,1.1-0.7c0.4,0.4,1.1,0.5,1.7,0.3l0.8-0.2
		c1.1-0.3,1.8-1.2,1.6-2.1l0,0l-0.2-1.1c-0.1-0.7-0.7-1.1-1.4-1.3c0.3-0.2,0.3-0.6,0.1-0.9c-0.1-0.1-0.3-0.2-0.4-0.2
		c0-0.1,0-0.2,0-0.3l0,0c1.4-0.2,2.9-0.5,4.3-0.8c3.2-0.8,5.7-1.7,5.6-2.1C392.8,276.2,390.2,276.5,387,277.3z"/>
	
		<ellipse transform="matrix(0.9383 -0.3457 0.3457 0.9383 -79.8782 143.9702)" class="st11" cx="363.7" cy="295.9" rx="3.7" ry="3.1"/>
	
		<ellipse transform="matrix(0.9383 -0.3457 0.3457 0.9383 -79.8783 143.9702)" class="st11" cx="363.7" cy="295.9" rx="2.5" ry="2.1"/>
	
		<ellipse transform="matrix(0.9383 -0.3457 0.3457 0.9383 -79.8783 143.9702)" class="st12" cx="363.7" cy="295.9" rx="2.5" ry="2.1"/>
	
		<ellipse transform="matrix(0.9345 -0.3559 0.3559 0.9345 -81.4954 148.8111)" class="st11" cx="363.7" cy="295.9" rx="1.6" ry="1.4"/>
	
		<ellipse transform="matrix(0.9345 -0.3559 0.3559 0.9345 -81.4954 148.8111)" class="st13" cx="363.7" cy="295.9" rx="1.6" ry="1.4"/>
	<path class="st11" d="M357.2,292.7c0,0-4.1,4.8-2,11.8c0,0,0.8,0.8,2.1-0.5c0,0-3-8.8,4.9-12.6L357.2,292.7z"/>
	<path class="st11" d="M368.4,290c0,0,5.5,2.5,6.3,9.8c0,0-0.4,1.1-2.1,0.5c0,0-0.6-9.4-9.2-9.1L368.4,290z"/>
	<path class="st11" d="M357.4,286.2l7.8-1.9c1.9-0.5,3.7,0.5,4,2.1l0.2,1.1c0.3,1.6-1,3.3-2.8,3.7l-7.8,1.9c-1.9,0.5-3.7-0.5-4-2.1
		l-0.2-1.1C354.3,288.3,355.5,286.7,357.4,286.2z"/>
	<path class="st11" d="M357.5,291.8l-11.4,2.5c-0.9,0.2-1.8-0.3-1.9-1.1l-0.1-0.4c-0.2-0.8,0.4-1.6,1.3-1.9l11.3-3.2
		c0.9-0.3,1.9,0.2,2.1,1c0,0,0,0,0,0.1l0.2,1.1C359.1,290.8,358.5,291.6,357.5,291.8L357.5,291.8z"/>
	<path class="st11" d="M367.7,289.3l11.3-3.1c0.9-0.3,1.5-1.1,1.4-1.9l-0.1-0.4c-0.2-0.8-1-1.3-1.9-1.1l-11.5,2.3
		c-0.9,0.2-1.6,1-1.5,1.8c0,0,0,0,0,0.1l0.2,1.1C365.9,289.1,366.8,289.6,367.7,289.3L367.7,289.3z"/>
	<path class="st12" d="M357.5,291.8l-11.4,2.5c-0.9,0.2-1.8-0.3-1.9-1.1l-0.1-0.4c-0.2-0.8,0.4-1.6,1.3-1.9l11.3-3.2
		c0.9-0.3,1.9,0.2,2.1,1c0,0,0,0,0,0.1l0.2,1.1C359.1,290.8,358.5,291.6,357.5,291.8L357.5,291.8z"/>
	<path class="st12" d="M367.7,289.3l11.3-3.1c0.9-0.3,1.5-1.1,1.4-1.9l-0.1-0.4c-0.2-0.8-1-1.3-1.9-1.1l-11.5,2.3
		c-0.9,0.2-1.6,1-1.5,1.8c0,0,0,0,0,0.1l0.2,1.1C365.9,289.1,366.8,289.6,367.7,289.3L367.7,289.3z"/>
	<path class="st11" d="M341.9,291.2l0.7-0.2c1-0.2,2,0.3,2.2,1.1l0.2,1c0.2,0.9-0.5,1.8-1.5,2l-0.7,0.2c-1,0.2-2-0.3-2.2-1.1l-0.2-1
		C340.2,292.4,340.9,291.4,341.9,291.2z"/>
	<path class="st11" d="M381,281.6l0.7-0.2c1-0.2,2,0.3,2.2,1.1l0.2,1c0.2,0.9-0.5,1.8-1.5,2l-0.7,0.2c-1,0.2-2-0.3-2.2-1.1l-0.2-1
		C379.3,282.8,379.9,281.9,381,281.6z"/>
	<path class="st11" d="M341.4,290.3l1.5-0.4c0.3-0.1,0.6,0.1,0.6,0.3v0.2c0.1,0.3-0.2,0.5-0.5,0.6l-1.5,0.4
		c-0.3,0.1-0.6-0.1-0.6-0.3v-0.2C340.9,290.7,341.1,290.4,341.4,290.3z"/>
	<path class="st11" d="M341.5,288.3l0.3-0.1c0.5-0.1,0.9,0.1,1,0.5l0.2,1.1c0.1,0.4-0.2,0.8-0.7,0.9l-0.3,0.1
		c-0.5,0.1-0.9-0.1-1-0.5l-0.2-1.1C340.8,288.8,341.1,288.4,341.5,288.3z"/>
	
		<ellipse transform="matrix(0.9712 -0.2382 0.2382 0.9712 -59.5794 88.5941)" class="st11" cx="336.8" cy="290.8" rx="5.7" ry="0.6"/>
	
		<ellipse transform="matrix(0.9712 -0.2382 0.2382 0.9712 -58.6852 90.9763)" class="st11" cx="347.1" cy="288.3" rx="5.7" ry="0.6"/>
	<path class="st11" d="M380.5,280.8l1.5-0.4c0.3-0.1,0.6,0.1,0.6,0.3v0.2c0.1,0.3-0.2,0.5-0.5,0.6l-1.5,0.4
		c-0.3,0.1-0.6-0.1-0.6-0.3v-0.2C380,281.1,380.2,280.9,380.5,280.8z"/>
	<path class="st11" d="M380.6,278.7l0.3-0.1c0.5-0.1,0.9,0.1,1,0.5l0.2,1.1c0.1,0.4-0.2,0.8-0.7,0.9l-0.3,0.1
		c-0.5,0.1-0.9-0.1-1-0.5l-0.2-1.1C379.9,279.2,380.2,278.8,380.6,278.7z"/>
	
		<ellipse transform="matrix(0.9712 -0.2382 0.2382 0.9712 -56.1689 97.6301)" class="st11" cx="375.9" cy="281.2" rx="5.7" ry="0.6"/>
	
		<ellipse transform="matrix(0.9712 -0.2382 0.2382 0.9712 -55.2752 100.0135)" class="st11" cx="386.2" cy="278.7" rx="5.7" ry="0.6"/>
	
		<ellipse transform="matrix(0.9712 -0.2382 0.2382 0.9712 -59.5794 88.5941)" class="st12" cx="336.8" cy="290.8" rx="5.7" ry="0.6"/>
	
		<ellipse transform="matrix(0.9712 -0.2382 0.2382 0.9712 -58.6852 90.9763)" class="st12" cx="347.1" cy="288.3" rx="5.7" ry="0.6"/>
	
		<ellipse transform="matrix(0.9712 -0.2382 0.2382 0.9712 -56.1689 97.6301)" class="st12" cx="375.9" cy="281.2" rx="5.7" ry="0.6"/>
	
		<ellipse transform="matrix(0.9712 -0.2382 0.2382 0.9712 -55.2752 100.0135)" class="st12" cx="386.2" cy="278.7" rx="5.7" ry="0.6"/>
	<path class="st11" d="M360.5,291.3l4.4-1.1c0.6-0.2,1.2,0.2,1.3,0.7l0.1,0.4c0.1,0.5-0.3,1.1-0.9,1.2l-4.4,1.1
		c-0.6,0.2-1.2-0.2-1.3-0.7l-0.1-0.4C359.5,292,359.9,291.5,360.5,291.3z"/>
	<path class="st12" d="M360.5,291.3l4.4-1.1c0.6-0.2,1.2,0.2,1.3,0.7l0.1,0.4c0.1,0.5-0.3,1.1-0.9,1.2l-4.4,1.1
		c-0.6,0.2-1.2-0.2-1.3-0.7l-0.1-0.4C359.5,292,359.9,291.5,360.5,291.3z"/>
	
		<ellipse transform="matrix(0.9699 -0.2434 0.2434 0.9699 -64.3823 97.9532)" class="st14" cx="364.2" cy="309.5" rx="17.1" ry="2.2"/>
</g>
<path class="st15" d="M417.5,302.8l-1,0.4l-0.1-0.5C416.5,302.7,416.5,303,417.5,302.8z"/>
<g>
	<path class="st11" d="M532.4,354.1l3.2,12c0.1,0.4,0.5,0.7,1,0.6h0.1c0.2-0.1,0.4-0.2,0.6-0.4c0.1-0.2,0.2-0.4,0.1-0.6l-3.2-12.2
		L532.4,354.1z"/>
	<path class="st11" d="M514.6,358.5l3.2,12c0.1,0.4,0.5,0.7,1,0.6h0.1c0.2-0.1,0.4-0.2,0.6-0.4c0.1-0.2,0.2-0.4,0.1-0.6l-3.2-12.2
		L514.6,358.5z"/>
	<path class="st4" d="M543.6,364.4c-0.2-0.6-0.8-0.9-1.4-0.9l-1.1,0.1l-1.9,0.2L537,364l-1.9,0.2l-13,1.3c-0.2,0-0.4,0.1-0.6,0.2
		l-2.7,1.4l-1.1,0.5l-0.4,0.2l0,0l0,0l-0.2,0.1l-1.6,0.8L515,369l-0.2,0.1l-1.5,0.8l-3,1.5c-0.2,0.1-0.4,0.2-0.5,0.4l0,0
		c-0.2,0.3-0.3,0.6-0.2,1l3.6,13.6c0,0.1,0.1,0.2,0.1,0.3c0.2,0.4,0.7,0.6,1.3,0.6l18.8-1.2l1.9-0.1c0.1,0,0.2,0,0.2,0s0,0,0.1,0
		s0.1,0,0.2-0.1l0,0c0.1,0,0.1-0.1,0.2-0.1l5.9-3.3l4.9-2.8c0.5-0.3,0.8-0.8,0.6-1.3L543.6,364.4z"/>
	<path class="st1" d="M542.4,364.7c0-0.1-0.1-0.1-0.2-0.1h-0.1l-0.8,0.1h-0.1l0,0l0,0l-1.8,0.2l-2.2,0.2l-1.9,0.2l-13.2,1.4l0,0l0,0
		l-1,0.5l-1,0.5l-1,0.5l-1.7,0.9l-0.2,0.1l0,0l-2,1l-1.7,0.9l-1.1,0.6l-0.7,0.4l0,0l-0.8,0.4c-0.1,0-0.1,0.1-0.1,0.2l3.6,13.6
		c0,0.1,0.1,0.1,0.2,0.1l0.8-0.1l18-1.1l1.7-0.1l0,0h0.1h0.1l0.2-0.1l4.4-2.4l0,0l1.7-0.9l4.6-2.6c0.1,0,0.1-0.1,0.1-0.2
		L542.4,364.7z"/>
	<path class="st1" d="M543.6,364.4c-0.2-0.6-0.8-0.9-1.4-0.9l-1.1,0.1l-1.9,0.2L537,364l-1.9,0.2l-13,1.3c-0.2,0-0.4,0.1-0.6,0.2
		l-2.7,1.4l-1.1,0.5l-0.4,0.2l0,0l0,0l-0.2,0.1l-1.6,0.8L515,369l-0.2,0.1l-1.5,0.8l-3,1.5c-0.2,0.1-0.4,0.2-0.5,0.4l0,0
		c-0.2,0.3-0.3,0.6-0.2,1l3.6,13.6c0,0.1,0.1,0.2,0.1,0.3c0.2,0.4,0.7,0.6,1.3,0.6l18.8-1.2l1.9-0.1c0.1,0,0.2,0,0.2,0s0,0,0.1,0
		s0.1,0,0.2-0.1l0,0c0.1,0,0.1-0.1,0.2-0.1l5.9-3.3l4.9-2.8c0.5-0.3,0.8-0.8,0.6-1.3L543.6,364.4z M546.6,379.4l-4.9,2.7L540,383
		l-4.3,2.4c0,0,0,0-0.1,0s-0.2,0.1-0.3,0.1l0,0h-0.1l-1.8,0.1l-18.8,1.2c-0.4,0-0.7-0.1-0.9-0.4c-0.1-0.1-0.1-0.2-0.1-0.3l-3.6-13.6
		c-0.1-0.2,0-0.4,0.1-0.6l0,0l0,0c0.1-0.1,0.2-0.2,0.3-0.3h0.1l2.9-1.4l1.7-0.9l0.2-0.1l0,0l1.9-1l0.9-0.4l0.7-0.4l0.1-0.1l2.8-1.4
		c0.1,0,0.2-0.1,0.2-0.1c0.1,0,0.1,0,0.2,0l13-1.4l1.9-0.2l2.2-0.2l1.9-0.2l1-0.1c0.2,0,0.4,0,0.6,0.1l0,0c0.3,0.1,0.4,0.3,0.5,0.6
		l3.8,13.9C547.2,378.7,547,379.2,546.6,379.4z"/>
	<path class="st1" d="M543,364.1L543,364.1l-5.4,2.8l-1.7,0.8l-4.7,2.4l0,0l0,0l-21.1,1.9H510c-0.1,0-0.2-0.1-0.2-0.1
		c0-0.1,0.1-0.2,0.2-0.2h0.4l20.7-1.8l4.1-2.1l2.3-1.2l5.2-2.7h0.1c0.1,0,0.2,0,0.2,0l0,0C543.1,364,543.1,364.1,543,364.1z"/>
	<path class="st1" d="M535.6,385.9c-0.1,0-0.2,0-0.2-0.1l-4.4-15.7c0-0.1,0-0.2,0.1-0.2l0,0c0.1,0,0.2,0,0.2,0.1l4.4,15.7
		C535.7,385.8,535.7,385.8,535.6,385.9L535.6,385.9z"/>
	<path class="st11" d="M541.7,382.3l-1.7,0.8l-4.9-15.3l-19.9,1.5c0,0,0,0-0.1,0c-0.2,0-0.3,0-0.4-0.1l2.4-1.2l0.8-0.1l18.9-1.4
		c0.2,0,0.4,0,0.5,0.2C537.6,366.7,541.7,382.2,541.7,382.3z"/>
	<path class="st11" d="M542.9,348.2c-0.3,0-0.7,0-1,0l-0.3-1.2c-0.1-0.4-0.4-0.8-0.8-1c-0.2-0.1-0.4-0.2-0.6-0.2c-0.1,0-0.1,0-0.2,0
		c-0.2,0-0.4,0-0.6,0c-0.2,0-0.4,0.1-0.6,0.2c-0.1,0.1-0.2,0.1-0.3,0.2s-0.3,0.2-0.4,0.4c0,0,0,0.1-0.1,0.1
		c-0.3,0.4-0.3,0.8-0.2,1.2l0.1,0.5c-10.1,0.7-20,3.2-29.2,7.3l-0.1-0.5c-0.1-0.4-0.4-0.8-0.8-1c-0.2-0.1-0.4-0.2-0.6-0.2
		c-0.1,0-0.1,0-0.2,0c-0.2,0-0.4,0-0.6,0s-0.4,0.1-0.6,0.2c-0.1,0.1-0.2,0.1-0.3,0.2c-0.1,0.1-0.3,0.2-0.4,0.4c0,0,0,0.1-0.1,0.1
		c-0.3,0.4-0.3,0.8-0.2,1.2l0.3,1.3c-0.3,0.1-0.6,0.3-0.9,0.4h-0.1v0.1c0.1,0.5,0.4,1,0.8,1.5l0.3,0.3c1.1,0.9,2.7,1.3,4.2,0.9
		l1.3-0.3l3.2,12.1c0.1,0.4,0.5,0.7,1,0.6c0.3,0,0.5-0.2,0.6-0.4c0.1-0.2,0.2-0.4,0.1-0.6l-3.2-12.1c0.9,0,1.7,0.3,2.2,0.8
		c0.2,0.2,0.4,0.3,0.6,0.5c1.3,0.9,3,1.2,4.6,0.8l11.2-2.8c0.9-0.2,1.6-0.6,2.3-1.1s1.1-1.2,1.4-1.9c0.1-0.2,0.1-0.3,0.1-0.5
		c0.2-0.8,0.7-1.4,1.5-1.8l3.2,12c0.1,0.4,0.5,0.7,1,0.6h0.1c0.2-0.1,0.4-0.2,0.6-0.4c0.1-0.2,0.2-0.4,0.1-0.6l-3.2-12.2l1.3-0.3
		c1.5-0.4,2.8-1.4,3.2-2.7c0-0.1,0.1-0.2,0.1-0.4C543.1,349.4,543.1,348.8,542.9,348.2L542.9,348.2L542.9,348.2z"/>
	<ellipse transform="matrix(0.9804 -0.1972 0.1972 0.9804 -60.3387 110.4476)" class="st1" cx="524.4" cy="358.2" rx="5" ry="4.3"/>
	
		<ellipse transform="matrix(0.9804 -0.1972 0.1972 0.9804 -60.3387 110.4476)" class="st11" cx="524.4" cy="358.2" rx="2.7" ry="2.3"/>
	<path class="st11" d="M546,343.3l-6.3,1.6l0.2,0.9l7.4-1.9C547.2,343.5,546.6,343.2,546,343.3z"/>
	<path class="st11" d="M532.2,346.8c-0.6,0.1-1,0.6-0.9,1.1l7.4-1.9l-0.2-0.9L532.2,346.8z"/>
	<path class="st1" d="M540.9,345.5c-0.2-0.3-0.4-0.6-0.8-0.7c-0.9-0.3-1.9,0-2.4,0.8c-0.1,0.2-0.2,0.5-0.2,0.8c0,0.1,0,0.2,0,0.3
		v0.1l3.4-0.9v-0.1C541,345.7,541,345.6,540.9,345.5z"/>
	<path class="st11" d="M513,351.5l-6.3,1.6l0.2,0.9l7.4-1.9C514.2,351.7,513.6,351.4,513,351.5z"/>
	<path class="st11" d="M499.1,355c-0.6,0.1-1,0.6-0.9,1.1l7.4-1.9l-0.2-0.9L499.1,355z"/>
	<path class="st1" d="M507.9,353.7c-0.4-0.8-1.4-1.1-2.3-0.7c-0.7,0.3-1.1,0.9-1.1,1.5c0,0.1,0,0.2,0,0.3v0.1l3.4-0.9v-0.1
		C508,353.9,507.9,353.8,507.9,353.7z"/>
	<path class="st1" d="M504.9,359.4c12.3-4.5,25-7.7,38-9.5c0,0.1-0.1,0.3-0.1,0.4c-6.4,0.9-12.7,2.1-19,3.6l0,0
		c-0.4,0.1-0.7,0.2-1.1,0.3l0,0c-6,1.5-11.8,3.3-17.6,5.5L504.9,359.4z"/>
	<path class="st11" d="M523.9,382.5L523.9,382.5l-6.6,0.4c-0.2,0-0.3-0.1-0.3-0.3s0.1-0.3,0.3-0.3l6.6-0.3c0.2,0,0.3,0.1,0.3,0.3
		C524.1,382.4,524,382.5,523.9,382.5L523.9,382.5z"/>
	<path class="st11" d="M521.4,379.6L521.4,379.6l-6.6,0.4c-0.2,0-0.3-0.1-0.3-0.3s0.1-0.3,0.3-0.3l0,0l6.6-0.3
		c0.2,0,0.3,0.1,0.3,0.3C521.7,379.5,521.6,379.6,521.4,379.6L521.4,379.6z"/>
</g>
<g>
	
		<linearGradient id="SVGID_00000009587459116730111410000009427934963494831252_" gradientUnits="userSpaceOnUse" x1="768.0453" y1="389.3991" x2="768.0453" y2="406.8215" gradientTransform="matrix(-1.8064 0.3347 -0.3851 -1.5698 2121.0308 594.7974)">
		<stop  offset="0" style="stop-color:#808080;stop-opacity:0.25"/>
		<stop  offset="0.54" style="stop-color:#808080;stop-opacity:0.12"/>
		<stop  offset="1" style="stop-color:#808080;stop-opacity:0.1"/>
	</linearGradient>
	<path style="fill:url(#SVGID_00000009587459116730111410000009427934963494831252_);" d="M545.2,220.5c1.8-0.4,3.6-0.6,5.5-0.7l0,0
		c-0.2-0.7,0.3-1.3,1-1.4c0.7-0.1,1.4,0.3,1.6,0.9l0,0c1.7-0.6,3.5-1,5.3-1.3c4-0.8,7.3-1,7.4-0.5c0.1,0.5-3,1.5-7,2.3
		c-1.8,0.4-3.6,0.6-5.5,0.7l0,0c0,0.1,0.1,0.3,0,0.4c0.5,0.2,0.7,0.6,0.5,1.1c0,0.1-0.1,0.1-0.1,0.2c0.7,0.1,1.3,0.4,1.7,0.9
		c0.3-0.3,0.7-0.6,1.1-0.7l13.3-3.2c0.7-1.4,2.1-2.5,3.8-2.8l8.5-1.7c1.7-0.3,3.4,0.1,4.7,1.2l12.9-1.9c0.4-0.1,0.9,0,1.2,0.1
		c0.1-0.5,0.5-1,1-1.4c-0.3-0.1-0.5-0.3-0.5-0.6c-0.1-0.4,0.1-0.7,0.4-0.9c-0.1-0.1-0.1-0.2-0.1-0.3l0,0c-1.7,0.6-3.5,1-5.3,1.3
		c-4,0.8-7.3,1-7.4,0.5c-0.1-0.5,3-1.5,7-2.3c1.8-0.4,3.6-0.6,5.5-0.7l0,0c-0.2-0.7,0.3-1.3,1-1.5l0,0c0.7-0.1,1.4,0.3,1.6,1l0,0
		c1.7-0.6,3.5-1,5.3-1.3c4-0.8,7.3-1,7.4-0.5c0.1,0.5-3,1.5-7,2.3c-1.8,0.4-3.6,0.6-5.5,0.7l0,0c0,0.1,0.1,0.3,0,0.4
		c0.5,0.2,0.7,0.6,0.5,1.1c0,0.1-0.1,0.2-0.2,0.2c1,0.2,1.8,0.9,2,1.8l0.4,1.5c0.3,1.2-0.5,2.4-1.9,2.7l0,0l-1,0.2
		c-0.8,0.1-1.6,0-2.1-0.5c-0.3,0.4-0.8,0.7-1.3,0.8l-12.5,2.8c-0.3,0.7-0.7,1.3-1.2,1.8c1.5,0.9,7.3,5.1,8.7,14.1
		c0,0-0.4,1.5-2.7,0.5c0,0-1.1-10.2-9-12.9c-0.1,0.7-0.6,1.3-1.4,1.4l-0.9,0.2c1.9,0.3,3.5,1.7,3.9,3.5c0.6,2.3-0.9,4.7-3.5,5.2
		c-2.5,0.6-5.1-0.8-5.8-3.2c0-0.1-0.1-0.2-0.1-0.3c-0.4-1.8,0.4-3.6,2-4.6l-0.9,0.2c-0.8,0.1-1.5-0.2-1.9-0.8
		c-6,5.5-2.4,15.1-2.4,15.1c-1.6,1.7-2.7,0.5-2.7,0.5c-3.3-10,1.8-16.4,1.8-16.4h0.1c-0.5-0.3-1-0.6-1.5-1l-13.3,2.2
		c-0.6,0.1-1.2,0-1.7-0.3c-0.3,0.7-1,1.2-1.7,1.3l-1,0.2c-1.3,0.2-2.6-0.5-2.9-1.8l0,0l-0.4-1.5c-0.2-0.9,0.2-1.8,0.9-2.3
		c-0.5-0.1-0.7-0.6-0.6-1.1c0.1-0.2,0.2-0.4,0.4-0.4c-0.1-0.1-0.1-0.2-0.1-0.3l0,0c-1.7,0.6-3.5,1-5.3,1.4c-4,0.8-7.3,1-7.4,0.5
		C538,222.3,541.2,221.3,545.2,220.5z"/>
	<ellipse class="st11" cx="581.6" cy="230.8" rx="4.6" ry="4.2"/>
	<ellipse class="st11" cx="581.6" cy="230.8" rx="3.1" ry="2.8"/>
	<ellipse class="st12" cx="581.6" cy="230.8" rx="3.1" ry="2.8"/>
	
		<ellipse transform="matrix(3.139680e-02 -0.9995 0.9995 3.139680e-02 332.6513 804.8185)" class="st11" cx="581.6" cy="230.8" rx="1.9" ry="2"/>
	
		<ellipse transform="matrix(3.139680e-02 -0.9995 0.9995 3.139680e-02 332.6513 804.8185)" class="st13" cx="581.6" cy="230.8" rx="1.9" ry="2"/>
	<path class="st11" d="M587.2,223.3c0,0,7.2,3.7,8.6,13.5c0,0-0.4,1.4-2.6,0.5c0,0-1.3-12.5-12.3-12.8L587.2,223.3z"/>
	<path class="st11" d="M573.2,226c0,0-5,6-1.8,15.5c0,0,1,1.1,2.6-0.5c0,0-4.4-11.9,5.5-16.2L573.2,226z"/>
	<path class="st11" d="M583.5,215.3l-9.8,1.9c-2.4,0.5-3.9,2.6-3.4,4.7l0.3,1.5c0.5,2.2,2.9,3.5,5.2,3.1l9.8-1.9
		c2.4-0.5,3.9-2.6,3.4-4.7l-0.3-1.5C588.2,216.3,585.9,214.9,583.5,215.3z"/>
	<path class="st11" d="M586.5,222.3l14.3-3.2c1.2-0.3,1.9-1.3,1.6-2.4l-0.1-0.5c-0.2-1.1-1.3-1.7-2.5-1.6l-14.5,2.2
		c-1.2,0.2-2,1.2-1.8,2.3c0,0,0,0,0,0.1l0.3,1.5C584,221.9,585.2,222.5,586.5,222.3L586.5,222.3z"/>
	<path class="st11" d="M573.5,224.8l-14.5,2.4c-1.2,0.2-2.3-0.5-2.6-1.6l-0.1-0.5c-0.2-1.1,0.5-2.1,1.6-2.4l14.2-3.4
		c1.2-0.3,2.4,0.4,2.7,1.4c0,0,0,0,0,0.1l0.3,1.5C575.5,223.5,574.7,224.6,573.5,224.8L573.5,224.8z"/>
	<path class="st12" d="M586.5,222.3l14.3-3.2c1.2-0.3,1.9-1.3,1.6-2.4l-0.1-0.5c-0.2-1.1-1.3-1.7-2.5-1.6l-14.5,2.2
		c-1.2,0.2-2,1.2-1.8,2.3c0,0,0,0,0,0.1l0.3,1.5C584,221.9,585.2,222.5,586.5,222.3L586.5,222.3z"/>
	<path class="st12" d="M573.5,224.8l-14.5,2.4c-1.2,0.2-2.3-0.5-2.6-1.6l-0.1-0.5c-0.2-1.1,0.5-2.1,1.6-2.4l14.2-3.4
		c1.2-0.3,2.4,0.4,2.7,1.4c0,0,0,0,0,0.1l0.3,1.5C575.5,223.5,574.7,224.6,573.5,224.8L573.5,224.8z"/>
	<path class="st11" d="M603.7,213l-0.9,0.2c-1.3,0.3-2.1,1.4-1.8,2.6l0.3,1.4c0.3,1.2,1.6,1.9,2.8,1.7l0.9-0.2
		c1.3-0.3,2.1-1.4,1.8-2.6l-0.3-1.4C606.3,213.5,605,212.8,603.7,213z"/>
	<path class="st11" d="M554.3,222.6l-0.9,0.2c-1.3,0.3-2.1,1.4-1.8,2.6l0.3,1.4c0.3,1.2,1.6,1.9,2.8,1.7l0.9-0.2
		c1.3-0.3,2.1-1.4,1.8-2.6l-0.3-1.4C556.9,223.1,555.6,222.3,554.3,222.6z"/>
	<path class="st11" d="M603.9,211.7l-1.9,0.4c-0.4,0.1-0.6,0.4-0.5,0.8l0.1,0.2c0.1,0.4,0.5,0.6,0.9,0.5l1.9-0.4
		c0.4-0.1,0.6-0.4,0.5-0.8l-0.1-0.2C604.7,211.8,604.3,211.6,603.9,211.7z"/>
	<path class="st11" d="M602.6,209.2l-0.4,0.1c-0.6,0.1-1,0.6-0.8,1.2l0.4,1.5c0.1,0.5,0.7,0.9,1.3,0.8l0.4-0.1
		c0.6-0.1,1-0.6,0.8-1.2l-0.4-1.5C603.8,209.5,603.2,209.1,602.6,209.2z"/>
	
		<ellipse transform="matrix(0.9818 -0.1899 0.1899 0.9818 -28.7364 119.5204)" class="st11" cx="609.3" cy="209.7" rx="7.2" ry="0.9"/>
	
		<ellipse transform="matrix(0.9818 -0.1899 0.1899 0.9818 -29.4665 117.1024)" class="st11" cx="596.3" cy="212.3" rx="7.2" ry="0.9"/>
	<path class="st11" d="M554.5,221.3l-1.9,0.4c-0.4,0.1-0.6,0.4-0.5,0.8l0.1,0.2c0.1,0.4,0.5,0.6,0.9,0.5l1.9-0.4
		c0.4-0.1,0.6-0.4,0.5-0.8l-0.1-0.2C555.2,221.4,554.8,221.2,554.5,221.3z"/>
	<path class="st11" d="M553.2,218.8l-0.4,0.1c-0.6,0.1-1,0.6-0.8,1.2l0.4,1.5c0.1,0.5,0.7,0.9,1.3,0.8l0.4-0.1
		c0.6-0.1,1-0.6,0.8-1.2l-0.4-1.5C554.3,219,553.8,218.7,553.2,218.8z"/>
	
		<ellipse transform="matrix(0.9818 -0.1899 0.1899 0.9818 -31.4558 110.3134)" class="st11" cx="559.9" cy="219.3" rx="7.2" ry="0.9"/>
	
		<ellipse transform="matrix(0.9818 -0.1899 0.1899 0.9818 -32.1721 107.8721)" class="st11" cx="546.8" cy="221.8" rx="7.2" ry="0.9"/>
	
		<ellipse transform="matrix(0.9818 -0.1899 0.1899 0.9818 -28.7364 119.5204)" class="st12" cx="609.3" cy="209.7" rx="7.2" ry="0.9"/>
	
		<ellipse transform="matrix(0.9818 -0.1899 0.1899 0.9818 -29.4665 117.1024)" class="st12" cx="596.3" cy="212.3" rx="7.2" ry="0.9"/>
	
		<ellipse transform="matrix(0.9818 -0.1899 0.1899 0.9818 -31.4558 110.3134)" class="st12" cx="559.9" cy="219.3" rx="7.2" ry="0.9"/>
	
		<ellipse transform="matrix(0.9818 -0.1899 0.1899 0.9818 -32.1721 107.8721)" class="st12" cx="546.8" cy="221.8" rx="7.2" ry="0.9"/>
	<path class="st11" d="M582.8,223.3l-5.6,1.1c-0.8,0.1-1.3,0.8-1.1,1.6l0.1,0.5c0.2,0.7,0.9,1.2,1.7,1l5.6-1.1
		c0.8-0.1,1.3-0.8,1.1-1.6l-0.1-0.5C584.3,223.6,583.6,223.2,582.8,223.3z"/>
	<path class="st12" d="M582.8,223.3l-5.6,1.1c-0.8,0.1-1.3,0.8-1.1,1.6l0.1,0.5c0.2,0.7,0.9,1.2,1.7,1l5.6-1.1
		c0.8-0.1,1.3-0.8,1.1-1.6l-0.1-0.5C584.3,223.6,583.6,223.2,582.8,223.3z"/>
	
		<ellipse transform="matrix(0.9829 -0.1842 0.1842 0.9829 -35.5607 112.6218)" class="st14" cx="588.4" cy="247.7" rx="21.4" ry="3"/>
</g>
<g>
	<path class="st1" d="M461.4,336.8h4.2v0.3c0,1.8-0.8,3.2-1.9,3.2h-0.4c-1,0-1.9-1.4-1.9-3.2L461.4,336.8L461.4,336.8z"/>
	<path class="st1" d="M474.9,332.9l-7.3-2.6v-0.7c0-0.1,0-0.1,0-0.2l3.4-2.5c0.4-1.1,1-0.5,1-0.5s1.2,0.3,0.9-1.6
		c-0.2-1.9-1.8-0.5-1.8-0.5l-4.2,2.2l-0.7-2.7c-0.2-0.8-0.7-1.4-1.2-1.4h-2.4c-0.5,0-1,0.5-1.2,1.3l-0.8,2.8l-4.2-2.2
		c0,0-1.6-1.4-1.8,0.5c-0.2,1.9,0.9,1.6,0.9,1.6s0.6-0.6,1,0.5l3.4,2.5l-0.1,0.2c-0.1,0.2-0.1,0.5-0.1,0.8l-7.1,2.5
		c-0.6,0.2-0.9,1.3-0.7,2.2l0.2,0.7c0.2,1,1,1.3,1.4,0.7c0.2-0.2,0.3-0.5,0.3-1l5.9-2.3c0.4,2.6,1.8,4.6,3.4,4.6h1.2
		c1.7,0,3.1-2,3.4-4.7l6.1,2.4c0,0.5,0.1,0.8,0.3,1c0.5,0.6,1.2,0.3,1.4-0.7l0.2-0.7C475.9,334.2,475.5,333.1,474.9,332.9
		L474.9,332.9z"/>
	<path class="st11" d="M471.5,322.2l-3.6-3c0,0-0.4,0-0.2,0.3c0.2,0.3,4,3.3,4,3.3L471.5,322.2L471.5,322.2z"/>
	<path class="st11" d="M472.5,323.4c0,0,0.2,1.1,0.8,1.8c0.6,0.7,4,2.3,4,2.3l0.5-0.5l-3.7-3.5l-1.2-0.2L472.5,323.4L472.5,323.4z"
		/>
	<path class="st11" d="M474.9,333.5c0,0,0.7,0.4,1.3-0.1c0.7-0.5,3.3-4.4,3.3-4.4v-1l-3.7,3.4L475,333L474.9,333.5L474.9,333.5z"/>
	<path class="st11" d="M475.2,333.6c0,0-0.6-0.7-1.3-0.6s-3.9,2.4-3.9,2.4l-0.2,0.9l4.2-1.2l1.1-1.1L475.2,333.6L475.2,333.6z"/>
	<path class="st11" d="M455.9,322.2l3.6-3c0,0,0.4,0,0.2,0.3c-0.2,0.3-4,3.3-4,3.3L455.9,322.2z"/>
	<path class="st11" d="M454.9,323.4c0,0-0.2,1.1-0.8,1.8c-0.6,0.7-4,2.3-4,2.3l-0.5-0.5l3.7-3.5l1.2-0.2L454.9,323.4L454.9,323.4z"
		/>
	<path class="st11" d="M452.5,333.5c0,0-0.7,0.4-1.3-0.1c-0.7-0.5-3.3-4.4-3.3-4.4v-1l3.7,3.4l0.8,1.6L452.5,333.5L452.5,333.5z"/>
	<path class="st11" d="M452.2,333.6c0,0,0.6-0.7,1.3-0.6c0.7,0.1,3.9,2.4,3.9,2.4l0.2,0.9l-4.2-1.2l-1.1-1.1L452.2,333.6
		L452.2,333.6z"/>
	<ellipse class="st1" cx="472.1" cy="323.7" rx="1" ry="1.7"/>
	<ellipse class="st1" cx="455.2" cy="323.8" rx="1" ry="1.7"/>
</g>
<g>
	<path class="st11" d="M485.9,199l-2.4,19.6c-0.1,0.7,0.3,1.3,1,1.4h0.1c0.3,0,0.7,0,0.9-0.2c0.3-0.2,0.5-0.5,0.5-0.9l2.4-19.8
		L485.9,199z"/>
	<path class="st11" d="M460.3,196.1l-2.4,19.6c-0.1,0.7,0.3,1.3,1,1.4h0.1c0.3,0,0.7,0,0.9-0.2c0.3-0.2,0.5-0.5,0.5-0.9l2.4-19.8
		L460.3,196.1z"/>
	<path class="st4" d="M494.9,220.3c0.1-0.9-0.5-1.8-1.4-2l-1.5-0.4l-2.6-0.7l-3-0.8l-2.6-0.7l-17.7-4.9c-0.3-0.1-0.5-0.1-0.8-0.1
		l-4.3,0.6l-1.7,0.2l-0.7,0.1l0,0l0,0h-0.3l-2.6,0.3l-0.8,0.1h-0.2l-2.4,0.3l-4.7,0.6c-0.3,0-0.6,0.2-0.9,0.3l0,0
		c-0.5,0.3-0.7,0.8-0.8,1.3l-2.7,22.1c0,0.2,0,0.3,0,0.5c0.1,0.7,0.6,1.3,1.3,1.5l25.1,8.3l2.5,0.8c0.1,0,0.2,0.1,0.3,0.1h0.1
		c0.1,0,0.2,0,0.3,0l0,0c0.1,0,0.2,0,0.3,0l9.5-1.8l8-1.5c0.8-0.2,1.5-0.8,1.6-1.7L494.9,220.3z"/>
	<path class="st1" d="M493.2,220.1c0-0.1-0.1-0.2-0.2-0.3l-0.2-0.1l-1-0.3h-0.1l0,0l0,0l-2.5-0.7l-3-0.8l-2.6-0.7l-17.9-5l0,0
		c0,0,0,0-0.1,0l-1.6,0.2l-1.6,0.2l-1.5,0.2l-2.7,0.4H458l0,0l-3.1,0.4l-2.7,0.4l-1.8,0.2l-1.2,0.2l0,0l-1.3,0.2
		c-0.1,0-0.2,0.1-0.2,0.2l-2.7,22.1c0,0.1,0.1,0.2,0.2,0.2l1.1,0.4l24.1,7.9l2.3,0.7l0,0h0.1h0.1h0.2l7-1.3l0,0l2.7-0.5l7.5-1.4
		c0.1,0,0.2-0.1,0.2-0.2L493.2,220.1z"/>
	<path class="st1" d="M494.9,220.3c0.1-0.9-0.5-1.8-1.4-2l-1.5-0.4l-2.6-0.7l-3-0.8l-2.6-0.7l-17.7-4.9c-0.3-0.1-0.5-0.1-0.8-0.1
		l-4.3,0.6l-1.7,0.2l-0.7,0.1l0,0l0,0h-0.3l-2.6,0.3l-0.8,0.1h-0.2l-2.4,0.3l-4.7,0.6c-0.3,0-0.6,0.2-0.9,0.3l0,0
		c-0.5,0.3-0.7,0.8-0.8,1.3l-2.7,22.1c0,0.2,0,0.3,0,0.5c0.1,0.7,0.6,1.3,1.3,1.5l25.1,8.3l2.5,0.8c0.1,0,0.2,0.1,0.3,0.1h0.1
		c0.1,0,0.2,0,0.3,0l0,0c0.1,0,0.2,0,0.3,0l9.5-1.8l8-1.5c0.8-0.2,1.5-0.8,1.6-1.7L494.9,220.3z M490.7,244.2l-7.9,1.4l-2.7,0.5
		l-7,1.3H473c-0.2,0-0.3,0-0.5,0l0,0h-0.1l-2.5-0.8l-25.2-8.3c-0.5-0.2-0.8-0.6-1-1c0-0.2,0-0.3,0-0.5l2.7-22.1
		c0-0.3,0.2-0.7,0.5-0.9l0,0l0,0c0.2-0.2,0.4-0.3,0.6-0.3h0.1l4.6-0.6l2.7-0.4h0.3l0,0l3.1-0.4l1.4-0.2l1.1-0.1h0.2l4.4-0.6
		c0.1,0,0.2,0,0.4,0c0.1,0,0.2,0,0.2,0l17.7,4.9l2.6,0.7l3,0.8l2.6,0.7l1.4,0.4c0.3,0.1,0.5,0.2,0.7,0.4l0,0
		c0.3,0.3,0.4,0.7,0.3,1.1l-2.6,22.7C491.8,243.5,491.3,244,490.7,244.2z"/>
	<path class="st1" d="M494.4,219.6C494.3,219.6,494.3,219.6,494.4,219.6l-8.5,1.2l-2.6,0.4l-7.5,1.1c0,0,0,0-0.1,0l0,0l-28.6-8.5
		H447c-0.1,0-0.2-0.2-0.2-0.3s0.2-0.2,0.3-0.2l0.6,0.2l28.1,8.3l6.5-0.9l3.6-0.5l8.3-1.2h0.1c0.1,0,0.2,0.1,0.3,0.2l0,0
		C494.5,219.5,494.5,219.6,494.4,219.6z"/>
	<path class="st1" d="M472.8,247.9c-0.1,0-0.2-0.1-0.2-0.3l2.9-25.7c0-0.1,0.1-0.2,0.3-0.2l0,0c0.1,0,0.2,0.1,0.2,0.3l-2.9,25.7
		C473,247.8,472.9,247.9,472.8,247.9L472.8,247.9z"/>
	<path class="st11" d="M482.8,245.9l-2.6,0.4l2-25.4l-26.8-8.4h-0.1c-0.2-0.1-0.4-0.2-0.5-0.4l3.9-0.5l1.1,0.3l25.4,8
		c0.3,0.1,0.5,0.3,0.6,0.5C485.8,220.5,482.8,245.7,482.8,245.9z"/>
	<path class="st11" d="M502.9,195.8c-0.4-0.2-0.9-0.3-1.3-0.5l0.2-2c0.1-0.7-0.1-1.4-0.5-2c-0.2-0.3-0.4-0.5-0.7-0.7
		c-0.1,0-0.1-0.1-0.2-0.1c-0.3-0.1-0.5-0.2-0.8-0.3s-0.6-0.1-0.9,0c-0.2,0-0.4,0.1-0.5,0.1c-0.3,0.1-0.5,0.2-0.7,0.4l-0.1,0.1
		c-0.5,0.4-0.9,1.1-1,1.7l-0.1,0.9c-13.6-4.3-27.9-5.9-42.1-4.8l0.1-0.8c0.1-0.7-0.1-1.4-0.5-2c-0.2-0.3-0.4-0.5-0.7-0.7
		c-0.1,0-0.1-0.1-0.2-0.1c-0.3-0.1-0.5-0.2-0.8-0.3s-0.6-0.1-0.9,0c-0.2,0-0.4,0.1-0.5,0.1c-0.3,0.1-0.5,0.2-0.7,0.4l-0.1,0.1
		c-0.5,0.4-0.9,1.1-1,1.7l-0.3,2.1c-0.5,0.1-0.9,0.1-1.4,0.2h-0.1v0.1c-0.1,0.9,0,1.8,0.3,2.6l0.2,0.6c0.9,2,2.8,3.3,5,3.6l1.9,0.2
		l-2.4,19.7c-0.1,0.7,0.3,1.3,1,1.4c0.4,0.1,0.7,0,1-0.2s0.5-0.5,0.5-0.9l2.4-19.6c1.1,0.4,2,1.3,2.4,2.4c0.1,0.3,0.3,0.7,0.5,1
		c1.1,2,3.2,3.4,5.6,3.7l16.1,1.8c1.2,0.1,2.5,0,3.6-0.4s2.1-1.1,2.9-2c0.2-0.2,0.3-0.4,0.4-0.6c0.7-1,1.8-1.7,3-1.9l-2.4,19.6
		c-0.1,0.7,0.3,1.3,1,1.4h0.1c0.3,0,0.7,0,0.9-0.2c0.3-0.2,0.5-0.5,0.5-0.9l2.4-19.8l1.9,0.2c2.2,0.3,4.4-0.6,5.7-2.3
		c0.1-0.2,0.2-0.3,0.4-0.5C502.5,197.5,502.8,196.7,502.9,195.8l0-0.1L502.9,195.8z"/>
	<ellipse class="st1" cx="473.4" cy="200.8" rx="7" ry="6.8"/>
	<ellipse class="st11" cx="473.4" cy="200.8" rx="3.7" ry="3.6"/>
	<path class="st11" d="M509.7,190.3l-9.1-1l-0.2,1.4l10.7,1.2C511.1,191.1,510.5,190.4,509.7,190.3z"/>
	<path class="st11" d="M489.7,188c-0.8-0.1-1.6,0.4-1.8,1.2l10.7,1.2l0.2-1.4L489.7,188z"/>
	<path class="st1" d="M501.8,190.8c0-0.6-0.3-1.1-0.7-1.5c-0.9-1-2.5-1-3.5-0.1c-0.3,0.3-0.6,0.7-0.7,1.1c0,0.1-0.1,0.3-0.1,0.4v0.1
		l4.9,0.6v-0.1C501.8,191.1,501.8,191,501.8,190.8z"/>
	<path class="st11" d="M462.1,184.9l-9.1-1l-0.2,1.4l10.7,1.2C463.5,185.7,462.9,185,462.1,184.9z"/>
	<path class="st11" d="M442,182.6c-0.8-0.1-1.6,0.4-1.8,1.2L451,185l0.2-1.4L442,182.6z"/>
	<path class="st1" d="M454.2,185.4c-0.1-1.3-1.3-2.3-2.6-2.3c-1,0.1-1.9,0.7-2.2,1.7c0,0.1-0.1,0.3-0.1,0.4v0.1l4.9,0.6v-0.1
		C454.2,185.7,454.2,185.5,454.2,185.4z"/>
	<path class="st1" d="M447.2,192.2c18.5-0.2,36.9,2,54.9,6.3c-0.1,0.2-0.2,0.3-0.4,0.5c-8.8-2.1-17.7-3.7-26.7-4.7l0,0
		c-0.5-0.1-1-0.1-1.5-0.2l0,0c-8.6-0.9-17.3-1.4-26-1.3L447.2,192.2z"/>
	<path class="st11" d="M459.4,236.7C459.3,236.7,459.3,236.7,459.4,236.7l-8.9-3c-0.2-0.1-0.3-0.3-0.3-0.5c0.1-0.2,0.3-0.3,0.6-0.3
		l8.8,3c0.2,0.1,0.3,0.3,0.3,0.5C459.8,236.6,459.6,236.7,459.4,236.7L459.4,236.7z"/>
	<path class="st11" d="M457.7,231.1C457.7,231.1,457.6,231.1,457.7,231.1l-8.9-3c-0.2-0.1-0.3-0.3-0.3-0.5c0.1-0.2,0.3-0.3,0.6-0.3
		l0,0l8.8,3c0.2,0.1,0.3,0.3,0.3,0.5C458.1,231,457.9,231.1,457.7,231.1L457.7,231.1z"/>
</g>
<g>
	
		<linearGradient id="SVGID_00000037686201849821394200000001823915317182121118_" gradientUnits="userSpaceOnUse" x1="442.4137" y1="263.1183" x2="442.4137" y2="279.8999" gradientTransform="matrix(1.9421 0.376 0.3519 -2.0408 -800.536 521.322)">
		<stop  offset="0" style="stop-color:#808080;stop-opacity:0.25"/>
		<stop  offset="0.54" style="stop-color:#808080;stop-opacity:0.12"/>
		<stop  offset="1" style="stop-color:#808080;stop-opacity:0.1"/>
	</linearGradient>
	<path style="fill:url(#SVGID_00000037686201849821394200000001823915317182121118_);" d="M191.5,124.4c-2-0.4-3.9-0.7-5.9-0.8l0,0
		c0.1-0.8-0.4-1.6-1.1-1.8c-0.8-0.2-1.5,0.4-1.7,1.2l0,0c-1.9-0.7-3.8-1.2-5.8-1.5c-4.3-0.9-7.9-1-8-0.4s3.3,1.8,7.6,2.7
		c2,0.4,3.9,0.7,5.9,0.8l0,0c0,0.2,0,0.4,0,0.6c-0.5,0.2-0.7,0.8-0.5,1.4c0,0.1,0.1,0.2,0.1,0.3c-0.7,0.1-1.4,0.6-1.8,1.2
		c-0.3-0.4-0.8-0.7-1.2-0.8l-14.4-3.6c-0.8-1.8-2.3-3-4.1-3.4l-9.2-1.8c-1.8-0.4-3.7,0.3-5,1.6l-13.9-2c-0.4-0.1-0.9,0-1.3,0.2
		c-0.2-0.7-0.6-1.3-1.1-1.7c0.3-0.1,0.5-0.4,0.6-0.8s-0.1-0.9-0.5-1.1c0.1-0.1,0.1-0.3,0.1-0.4l0,0c1.9,0.7,3.8,1.2,5.8,1.5
		c4.3,0.9,7.9,1,8,0.4s-3.3-1.8-7.6-2.7c-2-0.4-3.9-0.7-5.9-0.8l0,0c0.1-0.8-0.4-1.6-1.1-1.8l0,0c-0.8-0.2-1.5,0.4-1.7,1.3l0,0
		c-1.9-0.7-3.8-1.2-5.8-1.5c-4.3-0.9-7.9-1-8-0.4s3.3,1.8,7.6,2.7c2,0.4,3.9,0.7,5.9,0.8l0,0c0,0.2,0,0.4,0,0.6
		c-0.5,0.2-0.7,0.8-0.5,1.4c0,0.1,0.1,0.2,0.2,0.3c-1.1,0.2-1.9,1.1-2.1,2.3l-0.3,1.9c-0.3,1.5,0.7,3,2.1,3.3l0,0l1,0.2
		c0.8,0.2,1.7-0.1,2.3-0.7c0.4,0.5,0.9,0.9,1.5,1l13.5,3.1c0.3,0.8,0.8,1.6,1.4,2.2c-1.6,1.2-7.7,6.6-8.8,18c0,0,0.5,1.8,2.9,0.6
		c0,0,0.8-12.8,9.2-16.5c0.1,0.9,0.7,1.5,1.5,1.7l1,0.2c-2.1,0.5-3.7,2.2-4,4.5c-0.6,2.9,1.2,5.8,3.9,6.5c2.7,0.6,5.5-1.2,6.1-4.1
		c0-0.1,0-0.2,0.1-0.4c0.4-2.2-0.5-4.5-2.3-5.7l1,0.2c0.8,0.2,1.6-0.3,2-1c6.6,6.7,3.2,18.9,3.2,18.9c1.8,2.1,2.9,0.6,2.9,0.6
		c3.1-12.7-2.6-20.5-2.6-20.5h-0.1c0.6-0.3,1.1-0.8,1.5-1.3l14.3,2.4c0.6,0.1,1.3-0.1,1.8-0.4c0.3,0.8,1.1,1.4,1.9,1.6l1,0.2
		c1.5,0.3,2.8-0.8,3.1-2.3l0,0l0.3-1.9c0.2-1.1-0.2-2.2-1.1-2.9c0.5-0.2,0.8-0.8,0.6-1.3c-0.1-0.2-0.2-0.4-0.4-0.6
		c0.1-0.1,0.1-0.3,0.1-0.4l0,0c1.9,0.7,3.8,1.2,5.8,1.6c4.3,0.9,7.9,1,8,0.4C199.3,126.5,195.9,125.3,191.5,124.4z"/>
	
		<ellipse transform="matrix(0.9991 -4.273866e-02 4.273866e-02 0.9991 -5.7755 6.6571)" class="st11" cx="152.8" cy="138.4" rx="5" ry="5.3"/>
	
		<ellipse transform="matrix(0.9991 -4.273885e-02 4.273885e-02 0.9991 -5.7755 6.6571)" class="st11" cx="152.8" cy="138.4" rx="3.3" ry="3.6"/>
	
		<ellipse transform="matrix(0.9991 -4.273885e-02 4.273885e-02 0.9991 -5.7755 6.6571)" class="st12" cx="152.8" cy="138.4" rx="3.3" ry="3.6"/>
	
		<ellipse transform="matrix(1 -4.701415e-03 4.701415e-03 1 -0.6485 0.7199)" class="st11" cx="152.8" cy="138.3" rx="2.2" ry="2.3"/>
	
		<ellipse transform="matrix(1 -4.701415e-03 4.701415e-03 1 -0.6485 0.7199)" class="st13" cx="152.8" cy="138.3" rx="2.2" ry="2.3"/>
	<path class="st11" d="M146.5,129.2c0,0-7.6,4.8-8.8,17.2c0,0,0.5,1.7,2.8,0.6c0,0,0.9-15.7,12.7-16.4L146.5,129.2z"/>
	<path class="st11" d="M161.7,132.2c0,0,5.5,7.4,2.6,19.4c0,0-1,1.4-2.8-0.6c0,0,4.3-15-6.5-20.2L161.7,132.2z"/>
	<path class="st11" d="M150.2,119.1l10.6,2.1c2.6,0.5,4.3,3.1,3.8,5.8l-0.3,1.8c-0.5,2.7-2.9,4.5-5.5,4l-10.6-2.1
		c-2.6-0.5-4.3-3.1-3.8-5.8l0.3-1.8C145.2,120.4,147.6,118.6,150.2,119.1z"/>
	<path class="st11" d="M147.3,127.9l-15.5-3.5c-1.3-0.3-2.1-1.6-1.8-2.9l0.1-0.6c0.2-1.3,1.4-2.2,2.6-2l15.7,2.3
		c1.3,0.2,2.2,1.5,2,2.8v0.1l-0.3,1.8C149.9,127.3,148.6,128.2,147.3,127.9L147.3,127.9z"/>
	<path class="st11" d="M161.3,130.7l15.6,2.6c1.3,0.2,2.5-0.7,2.7-2l0.1-0.6c0.2-1.3-0.6-2.6-1.8-2.9l-15.4-3.8
		c-1.3-0.3-2.5,0.5-2.8,1.9v0.1l-0.3,1.8C159.1,129.1,160,130.4,161.3,130.7L161.3,130.7z"/>
	<path class="st12" d="M147.3,127.9l-15.5-3.5c-1.3-0.3-2.1-1.6-1.8-2.9l0.1-0.6c0.2-1.3,1.4-2.2,2.6-2l15.7,2.3
		c1.3,0.2,2.2,1.5,2,2.8v0.1l-0.3,1.8C149.9,127.3,148.6,128.2,147.3,127.9L147.3,127.9z"/>
	<path class="st12" d="M161.3,130.7l15.6,2.6c1.3,0.2,2.5-0.7,2.7-2l0.1-0.6c0.2-1.3-0.6-2.6-1.8-2.9l-15.4-3.8
		c-1.3-0.3-2.5,0.5-2.8,1.9v0.1l-0.3,1.8C159.1,129.1,160,130.4,161.3,130.7L161.3,130.7z"/>
	<path class="st11" d="M128.4,116.8l1,0.2c1.4,0.3,2.3,1.7,2.1,3.2l-0.3,1.7c-0.3,1.5-1.6,2.4-3,2.2l-1-0.2
		c-1.4-0.3-2.3-1.7-2.1-3.2l0.3-1.7C125.7,117.5,127,116.5,128.4,116.8z"/>
	<path class="st11" d="M181.8,127.3l1,0.2c1.4,0.3,2.3,1.7,2.1,3.2l-0.3,1.7c-0.3,1.5-1.6,2.4-3,2.2l-1-0.2
		c-1.4-0.3-2.3-1.7-2.1-3.2l0.3-1.7C179,128,180.4,127,181.8,127.3z"/>
	<path class="st11" d="M128.2,115.1l2.1,0.4c0.4,0.1,0.7,0.5,0.6,1v0.3c-0.1,0.4-0.5,0.8-0.9,0.6l-2.1-0.4c-0.4-0.1-0.7-0.5-0.6-1
		v-0.3C127.3,115.3,127.7,115.1,128.2,115.1z"/>
	<path class="st11" d="M129.4,112l0.4,0.1c0.6,0.1,1.1,0.8,0.9,1.4l-0.3,1.9c-0.1,0.7-0.7,1.1-1.3,1l-0.4-0.1
		c-0.6-0.1-1.1-0.8-0.9-1.4l0.3-1.9C128.2,112.3,128.8,111.9,129.4,112z"/>
	
		<ellipse transform="matrix(0.1936 -0.9811 0.9811 0.1936 -12.0906 210.9829)" class="st11" cx="122.3" cy="112.8" rx="1.1" ry="7.7"/>
	
		<ellipse transform="matrix(0.1936 -0.9811 0.9811 0.1936 -3.534 226.9357)" class="st11" cx="136.3" cy="115.6" rx="1.1" ry="7.7"/>
	<path class="st11" d="M181.6,125.6l2.1,0.4c0.4,0.1,0.7,0.5,0.6,1v0.3c-0.1,0.4-0.5,0.8-0.9,0.6l-2.1-0.4c-0.4-0.1-0.7-0.5-0.6-1
		v-0.3C180.8,125.9,181.2,125.6,181.6,125.6z"/>
	<path class="st11" d="M182.9,122.5l0.4,0.1c0.6,0.1,1.1,0.8,0.9,1.4l-0.3,1.9c-0.1,0.7-0.7,1.1-1.3,1l-0.4-0.1
		c-0.6-0.1-1.1-0.8-0.9-1.4l0.3-1.9C181.7,122.8,182.3,122.4,182.9,122.5z"/>
	
		<ellipse transform="matrix(0.1936 -0.9811 0.9811 0.1936 20.6154 271.9319)" class="st11" cx="175.7" cy="123.4" rx="1.1" ry="7.7"/>
	
		<ellipse transform="matrix(0.1936 -0.9811 0.9811 0.1936 29.3068 287.8703)" class="st11" cx="189.8" cy="126.1" rx="1.1" ry="7.7"/>
	
		<ellipse transform="matrix(0.1936 -0.9811 0.9811 0.1936 -12.0906 210.9829)" class="st12" cx="122.3" cy="112.8" rx="1.1" ry="7.7"/>
	
		<ellipse transform="matrix(0.1936 -0.9811 0.9811 0.1936 -3.534 226.9357)" class="st12" cx="136.3" cy="115.6" rx="1.1" ry="7.7"/>
	
		<ellipse transform="matrix(0.1936 -0.9811 0.9811 0.1936 20.6154 271.9319)" class="st12" cx="175.7" cy="123.4" rx="1.1" ry="7.7"/>
	
		<ellipse transform="matrix(0.1936 -0.9811 0.9811 0.1936 29.3068 287.8703)" class="st12" cx="189.8" cy="126.1" rx="1.1" ry="7.7"/>
	<path class="st11" d="M151.3,129.1l6,1.2c0.8,0.2,1.4,1,1.3,1.9l-0.1,0.6c-0.1,0.9-1,1.5-1.8,1.3l-6-1.2c-0.8-0.2-1.4-1-1.3-1.9
		l0.1-0.6C149.6,129.5,150.4,128.9,151.3,129.1z"/>
	<path class="st12" d="M151.3,129.1l6,1.2c0.8,0.2,1.4,1,1.3,1.9l-0.1,0.6c-0.1,0.9-1,1.5-1.8,1.3l-6-1.2c-0.8-0.2-1.4-1-1.3-1.9
		l0.1-0.6C149.6,129.5,150.4,128.9,151.3,129.1z"/>
	
		<ellipse transform="matrix(0.1873 -0.9823 0.9823 0.1873 -38.1037 273.4532)" class="st14" cx="146.2" cy="159.8" rx="3.7" ry="23.1"/>
</g>
<path class="st1" d="M578.5,431.3c-0.5,0-0.8-0.5-0.8-1.1V335c0-0.6,0.4-1.1,0.8-1.1s0.8,0.5,0.8,1.1v95.2
	C579.3,430.9,578.9,431.3,578.5,431.3z"/>
<path class="st1" d="M587.7,366.8h-18.4c-1.2,0-2.1-1.2-2.1-2.7v-23.5c0-1.5,0.9-2.7,2.1-2.7h18.4c1.2,0,2.1,1.2,2.1,2.7v23.5
	C589.7,365.6,588.8,366.8,587.7,366.8z"/>
<path class="st1" d="M234.3,431.4c-0.5,0-0.8-0.4-0.8-0.9v-79.1c0-0.5,0.4-0.9,0.8-0.9c0.5,0,0.8,0.4,0.8,0.9v79.1
	C235.1,431,234.8,431.4,234.3,431.4z"/>
<path class="st1" d="M243.5,377.8h-18.4c-1.2,0-2.1-1-2.1-2.2v-19.5c0-1.2,0.9-2.2,2.1-2.2h18.4c1.2,0,2.1,1,2.1,2.2v19.5
	C245.6,376.8,244.7,377.8,243.5,377.8z"/>
<g>
	<path class="st11" d="M270.5,389.5l-0.2,10.9c0,0.4,0.3,0.7,0.7,0.7h0.1c0.2,0,0.4-0.1,0.5-0.2c0.2-0.1,0.3-0.3,0.3-0.5l0.2-11
		L270.5,389.5z"/>
	<path class="st11" d="M255.1,389.3l-0.2,10.9c0,0.4,0.3,0.7,0.7,0.7h0.1c0.2,0,0.4-0.1,0.5-0.2c0.2-0.1,0.3-0.3,0.3-0.5l0.2-11
		L255.1,389.3z"/>
	<path class="st4" d="M277.3,400.7c0-0.5-0.4-0.9-1-1l-0.9-0.1l-1.6-0.3l-1.9-0.3l-1.6-0.3l-10.9-1.7c-0.2,0-0.3,0-0.5,0l-2.5,0.5
		l-1,0.2l-0.4,0.1l0,0l0,0h-0.1l-1.5,0.3l-0.5,0.1h-0.1l-1.4,0.3l-2.8,0.6c-0.2,0-0.4,0.1-0.5,0.2l0,0c-0.3,0.2-0.4,0.5-0.4,0.8
		l-0.2,12.3c0,0.1,0,0.2,0,0.3c0.1,0.4,0.4,0.7,0.9,0.8l15.6,3.2l1.5,0.3c0.1,0,0.1,0,0.2,0l0,0c0.1,0,0.1,0,0.2,0l0,0
		c0.1,0,0.1,0,0.2,0l5.6-1.5l4.7-1.2c0.5-0.1,0.8-0.5,0.8-1L277.3,400.7z"/>
	<path class="st1" d="M276.3,400.7c0-0.1-0.1-0.1-0.1-0.1h-0.1l-0.6-0.1h-0.1l0,0l0,0l-1.5-0.2L272,400l-1.6-0.3l-11-1.8l0,0l0,0
		l-0.9,0.2l-1,0.2l-0.9,0.2l-1.6,0.3h-0.1l0,0l-1.8,0.4l-1.6,0.3l-1,0.2l-0.7,0.1l0,0L249,400c-0.1,0-0.1,0.1-0.1,0.1l-0.2,12.3
		c0,0.1,0,0.1,0.1,0.1l0.7,0.1l14.9,3l1.4,0.3l0,0h0.1h0.1h0.1l4.1-1.1l0,0l1.6-0.4l4.4-1.2c0.1,0,0.1-0.1,0.1-0.1V400.7z"/>
	<path class="st1" d="M277.3,400.7c0-0.5-0.4-0.9-1-1l-0.9-0.1l-1.6-0.3l-1.9-0.3l-1.6-0.3l-10.9-1.7c-0.2,0-0.3,0-0.5,0l-2.5,0.5
		l-1,0.2l-0.4,0.1l0,0l0,0h-0.1l-1.5,0.3l-0.5,0.1h-0.1l-1.4,0.3l-2.8,0.6c-0.2,0-0.4,0.1-0.5,0.2l0,0c-0.3,0.2-0.4,0.5-0.4,0.8
		l-0.2,12.3c0,0.1,0,0.2,0,0.3c0.1,0.4,0.4,0.7,0.9,0.8l15.6,3.2l1.5,0.3c0.1,0,0.1,0,0.2,0l0,0c0.1,0,0.1,0,0.2,0l0,0
		c0.1,0,0.1,0,0.2,0l5.6-1.5l4.7-1.2c0.5-0.1,0.8-0.5,0.8-1L277.3,400.7z M276.3,414l-4.6,1.2l-1.6,0.4l-4.1,1.1c0,0,0,0-0.1,0
		s-0.2,0-0.3,0l0,0h-0.1l-1.5-0.3l-15.6-3.2c-0.3-0.1-0.5-0.3-0.6-0.5c0-0.1,0-0.2,0-0.3l0.2-12.3c0-0.2,0.1-0.4,0.2-0.5l0,0l0,0
		c0.1-0.1,0.2-0.2,0.4-0.2h0.1l2.7-0.6l1.6-0.3h0.2l0,0l1.8-0.4l0.8-0.2l0.7-0.1h0.1l2.6-0.6c0.1,0,0.1,0,0.2,0h0.1l10.9,1.8
		l1.6,0.3l1.9,0.3l1.6,0.3l0.9,0.1c0.2,0,0.3,0.1,0.4,0.2l0,0c0.2,0.2,0.3,0.4,0.3,0.6l-0.1,12.6C276.9,413.6,276.7,413.9,276.3,414
		z"/>
	<path class="st1" d="M276.9,400.3L276.9,400.3l-5,1.1l-1.5,0.3l-4.4,1l0,0l0,0l-17.6-3.1h-0.1c-0.1,0-0.1-0.1-0.1-0.2
		s0.1-0.1,0.2-0.1l0.4,0.1l17.3,3.1l3.8-0.9l2.1-0.5l4.9-1.1h0.1c0.1,0,0.1,0,0.2,0.1l0,0C277,400.2,277,400.3,276.9,400.3z"/>
	<path class="st1" d="M265.8,417c-0.1,0-0.1-0.1-0.1-0.1l0.1-14.2c0-0.1,0.1-0.1,0.1-0.1l0,0c0.1,0,0.1,0.1,0.1,0.1l-0.1,14.2
		C266,417,265.9,417,265.8,417L265.8,417z"/>
	<path class="st11" d="M271.7,415.4l-1.5,0.3l-0.4-14l-16.5-3.2l0,0c-0.1,0-0.2-0.1-0.3-0.2l2.3-0.5l0.7,0.1l15.7,3
		c0.2,0,0.3,0.1,0.4,0.3C271.9,401.3,271.7,415.3,271.7,415.4z"/>
	<path class="st11" d="M280.5,386.8c-0.3-0.1-0.5-0.1-0.8-0.2v-1.1c0-0.4-0.2-0.8-0.5-1.1c-0.1-0.1-0.3-0.2-0.5-0.3
		c0,0-0.1,0-0.1-0.1c-0.2-0.1-0.3-0.1-0.5-0.1s-0.4,0-0.6,0c-0.1,0-0.2,0.1-0.3,0.1c-0.1,0.1-0.3,0.1-0.4,0.2c0,0-0.1,0-0.1,0.1
		c-0.3,0.3-0.5,0.6-0.5,1v0.5c-8.4-1.6-17-1.7-25.5-0.4V385c0-0.4-0.2-0.8-0.5-1.1c-0.1-0.1-0.3-0.2-0.5-0.3c0,0-0.1,0-0.1-0.1
		c-0.2-0.1-0.3-0.1-0.5-0.1s-0.4,0-0.6,0c-0.1,0-0.2,0.1-0.3,0.1c-0.1,0.1-0.3,0.1-0.4,0.2c0,0-0.1,0-0.1,0.1
		c-0.3,0.3-0.5,0.6-0.5,1v1.1c-0.3,0.1-0.5,0.1-0.8,0.2h-0.1v0.1c0,0.5,0.1,1,0.3,1.4l0.2,0.3c0.7,1,1.9,1.7,3.2,1.7h1.1l-0.2,11
		c0,0.4,0.3,0.7,0.7,0.7c0.2,0,0.4,0,0.6-0.2c0.2-0.1,0.3-0.3,0.3-0.5l0.2-10.9c0.7,0.2,1.3,0.6,1.6,1.2c0.1,0.2,0.2,0.4,0.3,0.5
		c0.8,1,2.1,1.7,3.6,1.7l9.8,0.1c0.7,0,1.5-0.1,2.1-0.4c0.7-0.3,1.2-0.7,1.6-1.3c0.1-0.1,0.2-0.2,0.2-0.4c0.3-0.6,0.9-1,1.7-1.2
		l-0.2,10.9c0,0.4,0.3,0.7,0.7,0.7h0.1c0.2,0,0.4-0.1,0.5-0.2c0.2-0.1,0.3-0.3,0.3-0.5l0.2-11h1.1c1.3,0,2.6-0.6,3.3-1.6
		c0.1-0.1,0.1-0.2,0.2-0.3C280.4,387.9,280.5,387.4,280.5,386.8L280.5,386.8L280.5,386.8z"/>
	
		<ellipse transform="matrix(1.077092e-02 -0.9999 0.9999 1.077092e-02 -130.7556 650.0936)" class="st1" cx="263.2" cy="391.1" rx="3.7" ry="4.2"/>
	
		<ellipse transform="matrix(1.077094e-02 -0.9999 0.9999 1.077094e-02 -130.7556 650.0936)" class="st11" cx="263.2" cy="391.1" rx="2" ry="2.2"/>
	<path class="st11" d="M284.2,383.4l-5.5-0.1v0.8l6.5,0.1C285.1,383.8,284.7,383.4,284.2,383.4z"/>
	<path class="st11" d="M272.1,383.3c-0.5,0-0.9,0.3-1,0.8l6.5,0.1v-0.8L272.1,383.3z"/>
	<path class="st1" d="M279.5,384.1c-0.1-0.3-0.2-0.6-0.5-0.8c-0.6-0.5-1.6-0.4-2.1,0.1c-0.2,0.2-0.3,0.4-0.3,0.6c0,0.1,0,0.2,0,0.2
		v0.1h3v-0.1C279.5,384.3,279.5,384.2,279.5,384.1z"/>
	<path class="st11" d="M255.4,383l-5.5-0.1v0.8l6.5,0.1C256.3,383.4,255.9,383,255.4,383z"/>
	<path class="st11" d="M243.3,382.8c-0.5,0-0.9,0.3-1,0.8l6.5,0.1v-0.8L243.3,382.8z"/>
	<path class="st1" d="M250.7,383.7c-0.1-0.7-0.9-1.2-1.7-1.1c-0.6,0.1-1.1,0.5-1.2,1.1c0,0.1,0,0.2,0,0.2v0.1h3v-0.1
		C250.7,383.9,250.7,383.8,250.7,383.7z"/>
	<path class="st1" d="M247,387.8c11-1.1,22.2-0.9,33.2,0.5c-0.1,0.1-0.1,0.2-0.2,0.3c-5.4-0.7-10.8-1.1-16.3-1.2l0,0
		c-0.3,0-0.6,0-0.9,0l0,0c-5.2,0-10.4,0.2-15.6,0.7L247,387.8z"/>
	<path class="st11" d="M257.1,411.6L257.1,411.6l-5.5-1.2c-0.1,0-0.2-0.2-0.2-0.3s0.2-0.2,0.3-0.2l5.4,1.2c0.1,0,0.2,0.2,0.2,0.3
		C257.3,411.5,257.2,411.6,257.1,411.6L257.1,411.6z"/>
	<path class="st11" d="M255.8,408.6C255.7,408.6,255.7,408.6,255.8,408.6l-5.5-1.2c-0.1,0-0.2-0.2-0.2-0.3c0-0.1,0.2-0.2,0.3-0.2
		l0,0l5.4,1.2c0.1,0,0.2,0.2,0.2,0.3C256,408.5,255.9,408.6,255.8,408.6L255.8,408.6z"/>
</g>
<path class="st15" d="M180.6,239.8l-0.7,0.3v-0.4C179.9,239.7,179.9,239.9,180.6,239.8z"/>
<g>
	
		<linearGradient id="SVGID_00000039098384875053589950000004769825861070399362_" gradientUnits="userSpaceOnUse" x1="478.5923" y1="263.2404" x2="478.5923" y2="275.6773" gradientTransform="matrix(2.206 -0.5788 -0.3837 -1.9481 -695.7992 1008.4609)">
		<stop  offset="0" style="stop-color:#808080;stop-opacity:0.25"/>
		<stop  offset="0.54" style="stop-color:#808080;stop-opacity:0.12"/>
		<stop  offset="1" style="stop-color:#808080;stop-opacity:0.1"/>
	</linearGradient>
	<path style="fill:url(#SVGID_00000039098384875053589950000004769825861070399362_);" d="M283,188c-1.6,0.4-3.2,0.9-4.7,1.5l0,0
		c-0.1-0.6-0.7-0.9-1.4-0.8c-0.6,0.2-1.1,0.8-0.9,1.3l0,0c-1.6,0.2-3.3,0.5-4.9,1c-3.5,0.9-6.4,2-6.3,2.4s3,0.1,6.6-0.8
		c1.6-0.4,3.2-0.9,4.7-1.5l0,0c0,0.1,0.1,0.3,0.1,0.4c-0.3,0.3-0.3,0.8,0,1.1c0,0,0.1,0.1,0.2,0.1c-0.5,0.3-0.9,0.8-1,1.4
		c-0.4-0.2-0.8-0.2-1.2-0.1l-12,2.6c-1.1-0.9-2.6-1.2-4.1-0.8l-7.5,1.9c-1.5,0.4-2.8,1.4-3.4,2.7l-11.2,3.4c-0.4,0.1-0.7,0.3-1,0.6
		c-0.3-0.4-0.8-0.6-1.3-0.7c0.2-0.2,0.3-0.5,0.2-0.7c-0.1-0.3-0.3-0.5-0.7-0.5c0-0.1,0-0.2,0-0.3l0,0c1.6-0.2,3.3-0.5,4.9-1
		c3.5-0.9,6.4-2,6.3-2.4c-0.1-0.4-3-0.1-6.6,0.8c-1.6,0.4-3.2,0.9-4.7,1.5l0,0c-0.1-0.6-0.7-0.9-1.4-0.8l0,0c-0.6,0.2-1,0.8-0.9,1.4
		l0,0c-1.6,0.2-3.3,0.5-4.9,1c-3.5,0.9-6.4,2-6.3,2.4c0.1,0.4,3,0.1,6.6-0.8c1.6-0.4,3.2-0.9,4.7-1.5l0,0c0,0.1,0.1,0.3,0.1,0.4
		c-0.3,0.3-0.3,0.8,0,1.1c0.1,0.1,0.1,0.1,0.2,0.1c-0.8,0.5-1.2,1.4-1,2.2l0.3,1.3c0.2,1.1,1.3,1.7,2.5,1.4l0,0l0.9-0.2
		c0.7-0.2,1.3-0.6,1.5-1.2c0.4,0.2,0.9,0.3,1.4,0.2l11.2-2.6c0.5,0.4,1,0.8,1.7,1c-0.9,1.3-4.1,6.8-1.8,14.5c0,0,0.9,1,2.4-0.6
		c0,0-2.9-8.5,2.5-13.7c0.3,0.5,1,0.8,1.6,0.6l0.8-0.2c-1.5,1-2.2,2.7-1.9,4.2c0.4,2.1,2.5,3.4,4.8,2.8c2.3-0.5,3.9-2.6,3.5-4.7
		c0-0.1,0-0.2,0-0.3c-0.3-1.6-1.6-2.7-3.4-2.9l0.8-0.2c0.7-0.2,1.2-0.7,1.3-1.3c6.9,2.1,7.6,11.1,7.6,11.1c2,0.7,2.4-0.6,2.4-0.6
		c-1.1-9.2-7.6-12.4-7.6-12.4h-0.1c0.3-0.4,0.6-0.9,0.8-1.3l11.6-3.3c0.5-0.1,0.9-0.5,1.2-0.9c0.5,0.4,1.2,0.6,1.9,0.4l0.9-0.2
		c1.2-0.3,2-1.4,1.7-2.5l0,0l-0.3-1.3c-0.2-0.8-0.8-1.3-1.6-1.5c0.3-0.3,0.4-0.8,0.1-1.1c-0.1-0.1-0.3-0.2-0.5-0.2
		c0-0.1,0-0.2,0-0.3l0,0c1.6-0.2,3.3-0.5,4.8-0.9c3.5-0.9,6.4-2,6.3-2.4C289.5,186.7,286.5,187.1,283,188z"/>
	
		<ellipse transform="matrix(0.9062 -0.4229 0.4229 0.9062 -64.6894 128.4281)" class="st11" cx="257.1" cy="210" rx="4.2" ry="3.7"/>
	
		<ellipse transform="matrix(0.9062 -0.4229 0.4229 0.9062 -64.6901 128.4312)" class="st11" cx="257.1" cy="210" rx="2.8" ry="2.5"/>
	
		<ellipse transform="matrix(0.9062 -0.4229 0.4229 0.9062 -64.6901 128.4312)" class="st12" cx="257.1" cy="210" rx="2.8" ry="2.5"/>
	
		<ellipse transform="matrix(0.8957 -0.4447 0.4447 0.8957 -66.5728 136.2397)" class="st11" cx="257.1" cy="210" rx="1.8" ry="1.6"/>
	
		<ellipse transform="matrix(0.8957 -0.4447 0.4447 0.8957 -66.5728 136.2397)" class="st13" cx="257.1" cy="210" rx="1.8" ry="1.6"/>
	<path class="st11" d="M249.8,206.2c0,0-4.5,5.7-2,14c0,0,0.9,0.9,2.3-0.6c0,0-3.6-10.4,5.3-14.8L249.8,206.2z"/>
	<path class="st11" d="M262.2,203c0,0,6.3,2.9,7.3,11.6c0,0-0.4,1.2-2.3,0.6c0,0-0.8-11.2-10.5-10.8L262.2,203z"/>
	<path class="st11" d="M249.8,198.5l8.7-2.2c2.1-0.5,4.1,0.6,4.5,2.5l0.3,1.3c0.4,1.9-1,3.9-3.1,4.4l-8.7,2.2
		c-2.1,0.5-4.1-0.6-4.5-2.5l-0.3-1.3C246.3,201,247.7,199,249.8,198.5z"/>
	<path class="st11" d="M250,205.1l-12.8,2.9c-1,0.2-2-0.3-2.2-1.3l-0.1-0.4c-0.2-0.9,0.4-1.9,1.5-2.2l12.7-3.8
		c1-0.3,2.1,0.2,2.3,1.1c0,0,0,0,0,0.1l0.3,1.3C251.8,203.9,251.1,204.8,250,205.1L250,205.1z"/>
	<path class="st11" d="M261.5,202.2l12.7-3.6c1-0.3,1.7-1.3,1.5-2.2l-0.1-0.4c-0.2-0.9-1.2-1.5-2.2-1.3l-12.9,2.7
		c-1.1,0.2-1.8,1.2-1.7,2.2c0,0,0,0,0,0.1l0.3,1.3C259.4,201.9,260.4,202.5,261.5,202.2L261.5,202.2z"/>
	<path class="st12" d="M250,205.1l-12.8,2.9c-1,0.2-2-0.3-2.2-1.3l-0.1-0.4c-0.2-0.9,0.4-1.9,1.5-2.2l12.7-3.8
		c1-0.3,2.1,0.2,2.3,1.1c0,0,0,0,0,0.1l0.3,1.3C251.8,203.9,251.1,204.8,250,205.1L250,205.1z"/>
	<path class="st12" d="M261.5,202.2l12.7-3.6c1-0.3,1.7-1.3,1.5-2.2l-0.1-0.4c-0.2-0.9-1.2-1.5-2.2-1.3l-12.9,2.7
		c-1.1,0.2-1.8,1.2-1.7,2.2c0,0,0,0,0,0.1l0.3,1.3C259.4,201.9,260.4,202.5,261.5,202.2L261.5,202.2z"/>
	<path class="st11" d="M232.5,204.3l0.8-0.2c1.2-0.3,2.2,0.3,2.5,1.3l0.3,1.2c0.2,1-0.6,2.1-1.7,2.4l-0.8,0.2
		c-1.2,0.3-2.2-0.3-2.5-1.3l-0.3-1.2C230.6,205.7,231.3,204.6,232.5,204.3z"/>
	<path class="st11" d="M276.3,193.1l0.8-0.2c1.2-0.3,2.2,0.3,2.5,1.3l0.3,1.2c0.2,1-0.6,2.1-1.7,2.4l-0.8,0.2
		c-1.2,0.3-2.2-0.3-2.5-1.3l-0.3-1.2C274.4,194.5,275.1,193.4,276.3,193.1z"/>
	<path class="st11" d="M231.8,203.3l1.7-0.4c0.3-0.1,0.7,0.1,0.7,0.4v0.2c0.1,0.3-0.2,0.6-0.5,0.7l-1.7,0.4
		c-0.3,0.1-0.7-0.1-0.7-0.4V204C231.3,203.7,231.5,203.4,231.8,203.3z"/>
	<path class="st11" d="M231.9,200.9l0.3-0.1c0.5-0.1,1,0.1,1.1,0.6l0.3,1.3c0.1,0.5-0.2,1-0.8,1.1l-0.3,0.1c-0.5,0.1-1-0.1-1.1-0.6
		l-0.3-1.3C231.1,201.5,231.4,201,231.9,200.9z"/>
	
		<ellipse transform="matrix(0.9686 -0.2485 0.2485 0.9686 -43.5542 62.7341)" class="st11" cx="226.7" cy="203.9" rx="6.4" ry="0.8"/>
	
		<ellipse transform="matrix(0.9686 -0.2485 0.2485 0.9686 -42.4495 65.4953)" class="st11" cx="238.2" cy="200.9" rx="6.4" ry="0.8"/>
	<path class="st11" d="M275.7,192.1l1.7-0.4c0.3-0.1,0.7,0.1,0.7,0.4v0.2c0.1,0.3-0.2,0.6-0.5,0.7l-1.7,0.4
		c-0.3,0.1-0.7-0.1-0.7-0.4v-0.2C275.2,192.5,275.4,192.2,275.7,192.1z"/>
	<path class="st11" d="M275.8,189.7l0.3-0.1c0.5-0.1,1,0.1,1.1,0.6l0.3,1.3c0.1,0.5-0.2,1-0.8,1.1l-0.3,0.1c-0.5,0.1-1-0.1-1.1-0.6
		l-0.3-1.3C275,190.3,275.3,189.8,275.8,189.7z"/>
	
		<ellipse transform="matrix(0.9686 -0.2485 0.2485 0.9686 -39.369 73.2836)" class="st11" cx="270.6" cy="192.6" rx="6.4" ry="0.8"/>
	
		<ellipse transform="matrix(0.9686 -0.2485 0.2485 0.9686 -38.2882 76.0554)" class="st11" cx="282.1" cy="189.7" rx="6.4" ry="0.8"/>
	
		<ellipse transform="matrix(0.9686 -0.2485 0.2485 0.9686 -43.5542 62.7341)" class="st12" cx="226.7" cy="203.9" rx="6.4" ry="0.8"/>
	
		<ellipse transform="matrix(0.9686 -0.2485 0.2485 0.9686 -42.4495 65.4953)" class="st12" cx="238.2" cy="200.9" rx="6.4" ry="0.8"/>
	
		<ellipse transform="matrix(0.9686 -0.2485 0.2485 0.9686 -39.369 73.2836)" class="st12" cx="270.6" cy="192.6" rx="6.4" ry="0.8"/>
	
		<ellipse transform="matrix(0.9686 -0.2485 0.2485 0.9686 -38.2882 76.0554)" class="st12" cx="282.1" cy="189.7" rx="6.4" ry="0.8"/>
	<path class="st11" d="M253.4,204.6l4.9-1.3c0.7-0.2,1.4,0.2,1.5,0.8l0.1,0.4c0.1,0.6-0.3,1.3-1,1.5l-4.9,1.3
		c-0.7,0.2-1.4-0.2-1.5-0.8l-0.1-0.4C252.2,205.4,252.7,204.7,253.4,204.6z"/>
	<path class="st12" d="M253.4,204.6l4.9-1.3c0.7-0.2,1.4,0.2,1.5,0.8l0.1,0.4c0.1,0.6-0.3,1.3-1,1.5l-4.9,1.3
		c-0.7,0.2-1.4-0.2-1.5-0.8l-0.1-0.4C252.2,205.4,252.7,204.7,253.4,204.6z"/>
	<ellipse transform="matrix(0.9672 -0.254 0.254 0.9672 -48.9669 72.926)" class="st14" cx="257.9" cy="226.1" rx="19.2" ry="2.6"/>
</g>
<g>
	<path class="st11" d="M201.6,279l2.8,8.6c0.1,0.3,0.4,0.5,0.7,0.4c0,0,0,0,0.1,0s0.3-0.1,0.4-0.3c0.1-0.1,0.1-0.3,0.1-0.5l-2.8-8.7
		L201.6,279z"/>
	<path class="st11" d="M189.8,282.6l2.8,8.6c0.1,0.3,0.4,0.5,0.7,0.4c0,0,0,0,0.1,0s0.3-0.1,0.4-0.3c0.1-0.1,0.1-0.3,0.1-0.5
		l-2.8-8.7L189.8,282.6z"/>
	<path class="st4" d="M209.7,286.2c-0.1-0.4-0.6-0.6-1-0.6l-0.7,0.1l-1.3,0.2l-1.5,0.2l-1.3,0.2l-8.7,1.3c-0.1,0-0.3,0.1-0.4,0.1
		l-1.8,1l-0.7,0.4l-0.3,0.2l0,0l0,0l-0.1,0.1L191,290l-0.3,0.2l-0.1,0.1l-1,0.6l-1.9,1.1c-0.1,0.1-0.2,0.2-0.3,0.3l0,0
		c-0.1,0.2-0.2,0.5-0.1,0.7l3.1,9.7c0,0.1,0.1,0.1,0.1,0.2c0.2,0.3,0.5,0.4,0.9,0.4L204,302l1.3-0.1c0.1,0,0.1,0,0.2,0l0,0h0.1l0,0
		c0,0,0.1,0,0.1-0.1l3.8-2.5l3.2-2.1c0.3-0.2,0.5-0.6,0.4-1L209.7,286.2z"/>
	<path class="st1" d="M208.9,286.4c0-0.1-0.1-0.1-0.1-0.1h-0.1l-0.5,0.1l0,0l0,0l0,0l-1.2,0.2l-1.5,0.2l-1.3,0.2l-8.8,1.3l0,0l0,0
		l-0.6,0.4l-0.7,0.4l-0.6,0.4l-1.1,0.7l-0.1,0.1l0,0l-1.3,0.8l-1.1,0.6l-0.7,0.4l-0.5,0.3l0,0l-0.5,0.3l-0.1,0.1l3.1,9.7l0.1,0.1
		l0.6-0.1l12.1-1.2l1.1-0.1l0,0h0.1c0,0,0,0,0.1,0l0.1-0.1l2.8-1.9l0,0l1.1-0.7l3-2c0,0,0.1-0.1,0-0.1L208.9,286.4z"/>
	<path class="st1" d="M209.7,286.2c-0.1-0.4-0.6-0.6-1-0.6l-0.7,0.1l-1.3,0.2l-1.5,0.2l-1.3,0.2l-8.7,1.3c-0.1,0-0.3,0.1-0.4,0.1
		l-1.8,1l-0.7,0.4l-0.3,0.2l0,0l0,0l-0.1,0.1L191,290l-0.3,0.2l-0.1,0.1l-1,0.6l-1.9,1.1c-0.1,0.1-0.2,0.2-0.3,0.3l0,0
		c-0.1,0.2-0.2,0.5-0.1,0.7l3.1,9.7c0,0.1,0.1,0.1,0.1,0.2c0.2,0.3,0.5,0.4,0.9,0.4L204,302l1.3-0.1c0.1,0,0.1,0,0.2,0l0,0h0.1l0,0
		c0,0,0.1,0,0.1-0.1l3.8-2.5l3.2-2.1c0.3-0.2,0.5-0.6,0.4-1L209.7,286.2z M212.5,296.9l-3.2,2.1l-1.1,0.7l-2.8,1.8l0,0
		c-0.1,0-0.1,0.1-0.2,0.1l0,0c0,0,0,0-0.1,0l-1.2,0.1l-12.6,1.3c-0.2,0-0.5-0.1-0.6-0.3c0-0.1-0.1-0.1-0.1-0.2l-3.1-9.7
		c0-0.2,0-0.3,0-0.5l0,0l0,0c0-0.1,0.1-0.2,0.2-0.2c0,0,0,0,0.1,0l1.9-1.1l1.1-0.7l0.1-0.1l0,0l1.3-0.7l0.6-0.3l0.5-0.3h0.1l1.8-1.1
		c0.1,0,0.1-0.1,0.2-0.1h0.1l8.7-1.3l1.3-0.2l1.5-0.2l1.3-0.2l0.7-0.1c0.1,0,0.3,0,0.4,0l0,0c0.2,0.1,0.3,0.2,0.4,0.4l3.3,9.9
		C212.9,296.4,212.8,296.7,212.5,296.9z"/>
	<path class="st1" d="M209.3,286L209.3,286l-3.5,2.1l-1.1,0.6l-3.1,1.8l0,0l0,0l-14.2,1.8l0,0c-0.1,0-0.1,0-0.1-0.1s0-0.1,0.1-0.1
		h0.3l13.9-1.8l2.6-1.6l1.5-0.9l3.4-2h0.1h0.1l0,0C209.4,285.9,209.4,286,209.3,286z"/>
	<path class="st1" d="M205.4,301.8c-0.1,0-0.1,0-0.1-0.1l-3.8-11.2c0-0.1,0-0.1,0.1-0.1l0,0c0.1,0,0.1,0,0.1,0.1l3.8,11.2
		C205.5,301.7,205.5,301.8,205.4,301.8L205.4,301.8z"/>
	<path class="st11" d="M209.4,299.1l-1.1,0.6l-4.1-11l-13.4,1.5l0,0c-0.1,0-0.2,0-0.3-0.1l1.6-0.9l0.5-0.1l12.7-1.4
		c0.1,0,0.3,0,0.4,0.1C205.8,288,209.4,299,209.4,299.1z"/>
	<path class="st11" d="M208.4,274.5c-0.2,0-0.4,0-0.7,0l-0.3-0.9c-0.1-0.3-0.3-0.6-0.6-0.7c-0.1-0.1-0.3-0.1-0.4-0.1h-0.1
		c-0.1,0-0.3,0-0.4,0c-0.1,0-0.3,0.1-0.4,0.2c-0.1,0-0.1,0.1-0.2,0.2c-0.1,0.1-0.2,0.2-0.2,0.3c0,0,0,0,0,0.1
		c-0.1,0.3-0.2,0.6-0.1,0.9l0.1,0.4c-6.8,0.7-13.4,2.7-19.4,5.9l-0.1-0.3c-0.1-0.3-0.3-0.6-0.6-0.7c-0.1-0.1-0.3-0.1-0.4-0.1h-0.1
		c-0.1,0-0.3,0-0.4,0c-0.1,0-0.3,0.1-0.4,0.2c-0.1,0-0.1,0.1-0.2,0.2c-0.1,0.1-0.2,0.2-0.2,0.3c0,0,0,0,0,0.1
		c-0.2,0.3-0.2,0.6-0.1,0.9l0.3,0.9c-0.2,0.1-0.4,0.2-0.6,0.3l0,0l0,0c0.1,0.4,0.3,0.7,0.6,1l0.2,0.2c0.8,0.6,1.9,0.9,2.9,0.5
		l0.9-0.3l2.8,8.7c0.1,0.3,0.4,0.5,0.7,0.4c0.2,0,0.3-0.1,0.4-0.3c0.1-0.1,0.1-0.3,0.1-0.5l-2.8-8.6c0.6,0,1.1,0.2,1.5,0.6
		c0.1,0.1,0.3,0.2,0.4,0.3c0.9,0.6,2.1,0.8,3.2,0.5l7.4-2.2c0.6-0.2,1.1-0.5,1.5-0.9s0.7-0.9,0.9-1.4c0-0.1,0.1-0.2,0.1-0.3
		c0.1-0.5,0.4-1,0.9-1.3l2.8,8.6c0.1,0.3,0.4,0.5,0.7,0.4c0,0,0,0,0.1,0s0.3-0.1,0.4-0.3c0.1-0.1,0.1-0.3,0.1-0.5l-2.8-8.7l0.9-0.3
		c1-0.3,1.8-1.1,2-2c0-0.1,0-0.2,0.1-0.3C208.6,275.4,208.6,274.9,208.4,274.5L208.4,274.5L208.4,274.5z"/>
	
		<ellipse transform="matrix(0.9842 -0.1771 0.1771 0.9842 -46.8553 39.2571)" class="st1" cx="196.5" cy="282.1" rx="3.4" ry="3.1"/>
	
		<ellipse transform="matrix(0.9842 -0.1771 0.1771 0.9842 -46.8553 39.2571)" class="st11" cx="196.5" cy="282.1" rx="1.8" ry="1.7"/>
	<path class="st11" d="M210.3,270.9l-4.2,1.3l0.2,0.6l4.9-1.5C211.1,271,210.7,270.8,210.3,270.9z"/>
	<path class="st11" d="M201.1,273.7c-0.4,0.1-0.6,0.5-0.5,0.8l4.9-1.5l-0.2-0.6L201.1,273.7z"/>
	<path class="st1" d="M207,272.6c-0.1-0.2-0.3-0.4-0.6-0.5c-0.6-0.2-1.3,0-1.6,0.6c-0.1,0.2-0.1,0.4-0.1,0.6c0,0.1,0,0.1,0,0.2v0.1
		l2.3-0.7v-0.1C207,272.8,207,272.7,207,272.6z"/>
	<path class="st11" d="M188.4,277.6l-4.2,1.3l0.2,0.6l4.9-1.5C189.2,277.6,188.8,277.5,188.4,277.6z"/>
	<path class="st11" d="M179.2,280.4c-0.4,0.1-0.6,0.5-0.5,0.8l4.9-1.5l-0.2-0.6L179.2,280.4z"/>
	<path class="st1" d="M185.1,279.3c-0.3-0.5-1-0.7-1.6-0.5c-0.4,0.2-0.7,0.7-0.6,1.1c0,0.1,0,0.1,0,0.2v0.1l2.3-0.7v-0.1
		C185.1,279.4,185.1,279.3,185.1,279.3z"/>
	<path class="st1" d="M183.3,283.4c8.1-3.5,16.5-6.1,25.2-7.6c0,0.1,0,0.2-0.1,0.3c-4.3,0.8-8.5,1.8-12.6,3l0,0
		c-0.2,0.1-0.5,0.1-0.7,0.2l0,0c-4,1.2-7.8,2.7-11.6,4.3L183.3,283.4z"/>
	<path class="st11" d="M197.4,299.7C197.3,299.7,197.3,299.7,197.4,299.7l-4.5,0.4c-0.1,0-0.2-0.1-0.2-0.2s0.1-0.2,0.2-0.2l4.4-0.4
		c0.1,0,0.2,0.1,0.2,0.2C197.5,299.5,197.5,299.6,197.4,299.7L197.4,299.7z"/>
	<path class="st11" d="M195.5,297.6L195.5,297.6L191,298c-0.1,0-0.2-0.1-0.2-0.2s0.1-0.2,0.2-0.2l0,0l4.4-0.4c0.1,0,0.2,0.1,0.2,0.2
		C195.7,297.5,195.6,297.6,195.5,297.6L195.5,297.6z"/>
</g>
<g>
	
		<ellipse transform="matrix(2.118628e-03 -1 1 2.118628e-03 -223.179 503.1794)" class="st19" cx="140.5" cy="363.4" rx="3.9" ry="4.4"/>
	<path class="st7" d="M140.8,367.2c-1,0.4-2.3,0.3-3.3-0.2s-1.7-1.3-2.3-2.3c-0.4-0.7-0.7-1.4-0.5-2.2c0.2-0.7,1.1-1.3,1.9-1.1
		c-0.6-0.4-0.5-1.2-0.1-1.7s1.1-0.7,1.8-0.9c1-0.3,2-0.5,3-0.3s2,0.6,2.5,1.4c0.7,0.2,1.4-0.1,1.7-0.7c0.2,0.5,0,1.1-0.5,1.5
		l1.4-0.7c0.4,0.4,0,1.1-0.5,1.3c-0.5,0.2-1.2,0.2-1.8,0.1s-1.3,0.2-1.9,0.2s-1.2,0.3-1.4,0.8c-0.1,0.3,0,0.6-0.1,0.8
		s-0.2,0.6-0.5,0.7c-0.2,0-0.4,0-0.6,0c-0.2,0.1-0.4,0.3-0.4,0.5s0,0.4,0.1,0.6c0.3,0.8,0.8,1.2,1.1,2"/>
	<path class="st19" d="M161.5,394.7c-0.9-0.1-1.6-0.8-1.5-1.6c0-0.1,0-0.2,0.1-0.3l-4.8-3l2.8-1l4.1,3c0.9,0.3,1.3,1.1,1,1.9
		C162.9,394.3,162.2,394.7,161.5,394.7L161.5,394.7z"/>
	<path class="st19" d="M129.3,396.9c-0.4-0.7-0.1-1.6,0.7-2c0.1,0,0.2-0.1,0.3-0.1l0.2-5.2l2.5,1.6l-0.6,4.7
		c0.2,0.8-0.3,1.6-1.2,1.8C130.5,397.8,129.7,397.5,129.3,396.9L129.3,396.9z"/>
	<polygon class="st19" points="137.6,428.7 140,428.7 141.1,420.2 137.5,420.2 	"/>
	<path class="st7" d="M137,430.9l7.9-0.1v-0.1c0-1.5-1.4-2.8-3.1-2.7l0,0l-1.5-1l-2.7,1h-0.7L137,430.9z"/>
	<polygon class="st19" points="153.2,428.6 155.6,428.2 155.3,419.7 151.7,420.2 	"/>
	<path class="st7" d="M152.9,430.7l7.8-1.1v-0.1c-0.3-1.5-1.8-2.5-3.5-2.3l0,0l-1.6-0.8l-2.5,1.3l-0.7,0.1L152.9,430.7z"/>
	<path class="st7" d="M133.6,395.5c1.3-0.3,2.7-0.6,4-0.9c2.1-0.5,4.3-1,6.4-1.5l1.5-0.3h0.1c0.1,0,0.1,0,0.2,0.1
		c0.3,0.5,0.7,1,1,1.5l2.4,3.5c0.9,1.4,1.9,2.7,2.8,4.1l2.2,3.2c0.2,0.3,0.4,0.6,0.6,0.9c0.1,0.1,0.1,0.2,0.2,0.3
		c0.1,0.7,0.1,1.3,0.2,2c0.1,1.3,0.3,2.7,0.4,4l0.5,4.8c0.1,1.4,0.3,2.8,0.4,4.2c0.1,0.7,0.1,1.5,0.2,2.2v0.1c0,0.1-0.1,0.2-0.2,0.2
		l-3.9,1.2l-0.6,0.2c-0.1,0-0.3,0-0.3-0.2c-0.3-1.4-0.5-2.8-0.8-4.1c-0.4-2.2-0.9-4.4-1.3-6.6c-0.1-0.3-0.1-0.7-0.2-1
		c0-0.2-0.1-0.3-0.1-0.5c-0.1-0.1-0.1-0.2-0.2-0.3c-0.2-0.4-0.3-0.9-0.2-1.3v-0.1l0,0c0-0.1,0-0.2-0.1-0.3c-0.1-0.3-0.1-0.6-0.2-0.9
		c0-0.2-0.1-0.5-0.1-0.7l0,0c0,0,0,0,0.1,0l0,0l0,0l0,0l0,0c-0.2-0.1-0.3-0.3-0.5-0.4c-0.8-0.7-1.6-1.4-2.3-2.1
		c-1.4-1.2-2.8-2.5-4.2-3.7l0.2,19.4c0,0.9,0.1,1.8,0,2.7l0,0c0,0.1-0.1,0.2-0.2,0.2h-4.5c-0.1,0-0.2-0.1-0.3-0.2
		c-0.1-0.5-0.1-1.1-0.2-1.6c-0.1-1.2-0.3-2.5-0.4-3.7c-0.2-1.3-0.3-2.7-0.5-4l-0.3-2.6c0-0.1,0-0.1,0-0.2c0,0,0,0,0-0.1
		s-0.1-0.2-0.1-0.2c-0.2-0.4-0.4-0.8-0.3-1.3c0-0.1,0-0.3,0.1-0.4c0-0.1,0.1-0.1,0.1-0.2c0,0,0-0.1,0.1-0.1l0,0
		c-0.1-0.3-0.1-0.7-0.1-1c-0.1-0.6-0.1-1.2-0.2-1.8l-0.4-3.7l-0.2-1.4l-0.4-3.7c-0.1-1-0.2-2.1-0.3-3.1c0-0.1,0-0.1,0-0.2
		C133.4,395.6,133.5,395.5,133.6,395.5z"/>
	<path class="st7" d="M148.4,409.6L148.4,409.6L148.4,409.6L148.4,409.6z"/>
	<path class="st6" d="M135.9,371l2.9-2.7V367l6,1.3v2.7c0,0,4.6,8,3.1,12c-0.8,2.4-1.2,6.1-1.3,8.8c0,0.3-0.4,0.6-0.4,0.8
		c0,0.2,1,0.7,1,0.9c0,1.2-0.7,1.6-0.7,1.6l-13.4,1.4c0.1-1-0.2-1.2-0.2-2.2c0-0.3,0.8-1.3,0.8-1.6c0-0.3-0.5-0.6-0.5-0.9
		c0-0.2,0-0.4,0-0.6c-0.1-3.3-0.7-6.4-1.8-9.4L135.9,371z"/>
	<path class="st6" d="M133.3,394l0.2-10.2l6-9.9c0.6-1,0.2-2.3-1-2.9s-2.6-0.2-3.2,0.9l-6.4,10.6l0,0l0.4,6.1l0.5,2.4l-0.3,0.7
		l0.2,2.2L133.3,394z"/>
	<path class="st6" d="M157.2,392.6l3.6-2.2l-8.9-6.9l-4.8-10.4c-0.5-1.1-1.9-1.6-3.1-1.2c-0.1,0.1-0.3,0.1-0.4,0.2l0,0
		c-1,0.6-1.3,1.7-0.9,2.6l5.1,11.1l2.4,1.3l0.9,1.1h0.8l0.3,0.8l1.4,0.5L157.2,392.6z"/>
	<rect x="163" y="389.3" class="st4" width="0" height="0"/>
</g>
<path class="st2" d="M718.9,489.8h-659c-0.3,0-0.6-0.8-0.6-1.8s0.3-1.8,0.6-1.8h659c0.3,0,0.6,0.8,0.6,1.8
	C719.5,489.1,719.2,489.8,718.9,489.8z"/>
<path class="st2" d="M146.4,458.7H68.6c-0.5,0-0.8-0.4-0.8-0.9s0.4-0.9,0.8-0.9h77.8c0.5,0,0.8,0.4,0.8,0.9S146.9,458.7,146.4,458.7
	z"/>
<path class="st1" d="M717.9,578.4L19.1,491.7V95L717.9,8.2V578.4z M23.9,488.1l689.2,85.6V13L23.9,98.6V488.1z"/>
<path id="af4baad4-c88d-44ba-bf25-f9ac1002d243-290" class="st20" d="M25.1,98.1L710.3,13v558.1L25.1,486L25.1,98.1L25.1,98.1z"/>
<g>
	<path class="st21" d="M445,661.2c3.7-28.9,21.9-57.4,50-66.8c-11.1,29.8-11.1,62.4,0,92.2c4.3,11.5,10.3,23.8,6.3,35.3
		c-2.5,7.2-8.7,12.7-15.6,16.1c-6.9,3.4-14.6,5.1-22.2,6.7l-1.5,1.2C450,719.3,441.3,690.1,445,661.2z"/>
	<path class="st4" d="M495.3,594.9c-16.4,18-26.5,40.6-29.1,64.6c-0.6,5.2-0.4,10.4,0.6,15.5c1.2,4.9,3.6,9.5,7.2,13.1
		c3.2,3.5,7,6.7,9.3,10.9c2.3,4.4,2.6,9.5,0.9,14.2c-2,5.8-6.1,10.5-10.2,14.9c-4.6,4.9-9.4,10-11.3,16.6c-0.2,0.8-1.5,0.4-1.2-0.4
		c3.4-11.4,14.7-17.9,20-28.2c2.5-4.8,3.6-10.4,1.2-15.4c-2.1-4.4-5.9-7.7-9.2-11.2c-3.5-3.5-6.1-7.9-7.5-12.6
		c-1.3-5-1.7-10.2-1.2-15.4c0.9-11.6,3.7-23.1,8.3-33.8c5.1-12.3,12.4-23.7,21.4-33.7C495,593.3,495.8,594.3,495.3,594.9
		L495.3,594.9z"/>
	<path class="st4" d="M466.6,651.7c-8.4-2-14-9.6-13.4-18c0.1-0.8,1.4-0.8,1.3,0.1c-0.6,7.8,4.7,14.9,12.5,16.8
		C467.8,650.7,467.4,651.9,466.6,651.7L466.6,651.7z"/>
	<path class="st4" d="M472.1,686.6c7.3-4.3,12.7-11.1,15.1-19.1c0.2-0.8,1.5-0.4,1.2,0.4c-2.5,8.3-8.1,15.4-15.8,19.9
		C472,688.2,471.4,687,472.1,686.6L472.1,686.6z"/>
	<path class="st4" d="M479.4,616.5c3,1.4,6.6,1.2,9.4-0.5c0.7-0.4,1.3,0.7,0.6,1.1c-3.2,1.9-7.1,2.1-10.4,0.5
		c-0.3-0.1-0.5-0.5-0.4-0.8C478.6,616.6,479,616.4,479.4,616.5L479.4,616.5z"/>
	<path class="st21" d="M580.7,646c-0.4,0.3-0.9,0.6-1.3,0.9c-5.9,3.8-11.5,8.1-16.7,12.8c-0.4,0.4-0.8,0.7-1.2,1.1
		c-12.4,11.5-22.6,25.1-29.9,40.2c-2.9,6-5.4,12.2-7.3,18.6c-2.7,8.8-4.9,18.6-10.3,25.8c-0.6,0.8-1.1,1.5-1.8,2.2h-48.4
		c-0.1-0.1-0.2-0.1-0.3-0.2l-1.9,0.1c0.1-0.3,0.2-0.7,0.2-1c0-0.2,0.1-0.4,0.1-0.6c0-0.1,0.1-0.3,0.1-0.4v-0.1
		c0-0.1,0.1-0.2,0.1-0.3c0.5-1.9,1-3.9,1.5-5.8l0,0c4-14.8,9.2-29.4,16.6-42.7c0.2-0.4,0.4-0.8,0.7-1.2c3.3-6,7.2-11.7,11.5-17.1
		c2.4-2.9,4.9-5.8,7.5-8.4c6.9-6.9,14.8-12.8,23.5-17.3c17.4-9,37.5-12.4,56-6.9C579.7,645.7,580.2,645.9,580.7,646z"/>
	<path class="st4" d="M580.6,646.6c-24.1,4.7-46.1,16.7-62.8,34.4c-3.7,3.7-6.7,8-9,12.7c-2.1,4.6-2.9,9.7-2.3,14.7
		c0.4,4.7,1.5,9.5,0.7,14.2c-0.8,4.9-3.7,9.2-8,11.8c-5.2,3.4-11.3,4.8-17.3,5.9c-6.7,1.3-13.6,2.5-19.2,6.5
		c-0.7,0.5-1.4-0.6-0.7-1.1c9.7-7.1,22.7-5.6,33.3-10.6c4.9-2.3,9.2-6.2,10.4-11.6c1.1-4.8,0-9.7-0.5-14.4c-0.6-4.9,0-9.9,1.7-14.5
		c2.1-4.8,4.9-9.2,8.5-13c7.9-8.7,17.1-16.2,27.4-22.1c11.7-6.8,24.4-11.6,37.7-14.2C581.3,645.2,581.4,646.5,580.6,646.6
		L580.6,646.6z"/>
	<path class="st4" d="M522.8,675c-5.4-6.5-5.3-16,0.4-22.3c0.6-0.6,1.6,0.2,1,0.8c-5.3,5.9-5.4,14.7-0.3,20.7
		C524.4,674.9,523.3,675.7,522.8,675L522.8,675z"/>
	<path class="st4" d="M505.8,706.1c8.5,0.9,17-1.4,23.8-6.3c0.7-0.5,1.4,0.6,0.7,1.1c-7.1,5.2-16,7.5-24.8,6.5
		C504.7,707.3,505,706,505.8,706.1z"/>
	<path class="st4" d="M554.6,654.5c1.5,2.9,4.5,4.9,7.8,5.2c0.8,0.1,0.6,1.3-0.2,1.3c-3.7-0.4-6.9-2.5-8.6-5.7
		c-0.2-0.3-0.1-0.7,0.2-0.9C554,654.1,554.4,654.2,554.6,654.5L554.6,654.5z"/>
	<polygon class="st19" points="386.3,732 399.1,727.8 388.5,677.2 369.6,683.5 	"/>
	<path class="st7" d="M381.6,729l3.6-1.2l12.2-10.3l9.5,3.1l0,0c8.9-2.9,18.5,1.8,21.5,10.5l0.2,0.5l-41.4,13.7L381.6,729z"/>
	<polygon class="st19" points="324,723.7 337.2,726.8 355.5,678.3 336,673.8 	"/>
	<path class="st7" d="M321.6,718.7l3.7,0.9l15.9-2.4l6.4,7.6l0,0c9.1,2.1,14.8,11.1,12.6,20.1l-0.1,0.5l-42.5-9.9L321.6,718.7z"/>
	<rect x="211.8" y="678.8" class="st22" width="23.2" height="37.8"/>
	<polygon class="st22" points="230.9,703.2 233.9,698.8 289.6,736 286.7,740.3 	"/>
	<polygon class="st22" points="157.1,736 212.9,698.8 215.9,703.2 160.1,740.3 	"/>
	<ellipse class="st22" cx="288.2" cy="738.2" rx="7.3" ry="7.2"/>
	<ellipse class="st22" cx="223.1" cy="738.2" rx="7.3" ry="7.2"/>
	<ellipse class="st22" cx="158.6" cy="738.2" rx="7.3" ry="7.2"/>
	<rect x="220.4" y="701" class="st22" width="5.3" height="37.2"/>
	<rect x="218.4" y="645.6" class="st22" width="10" height="50.2"/>
	<path class="st1" d="M172.7,653.4v-11.7c0-4.5,3.7-8.1,8.3-8.1h77.6c4.6,0,8.3,3.7,8.3,8.1v11.7c0,4.5-3.7,8.1-8.3,8.1H181
		C176.5,661.6,172.7,657.9,172.7,653.4z"/>
	<path class="st1" d="M117.2,627.4l-50.1-84.6c-3.4-5.7-1.4-13.1,4.4-16.4l2.9-1.7c5.9-3.3,13.3-1.4,16.8,4.3l50.1,84.6
		c3.4,5.7,1.4,13.1-4.4,16.4l-2.9,1.7C128.1,635.1,120.6,633.1,117.2,627.4z"/>
	<path class="st1" d="M173.1,653c-22.6,0-40.8-18-40.9-40.1h4.4c0,19.8,16.3,35.8,36.5,35.8c7.5,0,14.8-2.3,21-6.5l2.5,3.5
		C189.7,650.5,181.5,653,173.1,653z"/>
	<path class="st7" d="M219.5,592.3c0,0,123.7-36.9,142.5,8.7s36.5,97.6,36.5,97.6l-24.3,7.6l-47.5-78.1c0,0-114.5,28.2-138.4-4.9
		L219.5,592.3z"/>
	<path class="st11" d="M130,500.2l-28.7-2.2l-5.5,34.7c0,0,35.3,90,96.1,98.6l57.4-51L185.7,557L130,500.2z"/>
	<ellipse class="st5" cx="88" cy="463.3" rx="37.6" ry="36.9"/>
	<path class="st7" d="M98.4,501.4c-1.7,1.4-4.3,2.2-7.9,2.3c-21.6,0.7-41-12.9-47.4-33.2c-1.6-5-2.9-12.4-0.3-19.5
		c1.8-5.1,5.5-9.4,8.7-13c2.8-3.1,5.8-6.2,8.7-9.1c3.6-3.5,7.8-7.3,13.2-9.1c3.9-1.3,8.1-1.4,12.1-1.6c1.4,0,2.9-0.1,4.3-0.2
		c3.5-0.1,7-1,10.2-2.5c1.3-0.7,2.9-0.8,4.3-0.3c1.4,0.5,2.5,1.6,3.1,3c0.5,1.4,1,2.6,2.5,3c1.1,0.3,2.4,0,3.3-0.7
		c0.5-0.4,1.1-0.5,1.7-0.4c0.6,0.2,1.1,0.6,1.3,1.2l0.1,0.4c0.7-0.4,1.5-0.5,2.2-0.3c1.1,0.4,1.8,1.5,1.6,2.6
		c-0.5,4.5-2.3,8.8-5.2,12.3c-2,2.4-4.4,4.4-7.2,5.9l-0.4,0.2l-0.3-0.5c-12.5,4.5-16.3,17.4-15.7,27.9l-1.1,0.1
		c-0.2-0.7-0.6-1.3-1.3-1.7c-0.7-0.5-1.6-0.6-2.5-0.4c-1.6,0.5-2.8,1.9-2.9,3.6s0.5,3.4,1.7,4.6c1.3,1.3,2.8,2.3,4.5,3.1
		c0.7,0.4,1.5,0.8,2.3,1.3c4.2,2.7,7.2,6.8,8.4,11.5c0.6,2.2,0.9,5.2-0.8,7.7C99.3,500.6,98.9,501,98.4,501.4z"/>
	<path class="st7" d="M366.8,614.9c-5.8,48.8-18.1,94.4-18.1,94.4l-23.2-3.3l5.3-92"/>
	<path class="st1" d="M116.2,469.2c-2.3,0-4.3-1.5-5-3.6c-15.1-7.7-7.1-13.1-6.1-19.3c-0.8-2.7,0.7-5.5,3.4-6.4l0,0l15.4-4.7
		c2.7-0.8,5.6,0.7,6.5,3.4l6.1,19.3c0.8,2.7-0.7,5.5-3.4,6.4l-15.4,4.7C117.3,469.1,116.8,469.2,116.2,469.2z"/>
	<path class="st11" d="M126.3,434.6c2.3,0,4.3,1.5,5,3.6l6.4,19.7c0.4,1.3,0.3,2.8-0.3,4s-1.7,2.2-3,2.6l-3.5,1.1l-9.6-29.7l3.5-1.1
		C125.3,434.7,125.8,434.6,126.3,434.6z"/>
	<path class="st1" d="M46.7,480.1c-1.5,0-2.8-0.9-3.2-2.3l-1.6-5.1c-0.5-1.7,0.4-3.6,2.2-4.1l0,0l69.6-21.1c1.8-0.5,3.7,0.4,4.2,2.2
		l0,0l1.6,5.1c0.5,1.7-0.4,3.6-2.2,4.1L47.7,480C47.3,480.1,47,480.1,46.7,480.1z"/>
	<path class="st23" d="M257.8,623h-10.4c-2.8,0-5-2.1-5.2-4.8l-1.8-30.7c-0.2-2.8,2-5.2,4.9-5.4c0.1,0,0.2,0,0.3,0h13.9
		c2.9,0,5.2,2.3,5.2,5.1c0,0.1,0,0.2,0,0.3l-1.8,30.7C262.8,620.9,260.5,623,257.8,623z"/>
	<polygon class="st22" points="264.3,589.3 264.2,591.5 241,591.5 240.8,589.3 	"/>
	<polygon class="st22" points="264.1,594.4 263.9,596.6 241.3,596.6 241.1,594.4 	"/>
	<polygon class="st22" points="263.8,599.5 263.6,601.7 241.6,601.7 241.4,599.5 	"/>
	<polygon class="st22" points="263.5,604.6 263.3,606.9 241.9,606.9 241.7,604.6 	"/>
	<polygon class="st22" points="263.2,609.7 263,612 242.1,612 242,609.7 	"/>
	<polygon class="st22" points="262.9,614.8 262.8,617.1 242.4,617.1 242.3,614.8 	"/>
	<ellipse class="st22" cx="252.9" cy="583.3" rx="3.8" ry="0.9"/>
	<path class="st22" d="M253.2,584.1c-0.5,0-0.9-0.4-0.9-0.9l0,0v-16h-5.5c-0.5,0-0.9-0.4-0.9-0.9s0.4-0.9,0.9-0.9h6.4
		c0.5,0,0.9,0.4,0.9,0.9l0,0v17C254,583.8,253.6,584.1,253.2,584.1L253.2,584.1z"/>
	<path class="st19" d="M250.2,598.1c-4.7-3.8-11.7-3.1-15.6,1.5c-0.4,0.5-0.8,1-1.1,1.6l-38.9-6.8l8.1,18.5l35.7,3.6
		c5.6,2.6,12.2,0.3,14.9-5.2C255.5,606.8,254.2,601.3,250.2,598.1L250.2,598.1z"/>
	<path class="st11" d="M224.9,616.7l-71.2-5.5l-0.1-0.3c-0.3-0.5-27.3-50.7-31.2-62.2c-2.5-6.9-2.5-14.5,0.1-21.4l0.1-0.2l0.2-0.1
		c6.8-3.8,15.3-2.5,20.6,3.2c12.2,13.3,21.2,29.2,26.1,46.5l2.8,9.8l51,11.2L224.9,616.7z"/>
	<path class="st22" d="M651.4,750H87.8c-0.7,0-1.3-0.6-1.3-1.3s0.6-1.3,1.3-1.3h563.7c0.7,0,1.3,0.6,1.3,1.3
		C652.7,749.4,652.2,750,651.4,750z"/>
	<path class="st1" d="M123.7,448.2c-1.2,0-2.2-0.7-2.6-1.8l-1.4-4.1c-0.5-1.4,0.3-3,1.7-3.4c1.4-0.5,3,0.3,3.5,1.7l0,0l1.4,4.1
		c0.5,1.4-0.3,3-1.7,3.4l0,0C124.3,448.2,124,448.2,123.7,448.2z"/>
	<path class="st1" d="M126.9,459.1c-1.2,0-2.3-0.8-2.7-2l-1.2-4.2c-0.4-1.4,0.4-2.9,1.9-3.3s3,0.4,3.4,1.9l1.2,4.2
		c0.4,1.4-0.4,2.9-1.9,3.3l0,0C127.4,459,127.2,459.1,126.9,459.1z"/>
</g>
</svg>
