<?xml version="1.0" encoding="utf-8"?>
<!-- Generator: Adobe Illustrator 28.0.0, SVG Export Plug-In . SVG Version: 6.00 Build 0)  -->
<svg version="1.1" id="Layer_1" xmlns="http://www.w3.org/2000/svg" xmlns:xlink="http://www.w3.org/1999/xlink" x="0px" y="0px"
	 viewBox="0 0 720 720" style="enable-background:new 0 0 720 720;" xml:space="preserve">
<style type="text/css">
	.st0{fill:#E4E4E4;}
	.st1{fill:#FFFFFF;}
	.st2{fill:#6666FF;}
	.st3{fill:#CCCCFF;}
	.st4{opacity:0.15;fill:#3F3D56;}
	.st5{opacity:0.14;fill:#3F3D56;}
	.st6{fill:#3F3D56;}
</style>
<circle class="st0" cx="360" cy="367.7" r="216"/>
<circle class="st1" cx="360" cy="367.7" r="198"/>
<circle class="st2" cx="56.9" cy="182.3" r="32.4"/>
<circle class="st3" cx="405.9" cy="260.5" r="32.4"/>
<circle class="st2" cx="56.9" cy="539.5" r="32.4"/>
<circle class="st2" cx="56.9" cy="358.6" r="32.4"/>
<circle class="st2" cx="56.9" cy="270.5" r="32.4"/>
<circle class="st2" cx="663.1" cy="181.4" r="32.4"/>
<circle class="st2" cx="663.1" cy="538.6" r="32.4"/>
<circle class="st2" cx="663.1" cy="357.7" r="32.4"/>
<circle class="st2" cx="663.1" cy="269.6" r="32.4"/>
<circle class="st3" cx="231.8" cy="317.2" r="32.4"/>
<circle class="st3" cx="360" cy="338.5" r="32.4"/>
<circle class="st3" cx="497.8" cy="370.9" r="32.4"/>
<circle class="st3" cx="257.2" cy="468.4" r="32.4"/>
<circle class="st3" cx="405.9" cy="482.4" r="32.4"/>
<path class="st4" d="M251.9,292.9c-0.7,0-1.2-0.8-1.2-1.9c0-0.6,0.2-1.2,0.5-1.5c0.1-0.2,15.1-16.6,37.3-29
	c20.6-11.5,51.9-22,84.2-6.3c0.6,0.3,1,1.4,0.8,2.3c-0.2,1-0.9,1.5-1.5,1.2c0,0,0,0,0,0c-31.6-15.4-62.3-5.1-82.6,6.2
	c-22,12.3-36.6,28.4-36.7,28.5C252.4,292.8,252.1,292.9,251.9,292.9z"/>
<path class="st4" d="M392.4,341.3c0-0.7,0.8-1.2,1.9-1.3c0.6,0,1.2,0.2,1.5,0.5c0.2,0.1,16.7,14.8,29.5,37
	c11.8,20.5,22.6,51.6,7.3,84.1c-0.3,0.6-1.4,1-2.3,0.8c-1-0.2-1.5-0.9-1.2-1.5c0,0,0,0,0,0c15-31.8,4.3-62.4-7.2-82.5
	c-12.5-21.8-28.8-36.2-29-36.4C392.5,341.9,392.4,341.6,392.4,341.3z"/>
<path class="st5" d="M380.8,502.9c-0.3,0.7-0.9,1.1-1.4,0.9c-0.3-0.1-29-7.8-60.8-30.2c-29.4-20.7-67.7-58.7-83-121.7
	c-0.2-0.6,0.2-1.5,0.8-1.9c0.6-0.4,1.2-0.3,1.3,0.4c0,0,0,0,0,0c15.1,62.4,53.1,100.1,82.3,120.7c31.7,22.3,60.1,30,60.4,30
	c0.5,0.1,0.7,0.9,0.4,1.6C380.9,502.7,380.9,502.8,380.8,502.9L380.8,502.9z"/>
<path class="st6" d="M144,84.5"/>
<path class="st6" d="M492.9-68.2"/>
<path class="st6" d="M342.9,797.8"/>
</svg>
